<svg width="192" height="259" viewBox="0 0 192 259" fill="none" xmlns="http://www.w3.org/2000/svg">
<path d="M15.0624 212.305L4.47825 197.986L0.742676 118.293L18.1754 95.2572L62.3797 72.8438L59.8893 52.9207L50.5504 43.5817L39.3436 50.4303L23.1561 34.2428L42.4566 11.2067L56.1537 25.5264L79.8124 34.2428L83.548 52.9207L109.697 56.0337L112.81 34.2428L126.507 14.9423L133.356 0H148.921L165.731 9.33894L158.882 32.375H143.317L133.356 46.6947V69.7308L179.428 95.2572L191.257 111.445V200.476L176.937 218.531L97.8677 259L15.0624 212.305Z" fill="#fff"/>
<path d="M64.2474 93.3894L29.382 115.803L26.8916 141.952L56.7763 139.462V128.877L68.6056 125.764L64.2474 93.3894Z" fill="#EFD641"/>
<path d="M68.6056 167.478L34.9854 146.31H71.7186L68.6056 167.478Z" fill="#EFD641"/>
<path d="M88.5287 80.3149L71.7186 89.0312L82.3027 90.899L128.997 93.3894L105.339 80.3149H88.5287Z" fill="#EFD641"/>
<path d="M97.245 123.897L92.8868 96.5024H107.829V123.897H97.245Z" fill="#EFD641"/>
<path d="M84.1705 139.462V130.745L119.036 128.877V139.462H84.1705Z" fill="#EFD641"/>
<path d="M139.582 125.764L134.601 100.238L160.75 108.332L171.334 122.651L139.582 125.764Z" fill="#EFD641"/>
<path d="M146.43 155.649L144.562 132.613L170.089 128.877L171.957 143.197L146.43 155.649Z" fill="#EFD641"/>
<path d="M75.4541 169.346L77.9445 147.555L137.091 143.197L139.582 157.517L109.697 176.195L92.8868 178.685L75.4541 169.346Z" fill="#EFD641"/>
<path d="M26.8916 186.156L26.269 170.591L87.2835 206.702L88.5287 222.267L26.8916 186.156Z" fill="#EFD641"/>
<path d="M92.8868 219.154V208.57L105.339 210.437V222.267L92.8868 219.154Z" fill="#EFD641"/>
<path d="M112.187 219.154L109.697 204.834L171.334 170.591L171.957 184.288L112.187 219.154Z" fill="#EFD641"/>
<path d="M33.1177 34.8654L41.2114 20.5457L51.173 31.7524L44.3244 41.714L33.1177 34.8654Z" fill="#1D1D1B"/>
<path d="M55.5312 38.601L58.0215 31.7524L73.5864 38.601L67.9831 45.4495L55.5312 38.601Z" fill="#1D1D1B"/>
<path d="M73.5864 45.4495L67.9831 51.6755L70.4735 69.1082L76.0768 65.9952L73.5864 45.4495Z" fill="#1D1D1B"/>
<path d="M135.846 12.452L143.317 5.60339L154.524 12.452L152.034 22.4135H138.959L135.846 12.452Z" fill="#1D1D1B"/>
<path d="M137.714 28.0169L131.488 22.4135L123.394 31.7524L129.62 37.3558L137.714 28.0169Z" fill="#1D1D1B"/>
<path d="M128.375 41.714L121.526 34.8654L119.036 41.714H128.375Z" fill="#1D1D1B"/>
<path d="M116.546 65.9952L119.036 45.4495H125.262L126.507 69.1082L116.546 65.9952Z" fill="#1D1D1B"/>
<path d="M91.0191 72.2212L88.5287 65.9952H106.584L105.339 72.2212H91.0191Z" fill="#1D1D1B"/>
<path d="M110.32 74.7116V67.863L135.846 81.5601L131.488 87.1635L110.32 74.7116Z" fill="#1D1D1B"/>
<path d="M137.714 90.2765L140.204 84.0505L168.844 99.6154L164.485 106.464L137.714 90.2765Z" fill="#1D1D1B"/>
<path d="M172.579 103.351L168.844 108.954L175.07 117.671L181.918 113.313L172.579 103.351Z" fill="#1D1D1B"/>
<path d="M183.786 120.784L175.07 122.651L176.315 141.952L181.296 139.462L183.786 120.784Z" fill="#1D1D1B"/>
<path d="M175.07 210.438L177.56 165.611H183.786L182.541 196.118L175.07 210.438Z" fill="#1D1D1B"/>
<path d="M116.546 196.74L109.074 183.043L142.072 165.611L150.788 176.817L116.546 196.74Z" fill="#1D1D1B"/>
<path d="M154.524 173.704L146.43 162.498L183.786 141.952L181.918 160.63L154.524 173.704Z" fill="#1D1D1B"/>
<path d="M111.565 199.853L102.848 185.534L92.8869 184.288L88.5287 201.099L100.358 203.589L111.565 199.853Z" fill="#1D1D1B"/>
<path d="M89.7739 184.288L81.0576 196.74L52.4182 181.176L67.3605 170.591L89.7739 184.288Z" fill="#1D1D1B"/>
<path d="M61.7571 166.856L48.06 178.063L13.8172 159.385L15.0624 141.329L61.7571 166.856Z" fill="#1D1D1B"/>
<path d="M86.661 74.7116L84.7932 67.863L65.4927 78.4471L67.3605 85.9183L86.661 74.7116Z" fill="#1D1D1B"/>
<path d="M62.3797 89.6539L61.7571 81.5601L26.2691 101.483L31.8725 106.464L62.3797 89.6539Z" fill="#1D1D1B"/>
<path d="M27.5143 110.2L23.7788 102.728L13.8172 120.161L19.4206 122.029L27.5143 110.2Z" fill="#1D1D1B"/>
<path d="M12.572 136.349L13.8172 123.274L21.2884 125.764V141.329L12.572 136.349Z" fill="#1D1D1B"/>
<path d="M21.2884 168.724L15.0624 163.743L13.8172 194.873L23.1562 208.57L21.2884 168.724Z" fill="#1D1D1B"/>
<path d="M26.2691 209.815L24.4013 188.024L49.3052 202.344L26.2691 209.815Z" fill="#1D1D1B"/>
<path d="M55.5312 206.079L32.4951 214.173L55.5312 226.625V206.079Z" fill="#1D1D1B"/>
<path d="M61.7571 227.87V209.815L83.548 224.135L61.7571 227.87Z" fill="#1D1D1B"/>
<path d="M85.4158 244.058L63.6249 230.361L85.4158 227.87V244.058Z" fill="#1D1D1B"/>
<path d="M99.7355 225.38L89.7739 229.115V244.058L97.8677 249.661L107.207 244.058V230.361L99.7355 225.38Z" fill="#1D1D1B"/>
<path d="M111.565 224.135V245.926L133.356 230.361L111.565 224.135Z" fill="#1D1D1B"/>
<path d="M136.469 207.947L116.546 219.776L142.072 227.87L136.469 207.947Z" fill="#1D1D1B"/>
<path d="M143.94 203.589L146.43 225.38L171.957 212.305L143.94 203.589Z" fill="#1D1D1B"/>
<path d="M170.711 206.079L150.788 201.099L169.466 189.269L170.711 206.079Z" fill="#1D1D1B"/>
<path d="M73.5864 123.274L74.8316 98.9928L88.5287 97.7476L92.8869 123.274H73.5864Z" fill="#1D1D1B"/>
<path d="M112.187 123.274V95.2572L126.507 97.7476L131.488 122.029L112.187 123.274Z" fill="#1D1D1B"/>
<path d="M64.8701 140.084V130.745H78.5672V141.952L64.8701 140.084Z" fill="#F6005A"/>
<path d="M122.149 140.084L124.639 130.745H139.582L141.449 140.084H122.149Z" fill="#F6005A"/>
</svg>
