<svg xmlns="http://www.w3.org/2000/svg" viewBox="0 0 32.48 59.62"><defs><style>.cls-1{fill:#5aaf82;}.cls-2{fill:#2c9364;}.cls-3{fill:#35322d;}.cls-4{fill:#5f599e;}.cls-5{fill:#6b6bb2;}</style></defs><title>cactus</title><g id="Capa_2" data-name="Capa 2"><g id="mesas"><g id="_3D" data-name="3D"><g id="complementos_mesas" data-name="complementos mesas"><g id="cactus"><path class="cls-1" d="M9.13,8.32c-2.68,1.06,2.42,1.54,3.69,0C14.76,6,11.4,4.63,12.36,6.27a.89.89,0,0,0,1.54-.9c-1-1.73-2.25-3.57-4.37-4a3.9,3.9,0,0,0-4.15,2C3.71,6.27,5.61,11.61,9.61,10c1.05-.42.59-2.14-.48-1.71"/><path class="cls-1" d="M23.94,16.94c.47-.66-2.45,1.6-1.86,1.92.9.48-1.07.08-1.09,1.1,0,2.19,4.17,3.19,2.3,1.93-.95-.64-1.84.9-.9,1.54,3.24,2.18,7.55-1,7.09-4.69-.37-3-4.94-5.65-7.08-2.7-.67.93.87,1.82,1.54.9"/><path class="cls-2" d="M13,32.07c2.75-.06,6.44-.17,6.44-.17-.34,1.1,1.38,1.57,1.72.48,1.88-6,7.47-31.12-6.67-27.11C3.16,8.48,6.4,26.5,11.76,33.33c.7.9,2-.37,1.25-1.26"/><path class="cls-3" d="M4.18,3.49l1.44,1a.9.9,0,0,0,1.22-.32A.92.92,0,0,0,6.52,3L5.07,2a.89.89,0,1,0-.89,1.53"/><path class="cls-3" d="M18,4.77a1.56,1.56,0,0,1,0,.83.89.89,0,0,0,1.71.47,3.32,3.32,0,0,0,0-1.77A.89.89,0,0,0,18,4.77"/><path class="cls-3" d="M5,18.63a3.44,3.44,0,0,0,1.82.52.89.89,0,0,0,0-1.78,1.71,1.71,0,0,1-.93-.27C4.87,16.49,4,18,5,18.63"/><path class="cls-3" d="M15.22,15.08c-.07.37-.13.73-.2,1.09a.91.91,0,0,0,.62,1.09.89.89,0,0,0,1.09-.62l.21-1.08a.92.92,0,0,0-.62-1.1.9.9,0,0,0-1.1.62"/><path class="cls-3" d="M12.05,22.56a3.36,3.36,0,0,0,1.26,1.66.9.9,0,0,0,1.22-.32.92.92,0,0,0-.32-1.22,1.23,1.23,0,0,1-.44-.59.92.92,0,0,0-1.1-.62.9.9,0,0,0-.62,1.09"/><path class="cls-3" d="M28,15.56l-.57.9c-.62,1,.92,1.86,1.54.9l.57-.9c.62-1-.92-1.86-1.54-.9"/><path class="cls-3" d="M27.29,22.85a1.9,1.9,0,0,1,.44.62.89.89,0,0,0,1.54-.89,3.7,3.7,0,0,0-.72-1c-.82-.8-2.08.46-1.26,1.26"/><path class="cls-3" d="M25.46,20.47l.6-.58c.84-.79-.42-2-1.25-1.26l-.61.58c-.83.79.42,2.05,1.26,1.26"/><path class="cls-3" d="M23.4,11.71l1-.6a.89.89,0,0,0-.9-1.53l-1,.6c-1,.59-.09,2.13.89,1.53"/><path class="cls-3" d="M10.52,15.81a6.27,6.27,0,0,1,.62.84c.6,1,2.14.08,1.54-.9a9.53,9.53,0,0,0-.9-1.19.89.89,0,1,0-1.26,1.25"/><path class="cls-3" d="M15.79,8.66a9.75,9.75,0,0,0-.31,1.52.9.9,0,0,0,.89.89.91.91,0,0,0,.89-.89,6.41,6.41,0,0,1,.25-1c.34-1.09-1.38-1.56-1.72-.47"/><path class="cls-3" d="M18.53,23.12a7.16,7.16,0,0,1,1-.67.89.89,0,0,0-.9-1.54,8.9,8.9,0,0,0-1.32,1,.89.89,0,0,0,0,1.25.91.91,0,0,0,1.26,0"/><path class="cls-3" d="M15.07,28.55a4.32,4.32,0,0,0,1.43-.1.9.9,0,0,0,.62-1.09.92.92,0,0,0-1.1-.62,2.76,2.76,0,0,1-.95,0,.89.89,0,0,0-.89.89.92.92,0,0,0,.89.89"/><path class="cls-3" d="M6.77,26.38H8.15a.89.89,0,0,0,0-1.78H6.77a.89.89,0,0,0,0,1.78"/><path class="cls-3" d="M21.87,27.38a4.75,4.75,0,0,0,1.69.52.9.9,0,0,0,.89-.89.91.91,0,0,0-.89-.89,2.52,2.52,0,0,1-.8-.27c-1-.54-1.91,1-.89,1.53"/><path class="cls-3" d="M9.74.65a5.84,5.84,0,0,0-.1,1.72.89.89,0,1,0,1.78,0,4.76,4.76,0,0,1,0-1.25A.91.91,0,0,0,10.83,0,.89.89,0,0,0,9.74.65"/><path class="cls-3" d="M5.26,9.64a.63.63,0,0,1,.61-.21.89.89,0,1,0,0-1.78A2.47,2.47,0,0,0,3.72,8.74.91.91,0,0,0,4,10a.92.92,0,0,0,1.22-.32"/><path class="cls-3" d="M8.45,6a.89.89,0,0,0,0-1.78A.89.89,0,0,0,8.45,6"/><path class="cls-4" d="M27.77,34.91c-.1-.9-25.54-4.62-25.44-3.71L5.42,58.87a.76.76,0,0,0,.26.47.62.62,0,0,0,.54.28h20c.49,0,.71-.11.84-.45a3.92,3.92,0,0,0,.19-.9q1.18-11.66,1.9-23.36c.06-.91-1.36-.91-1.42,0"/><path class="cls-5" d="M32.08,30.17c-.55-.6-1.69-.7-3.89-.7h-24c-2.23,0-3.27.06-3.81.62S0,31.33,0,32.55c0,.46,0,1,0,1.64v.87c0,1.7,0,2.64.56,3.21s1.71.64,3.62.64h24c2.15,0,3.21,0,3.77-.6s.47-1.25.43-2.59q0-.66,0-1.53c0-.68,0-1.25.07-1.75.08-1.06.13-1.77-.35-2.27"/></g></g></g></g></g></svg>