<svg xmlns="http://www.w3.org/2000/svg" viewBox="0 0 32.48 59.62"><g data-name="Capa 2"><g data-name="3D"><g data-name="complementos mesas"><path d="M9.13 8.32c-2.68 1.06 2.42 1.54 3.69 0 1.94-2.32-1.42-3.69-.46-2.05a.89.89 0 001.54-.9c-1-1.73-2.25-3.57-4.37-4a3.9 3.9 0 00-4.15 2c-1.67 2.9.23 8.24 4.23 6.63 1.05-.42.59-2.14-.48-1.71m14.81 8.65c.47-.66-2.45 1.6-1.86 1.92.9.48-1.07.08-1.09 1.1 0 2.19 4.17 3.19 2.3 1.93-.95-.64-1.84.9-.9 1.54 3.24 2.18 7.55-1 7.09-4.69-.37-3-4.94-5.65-7.08-2.7-.67.93.87 1.82 1.54.9" fill="#5aaf82"/><path d="M13 32.07c2.75-.06 6.44-.17 6.44-.17-.34 1.1 1.38 1.57 1.72.48 1.88-6 7.47-31.12-6.67-27.11C3.16 8.48 6.4 26.5 11.76 33.33c.7.9 2-.37 1.25-1.26" fill="#2c9364"/><path d="M4.18 3.49l1.44 1a.9.9 0 001.22-.32A.92.92 0 006.52 3L5.07 2a.89.89 0 10-.89 1.53M18 4.77a1.56 1.56 0 010 .83.89.89 0 001.71.47 3.32 3.32 0 000-1.77.89.89 0 00-1.71.47M5 18.63a3.44 3.44 0 001.82.52.89.89 0 000-1.78 1.71 1.71 0 01-.93-.27C4.87 16.49 4 18 5 18.63m10.22-3.55c-.07.37-.13.73-.2 1.09a.91.91 0 00.62 1.09.89.89 0 001.09-.62l.21-1.08a.92.92 0 00-.62-1.1.9.9 0 00-1.1.62m-3.17 7.48a3.36 3.36 0 001.26 1.66.9.9 0 001.22-.32.92.92 0 00-.32-1.22 1.23 1.23 0 01-.44-.59.92.92 0 00-1.1-.62.9.9 0 00-.62 1.09m15.95-7l-.57.9c-.62 1 .92 1.86 1.54.9l.57-.9c.62-1-.92-1.86-1.54-.9m-.71 7.29a1.9 1.9 0 01.44.62.89.89 0 001.54-.89 3.7 3.7 0 00-.72-1c-.82-.8-2.08.46-1.26 1.26m-1.83-2.37l.6-.58c.84-.79-.42-2-1.25-1.26l-.61.58c-.83.79.42 2.05 1.26 1.26m-2.06-8.76l1-.6a.89.89 0 00-.9-1.53l-1 .6c-1 .59-.09 2.13.89 1.53m-12.87 4.1a6.27 6.27 0 01.62.84c.6 1 2.14.08 1.54-.9a9.53 9.53 0 00-.9-1.19.89.89 0 10-1.26 1.25m5.27-7.15a9.75 9.75 0 00-.31 1.52.9.9 0 00.89.89.91.91 0 00.89-.89 6.41 6.41 0 01.25-1c.34-1.09-1.38-1.56-1.72-.47m2.74 14.41a7.16 7.16 0 011-.67.89.89 0 00-.9-1.54 8.9 8.9 0 00-1.32 1 .89.89 0 000 1.25.91.91 0 001.26 0m-3.5 5.39a4.32 4.32 0 001.43-.1.9.9 0 00.62-1.09.92.92 0 00-1.1-.62 2.76 2.76 0 01-.95 0 .89.89 0 00-.89.89.92.92 0 00.89.89m-8.3-2.14h1.38a.89.89 0 000-1.78H6.77a.89.89 0 000 1.78m15.1 1a4.75 4.75 0 001.69.52.9.9 0 00.89-.89.91.91 0 00-.89-.89 2.52 2.52 0 01-.8-.27c-1-.54-1.91 1-.89 1.53M9.74.65a5.84 5.84 0 00-.1 1.72.89.89 0 101.78 0 4.76 4.76 0 010-1.25.91.91 0 00-.59-1.12.89.89 0 00-1.09.65M5.26 9.64a.63.63 0 01.61-.21.89.89 0 100-1.78 2.47 2.47 0 00-2.15 1.09A.91.91 0 004 10a.92.92 0 001.22-.32M8.45 6a.89.89 0 000-1.78.89.89 0 000 1.78" fill="#35322d"/><path d="M27.77 34.91c-.1-.9-25.54-4.62-25.44-3.71l3.09 27.67a.76.76 0 00.26.47.62.62 0 00.54.28h20c.49 0 .71-.11.84-.45a3.92 3.92 0 00.19-.9q1.18-11.66 1.9-23.36c.06-.91-1.36-.91-1.42 0" fill="#5f599e"/><path d="M32.08 30.17c-.55-.6-1.69-.7-3.89-.7h-24c-2.23 0-3.27.06-3.81.62S0 31.33 0 32.55v2.51c0 1.7 0 2.64.56 3.21s1.71.64 3.62.64h24c2.15 0 3.21 0 3.77-.6s.47-1.25.43-2.59v-1.53c0-.68 0-1.25.07-1.75.08-1.06.13-1.77-.35-2.27" fill="#6b6bb2"/></g></g></g></svg>