<svg xmlns="http://www.w3.org/2000/svg" viewBox="0 0 23.62 55.77"><defs><clipPath id="clip-path"><path d="M2.87 35.66h17.89v2.41H2.87z" fill="none"/></clipPath><clipPath id="clip-path-2"><path d="M3.11 37.89h17.41v2.41H3.11z" fill="none"/></clipPath><style></style></defs><path d="M1.24 21.76h21.18L18.55 54.2c-.56.89-3.35 1.57-6.72 1.57-3.77 0-6.83-.85-6.83-1.9 0-.12-3.76-32.11-3.76-32.11" fill="#855cd6"/><path d="M.23 22.24c0-1.17 5.15-2.11 11.5-2.11 6 0 10.9.84 11.45 1.91h.05a11.23 11.23 0 01.38 2.36.66.66 0 010 .3c-.4.8-6.06 2.07-11.72 2.07S.46 25.63 0 24.68a.8.8 0 010-.33 7.19 7.19 0 01.22-2.11" fill="#fff"/><path d="M9.47 22c0 .27.84.49 1.87.49s1.86-.22 1.86-.49-.83-.5-1.86-.5-1.87.22-1.87.5" fill="#6287a7"/><path d="M10.57 21.93c0 .34 1.69.34 1.69 0V5.35a.85.85 0 00-1.69 0z" fill="#fff"/><path d="M5.67 0c-.24-.16-1.22 1.22-1 1.38l6.22 4.5a.85.85 0 001-1.38z" fill="#fff"/><path d="M10.42 6.05h1.95a.26.26 0 000-.52h-1.95a.26.26 0 000 .52" fill="#fff"/><path d="M10.58 6l1.72-.92a.25.25 0 00.1-.34.24.24 0 00-.34-.11l-1.72.91a.26.26 0 00-.11.35.26.26 0 00.35.11m-.16.75h1.95a.26.26 0 000-.52h-1.95a.26.26 0 000 .52" fill="#fff"/><g clip-path="url(#clip-path)"><path d="M20.76 35.66a36.54 36.54 0 01-9.4 1.48 26.28 26.28 0 01-8.49-1.48L3 36.75a52.26 52.26 0 008.39 1.32 69.74 69.74 0 009.32-1.37z" fill="#fff"/></g><g clip-path="url(#clip-path-2)"><path d="M20.53 37.89a34.8 34.8 0 01-9.16 1.48 25 25 0 01-8.26-1.48L3.2 39a49.81 49.81 0 008.17 1.32 66.5 66.5 0 009.07-1.36z" fill="#fff"/></g></svg>