<svg xmlns="http://www.w3.org/2000/svg" xmlns:xlink="http://www.w3.org/1999/xlink" viewBox="0 0 23.62 55.77"><defs><style>.cls-1{fill:none;}.cls-2{fill:#855cd6;}.cls-3{fill:#fff;}.cls-4{fill:#6287a7;}.cls-5{opacity:0.67;}.cls-6{clip-path:url(#clip-path);}.cls-7{clip-path:url(#clip-path-2);}</style><clipPath id="clip-path"><rect class="cls-1" x="2.87" y="35.66" width="17.89" height="2.41"/></clipPath><clipPath id="clip-path-2"><rect class="cls-1" x="3.11" y="37.89" width="17.41" height="2.41"/></clipPath></defs><title>drink</title><g id="Capa_2" data-name="Capa 2"><g id="mesas"><g id="_3D" data-name="3D"><g id="complementos_mesas" data-name="complementos mesas"><g id="refresco"><path class="cls-2" d="M1.24,21.76H22.42L18.55,54.2c-.56.89-3.35,1.57-6.72,1.57-3.77,0-6.83-.85-6.83-1.9,0-.12-3.76-32.11-3.76-32.11"/><path class="cls-3" d="M.23,22.24v0c0-1.17,5.15-2.11,11.5-2.11,6,0,10.9.84,11.45,1.91h.05a11.23,11.23,0,0,1,.38,2.36.66.66,0,0,1,0,.3c-.4.8-6.06,2.07-11.72,2.07S.46,25.63,0,24.68a.8.8,0,0,1,0-.33,7.19,7.19,0,0,1,.22-2.11"/><path class="cls-4" d="M9.47,22c0,.27.84.49,1.87.49s1.86-.22,1.86-.49-.83-.5-1.86-.5-1.87.22-1.87.5"/><path class="cls-3" d="M10.57,21.93c0,.34,1.69.34,1.69,0V5.35a.85.85,0,0,0-1.69,0Z"/><path class="cls-3" d="M5.67,0c-.24-.16-1.22,1.22-1,1.38l6.22,4.5a.85.85,0,0,0,1-1.38Z"/><path class="cls-3" d="M10.42,6.05h1.95a.26.26,0,0,0,0-.52H10.42a.26.26,0,0,0,0,.52"/><path class="cls-3" d="M10.58,6l1.72-.92a.25.25,0,0,0,.1-.34.24.24,0,0,0-.34-.11l-1.72.91a.26.26,0,0,0-.11.35.26.26,0,0,0,.35.11"/><path class="cls-3" d="M10.42,6.75h1.95a.26.26,0,0,0,0-.52H10.42a.26.26,0,0,0,0,.52"/><g class="cls-5"><g class="cls-6"><path class="cls-3" d="M20.76,35.66a36.54,36.54,0,0,1-9.4,1.48,26.28,26.28,0,0,1-8.49-1.48L3,36.75a52.26,52.26,0,0,0,8.39,1.32,69.74,69.74,0,0,0,9.32-1.37Z"/></g></g><g class="cls-5"><g class="cls-7"><path class="cls-3" d="M20.53,37.89a34.8,34.8,0,0,1-9.16,1.48,25,25,0,0,1-8.26-1.48L3.2,39a49.81,49.81,0,0,0,8.17,1.32,66.5,66.5,0,0,0,9.07-1.36Z"/></g></g></g></g></g></g></g></svg>