<svg width="489" height="75" viewBox="0 0 489 75" fill="none" xmlns="http://www.w3.org/2000/svg">
<path d="M487.692 9.50672C488.832 10.2442 488.922 11.8788 487.869 12.7363L477.292 21.3548C476.795 21.7601 476.133 21.9021 475.513 21.7368L462.315 18.2172C461.794 18.0783 461.351 17.7351 461.087 17.2653L454.004 4.67325C453.296 3.41413 454.115 1.84246 455.553 1.70218L472.305 0.067775C472.755 0.0238896 473.207 0.133658 473.586 0.379187L487.692 9.50672Z" fill="currentColor"/>
<path d="M453.925 22.2771C454.547 21.5376 454.552 20.4585 453.936 19.7137L444.564 8.38936C443.756 7.41381 442.257 7.42462 441.464 8.41171L421.348 33.4446C420.836 34.0821 420.763 34.9671 421.165 35.6794L434.624 59.5592C435.298 60.7552 436.949 60.932 437.862 59.9059L447.197 49.4037C447.691 48.848 447.836 48.0643 447.573 47.3688L443.414 36.3473C443.158 35.6697 443.289 34.9069 443.756 34.3529L453.925 22.2771Z" fill="currentColor"/>
<path d="M484.622 63.3081C485.802 62.6587 486.016 61.0513 485.046 60.1159L473.581 49.0603C473.208 48.7009 472.711 48.5 472.193 48.5H457.926C457.339 48.5 456.781 48.7582 456.401 49.206L444.914 62.7442C443.998 63.824 444.463 65.4877 445.807 65.9355L466.17 72.7234C466.699 72.8997 467.278 72.8472 467.767 72.5785L484.622 63.3081Z" fill="currentColor"/>
<path d="M350.199 72.7801C349.022 72.8978 348 71.9733 348 70.79V8.05078C348 7.13804 348.618 6.3411 349.502 6.11379L363.093 2.61889C364.33 2.30089 365.544 3.20742 365.59 4.48346L367.932 69.1243C367.97 70.1789 367.183 71.0818 366.132 71.1868L350.199 72.7801Z" fill="currentColor"/>
<path d="M401.231 52.9756C399.918 54.0014 398 53.0658 398 51.3995V5.90051C398 4.27106 399.844 3.32548 401.167 4.27648L413.167 12.9015C413.69 13.2772 414 13.8817 414 14.5255V42.0245C414 42.6402 413.717 43.2215 413.231 43.6006L401.231 52.9756Z" fill="currentColor"/>
<path d="M374.135 17.0861C373.184 17.036 372.4 16.3221 372.262 15.3798L370.337 2.29099C370.159 1.08356 371.095 0 372.316 0H388.608C389.67 0 390.546 0.829226 390.605 1.88906L391.376 15.7747C391.442 16.9628 390.463 17.9454 389.274 17.8829L374.135 17.0861Z" fill="currentColor"/>
<path d="M374.379 57.5C373.323 57.5 372.449 56.6788 372.383 55.6248L371.633 43.6248C371.561 42.4734 372.475 41.5 373.629 41.5H389.5C390.605 41.5 391.5 42.3954 391.5 43.5V55.5C391.5 56.6046 390.605 57.5 389.5 57.5H374.379Z" fill="currentColor"/>
<path d="M294.971 4.46892C294.986 3.1973 293.826 2.23483 292.579 2.48423L279.072 5.18559C278.153 5.36932 277.485 6.16616 277.465 7.1028L276.564 48.0845C276.533 49.4888 277.922 50.4866 279.243 50.0095L293.196 44.971C293.98 44.6877 294.507 43.9474 294.516 43.1134L294.971 4.46892Z" fill="currentColor"/>
<path d="M334.477 6.02247C334.49 4.90919 333.591 4 332.477 4H318.974C317.88 4 316.989 4.87947 316.974 5.97369L316.519 40.5899C316.508 41.4354 317.029 42.1966 317.822 42.491L331.336 47.5104C332.633 47.9924 334.016 47.0422 334.032 45.658L334.477 6.02247Z" fill="currentColor"/>
<path d="M321.235 70.2086C321.727 70.0746 322.148 69.7583 322.414 69.3242L330.361 56.3589C330.973 55.3592 330.599 54.0493 329.55 53.5249L318.967 48.2333C318.114 47.8069 317.079 48.0417 316.493 48.7942L311.101 55.7279C310.722 56.2151 310.139 56.5 309.522 56.5H301.428C300.839 56.5 300.281 56.241 299.901 55.7919L295.959 51.1337C295.39 50.4606 294.447 50.2399 293.637 50.5905L282.197 55.5479C281.053 56.0438 280.637 57.4547 281.328 58.4924L288.585 69.3769C288.853 69.7787 289.257 70.07 289.723 70.197L304.974 74.3565C305.318 74.4504 305.682 74.4504 306.026 74.3565L321.235 70.2086Z" fill="currentColor"/>
<path d="M211.105 71.2918C210.171 71.1219 209.485 70.3187 209.463 69.3695L208.054 7.35905C208.026 6.12392 209.113 5.15899 210.336 5.33371L216.834 6.26205C217.797 6.39958 218.521 7.20974 218.551 8.18183L220.426 70.5301C220.464 71.8019 219.321 72.7856 218.069 72.558L211.105 71.2918Z" fill="currentColor"/>
<path d="M226.073 32.3944C225.706 32.782 225.51 33.2999 225.527 33.8329L225.842 43.5966C225.9 45.3883 228.104 46.205 229.315 44.8835L261.722 9.53028C262.85 8.30061 262.065 6.31266 260.401 6.18472L252.451 5.57317C251.85 5.52689 251.259 5.75476 250.845 6.19326L226.073 32.3944Z" fill="currentColor"/>
<path d="M240.088 43.3105C239.263 42.3695 237.785 42.4095 237.012 43.3938L233.977 47.2564C233.404 47.9853 233.408 49.0122 233.985 49.7375L251.68 71.9694C252.178 72.5947 253 72.8637 253.771 72.6534L260.412 70.8422C261.838 70.4532 262.364 68.705 261.389 67.5938L240.088 43.3105Z" fill="currentColor"/>
<path d="M194.336 14.6979C195.24 15.4052 195.364 16.7263 194.609 17.59L190.317 22.4948C189.59 23.3261 188.326 23.4104 187.495 22.683L181.47 17.411C181.164 17.1434 180.784 16.9753 180.38 16.9291L165.508 15.2295C164.403 15.1031 163.613 14.0986 163.751 12.9944L164.281 8.75193C164.406 7.75107 165.257 7 166.266 7H183.81C184.257 7 184.691 7.14962 185.043 7.42499L194.336 14.6979Z" fill="currentColor"/>
<path d="M157.516 19.7497C157.824 19.2726 157.915 18.6871 157.765 18.1392L156.163 12.264C155.71 10.6043 153.512 10.2526 152.565 11.6881L138.077 33.6267C137.716 34.1737 137.645 34.863 137.889 35.4716L147.707 60.0169C148.369 61.6713 150.7 61.6997 151.402 60.062L153.711 54.6746C153.898 54.2391 153.924 53.7514 153.784 53.2986L148.274 35.39C148.1 34.8257 148.185 34.2136 148.505 33.7176L157.516 19.7497Z" fill="currentColor"/>
<path d="M193.205 60.7672C194.168 60.0874 194.337 58.7266 193.57 57.8317L190.227 53.9318C189.538 53.1278 188.342 53.0003 187.499 53.6411L177.285 61.4033C176.79 61.7795 176.148 61.9041 175.549 61.7405L161.721 57.9693C160.74 57.7019 159.715 58.2124 159.338 59.156L156.909 65.2273C156.439 66.4016 157.164 67.7116 158.408 67.9379L177.174 71.3499C177.702 71.4459 178.247 71.3256 178.686 71.0161L193.205 60.7672Z" fill="currentColor"/>
<path d="M71.2275 73.013C69.9906 72.748 69.3073 71.4156 69.8139 70.2565L97.8613 6.0803C98.1526 5.4137 98.7829 4.95786 99.5072 4.88995L105.736 4.30599C107.226 4.16627 108.336 5.65316 107.779 7.0423L81.1277 73.4364C80.7651 74.3399 79.8045 74.851 78.8526 74.647L71.2275 73.013Z" fill="currentColor"/>
<path d="M111.463 17.0926C110.642 15.395 108.143 15.6725 107.715 17.5088L105.655 26.3356C105.555 26.7663 105.6 27.2183 105.783 27.6206L125.966 71.8306C126.291 72.543 127.002 73 127.786 73H135.311C136.786 73 137.754 71.4574 137.112 70.1293L111.463 17.0926Z" fill="currentColor"/>
<path d="M94.6546 58.5C93.0741 58.5 92.1181 56.7531 92.9701 55.4219L95.8526 50.918C96.2202 50.3436 96.8551 49.9961 97.5371 49.9961H107.912C108.59 49.9961 109.223 50.3402 109.591 50.9099L112.504 55.4138C113.365 56.7446 112.41 58.5 110.825 58.5H94.6546Z" fill="currentColor"/>
<path d="M2.97689 70.8228C2.06392 70.6339 1.40256 69.8393 1.38256 68.9072L0.047664 6.72045C0.0221859 5.53354 1.03021 4.58585 2.21329 4.68444L10.2067 5.35055C11.2263 5.43552 12.0173 6.27631 12.0401 7.29921L13.4443 70.488C13.4728 71.7734 12.2986 72.7514 11.0396 72.4909L2.97689 70.8228Z" fill="currentColor"/>
<path d="M47.9582 72.4216C46.7028 72.717 45.5001 71.7645 45.5001 70.4748V5.07262C45.5001 3.76803 46.729 2.81268 47.9933 3.13438L54.7671 4.85794C55.6423 5.08065 56.2597 5.86235 56.2736 6.76541L57.2253 68.6263C57.2398 69.5658 56.5983 70.3887 55.6837 70.6039L47.9582 72.4216Z" fill="currentColor"/>
<path d="M20.682 42.5C19.7098 42.5 18.8784 41.8008 18.7117 40.843L17.6672 34.843C17.4543 33.6197 18.3959 32.5 19.6376 32.5H37.902C38.9493 32.5 39.8192 33.3079 39.8966 34.3523L40.341 40.3523C40.4269 41.5119 39.5092 42.5 38.3465 42.5H20.682Z" fill="currentColor"/>
</svg>
