<svg xmlns="http://www.w3.org/2000/svg" viewBox="0 0 508.62 510.24"><defs><style>.cls-1{fill:#000}</style></defs><title>logo_black</title><g id="Capa_2" data-name="Capa 2"><g id="Isotipo_B" data-name="Isotipo B"><polygon points="268.99 217.66 239.52 217.63 234.76 215.63 234.17 215.03 147.65 128.31 145.72 123.53 145.7 94.22 147.72 89.25 164.02 72.88 170.09 78.92 155 94.07 154.26 95.89 154.27 121.86 154.94 123.5 239.63 208.39 241.25 209.07 267.38 209.1 268.82 208.53 353.63 123.53 354.22 122.07 354.2 95.9 353.53 94.28 269.05 9.48 266.81 8.57 241.38 8.56 239.33 9.42 192.34 56.57 186.28 50.53 234.45 2.19 239.65 0 268.5 .01 273.89 2.21 360.79 89.44 362.76 94.19 362.78 123.74 360.92 128.34 273.61 215.85 268.99 217.66" class="cls-1"/><path d="M184.08,72.49A13.69,13.69,0,1,1,197.74,58.8,13.69,13.69,0,0,1,184.08,72.49Zm0-18.82a5.13,5.13,0,1,0,5.1,5.13A5.12,5.12,0,0,0,184.08,53.67Z" class="cls-1"/><polygon points="93.79 363.67 89.17 361.85 1.87 274.35 0 269.75 .02 240.2 2 235.44 88.89 148.22 94.29 146.02 123.13 146.01 128.33 148.19 176.51 196.53 170.44 202.58 123.46 155.43 121.41 154.57 95.97 154.58 93.73 155.49 9.25 240.29 8.58 241.91 8.56 268.08 9.15 269.53 93.97 354.54 95.41 355.11 121.53 355.08 123.15 354.4 207.85 269.51 208.51 267.87 208.52 241.89 207.78 240.07 192.7 224.92 198.76 218.88 215.07 235.26 217.09 240.22 217.07 269.53 215.13 274.32 214.52 274.94 128.02 361.63 123.26 363.63 93.79 363.67" class="cls-1"/><path d="M178.71,218.49a13.69,13.69,0,1,1,13.66-13.68A13.69,13.69,0,0,1,178.71,218.49Zm0-18.81a5.13,5.13,0,1,0,5.1,5.13A5.12,5.12,0,0,0,178.71,199.68Z" class="cls-1"/><polygon points="385.15 363.62 380.55 361.75 293.24 274.24 291.44 269.62 291.47 240.09 293.46 235.33 380.58 148.02 385.36 146.08 414.61 146.06 419.58 148.09 435.91 164.43 429.86 170.48 414.75 155.36 412.94 154.62 387.03 154.64 385.41 155.3 300.71 240.19 300.03 241.81 300 268.01 300.57 269.46 385.38 354.47 386.82 355.06 412.92 355.04 414.53 354.37 499.14 269.7 500.05 267.45 500.06 241.94 499.2 239.88 452.16 192.78 458.21 186.74 506.44 235.02 508.62 240.22 508.61 269.13 506.42 274.53 419.39 361.62 414.64 363.6 385.15 363.62" class="cls-1"/><path d="M450,198.2a13.69,13.69,0,1,1,13.66-13.68A13.69,13.69,0,0,1,450,198.2Zm0-18.81a5.13,5.13,0,1,0,5.1,5.13A5.12,5.12,0,0,0,450,179.39Z" class="cls-1"/><polygon points="269.67 510.24 240.17 510.21 235.42 508.23 148.4 421.14 146.2 415.74 146.19 386.84 148.37 381.64 196.6 333.35 202.66 339.4 155.62 386.5 154.75 388.56 154.76 414.06 155.68 416.32 240.28 500.99 241.89 501.66 267.99 501.68 269.43 501.09 354.25 416.08 354.81 414.63 354.79 388.43 354.1 386.8 269.41 301.91 267.78 301.25 241.87 301.24 240.07 301.97 224.95 317.09 218.9 311.04 235.24 294.7 240.2 292.68 269.45 292.69 274.24 294.63 361.35 381.94 363.34 386.71 363.37 416.24 361.57 420.86 274.27 508.36 269.67 510.24" class="cls-1"/><path d="M204.87,344.82a13.69,13.69,0,1,1,13.66-13.69A13.69,13.69,0,0,1,204.87,344.82Zm0-18.82a5.13,5.13,0,1,0,5.1,5.13A5.12,5.12,0,0,0,204.87,326Z" class="cls-1"/><path d="M274.19,80.22a13.69,13.69,0,1,1,13.66-13.69A13.69,13.69,0,0,1,274.19,80.22Zm0-18.82a5.13,5.13,0,1,0,5.1,5.13A5.13,5.13,0,0,0,274.19,61.4Z" class="cls-1"/><path d="M314.18,120.31a13.69,13.69,0,1,1,13.67-13.69A13.69,13.69,0,0,1,314.18,120.31Zm0-18.82a5.13,5.13,0,1,0,5.11,5.13A5.13,5.13,0,0,0,314.18,101.49Z" class="cls-1"/><rect width="8.56" height="37.83" x="289.9" y="67.66" class="cls-1" transform="translate(24.78 233.07) rotate(-44.94)"/><path d="M82,312.47a13.69,13.69,0,1,1,13.67-13.68A13.69,13.69,0,0,1,82,312.47Zm0-18.81a5.13,5.13,0,1,0,5.11,5.13A5.12,5.12,0,0,0,82,293.66Z" class="cls-1"/><path d="M121.94,312.5a13.69,13.69,0,1,1,13.67-13.68A13.69,13.69,0,0,1,121.94,312.5Zm0-18.81a5.13,5.13,0,1,0,5.11,5.13A5.12,5.12,0,0,0,121.94,293.69Z" class="cls-1"/><polygon points="101.54 325.42 85.06 308.94 91.11 302.89 101.54 313.32 112.35 302.51 118.4 308.56 101.54 325.42" class="cls-1"/><path d="M178.71,218.49a13.69,13.69,0,1,1,13.66-13.68A13.69,13.69,0,0,1,178.71,218.49Zm0-18.81a5.13,5.13,0,1,0,5.1,5.13A5.12,5.12,0,0,0,178.71,199.68Z" class="cls-1"/><path d="M207.85,440.08a13.69,13.69,0,1,1,13.67-13.69A13.7,13.7,0,0,1,207.85,440.08Zm0-18.82a5.13,5.13,0,1,0,5.11,5.13A5.13,5.13,0,0,0,207.85,421.26Z" class="cls-1"/><path d="M247.85,480.16a13.69,13.69,0,1,1,13.66-13.68A13.69,13.69,0,0,1,247.85,480.16Zm0-18.81a5.13,5.13,0,1,0,5.1,5.13A5.12,5.12,0,0,0,247.85,461.35Z" class="cls-1"/><rect width="8.56" height="37.83" x="223.57" y="427.52" class="cls-1" transform="translate(-248.76 291.32) rotate(-44.93)"/><path d="M359.25,247.88a13.67,13.67,0,1,1,13.69-13.67A13.69,13.69,0,0,1,359.25,247.88Zm0-18.77a5.11,5.11,0,1,0,5.13,5.1A5.12,5.12,0,0,0,359.25,229.11Z" class="cls-1"/><path d="M359.22,287.85a13.67,13.67,0,1,1,13.69-13.67A13.69,13.69,0,0,1,359.22,287.85Zm0-18.78a5.11,5.11,0,1,0,5.13,5.11A5.12,5.12,0,0,0,359.22,269.07Z" class="cls-1"/><polygon points="349.47 270.64 332.61 253.78 349.1 237.3 355.15 243.35 344.72 253.78 355.53 264.59 349.47 270.64" class="cls-1"/></g></g></svg>