<svg xmlns="http://www.w3.org/2000/svg" viewBox="0 0 1051.87 365.37"><defs><style>.cls-1{fill:#fff}</style></defs><title>logo</title><g id="Capa_2" data-name="Capa 2"><g id="Capa_1-2" data-name="Capa 1"><path d="M746.15,243.55a59.54,59.54,0,0,1,23.74,22,60.14,60.14,0,0,1,8.5,31.75q0,12.48-3.61,21.47t-10.14,13.68a25.57,25.57,0,0,1-15.31,4.68,22.43,22.43,0,0,1-12.18-3.12,17.8,17.8,0,0,1-7.23-9.21q-7.67,12.33-24.24,12.33a31.41,31.41,0,0,1-16.58-4.54A31.93,31.93,0,0,1,677.26,320a42.07,42.07,0,0,1,0-37.14A32.12,32.12,0,0,1,689,270.13a31.39,31.39,0,0,1,16.65-4.54q14,0,21.83,9.36v-8.36h19.27v45.92q0,9.08,6.81,9.07,4.95,0,7.72-5.95t2.76-18q0-14.33-6.59-25.3a45.23,45.23,0,0,0-18.56-17.15q-12-6.17-27.57-6.17t-27.57,6.59a46.92,46.92,0,0,0-18.56,18.21,52.46,52.46,0,0,0-6.59,26.37,53.86,53.86,0,0,0,6.52,26.71,46.45,46.45,0,0,0,18.35,18.29q11.84,6.58,27.28,6.59a62.08,62.08,0,0,0,27.92-6.24l4.54,13a59,59,0,0,1-15.09,5,87.15,87.15,0,0,1-17.37,1.77q-20.13,0-35.57-8.43a60.11,60.11,0,0,1-24-23.31,66.23,66.23,0,0,1-8.51-33.45A64.71,64.71,0,0,1,651.33,267a60.3,60.3,0,0,1,24.16-23.1q15.59-8.37,35.86-8.36Q730.91,235.55,746.15,243.55ZM722.83,315.7q5-5.18,5-14.39t-5-14.17A17,17,0,0,0,710.07,282q-7.94,0-12.75,5.18t-4.82,14.1q0,9.07,4.82,14.32t12.75,5.24A16.89,16.89,0,0,0,722.83,315.7Z" class="cls-1"/><path d="M800.55,328.33q-9.56-9.4-9.56-26.65V258.79h21.89V301q0,18.57,14.7,18.57T842.18,301V258.79h21.55v42.89q0,17.25-9.56,26.65t-26.81,9.39Q810.11,337.72,800.55,328.33Z" class="cls-1"/><path d="M932.16,262.27a27.29,27.29,0,0,1,0,50.19A44.16,44.16,0,0,1,913.92,316H900.44v20.23H878.55V258.79h35.37A44.17,44.17,0,0,1,932.16,262.27Zm-9.39,33.5c2.28-1.95,3.42-4.74,3.42-8.35s-1.14-6.41-3.42-8.4-5.68-3-10.17-3H900.44V298.7H912.6Q919.34,298.7,922.77,295.77Z" class="cls-1"/><path d="M976.77,332.58a38.38,38.38,0,0,1-15.2-14.31,41.83,41.83,0,0,1,0-41.57,38.47,38.47,0,0,1,15.2-14.32,45.9,45.9,0,0,1,21.84-5.14,46.94,46.94,0,0,1,19.12,3.76,36.79,36.79,0,0,1,14.15,10.84L1018,284.44q-7.51-9.06-18.24-9.07a22.54,22.54,0,0,0-11.22,2.77,19.21,19.21,0,0,0-7.63,7.79,26,26,0,0,0,0,23.11,19.21,19.21,0,0,0,7.63,7.79,22.54,22.54,0,0,0,11.22,2.76q10.72,0,18.24-9.06l13.93,12.6A36.79,36.79,0,0,1,1017.73,334a46.93,46.93,0,0,1-19.12,3.75A45.78,45.78,0,0,1,976.77,332.58Z" class="cls-1"/><path d="M161.69,109.29q0-16.53,8-24.91T191.31,76q12.16,0,18.6,7.23t6.43,21.93v65.21h35.82V99.65q0-27.09-14.12-40.87T201,45a62.49,62.49,0,0,0-22.05,3.79A47.73,47.73,0,0,0,161.69,59.7V0H125.87V170.37h35.82Z" class="cls-1"/><path d="M289.47,107.69q-13,9.87-13,27.09A34.7,34.7,0,0,0,282,154.07a36.86,36.86,0,0,0,16,13.31q10.46,4.83,24.69,4.82,27.54,0,37.65-17.22v15.39h33.52V99.88q0-27.55-15.38-41.22T334.36,45a108.56,108.56,0,0,0-29.05,3.91,77.39,77.39,0,0,0-24.22,11l12.85,25a51.47,51.47,0,0,1,16.19-8.38,62.53,62.53,0,0,1,19.4-3.1q14.24,0,21.36,6.32t7.11,18H329.53Q302.44,97.81,289.47,107.69Zm68.53,11v12.62a23.24,23.24,0,0,1-10.1,12.52,31.2,31.2,0,0,1-16.3,4.25q-9.42,0-14.81-4a12.89,12.89,0,0,1-5.4-10.91q0-14.46,22.05-14.46Z" class="cls-1"/><path d="M451.8,164.05q15.72,8.16,35.47,8.15,19.51,0,34.1-8.26a49.35,49.35,0,0,0,21.24-23l-27.79-15.16q-9.42,17-27.78,17-14,0-23.19-9.18t-9.18-25q0-15.84,9.18-25T487,74.39q18.13,0,27.78,17l27.79-14.92a48.45,48.45,0,0,0-21.24-23.31Q506.78,45,487.27,45q-19.75,0-35.47,8.15a61.07,61.07,0,0,0-24.57,22.62q-8.85,14.46-8.84,32.83t8.84,32.84A61,61,0,0,0,451.8,164.05Z" class="cls-1"/><polygon points="598.17 138.91 615.39 121.92 654.42 170.37 697.82 170.37 641.79 99.19 693.23 46.84 650.52 46.84 598.17 96.44 598.17 0 562.35 0 562.35 170.37 598.17 170.37 598.17 138.91" class="cls-1"/><path d="M732.94,164.05q16.08,8.16,37,8.15,33.52,0,51-20l-19-20.67a41.3,41.3,0,0,1-13.9,9.07,47.23,47.23,0,0,1-17.1,2.87q-14,0-23.42-6.65a29.09,29.09,0,0,1-11.94-18.14h93.45q.69-9,.69-9.65,0-19.28-8.38-33.86a57,57,0,0,0-23.08-22.39,73.21,73.21,0,0,0-66.47.34A60.4,60.4,0,0,0,708,75.88a63.16,63.16,0,0,0-8.61,32.72q0,18.38,8.73,32.84A59.7,59.7,0,0,0,732.94,164.05ZM745.11,79q8.26-6.89,20.44-6.88,11.94,0,20.2,7t10.11,18.71H735Q736.84,85.87,745.11,79Z" class="cls-1"/><path d="M889.31,112.05q0-17.22,8.72-25.83t24.11-8.61c1.38,0,4.05.15,8,.46V45Q915.94,45,905,49.59A39.85,39.85,0,0,0,887.7,63.14V46.84H853.49V170.37h35.82Z" class="cls-1"/><path d="M995.21,149.9a52.25,52.25,0,0,1,36.17,14.49,40.17,40.17,0,0,0,13.6-11,32.64,32.64,0,0,0,6.89-20.44q0-13.55-7.12-21.12A37.34,37.34,0,0,0,1028,101.37a211.66,211.66,0,0,0-24.8-5.39q-13.55-2.07-19.75-4.37t-6.2-8q0-5.06,5.75-8.27t17.22-3.21a71.3,71.3,0,0,1,35.58,9.18l11.94-25.49q-8.49-5-21.46-7.92A120.55,120.55,0,0,0,1000.21,45q-17.69,0-30.66,5T949.81,64.17A33.81,33.81,0,0,0,943,85q0,14,7.24,21.59a38.82,38.82,0,0,0,17.1,10.56,183.82,183.82,0,0,0,25,5.28q12.86,1.61,19.06,3.9t6.2,7.58q0,11.25-22.74,11.25a83.72,83.72,0,0,1-23-3.33,75.22,75.22,0,0,1-20-8.61l-11.94,25.72a68.91,68.91,0,0,0,16.87,7.64A52.28,52.28,0,0,1,995.21,149.9Z" class="cls-1"/><path d="M995.19,161.71a42,42,0,0,0-40.63,31.49H109.25l-.12-.12-31-31a41.94,41.94,0,1,0-14.83,14.83L97.48,211.1a9.61,9.61,0,0,0,.82.74c.15.11.29.23.44.33l.46.31a10.89,10.89,0,0,0,5.7,1.69H954.57a42,42,0,1,0,40.62-52.46ZM57.67,141.63a15.73,15.73,0,0,1-14.82,14.84l-.88,0A15.74,15.74,0,1,1,57.7,140.75C57.7,141.05,57.69,141.34,57.67,141.63ZM995.21,219.4a15.74,15.74,0,1,1,15.73-15.74A15.65,15.65,0,0,1,995.21,219.4Z" class="cls-1"/></g></g></svg>