<svg xmlns="http://www.w3.org/2000/svg" viewBox="0 0 17.06 19.33"><defs><style>.cls-1{fill:#34256b;}</style></defs><title>icon-coffe</title><g id="Capa_2" data-name="Capa 2"><g id="pantallas"><g id="_2D" data-name="2D"><path class="cls-1" d="M5,5.38A3.11,3.11,0,0,1,5.74,5a8.69,8.69,0,0,1,.85-.23A5.06,5.06,0,0,0,8.49,4a1.93,1.93,0,0,0,.67-.87,1,1,0,0,0-.12-1,1.07,1.07,0,0,1-.28.81,1.63,1.63,0,0,1-.66.47,8.76,8.76,0,0,1-1.72.47,4.92,4.92,0,0,0-1,.33,2.67,2.67,0,0,0-1.52,2.6A4.39,4.39,0,0,1,5,5.38Z"/><path class="cls-1" d="M10.54,1.13a2.42,2.42,0,0,1,.18,1.47,2.11,2.11,0,0,1-.67,1.19,2.72,2.72,0,0,1-.6.4,4.64,4.64,0,0,1-.72.32c-.51.18-1.06.31-1.63.46a5.3,5.3,0,0,0-1.8.77,2.25,2.25,0,0,0-.69.86,1.7,1.7,0,0,0-.13.56,1.67,1.67,0,0,0,.08.55A2,2,0,0,0,6,9a2.12,2.12,0,0,1-.8-1.39.89.89,0,0,1,0-.33A.81.81,0,0,1,5.33,7a1.43,1.43,0,0,1,.51-.43,5.36,5.36,0,0,1,1.51-.43,11.55,11.55,0,0,0,1.8-.45A5.46,5.46,0,0,0,10,5.26a3.64,3.64,0,0,0,.83-.63,2.85,2.85,0,0,0,.81-1.94A2.86,2.86,0,0,0,11,.79,2.2,2.2,0,0,0,9.35,0,2.43,2.43,0,0,1,10.54,1.13Z"/><path class="cls-1" d="M6.82,7.49a3.63,3.63,0,0,1,.8-.14,5.54,5.54,0,0,0,.8-.21,4.81,4.81,0,0,0,1.47-.77,3.1,3.1,0,0,0,1-1.3A4.75,4.75,0,0,1,9.65,6a6.25,6.25,0,0,1-1.32.52c-.39.12-.79.18-1.18.28a1.34,1.34,0,0,0-.82.45c-.24.33-.34,1,.12,1.21A.73.73,0,0,1,6.82,7.49Z"/><path class="cls-1" d="M15.27,10.36h-.79a.58.58,0,0,1-.55-.36,1.17,1.17,0,0,0-1-.84H1.2A1.25,1.25,0,0,0,.06,10.37,10.37,10.37,0,0,0,0,11.49C0,14.86,1.58,17,3.89,18a.19.19,0,0,1,0,.35,7.5,7.5,0,0,0-1.1.34.35.35,0,0,0,.14.67h8.3a.35.35,0,0,0,.14-.67,7.65,7.65,0,0,0-1.11-.34.19.19,0,0,1,0-.35A6.1,6.1,0,0,0,12.5,16.3a.58.58,0,0,1,.44-.21h.18a4,4,0,0,0,3.94-3.93A1.8,1.8,0,0,0,15.27,10.36ZM7.82,17.18h0a.12.12,0,0,1,0-.24c1.63-.46,3.57-1.72,3.57-5.17,0-.3,0-.6,0-.9h0a.31.31,0,0,1,.3-.36h1.34c.06,0,.19.13.21.36a6.79,6.79,0,0,1,0,.9C13.2,16.79,9.08,17.18,7.82,17.18ZM14,14.49a.25.25,0,0,1-.31-.31A8.15,8.15,0,0,0,14.06,12a.23.23,0,0,1,.24-.23h1a.34.34,0,0,1,.34.33A2.47,2.47,0,0,1,14,14.49Z"/></g></g></g></svg>