<svg xmlns="http://www.w3.org/2000/svg" viewBox="0 0 17.77 19.5"><g data-name="Capa 2"><path d="M11.71.15a1 1 0 00-1.42.36 1 1 0 00.16 1.26L0 12.08l5.8 1.74c-.14.57-.27 1.29-.39 1.72a.84.84 0 101.58 0 12.89 12.89 0 01-.27-1.44l1.8.54c-.18.93-.32 2.36-.52 3.08-.39 1.15.4 1.78.9 1.78s1.25-.44.9-1.78c-.18-.66-.24-1.9-.38-2.82l4.76 1.42a1.07 1.07 0 00.46 1.21 1.13 1.13 0 00.53.14 1 1 0 00.9-.51A12.43 12.43 0 0011.71.15zM7.27 10.8a1.66 1.66 0 01-1.07.67h-.28a1.66 1.66 0 01-1.33-2.59 1.66 1.66 0 011.07-.67 1.23 1.23 0 01.27 0 1.66 1.66 0 011.63 1.36 1.64 1.64 0 01-.29 1.23zm5.4 2.66a1.68 1.68 0 01-1.07.67 1.32 1.32 0 01-.28 0 1.65 1.65 0 01-.26-3.28h.27A1.67 1.67 0 0113 12.23a1.64 1.64 0 01-.33 1.23zm.44-4.85a2.68 2.68 0 01-1.72 1.07 3.25 3.25 0 01-.44 0 2.66 2.66 0 01-2.16-4.2 2.7 2.7 0 011.73-1.07 3.25 3.25 0 01.44 0 2.65 2.65 0 012.15 4.2z" fill="#34256b" data-name="2D"/></g></svg>