<svg xmlns="http://www.w3.org/2000/svg" viewBox="0 0 17.77 19.5"><defs><style>.cls-1{fill:#34256b;}</style></defs><title>icon-pizza</title><g id="Capa_2" data-name="Capa 2"><g id="pantallas"><g id="_2D" data-name="2D"><path class="cls-1" d="M11.71.15a1,1,0,0,0-1.42.36,1,1,0,0,0,.16,1.26L0,12.08l5.8,1.74c-.14.57-.27,1.29-.39,1.72a.84.84,0,1,0,1.58,0,12.89,12.89,0,0,1-.27-1.44l1.8.54C8.34,15.57,8.2,17,8,17.72c-.39,1.15.4,1.78.9,1.78s1.25-.44.9-1.78c-.18-.66-.24-1.9-.38-2.82l4.76,1.42a1.07,1.07,0,0,0,.46,1.21,1.13,1.13,0,0,0,.53.14,1,1,0,0,0,.9-.51A12.43,12.43,0,0,0,11.71.15ZM7.27,10.8a1.66,1.66,0,0,1-1.07.67l-.28,0A1.66,1.66,0,0,1,4.59,8.88a1.66,1.66,0,0,1,1.07-.67,1.23,1.23,0,0,1,.27,0A1.66,1.66,0,0,1,7.56,9.57,1.64,1.64,0,0,1,7.27,10.8Zm5.4,2.66a1.68,1.68,0,0,1-1.07.67,1.32,1.32,0,0,1-.28,0,1.65,1.65,0,0,1-.26-3.28l.27,0A1.67,1.67,0,0,1,13,12.23,1.64,1.64,0,0,1,12.67,13.46Zm.44-4.85a2.68,2.68,0,0,1-1.72,1.07,3.25,3.25,0,0,1-.44,0,2.66,2.66,0,0,1-2.16-4.2,2.7,2.7,0,0,1,1.73-1.07,3.25,3.25,0,0,1,.44,0,2.65,2.65,0,0,1,2.15,4.2Z"/></g></g></g></svg>