<svg xmlns="http://www.w3.org/2000/svg" viewBox="0 0 154.8 107.7"><path d="M108.4 10.5L148.9 51" fill="none"/><path d="M107.518 11.403l1.767-1.768 40.518 40.517-1.767 1.767z" fill="#cccac6"/><path d="M119.7 93.4l27.2-42.1" fill="none"/><path d="M118.651 92.628l27.26-42.154 2.099 1.358-27.26 42.154z" fill="#cccac6"/><path d="M124.7 93.4L152 51.3" fill="none"/><path d="M123.722 92.679l27.26-42.154 2.099 1.357-27.26 42.154z" fill="#cccac6"/><path d="M142.4 50.2h12.4v2.1h-12.4z" fill="#cccac6"/><path d="M122.5 93.4v6" fill="none"/><path d="M121.2 93.4h2.5v6h-2.5zM105.8 28c-.9-4.1-4.9-6.6-9-5.7s-6.6 4.9-5.7 9c.9 4.1 4.9 6.6 9 5.7h.1c4-.9 6.5-4.9 5.6-9" fill="#cccac6"/><path d="M120.5 7.1L108.9 0 98.2 11.5l-16 9.8 31.2 18.6 1.7-19.5zm-7.3 92.3h19.5c1.1 0 1.9.8 1.9 1.9v1.3c0 1.1-.9 1.9-1.9 1.9h-19.5c-1.1 0-1.9-.8-1.9-1.9v-1.3c0-1 .9-1.9 1.9-1.9" fill="#aba2ea"/><path d="M87.1 21.9c4.2-2.5 8.2-5.2 12.1-8 1-.7-.1-2.3-1-1.6-3.9 2.8-7.9 5.5-12.1 8-1 .7 0 2.2 1 1.6" fill="#877cc1"/></svg>