<svg xmlns="http://www.w3.org/2000/svg" viewBox="0 0 154.8 104.55"><defs><style>.cls-1,.cls-4{fill:#fff;}.cls-1{opacity:0.33;}.cls-2{opacity:0.09;}.cls-3{fill:#cccac6;}.cls-5{fill:#aba2ea;}.cls-6{fill:#877cc1;}</style></defs><title>lampara</title><g id="Capa_2" data-name="Capa 2"><g id="mesas"><g id="_3D" data-name="3D"><g id="complementos_mesas" data-name="complementos mesas"><g id="lampara"><polygon class="cls-1" points="114.06 3.12 90.91 104.55 0 104.55 114.06 3.12"/><line class="cls-3" x1="108.43" y1="10.5" x2="148.92" y2="50.99"/><rect class="cls-3" x="127.42" y="2.12" width="2.51" height="57.26" transform="translate(15.95 99.99) rotate(-45)"/><line class="cls-3" x1="119.73" y1="93.37" x2="146.95" y2="51.26"/><rect class="cls-3" x="108.27" y="71.06" width="50.15" height="2.51" transform="translate(0.21 145.01) rotate(-57.11)"/><line class="cls-3" x1="124.73" y1="93.37" x2="151.96" y2="51.26"/><rect class="cls-3" x="113.27" y="71.06" width="50.15" height="2.51" transform="translate(2.49 149.21) rotate(-57.11)"/><rect class="cls-3" x="142.41" y="50.18" width="12.4" height="2.14"/><line class="cls-3" x1="122.47" y1="93.37" x2="122.47" y2="99.41"/><rect class="cls-3" x="121.22" y="93.37" width="2.51" height="6.04"/><path class="cls-4" d="M105.78,28a7.54,7.54,0,1,0-5.62,9,7.48,7.48,0,0,0,5.62-9"/><polygon class="cls-5" points="120.54 7.07 108.94 0 98.17 11.46 82.15 21.33 113.39 39.88 115.13 20.39 120.54 7.07"/><path class="cls-5" d="M113.24,99.41h19.52a1.91,1.91,0,0,1,1.91,1.9v1.34a1.91,1.91,0,0,1-1.91,1.9H113.24a1.91,1.91,0,0,1-1.91-1.9v-1.34a1.91,1.91,0,0,1,1.91-1.9"/><path class="cls-6" d="M87.14,21.9q6.24-3.75,12.09-8c1-.71-.07-2.28-1-1.56q-5.87,4.27-12.09,8c-1,.62,0,2.18,1,1.56"/></g></g></g></g></g></svg>