<?xml version="1.0" encoding="utf-8"?>
<!-- Generator: Adobe Illustrator 22.1.0, SVG Export Plug-In . SVG Version: 6.00 Build 0)  -->
<svg version="1.1" id="Capa_1" xmlns="http://www.w3.org/2000/svg" xmlns:xlink="http://www.w3.org/1999/xlink" x="0px" y="0px"
	 viewBox="0 0 154.8 107.7" style="enable-background:new 0 0 154.8 107.7;" xml:space="preserve">
<style type="text/css">
	.st0{fill:none;}
	.st1{fill:#CCCAC6;}
	.st2{fill:#ABA2EA;}
	.st3{fill:#877CC1;}
</style>
<title>lamp-on</title>
<g id="Capa_2_1_">
	<g id="Capa_1-2">
		<g id="lampara">
			<line class="st0" x1="108.4" y1="10.5" x2="148.9" y2="51"/>
			
				<rect x="127.4" y="2.1" transform="matrix(0.7071 -0.7071 0.7071 0.7071 15.9485 100.0022)" class="st1" width="2.5" height="57.3"/>
			<line class="st0" x1="119.7" y1="93.4" x2="146.9" y2="51.3"/>
			<rect x="108.3" y="71" transform="matrix(0.543 -0.8397 0.8397 0.543 0.2223 145.0122)" class="st1" width="50.2" height="2.5"/>
			<line class="st0" x1="124.7" y1="93.4" x2="152" y2="51.3"/>
			
				<rect x="113.3" y="71.1" transform="matrix(0.543 -0.8397 0.8397 0.543 2.4942 149.2066)" class="st1" width="50.2" height="2.5"/>
			<rect x="142.4" y="50.2" class="st1" width="12.4" height="2.1"/>
			<line class="st0" x1="122.5" y1="93.4" x2="122.5" y2="99.4"/>
			<rect x="121.2" y="93.4" class="st1" width="2.5" height="6"/>
			<path class="st1" d="M105.8,28c-0.9-4.1-4.9-6.6-9-5.7s-6.6,4.9-5.7,9c0.9,4.1,4.9,6.6,9,5.7c0,0,0,0,0,0h0.1
				C104.2,36.1,106.7,32.1,105.8,28C105.8,28,105.8,28,105.8,28L105.8,28"/>
			<polygon class="st2" points="120.5,7.1 108.9,0 98.2,11.5 82.2,21.3 113.4,39.9 115.1,20.4 			"/>
			<path class="st2" d="M113.2,99.4h19.5c1.1,0,1.9,0.8,1.9,1.9v1.3c0,1.1-0.9,1.9-1.9,1.9h-19.5c-1.1,0-1.9-0.8-1.9-1.9v-1.3
				C111.3,100.3,112.2,99.4,113.2,99.4"/>
			<path class="st3" d="M87.1,21.9c4.2-2.5,8.2-5.2,12.1-8c1-0.7-0.1-2.3-1-1.6c-3.9,2.8-7.9,5.5-12.1,8
				C85.1,21,86.1,22.5,87.1,21.9"/>
		</g>
	</g>
</g>
</svg>
