<?xml version="1.0" encoding="utf-8"?>
<!-- Generator: Adobe Illustrator 22.1.0, SVG Export Plug-In . SVG Version: 6.00 Build 0)  -->
<svg version="1.1" id="Capa_1" xmlns="http://www.w3.org/2000/svg" xmlns:xlink="http://www.w3.org/1999/xlink" x="0px" y="0px"
	 viewBox="0 0 154.8 107.7" style="enable-background:new 0 0 154.8 107.7;" xml:space="preserve">
<style type="text/css">
	.st0{opacity:0.33;fill:#FFFFFF;enable-background:new    ;}
	.st1{fill:#FFFFFF;}
</style>
<title>lamp-on</title>
<g id="Capa_2_1_">
	<g id="Capa_1-2">
		<g id="lampara">
			<g>
				<polygon class="st0" points="114.1,3.1 114.1,3.1 114.1,3.1 				"/>
				<path class="st0" d="M0,104.6c0,2,39.7,3.1,54.3,3.1s36.6-1.5,36.6-3.1c0.1-1.9,8.8-39.9,15.5-68.8L88.5,25.1
					C54.9,54.2,0,102,0,104.6z"/>
			</g>
			<g>
				<path class="st1" d="M91.1,31.3c0.9,4.1,4.9,6.6,9,5.7c0,0,0,0,0,0h0.1c1.7-0.4,3.1-1.3,4.1-2.5l-12.8-7.6
					C90.9,28.2,90.7,29.7,91.1,31.3z"/>
			</g>
		</g>
	</g>
</g>
</svg>
