<svg xmlns="http://www.w3.org/2000/svg" viewBox="0 0 72.43 103.33"><defs><style>.cls-1{fill:#cccac6;}.cls-2{fill:#fff;}.cls-3{fill:#aba2ea;}.cls-4{fill:#877cc1;}</style></defs><title>lamp</title><g id="Capa_2" data-name="Capa 2"><g id="mesas"><g id="_3D" data-name="3D"><g id="complementos_mesas" data-name="complementos mesas"><g id="lampara"><line class="cls-1" x1="26.06" y1="9.28" x2="66.55" y2="49.77"/><rect class="cls-1" x="45.05" y="0.89" width="2.51" height="57.26" transform="translate(-7.32 41.39) rotate(-45)"/><line class="cls-1" x1="37.36" y1="92.15" x2="64.59" y2="50.03"/><rect class="cls-1" x="25.9" y="69.83" width="50.15" height="2.51" transform="translate(-36.4 75.28) rotate(-57.11)"/><line class="cls-1" x1="42.36" y1="92.15" x2="69.59" y2="50.03"/><rect class="cls-1" x="30.9" y="69.83" width="50.15" height="2.51" transform="translate(-34.12 79.48) rotate(-57.11)"/><rect class="cls-1" x="60.04" y="48.96" width="12.4" height="2.14"/><line class="cls-1" x1="40.1" y1="92.15" x2="40.1" y2="98.18"/><rect class="cls-1" x="38.85" y="92.15" width="2.51" height="6.04"/><path class="cls-2" d="M22.36,27.23a7.54,7.54,0,1,0-6.91,8,7.49,7.49,0,0,0,6.91-8"/><polygon class="cls-3" points="40.1 8.73 29.69 0 17.32 9.71 0 17.06 28.1 40.1 32.75 21.09 40.1 8.73"/><path class="cls-3" d="M30.87,98.18H50.39a1.92,1.92,0,0,1,1.91,1.91v1.34a1.91,1.91,0,0,1-1.91,1.9H30.87a1.9,1.9,0,0,1-1.9-1.9v-1.34a1.91,1.91,0,0,1,1.9-1.91"/><path class="cls-4" d="M4.85,18.37Q11.57,15.61,18,12.26c1.07-.56.27-2.26-.81-1.7Q10.77,13.9,4,16.67c-1.12.46-.31,2.16.81,1.7"/></g></g></g></g></g></svg>