<svg xmlns="http://www.w3.org/2000/svg" viewBox="0 0 24.62 13.08"><path d="M0 8.99h9.85v4.08H0z" fill="#af5ef7"/><path d="M4.92 4.91h9.85v4.08H4.92zm1.73-.83h2.08v.83H6.65zm4.14 0h2.08v.83h-2.08zm3.98 4.91h9.85v4.08h-9.85zm1.73-.83h2.08v.83H16.5zm4.14 0h2.08v.83h-2.08z" fill="#6b61f2"/><path d="M14.77 4.91h9.85v4.08h-9.85zm1.73-.83h2.08v.83H16.5zm4.14 0h2.08v.83h-2.08zM0 .83h9.85v4.08H0z" fill="#ec6162"/><path d="M9.85.83h9.85v4.08H9.85zM11.58 0h2.08v.83h-2.08zm4.13 0h2.08v.83h-2.08z" fill="#af5ef7"/></svg>