<svg xmlns="http://www.w3.org/2000/svg" viewBox="0 0 22.76 22.24"><defs><style>.cls-1{fill:#d4daf9;}.cls-2{fill:#1e120d;}</style></defs><title>mug</title><g id="Capa_2" data-name="Capa 2"><g id="mesas"><g id="_3D" data-name="3D"><g id="complementos_mesas" data-name="complementos mesas"><g id="taza_izquierda" data-name="taza izquierda"><path class="cls-1" d="M15.2,22.24H2.33A2.33,2.33,0,0,1,0,19.91V1.16C0-.19,7.49,0,8.84,0H8.5c1.34,0,9-.21,9,1.13V19.91a2.32,2.32,0,0,1-2.32,2.33"/><path class="cls-1" d="M17.28,17.74H14.64V3.5h2.64A5.49,5.49,0,0,1,22.76,9v3.28a5.49,5.49,0,0,1-5.48,5.48m.21-11.38v8.52a2.63,2.63,0,0,0,2.42-2.62V9a2.63,2.63,0,0,0-2.42-2.62"/><path class="cls-2" d="M16.16,1.14c0,.37-3.32.67-7.41.67s-7.41-.3-7.41-.67S4.66.48,8.75.48s7.41.3,7.41.66"/></g></g></g></g></g></svg>