<svg xmlns="http://www.w3.org/2000/svg" viewBox="0 0 36.3 46.22"><path fill="#eeebfc" d="M0 0h36.3v46.22H0z"/><path d="M14.48 12.13a.83.83 0 10-.19.59c.51.12 1.38.45 1.53 1.21.08.43.1 2.15.1 2.78h.62c0-.24 0-2.33-.11-2.9a2.42 2.42 0 00-1.95-1.68zm8.38-1.83a.84.84 0 00-.86.8.78.78 0 000 .22 4.61 4.61 0 00-1.6 2.25 23.82 23.82 0 00-.29 2.89h.62a23.28 23.28 0 01.27-2.72 4 4 0 011.35-1.92.91.91 0 00.43.14.83.83 0 00.05-1.66zm-4.79 21.3a3 3 0 001.5-.35l6-3.25a2.41 2.41 0 00.2-.89v-1.18a2 2 0 01-.62.52l-6.14 3.3a1.93 1.93 0 01-1.93-.06L11.23 26a2 2 0 01-.73-.82v1.44a2.36 2.36 0 00.11.79l6 3.72a3 3 0 001.46.47z" fill="#45494c"/><path d="M18.18 28.06a3 3 0 001.5-.36l6-3.24a2.46 2.46 0 00.2-.89v-1.19a1.86 1.86 0 01-.62.53l-6.14 3.3a2 2 0 01-1.93-.06l-5.93-3.68a1.9 1.9 0 01-.73-.81v1.44a2.27 2.27 0 00.11.78l6 3.73a3 3 0 001.54.45z" fill="#45494c"/><path d="M24.86 18.91l-5.17-3.2a2.43 2.43 0 00-2.41-.08l-5.36 2.88a2.39 2.39 0 00-1.27 2l-.19 6.08a2.4 2.4 0 001.14 2.12L16.77 32a2.54 2.54 0 001.2.36 2.43 2.43 0 001.21-.36l5.36-2.88a2.39 2.39 0 001.27-2.05L26 21a2.4 2.4 0 00-1.14-2.09zm-.66 9.61l-5.36 2.88a1.68 1.68 0 01-1.68-.06L12 28.14a1.67 1.67 0 01-.8-1.48l.19-6.08a1.69 1.69 0 01.88-1.43l5.36-2.88a1.68 1.68 0 011.68.06l5.17 3.2a1.67 1.67 0 01.8 1.48l-.19 6.08a1.69 1.69 0 01-.89 1.43z" fill="#45494c"/><ellipse cx="20.31" cy="19.65" rx="1.22" ry=".88" transform="rotate(-88.24 20.304 19.65)" fill="#45494c"/><ellipse cx="21.27" cy="21.98" rx=".44" ry=".72" transform="rotate(-88.24 21.27 21.986)" fill="#45494c"/><ellipse cx="16.92" cy="19.54" rx="1.22" ry=".88" transform="rotate(-88.24 16.92 19.539)" fill="#45494c"/><ellipse cx="15.81" cy="21.82" rx=".44" ry=".72" transform="rotate(-88.24 15.811 21.816)" fill="#45494c"/></svg>