<svg xmlns="http://www.w3.org/2000/svg" viewBox="0 0 36.3 46.22"><defs><style>.cls-1{fill:#eeebfc;}.cls-2{fill:#45494c;}</style></defs><title>paper-biene</title><g id="Capa_2" data-name="Capa 2"><g id="mesas"><g id="_2D" data-name="2D"><g id="final"><g id="papel_biene" data-name="papel+biene"><rect class="cls-1" width="36.3" height="46.22"/><path class="cls-2" d="M14.48,12.13a.83.83,0,1,0-.19.59c.51.12,1.38.45,1.53,1.21.08.43.1,2.15.1,2.78h.62c0-.24,0-2.33-.11-2.9A2.42,2.42,0,0,0,14.48,12.13Z"/><path class="cls-2" d="M22.86,10.3a.84.84,0,0,0-.86.8.78.78,0,0,0,0,.22,4.61,4.61,0,0,0-1.6,2.25,23.82,23.82,0,0,0-.29,2.89l.62,0A23.28,23.28,0,0,1,21,13.74a4,4,0,0,1,1.35-1.92.91.91,0,0,0,.43.14.83.83,0,0,0,.05-1.66Z"/><path class="cls-2" d="M18.07,31.6a3,3,0,0,0,1.5-.35l6-3.25a2.41,2.41,0,0,0,.2-.89l0-1.18a2,2,0,0,1-.62.52l-6.14,3.3a1.93,1.93,0,0,1-1.93-.06L11.23,26a2,2,0,0,1-.73-.82l0,1.44a2.36,2.36,0,0,0,.11.79l6,3.72A3,3,0,0,0,18.07,31.6Z"/><path class="cls-2" d="M18.18,28.06a3,3,0,0,0,1.5-.36l6-3.24a2.46,2.46,0,0,0,.2-.89l0-1.19a1.86,1.86,0,0,1-.62.53l-6.14,3.3a2,2,0,0,1-1.93-.06l-5.93-3.68a1.9,1.9,0,0,1-.73-.81l0,1.44a2.27,2.27,0,0,0,.11.78l6,3.73A3,3,0,0,0,18.18,28.06Z"/><path class="cls-2" d="M24.86,18.91l-5.17-3.2a2.43,2.43,0,0,0-2.41-.08l-5.36,2.88a2.39,2.39,0,0,0-1.27,2l-.19,6.08a2.4,2.4,0,0,0,1.14,2.12L16.77,32a2.54,2.54,0,0,0,1.2.36A2.43,2.43,0,0,0,19.18,32l5.36-2.88a2.39,2.39,0,0,0,1.27-2.05L26,21A2.4,2.4,0,0,0,24.86,18.91Zm-.66,9.61L18.84,31.4a1.68,1.68,0,0,1-1.68-.06L12,28.14a1.67,1.67,0,0,1-.8-1.48l.19-6.08a1.69,1.69,0,0,1,.88-1.43l5.36-2.88a1.68,1.68,0,0,1,1.68.06l5.17,3.2a1.67,1.67,0,0,1,.8,1.48l-.19,6.08A1.69,1.69,0,0,1,24.2,28.52Z"/><ellipse class="cls-2" cx="20.31" cy="19.65" rx="1.22" ry="0.88" transform="translate(0.04 39.34) rotate(-88.24)"/><ellipse class="cls-2" cx="21.27" cy="21.98" rx="0.44" ry="0.72" transform="translate(-1.36 42.57) rotate(-88.24)"/><ellipse class="cls-2" cx="16.92" cy="19.54" rx="1.22" ry="0.88" transform="translate(-3.13 35.85) rotate(-88.24)"/><ellipse class="cls-2" cx="15.81" cy="21.82" rx="0.44" ry="0.72" transform="translate(-6.48 36.95) rotate(-88.24)"/></g></g></g></g></g></svg>