<svg xmlns="http://www.w3.org/2000/svg" viewBox="0 0 97.85 86.99"><defs><clipPath id="b"><path d="M8.81 55.21h9.83v10.4H8.81z" fill="none"/></clipPath><clipPath id="b"><path d="M12.28 52.69h1.67v3.32h-1.67z" fill="none"/></clipPath></defs><path d="M97.85 57.83H0V4.11A4.12 4.12 0 014.11 0h90.63a3.12 3.12 0 013.11 3.11z" fill="#cdc8f4"/><path d="M89.08 66.6H8.77A8.77 8.77 0 010 57.83h97.85a8.77 8.77 0 01-8.77 8.77" fill="#aba2ea"/><path d="M39.98 66.6h17.76v14.78H39.98z" fill="#cdc8f4"/><path d="M39.98 66.6h17.76v4.68H39.98z" fill="#948fd8"/><path d="M69.39 87h-41v-1.1a4.53 4.53 0 014.51-4.52h32a4.53 4.53 0 014.52 4.52z" fill="#aba2ea"/><path d="M92.09 4.22H5.63A1.53 1.53 0 004.1 5.75v45a1.54 1.54 0 001.53 1.54h86.46a1.54 1.54 0 001.53-1.54v-45a1.53 1.53 0 00-1.53-1.53" fill="#33323f"/><path d="M51.28 61.92a2.77 2.77 0 11-2.76-2.77 2.76 2.76 0 012.76 2.77" fill="#948fd8"/><g clip-path="url(#b)" opacity=".15"><path d="M8.81 55.346l9.679-.14.148 10.258-9.679.14z"/></g><path fill="#efd378" d="M17.96 54.97l.14 9.3-9.68.13-.14-9.3 9.68-.13z"/><g clip-path="url(#b)" opacity=".5"><path d="M11.53 52.89h1.62v3.3h-1.62z" fill="#fff"/></g><path d="M12.18 5.65a1.06 1.06 0 01.37-.06v.6h-.15a.53.53 0 00-.34.11.49.49 0 00-.12.36v.87h-.66V5.62h.63v.23a.68.68 0 01.27-.2zm1.03 1.77a.92.92 0 01-.38-.35.94.94 0 01-.14-.5 1 1 0 01.14-.51 1 1 0 01.38-.35 1.32 1.32 0 011.1 0 1 1 0 01.39.35 1 1 0 01.13.51.93.93 0 01-.13.5.94.94 0 01-.39.35 1.09 1.09 0 01-.55.13 1.12 1.12 0 01-.55-.13zm.84-.52a.55.55 0 000-.66.41.41 0 00-.58 0 .55.55 0 000 .66.41.41 0 00.58 0zm1.49.52a.92.92 0 01-.38-.35.94.94 0 01-.14-.5 1 1 0 01.14-.51 1 1 0 01.38-.35 1.23 1.23 0 01.55-.12 1.2 1.2 0 01.55.12 1 1 0 01.39.35 1 1 0 01.13.51.93.93 0 01-.13.5.94.94 0 01-.39.35 1.09 1.09 0 01-.55.13 1.14 1.14 0 01-.55-.13zm.84-.52a.55.55 0 000-.66.41.41 0 00-.58 0 .55.55 0 000 .66.41.41 0 00.58 0zm2.4.54a.58.58 0 01-.21.08 1 1 0 01-.25 0 .81.81 0 01-.57-.18.68.68 0 01-.2-.55v-.6h-.28v-.5h.28V5.2h.66v.49h.44v.5h-.44v.63a.21.21 0 00.06.16.16.16 0 00.14 0 .31.31 0 00.2 0zm2.75-2.21a1.44 1.44 0 01.8 1.32 1.27 1.27 0 01-.1.54.85.85 0 01-.27.34.7.7 0 01-.4.12.63.63 0 01-.32-.08.5.5 0 01-.2-.23.6.6 0 01-.56.31.77.77 0 01-.39-.11.84.84 0 01-.28-.31 1 1 0 01-.11-.46 1.08 1.08 0 01.1-.46.87.87 0 01.29-.31.77.77 0 01.39-.11A.63.63 0 0121 6v-.18h.57v1.07a.23.23 0 000 .16.13.13 0 00.11 0c.15 0 .22-.18.22-.54a1.1 1.1 0 00-.16-.6 1.07 1.07 0 00-.44-.4 1.44 1.44 0 00-1.3 0 1.19 1.19 0 00-.45.44 1.26 1.26 0 00-.15.62 1.34 1.34 0 00.15.64 1.07 1.07 0 00.45.49 1.23 1.23 0 00.65.16 1.49 1.49 0 00.69-.16l.13.38a1.55 1.55 0 01-.38.12 2.28 2.28 0 01-.44.05 1.87 1.87 0 01-.9-.21 1.52 1.52 0 01-.6-.58 1.73 1.73 0 010-1.65 1.6 1.6 0 01.61-.57 1.87 1.87 0 01.9-.21 1.8 1.8 0 01.87.2zM20.88 7a.54.54 0 000-.6.33.33 0 00-.25-.1.3.3 0 00-.25.1.45.45 0 00-.1.3.44.44 0 00.1.29.31.31 0 00.25.11.37.37 0 00.25-.1zm3.12.44a.66.66 0 01-.21.08 1 1 0 01-.25 0 .81.81 0 01-.54-.15.68.68 0 01-.2-.55v-.63h-.28v-.5h.28V5.2h.66v.49h.43v.5h-.43v.63a.25.25 0 000 .16.2.2 0 00.15 0 .33.33 0 00.2 0zm2.12-.7h-1.38a.37.37 0 00.16.26.49.49 0 00.31.08.53.53 0 00.23 0 .53.53 0 00.2-.12l.35.36a1 1 0 01-.81.31 1.21 1.21 0 01-.58-.13.89.89 0 01-.39-.35.94.94 0 01-.14-.5 1 1 0 01.14-.51.94.94 0 01.37-.34 1.07 1.07 0 01.53-.13 1.14 1.14 0 01.52.12.84.84 0 01.36.34 1 1 0 01.14.52s0-.02-.01.09zm-1.26-.59a.41.41 0 00-.13.24h.78a.47.47 0 00-.13-.24.39.39 0 00-.26-.09.37.37 0 00-.26.09zm1.98 1.27a.92.92 0 01-.38-.35.86.86 0 01-.14-.5.89.89 0 01.14-.51 1 1 0 01.38-.35 1.32 1.32 0 01.57-.12 1.07 1.07 0 01.55.14.78.78 0 01.34.38l-.52.26a.4.4 0 00-.38-.25.38.38 0 00-.29.12.51.51 0 000 .66.38.38 0 00.29.1.4.4 0 00.38-.25l.52.25a.78.78 0 01-.34.38 1.07 1.07 0 01-.55.14 1.2 1.2 0 01-.57-.1zm4.74-1.62a.86.86 0 01.21.63v1.09h-.67v-1a.54.54 0 00-.07-.29.27.27 0 00-.22-.1.3.3 0 00-.24.11.47.47 0 00-.09.32v.94h-.66v-1c0-.26-.1-.39-.29-.39a.33.33 0 00-.25.11.47.47 0 00-.09.32v.94h-.66V5.62h.63v.2a.62.62 0 01.25-.17.83.83 0 01.32-.06.86.86 0 01.36.07.61.61 0 01.25.23.74.74 0 01.28-.22 1 1 0 01.36-.08.76.76 0 01.58.21zm.66-.49a.34.34 0 01-.11-.25.33.33 0 01.11-.25.47.47 0 01.59 0 .3.3 0 01.11.25.33.33 0 01-.11.26.39.39 0 01-.29.1.44.44 0 01-.3-.11zm0 .31h.66v1.9h-.66zm2.86.18a.82.82 0 01.22.63v1.09h-.66v-1c0-.26-.11-.39-.32-.39a.34.34 0 00-.27.12.45.45 0 00-.1.33v.92h-.67V5.62h.63v.21a.8.8 0 01.27-.18.9.9 0 01.34-.06.76.76 0 01.56.21zm1.95 1.64a.66.66 0 01-.21.08 1.09 1.09 0 01-.26 0 .85.85 0 01-.58-.15.71.71 0 01-.2-.55v-.63h-.27v-.5h.27V5.2h.67v.49h.43v.5h-.43v.63a.25.25 0 00.05.16.2.2 0 00.15 0 .33.33 0 00.2 0zm.25-1.17a.38.38 0 01-.12-.27.35.35 0 01.12-.28.39.39 0 01.28-.11.42.42 0 01.29.11A.38.38 0 0138 6a.38.38 0 01-.4.4.39.39 0 01-.3-.13zm0 1.17a.38.38 0 01-.12-.29.36.36 0 01.12-.28.39.39 0 01.28-.11.42.42 0 01.29.11.39.39 0 01.11.28.38.38 0 01-.4.4.39.39 0 01-.28-.11zm1.98-.82a1 1 0 01-.21-.13l-.13-.08a.17.17 0 00-.1 0 .21.21 0 00-.14.07.3.3 0 00-.05.18h-.41a.84.84 0 01.15-.53.5.5 0 01.41-.19.46.46 0 01.2.06 1 1 0 01.22.13l.12.08a.16.16 0 00.1 0 .18.18 0 00.14-.06.35.35 0 000-.18h.41a.78.78 0 01-.16.53.47.47 0 01-.4.19.46.46 0 01-.15-.07zM42.21 6l-.06.51h.44V7h-.5l-.09.52h-.48l.1-.52h-.43l-.07.52h-.48l.07-.52h-.44v-.45h.5l.06-.55h-.45v-.41h.5l.12-.52h.47l-.06.52h.43l.06-.52h.48l-.07.52h.45V6zm-.48 0h-.43l-.06.51h.43zm3.8-.19a.83.83 0 01.25.65v1.06h-.62v-.25a.57.57 0 01-.56.28.93.93 0 01-.39-.08.61.61 0 01-.21-.21.55.55 0 01-.11-.26.5.5 0 01.2-.42 1.12 1.12 0 01.64-.15h.38c0-.2-.15-.3-.4-.3a.86.86 0 00-.52.16L44 5.81a1.21 1.21 0 01.38-.16 1.76 1.76 0 01.46-.06 1.05 1.05 0 01.69.22zM45 7.07a.3.3 0 00.13-.16v-.17h-.29c-.19 0-.29.07-.29.2a.16.16 0 00.07.14.3.3 0 00.18 0 .32.32 0 00.2-.01zm2.86-1.36a.92.92 0 01.34.34 1.19 1.19 0 010 1 1 1 0 01-.34.34.94.94 0 01-.47.12.72.72 0 01-.53-.2v.89h-.67V5.62h.64v.19a.68.68 0 01.56-.22.94.94 0 01.47.12zm-.32 1.19a.55.55 0 000-.66.4.4 0 00-.29-.12.38.38 0 00-.29.12.55.55 0 000 .66.38.38 0 00.29.12.4.4 0 00.29-.12zm2.4.54a.66.66 0 01-.21.08 1 1 0 01-.26 0 .85.85 0 01-.57-.18.71.71 0 01-.2-.55v-.6h-.27v-.5h.27V5.2h.67v.49h.43v.5h-.43v.63a.25.25 0 00.05.16.2.2 0 00.15 0 .33.33 0 00.2 0zm.17-1.17h1v.51h-1zm3.48-.65v1.55a1 1 0 01-.29.83 1.14 1.14 0 01-.82.27 2.26 2.26 0 01-.48-.1 1.42 1.42 0 01-.46-.17l.24-.47a.62.62 0 00.29.15 1.07 1.07 0 00.35.06.52.52 0 00.38-.12.46.46 0 00.13-.34V7.2a.71.71 0 01-.57.22 1 1 0 01-.46-.11.83.83 0 01-.34-.31.82.82 0 01-.13-.48.86.86 0 01.13-.52.88.88 0 01.34-.32 1 1 0 01.46-.11.71.71 0 01.6.26v-.21zm-.78 1.16a.35.35 0 00.12-.28.37.37 0 00-.11-.27.46.46 0 00-.6 0 .34.34 0 00-.12.27.35.35 0 00.12.28.4.4 0 00.3.11.36.36 0 00.29-.11zM56 6.74h-1.43a.33.33 0 00.16.22A.48.48 0 0055 7a.61.61 0 00.24 0 .62.62 0 00.2-.12l.35.36a1 1 0 01-.81.31 1.18 1.18 0 01-.58-.13.89.89 0 01-.4-.35.86.86 0 01-.14-.5.89.89 0 01.51-.85 1 1 0 01.53-.13 1.14 1.14 0 01.52.12.84.84 0 01.36.34 1 1 0 01.14.52 1.33 1.33 0 00.08.17zm-1.26-.59a.36.36 0 00-.13.24h.77a.41.41 0 00-.13-.24.37.37 0 00-.26-.09.37.37 0 00-.3.09zm2.83 1.29a.52.52 0 01-.2.08 1.09 1.09 0 01-.26 0 .81.81 0 01-.57-.18.71.71 0 01-.2-.55v-.6h-.28v-.5h.28V5.2H57v.49h.43v.5H57v.63a.21.21 0 00.05.16.18.18 0 00.15 0 .35.35 0 00.2 0zm1.32-2.13a.32.32 0 01-.12-.25.3.3 0 01.12-.25.4.4 0 01.29-.11.44.44 0 01.29.1.3.3 0 01.12.25.34.34 0 01-.12.26.47.47 0 01-.58 0zm0 .31h.66v1.9h-.66zm2.86.18a.86.86 0 01.21.63v1.09h-.66v-1c0-.26-.11-.39-.31-.39a.35.35 0 00-.28.12.45.45 0 00-.1.33v.92h-.67V5.62h.64v.21a.68.68 0 01.26-.18.93.93 0 01.34-.06.8.8 0 01.57.21zm.85 1.7a1.18 1.18 0 01-.37-.15l.2-.45a1.52 1.52 0 00.31.13 1.34 1.34 0 00.35 0 .63.63 0 00.23 0 .11.11 0 00.07-.1s0-.07-.09-.08L63 6.8a1.72 1.72 0 01-.38-.07.62.62 0 01-.28-.17.45.45 0 01-.11-.34.51.51 0 01.1-.32.78.78 0 01.32-.23 1.5 1.5 0 01.5-.08 1.9 1.9 0 01.41 0 1.22 1.22 0 01.34.12l-.2.45a1.15 1.15 0 00-.55-.14.47.47 0 00-.23 0 .1.1 0 00-.07.09.11.11 0 00.08.1 1.65 1.65 0 00.27 0l.38.08a.55.55 0 01.27.17.45.45 0 01.12.34.54.54 0 01-.11.32.76.76 0 01-.32.22 1.52 1.52 0 01-.51.08 2.42 2.42 0 01-.43.08zm3-.06a.52.52 0 01-.2.08 1.09 1.09 0 01-.26 0 .81.81 0 01-.57-.18.71.71 0 01-.2-.55v-.6h-.28v-.5h.28V5.2H65v.49h.44v.5H65v.63a.21.21 0 00.06.16.17.17 0 00.14 0 .36.36 0 00.21 0zm1.79-1.63a.83.83 0 01.25.65v1.06H67v-.25a.57.57 0 01-.56.28.93.93 0 01-.39-.08.61.61 0 01-.24-.21.55.55 0 01-.06-.26.49.49 0 01.25-.45 1.06 1.06 0 01.63-.15H67c0-.2-.15-.3-.4-.3a.86.86 0 00-.52.16l-.22-.45a1.21 1.21 0 01.38-.16 1.76 1.76 0 01.46-.06 1.05 1.05 0 01.69.22zm-.55 1.26a.3.3 0 00.16-.16v-.17h-.29c-.19 0-.29.07-.29.2a.16.16 0 00.07.14.3.3 0 00.18 0 .32.32 0 00.17-.01zm1.21-2.15h.67v2.6h-.67zm1.1 0h.67v2.6h-.67zm2.52 2.5a.94.94 0 01-.39-.35.93.93 0 01-.13-.5 1 1 0 01.13-.51 1 1 0 01.39-.35 1.28 1.28 0 01.56-.12 1.11 1.11 0 01.56.14.72.72 0 01.33.38l-.51.26a.42.42 0 00-.68-.13.55.55 0 000 .66.42.42 0 00.68-.13l.51.26a.72.72 0 01-.33.38 1.11 1.11 0 01-.56.14 1.16 1.16 0 01-.56-.13zm2.09 0a.94.94 0 01-.39-.35.93.93 0 01-.13-.5 1 1 0 01.13-.51 1 1 0 01.39-.35 1.2 1.2 0 01.55-.12 1.23 1.23 0 01.55.12 1 1 0 01.38.35 1 1 0 01.14.51.94.94 0 01-.14.5.92.92 0 01-.38.35 1.12 1.12 0 01-.55.13 1.09 1.09 0 01-.55-.13zm.83-.52a.51.51 0 000-.66.36.36 0 00-.28-.12.37.37 0 00-.29.12.44.44 0 00-.11.33.44.44 0 00.09.33.37.37 0 00.29.12.36.36 0 00.3-.12zm4.19-1.28l-.68 1.9h-.64l-.36-1-.37 1h-.65l-.67-1.9H76l.39 1.15.4-1.15h.57l.39 1.16.4-1.16zm.39 1.88a1.18 1.18 0 01-.37-.15l.2-.45a1.69 1.69 0 00.3.13 1.47 1.47 0 00.36 0 .67.67 0 00.23 0 .11.11 0 00.07-.1s0-.07-.09-.08l-.26-.06a1.72 1.72 0 01-.38-.07.62.62 0 01-.23-.16.45.45 0 01-.11-.34.51.51 0 01.1-.32.78.78 0 01.32-.23 1.5 1.5 0 01.5-.08 1.9 1.9 0 01.41 0 1.35 1.35 0 01.34.12l-.2.45a1.15 1.15 0 00-.55-.14.47.47 0 00-.23 0 .1.1 0 00-.07.09.11.11 0 00.08.1 1.7 1.7 0 00.26 0l.39.08a.55.55 0 01.27.17.45.45 0 01.11.34.53.53 0 01-.1.32.76.76 0 01-.32.22 1.6 1.6 0 01-.51.08 2.42 2.42 0 01-.52.08zm3.22-1.69a.8.8 0 01.25.65v1.06H82v-.25a.57.57 0 01-.56.28.89.89 0 01-.38-.08.5.5 0 01-.24-.21.48.48 0 01-.07-.26.49.49 0 01.25-.45 1.1 1.1 0 01.64-.15H82c0-.2-.14-.3-.4-.3a.84.84 0 00-.27 0 .67.67 0 00-.24.12l-.23-.45a1.38 1.38 0 01.39-.16 1.74 1.74 0 01.45-.06 1 1 0 01.69.26zm-.54 1.26a.25.25 0 00.15-.16v-.17h-.28c-.2 0-.29.07-.29.2a.18.18 0 00.06.14.36.36 0 00.19 0 .36.36 0 00.17-.01zM85 5.62l-.82 2a1.13 1.13 0 01-.35.49.93.93 0 01-.51.14 1 1 0 01-.3-.05.83.83 0 01-.25-.12l.23-.49a.29.29 0 00.13.08.45.45 0 00.16 0 .41.41 0 00.16 0 .34.34 0 00.1-.13l-.81-1.92h.68l.46 1.16.47-1.16zM12.18 9.86a.87.87 0 01.37-.07v.6h-.15a.53.53 0 00-.34.11.49.49 0 00-.12.36v.87h-.66V9.82h.63v.23a.58.58 0 01.27-.19zm1.03 1.76a.92.92 0 01-.38-.35.94.94 0 01-.14-.5 1 1 0 01.14-.51 1 1 0 01.38-.35 1.32 1.32 0 011.1 0 1 1 0 01.39.35 1 1 0 01.13.51.93.93 0 01-.13.5.94.94 0 01-.39.35 1.09 1.09 0 01-.55.13 1.12 1.12 0 01-.55-.13zm.84-.52a.55.55 0 000-.66.41.41 0 00-.58 0 .55.55 0 000 .66.41.41 0 00.58 0zm1.49.52a.92.92 0 01-.38-.35.94.94 0 01-.14-.5 1 1 0 01.14-.51 1 1 0 01.38-.35 1.23 1.23 0 01.55-.12 1.2 1.2 0 01.55.12 1 1 0 01.39.35 1 1 0 01.13.51.93.93 0 01-.13.5.94.94 0 01-.39.35 1.09 1.09 0 01-.55.13 1.14 1.14 0 01-.55-.13zm.84-.52a.55.55 0 000-.66.41.41 0 00-.58 0 .55.55 0 000 .66.41.41 0 00.58 0zm2.4.54a.58.58 0 01-.21.08 1 1 0 01-.25 0 .81.81 0 01-.57-.18.68.68 0 01-.2-.55v-.63h-.28v-.5h.28V9.4h.66v.49h.44v.5h-.44V11a.21.21 0 00.06.16.16.16 0 00.14.05.31.31 0 00.2-.05zm2.75-2.21a1.44 1.44 0 01.8 1.32 1.27 1.27 0 01-.1.54.85.85 0 01-.27.34.7.7 0 01-.4.12.63.63 0 01-.32-.08.5.5 0 01-.2-.23.58.58 0 01-.56.31.77.77 0 01-.39-.11.84.84 0 01-.28-.31 1 1 0 01-.11-.46 1.08 1.08 0 01.1-.46.87.87 0 01.29-.31.77.77 0 01.39-.11.63.63 0 01.48.2V10h.57v1.07a.23.23 0 000 .16.13.13 0 00.11.05c.15 0 .22-.18.22-.54a1.1 1.1 0 00-.16-.6 1.07 1.07 0 00-.44-.4 1.44 1.44 0 00-1.3 0 1.19 1.19 0 00-.45.44 1.26 1.26 0 00-.15.62 1.34 1.34 0 00.15.64 1.07 1.07 0 00.44.43 1.23 1.23 0 00.65.16 1.49 1.49 0 00.69-.16l.13.38a1.55 1.55 0 01-.38.12 2.28 2.28 0 01-.44 0 1.87 1.87 0 01-.9-.21 1.52 1.52 0 01-.6-.58 1.73 1.73 0 010-1.65 1.6 1.6 0 01.61-.57 1.87 1.87 0 01.9-.21 1.8 1.8 0 01.92.28zm-.65 1.74a.55.55 0 000-.6.33.33 0 00-.25-.1.3.3 0 00-.25.1.45.45 0 00-.1.3.44.44 0 00.1.29.31.31 0 00.25.11.37.37 0 00.25-.1zm3.12.47a.66.66 0 01-.21.08 1 1 0 01-.25 0 .81.81 0 01-.57-.18.68.68 0 01-.2-.55v-.63h-.28v-.5h.28V9.4h.66v.49h.43v.5h-.43V11a.25.25 0 000 .16.2.2 0 00.15.05.33.33 0 00.2-.05zm2.12-.7h-1.38a.37.37 0 00.16.22.49.49 0 00.31.08.53.53 0 00.23 0 .53.53 0 00.2-.12l.35.36a1 1 0 01-.81.31 1.21 1.21 0 01-.58-.13.89.89 0 01-.39-.35.94.94 0 01-.14-.5 1 1 0 01.14-.51.94.94 0 01.37-.34 1.07 1.07 0 01.53-.13 1.14 1.14 0 01.52.12.84.84 0 01.36.34 1 1 0 01.14.52s0 .02-.01.13zm-1.26-.59a.41.41 0 00-.13.24h.78a.47.47 0 00-.13-.24.39.39 0 00-.26-.09.37.37 0 00-.26.09zm1.98 1.27a.92.92 0 01-.38-.35.86.86 0 01-.14-.5.89.89 0 01.14-.51 1 1 0 01.38-.35 1.32 1.32 0 01.57-.12 1.07 1.07 0 01.55.14.78.78 0 01.34.38l-.52.26a.4.4 0 00-.38-.25.38.38 0 00-.29.12.51.51 0 000 .66.38.38 0 00.29.12.4.4 0 00.38-.25l.52.26a.78.78 0 01-.34.38 1.07 1.07 0 01-.55.14 1.2 1.2 0 01-.57-.13zM31.58 10a.86.86 0 01.21.63v1.09h-.67v-1a.54.54 0 00-.07-.29.27.27 0 00-.22-.1.3.3 0 00-.24.11.47.47 0 00-.09.32v.94h-.66v-1c0-.26-.1-.39-.29-.39a.33.33 0 00-.25.11.47.47 0 00-.09.32v.94h-.66V9.82h.63V10a.62.62 0 01.25-.17.83.83 0 01.32-.06.86.86 0 01.36.07.61.61 0 01.25.23.74.74 0 01.28-.22 1 1 0 01.36-.06.76.76 0 01.58.21zm.66-.49a.34.34 0 01-.11-.25.33.33 0 01.11-.26.47.47 0 01.59 0 .31.31 0 01.11.25.33.33 0 01-.11.26.39.39 0 01-.29.1.44.44 0 01-.3-.1zm0 .31h.66v1.9h-.66zm2.86.18a.82.82 0 01.22.63v1.09h-.66v-1c0-.26-.11-.39-.32-.39a.34.34 0 00-.27.12.45.45 0 00-.1.33v.92h-.67V9.82h.63V10a.8.8 0 01.27-.18.9.9 0 01.34-.06.76.76 0 01.56.24zm1.95 1.64a.66.66 0 01-.21.08 1.09 1.09 0 01-.26 0 .85.85 0 01-.57-.18.71.71 0 01-.2-.55v-.63h-.27v-.5h.27V9.4h.67v.49h.43v.5h-.43V11a.25.25 0 00.05.16.2.2 0 00.15.05.33.33 0 00.2-.05zm.25-1.17a.38.38 0 01-.12-.29.36.36 0 01.12-.28.39.39 0 01.28-.11.42.42 0 01.29.11.39.39 0 01.11.28.38.38 0 01-.4.4.39.39 0 01-.28-.11zm0 1.17a.38.38 0 01-.12-.29.36.36 0 01.12-.28.39.39 0 01.28-.11.42.42 0 01.29.11.39.39 0 01.11.28.38.38 0 01-.4.4.39.39 0 01-.28-.11zm1.98-.82a1 1 0 01-.21-.13l-.13-.08a.17.17 0 00-.1 0 .21.21 0 00-.14.07.3.3 0 00-.05.18h-.41a.84.84 0 01.15-.53.5.5 0 01.41-.19.46.46 0 01.21.05 1 1 0 01.22.13l.12.08a.17.17 0 00.1 0 .19.19 0 00.14-.07.35.35 0 000-.18H40a.78.78 0 01-.16.53.47.47 0 01-.4.19.46.46 0 01-.16-.05zm2.93-.58l-.06.51h.44v.45h-.5l-.06.52h-.48l.07-.52h-.43l-.07.52h-.48l.07-.52h-.44v-.45h.5l.06-.51h-.45v-.45h.5l.12-.52h.47l-.06.52h.43l.06-.52h.48l-.07.52h.45v.45zm-.48 0h-.43l-.06.51h.43zm2.67 1.38a.92.92 0 01-.38-.35.86.86 0 01-.14-.5.89.89 0 01.14-.51 1 1 0 01.38-.35 1.32 1.32 0 01.6-.12 1.07 1.07 0 01.55.14.78.78 0 01.34.38l-.52.26a.41.41 0 00-.38-.25.38.38 0 00-.29.12.51.51 0 000 .66.38.38 0 00.29.12.41.41 0 00.38-.25l.52.26a.78.78 0 01-.34.38 1.07 1.07 0 01-.55.14 1.2 1.2 0 01-.6-.13zm2.09 0a.92.92 0 01-.38-.35.86.86 0 01-.14-.5.89.89 0 01.14-.51.92.92 0 01.38-.35 1.2 1.2 0 01.51-.12 1.23 1.23 0 01.55.12 1 1 0 01.38.35 1 1 0 01.14.51.94.94 0 01-.14.5.92.92 0 01-.38.35 1.23 1.23 0 01-1.1 0zm.84-.52a.55.55 0 000-.66.41.41 0 00-.58 0 .55.55 0 000 .66.41.41 0 00.58 0zm4.18-1.28l-.68 1.9h-.64l-.36-1-.37 1h-.64l-.68-1.9h.63l.39 1.18.4-1.15h.57l.39 1.15.4-1.16zm.39 1.88a1.42 1.42 0 01-.37-.15l.2-.45a1.81 1.81 0 00.31.13 1.45 1.45 0 00.35 0 .6.6 0 00.23 0 .1.1 0 00.07-.1s0-.07-.08-.08l-.26-.05a2 2 0 01-.39-.07.55.55 0 01-.27-.17.45.45 0 01-.12-.34.52.52 0 01.11-.32.72.72 0 01.32-.23 1.4 1.4 0 01.49-.08 1.84 1.84 0 01.41 0 1.22 1.22 0 01.34.12l-.2.45a1.11 1.11 0 00-.54-.14.45.45 0 00-.23 0 .11.11 0 00-.08.1s0 .07.08.09h.27l.39.08a.65.65 0 01.27.17.5.5 0 01.11.34.54.54 0 01-.11.32.7.7 0 01-.32.22 1.52 1.52 0 01-.51.08 2.5 2.5 0 01-.47.08zm3.23-1.7a.83.83 0 01.25.65v1.06h-.62v-.25a.57.57 0 01-.56.28.93.93 0 01-.39-.08.61.61 0 01-.24-.21.55.55 0 01-.08-.29.49.49 0 01.21-.42 1.06 1.06 0 01.63-.15h.38c0-.2-.15-.3-.4-.3a.86.86 0 00-.52.16l-.22-.45a1.21 1.21 0 01.43-.15 1.76 1.76 0 01.46-.06 1.05 1.05 0 01.67.21zm-.55 1.26a.3.3 0 00.13-.16v-.17h-.29c-.19 0-.29.07-.29.2a.16.16 0 00.07.14.3.3 0 00.18.05.32.32 0 00.2-.05zm3.19-1.44l-.82 2a1.21 1.21 0 01-.35.49.93.93 0 01-.51.14 1 1 0 01-.3 0 .83.83 0 01-.25-.12l.23-.47a.39.39 0 00.14.08.41.41 0 00.16 0 .33.33 0 00.15 0 .36.36 0 00.11-.13l-.82-1.92h.69l.46 1.11.47-1.16zM59 9.27h.69v2.45H59zm2.19 0h.7v1.9h1.16v.55h-1.86zm2.51 2.35a.94.94 0 01-.39-.35.93.93 0 01-.13-.5 1 1 0 01.13-.51 1 1 0 01.39-.35 1.2 1.2 0 01.55-.12 1.23 1.23 0 01.55.12 1 1 0 01.38.35 1 1 0 01.14.51.94.94 0 01-.14.5.92.92 0 01-.38.35 1.12 1.12 0 01-.55.13 1.09 1.09 0 01-.55-.13zm.83-.52a.51.51 0 000-.66.36.36 0 00-.28-.12.37.37 0 00-.29.12.55.55 0 000 .66.37.37 0 00.29.12.36.36 0 00.28-.12zm3.05-1.28l-.79 1.9h-.68l-.78-1.9H66l.46 1.18.48-1.16zm2.05 1.12h-1.38a.37.37 0 00.16.22.48.48 0 00.3.08.61.61 0 00.24 0 .53.53 0 00.2-.12l.35.36a1 1 0 01-.81.31 1.21 1.21 0 01-.58-.13.89.89 0 01-.39-.35.94.94 0 01-.14-.5.89.89 0 01.51-.85 1 1 0 01.53-.13 1.14 1.14 0 01.52.12.84.84 0 01.36.34 1 1 0 01.14.52 1.33 1.33 0 00-.01.13zm-1.26-.59a.41.41 0 00-.13.24H69a.36.36 0 00-.13-.24.37.37 0 00-.25-.09.37.37 0 00-.25.09zm4.96-1.08v2.45h-.7v-1h-.94v1H71V9.27h.69v.92h.94v-.92zm1.98.73a.8.8 0 01.25.65v1.06h-.62v-.25a.56.56 0 01-.56.28.92.92 0 01-.38-.08.5.5 0 01-.24-.21.47.47 0 01-.08-.29.48.48 0 01.2-.42 1.1 1.1 0 01.64-.15h.38c0-.2-.15-.3-.41-.3a.84.84 0 00-.27 0 .9.9 0 00-.24.12l-.22-.41a1.21 1.21 0 01.38-.16 1.74 1.74 0 01.45-.06 1 1 0 01.72.22zm-.54 1.26a.3.3 0 00.13-.16v-.17h-.29c-.19 0-.29.07-.29.2a.16.16 0 00.07.14.3.3 0 00.18.05.34.34 0 00.2-.05zm1.64.36a.92.92 0 01-.38-.35.86.86 0 01-.14-.5.89.89 0 01.14-.51 1 1 0 01.38-.35 1.32 1.32 0 01.59-.12 1.07 1.07 0 01.55.14.78.78 0 01.34.38l-.52.26a.41.41 0 00-.38-.25.38.38 0 00-.29.12.51.51 0 000 .66.38.38 0 00.29.12.41.41 0 00.38-.25l.52.26a.78.78 0 01-.34.38 1.07 1.07 0 01-.55.14 1.2 1.2 0 01-.59-.13zm2.59-.57l-.19.2v.47h-.67v-2.6h.67v1.36l.67-.66h.79l-.79.81.86 1.09h-.84zm1.82.42a1.14 1.14 0 01-.3-.84V9.27h.7v1.34c0 .39.15.58.46.58s.46-.19.46-.58V9.27h.68v1.36a1 1 0 01-1.15 1.14 1.18 1.18 0 01-.85-.3zM85 9.38a.84.84 0 01.38.31.86.86 0 01.13.48.82.82 0 01-.13.48.86.86 0 01-.38.35 1.43 1.43 0 01-.58.11H84v.64h-.7V9.27h1.12a1.43 1.43 0 01.58.11zm-.3 1.06a.31.31 0 00.11-.27.3.3 0 00-.11-.26.49.49 0 00-.32-.1H84v.72h.38a.49.49 0 00.31-.09zm1.7 1.17a1.25 1.25 0 01-.48-.46 1.35 1.35 0 010-1.31 1.25 1.25 0 01.48-.46 1.46 1.46 0 01.69-.16 1.48 1.48 0 01.61.12 1.17 1.17 0 01.45.34l-.44.4a.73.73 0 00-.58-.29.68.68 0 00-.35.09.6.6 0 00-.25.25.83.83 0 00-.08.36.87.87 0 00.08.37.6.6 0 00.25.25.78.78 0 00.35.08.72.72 0 00.58-.28l.44.4a1.28 1.28 0 01-.45.34 1.48 1.48 0 01-.61.12 1.59 1.59 0 01-.69-.16zm-71.84 4.91h2v.41h-2z" fill="#fff"/><path d="M16.56 16.52h2v.41h-2zm2 0h2v.41h-2zm2 0h2v.41h-2zm2 0h2v.41h-2zm2 0h2v.41h-2zm2 0h2v.41h-2zm2 0h2v.41h-2zm2 0h2v.41h-2zm2 0h2v.41h-2zm2 0h2v.41h-2zm2 0h2v.41h-2zm2 0h2v.41h-2zm2 0h2v.41h-2zm2 0h2v.41h-2zm2 0h2v.41h-2zm-31.29 2.95l-1.27.45 1.28.45V21l-2-.72v-.62l2-.73zm1.73-.95h.79v2.8H15zm2.47 0h.79v2.17h1.33v.63h-2.12zm2.85 2.69a1.14 1.14 0 01-.44-.4 1.11 1.11 0 01-.15-.58 1.14 1.14 0 01.15-.58 1 1 0 01.44-.39 1.28 1.28 0 01.63-.15 1.33 1.33 0 01.63.15 1 1 0 01.44.39 1.2 1.2 0 010 1.16 1.14 1.14 0 01-.44.4 1.49 1.49 0 01-1.26 0zm1-.6a.62.62 0 000-.76.48.48 0 00-.66 0 .62.62 0 000 .76.46.46 0 00.66 0zm3.43-1.46l-.9 2.17h-.78l-.89-2.17H23l.52 1.32.48-1.32zm2.34 1.28h-1.58a.48.48 0 00.19.25.63.63 0 00.35.09.77.77 0 00.27 0 1.18 1.18 0 00.23-.14L27 21a1.18 1.18 0 01-.93.35 1.46 1.46 0 01-.67-.14 1.07 1.07 0 01-.44-.4 1 1 0 01-.16-.58 1.06 1.06 0 01.58-1 1.23 1.23 0 01.61-.15 1.28 1.28 0 01.59.14 1.05 1.05 0 01.42.39 1.16 1.16 0 01.15.6s-.05.1-.06.22zm-1.44-.68a.45.45 0 00-.15.28h.89a.45.45 0 00-.15-.28.48.48 0 00-.29-.1.49.49 0 00-.3.1zm5.67-1.23v2.8h-.79v-1.09h-1.08v1.09h-.8v-2.8h.8v1.05h1.08v-1.05zm2.27.84a.92.92 0 01.28.75v1.21h-.7V21a.66.66 0 01-.64.31 1.15 1.15 0 01-.44-.08.61.61 0 01-.37-.58.56.56 0 01.23-.48 1.21 1.21 0 01.73-.17h.43c0-.23-.16-.35-.46-.35a1.12 1.12 0 00-.31 0 .86.86 0 00-.27.14l-.26-.51a1.36 1.36 0 01.44-.19 2.25 2.25 0 01.52-.07 1.24 1.24 0 01.82.34zM33 20.81a.34.34 0 00.14-.19v-.19h-.32c-.23 0-.34.08-.34.22a.19.19 0 00.08.16.33.33 0 00.21.06.44.44 0 00.23-.06zm1.85.4a1.07 1.07 0 01-.44-.4 1.13 1.13 0 010-1.16 1 1 0 01.44-.39 1.34 1.34 0 01.64-.15 1.29 1.29 0 01.64.16.9.9 0 01.38.44l-.59.3a.47.47 0 00-.43-.29.45.45 0 00-.34.13.62.62 0 000 .76.46.46 0 00.34.14.47.47 0 00.43-.29l.59.3a1 1 0 01-.38.44 1.29 1.29 0 01-.64.15 1.34 1.34 0 01-.64-.14zm2.92-.65l-.22.23v.53h-.76v-3h.76v1.56l.77-.76h.91l-.91.93 1 1.24h-.92zm2.12.44a1.26 1.26 0 01-.34-1v-1.48h.79v1.53c0 .44.17.67.53.67s.53-.23.53-.67v-1.53h.78v1.55a1.27 1.27 0 01-.35 1 1.3 1.3 0 01-1 .34 1.32 1.32 0 01-.94-.41zm4.76-2.36a1.13 1.13 0 01.44.36 1 1 0 01.15.55.93.93 0 01-.59.91 1.62 1.62 0 01-.66.13h-.48v.73h-.8v-2.8H44a1.62 1.62 0 01.65.12zm-.34 1.22a.37.37 0 00.13-.31.35.35 0 00-.13-.3.53.53 0 00-.36-.11h-.44V20H44a.53.53 0 00.31-.14zm1.96 1.33a1.38 1.38 0 01-.55-.52 1.51 1.51 0 010-1.5 1.26 1.26 0 01.55-.52 1.57 1.57 0 01.79-.19 1.74 1.74 0 01.69.14 1.32 1.32 0 01.51.39l-.5.46a.82.82 0 00-.66-.33.8.8 0 00-.41.1.61.61 0 00-.27.28.82.82 0 00-.1.42.84.84 0 00.1.42.66.66 0 00.27.28.92.92 0 00.41.1.82.82 0 00.66-.33l.5.46a1.32 1.32 0 01-.51.39 1.73 1.73 0 01-.69.13 1.67 1.67 0 01-.79-.18zm5.43-1.58v.62l-2 .72v-.58l1.3-.45-1.28-.45v-.59zm-36.95 5.08h1.17v.58h-1.17zm1.58 0h1.17v.58h-1.17zm1.59 0h1.17v.58h-1.17zm1.58 0h1.17v.58H19.5zm1.59 0h1.16v.58h-1.16zm1.58 0h1.17v.58h-1.17zm1.58 0h1.17v.58h-1.17zm1.59 0H27v.58h-1.16zm1.58 0h1.17v.58h-1.17zm1.58 0h1.17v.58H29zm1.59 0h1.17v.58h-1.17zm1.58 0h1.17v.58h-1.17zm1.59 0h1.16v.58h-1.16zm1.58 0h1.17v.58h-1.17zm1.58 0h1.17v.58h-1.17zm1.59 0h1.17v.58h-1.17zm1.58 0h1.17v.58h-1.17zm1.59 0h1.16v.58h-1.16zm1.58 0h1.17v.58h-1.17zm1.58 0H46v.58h-1.16zm-23.33 6.63l-1.32-3.77h.67l1.33 3.77zm5.69-.96l-.45-1.1-.46 1.1h-.57l.73-1.68h.6l.73 1.68zm.8.56h2v.41h-2zm2 0h2v.41h-2zm3.64-.56l-.45-1.1-.46 1.1h-.57l.73-1.68h.6l.73 1.68zm-10.97 5.76l-1.32-3.77H22l1.32 3.77zm3.23-.47a3.77 3.77 0 01-.13-1 3.83 3.83 0 01.13-1 2.94 2.94 0 01.38-.84H27a4.1 4.1 0 00-.38.91 3.83 3.83 0 00-.12 1 3.71 3.71 0 00.12 1 3.92 3.92 0 00.38.91h-.73a2.94 2.94 0 01-.37-.98zm1.81-.04a1.14 1.14 0 01-.44-.4 1.12 1.12 0 01-.16-.58 1.18 1.18 0 01.16-.58 1 1 0 01.44-.39 1.28 1.28 0 01.63-.15 1.33 1.33 0 01.63.15 1 1 0 01.44.39 1.2 1.2 0 010 1.16 1.14 1.14 0 01-.44.4 1.49 1.49 0 01-1.26 0zm1-.6a.56.56 0 00.12-.38.58.58 0 00-.12-.38.44.44 0 00-.33-.13.42.42 0 00-.33.13.53.53 0 00-.13.38.52.52 0 00.08.37.42.42 0 00.33.14.45.45 0 00.34-.14zm1.66.6a1.21 1.21 0 01-.44-.4 1.11 1.11 0 01-.15-.58 1.17 1.17 0 01.15-.58 1.1 1.1 0 01.44-.39 1.33 1.33 0 01.63-.15 1.28 1.28 0 01.63.15 1 1 0 01.44.39 1.2 1.2 0 010 1.16 1.14 1.14 0 01-.44.4 1.27 1.27 0 01-.63.14 1.33 1.33 0 01-.63-.14zm1-.6a.56.56 0 00.13-.38.58.58 0 00-.13-.38.48.48 0 00-.66 0 .58.58 0 00-.13.38.56.56 0 00.13.38.46.46 0 00.66 0zm.95 1.48a3.53 3.53 0 00.38-.91 3.71 3.71 0 00.12-1 3.83 3.83 0 00-.12-1 3.68 3.68 0 00-.38-.91h.73a2.48 2.48 0 01.38.84 3.82 3.82 0 01.14 1 3.77 3.77 0 01-.14 1 2.48 2.48 0 01-.38.84zm2.62-.37l-1.32-3.77h.68l1.32 3.77zm1.06-.4h2v.41h-2zm2 0h2v.41h-2zm2 0h2v.41h-2zm2 0h2v.41h-2zm2 0h2v.41h-2zm2 0h2v.41h-2zm2 0h2v.41h-2zm-21.43 4.73a3.77 3.77 0 01-.13-1 3.83 3.83 0 01.13-1 2.94 2.94 0 01.38-.84h.73a4.1 4.1 0 00-.38.91 3.83 3.83 0 00-.12 1 3.71 3.71 0 00.12 1 3.92 3.92 0 00.38.91H27a2.94 2.94 0 01-.43-.98zm1.13.07h2v.41h-2zm2 0h2v.41h-2zm2.03.77a3.92 3.92 0 00.38-.91 3.71 3.71 0 00.12-1 3.83 3.83 0 00-.12-1 4.1 4.1 0 00-.38-.91h.73a2.94 2.94 0 01.38.84 3.83 3.83 0 01.13 1 3.77 3.77 0 01-.13 1 2.94 2.94 0 01-.38.84zm2.61-.37L33 37.15h.68L35 40.92zm16.82.37a3.92 3.92 0 00.38-.91 3.71 3.71 0 00.12-1 3.83 3.83 0 00-.12-1 4.1 4.1 0 00-.38-.91h.73a2.94 2.94 0 01.38.84 3.83 3.83 0 01.13 1 3.77 3.77 0 01-.13 1 2.94 2.94 0 01-.38.84zm2.62-.37l-1.32-3.77h.67l1.32 3.77z" fill="#fff"/><path d="M55.49 37.15h.67l-1.32 3.77h-.67z" fill="#fff"/><path d="M57.13 40.92l-1.32-3.77h.68l1.32 3.77zM30 42.35h.69v3.74H30zm1.22 0h.7v3.74h-.7zm1.17 1.54h1.17v.58h-1.17zm1.61 0h1.16v.58H34zm1.56 0h1.17v.58h-1.17zm1.58 0h1.17v.58h-1.17zm1.59 0h1.17v.58h-1.17zm1.58 0h1.17v.58h-1.17zm1.59 0h1.16v.58H41.9zm1.58 0h1.17v.58h-1.17zm1.58 0h1.17v.58h-1.17zm5.13-.74l-.77 2.17h-.74l-.41-1.18-.42 1.18h-.74l-.77-2.17h.72l.44 1.31.5-1.31h.65l.45 1.32.46-1.32zm1.43-.8h.7v3.74h-.7zM30 47.15h.69v3.74H30zm1.22 0h.7v3.74h-.7zm18.72 0h.7v3.74h-.7zm1.26 0h.69v3.74h-.69z" fill="#fff"/></svg>