<svg xmlns="http://www.w3.org/2000/svg" xmlns:xlink="http://www.w3.org/1999/xlink" viewBox="0 0 97.85 86.99"><defs><style>.cls-1{fill:none;}.cls-2{fill:#cdc8f4;}.cls-3{fill:#aba2ea;}.cls-4{fill:#948fd8;}.cls-5{fill:#33323f;}.cls-6{opacity:0.15;}.cls-7{clip-path:url(#clip-path);}.cls-8{fill:#efd378;}.cls-9{opacity:0.5;}.cls-10{clip-path:url(#clip-path-2);}.cls-11{fill:#fff;}</style><clipPath id="clip-path"><rect class="cls-1" x="8.81" y="55.21" width="9.83" height="10.4"/></clipPath><clipPath id="clip-path-2"><rect class="cls-1" x="12.28" y="52.69" width="1.67" height="3.32"/></clipPath></defs><title>pc-cowsay</title><g id="Capa_2" data-name="Capa 2"><g id="mesas"><g id="_3D" data-name="3D"><g id="complementos_mesas" data-name="complementos mesas"><g id="pc_fondo_izquierdo" data-name="pc fondo izquierdo"><path class="cls-2" d="M97.85,57.83H0V4.11A4.12,4.12,0,0,1,4.11,0H94.74a3.12,3.12,0,0,1,3.11,3.11Z"/><path class="cls-3" d="M89.08,66.6H8.77A8.77,8.77,0,0,1,0,57.83H97.85a8.77,8.77,0,0,1-8.77,8.77"/><rect class="cls-2" x="39.98" y="66.6" width="17.76" height="14.78"/><rect class="cls-4" x="39.98" y="66.6" width="17.76" height="4.68"/><path class="cls-3" d="M69.39,87h-41v-1.1a4.53,4.53,0,0,1,4.51-4.52h32a4.53,4.53,0,0,1,4.52,4.52Z"/><path class="cls-5" d="M92.09,4.22H5.63A1.53,1.53,0,0,0,4.1,5.75v45a1.54,1.54,0,0,0,1.53,1.54H92.09a1.54,1.54,0,0,0,1.53-1.54v-45a1.53,1.53,0,0,0-1.53-1.53"/><path class="cls-4" d="M51.28,61.92a2.77,2.77,0,1,1-2.76-2.77,2.76,2.76,0,0,1,2.76,2.77"/><g class="cls-6"><g class="cls-7"><rect x="8.88" y="55.28" width="9.68" height="10.26" transform="translate(-0.87 0.2) rotate(-0.83)"/></g></g><polygon class="cls-8" points="17.96 54.97 18.1 64.27 8.42 64.4 8.28 55.1 17.96 54.97"/><g class="cls-9"><g class="cls-10"><rect class="cls-11" x="12.3" y="52.7" width="1.62" height="3.3" transform="matrix(1, -0.01, 0.01, 1, -0.77, 0.19)"/></g></g><path class="cls-11" d="M12.18,5.65a1.06,1.06,0,0,1,.37-.06v.6H12.4a.53.53,0,0,0-.34.11.49.49,0,0,0-.12.36v.87h-.66V5.62h.63v.23A.68.68,0,0,1,12.18,5.65Z"/><path class="cls-11" d="M13.21,7.42a.92.92,0,0,1-.38-.35.94.94,0,0,1-.14-.5,1,1,0,0,1,.14-.51,1,1,0,0,1,.38-.35,1.32,1.32,0,0,1,1.1,0,1,1,0,0,1,.39.35,1,1,0,0,1,.13.51.93.93,0,0,1-.13.5.94.94,0,0,1-.39.35,1.09,1.09,0,0,1-.55.13A1.12,1.12,0,0,1,13.21,7.42Zm.84-.52a.55.55,0,0,0,0-.66.41.41,0,0,0-.58,0,.55.55,0,0,0,0,.66.41.41,0,0,0,.58,0Z"/><path class="cls-11" d="M15.54,7.42a.92.92,0,0,1-.38-.35.94.94,0,0,1-.14-.5,1,1,0,0,1,.14-.51,1,1,0,0,1,.38-.35,1.23,1.23,0,0,1,.55-.12,1.2,1.2,0,0,1,.55.12,1,1,0,0,1,.39.35,1,1,0,0,1,.13.51.93.93,0,0,1-.13.5.94.94,0,0,1-.39.35,1.09,1.09,0,0,1-.55.13A1.14,1.14,0,0,1,15.54,7.42Zm.84-.52a.55.55,0,0,0,0-.66.41.41,0,0,0-.58,0,.55.55,0,0,0,0,.66.41.41,0,0,0,.58,0Z"/><path class="cls-11" d="M18.78,7.44a.58.58,0,0,1-.21.08,1,1,0,0,1-.25,0,.81.81,0,0,1-.57-.18.68.68,0,0,1-.2-.55V6.19h-.28v-.5h.28V5.2h.66v.49h.44v.5h-.44v.63a.21.21,0,0,0,.06.16.16.16,0,0,0,.14,0,.31.31,0,0,0,.2,0Z"/><path class="cls-11" d="M21.53,5.23a1.44,1.44,0,0,1,.8,1.32,1.27,1.27,0,0,1-.1.54.85.85,0,0,1-.27.34.7.7,0,0,1-.4.12.63.63,0,0,1-.32-.08.5.5,0,0,1-.2-.23.6.6,0,0,1-.56.31.77.77,0,0,1-.39-.11.84.84,0,0,1-.28-.31,1,1,0,0,1-.11-.46,1.08,1.08,0,0,1,.1-.46.87.87,0,0,1,.29-.31.77.77,0,0,1,.39-.11A.63.63,0,0,1,21,6V5.82h.57V6.89a.23.23,0,0,0,0,.16.13.13,0,0,0,.11,0c.15,0,.22-.18.22-.54a1.1,1.1,0,0,0-.16-.6,1.07,1.07,0,0,0-.44-.4,1.44,1.44,0,0,0-1.3,0,1.19,1.19,0,0,0-.45.44,1.26,1.26,0,0,0-.15.62,1.34,1.34,0,0,0,.15.64A1.07,1.07,0,0,0,20,7.7a1.23,1.23,0,0,0,.65.16,1.49,1.49,0,0,0,.69-.16l.13.38a1.55,1.55,0,0,1-.38.12,2.28,2.28,0,0,1-.44.05,1.87,1.87,0,0,1-.9-.21,1.52,1.52,0,0,1-.6-.58,1.73,1.73,0,0,1,0-1.65,1.6,1.6,0,0,1,.61-.57,1.87,1.87,0,0,1,.9-.21A1.8,1.8,0,0,1,21.53,5.23ZM20.88,7a.54.54,0,0,0,0-.6.33.33,0,0,0-.25-.1.3.3,0,0,0-.25.1.45.45,0,0,0-.1.3.44.44,0,0,0,.1.29.31.31,0,0,0,.25.11A.37.37,0,0,0,20.88,7Z"/><path class="cls-11" d="M24,7.44a.66.66,0,0,1-.21.08,1,1,0,0,1-.25,0A.81.81,0,0,1,23,7.37a.68.68,0,0,1-.2-.55V6.19h-.28v-.5h.28V5.2h.66v.49h.43v.5h-.43v.63a.25.25,0,0,0,0,.16.2.2,0,0,0,.15,0,.33.33,0,0,0,.2,0Z"/><path class="cls-11" d="M26.12,6.74H24.74A.37.37,0,0,0,24.9,7a.49.49,0,0,0,.31.08.53.53,0,0,0,.23,0,.53.53,0,0,0,.2-.12l.35.36a1,1,0,0,1-.81.31,1.21,1.21,0,0,1-.58-.13.89.89,0,0,1-.39-.35.94.94,0,0,1-.14-.5,1,1,0,0,1,.14-.51.94.94,0,0,1,.37-.34,1.07,1.07,0,0,1,.53-.13,1.14,1.14,0,0,1,.52.12.84.84,0,0,1,.36.34,1,1,0,0,1,.14.52S26.13,6.63,26.12,6.74Zm-1.26-.59a.41.41,0,0,0-.13.24h.78a.47.47,0,0,0-.13-.24.39.39,0,0,0-.26-.09A.37.37,0,0,0,24.86,6.15Z"/><path class="cls-11" d="M26.84,7.42a.92.92,0,0,1-.38-.35.86.86,0,0,1-.14-.5.89.89,0,0,1,.14-.51,1,1,0,0,1,.38-.35,1.32,1.32,0,0,1,.57-.12,1.07,1.07,0,0,1,.55.14.78.78,0,0,1,.34.38l-.52.26a.4.4,0,0,0-.38-.25.38.38,0,0,0-.29.12.51.51,0,0,0,0,.66A.38.38,0,0,0,27.4,7a.4.4,0,0,0,.38-.25L28.3,7a.78.78,0,0,1-.34.38,1.07,1.07,0,0,1-.55.14A1.2,1.2,0,0,1,26.84,7.42Z"/><path class="cls-11" d="M31.58,5.8a.86.86,0,0,1,.21.63V7.52h-.67v-1a.54.54,0,0,0-.07-.29.27.27,0,0,0-.22-.1.3.3,0,0,0-.24.11.47.47,0,0,0-.09.32v.94h-.66v-1c0-.26-.1-.39-.29-.39a.33.33,0,0,0-.25.11.47.47,0,0,0-.09.32v.94h-.66V5.62h.63v.2a.62.62,0,0,1,.25-.17.83.83,0,0,1,.32-.06.86.86,0,0,1,.36.07.61.61,0,0,1,.25.23.74.74,0,0,1,.28-.22A1,1,0,0,1,31,5.59.76.76,0,0,1,31.58,5.8Z"/><path class="cls-11" d="M32.24,5.31a.34.34,0,0,1-.11-.25.33.33,0,0,1,.11-.25.47.47,0,0,1,.59,0,.3.3,0,0,1,.11.25.33.33,0,0,1-.11.26.39.39,0,0,1-.29.1A.44.44,0,0,1,32.24,5.31Zm0,.31h.66v1.9h-.66Z"/><path class="cls-11" d="M35.1,5.8a.82.82,0,0,1,.22.63V7.52h-.66v-1c0-.26-.11-.39-.32-.39a.34.34,0,0,0-.27.12.45.45,0,0,0-.1.33v.92H33.3V5.62h.63v.21a.8.8,0,0,1,.27-.18.9.9,0,0,1,.34-.06A.76.76,0,0,1,35.1,5.8Z"/><path class="cls-11" d="M37.05,7.44a.66.66,0,0,1-.21.08,1.09,1.09,0,0,1-.26,0A.85.85,0,0,1,36,7.37a.71.71,0,0,1-.2-.55V6.19h-.27v-.5h.27V5.2h.67v.49h.43v.5h-.43v.63a.25.25,0,0,0,.05.16.2.2,0,0,0,.15,0,.33.33,0,0,0,.2,0Z"/><path class="cls-11" d="M37.3,6.27A.38.38,0,0,1,37.18,6a.35.35,0,0,1,.12-.28.39.39,0,0,1,.28-.11.42.42,0,0,1,.29.11A.38.38,0,0,1,38,6a.38.38,0,0,1-.4.4A.39.39,0,0,1,37.3,6.27Zm0,1.17a.38.38,0,0,1-.12-.29.36.36,0,0,1,.12-.28.39.39,0,0,1,.28-.11.42.42,0,0,1,.29.11.39.39,0,0,1,.11.28.38.38,0,0,1-.4.4A.39.39,0,0,1,37.3,7.44Z"/><path class="cls-11" d="M39.28,6.62a1,1,0,0,1-.21-.13l-.13-.08a.17.17,0,0,0-.1,0,.21.21,0,0,0-.14.07.3.3,0,0,0-.05.18h-.41a.84.84,0,0,1,.15-.53.5.5,0,0,1,.41-.19A.46.46,0,0,1,39,6a1,1,0,0,1,.22.13l.12.08a.16.16,0,0,0,.1,0,.18.18,0,0,0,.14-.06.35.35,0,0,0,0-.18h.41a.78.78,0,0,1-.16.53.47.47,0,0,1-.4.19A.46.46,0,0,1,39.28,6.62Z"/><path class="cls-11" d="M42.21,6l-.06.51h.44V7h-.5L42,7.52h-.48L41.62,7h-.43l-.07.52h-.48L40.71,7h-.44V6.55h.5L40.83,6h-.45V5.59h.5L41,5.07h.47l-.06.52h.43l.06-.52h.48l-.07.52h.45V6Zm-.48,0H41.3l-.06.51h.43Z"/><path class="cls-11" d="M45.53,5.81a.83.83,0,0,1,.25.65V7.52h-.62V7.27a.57.57,0,0,1-.56.28.93.93,0,0,1-.39-.08A.61.61,0,0,1,44,7.26.55.55,0,0,1,43.89,7a.5.5,0,0,1,.2-.42,1.12,1.12,0,0,1,.64-.15h.38c0-.2-.15-.3-.4-.3a.86.86,0,0,0-.52.16L44,5.81a1.21,1.21,0,0,1,.38-.16,1.76,1.76,0,0,1,.46-.06A1.05,1.05,0,0,1,45.53,5.81ZM45,7.07a.3.3,0,0,0,.13-.16V6.74h-.29c-.19,0-.29.07-.29.2a.16.16,0,0,0,.07.14.3.3,0,0,0,.18,0A.32.32,0,0,0,45,7.07Z"/><path class="cls-11" d="M47.86,5.71a.92.92,0,0,1,.34.34,1.19,1.19,0,0,1,0,1,1,1,0,0,1-.34.34.94.94,0,0,1-.47.12.72.72,0,0,1-.53-.2V8.2h-.67V5.62h.64v.19a.68.68,0,0,1,.56-.22A.94.94,0,0,1,47.86,5.71ZM47.54,6.9a.55.55,0,0,0,0-.66.4.4,0,0,0-.29-.12.38.38,0,0,0-.29.12.55.55,0,0,0,0,.66.38.38,0,0,0,.29.12A.4.4,0,0,0,47.54,6.9Z"/><path class="cls-11" d="M49.94,7.44a.66.66,0,0,1-.21.08,1,1,0,0,1-.26,0,.85.85,0,0,1-.57-.18.71.71,0,0,1-.2-.55V6.19h-.27v-.5h.27V5.2h.67v.49h.43v.5h-.43v.63a.25.25,0,0,0,.05.16.2.2,0,0,0,.15,0,.33.33,0,0,0,.2,0Z"/><path class="cls-11" d="M50.11,6.27h1v.51h-1Z"/><path class="cls-11" d="M53.59,5.62V7.17A1,1,0,0,1,53.3,8a1.14,1.14,0,0,1-.82.27A2.26,2.26,0,0,1,52,8.17,1.42,1.42,0,0,1,51.54,8l.24-.47a.62.62,0,0,0,.29.15,1.07,1.07,0,0,0,.35.06.52.52,0,0,0,.38-.12.46.46,0,0,0,.13-.34V7.2a.71.71,0,0,1-.57.22,1,1,0,0,1-.46-.11A.83.83,0,0,1,51.56,7a.82.82,0,0,1-.13-.48A.86.86,0,0,1,51.56,6a.88.88,0,0,1,.34-.32,1,1,0,0,1,.46-.11.71.71,0,0,1,.6.26V5.62Zm-.78,1.16a.35.35,0,0,0,.12-.28.37.37,0,0,0-.11-.27.46.46,0,0,0-.6,0,.34.34,0,0,0-.12.27.35.35,0,0,0,.12.28.4.4,0,0,0,.3.11A.36.36,0,0,0,52.81,6.78Z"/><path class="cls-11" d="M56,6.74H54.57a.33.33,0,0,0,.16.22A.48.48,0,0,0,55,7a.61.61,0,0,0,.24,0,.62.62,0,0,0,.2-.12l.35.36a1,1,0,0,1-.81.31,1.18,1.18,0,0,1-.58-.13A.89.89,0,0,1,54,7.07a.86.86,0,0,1-.14-.5.89.89,0,0,1,.51-.85,1,1,0,0,1,.53-.13,1.14,1.14,0,0,1,.52.12.84.84,0,0,1,.36.34,1,1,0,0,1,.14.52A1.33,1.33,0,0,0,56,6.74Zm-1.26-.59a.36.36,0,0,0-.13.24h.77a.41.41,0,0,0-.13-.24.37.37,0,0,0-.26-.09A.37.37,0,0,0,54.69,6.15Z"/><path class="cls-11" d="M57.57,7.44a.52.52,0,0,1-.2.08,1.09,1.09,0,0,1-.26,0,.81.81,0,0,1-.57-.18.71.71,0,0,1-.2-.55V6.19h-.28v-.5h.28V5.2H57v.49h.43v.5H57v.63a.21.21,0,0,0,.05.16.18.18,0,0,0,.15,0,.35.35,0,0,0,.2,0Z"/><path class="cls-11" d="M58.89,5.31a.32.32,0,0,1-.12-.25.3.3,0,0,1,.12-.25.4.4,0,0,1,.29-.11.44.44,0,0,1,.29.1.3.3,0,0,1,.12.25.34.34,0,0,1-.12.26.47.47,0,0,1-.58,0Zm0,.31h.66v1.9h-.66Z"/><path class="cls-11" d="M61.75,5.8a.86.86,0,0,1,.21.63V7.52H61.3v-1c0-.26-.11-.39-.31-.39a.35.35,0,0,0-.28.12.45.45,0,0,0-.1.33v.92h-.67V5.62h.64v.21a.68.68,0,0,1,.26-.18.93.93,0,0,1,.34-.06A.8.8,0,0,1,61.75,5.8Z"/><path class="cls-11" d="M62.6,7.5a1.18,1.18,0,0,1-.37-.15l.2-.45a1.52,1.52,0,0,0,.31.13,1.34,1.34,0,0,0,.35,0,.63.63,0,0,0,.23,0,.11.11,0,0,0,.07-.1s0-.07-.09-.08L63,6.8a1.72,1.72,0,0,1-.38-.07.62.62,0,0,1-.28-.17.45.45,0,0,1-.11-.34.51.51,0,0,1,.1-.32.78.78,0,0,1,.32-.23,1.5,1.5,0,0,1,.5-.08,1.9,1.9,0,0,1,.41,0,1.22,1.22,0,0,1,.34.12l-.2.45a1.15,1.15,0,0,0-.55-.14.47.47,0,0,0-.23,0,.1.1,0,0,0-.07.09.11.11,0,0,0,.08.1,1.65,1.65,0,0,0,.27,0l.38.08a.55.55,0,0,1,.27.17.45.45,0,0,1,.12.34.54.54,0,0,1-.11.32.76.76,0,0,1-.32.22,1.52,1.52,0,0,1-.51.08A2.42,2.42,0,0,1,62.6,7.5Z"/><path class="cls-11" d="M65.6,7.44a.52.52,0,0,1-.2.08,1.09,1.09,0,0,1-.26,0,.81.81,0,0,1-.57-.18.71.71,0,0,1-.2-.55V6.19h-.28v-.5h.28V5.2H65v.49h.44v.5H65v.63a.21.21,0,0,0,.06.16.17.17,0,0,0,.14,0,.36.36,0,0,0,.21,0Z"/><path class="cls-11" d="M67.39,5.81a.83.83,0,0,1,.25.65V7.52H67V7.27a.57.57,0,0,1-.56.28.93.93,0,0,1-.39-.08.61.61,0,0,1-.24-.21A.55.55,0,0,1,65.75,7,.49.49,0,0,1,66,6.55a1.06,1.06,0,0,1,.63-.15H67c0-.2-.15-.3-.4-.3a.86.86,0,0,0-.52.16l-.22-.45a1.21,1.21,0,0,1,.38-.16,1.76,1.76,0,0,1,.46-.06A1.05,1.05,0,0,1,67.39,5.81Zm-.55,1.26A.3.3,0,0,0,67,6.91V6.74h-.29c-.19,0-.29.07-.29.2a.16.16,0,0,0,.07.14.3.3,0,0,0,.18,0A.32.32,0,0,0,66.84,7.07Z"/><path class="cls-11" d="M68.05,4.92h.67v2.6h-.67Z"/><path class="cls-11" d="M69.15,4.92h.67v2.6h-.67Z"/><path class="cls-11" d="M71.67,7.42a.94.94,0,0,1-.39-.35.93.93,0,0,1-.13-.5,1,1,0,0,1,.13-.51,1,1,0,0,1,.39-.35,1.28,1.28,0,0,1,.56-.12,1.11,1.11,0,0,1,.56.14.72.72,0,0,1,.33.38l-.51.26a.42.42,0,0,0-.68-.13.55.55,0,0,0,0,.66.42.42,0,0,0,.68-.13l.51.26a.72.72,0,0,1-.33.38,1.11,1.11,0,0,1-.56.14A1.16,1.16,0,0,1,71.67,7.42Z"/><path class="cls-11" d="M73.76,7.42a.94.94,0,0,1-.39-.35.93.93,0,0,1-.13-.5,1,1,0,0,1,.13-.51,1,1,0,0,1,.39-.35,1.2,1.2,0,0,1,.55-.12,1.23,1.23,0,0,1,.55.12,1,1,0,0,1,.38.35,1,1,0,0,1,.14.51.94.94,0,0,1-.14.5.92.92,0,0,1-.38.35,1.12,1.12,0,0,1-.55.13A1.09,1.09,0,0,1,73.76,7.42Zm.83-.52a.51.51,0,0,0,0-.66.36.36,0,0,0-.28-.12.37.37,0,0,0-.29.12.44.44,0,0,0-.11.33A.44.44,0,0,0,74,6.9a.37.37,0,0,0,.29.12A.36.36,0,0,0,74.59,6.9Z"/><path class="cls-11" d="M78.78,5.62l-.68,1.9h-.64l-.36-1-.37,1h-.65l-.67-1.9H76l.39,1.15.4-1.15h.57l.39,1.16.4-1.16Z"/><path class="cls-11" d="M79.17,7.5a1.18,1.18,0,0,1-.37-.15L79,6.9a1.69,1.69,0,0,0,.3.13,1.47,1.47,0,0,0,.36,0,.67.67,0,0,0,.23,0,.11.11,0,0,0,.07-.1s0-.07-.09-.08l-.26-.06a1.72,1.72,0,0,1-.38-.07A.62.62,0,0,1,79,6.56a.45.45,0,0,1-.11-.34.51.51,0,0,1,.1-.32.78.78,0,0,1,.32-.23,1.5,1.5,0,0,1,.5-.08,1.9,1.9,0,0,1,.41,0,1.35,1.35,0,0,1,.34.12l-.2.45a1.15,1.15,0,0,0-.55-.14.47.47,0,0,0-.23,0,.1.1,0,0,0-.07.09.11.11,0,0,0,.08.1,1.7,1.7,0,0,0,.26,0l.39.08a.55.55,0,0,1,.27.17.45.45,0,0,1,.11.34.53.53,0,0,1-.1.32.76.76,0,0,1-.32.22,1.6,1.6,0,0,1-.51.08A2.42,2.42,0,0,1,79.17,7.5Z"/><path class="cls-11" d="M82.39,5.81a.8.8,0,0,1,.25.65V7.52H82V7.27a.57.57,0,0,1-.56.28.89.89,0,0,1-.38-.08.5.5,0,0,1-.24-.21A.48.48,0,0,1,80.75,7,.49.49,0,0,1,81,6.55a1.1,1.1,0,0,1,.64-.15H82c0-.2-.14-.3-.4-.3a.84.84,0,0,0-.27,0,.67.67,0,0,0-.24.12l-.23-.45a1.38,1.38,0,0,1,.39-.16,1.74,1.74,0,0,1,.45-.06A1,1,0,0,1,82.39,5.81Zm-.54,1.26A.25.25,0,0,0,82,6.91V6.74h-.28c-.2,0-.29.07-.29.2a.18.18,0,0,0,.06.14.36.36,0,0,0,.19,0A.36.36,0,0,0,81.85,7.07Z"/><path class="cls-11" d="M85,5.62l-.82,2a1.13,1.13,0,0,1-.35.49.93.93,0,0,1-.51.14,1,1,0,0,1-.3-.05.83.83,0,0,1-.25-.12L83,7.59a.29.29,0,0,0,.13.08.45.45,0,0,0,.16,0,.41.41,0,0,0,.16,0,.34.34,0,0,0,.1-.13l-.81-1.92h.68l.46,1.16.47-1.16Z"/><path class="cls-11" d="M12.18,9.86a.87.87,0,0,1,.37-.07v.6H12.4a.53.53,0,0,0-.34.11.49.49,0,0,0-.12.36v.87h-.66V9.82h.63v.23A.58.58,0,0,1,12.18,9.86Z"/><path class="cls-11" d="M13.21,11.62a.92.92,0,0,1-.38-.35.94.94,0,0,1-.14-.5,1,1,0,0,1,.14-.51,1,1,0,0,1,.38-.35,1.32,1.32,0,0,1,1.1,0,1,1,0,0,1,.39.35,1,1,0,0,1,.13.51.93.93,0,0,1-.13.5.94.94,0,0,1-.39.35,1.09,1.09,0,0,1-.55.13A1.12,1.12,0,0,1,13.21,11.62Zm.84-.52a.55.55,0,0,0,0-.66.41.41,0,0,0-.58,0,.55.55,0,0,0,0,.66.41.41,0,0,0,.58,0Z"/><path class="cls-11" d="M15.54,11.62a.92.92,0,0,1-.38-.35.94.94,0,0,1-.14-.5,1,1,0,0,1,.14-.51,1,1,0,0,1,.38-.35,1.23,1.23,0,0,1,.55-.12,1.2,1.2,0,0,1,.55.12,1,1,0,0,1,.39.35,1,1,0,0,1,.13.51.93.93,0,0,1-.13.5.94.94,0,0,1-.39.35,1.09,1.09,0,0,1-.55.13A1.14,1.14,0,0,1,15.54,11.62Zm.84-.52a.55.55,0,0,0,0-.66.41.41,0,0,0-.58,0,.55.55,0,0,0,0,.66.41.41,0,0,0,.58,0Z"/><path class="cls-11" d="M18.78,11.64a.58.58,0,0,1-.21.08,1,1,0,0,1-.25,0,.81.81,0,0,1-.57-.18.68.68,0,0,1-.2-.55v-.63h-.28v-.5h.28V9.4h.66v.49h.44v.5h-.44V11a.21.21,0,0,0,.06.16.16.16,0,0,0,.14.05.31.31,0,0,0,.2-.05Z"/><path class="cls-11" d="M21.53,9.43a1.44,1.44,0,0,1,.8,1.32,1.27,1.27,0,0,1-.1.54.85.85,0,0,1-.27.34.7.7,0,0,1-.4.12.63.63,0,0,1-.32-.08.5.5,0,0,1-.2-.23.58.58,0,0,1-.56.31.77.77,0,0,1-.39-.11.84.84,0,0,1-.28-.31,1,1,0,0,1-.11-.46,1.08,1.08,0,0,1,.1-.46.87.87,0,0,1,.29-.31.77.77,0,0,1,.39-.11.63.63,0,0,1,.48.2V10h.57v1.07a.23.23,0,0,0,0,.16.13.13,0,0,0,.11.05c.15,0,.22-.18.22-.54a1.1,1.1,0,0,0-.16-.6,1.07,1.07,0,0,0-.44-.4,1.44,1.44,0,0,0-1.3,0,1.19,1.19,0,0,0-.45.44,1.26,1.26,0,0,0-.15.62,1.34,1.34,0,0,0,.15.64,1.07,1.07,0,0,0,.44.43,1.23,1.23,0,0,0,.65.16,1.49,1.49,0,0,0,.69-.16l.13.38a1.55,1.55,0,0,1-.38.12,2.28,2.28,0,0,1-.44,0,1.87,1.87,0,0,1-.9-.21,1.52,1.52,0,0,1-.6-.58,1.73,1.73,0,0,1,0-1.65,1.6,1.6,0,0,1,.61-.57,1.87,1.87,0,0,1,.9-.21A1.8,1.8,0,0,1,21.53,9.43Zm-.65,1.74a.55.55,0,0,0,0-.6.33.33,0,0,0-.25-.1.3.3,0,0,0-.25.1.45.45,0,0,0-.1.3.44.44,0,0,0,.1.29.31.31,0,0,0,.25.11A.37.37,0,0,0,20.88,11.17Z"/><path class="cls-11" d="M24,11.64a.66.66,0,0,1-.21.08,1,1,0,0,1-.25,0,.81.81,0,0,1-.57-.18.68.68,0,0,1-.2-.55v-.63h-.28v-.5h.28V9.4h.66v.49h.43v.5h-.43V11a.25.25,0,0,0,0,.16.2.2,0,0,0,.15.05.33.33,0,0,0,.2-.05Z"/><path class="cls-11" d="M26.12,10.94H24.74a.37.37,0,0,0,.16.22.49.49,0,0,0,.31.08.53.53,0,0,0,.23,0,.53.53,0,0,0,.2-.12l.35.36a1,1,0,0,1-.81.31,1.21,1.21,0,0,1-.58-.13.89.89,0,0,1-.39-.35.94.94,0,0,1-.14-.5,1,1,0,0,1,.14-.51.94.94,0,0,1,.37-.34,1.07,1.07,0,0,1,.53-.13,1.14,1.14,0,0,1,.52.12.84.84,0,0,1,.36.34,1,1,0,0,1,.14.52S26.13,10.83,26.12,10.94Zm-1.26-.59a.41.41,0,0,0-.13.24h.78a.47.47,0,0,0-.13-.24.39.39,0,0,0-.26-.09A.37.37,0,0,0,24.86,10.35Z"/><path class="cls-11" d="M26.84,11.62a.92.92,0,0,1-.38-.35.86.86,0,0,1-.14-.5.89.89,0,0,1,.14-.51,1,1,0,0,1,.38-.35,1.32,1.32,0,0,1,.57-.12,1.07,1.07,0,0,1,.55.14.78.78,0,0,1,.34.38l-.52.26a.4.4,0,0,0-.38-.25.38.38,0,0,0-.29.12.51.51,0,0,0,0,.66.38.38,0,0,0,.29.12.4.4,0,0,0,.38-.25l.52.26a.78.78,0,0,1-.34.38,1.07,1.07,0,0,1-.55.14A1.2,1.2,0,0,1,26.84,11.62Z"/><path class="cls-11" d="M31.58,10a.86.86,0,0,1,.21.63v1.09h-.67v-1a.54.54,0,0,0-.07-.29.27.27,0,0,0-.22-.1.3.3,0,0,0-.24.11.47.47,0,0,0-.09.32v.94h-.66v-1c0-.26-.1-.39-.29-.39a.33.33,0,0,0-.25.11.47.47,0,0,0-.09.32v.94h-.66V9.82h.63V10a.62.62,0,0,1,.25-.17.83.83,0,0,1,.32-.06.86.86,0,0,1,.36.07.61.61,0,0,1,.25.23.74.74,0,0,1,.28-.22A1,1,0,0,1,31,9.79.76.76,0,0,1,31.58,10Z"/><path class="cls-11" d="M32.24,9.51a.34.34,0,0,1-.11-.25A.33.33,0,0,1,32.24,9a.47.47,0,0,1,.59,0,.31.31,0,0,1,.11.25.33.33,0,0,1-.11.26.39.39,0,0,1-.29.1A.44.44,0,0,1,32.24,9.51Zm0,.31h.66v1.9h-.66Z"/><path class="cls-11" d="M35.1,10a.82.82,0,0,1,.22.63v1.09h-.66v-1c0-.26-.11-.39-.32-.39a.34.34,0,0,0-.27.12.45.45,0,0,0-.1.33v.92H33.3V9.82h.63V10a.8.8,0,0,1,.27-.18.9.9,0,0,1,.34-.06A.76.76,0,0,1,35.1,10Z"/><path class="cls-11" d="M37.05,11.64a.66.66,0,0,1-.21.08,1.09,1.09,0,0,1-.26,0,.85.85,0,0,1-.57-.18.71.71,0,0,1-.2-.55v-.63h-.27v-.5h.27V9.4h.67v.49h.43v.5h-.43V11a.25.25,0,0,0,.05.16.2.2,0,0,0,.15.05.33.33,0,0,0,.2-.05Z"/><path class="cls-11" d="M37.3,10.47a.38.38,0,0,1-.12-.29.36.36,0,0,1,.12-.28.39.39,0,0,1,.28-.11.42.42,0,0,1,.29.11.39.39,0,0,1,.11.28.38.38,0,0,1-.4.4A.39.39,0,0,1,37.3,10.47Zm0,1.17a.38.38,0,0,1-.12-.29.36.36,0,0,1,.12-.28.39.39,0,0,1,.28-.11.42.42,0,0,1,.29.11.39.39,0,0,1,.11.28.38.38,0,0,1-.4.4A.39.39,0,0,1,37.3,11.64Z"/><path class="cls-11" d="M39.28,10.82a1,1,0,0,1-.21-.13l-.13-.08a.17.17,0,0,0-.1,0,.21.21,0,0,0-.14.07.3.3,0,0,0-.05.18h-.41a.84.84,0,0,1,.15-.53.5.5,0,0,1,.41-.19.46.46,0,0,1,.21.05,1,1,0,0,1,.22.13l.12.08a.17.17,0,0,0,.1,0,.19.19,0,0,0,.14-.07.35.35,0,0,0,0-.18h.41a.78.78,0,0,1-.16.53.47.47,0,0,1-.4.19A.46.46,0,0,1,39.28,10.82Z"/><path class="cls-11" d="M42.21,10.24l-.06.51h.44v.45h-.5l-.06.52h-.48l.07-.52h-.43l-.07.52h-.48l.07-.52h-.44v-.45h.5l.06-.51h-.45V9.79h.5L41,9.27h.47l-.06.52h.43l.06-.52h.48l-.07.52h.45v.45Zm-.48,0H41.3l-.06.51h.43Z"/><path class="cls-11" d="M44.4,11.62a.92.92,0,0,1-.38-.35.86.86,0,0,1-.14-.5.89.89,0,0,1,.14-.51,1,1,0,0,1,.38-.35A1.32,1.32,0,0,1,45,9.79a1.07,1.07,0,0,1,.55.14.78.78,0,0,1,.34.38l-.52.26a.41.41,0,0,0-.38-.25.38.38,0,0,0-.29.12.51.51,0,0,0,0,.66.38.38,0,0,0,.29.12.41.41,0,0,0,.38-.25l.52.26a.78.78,0,0,1-.34.38,1.07,1.07,0,0,1-.55.14A1.2,1.2,0,0,1,44.4,11.62Z"/><path class="cls-11" d="M46.49,11.62a.92.92,0,0,1-.38-.35.86.86,0,0,1-.14-.5.89.89,0,0,1,.14-.51.92.92,0,0,1,.38-.35A1.2,1.2,0,0,1,47,9.79a1.23,1.23,0,0,1,.55.12,1,1,0,0,1,.38.35,1,1,0,0,1,.14.51.94.94,0,0,1-.14.5.92.92,0,0,1-.38.35,1.23,1.23,0,0,1-1.1,0Zm.84-.52a.55.55,0,0,0,0-.66.41.41,0,0,0-.58,0,.55.55,0,0,0,0,.66.41.41,0,0,0,.58,0Z"/><path class="cls-11" d="M51.51,9.82l-.68,1.9h-.64l-.36-1-.37,1h-.64l-.68-1.9h.63L49.16,11l.4-1.15h.57L50.52,11l.4-1.16Z"/><path class="cls-11" d="M51.9,11.7a1.42,1.42,0,0,1-.37-.15l.2-.45a1.81,1.81,0,0,0,.31.13,1.45,1.45,0,0,0,.35,0,.6.6,0,0,0,.23,0,.1.1,0,0,0,.07-.1s0-.07-.08-.08L52.35,11a2,2,0,0,1-.39-.07.55.55,0,0,1-.27-.17.45.45,0,0,1-.12-.34.52.52,0,0,1,.11-.32A.72.72,0,0,1,52,9.87a1.4,1.4,0,0,1,.49-.08,1.84,1.84,0,0,1,.41,0,1.22,1.22,0,0,1,.34.12l-.2.45a1.11,1.11,0,0,0-.54-.14.45.45,0,0,0-.23,0,.11.11,0,0,0-.08.1s0,.07.08.09l.27,0,.39.08a.65.65,0,0,1,.27.17.5.5,0,0,1,.11.34.54.54,0,0,1-.11.32.7.7,0,0,1-.32.22,1.52,1.52,0,0,1-.51.08A2.5,2.5,0,0,1,51.9,11.7Z"/><path class="cls-11" d="M55.13,10a.83.83,0,0,1,.25.65v1.06h-.62v-.25a.57.57,0,0,1-.56.28.93.93,0,0,1-.39-.08.61.61,0,0,1-.24-.21.55.55,0,0,1-.08-.29.49.49,0,0,1,.21-.42,1.06,1.06,0,0,1,.63-.15h.38c0-.2-.15-.3-.4-.3a.86.86,0,0,0-.52.16L53.57,10A1.21,1.21,0,0,1,54,9.85a1.76,1.76,0,0,1,.46-.06A1.05,1.05,0,0,1,55.13,10Zm-.55,1.26a.3.3,0,0,0,.13-.16v-.17h-.29c-.19,0-.29.07-.29.2a.16.16,0,0,0,.07.14.3.3,0,0,0,.18.05A.32.32,0,0,0,54.58,11.27Z"/><path class="cls-11" d="M57.77,9.82l-.82,2a1.21,1.21,0,0,1-.35.49.93.93,0,0,1-.51.14,1,1,0,0,1-.3,0,.83.83,0,0,1-.25-.12l.23-.47a.39.39,0,0,0,.14.08.41.41,0,0,0,.16,0,.33.33,0,0,0,.15,0,.36.36,0,0,0,.11-.13l-.82-1.92h.69L56.66,11l.47-1.16Z"/><path class="cls-11" d="M59,9.27h.69v2.45H59Z"/><path class="cls-11" d="M61.19,9.27h.7v1.9h1.16v.55H61.19Z"/><path class="cls-11" d="M63.7,11.62a.94.94,0,0,1-.39-.35.93.93,0,0,1-.13-.5,1,1,0,0,1,.13-.51,1,1,0,0,1,.39-.35,1.2,1.2,0,0,1,.55-.12,1.23,1.23,0,0,1,.55.12,1,1,0,0,1,.38.35,1,1,0,0,1,.14.51.94.94,0,0,1-.14.5.92.92,0,0,1-.38.35,1.12,1.12,0,0,1-.55.13A1.09,1.09,0,0,1,63.7,11.62Zm.83-.52a.51.51,0,0,0,0-.66.36.36,0,0,0-.28-.12.37.37,0,0,0-.29.12.55.55,0,0,0,0,.66.37.37,0,0,0,.29.12A.36.36,0,0,0,64.53,11.1Z"/><path class="cls-11" d="M67.58,9.82l-.79,1.9h-.68l-.78-1.9H66L66.46,11l.48-1.16Z"/><path class="cls-11" d="M69.63,10.94H68.25a.37.37,0,0,0,.16.22.48.48,0,0,0,.3.08.61.61,0,0,0,.24,0,.53.53,0,0,0,.2-.12l.35.36a1,1,0,0,1-.81.31,1.21,1.21,0,0,1-.58-.13.89.89,0,0,1-.39-.35.94.94,0,0,1-.14-.5.89.89,0,0,1,.51-.85,1,1,0,0,1,.53-.13,1.14,1.14,0,0,1,.52.12.84.84,0,0,1,.36.34,1,1,0,0,1,.14.52A1.33,1.33,0,0,0,69.63,10.94Zm-1.26-.59a.41.41,0,0,0-.13.24H69a.36.36,0,0,0-.13-.24.37.37,0,0,0-.25-.09A.37.37,0,0,0,68.37,10.35Z"/><path class="cls-11" d="M73.33,9.27v2.45h-.7v-1h-.94v1H71V9.27h.69v.92h.94V9.27Z"/><path class="cls-11" d="M75.31,10a.8.8,0,0,1,.25.65v1.06h-.62v-.25a.56.56,0,0,1-.56.28.92.92,0,0,1-.38-.08.5.5,0,0,1-.24-.21.47.47,0,0,1-.08-.29.48.48,0,0,1,.2-.42,1.1,1.1,0,0,1,.64-.15h.38c0-.2-.15-.3-.41-.3a.84.84,0,0,0-.27,0,.9.9,0,0,0-.24.12L73.76,10a1.21,1.21,0,0,1,.38-.16,1.74,1.74,0,0,1,.45-.06A1,1,0,0,1,75.31,10Zm-.54,1.26a.3.3,0,0,0,.13-.16v-.17h-.29c-.19,0-.29.07-.29.2a.16.16,0,0,0,.07.14.3.3,0,0,0,.18.05A.34.34,0,0,0,74.77,11.27Z"/><path class="cls-11" d="M76.41,11.62a.92.92,0,0,1-.38-.35.86.86,0,0,1-.14-.5.89.89,0,0,1,.14-.51,1,1,0,0,1,.38-.35A1.32,1.32,0,0,1,77,9.79a1.07,1.07,0,0,1,.55.14.78.78,0,0,1,.34.38l-.52.26a.41.41,0,0,0-.38-.25.38.38,0,0,0-.29.12.51.51,0,0,0,0,.66.38.38,0,0,0,.29.12.41.41,0,0,0,.38-.25l.52.26a.78.78,0,0,1-.34.38,1.07,1.07,0,0,1-.55.14A1.2,1.2,0,0,1,76.41,11.62Z"/><path class="cls-11" d="M79,11.05l-.19.2v.47h-.67V9.12h.67v1.36l.67-.66h.79l-.79.81.86,1.09H79.5Z"/><path class="cls-11" d="M80.82,11.47a1.14,1.14,0,0,1-.3-.84V9.27h.7v1.34c0,.39.15.58.46.58s.46-.19.46-.58V9.27h.68v1.36a1,1,0,0,1-1.15,1.14A1.18,1.18,0,0,1,80.82,11.47Z"/><path class="cls-11" d="M85,9.38a.84.84,0,0,1,.38.31.86.86,0,0,1,.13.48.82.82,0,0,1-.13.48A.86.86,0,0,1,85,11a1.43,1.43,0,0,1-.58.11H84v.64h-.7V9.27h1.12A1.43,1.43,0,0,1,85,9.38Zm-.3,1.06a.31.31,0,0,0,.11-.27.3.3,0,0,0-.11-.26.49.49,0,0,0-.32-.1H84v.72h.38A.49.49,0,0,0,84.69,10.44Z"/><path class="cls-11" d="M86.4,11.61a1.25,1.25,0,0,1-.48-.46,1.35,1.35,0,0,1,0-1.31,1.25,1.25,0,0,1,.48-.46,1.46,1.46,0,0,1,.69-.16,1.48,1.48,0,0,1,.61.12,1.17,1.17,0,0,1,.45.34l-.44.4a.73.73,0,0,0-.58-.29.68.68,0,0,0-.35.09.6.6,0,0,0-.25.25.83.83,0,0,0-.08.36.87.87,0,0,0,.08.37.6.6,0,0,0,.25.25.78.78,0,0,0,.35.08.72.72,0,0,0,.58-.28l.44.4a1.28,1.28,0,0,1-.45.34,1.48,1.48,0,0,1-.61.12A1.59,1.59,0,0,1,86.4,11.61Z"/><path class="cls-11" d="M14.56,16.52h2v.41h-2Z"/><path class="cls-11" d="M16.56,16.52h2v.41h-2Z"/><path class="cls-11" d="M18.56,16.52h2v.41h-2Z"/><path class="cls-11" d="M20.56,16.52h2v.41h-2Z"/><path class="cls-11" d="M22.56,16.52h2v.41h-2Z"/><path class="cls-11" d="M24.56,16.52h2v.41h-2Z"/><path class="cls-11" d="M26.56,16.52h2v.41h-2Z"/><path class="cls-11" d="M28.56,16.52h2v.41h-2Z"/><path class="cls-11" d="M30.56,16.52h2v.41h-2Z"/><path class="cls-11" d="M32.56,16.52h2v.41h-2Z"/><path class="cls-11" d="M34.56,16.52h2v.41h-2Z"/><path class="cls-11" d="M36.56,16.52h2v.41h-2Z"/><path class="cls-11" d="M38.56,16.52h2v.41h-2Z"/><path class="cls-11" d="M40.56,16.52h2v.41h-2Z"/><path class="cls-11" d="M42.56,16.52h2v.41h-2Z"/><path class="cls-11" d="M44.56,16.52h2v.41h-2Z"/><path class="cls-11" d="M13.27,19.47,12,19.92l1.28.45V21l-2-.72v-.62l2-.73Z"/><path class="cls-11" d="M15,18.52h.79v2.8H15Z"/><path class="cls-11" d="M17.47,18.52h.79v2.17h1.33v.63H17.47Z"/><path class="cls-11" d="M20.32,21.21a1.14,1.14,0,0,1-.44-.4,1.11,1.11,0,0,1-.15-.58,1.14,1.14,0,0,1,.15-.58,1,1,0,0,1,.44-.39,1.28,1.28,0,0,1,.63-.15,1.33,1.33,0,0,1,.63.15,1,1,0,0,1,.44.39,1.2,1.2,0,0,1,0,1.16,1.14,1.14,0,0,1-.44.4,1.49,1.49,0,0,1-1.26,0Zm1-.6a.62.62,0,0,0,0-.76.48.48,0,0,0-.66,0,.62.62,0,0,0,0,.76.46.46,0,0,0,.66,0Z"/><path class="cls-11" d="M24.75,19.15l-.9,2.17h-.78l-.89-2.17H23l.52,1.32L24,19.15Z"/><path class="cls-11" d="M27.09,20.43H25.51a.48.48,0,0,0,.19.25.63.63,0,0,0,.35.09.77.77,0,0,0,.27,0,1.18,1.18,0,0,0,.23-.14L27,21a1.18,1.18,0,0,1-.93.35,1.46,1.46,0,0,1-.67-.14,1.07,1.07,0,0,1-.44-.4,1,1,0,0,1-.16-.58,1.06,1.06,0,0,1,.58-1,1.23,1.23,0,0,1,.61-.15,1.28,1.28,0,0,1,.59.14,1.05,1.05,0,0,1,.42.39,1.16,1.16,0,0,1,.15.6S27.1,20.31,27.09,20.43Zm-1.44-.68a.45.45,0,0,0-.15.28h.89a.45.45,0,0,0-.15-.28.48.48,0,0,0-.29-.1A.49.49,0,0,0,25.65,19.75Z"/><path class="cls-11" d="M31.32,18.52v2.8h-.79V20.23H29.45v1.09h-.8v-2.8h.8v1.05h1.08V18.52Z"/><path class="cls-11" d="M33.59,19.36a.92.92,0,0,1,.28.75v1.21h-.7V21a.66.66,0,0,1-.64.31,1.15,1.15,0,0,1-.44-.08.61.61,0,0,1-.37-.58.56.56,0,0,1,.23-.48,1.21,1.21,0,0,1,.73-.17h.43c0-.23-.16-.35-.46-.35a1.12,1.12,0,0,0-.31,0,.86.86,0,0,0-.27.14l-.26-.51a1.36,1.36,0,0,1,.44-.19,2.25,2.25,0,0,1,.52-.07A1.24,1.24,0,0,1,33.59,19.36ZM33,20.81a.34.34,0,0,0,.14-.19v-.19h-.32c-.23,0-.34.08-.34.22a.19.19,0,0,0,.08.16.33.33,0,0,0,.21.06A.44.44,0,0,0,33,20.81Z"/><path class="cls-11" d="M34.85,21.21a1.07,1.07,0,0,1-.44-.4,1.13,1.13,0,0,1,0-1.16,1,1,0,0,1,.44-.39,1.34,1.34,0,0,1,.64-.15,1.29,1.29,0,0,1,.64.16.9.9,0,0,1,.38.44l-.59.3a.47.47,0,0,0-.43-.29.45.45,0,0,0-.34.13.62.62,0,0,0,0,.76.46.46,0,0,0,.34.14.47.47,0,0,0,.43-.29l.59.3a1,1,0,0,1-.38.44,1.29,1.29,0,0,1-.64.15A1.34,1.34,0,0,1,34.85,21.21Z"/><path class="cls-11" d="M37.77,20.56l-.22.23v.53h-.76v-3h.76v1.56l.77-.76h.91l-.91.93,1,1.24h-.92Z"/><path class="cls-11" d="M39.89,21a1.26,1.26,0,0,1-.34-1V18.52h.79v1.53c0,.44.17.67.53.67s.53-.23.53-.67V18.52h.78v1.55a1.27,1.27,0,0,1-.35,1,1.3,1.3,0,0,1-1,.34A1.32,1.32,0,0,1,39.89,21Z"/><path class="cls-11" d="M44.65,18.64a1.13,1.13,0,0,1,.44.36,1,1,0,0,1,.15.55.93.93,0,0,1-.59.91,1.62,1.62,0,0,1-.66.13h-.48v.73h-.8v-2.8H44A1.62,1.62,0,0,1,44.65,18.64Zm-.34,1.22a.37.37,0,0,0,.13-.31.35.35,0,0,0-.13-.3.53.53,0,0,0-.36-.11h-.44V20H44A.53.53,0,0,0,44.31,19.86Z"/><path class="cls-11" d="M46.27,21.19a1.38,1.38,0,0,1-.55-.52,1.51,1.51,0,0,1,0-1.5,1.26,1.26,0,0,1,.55-.52,1.57,1.57,0,0,1,.79-.19,1.74,1.74,0,0,1,.69.14,1.32,1.32,0,0,1,.51.39l-.5.46a.82.82,0,0,0-.66-.33.8.8,0,0,0-.41.1.61.61,0,0,0-.27.28.82.82,0,0,0-.1.42.84.84,0,0,0,.1.42.66.66,0,0,0,.27.28.92.92,0,0,0,.41.1.82.82,0,0,0,.66-.33l.5.46a1.32,1.32,0,0,1-.51.39,1.73,1.73,0,0,1-.69.13A1.67,1.67,0,0,1,46.27,21.19Z"/><path class="cls-11" d="M51.7,19.61v.62l-2,.72v-.58L51,19.92l-1.28-.45v-.59Z"/><path class="cls-11" d="M14.75,24.69h1.17v.58H14.75Z"/><path class="cls-11" d="M16.33,24.69H17.5v.58H16.33Z"/><path class="cls-11" d="M17.92,24.69h1.17v.58H17.92Z"/><path class="cls-11" d="M19.5,24.69h1.17v.58H19.5Z"/><path class="cls-11" d="M21.09,24.69h1.16v.58H21.09Z"/><path class="cls-11" d="M22.67,24.69h1.17v.58H22.67Z"/><path class="cls-11" d="M24.25,24.69h1.17v.58H24.25Z"/><path class="cls-11" d="M25.84,24.69H27v.58H25.84Z"/><path class="cls-11" d="M27.42,24.69h1.17v.58H27.42Z"/><path class="cls-11" d="M29,24.69h1.17v.58H29Z"/><path class="cls-11" d="M30.59,24.69h1.17v.58H30.59Z"/><path class="cls-11" d="M32.17,24.69h1.17v.58H32.17Z"/><path class="cls-11" d="M33.76,24.69h1.16v.58H33.76Z"/><path class="cls-11" d="M35.34,24.69h1.17v.58H35.34Z"/><path class="cls-11" d="M36.92,24.69h1.17v.58H36.92Z"/><path class="cls-11" d="M38.51,24.69h1.17v.58H38.51Z"/><path class="cls-11" d="M40.09,24.69h1.17v.58H40.09Z"/><path class="cls-11" d="M41.68,24.69h1.16v.58H41.68Z"/><path class="cls-11" d="M43.26,24.69h1.17v.58H43.26Z"/><path class="cls-11" d="M44.84,24.69H46v.58H44.84Z"/><path class="cls-11" d="M21.51,31.32l-1.32-3.77h.67l1.33,3.77Z"/><path class="cls-11" d="M27.2,30.36l-.45-1.1-.46,1.1h-.57l.73-1.68h.6l.73,1.68Z"/><path class="cls-11" d="M28,30.92h2v.41H28Z"/><path class="cls-11" d="M30,30.92h2v.41H30Z"/><path class="cls-11" d="M33.64,30.36l-.45-1.1-.46,1.1h-.57l.73-1.68h.6l.73,1.68Z"/><path class="cls-11" d="M22.67,36.12l-1.32-3.77H22l1.32,3.77Z"/><path class="cls-11" d="M25.9,35.65a3.77,3.77,0,0,1-.13-1,3.83,3.83,0,0,1,.13-1,2.94,2.94,0,0,1,.38-.84H27a4.1,4.1,0,0,0-.38.91,3.83,3.83,0,0,0-.12,1,3.71,3.71,0,0,0,.12,1,3.92,3.92,0,0,0,.38.91h-.73A2.94,2.94,0,0,1,25.9,35.65Z"/><path class="cls-11" d="M27.71,35.61a1.14,1.14,0,0,1-.44-.4,1.12,1.12,0,0,1-.16-.58,1.18,1.18,0,0,1,.16-.58,1,1,0,0,1,.44-.39,1.28,1.28,0,0,1,.63-.15,1.33,1.33,0,0,1,.63.15,1,1,0,0,1,.44.39,1.2,1.2,0,0,1,0,1.16,1.14,1.14,0,0,1-.44.4,1.49,1.49,0,0,1-1.26,0Zm1-.6a.56.56,0,0,0,.12-.38.58.58,0,0,0-.12-.38.44.44,0,0,0-.33-.13.42.42,0,0,0-.33.13.53.53,0,0,0-.13.38A.52.52,0,0,0,28,35a.42.42,0,0,0,.33.14A.45.45,0,0,0,28.67,35Z"/><path class="cls-11" d="M30.37,35.61a1.21,1.21,0,0,1-.44-.4,1.11,1.11,0,0,1-.15-.58,1.17,1.17,0,0,1,.15-.58,1.1,1.1,0,0,1,.44-.39,1.33,1.33,0,0,1,.63-.15,1.28,1.28,0,0,1,.63.15,1,1,0,0,1,.44.39,1.2,1.2,0,0,1,0,1.16,1.14,1.14,0,0,1-.44.4,1.27,1.27,0,0,1-.63.14A1.33,1.33,0,0,1,30.37,35.61Zm1-.6a.56.56,0,0,0,.13-.38.58.58,0,0,0-.13-.38.48.48,0,0,0-.66,0,.58.58,0,0,0-.13.38.56.56,0,0,0,.13.38.46.46,0,0,0,.66,0Z"/><path class="cls-11" d="M32.32,36.49a3.53,3.53,0,0,0,.38-.91,3.71,3.71,0,0,0,.12-1,3.83,3.83,0,0,0-.12-1,3.68,3.68,0,0,0-.38-.91h.73a2.48,2.48,0,0,1,.38.84,3.82,3.82,0,0,1,.14,1,3.77,3.77,0,0,1-.14,1,2.48,2.48,0,0,1-.38.84Z"/><path class="cls-11" d="M34.94,36.12l-1.32-3.77h.68l1.32,3.77Z"/><path class="cls-11" d="M36,35.72h2v.41H36Z"/><path class="cls-11" d="M38,35.72h2v.41H38Z"/><path class="cls-11" d="M40,35.72h2v.41H40Z"/><path class="cls-11" d="M42,35.72h2v.41H42Z"/><path class="cls-11" d="M44,35.72h2v.41H44Z"/><path class="cls-11" d="M46,35.72h2v.41H46Z"/><path class="cls-11" d="M48,35.72h2v.41H48Z"/><path class="cls-11" d="M26.57,40.45a3.77,3.77,0,0,1-.13-1,3.83,3.83,0,0,1,.13-1,2.94,2.94,0,0,1,.38-.84h.73a4.1,4.1,0,0,0-.38.91,3.83,3.83,0,0,0-.12,1,3.71,3.71,0,0,0,.12,1,3.92,3.92,0,0,0,.38.91H27A2.94,2.94,0,0,1,26.57,40.45Z"/><path class="cls-11" d="M27.7,40.52h2v.41h-2Z"/><path class="cls-11" d="M29.7,40.52h2v.41h-2Z"/><path class="cls-11" d="M31.73,41.29a3.92,3.92,0,0,0,.38-.91,3.71,3.71,0,0,0,.12-1,3.83,3.83,0,0,0-.12-1,4.1,4.1,0,0,0-.38-.91h.73a2.94,2.94,0,0,1,.38.84,3.83,3.83,0,0,1,.13,1,3.77,3.77,0,0,1-.13,1,2.94,2.94,0,0,1-.38.84Z"/><path class="cls-11" d="M34.34,40.92,33,37.15h.68L35,40.92Z"/><path class="cls-11" d="M51.16,41.29a3.92,3.92,0,0,0,.38-.91,3.71,3.71,0,0,0,.12-1,3.83,3.83,0,0,0-.12-1,4.1,4.1,0,0,0-.38-.91h.73a2.94,2.94,0,0,1,.38.84,3.83,3.83,0,0,1,.13,1,3.77,3.77,0,0,1-.13,1,2.94,2.94,0,0,1-.38.84Z"/><path class="cls-11" d="M53.78,40.92l-1.32-3.77h.67l1.32,3.77Z"/><path class="cls-11" d="M55.49,37.15h.67l-1.32,3.77h-.67Z"/><path class="cls-11" d="M57.13,40.92l-1.32-3.77h.68l1.32,3.77Z"/><path class="cls-11" d="M30,42.35h.69v3.74H30Z"/><path class="cls-11" d="M31.22,42.35h.7v3.74h-.7Z"/><path class="cls-11" d="M32.39,43.89h1.17v.58H32.39Z"/><path class="cls-11" d="M34,43.89h1.16v.58H34Z"/><path class="cls-11" d="M35.56,43.89h1.17v.58H35.56Z"/><path class="cls-11" d="M37.14,43.89h1.17v.58H37.14Z"/><path class="cls-11" d="M38.73,43.89H39.9v.58H38.73Z"/><path class="cls-11" d="M40.31,43.89h1.17v.58H40.31Z"/><path class="cls-11" d="M41.9,43.89h1.16v.58H41.9Z"/><path class="cls-11" d="M43.48,43.89h1.17v.58H43.48Z"/><path class="cls-11" d="M45.06,43.89h1.17v.58H45.06Z"/><path class="cls-11" d="M50.19,43.15l-.77,2.17h-.74l-.41-1.18-.42,1.18h-.74l-.77-2.17h.72l.44,1.31L48,43.15h.65l.45,1.32.46-1.32Z"/><path class="cls-11" d="M51.62,42.35h.7v3.74h-.7Z"/><path class="cls-11" d="M30,47.15h.69v3.74H30Z"/><path class="cls-11" d="M31.22,47.15h.7v3.74h-.7Z"/><path class="cls-11" d="M49.94,47.15h.7v3.74h-.7Z"/><path class="cls-11" d="M51.2,47.15h.69v3.74H51.2Z"/></g></g></g></g></g></svg>