<svg xmlns="http://www.w3.org/2000/svg" viewBox="0 0 216.53 98.25"><defs><clipPath id="a"><path d="M131.21 14.81h56.31v32.7h-56.31z" fill="none"/></clipPath><clipPath id="t"><path d="M75.41 13.63h11.25v1.25H75.41z" fill="none"/></clipPath><clipPath id="b"><path d="M133.01 16.47h1.44v1.44h-1.44z" fill="none"/></clipPath><clipPath id="c"><path d="M135.46 16.47h1.44v1.44h-1.44z" fill="none"/></clipPath><clipPath id="d"><path d="M138.05 16.47h1.44v1.44h-1.44z" fill="none"/></clipPath><clipPath id="e"><path d="M134.36 20.94h18.72v1.73h-18.72z" fill="none"/></clipPath><clipPath id="f"><path d="M173.25 20.94h9.79v1.73h-9.79z" fill="none"/></clipPath><clipPath id="g"><path d="M155.39 20.94h15.54v1.73h-15.54z" fill="none"/></clipPath><clipPath id="h"><path d="M134.36 24.92h35.17v1.73h-35.17z" fill="none"/></clipPath><clipPath id="i"><path d="M134.36 28.99h29.78v1.64h-29.78z" fill="none"/></clipPath><clipPath id="j"><path d="M166.4 28.91h15.13v1.73H166.4z" fill="none"/></clipPath><clipPath id="k"><path d="M134.36 32.89h18.72v1.73h-18.72z" fill="none"/></clipPath><clipPath id="l"><path d="M173.25 32.89h9.79v1.73h-9.79z" fill="none"/></clipPath><clipPath id="m"><path d="M134.36 36.87h48.7v1.73h-48.7z" fill="none"/></clipPath><clipPath id="n"><path d="M57.92 9.2h40.74v23.65H57.92z" fill="none"/></clipPath><clipPath id="o"><path d="M59.23 10.4h1.04v1.04h-1.04z" fill="none"/></clipPath><clipPath id="p"><path d="M61 10.4h1.04v1.04H61z" fill="none"/></clipPath><clipPath id="q"><path d="M62.87 10.4h1.04v1.04h-1.04z" fill="none"/></clipPath><clipPath id="r"><path d="M60.2 13.63h13.55v1.25H60.2z" fill="none"/></clipPath><clipPath id="s"><path d="M88.33 13.63h7.09v1.25h-7.09z" fill="none"/></clipPath><clipPath id="M"><path d="M13.5 42.67h35.23v1.25H13.5z" fill="none"/></clipPath><clipPath id="u"><path d="M60.2 16.51h25.44v1.25H60.2z" fill="none"/></clipPath><clipPath id="v"><path d="M60.2 19.46h21.54v1.19H60.2z" fill="none"/></clipPath><clipPath id="w"><path d="M83.38 19.39h10.94v1.25H83.38z" fill="none"/></clipPath><clipPath id="x"><path d="M60.2 22.27h13.55v1.25H60.2z" fill="none"/></clipPath><clipPath id="y"><path d="M88.33 22.27h7.09v1.25h-7.09z" fill="none"/></clipPath><clipPath id="z"><path d="M60.2 25.16h35.23v1.25H60.2z" fill="none"/></clipPath><clipPath id="A"><path d="M11.22 26.71h40.74v23.65H11.22z" fill="none"/></clipPath><clipPath id="B"><path d="M12.52 27.91h1.05v1.04h-1.05z" fill="none"/></clipPath><clipPath id="C"><path d="M14.29 27.91h1.05v1.04h-1.05z" fill="none"/></clipPath><clipPath id="D"><path d="M16.17 27.91h1.04v1.04h-1.04z" fill="none"/></clipPath><clipPath id="E"><path d="M13.5 31.14h13.54v1.25H13.5z" fill="none"/></clipPath><clipPath id="F"><path d="M41.63 31.14h7.08v1.25h-7.08z" fill="none"/></clipPath><clipPath id="G"><path d="M28.71 31.14h11.25v1.25H28.71z" fill="none"/></clipPath><clipPath id="H"><path d="M13.5 34.02h25.44v1.25H13.5z" fill="none"/></clipPath><clipPath id="I"><path d="M13.5 36.97h21.54v1.19H13.5z" fill="none"/></clipPath><clipPath id="J"><path d="M36.68 36.91h10.94v1.25H36.68z" fill="none"/></clipPath><clipPath id="K"><path d="M13.5 39.79h13.54v1.25H13.5z" fill="none"/></clipPath><clipPath id="L"><path d="M41.63 39.79h7.08v1.25h-7.08z" fill="none"/></clipPath></defs><path d="M216.17 64.55H106.94V4.11A4.13 4.13 0 0 1 111.06 0h102a3.12 3.12 0 0 1 3.11 3.11z" fill="#cdc8f4"/><path d="M197.15 75.49H19.72C9 75.49.34 70.56.34 64.47h216.19c0 6.09-8.68 11-19.38 11" fill="#aba2ea"/><path d="M97.53 75.49h19.82v16.49H97.53z" fill="#cdc8f4"/><path d="M97.53 75.49h19.82v5.23H97.53z" fill="#948fd8"/><path d="M130.35 98.25H84.53V96.5A4.53 4.53 0 0 1 89 92h36.79a4.53 4.53 0 0 1 4.52 4.52z" fill="#aba2ea"/><path d="M109.23 64.55H0V4.73A4.75 4.75 0 0 1 4.73 0h100.92a3.6 3.6 0 0 1 3.58 3.58z" fill="#cdc8f4"/><path d="M209.74 4.71h-96.51a1.72 1.72 0 0 0-1.71 1.71v50.19a1.72 1.72 0 0 0 1.71 1.71h96.51a1.72 1.72 0 0 0 1.71-1.71V6.42a1.72 1.72 0 0 0-1.71-1.71m-106.95 0H6.29a1.72 1.72 0 0 0-1.71 1.71v50.19a1.72 1.72 0 0 0 1.71 1.71h96.5a1.72 1.72 0 0 0 1.71-1.71V6.42a1.72 1.72 0 0 0-1.71-1.71" fill="#34256b"/><path d="M111.29 70.26a3.09 3.09 0 1 1-3.09-3.09 3.09 3.09 0 0 1 3.09 3.09" fill="#948fd8"/><g clip-path="url(#a)"><path d="M185 47.51h-51.24a2.55 2.55 0 0 1-2.55-2.51V17.37a2.56 2.56 0 0 1 2.55-2.56H185a2.56 2.56 0 0 1 2.56 2.56V45a2.56 2.56 0 0 1-2.56 2.51" fill="#4c3f7c"/></g><g clip-path="url(#b)"><path d="M134.45 17.19a.72.72 0 1 1-.72-.72.72.72 0 0 1 .72.72" fill="#f88993"/></g><g clip-path="url(#c)"><path d="M136.9 17.19a.72.72 0 1 1-.72-.72.72.72 0 0 1 .72.72" fill="#f6a163"/></g><g clip-path="url(#d)"><path d="M139.49 17.19a.72.72 0 1 1-.72-.72.72.72 0 0 1 .72.72" fill="#87e18f"/></g><g clip-path="url(#e)"><path d="M152.34 22.67H135.1a.74.74 0 0 1-.74-.74v-.25a.74.74 0 0 1 .74-.74h17.24a.74.74 0 0 1 .74.74v.25a.74.74 0 0 1-.74.74" fill="#fff"/></g><g clip-path="url(#f)"><path d="M182.3 22.67H174a.74.74 0 0 1-.74-.74v-.25a.74.74 0 0 1 .74-.74h8.31a.74.74 0 0 1 .74.74v.25a.74.74 0 0 1-.74.74" fill="#fff"/></g><g clip-path="url(#g)"><path d="M170.19 22.67h-14.06a.74.74 0 0 1-.74-.74v-.25a.74.74 0 0 1 .74-.74h14.06a.75.75 0 0 1 .75.74v.25a.75.75 0 0 1-.75.74" fill="#fff"/></g><g clip-path="url(#h)"><path d="M168.79 26.65H135.1a.74.74 0 0 1-.74-.74v-.25a.74.74 0 0 1 .74-.74h33.69a.74.74 0 0 1 .74.74v.25a.74.74 0 0 1-.74.74" fill="#fff"/></g><g clip-path="url(#i)"><path d="M163.44 30.63h-28.38a.7.7 0 0 1-.7-.7v-.23a.7.7 0 0 1 .7-.71h28.38a.71.71 0 0 1 .7.71v.23a.7.7 0 0 1-.7.7" fill="#fff"/></g><g clip-path="url(#j)"><path d="M180.79 30.63h-13.65a.74.74 0 0 1-.74-.74v-.24a.74.74 0 0 1 .74-.74h13.65a.74.74 0 0 1 .74.74v.24a.74.74 0 0 1-.74.74" fill="#fff"/></g><g clip-path="url(#k)"><path d="M152.34 34.62H135.1a.74.74 0 0 1-.74-.74v-.25a.74.74 0 0 1 .74-.74h17.24a.74.74 0 0 1 .74.74v.25a.74.74 0 0 1-.74.74" fill="#fff"/></g><g clip-path="url(#l)"><path d="M182.3 34.62H174a.74.74 0 0 1-.74-.74v-.25a.74.74 0 0 1 .74-.74h8.31a.74.74 0 0 1 .74.74v.25a.74.74 0 0 1-.74.74" fill="#fff"/></g><g clip-path="url(#m)"><path d="M152.34 38.6H135.1a.74.74 0 0 1-.74-.74v-.24a.75.75 0 0 1 .74-.75h17.24a.75.75 0 0 1 .74.75v.24a.74.74 0 0 1-.74.74m30.02 0h-25.49a.7.7 0 0 1-.7-.7v-.23a.7.7 0 0 1 .7-.71h25.49a.7.7 0 0 1 .7.71v.23a.7.7 0 0 1-.7.7" fill="#fff"/></g><g clip-path="url(#n)"><path d="M96.11 32.85H60.48a2.56 2.56 0 0 1-2.56-2.56V11.75a2.56 2.56 0 0 1 2.56-2.55h35.63a2.55 2.55 0 0 1 2.55 2.55v18.54a2.55 2.55 0 0 1-2.55 2.56" fill="#4c3f7c"/></g><g clip-path="url(#o)"><path d="M60.27 10.92a.52.52 0 1 1-.52-.52.52.52 0 0 1 .52.52" fill="#f88993"/></g><g clip-path="url(#p)"><path d="M62 10.92a.52.52 0 1 1-.52-.52.52.52 0 0 1 .52.52" fill="#f6a163"/></g><g clip-path="url(#q)"><path d="M63.92 10.92a.53.53 0 1 1-.52-.52.52.52 0 0 1 .52.52" fill="#87e18f"/></g><g clip-path="url(#r)"><path d="M73.21 14.88H60.74a.54.54 0 0 1-.54-.54v-.18a.54.54 0 0 1 .54-.53h12.47a.54.54 0 0 1 .54.53v.18a.54.54 0 0 1-.54.54" fill="#fff"/></g><g clip-path="url(#s)"><path d="M94.88 14.88h-6a.54.54 0 0 1-.54-.54v-.18a.54.54 0 0 1 .54-.53h6a.54.54 0 0 1 .54.53v.18a.54.54 0 0 1-.54.54" fill="#fff"/></g><g clip-path="url(#t)"><path d="M86.13 14.88H76a.54.54 0 0 1-.53-.54v-.18a.53.53 0 0 1 .53-.53h10.13a.53.53 0 0 1 .53.53v.18a.54.54 0 0 1-.53.54" fill="#fff"/></g><g clip-path="url(#u)"><path d="M85.11 17.76H60.74a.54.54 0 0 1-.54-.53v-.18a.54.54 0 0 1 .54-.54h24.37a.54.54 0 0 1 .53.54v.18a.53.53 0 0 1-.53.53" fill="#fff"/></g><g clip-path="url(#v)"><path d="M81.24 20.64H60.71a.51.51 0 0 1-.51-.51V20a.5.5 0 0 1 .51-.5h20.53a.5.5 0 0 1 .5.5v.17a.5.5 0 0 1-.5.51" fill="#fff"/></g><g clip-path="url(#w)"><path d="M93.79 20.64h-9.87a.54.54 0 0 1-.54-.53v-.18a.54.54 0 0 1 .54-.54h9.87a.54.54 0 0 1 .53.54v.18a.53.53 0 0 1-.53.53" fill="#fff"/></g><g clip-path="url(#x)"><path d="M73.21 23.53H60.74a.54.54 0 0 1-.54-.53v-.18a.54.54 0 0 1 .54-.54h12.47a.54.54 0 0 1 .54.54V23a.54.54 0 0 1-.54.54" fill="#fff"/></g><g clip-path="url(#y)"><path d="M94.88 23.53h-6a.54.54 0 0 1-.54-.54v-.18a.54.54 0 0 1 .54-.54h6a.54.54 0 0 1 .54.54V23a.54.54 0 0 1-.54.54" fill="#fff"/></g><g clip-path="url(#z)"><path d="M73.21 26.41H60.74a.54.54 0 0 1-.54-.54v-.18a.54.54 0 0 1 .54-.53h12.47a.54.54 0 0 1 .54.53v.18a.54.54 0 0 1-.54.54m21.71 0H76.49a.51.51 0 0 1-.49-.51v-.17a.51.51 0 0 1 .51-.51h18.41a.51.51 0 0 1 .51.51v.17a.51.51 0 0 1-.51.51" fill="#fff"/></g><g clip-path="url(#A)"><path d="M49.4 50.36H13.78a2.56 2.56 0 0 1-2.56-2.55V29.27a2.56 2.56 0 0 1 2.56-2.56H49.4a2.56 2.56 0 0 1 2.6 2.56v18.54a2.56 2.56 0 0 1-2.56 2.55" fill="#4c3f7c"/></g><g clip-path="url(#B)"><path d="M13.57 28.43a.53.53 0 1 1-.52-.52.52.52 0 0 1 .52.52" fill="#f88993"/></g><g clip-path="url(#C)"><path d="M15.34 28.43a.52.52 0 1 1-.52-.52.52.52 0 0 1 .52.52" fill="#f6a163"/></g><g clip-path="url(#D)"><path d="M17.21 28.43a.52.52 0 1 1-.52-.52.52.52 0 0 1 .52.52" fill="#87e18f"/></g><g clip-path="url(#E)"><path d="M26.51 32.39H14a.54.54 0 0 1-.54-.53v-.18a.54.54 0 0 1 .54-.54h12.51a.54.54 0 0 1 .54.54v.18a.54.54 0 0 1-.54.53" fill="#fff"/></g><g clip-path="url(#F)"><path d="M48.18 32.39h-6a.54.54 0 0 1-.54-.53v-.18a.54.54 0 0 1 .54-.54h6a.54.54 0 0 1 .54.54v.18a.54.54 0 0 1-.54.53" fill="#fff"/></g><g clip-path="url(#G)"><path d="M39.42 32.39H29.25a.54.54 0 0 1-.54-.53v-.18a.54.54 0 0 1 .54-.54h10.17a.54.54 0 0 1 .54.54v.18a.54.54 0 0 1-.54.53" fill="#fff"/></g><g clip-path="url(#H)"><path d="M38.41 35.28H14a.54.54 0 0 1-.54-.54v-.18A.54.54 0 0 1 14 34h24.41a.54.54 0 0 1 .53.54v.18a.54.54 0 0 1-.53.54" fill="#fff"/></g><g clip-path="url(#I)"><path d="M34.53 38.16H14a.51.51 0 0 1-.51-.51v-.17A.51.51 0 0 1 14 37h20.53a.51.51 0 0 1 .51.51v.17a.51.51 0 0 1-.51.51" fill="#fff"/></g><g clip-path="url(#J)"><path d="M47.08 38.16h-9.86a.54.54 0 0 1-.54-.54v-.18a.54.54 0 0 1 .54-.53h9.86a.54.54 0 0 1 .54.53v.18a.54.54 0 0 1-.54.54" fill="#fff"/></g><g clip-path="url(#K)"><path d="M26.51 41H14a.54.54 0 0 1-.54-.54v-.18a.54.54 0 0 1 .54-.53h12.51a.54.54 0 0 1 .54.53v.18a.54.54 0 0 1-.54.54" fill="#fff"/></g><g clip-path="url(#L)"><path d="M48.18 41h-6a.54.54 0 0 1-.54-.54v-.18a.54.54 0 0 1 .54-.53h6a.54.54 0 0 1 .54.53v.18a.54.54 0 0 1-.54.54" fill="#fff"/></g><g clip-path="url(#M)"><path d="M26.51 43.92H14a.54.54 0 0 1-.54-.54v-.18a.54.54 0 0 1 .54-.53h12.51a.54.54 0 0 1 .54.53v.18a.54.54 0 0 1-.54.54m21.71 0H29.79a.51.51 0 0 1-.51-.51v-.17a.51.51 0 0 1 .51-.51h18.43a.51.51 0 0 1 .51.51v.17a.51.51 0 0 1-.51.51" fill="#fff"/></g></svg>
