<svg xmlns="http://www.w3.org/2000/svg" viewBox="0 0 110.66 98.38"><g data-name="Capa 2"><g data-name="3D"><g data-name="complementos mesas"><g data-name="pc frontal izquierdo"><path d="M110.66 65.39H0V4.11A4.12 4.12 0 014.11 0h103.43a3.13 3.13 0 013.12 3.11z" fill="#cdc8f4"/><path d="M100.74 75.31H9.92A9.92 9.92 0 010 65.39h110.66a9.92 9.92 0 01-9.92 9.92" fill="#aba2ea"/><path d="M45.22 75.31H65.3v16.71H45.22z" fill="#cdc8f4"/><path d="M45.22 75.31H65.3v5.3H45.22z" fill="#948fd8"/><path d="M78.47 98.38H32.05v-1.84A4.53 4.53 0 0136.56 92H74a4.53 4.53 0 014.52 4.52z" fill="#aba2ea"/><path d="M58 70a3.13 3.13 0 11-3.13-3.13A3.13 3.13 0 0158 70" fill="#948fd8"/><path d="M105.27 2.8H5.31a1.81 1.81 0 00-1.77 1.84v54.08a1.82 1.82 0 001.77 1.85h100a1.82 1.82 0 001.78-1.85V4.64a1.82 1.82 0 00-1.78-1.84" fill="#34256b"/><path stroke-width=".75" fill="none" stroke="#fff" stroke-miterlimit="10" d="M25.9 39l12.17-16.93L62.9 17l18 14-25.07 6.42"/><path d="M37.4 20.91h2.5v2.5h-2.5zm-13 17h2.5v2.5h-2.5zm37-22h2.5v2.5h-2.5zm18 14h2.5v2.5h-2.5z" fill="#fff"/><path d="M60.11 41.58l-1.38-1.38 1-.57a.23.23 0 00.11-.22.23.23 0 00-.14-.2l-4.4-1.75a.25.25 0 00-.25 0 .22.22 0 000 .25l1.75 4.4a.26.26 0 00.2.15.25.25 0 00.22-.12l.57-1 1.38 1.39a.24.24 0 00.17.06.23.23 0 00.16-.06l.67-.68a.24.24 0 000-.33" fill="#1e120d"/><path d="M60.11 41.58l-1.38-1.38 1-.57a.23.23 0 00.11-.22.23.23 0 00-.14-.2l-4.4-1.75a.25.25 0 00-.25 0 .22.22 0 000 .25l1.75 4.4a.26.26 0 00.2.15.25.25 0 00.22-.12l.57-1 1.38 1.39a.24.24 0 00.17.06.23.23 0 00.16-.06l.67-.68a.24.24 0 00-.06-.27z" stroke-width=".5" fill="none" stroke="#fff" stroke-miterlimit="10"/></g></g></g></g></svg>