<svg xmlns="http://www.w3.org/2000/svg" viewBox="0 0 216.53 98.25"><defs><clipPath id="clip-path"><path d="M131.21 14.81h56.31v32.7h-56.31z" fill="none"/></clipPath><clipPath id="clip-path-20"><path d="M75.41 13.63h11.25v1.25H75.41z" fill="none"/></clipPath><clipPath id="clip-path-2"><path d="M133.01 16.47h1.44v1.44h-1.44z" fill="none"/></clipPath><clipPath id="clip-path-3"><path d="M135.46 16.47h1.44v1.44h-1.44z" fill="none"/></clipPath><clipPath id="clip-path-4"><path d="M138.05 16.47h1.44v1.44h-1.44z" fill="none"/></clipPath><clipPath id="clip-path-5"><path d="M134.36 20.94h18.72v1.73h-18.72z" fill="none"/></clipPath><clipPath id="clip-path-6"><path d="M173.25 20.94h9.79v1.73h-9.79z" fill="none"/></clipPath><clipPath id="clip-path-7"><path d="M155.39 20.94h15.54v1.73h-15.54z" fill="none"/></clipPath><clipPath id="clip-path-8"><path d="M134.36 24.92h35.17v1.73h-35.17z" fill="none"/></clipPath><clipPath id="clip-path-9"><path d="M134.36 28.99h29.78v1.64h-29.78z" fill="none"/></clipPath><clipPath id="clip-path-10"><path d="M166.4 28.91h15.13v1.73H166.4z" fill="none"/></clipPath><clipPath id="clip-path-11"><path d="M134.36 32.89h18.72v1.73h-18.72z" fill="none"/></clipPath><clipPath id="clip-path-12"><path d="M173.25 32.89h9.79v1.73h-9.79z" fill="none"/></clipPath><clipPath id="clip-path-13"><path d="M134.36 36.87h48.7v1.73h-48.7z" fill="none"/></clipPath><clipPath id="clip-path-14"><path d="M57.92 9.2h40.74v23.65H57.92z" fill="none"/></clipPath><clipPath id="clip-path-15"><path d="M59.23 10.4h1.04v1.04h-1.04z" fill="none"/></clipPath><clipPath id="clip-path-16"><path d="M61 10.4h1.04v1.04H61z" fill="none"/></clipPath><clipPath id="clip-path-17"><path d="M62.87 10.4h1.04v1.04h-1.04z" fill="none"/></clipPath><clipPath id="clip-path-18"><path d="M60.2 13.63h13.55v1.25H60.2z" fill="none"/></clipPath><clipPath id="clip-path-19"><path d="M88.33 13.63h7.09v1.25h-7.09z" fill="none"/></clipPath><clipPath id="clip-path-39"><path d="M13.5 42.67h35.23v1.25H13.5z" fill="none"/></clipPath><clipPath id="clip-path-21"><path d="M60.2 16.51h25.44v1.25H60.2z" fill="none"/></clipPath><clipPath id="clip-path-22"><path d="M60.2 19.46h21.54v1.19H60.2z" fill="none"/></clipPath><clipPath id="clip-path-23"><path d="M83.38 19.39h10.94v1.25H83.38z" fill="none"/></clipPath><clipPath id="clip-path-24"><path d="M60.2 22.27h13.55v1.25H60.2z" fill="none"/></clipPath><clipPath id="clip-path-25"><path d="M88.33 22.27h7.09v1.25h-7.09z" fill="none"/></clipPath><clipPath id="clip-path-26"><path d="M60.2 25.16h35.23v1.25H60.2z" fill="none"/></clipPath><clipPath id="clip-path-27"><path d="M11.22 26.71h40.74v23.65H11.22z" fill="none"/></clipPath><clipPath id="clip-path-28"><path d="M12.52 27.91h1.05v1.04h-1.05z" fill="none"/></clipPath><clipPath id="clip-path-29"><path d="M14.29 27.91h1.05v1.04h-1.05z" fill="none"/></clipPath><clipPath id="clip-path-30"><path d="M16.17 27.91h1.04v1.04h-1.04z" fill="none"/></clipPath><clipPath id="clip-path-31"><path d="M13.5 31.14h13.54v1.25H13.5z" fill="none"/></clipPath><clipPath id="clip-path-32"><path d="M41.63 31.14h7.08v1.25h-7.08z" fill="none"/></clipPath><clipPath id="clip-path-33"><path d="M28.71 31.14h11.25v1.25H28.71z" fill="none"/></clipPath><clipPath id="clip-path-34"><path d="M13.5 34.02h25.44v1.25H13.5z" fill="none"/></clipPath><clipPath id="clip-path-35"><path d="M13.5 36.97h21.54v1.19H13.5z" fill="none"/></clipPath><clipPath id="clip-path-36"><path d="M36.68 36.91h10.94v1.25H36.68z" fill="none"/></clipPath><clipPath id="clip-path-37"><path d="M13.5 39.79h13.54v1.25H13.5z" fill="none"/></clipPath><clipPath id="clip-path-38"><path d="M41.63 39.79h7.08v1.25h-7.08z" fill="none"/></clipPath><style></style></defs><g id="Capa_2" data-name="Capa 2"><g id="mesas"><g id="_3D" data-name="3D"><g id="complementos_mesas" data-name="complementos mesas"><g id="pc_frontal_derecho" data-name="pc frontal derecho"><path d="M216.17 64.55H106.94V4.11A4.13 4.13 0 01111.06 0h102a3.12 3.12 0 013.11 3.11z" fill="#cdc8f4"/><path d="M197.15 75.49H19.72C9 75.49.34 70.56.34 64.47h216.19c0 6.09-8.68 11-19.38 11" fill="#aba2ea"/><path d="M97.53 75.49h19.82v16.49H97.53z" fill="#cdc8f4"/><path d="M97.53 75.49h19.82v5.23H97.53z" fill="#948fd8"/><path d="M130.35 98.25H84.53V96.5A4.53 4.53 0 0189 92h36.79a4.53 4.53 0 014.52 4.52z" fill="#aba2ea"/><path d="M109.23 64.55H0V4.73A4.75 4.75 0 014.73 0h100.92a3.6 3.6 0 013.58 3.58z" fill="#cdc8f4"/><path d="M209.74 4.71h-96.51a1.72 1.72 0 00-1.71 1.71v50.19a1.72 1.72 0 001.71 1.71h96.51a1.72 1.72 0 001.71-1.71V6.42a1.72 1.72 0 00-1.71-1.71m-106.95 0H6.29a1.72 1.72 0 00-1.71 1.71v50.19a1.72 1.72 0 001.71 1.71h96.5a1.72 1.72 0 001.71-1.71V6.42a1.72 1.72 0 00-1.71-1.71" fill="#34256b"/><path d="M111.29 70.26a3.09 3.09 0 11-3.09-3.09 3.09 3.09 0 013.09 3.09" fill="#948fd8"/><g clip-path="url(#clip-path)"><path d="M185 47.51h-51.24a2.55 2.55 0 01-2.55-2.51V17.37a2.56 2.56 0 012.55-2.56H185a2.56 2.56 0 012.56 2.56V45a2.56 2.56 0 01-2.56 2.51" fill="#fff"/></g><g clip-path="url(#clip-path-2)"><path d="M134.45 17.19a.72.72 0 11-.72-.72.72.72 0 01.72.72" fill="#f88993"/></g><g clip-path="url(#clip-path-3)"><path d="M136.9 17.19a.72.72 0 11-.72-.72.72.72 0 01.72.72" fill="#f6a163"/></g><g clip-path="url(#clip-path-4)"><path d="M139.49 17.19a.72.72 0 11-.72-.72.72.72 0 01.72.72" fill="#87e18f"/></g><g clip-path="url(#clip-path-5)"><path d="M152.34 22.67H135.1a.74.74 0 01-.74-.74v-.25a.74.74 0 01.74-.74h17.24a.74.74 0 01.74.74v.25a.74.74 0 01-.74.74" fill="#fff"/></g><g clip-path="url(#clip-path-6)"><path d="M182.3 22.67H174a.74.74 0 01-.74-.74v-.25a.74.74 0 01.74-.74h8.31a.74.74 0 01.74.74v.25a.74.74 0 01-.74.74" fill="#fff"/></g><g clip-path="url(#clip-path-7)"><path d="M170.19 22.67h-14.06a.74.74 0 01-.74-.74v-.25a.74.74 0 01.74-.74h14.06a.75.75 0 01.75.74v.25a.75.75 0 01-.75.74" fill="#fff"/></g><g clip-path="url(#clip-path-8)"><path d="M168.79 26.65H135.1a.74.74 0 01-.74-.74v-.25a.74.74 0 01.74-.74h33.69a.74.74 0 01.74.74v.25a.74.74 0 01-.74.74" fill="#fff"/></g><g clip-path="url(#clip-path-9)"><path d="M163.44 30.63h-28.38a.7.7 0 01-.7-.7v-.23a.7.7 0 01.7-.71h28.38a.71.71 0 01.7.71v.23a.7.7 0 01-.7.7" fill="#fff"/></g><g clip-path="url(#clip-path-10)"><path d="M180.79 30.63h-13.65a.74.74 0 01-.74-.74v-.24a.74.74 0 01.74-.74h13.65a.74.74 0 01.74.74v.24a.74.74 0 01-.74.74" fill="#fff"/></g><g clip-path="url(#clip-path-11)"><path d="M152.34 34.62H135.1a.74.74 0 01-.74-.74v-.25a.74.74 0 01.74-.74h17.24a.74.74 0 01.74.74v.25a.74.74 0 01-.74.74" fill="#fff"/></g><g clip-path="url(#clip-path-12)"><path d="M182.3 34.62H174a.74.74 0 01-.74-.74v-.25a.74.74 0 01.74-.74h8.31a.74.74 0 01.74.74v.25a.74.74 0 01-.74.74" fill="#fff"/></g><g clip-path="url(#clip-path-13)"><path d="M152.34 38.6H135.1a.74.74 0 01-.74-.74v-.24a.75.75 0 01.74-.75h17.24a.75.75 0 01.74.75v.24a.74.74 0 01-.74.74m30.02 0h-25.49a.7.7 0 01-.7-.7v-.23a.7.7 0 01.7-.71h25.49a.7.7 0 01.7.71v.23a.7.7 0 01-.7.7" fill="#fff"/></g><g clip-path="url(#clip-path-14)"><path d="M96.11 32.85H60.48a2.56 2.56 0 01-2.56-2.56V11.75a2.56 2.56 0 012.56-2.55h35.63a2.55 2.55 0 012.55 2.55v18.54a2.55 2.55 0 01-2.55 2.56" fill="#fff"/></g><g clip-path="url(#clip-path-15)"><path d="M60.27 10.92a.52.52 0 11-.52-.52.52.52 0 01.52.52" fill="#f88993"/></g><g clip-path="url(#clip-path-16)"><path d="M62 10.92a.52.52 0 11-.52-.52.52.52 0 01.52.52" fill="#f6a163"/></g><g clip-path="url(#clip-path-17)"><path d="M63.92 10.92a.53.53 0 11-.52-.52.52.52 0 01.52.52" fill="#87e18f"/></g><g clip-path="url(#clip-path-18)"><path d="M73.21 14.88H60.74a.54.54 0 01-.54-.54v-.18a.54.54 0 01.54-.53h12.47a.54.54 0 01.54.53v.18a.54.54 0 01-.54.54" fill="#fff"/></g><g clip-path="url(#clip-path-19)"><path d="M94.88 14.88h-6a.54.54 0 01-.54-.54v-.18a.54.54 0 01.54-.53h6a.54.54 0 01.54.53v.18a.54.54 0 01-.54.54" fill="#fff"/></g><g clip-path="url(#clip-path-20)"><path d="M86.13 14.88H76a.54.54 0 01-.53-.54v-.18a.53.53 0 01.53-.53h10.13a.53.53 0 01.53.53v.18a.54.54 0 01-.53.54" fill="#fff"/></g><g clip-path="url(#clip-path-21)"><path d="M85.11 17.76H60.74a.54.54 0 01-.54-.53v-.18a.54.54 0 01.54-.54h24.37a.54.54 0 01.53.54v.18a.53.53 0 01-.53.53" fill="#fff"/></g><g clip-path="url(#clip-path-22)"><path d="M81.24 20.64H60.71a.51.51 0 01-.51-.51V20a.5.5 0 01.51-.5h20.53a.5.5 0 01.5.5v.17a.5.5 0 01-.5.51" fill="#fff"/></g><g clip-path="url(#clip-path-23)"><path d="M93.79 20.64h-9.87a.54.54 0 01-.54-.53v-.18a.54.54 0 01.54-.54h9.87a.54.54 0 01.53.54v.18a.53.53 0 01-.53.53" fill="#fff"/></g><g clip-path="url(#clip-path-24)"><path d="M73.21 23.53H60.74a.54.54 0 01-.54-.53v-.18a.54.54 0 01.54-.54h12.47a.54.54 0 01.54.54V23a.54.54 0 01-.54.54" fill="#fff"/></g><g clip-path="url(#clip-path-25)"><path d="M94.88 23.53h-6a.54.54 0 01-.54-.54v-.18a.54.54 0 01.54-.54h6a.54.54 0 01.54.54V23a.54.54 0 01-.54.54" fill="#fff"/></g><g clip-path="url(#clip-path-26)"><path d="M73.21 26.41H60.74a.54.54 0 01-.54-.54v-.18a.54.54 0 01.54-.53h12.47a.54.54 0 01.54.53v.18a.54.54 0 01-.54.54m21.71 0H76.49a.51.51 0 01-.49-.51v-.17a.51.51 0 01.51-.51h18.41a.51.51 0 01.51.51v.17a.51.51 0 01-.51.51" fill="#fff"/></g><g clip-path="url(#clip-path-27)"><path d="M49.4 50.36H13.78a2.56 2.56 0 01-2.56-2.55V29.27a2.56 2.56 0 012.56-2.56H49.4a2.56 2.56 0 012.6 2.56v18.54a2.56 2.56 0 01-2.56 2.55" fill="#fff"/></g><g clip-path="url(#clip-path-28)"><path d="M13.57 28.43a.53.53 0 11-.52-.52.52.52 0 01.52.52" fill="#f88993"/></g><g clip-path="url(#clip-path-29)"><path d="M15.34 28.43a.52.52 0 11-.52-.52.52.52 0 01.52.52" fill="#f6a163"/></g><g clip-path="url(#clip-path-30)"><path d="M17.21 28.43a.52.52 0 11-.52-.52.52.52 0 01.52.52" fill="#87e18f"/></g><g clip-path="url(#clip-path-31)"><path d="M26.51 32.39H14a.54.54 0 01-.54-.53v-.18a.54.54 0 01.54-.54h12.51a.54.54 0 01.54.54v.18a.54.54 0 01-.54.53" fill="#fff"/></g><g clip-path="url(#clip-path-32)"><path d="M48.18 32.39h-6a.54.54 0 01-.54-.53v-.18a.54.54 0 01.54-.54h6a.54.54 0 01.54.54v.18a.54.54 0 01-.54.53" fill="#fff"/></g><g clip-path="url(#clip-path-33)"><path d="M39.42 32.39H29.25a.54.54 0 01-.54-.53v-.18a.54.54 0 01.54-.54h10.17a.54.54 0 01.54.54v.18a.54.54 0 01-.54.53" fill="#fff"/></g><g clip-path="url(#clip-path-34)"><path d="M38.41 35.28H14a.54.54 0 01-.54-.54v-.18A.54.54 0 0114 34h24.41a.54.54 0 01.53.54v.18a.54.54 0 01-.53.54" fill="#fff"/></g><g clip-path="url(#clip-path-35)"><path d="M34.53 38.16H14a.51.51 0 01-.51-.51v-.17A.51.51 0 0114 37h20.53a.51.51 0 01.51.51v.17a.51.51 0 01-.51.51" fill="#fff"/></g><g clip-path="url(#clip-path-36)"><path d="M47.08 38.16h-9.86a.54.54 0 01-.54-.54v-.18a.54.54 0 01.54-.53h9.86a.54.54 0 01.54.53v.18a.54.54 0 01-.54.54" fill="#fff"/></g><g clip-path="url(#clip-path-37)"><path d="M26.51 41H14a.54.54 0 01-.54-.54v-.18a.54.54 0 01.54-.53h12.51a.54.54 0 01.54.53v.18a.54.54 0 01-.54.54" fill="#fff"/></g><g clip-path="url(#clip-path-38)"><path d="M48.18 41h-6a.54.54 0 01-.54-.54v-.18a.54.54 0 01.54-.53h6a.54.54 0 01.54.53v.18a.54.54 0 01-.54.54" fill="#fff"/></g><g clip-path="url(#clip-path-39)"><path d="M26.51 43.92H14a.54.54 0 01-.54-.54v-.18a.54.54 0 01.54-.53h12.51a.54.54 0 01.54.53v.18a.54.54 0 01-.54.54m21.71 0H29.79a.51.51 0 01-.51-.51v-.17a.51.51 0 01.51-.51h18.43a.51.51 0 01.51.51v.17a.51.51 0 01-.51.51" fill="#fff"/></g></g></g></g></g></g></svg>