<svg xmlns="http://www.w3.org/2000/svg" xmlns:xlink="http://www.w3.org/1999/xlink" viewBox="0 0 216.53 98.25"><defs><style>.cls-1{fill:none;}.cls-2{fill:#cdc8f4;}.cls-3{fill:#aba2ea;}.cls-4{fill:#948fd8;}.cls-5{fill:#34256b;}.cls-6{opacity:0.12;}.cls-7{clip-path:url(#clip-path);}.cls-8{fill:#fff;}.cls-9{opacity:0.83;}.cls-10{clip-path:url(#clip-path-2);}.cls-11{fill:#f88993;}.cls-12{clip-path:url(#clip-path-3);}.cls-13{fill:#f6a163;}.cls-14{clip-path:url(#clip-path-4);}.cls-15{fill:#87e18f;}.cls-16{opacity:0.78;}.cls-17{clip-path:url(#clip-path-5);}.cls-18{clip-path:url(#clip-path-6);}.cls-19{clip-path:url(#clip-path-7);}.cls-20{clip-path:url(#clip-path-8);}.cls-21{clip-path:url(#clip-path-9);}.cls-22{clip-path:url(#clip-path-10);}.cls-23{clip-path:url(#clip-path-11);}.cls-24{clip-path:url(#clip-path-12);}.cls-25{clip-path:url(#clip-path-13);}.cls-26{clip-path:url(#clip-path-14);}.cls-27{clip-path:url(#clip-path-15);}.cls-28{clip-path:url(#clip-path-16);}.cls-29{clip-path:url(#clip-path-17);}.cls-30{clip-path:url(#clip-path-18);}.cls-31{clip-path:url(#clip-path-19);}.cls-32{clip-path:url(#clip-path-20);}.cls-33{clip-path:url(#clip-path-21);}.cls-34{clip-path:url(#clip-path-22);}.cls-35{clip-path:url(#clip-path-23);}.cls-36{clip-path:url(#clip-path-24);}.cls-37{clip-path:url(#clip-path-25);}.cls-38{clip-path:url(#clip-path-26);}.cls-39{clip-path:url(#clip-path-27);}.cls-40{clip-path:url(#clip-path-28);}.cls-41{clip-path:url(#clip-path-29);}.cls-42{clip-path:url(#clip-path-30);}.cls-43{clip-path:url(#clip-path-31);}.cls-44{clip-path:url(#clip-path-32);}.cls-45{clip-path:url(#clip-path-33);}.cls-46{clip-path:url(#clip-path-34);}.cls-47{clip-path:url(#clip-path-35);}.cls-48{clip-path:url(#clip-path-36);}.cls-49{clip-path:url(#clip-path-37);}.cls-50{clip-path:url(#clip-path-38);}.cls-51{clip-path:url(#clip-path-39);}</style><clipPath id="clip-path"><rect class="cls-1" x="131.21" y="14.81" width="56.31" height="32.7"/></clipPath><clipPath id="clip-path-2"><rect class="cls-1" x="133.01" y="16.47" width="1.44" height="1.44"/></clipPath><clipPath id="clip-path-3"><rect class="cls-1" x="135.46" y="16.47" width="1.44" height="1.44"/></clipPath><clipPath id="clip-path-4"><rect class="cls-1" x="138.05" y="16.47" width="1.44" height="1.44"/></clipPath><clipPath id="clip-path-5"><rect class="cls-1" x="134.36" y="20.94" width="18.72" height="1.73"/></clipPath><clipPath id="clip-path-6"><rect class="cls-1" x="173.25" y="20.94" width="9.79" height="1.73"/></clipPath><clipPath id="clip-path-7"><rect class="cls-1" x="155.39" y="20.94" width="15.54" height="1.73"/></clipPath><clipPath id="clip-path-8"><rect class="cls-1" x="134.36" y="24.92" width="35.17" height="1.73"/></clipPath><clipPath id="clip-path-9"><rect class="cls-1" x="134.36" y="28.99" width="29.78" height="1.64"/></clipPath><clipPath id="clip-path-10"><rect class="cls-1" x="166.4" y="28.91" width="15.13" height="1.73"/></clipPath><clipPath id="clip-path-11"><rect class="cls-1" x="134.36" y="32.89" width="18.72" height="1.73"/></clipPath><clipPath id="clip-path-12"><rect class="cls-1" x="173.25" y="32.89" width="9.79" height="1.73"/></clipPath><clipPath id="clip-path-13"><rect class="cls-1" x="134.36" y="36.87" width="48.7" height="1.73"/></clipPath><clipPath id="clip-path-14"><rect class="cls-1" x="57.92" y="9.2" width="40.74" height="23.65"/></clipPath><clipPath id="clip-path-15"><rect class="cls-1" x="59.23" y="10.4" width="1.04" height="1.04"/></clipPath><clipPath id="clip-path-16"><rect class="cls-1" x="61" y="10.4" width="1.04" height="1.04"/></clipPath><clipPath id="clip-path-17"><rect class="cls-1" x="62.87" y="10.4" width="1.04" height="1.04"/></clipPath><clipPath id="clip-path-18"><rect class="cls-1" x="60.2" y="13.63" width="13.55" height="1.25"/></clipPath><clipPath id="clip-path-19"><rect class="cls-1" x="88.33" y="13.63" width="7.09" height="1.25"/></clipPath><clipPath id="clip-path-20"><rect class="cls-1" x="75.41" y="13.63" width="11.25" height="1.25"/></clipPath><clipPath id="clip-path-21"><rect class="cls-1" x="60.2" y="16.51" width="25.44" height="1.25"/></clipPath><clipPath id="clip-path-22"><rect class="cls-1" x="60.2" y="19.46" width="21.54" height="1.19"/></clipPath><clipPath id="clip-path-23"><rect class="cls-1" x="83.38" y="19.39" width="10.94" height="1.25"/></clipPath><clipPath id="clip-path-24"><rect class="cls-1" x="60.2" y="22.27" width="13.55" height="1.25"/></clipPath><clipPath id="clip-path-25"><rect class="cls-1" x="88.33" y="22.27" width="7.09" height="1.25"/></clipPath><clipPath id="clip-path-26"><rect class="cls-1" x="60.2" y="25.16" width="35.23" height="1.25"/></clipPath><clipPath id="clip-path-27"><rect class="cls-1" x="11.22" y="26.71" width="40.74" height="23.65"/></clipPath><clipPath id="clip-path-28"><rect class="cls-1" x="12.52" y="27.91" width="1.05" height="1.04"/></clipPath><clipPath id="clip-path-29"><rect class="cls-1" x="14.29" y="27.91" width="1.05" height="1.04"/></clipPath><clipPath id="clip-path-30"><rect class="cls-1" x="16.17" y="27.91" width="1.04" height="1.04"/></clipPath><clipPath id="clip-path-31"><rect class="cls-1" x="13.5" y="31.14" width="13.54" height="1.25"/></clipPath><clipPath id="clip-path-32"><rect class="cls-1" x="41.63" y="31.14" width="7.08" height="1.25"/></clipPath><clipPath id="clip-path-33"><rect class="cls-1" x="28.71" y="31.14" width="11.25" height="1.25"/></clipPath><clipPath id="clip-path-34"><rect class="cls-1" x="13.5" y="34.02" width="25.44" height="1.25"/></clipPath><clipPath id="clip-path-35"><rect class="cls-1" x="13.5" y="36.97" width="21.54" height="1.19"/></clipPath><clipPath id="clip-path-36"><rect class="cls-1" x="36.68" y="36.91" width="10.94" height="1.25"/></clipPath><clipPath id="clip-path-37"><rect class="cls-1" x="13.5" y="39.79" width="13.54" height="1.25"/></clipPath><clipPath id="clip-path-38"><rect class="cls-1" x="41.63" y="39.79" width="7.08" height="1.25"/></clipPath><clipPath id="clip-path-39"><rect class="cls-1" x="13.5" y="42.67" width="35.23" height="1.25"/></clipPath></defs><title>pc-doublescreen</title><g id="Capa_2" data-name="Capa 2"><g id="mesas"><g id="_3D" data-name="3D"><g id="complementos_mesas" data-name="complementos mesas"><g id="pc_frontal_derecho" data-name="pc frontal derecho"><path class="cls-2" d="M216.17,64.55H106.94V4.11A4.13,4.13,0,0,1,111.06,0h102a3.12,3.12,0,0,1,3.11,3.11Z"/><path class="cls-3" d="M197.15,75.49H19.72C9,75.49.34,70.56.34,64.47H216.53c0,6.09-8.68,11-19.38,11"/><rect class="cls-2" x="97.53" y="75.49" width="19.82" height="16.49"/><rect class="cls-4" x="97.53" y="75.49" width="19.82" height="5.23"/><path class="cls-3" d="M130.35,98.25H84.53V96.5A4.53,4.53,0,0,1,89,92h36.79a4.53,4.53,0,0,1,4.52,4.52Z"/><path class="cls-2" d="M109.23,64.55H0V4.73A4.75,4.75,0,0,1,4.73,0H105.65a3.6,3.6,0,0,1,3.58,3.58Z"/><path class="cls-5" d="M209.74,4.71H113.23a1.72,1.72,0,0,0-1.71,1.71V56.61a1.72,1.72,0,0,0,1.71,1.71h96.51a1.72,1.72,0,0,0,1.71-1.71V6.42a1.72,1.72,0,0,0-1.71-1.71"/><path class="cls-5" d="M102.79,4.71H6.29A1.72,1.72,0,0,0,4.58,6.42V56.61a1.72,1.72,0,0,0,1.71,1.71h96.5a1.72,1.72,0,0,0,1.71-1.71V6.42a1.72,1.72,0,0,0-1.71-1.71"/><path class="cls-4" d="M111.29,70.26a3.09,3.09,0,1,1-3.09-3.09,3.09,3.09,0,0,1,3.09,3.09"/><g class="cls-6"><g class="cls-7"><path class="cls-8" d="M185,47.51H133.76A2.55,2.55,0,0,1,131.21,45V17.37a2.56,2.56,0,0,1,2.55-2.56H185a2.56,2.56,0,0,1,2.56,2.56V45A2.56,2.56,0,0,1,185,47.51"/></g></g><g class="cls-9"><g class="cls-10"><path class="cls-11" d="M134.45,17.19a.72.72,0,1,1-.72-.72.72.72,0,0,1,.72.72"/></g></g><g class="cls-9"><g class="cls-12"><path class="cls-13" d="M136.9,17.19a.72.72,0,1,1-.72-.72.72.72,0,0,1,.72.72"/></g></g><g class="cls-9"><g class="cls-14"><path class="cls-15" d="M139.49,17.19a.72.72,0,1,1-.72-.72.72.72,0,0,1,.72.72"/></g></g><g class="cls-16"><g class="cls-17"><path class="cls-8" d="M152.34,22.67H135.1a.74.74,0,0,1-.74-.74v-.25a.74.74,0,0,1,.74-.74h17.24a.74.74,0,0,1,.74.74v.25a.74.74,0,0,1-.74.74"/></g></g><g class="cls-16"><g class="cls-18"><path class="cls-8" d="M182.3,22.67H174a.74.74,0,0,1-.74-.74v-.25a.74.74,0,0,1,.74-.74h8.31a.74.74,0,0,1,.74.74v.25a.74.74,0,0,1-.74.74"/></g></g><g class="cls-16"><g class="cls-19"><path class="cls-8" d="M170.19,22.67H156.13a.74.74,0,0,1-.74-.74v-.25a.74.74,0,0,1,.74-.74h14.06a.75.75,0,0,1,.75.74v.25a.75.75,0,0,1-.75.74"/></g></g><g class="cls-16"><g class="cls-20"><path class="cls-8" d="M168.79,26.65H135.1a.74.74,0,0,1-.74-.74v-.25a.74.74,0,0,1,.74-.74h33.69a.74.74,0,0,1,.74.74v.25a.74.74,0,0,1-.74.74"/></g></g><g class="cls-16"><g class="cls-21"><path class="cls-8" d="M163.44,30.63H135.06a.7.7,0,0,1-.7-.7V29.7a.7.7,0,0,1,.7-.71h28.38a.71.71,0,0,1,.7.71v.23a.7.7,0,0,1-.7.7"/></g></g><g class="cls-16"><g class="cls-22"><path class="cls-8" d="M180.79,30.63H167.14a.74.74,0,0,1-.74-.74v-.24a.74.74,0,0,1,.74-.74h13.65a.74.74,0,0,1,.74.74v.24a.74.74,0,0,1-.74.74"/></g></g><g class="cls-16"><g class="cls-23"><path class="cls-8" d="M152.34,34.62H135.1a.74.74,0,0,1-.74-.74v-.25a.74.74,0,0,1,.74-.74h17.24a.74.74,0,0,1,.74.74v.25a.74.74,0,0,1-.74.74"/></g></g><g class="cls-16"><g class="cls-24"><path class="cls-8" d="M182.3,34.62H174a.74.74,0,0,1-.74-.74v-.25a.74.74,0,0,1,.74-.74h8.31a.74.74,0,0,1,.74.74v.25a.74.74,0,0,1-.74.74"/></g></g><g class="cls-16"><g class="cls-25"><path class="cls-8" d="M152.34,38.6H135.1a.74.74,0,0,1-.74-.74v-.24a.75.75,0,0,1,.74-.75h17.24a.75.75,0,0,1,.74.75v.24a.74.74,0,0,1-.74.74"/><path class="cls-8" d="M182.36,38.6H156.87a.7.7,0,0,1-.7-.7v-.23a.7.7,0,0,1,.7-.71h25.49a.7.7,0,0,1,.7.71v.23a.7.7,0,0,1-.7.7"/></g></g><g class="cls-6"><g class="cls-26"><path class="cls-8" d="M96.11,32.85H60.48a2.56,2.56,0,0,1-2.56-2.56V11.75A2.56,2.56,0,0,1,60.48,9.2H96.11a2.55,2.55,0,0,1,2.55,2.55V30.29a2.55,2.55,0,0,1-2.55,2.56"/></g></g><g class="cls-9"><g class="cls-27"><path class="cls-11" d="M60.27,10.92a.52.52,0,1,1-.52-.52.52.52,0,0,1,.52.52"/></g></g><g class="cls-9"><g class="cls-28"><path class="cls-13" d="M62,10.92a.52.52,0,1,1-.52-.52.52.52,0,0,1,.52.52"/></g></g><g class="cls-9"><g class="cls-29"><path class="cls-15" d="M63.92,10.92a.53.53,0,1,1-.52-.52.52.52,0,0,1,.52.52"/></g></g><g class="cls-16"><g class="cls-30"><path class="cls-8" d="M73.21,14.88H60.74a.54.54,0,0,1-.54-.54v-.18a.54.54,0,0,1,.54-.53H73.21a.54.54,0,0,1,.54.53v.18a.54.54,0,0,1-.54.54"/></g></g><g class="cls-16"><g class="cls-31"><path class="cls-8" d="M94.88,14.88h-6a.54.54,0,0,1-.54-.54v-.18a.54.54,0,0,1,.54-.53h6a.54.54,0,0,1,.54.53v.18a.54.54,0,0,1-.54.54"/></g></g><g class="cls-16"><g class="cls-32"><path class="cls-8" d="M86.13,14.88H76a.54.54,0,0,1-.53-.54v-.18a.53.53,0,0,1,.53-.53H86.13a.53.53,0,0,1,.53.53v.18a.54.54,0,0,1-.53.54"/></g></g><g class="cls-16"><g class="cls-33"><path class="cls-8" d="M85.11,17.76H60.74a.54.54,0,0,1-.54-.53v-.18a.54.54,0,0,1,.54-.54H85.11a.54.54,0,0,1,.53.54v.18a.53.53,0,0,1-.53.53"/></g></g><g class="cls-16"><g class="cls-34"><path class="cls-8" d="M81.24,20.64H60.71a.51.51,0,0,1-.51-.51V20a.5.5,0,0,1,.51-.5H81.24a.5.5,0,0,1,.5.5v.17a.5.5,0,0,1-.5.51"/></g></g><g class="cls-16"><g class="cls-35"><path class="cls-8" d="M93.79,20.64H83.92a.54.54,0,0,1-.54-.53v-.18a.54.54,0,0,1,.54-.54h9.87a.54.54,0,0,1,.53.54v.18a.53.53,0,0,1-.53.53"/></g></g><g class="cls-16"><g class="cls-36"><path class="cls-8" d="M73.21,23.53H60.74A.54.54,0,0,1,60.2,23v-.18a.54.54,0,0,1,.54-.54H73.21a.54.54,0,0,1,.54.54V23a.54.54,0,0,1-.54.54"/></g></g><g class="cls-16"><g class="cls-37"><path class="cls-8" d="M94.88,23.53h-6a.54.54,0,0,1-.54-.54v-.18a.54.54,0,0,1,.54-.54h6a.54.54,0,0,1,.54.54V23a.54.54,0,0,1-.54.54"/></g></g><g class="cls-16"><g class="cls-38"><path class="cls-8" d="M73.21,26.41H60.74a.54.54,0,0,1-.54-.54v-.18a.54.54,0,0,1,.54-.53H73.21a.54.54,0,0,1,.54.53v.18a.54.54,0,0,1-.54.54"/><path class="cls-8" d="M94.92,26.41H76.49A.51.51,0,0,1,76,25.9v-.17a.51.51,0,0,1,.51-.51H94.92a.51.51,0,0,1,.51.51v.17a.51.51,0,0,1-.51.51"/></g></g><g class="cls-6"><g class="cls-39"><path class="cls-8" d="M49.4,50.36H13.78a2.56,2.56,0,0,1-2.56-2.55V29.27a2.56,2.56,0,0,1,2.56-2.56H49.4A2.56,2.56,0,0,1,52,29.27V47.81a2.56,2.56,0,0,1-2.56,2.55"/></g></g><g class="cls-9"><g class="cls-40"><path class="cls-11" d="M13.57,28.43a.53.53,0,1,1-.52-.52.52.52,0,0,1,.52.52"/></g></g><g class="cls-9"><g class="cls-41"><path class="cls-13" d="M15.34,28.43a.52.52,0,1,1-.52-.52.52.52,0,0,1,.52.52"/></g></g><g class="cls-9"><g class="cls-42"><path class="cls-15" d="M17.21,28.43a.52.52,0,1,1-.52-.52.52.52,0,0,1,.52.52"/></g></g><g class="cls-16"><g class="cls-43"><path class="cls-8" d="M26.51,32.39H14a.54.54,0,0,1-.54-.53v-.18a.54.54,0,0,1,.54-.54H26.51a.54.54,0,0,1,.54.54v.18a.54.54,0,0,1-.54.53"/></g></g><g class="cls-16"><g class="cls-44"><path class="cls-8" d="M48.18,32.39h-6a.54.54,0,0,1-.54-.53v-.18a.54.54,0,0,1,.54-.54h6a.54.54,0,0,1,.54.54v.18a.54.54,0,0,1-.54.53"/></g></g><g class="cls-16"><g class="cls-45"><path class="cls-8" d="M39.42,32.39H29.25a.54.54,0,0,1-.54-.53v-.18a.54.54,0,0,1,.54-.54H39.42a.54.54,0,0,1,.54.54v.18a.54.54,0,0,1-.54.53"/></g></g><g class="cls-16"><g class="cls-46"><path class="cls-8" d="M38.41,35.28H14a.54.54,0,0,1-.54-.54v-.18A.54.54,0,0,1,14,34H38.41a.54.54,0,0,1,.53.54v.18a.54.54,0,0,1-.53.54"/></g></g><g class="cls-16"><g class="cls-47"><path class="cls-8" d="M34.53,38.16H14a.51.51,0,0,1-.51-.51v-.17A.51.51,0,0,1,14,37H34.53a.51.51,0,0,1,.51.51v.17a.51.51,0,0,1-.51.51"/></g></g><g class="cls-16"><g class="cls-48"><path class="cls-8" d="M47.08,38.16H37.22a.54.54,0,0,1-.54-.54v-.18a.54.54,0,0,1,.54-.53h9.86a.54.54,0,0,1,.54.53v.18a.54.54,0,0,1-.54.54"/></g></g><g class="cls-16"><g class="cls-49"><path class="cls-8" d="M26.51,41H14a.54.54,0,0,1-.54-.54v-.18a.54.54,0,0,1,.54-.53H26.51a.54.54,0,0,1,.54.53v.18a.54.54,0,0,1-.54.54"/></g></g><g class="cls-16"><g class="cls-50"><path class="cls-8" d="M48.18,41h-6a.54.54,0,0,1-.54-.54v-.18a.54.54,0,0,1,.54-.53h6a.54.54,0,0,1,.54.53v.18a.54.54,0,0,1-.54.54"/></g></g><g class="cls-16"><g class="cls-51"><path class="cls-8" d="M26.51,43.92H14a.54.54,0,0,1-.54-.54V43.2a.54.54,0,0,1,.54-.53H26.51a.54.54,0,0,1,.54.53v.18a.54.54,0,0,1-.54.54"/><path class="cls-8" d="M48.22,43.92H29.79a.51.51,0,0,1-.51-.51v-.17a.51.51,0,0,1,.51-.51H48.22a.51.51,0,0,1,.51.51v.17a.51.51,0,0,1-.51.51"/></g></g></g></g></g></g></g></svg>