<svg xmlns="http://www.w3.org/2000/svg" viewBox="0 -0.5 122 66" shape-rendering="crispEdges"><path stroke="#9621c0" d="M7 0h48m47 2h1m1 0h16m-18 1h18M4 11h5m9 0h2m8 0h3m1 0h2m1 0h18m52 9h17M3 26h8m81 2h16m-16 1h6m-25 5h49m-64 8h49M2 46h2m49 1h1m2 0h2m2 0h1m3 0h1m2 0h2m2 0h1m3 0h1m1 0h2m-26 1h1m2 0h2m2 0h1m3 0h1m2 0h2m2 0h1m3 0h1m1 0h2m-26 1h1m1 0h3m2 0h1m3 0h1m2 0h2m2 0h1m3 0h1m1 0h2m-26 1h1m2 0h2m2 0h1m3 0h1m2 0h2m2 0h1m3 0h1m1 0h2m-26 1h1m2 0h2m2 0h1m3 0h1m2 0h2m2 0h1m3 0h1m1 0h2m-28 3h14m-28 4h35m-35 1h12m-14 1h14M3 61h2m46 0h36M3 62h2m-2 1h2"/><path stroke="#313ec3" d="M55 0h1M28 1h36m4 0h35M61 2h3m4 0h28M61 3h35M79 4h5M37 5h35m12 0h5M62 6h1m5 0h4m12 0h5M68 7h54M19 8h34M19 9h9m3 0h1m2 0h1m-24 1h7m2 0h8m3 0h1m1 0h2m-23 1h3m1 0h2m2 0h2m1 0h3m1 0h1m3 0h1m2 0h1m-23 1h3m1 0h1m3 0h2m1 0h3m1 0h1m3 0h1m2 0h1m30 7h35m-13 4h35m-51 3h35m-26 1h1m2 0h1m-4 1h1m2 0h1m3 0h5m-12 1h4m3 0h5m-29 1h35M0 31h31m11 2h37m-45 1h3m2 0h8m3 0h1m2 0h8m-28 1h1m1 0h1m3 0h2m1 0h3m1 0h1m3 0h1m2 0h2m2 0h1m2 0h1m-28 1h1m1 0h1m3 0h2m1 0h3m1 0h1m3 0h1m2 0h2m2 0h1m2 0h1m-29 1h4m3 0h8m3 0h1m2 0h2m2 0h1m2 0h1m-49 1h59m-53 3h33M8 42h1m2 0h2m2 0h1m3 0h1m2 0h2m2 0h1m3 0h3M8 43h1m2 0h2m2 0h1m3 0h1m2 0h2m2 0h1m3 0h1m41 0h5M8 44h1m2 0h2m2 0h1m3 0h1m2 0h2m2 0h1m3 0h1m41 0h5M8 45h1m2 0h2m2 0h1m3 0h1m2 0h2m2 0h1m3 0h2m23 0h60m-54 2h3m1 0h2m2 0h2m1 0h3m1 0h1m2 0h17m-35 1h3m1 0h2m2 0h2m1 0h3m1 0h1m2 0h17m-80 6h35m-35 1h19m18 2h35m4 1h2m4 0h1m-7 1h2m4 0h1M0 60h35"/><path stroke="#a32061" d="M105 1h17M12 7h50m6 1h15m23 0h11m-9 1h1m-17 2h7m-44 3h3m-17 2h81m-91 1h91m-91 1h91m-61 1h1M0 23h34m31 1h49m-47 3h2m4 0h3m1 0h3m1 0h2m1 0h3m-6 1h2m1 0h3M0 30h32m27 0h4m-24 1h49m12 0h18m-46 4h50M7 39h1m3 0h16m23 0h11M7 40h1m3 0h16m23 0h11M8 46h15m23 0h25M2 49h18m19 0h14m5 0h2m1 0h3m1 0h2m2 0h2m1 0h3m4 0h11M0 51h16m23 0h10m16 3h48m-62 1h62m-78 1h87m-34 1h1m25 1h1m3 0h3m-7 1h1"/><path stroke="#2c2060" d="M28 2h33m35 0h6M79 5h5M0 9h9m38 1h6m56 0h3m8 0h2m-22 1h1m6 0h1m4 0h1m6 0h1m-20 1h1m6 0h1m4 0h1m6 0h1m-20 1h1m6 0h1m4 0h1m6 0h1m-20 1h1m6 0h1m4 0h1m6 0h1M12 21h6m87 0h17M39 33h2m38 0h43m-71 2h1m6 0h1m-8 1h1m6 0h1m-8 1h1m6 0h1m-49 2h1m-1 1h1m50 0h15m22 1h2m8 0h4m1 0h1m3 0h1m2 0h2M10 42h1m96 0h5m1 0h1m3 0h1m2 0h2M10 43h1m84 0h1m2 0h2m2 0h1m3 0h1m1 0h4m1 0h1m3 0h1m2 0h2M10 44h1m84 0h1m2 0h2m2 0h1m3 0h1m1 0h4m1 0h1m3 0h1m2 0h2M10 45h1m47 2h1m-1 1h1m-1 2h1m4 0h1m-6 1h1m4 0h1m-6 1h2m50 7h4M5 61h1m-1 1h1m-1 1h1"/><path stroke="#4438a9" d="M64 2h4M9 7h2m1 2h2m14 0h3m1 0h2m1 0h12m26 0h10m23 0h2M9 10h2m21 0h1m40 0h29m1 0h3m1 0h1M9 11h2m-2 1h2M1 13h3m2 6h1m-1 1h1m64 5h35m5 2h1m-1 1h1m-39 1h7m32 0h2m-82 5h2M0 56h35"/><path stroke="#651959" d="M120 2h2M12 6h25m31 3h5m36 0h8m-5 1h1m-60 1h16m-37 1h2m1 0h34m-37 1h19m2 0h16m-38 1h24m3 0h11m-38 1h38m-38 1h10m-21 4h22m5 0h11m-38 1h38m-38 1h38m-38 2h38m7 1h6m35 0h8M0 29h24m15 3h4m36 0h9m12 0h18m-77 1h1m30 3h50M6 39h1m-1 1h1M0 52h16m23 0h10m64 3h9m-33 2h21m-38 1h20m2 0h4m1 0h11m5 0h1m-44 1h20m2 0h4m1 0h11m5 0h1m2 0h3"/><path stroke="#372281" d="M63 6h5m4 0h12m5 0h33M9 9h2m36 0h6M0 10h4m107 1h1m-1 1h1M9 13h2m1 0h3m1 0h2m2 0h2m1 0h3m85 0h1m-1 1h1M53 27h6m2 0h2m6 0h2m5 0h1m10 0h12m-23 1h1m-51 6h6m5 0h2m8 0h3m1 0h2m8 0h12m-18 1h1m3 0h1m-5 1h1m3 0h1m-5 1h1m3 0h1M9 42h1m3 0h1m-5 1h1m3 0h1m-5 1h1m3 0h1m-5 1h1m3 0h1m45 2h1m-1 1h1m-1 2h1m6 0h1m-8 1h1m6 0h1M0 55h16M0 59h36m-5 5h48"/><path stroke="#a7a2c1" d="M83 8h23M34 23h24m-47 3h50m-2 1h2m10 0h2m-49 1h49M0 35h32m2 0h1m2 0h2m2 0h1m3 0h1m1 0h3M0 36h32m2 0h1m2 0h2m2 0h1m3 0h1m-19 3h23m-23 1h23m-19 3h24m-24 1h24m-23 1h2m-11 1h23m25 0h51M16 51h23"/><path stroke="#6171aa" d="M83 9h23m-4 1h1M33 29h26m2 0h12M0 32h31M1 33h31m0 2h1m3 0h1m-5 1h1m3 0h1m-1 1h1m43 23h35"/><path stroke="#5e1c8e" d="M4 10h5m9 0h2m8 0h3m4 0h12m4 3h2M2 25h8m-8 1h1m70 2h3m1 0h3m18 1h10m-65 3h10m24 0h2M55 47h1m-1 1h1m-1 2h1m-1 1h1m0 1h2m9 0h2m8 0h2m-43 6h1m-1 1h1m12 0h23M2 61h1m-1 1h1m32 0h48M2 63h1m32 0h48"/><path stroke="#39a3c3" d="M106 10h1m-8 1h1m2 0h1m3 0h1m2 0h2m2 0h1m3 0h1m2 0h2M1 12h3m91 0h1m2 0h2m2 0h1m3 0h1m2 0h2m2 0h1m3 0h1m2 0h2m-27 1h1m2 0h2m2 0h1m3 0h1m2 0h2m2 0h1m3 0h1m2 0h2m-27 1h1m2 0h2m2 0h1m3 0h1m2 0h2m2 0h1m3 0h1m2 0h2M3 16h2m2 3h1m-1 1h1m4 0h5m25 0h5m65 7h2m-2 1h2m-83 3h5m-5 1h5m-4 1h4M0 37h32m5 0h2m12 4h25"/><path stroke="#93609d" d="M11 25h50m-37 4h9m26 0h2m-14 7h3M16 52h23"/><path stroke="#d96b9a" d="M42 65h35"/></svg>
