<svg xmlns="http://www.w3.org/2000/svg" viewBox="0 0 97.85 86.99"><defs><clipPath id="clip-path"><path d="M4.1 3.76h90.08v49.37H4.1z" fill="none"/></clipPath><clipPath id="clip-path-47"><path d="M21.2 37.94h17.26v.96H21.2z" fill="none"/></clipPath><clipPath id="clip-path-2"><path d="M4.1 3.76h90.08v49.37H4.1z" fill="none"/></clipPath><clipPath id="clip-path-3"><path d="M57.04 43.51h27.88v4.96H57.04z" fill="none"/></clipPath><clipPath id="clip-path-4"><path d="M4.45 29.59h27.88v2.15H4.45z" fill="none"/></clipPath><clipPath id="clip-path-5"><path d="M18.98 18.62h27.88v4.96H18.98z" fill="none"/></clipPath><clipPath id="clip-path-6"><path d="M26.94 11.88h27.88v4.96H26.94z" fill="none"/></clipPath><clipPath id="clip-path-7"><path d="M48.34 15.9H85.4v.4H48.34z" fill="none"/></clipPath><clipPath id="clip-path-8"><path d="M44.74 16.13H81.8v.39H44.74z" fill="none"/></clipPath><clipPath id="clip-path-9"><path d="M49.74 16.3H86.8v.39H49.74z" fill="none"/></clipPath><clipPath id="clip-path-10"><path d="M34 16.46h37.06v.4H34z" fill="none"/></clipPath><clipPath id="clip-path-11"><path d="M43.12 16.63h37.06v.4H43.12z" fill="none"/></clipPath><clipPath id="clip-path-12"><path d="M49.39 16.79h37.06v.39H49.39z" fill="none"/></clipPath><clipPath id="clip-path-13"><path d="M36.5 16.96h37.06v.39H36.5z" fill="none"/></clipPath><clipPath id="clip-path-14"><path d="M26.63 17.12h37.06v.39H26.63z" fill="none"/></clipPath><clipPath id="clip-path-15"><path d="M18.96 15.51h37.06v.39H18.96z" fill="none"/></clipPath><clipPath id="clip-path-16"><path d="M19.22 15.66h36.22v.79H19.22z" fill="none"/></clipPath><clipPath id="clip-path-17"><path d="M24.53 9.59h17.26v.96H24.53z" fill="none"/></clipPath><clipPath id="clip-path-18"><path d="M30.77 8.02h17.26v.96H30.77z" fill="none"/></clipPath><clipPath id="clip-path-19"><path d="M49.11 6.18h25.87v.39H49.11z" fill="none"/></clipPath><clipPath id="clip-path-20"><path d="M25.27 5.42h25.87v.39H25.27z" fill="none"/></clipPath><clipPath id="clip-path-21"><path d="M5.04 28.45h25.87v.2H5.04z" fill="none"/></clipPath><clipPath id="clip-path-22"><path d="M5.39 24.8h25.87v.2H5.39z" fill="none"/></clipPath><clipPath id="clip-path-23"><path d="M12.08 19.87h25.87v.2H12.08z" fill="none"/></clipPath><clipPath id="clip-path-24"><path d="M5.04 14.88h25.87v.2H5.04z" fill="none"/></clipPath><clipPath id="clip-path-25"><path d="M4.62 6.58h25.87v.2H4.62z" fill="none"/></clipPath><clipPath id="clip-path-26"><path d="M9.53 10.62h20.1v3.36H9.53z" fill="none"/></clipPath><clipPath id="clip-path-27"><path d="M7.58 9.39h4.28v.79H7.58z" fill="none"/></clipPath><clipPath id="clip-path-28"><path d="M34.36 24.74h4.28v.79h-4.28z" fill="none"/></clipPath><clipPath id="clip-path-29"><path d="M25.47 7.63h4.28v.79h-4.28z" fill="none"/></clipPath><clipPath id="clip-path-30"><path d="M33.02 40.34h37.06v.39H33.02z" fill="none"/></clipPath><clipPath id="clip-path-31"><path d="M25.66 41h37.06v.39H25.66z" fill="none"/></clipPath><clipPath id="clip-path-32"><path d="M23.55 33.46h17.26v.95H23.55z" fill="none"/></clipPath><clipPath id="clip-path-33"><path d="M29.8 31.9h17.26v.96H29.8z" fill="none"/></clipPath><clipPath id="clip-path-34"><path d="M8.56 34.5h20.1v3.36H8.56z" fill="none"/></clipPath><clipPath id="clip-path-35"><path d="M24.5 31.5h4.27v.79H24.5z" fill="none"/></clipPath><clipPath id="clip-path-36"><path d="M57.13 45.32h37.06v.39H57.13z" fill="none"/></clipPath><clipPath id="clip-path-37"><path d="M57.13 45.98h37.06v.39H57.13z" fill="none"/></clipPath><clipPath id="clip-path-38"><path d="M50.2 44.37h37.06v.39H50.2z" fill="none"/></clipPath><clipPath id="clip-path-39"><path d="M50.47 44.52h36.22v.79H50.47z" fill="none"/></clipPath><clipPath id="clip-path-40"><path d="M55.77 38.44h17.26v.95H55.77z" fill="none"/></clipPath><clipPath id="clip-path-41"><path d="M62.02 36.88h17.26v.95H62.02z" fill="none"/></clipPath><clipPath id="clip-path-42"><path d="M30.67 44.82h37.06v.4H30.67z" fill="none"/></clipPath><clipPath id="clip-path-43"><path d="M14.61 51.81h37.06v.4H14.61z" fill="none"/></clipPath><clipPath id="clip-path-44"><path d="M23.3 45.47h37.06v.4H23.3z" fill="none"/></clipPath><clipPath id="clip-path-45"><path d="M15.63 43.87h37.06v.4H15.63z" fill="none"/></clipPath><clipPath id="clip-path-46"><path d="M15.89 44.01h36.22v.79H15.89z" fill="none"/></clipPath><clipPath id="clip-path-93"><path d="M4.1 44.61h37.06V45H4.1z" fill="none"/></clipPath><clipPath id="clip-path-48"><path d="M27.44 36.38H44.7v.96H27.44z" fill="none"/></clipPath><clipPath id="clip-path-49"><path d="M4.1 47.99h37.06v.39H4.1z" fill="none"/></clipPath><clipPath id="clip-path-50"><path d="M4.1 48.13h36.22v.79H4.1z" fill="none"/></clipPath><clipPath id="clip-path-51"><path d="M16.14 42.06H33.4v.95H16.14z" fill="none"/></clipPath><clipPath id="clip-path-52"><path d="M41.5 39.35h20.1v3.36H41.5z" fill="none"/></clipPath><clipPath id="clip-path-53"><path d="M56.71 36.48h4.28v.79h-4.28z" fill="none"/></clipPath><clipPath id="clip-path-54"><path d="M60.29 31.64h4.28v.79h-4.28z" fill="none"/></clipPath><clipPath id="clip-path-55"><path d="M57.13 29.54h37.06v.39H57.13z" fill="none"/></clipPath><clipPath id="clip-path-56"><path d="M57.13 30.2h37.06v.39H57.13z" fill="none"/></clipPath><clipPath id="clip-path-57"><path d="M57.13 28.59h37.06v.39H57.13z" fill="none"/></clipPath><clipPath id="clip-path-58"><path d="M57.96 28.74h36.22v.79H57.96z" fill="none"/></clipPath><clipPath id="clip-path-59"><path d="M63.04 22.66H80.3v.95H63.04z" fill="none"/></clipPath><clipPath id="clip-path-60"><path d="M69.28 21.1h17.26v.96H69.28z" fill="none"/></clipPath><clipPath id="clip-path-61"><path d="M48.04 23.7h20.1v3.36h-20.1z" fill="none"/></clipPath><clipPath id="clip-path-62"><path d="M63.98 20.7h4.28v.79h-4.28z" fill="none"/></clipPath><clipPath id="clip-path-63"><path d="M57.13 17.3h37.06v.39H57.13z" fill="none"/></clipPath><clipPath id="clip-path-64"><path d="M57.13 17.96h37.06v.39H57.13z" fill="none"/></clipPath><clipPath id="clip-path-65"><path d="M57.13 16.35h37.06v.39H57.13z" fill="none"/></clipPath><clipPath id="clip-path-66"><path d="M57.96 16.49h36.22v.79H57.96z" fill="none"/></clipPath><clipPath id="clip-path-67"><path d="M64.81 10.42h17.26v.96H64.81z" fill="none"/></clipPath><clipPath id="clip-path-68"><path d="M71.06 8.86h17.26v.96H71.06z" fill="none"/></clipPath><clipPath id="clip-path-69"><path d="M74.09 11.78h20.1v3.36h-20.1z" fill="none"/></clipPath><clipPath id="clip-path-70"><path d="M65.76 8.46h4.28v.79h-4.28z" fill="none"/></clipPath><clipPath id="clip-path-71"><path d="M22.23 24.9h36.22v.79H22.23z" fill="none"/></clipPath><clipPath id="clip-path-72"><path d="M5.09 29.94h36.22v.79H5.09z" fill="none"/></clipPath><clipPath id="clip-path-73"><path d="M23.18 30.53H59.4v.79H23.18z" fill="none"/></clipPath><clipPath id="clip-path-74"><path d="M57.96 38.43h36.22v.79H57.96z" fill="none"/></clipPath><clipPath id="clip-path-75"><path d="M12.31 23.26h36.22v.79H12.31z" fill="none"/></clipPath><clipPath id="clip-path-76"><path d="M28.96 21.49h14.11v.79H28.96z" fill="none"/></clipPath><clipPath id="clip-path-77"><path d="M30.78 21.49h14.11v.79H30.78z" fill="none"/></clipPath><clipPath id="clip-path-78"><path d="M33.14 21.49h14.11v.79H33.14z" fill="none"/></clipPath><clipPath id="clip-path-79"><path d="M43.39 27.65h17.26v.95H43.39z" fill="none"/></clipPath><clipPath id="clip-path-80"><path d="M49.64 26.08H66.9v.96H49.64z" fill="none"/></clipPath><clipPath id="clip-path-81"><path d="M28.4 28.68h20.1v3.36H28.4z" fill="none"/></clipPath><clipPath id="clip-path-82"><path d="M74.09 33.52h20.1v3.36h-20.1z" fill="none"/></clipPath><clipPath id="clip-path-83"><path d="M44.34 25.69h4.28v.79h-4.28z" fill="none"/></clipPath><clipPath id="clip-path-84"><path d="M61.66 7.23h4.28v.79h-4.28z" fill="none"/></clipPath><clipPath id="clip-path-85"><path d="M49.6 12.55h4.28v.79H49.6z" fill="none"/></clipPath><clipPath id="clip-path-86"><path d="M34.7 19.44h4.28v.79H34.7z" fill="none"/></clipPath><clipPath id="clip-path-87"><path d="M27.08 26.99h4.28v.79h-4.28z" fill="none"/></clipPath><clipPath id="clip-path-88"><path d="M13.04 18.82h4.28v.79h-4.28z" fill="none"/></clipPath><clipPath id="clip-path-89"><path d="M6.12 15.79h4.28v.79H6.12z" fill="none"/></clipPath><clipPath id="clip-path-90"><path d="M45.11 13.78h4.28v.79h-4.28z" fill="none"/></clipPath><clipPath id="clip-path-91"><path d="M72.33 12.1h4.28v.79h-4.28z" fill="none"/></clipPath><clipPath id="clip-path-92"><path d="M4.1 43.96h37.06v.39H4.1z" fill="none"/></clipPath><style></style></defs><g style="isolation:isolate"><g id="Capa_2"><g id="mesas"><g id="_3D"><g clip-path="url(#clip-path)" id="complementos_mesas"><g clip-path="url(#clip-path-2)" opacity=".62" id="pc_fondo_central"><g clip-path="url(#clip-path-3)"><path d="M57.04 43.51h27.88v4.96H57.04z" fill="#880e4f"/></g><g clip-path="url(#clip-path-4)"><path d="M4.45 29.59h27.88v2.15H4.45z" fill="#880e4f"/></g><g clip-path="url(#clip-path-5)"><path d="M18.98 18.62h27.88v4.96H18.98z" fill="#880e4f"/></g><g clip-path="url(#clip-path-6)"><path d="M26.94 11.88h27.88v4.96H26.94z" fill="#880e4f"/></g><path d="M13.38 9.39H49.6v.79H13.38zM4.1 21.49h35.27v.59H4.1z" fill="#f50057"/><g clip-path="url(#clip-path-7)"><path d="M48.33 15.9h37.06v.39H48.33z" fill="#f50057"/></g><g clip-path="url(#clip-path-8)"><path d="M44.74 16.13H81.8v.39H44.74z" fill="#f50057"/></g><g clip-path="url(#clip-path-9)"><path d="M49.74 16.3H86.8v.4H49.74z" fill="#f50057"/></g><g clip-path="url(#clip-path-10)"><path d="M34 16.46h37.06v.39H34z" fill="#f50057"/></g><g clip-path="url(#clip-path-11)"><path d="M43.12 16.63h37.06v.39H43.12z" fill="#f50057"/></g><g clip-path="url(#clip-path-12)"><path d="M49.39 16.79h37.06v.4H49.39z" fill="#f50057"/></g><g clip-path="url(#clip-path-13)"><path d="M36.5 16.95h37.06v.39H36.5z" fill="#f50057"/></g><g clip-path="url(#clip-path-14)"><path d="M26.63 17.12h37.06v.39H26.63z" fill="#f50057"/></g><g clip-path="url(#clip-path-15)"><path d="M18.96 15.51h37.06v.39H18.96z" fill="#f50057"/></g><path d="M7.21 11.71h36.22v.79H7.21z" fill="#d500f9"/><g clip-path="url(#clip-path-16)"><path d="M19.22 15.66h36.22v.79H19.22z" fill="#d500f9"/></g><path d="M46.96 35.04h36.22v.79H46.96zM5.87 22.87h36.22v.79H5.87z" fill="#d500f9"/><path d="M53 29.94h41.19v.39H53zm-34.29 4.3H59.9v.4H18.71zM4.1 31.32h35.38v.2H4.1zM33.87 4.58h41.19v.39H33.87zm18.3 3.51h41.36v.2H52.17z" fill="#18ffff"/><path d="M4.1 11.04h34.74v.58H4.1z" fill="#4a148c"/><g clip-path="url(#clip-path-17)"><path d="M24.53 9.59h17.26v.95H24.53z" fill="#fff"/></g><g clip-path="url(#clip-path-18)"><path d="M30.77 8.02h17.26v.95H30.77z" fill="#fff"/></g><path d="M8.02 12.1h25.87v.4H8.02z" fill="#304ffe"/><g clip-path="url(#clip-path-19)"><path d="M49.11 6.18h25.87v.39H49.11z" fill="#304ffe"/></g><g clip-path="url(#clip-path-20)"><path d="M25.27 5.41h25.87v.4H25.27z" fill="#304ffe"/></g><path d="M19.41 15.99h25.87v.39H19.41zm-8.36 2.63h25.87v.4H11.05zm-6.57 8.83h25.87v.39H4.48z" fill="#304ffe"/><g clip-path="url(#clip-path-21)"><path d="M5.04 28.45h25.87v.2H5.04z" fill="#64ffda"/></g><g clip-path="url(#clip-path-22)"><path d="M5.39 24.8h25.87v.2H5.39z" fill="#64ffda"/></g><g clip-path="url(#clip-path-23)"><path d="M12.08 19.87h25.87v.2H12.08z" fill="#64ffda"/></g><g clip-path="url(#clip-path-24)"><path d="M5.04 14.89h25.87v.2H5.04z" fill="#64ffda"/></g><g clip-path="url(#clip-path-25)"><path d="M4.62 6.58h25.87v.2H4.62z" fill="#64ffda"/></g><path d="M17.56 10.42h25.87v.4H17.56zM31.49 8.3h25.87v.4H31.49zm22.47-3.17h25.87v.4H53.96z" fill="#304ffe"/><path d="M13.48 8.55h25.87v.4H13.48zm-2.02 4.39h25.87v.39H11.46zm.42 4.64h25.87v.4H11.88z" fill="#304ffe"/><g clip-path="url(#clip-path-26)"><path d="M9.53 10.62h.83v3.36h-.83zm1.61 0h.83v3.36h-.83zm1.6 0h.83v3.36h-.83zm1.61 0h.83v3.36h-.83zm1.6 0h.83v3.36h-.83zm1.61 0h.83v3.36h-.83zm1.6 0h.83v3.36h-.83zm1.61 0h.83v3.36h-.83zm1.61 0h.83v3.36h-.83zm1.6 0h.83v3.36h-.83zm1.61 0h.83v3.36h-.83zm1.6 0h.83v3.36h-.83zm1.61 0h.83v3.36h-.83z" fill="#304ffe"/></g><g clip-path="url(#clip-path-27)"><path d="M7.58 9.39h.18v.79h-.18zm.34 0h.18v.79h-.18zm.34 0h.18v.79h-.18zm.34 0h.18v.79H8.6zm.34 0h.18v.79h-.18zm.34 0h.18v.79h-.18zm.35 0h.18v.79h-.18zm.34 0h.18v.79h-.18zm.34 0h.18v.79h-.18zm.34 0h.18v.79h-.18zm.34 0h.18v.79h-.18zm.34 0h.18v.79h-.18zm.35 0h.18v.79h-.18z" fill="#304ffe"/></g><g clip-path="url(#clip-path-28)"><path d="M34.36 24.74h.18v.79h-.18zm.34 0h.18v.79h-.18zm.34 0h.18v.79h-.18zm.34 0h.18v.79h-.18zm.34 0h.18v.79h-.18zm.35 0h.18v.79h-.18zm.34 0h.18v.79h-.18zm.34 0h.18v.79h-.18zm.34 0h.18v.79h-.18zm.34 0h.18v.79h-.18zm.34 0h.18v.79h-.18zm.35 0h.18v.79h-.18zm.34 0h.18v.79h-.18z" fill="#d500f9"/></g><g clip-path="url(#clip-path-29)"><path d="M25.47 7.63h.18v.79h-.18zm.34 0h.18v.79h-.18zm.34 0h.18v.79h-.18zm.35 0h.18v.79h-.18zm.34 0h.18v.79h-.18zm.34 0h.18v.79h-.18zm.34 0h.18v.79h-.18zm.34 0h.18v.79h-.18zm.34 0h.18v.79h-.18zm.35 0h.18v.79h-.18zm.34 0h.18v.79h-.18zm.34 0h.18v.79h-.18zm.34 0h.18v.79h-.18z" fill="#304ffe"/></g><path d="M12.4 33.27h36.22v.79H12.4z" fill="#f50057"/><g clip-path="url(#clip-path-30)"><path d="M33.02 40.34h37.06v.4H33.02z" fill="#f50057"/></g><g clip-path="url(#clip-path-31)"><path d="M25.66 41h37.06v.4H25.66z" fill="#f50057"/></g><path d="M6.23 35.59h36.22v.79H6.23z" fill="#d500f9"/><path d="M4.1 34.91h34.74v.58H4.1z" fill="#4a148c"/><g clip-path="url(#clip-path-32)"><path d="M23.55 33.46h17.26v.96H23.55z" fill="#fff"/></g><g clip-path="url(#clip-path-33)"><path d="M29.8 31.9h17.26v.95H29.8z" fill="#fff"/></g><path d="M7.05 35.98h25.87v.39H7.05zm9.54-1.68h25.87v.39H16.59zm13.92-2.12h25.87v.39H30.51z" fill="#304ffe"/><path d="M12.51 32.43h25.87v.39H12.51zm-2.02 4.39h25.87v.4H10.49z" fill="#304ffe"/><g clip-path="url(#clip-path-34)"><path d="M8.56 34.5h.83v3.36h-.83zm1.6 0h.83v3.36h-.83zm1.61 0h.83v3.36h-.83zm1.6 0h.83v3.36h-.83zm1.61 0h.83v3.36h-.83zm1.61 0h.83v3.36h-.83zm1.6 0h.83v3.36h-.83zm1.61 0h.83v3.36h-.83zm1.6 0h.83v3.36h-.83zm1.61 0h.83v3.36h-.83zm1.6 0h.83v3.36h-.83zm1.61 0h.83v3.36h-.83zm1.61 0h.83v3.36h-.83z" fill="#304ffe"/></g><g clip-path="url(#clip-path-35)"><path d="M24.5 31.51h.18v.79h-.18zm.34 0h.18v.79h-.18zm.34 0h.18v.79h-.18zm.34 0h.18v.79h-.18zm.34 0h.18v.79h-.18zm.35 0h.18v.79h-.18zm.34 0h.18v.79h-.18zm.34 0h.18v.79h-.18zm.34 0h.18v.79h-.18zm.34 0h.18v.79h-.18zm.34 0h.18v.79h-.18zm.35 0h.18v.79h-.18zm.34 0h.18v.79h-.18z" fill="#304ffe"/></g><path d="M44.62 38.24h36.22v.79H44.62z" fill="#f50057"/><g clip-path="url(#clip-path-36)"><path d="M57.13 45.32h37.06v.39H57.13z" fill="#f50057"/></g><g clip-path="url(#clip-path-37)"><path d="M57.13 45.98h37.06v.4H57.13z" fill="#f50057"/></g><g clip-path="url(#clip-path-38)"><path d="M50.2 44.37h37.06v.39H50.2z" fill="#f50057"/></g><path d="M38.45 40.57h36.22v.79H38.45z" fill="#d500f9"/><g clip-path="url(#clip-path-39)"><path d="M50.46 44.51h36.22v.79H50.46z" fill="#d500f9"/></g><path d="M35.35 39.89h34.74v.58H35.35z" fill="#4a148c"/><g clip-path="url(#clip-path-40)"><path d="M55.77 38.44h17.26v.95H55.77z" fill="#fff"/></g><g clip-path="url(#clip-path-41)"><path d="M62.02 36.88h17.26v.95H62.02z" fill="#fff"/></g><path d="M39.27 40.96h25.87v.39H39.27zm11.39 3.88h25.87v.39H50.66zm-1.86-5.56h25.87v.4H48.8zm13.93-2.12H88.6v.4H62.73z" fill="#304ffe"/><path d="M44.72 37.41h25.87v.39H44.72zm-2.01 4.39h25.87v.39H42.71zm12.93-8.92h25.87v.4H55.64zm9.55 18.19h25.87v.39H65.19z" fill="#304ffe"/><path fill="#00838f" d="M55.61 52h25.87v.4H55.61z"/><path d="M36.76 50.89h25.87v.39H36.76z" fill="#18ffff"/><path d="M43.12 46.44h25.87v.39H43.12z" fill="#304ffe"/><path d="M62.9 48.33h25.87v.39H62.9zm1.52 1.73h25.87v.4H64.42z" fill="#7986cb"/><path d="M41.77 49.42h25.87v.39H41.77z" fill="#d500f9"/><path d="M35.19 52.32h25.87v.4H35.19zM4.1 51.19h19.73v.27H4.1z" fill="#f50057"/><path d="M7.9 51.03h19.73v.28H7.9z" fill="#f50057"/><path d="M67.58 33.74h25.87v.4H67.58z" fill="#7986cb"/><path d="M10.05 37.74h36.22v.79H10.05z" fill="#f50057"/><g clip-path="url(#clip-path-42)"><path d="M30.66 44.82h37.06v.39H30.66z" fill="#f50057"/></g><g clip-path="url(#clip-path-43)"><path d="M14.61 51.81h37.06v.39H14.61z" fill="#18ffff"/></g><g clip-path="url(#clip-path-44)"><path d="M23.3 45.47h37.06v.4H23.3z" fill="#f50057"/></g><g clip-path="url(#clip-path-45)"><path d="M15.63 43.87h37.06v.39H15.63z" fill="#f50057"/></g><g clip-path="url(#clip-path-46)"><path d="M15.89 44.01h36.22v.79H15.89z" fill="#d500f9"/></g><g clip-path="url(#clip-path-47)"><path d="M21.2 37.94h17.26v.95H21.2z" fill="#fff"/></g><g clip-path="url(#clip-path-48)"><path d="M27.44 36.38H44.7v.96H27.44z" fill="#fff"/></g><path d="M16.08 44.34h25.87v.39H16.08zm-1.85-5.56H40.1v.4H14.23zm13.93-2.12h25.87v.4H28.16z" fill="#304ffe"/><path d="M10.15 36.9h25.87v.39H10.15z" fill="#304ffe"/><path d="M4.1 46.56h34.99v.2H4.1z" fill="#00e5ff"/><path d="M4.1 41.86h36.22v.79H4.1z" fill="#f50057"/><path d="M25.61 48.82H62.9v.2H25.61z" fill="#18ffff"/><path d="M27.42 50.52h37.06v.4H27.42z" fill="#304ffe"/><g clip-path="url(#clip-path-49)"><path d="M4.1 47.99h37.06v.39H4.1z" fill="#f50057"/></g><g clip-path="url(#clip-path-50)"><path d="M4.1 48.13h36.22v.79H4.1z" fill="#d500f9"/></g><g clip-path="url(#clip-path-51)"><path d="M16.14 42.06H33.4v.95H16.14z" fill="#fff"/></g><path d="M4.1 48.46h25.87v.39H4.1zm5.07-5.56h25.87v.4H9.17zM4.1 45.42h25.87v.39H4.1zm8.41 4.5h25.87v.4H12.51z" fill="#304ffe"/><g clip-path="url(#clip-path-52)"><path d="M41.5 39.35h.83v3.36h-.83zm1.61 0h.83v3.36h-.83zm1.61 0h.83v3.36h-.83zm1.6 0h.83v3.36h-.83zm1.61 0h.83v3.36h-.83zm1.6 0h.83v3.36h-.83zm1.61 0h.83v3.36h-.83zm1.6 0h.83v3.36h-.83zm1.61 0h.83v3.36h-.83zm1.61 0h.83v3.36h-.83zm1.6 0h.83v3.36h-.83zm1.61 0H60v3.36h-.83zm1.6 0h.83v3.36h-.83z" fill="#d500f9"/></g><g clip-path="url(#clip-path-53)"><path d="M56.71 36.48h.18v.79h-.18zm.35 0h.18v.79h-.18zm.34 0h.18v.79h-.18zm.34 0h.18v.79h-.18zm.34 0h.18v.79h-.18zm.34 0h.18v.79h-.18zm.34 0h.18v.79h-.18zm.35 0h.18v.79h-.18zm.34 0h.18v.79h-.18zm.34 0h.18v.79h-.18zm.34 0h.18v.79h-.18zm.34 0h.18v.79h-.18zm.34 0h.18v.79h-.18z" fill="#304ffe"/></g><g clip-path="url(#clip-path-54)"><path d="M60.29 31.64h.18v.79h-.18zm.34 0h.18v.79h-.18zm.34 0h.18v.79h-.18zm.35 0h.18v.79h-.18zm.34 0h.18v.79h-.18zm.34 0h.18v.79H62zm.34 0h.18v.79h-.18zm.34 0h.18v.79h-.18zm.34 0h.18v.79h-.18zm.35 0h.18v.79h-.18zm.34 0h.18v.79h-.18zm.34 0h.18v.79h-.18zm.34 0h.18v.79h-.18z" fill="#304ffe"/></g><path d="M51.89 22.47h36.22v.79H51.89zm26.24 4.59h12.84v.59H78.13z" fill="#f50057"/><path d="M81.35 19.1h12.84v.59H81.35z" fill="#d500f9"/><path d="M80.93 5.23h12.84v.59H80.93z" fill="#f50057"/><path d="M78.75 6.04h12.84v.59H78.75z" fill="#e040fb"/><path d="M5.66 5.52H18.5v.59H5.66zM4.5 16.71h12.65v.19H4.5zm0 3.91h12.65v.19H4.5zm1.26-2.72h.22v1.71h-.22zm.92 0h.22v1.71h-.22zm.93 0h.22v1.71h-.22zm.92 0h.22v1.71h-.22zm.92 0h.22v1.71h-.22z" fill="#40c4ff"/><path d="M6.39 49.2h.22v1.71h-.22zm.93 0h.22v1.71h-.22zm.92 0h.22v1.71h-.22zm.92 0h.22v1.71h-.22zm.92 0h.22v1.71h-.22z" fill="#d500f9"/><path d="M86.36 24.14h.22v1.71h-.22zm.93 0h.22v1.71h-.22zm.92 0h.22v1.71h-.22zm.92 0h.22v1.71h-.22zm.93 0h.22v1.71h-.22z" fill="#40c4ff"/><path d="M90.28 42.65h.22v1.71h-.22zm.92 0h.22v1.71h-.22zm.92 0h.22v1.71h-.22zm.93 0h.22v1.71h-.22zm.92 0h.22v1.71h-.22z" fill="#f50057"/><path d="M5.66 7.63h19.15v.33H5.66z" fill="#40c4ff"/><path d="M80.38 31.61h12.84v.59H80.38zm-1.05 9.9h12.84v.59H79.33zM5.77 40.05h12.84v.59H5.77zM4.1 26.16h24.33v.79H4.1z" fill="#f50057"/><g clip-path="url(#clip-path-55)"><path d="M57.13 29.54h37.06v.39H57.13z" fill="#f50057"/></g><g clip-path="url(#clip-path-56)"><path d="M57.13 30.2h37.06v.4H57.13z" fill="#f50057"/></g><g clip-path="url(#clip-path-57)"><path d="M57.13 28.59h37.06v.39H57.13z" fill="#f50057"/></g><path d="M47.92 24.79h36.22v.79H47.92z" fill="#d500f9"/><g clip-path="url(#clip-path-58)"><path d="M57.96 28.74h36.22v.79H57.96z" fill="#d500f9"/></g><path d="M42.62 24.11h34.74v.58H42.62z" fill="#4a148c"/><g clip-path="url(#clip-path-59)"><path d="M63.04 22.66H80.3v.95H63.04z" fill="#fff"/></g><g clip-path="url(#clip-path-60)"><path d="M69.28 21.1h17.26v.95H69.28z" fill="#fff"/></g><path d="M46.54 25.18h25.87v.4H46.54zm11.38 3.88h25.87v.39H57.92zm-1.85-5.56h25.87v.4H56.07zm12.25-2.12h25.87v.4H68.32z" fill="#304ffe"/><path d="M51.99 21.63h25.87v.39H51.99zm-2.02 4.39h25.87v.39H49.97zm.42 4.64h25.87v.4H50.39z" fill="#304ffe"/><g clip-path="url(#clip-path-61)"><path d="M48.04 23.7h.83v3.36h-.83zm1.61 0h.83v3.36h-.83zm1.6 0h.83v3.36h-.83zm1.61 0h.83v3.36h-.83zm1.61 0h.83v3.36h-.83zm1.6 0h.83v3.36h-.83zm1.61 0h.83v3.36h-.83zm1.6 0h.83v3.36h-.83zm1.61 0h.83v3.36h-.83zm1.6 0h.83v3.36h-.83zm1.61 0h.83v3.36h-.83zm1.61 0h.83v3.36h-.83zm1.6 0h.83v3.36h-.83z" fill="#f50057"/></g><g clip-path="url(#clip-path-62)"><path d="M63.98 20.7h.18v.79h-.18zm.34 0h.18v.79h-.18zm.35 0h.18v.79h-.18zm.34 0h.18v.79h-.18zm.34 0h.18v.79h-.18zm.34 0h.18v.79h-.18zm.34 0h.18v.79h-.18zm.34 0h.18v.79h-.18zm.35 0h.18v.79h-.18zm.34 0h.18v.79h-.18zm.34 0h.18v.79h-.18zm.34 0h.18v.79h-.18zm.34 0h.18v.79h-.18z" fill="#304ffe"/></g><path d="M53.66 10.22h36.22v.79H53.66zm-7.79-3.36h36.22v.46H45.87z" fill="#f50057"/><path d="M9.21 4.32h36.22v.46H9.21z" fill="#e040fb"/><g clip-path="url(#clip-path-63)"><path d="M57.13 17.3h37.06v.39H57.13z" fill="#f50057"/></g><g clip-path="url(#clip-path-64)"><path d="M57.13 17.96h37.06v.39H57.13z" fill="#f50057"/></g><g clip-path="url(#clip-path-65)"><path d="M57.13 16.35h37.06v.39H57.13z" fill="#f50057"/></g><path d="M47.49 12.55h36.22v.79H47.49z" fill="#d500f9"/><g clip-path="url(#clip-path-66)"><path d="M57.96 16.5h36.22v.79H57.96z" fill="#d500f9"/></g><path d="M44.39 11.87h34.73v.58H44.39z" fill="#4a148c"/><g clip-path="url(#clip-path-67)"><path d="M64.81 10.42h17.26v.95H64.81z" fill="#fff"/></g><g clip-path="url(#clip-path-68)"><path d="M71.06 8.86h17.26v.95H71.06z" fill="#fff"/></g><path d="M48.31 12.94h25.87v.4H48.31zm11.39 3.88h25.87v.39H59.7zm-1.86-5.56h25.87v.4H57.84zm10.48-2.12h25.87v.4H68.32z" fill="#304ffe"/><path d="M53.77 9.38h25.87v.4H53.77zm-2.02 4.4h25.87v.39H51.75zm.41 4.64h25.87v.4H52.16zm-12.57 1.61h25.87v.39H39.59z" fill="#304ffe"/><g clip-path="url(#clip-path-69)"><path d="M74.09 11.78h.83v3.36h-.83zm1.6 0h.83v3.36h-.83zm1.61 0h.83v3.36h-.83zm1.61 0h.83v3.36h-.83zm1.6 0h.83v3.36h-.83zm1.61 0h.83v3.36h-.83zm1.6 0h.83v3.36h-.83zm1.61 0h.83v3.36h-.83zm1.6 0h.83v3.36h-.83zm1.61 0h.83v3.36h-.83zm1.61 0h.83v3.36h-.83zm1.6 0h.83v3.36h-.83zm1.61 0h.83v3.36h-.83z" fill="#18ffff"/></g><g clip-path="url(#clip-path-70)"><path d="M65.76 8.46h.18v.79h-.18zm.34 0h.18v.79h-.18zm.34 0h.18v.79h-.18zm.34 0h.18v.79h-.18zm.34 0h.18v.79h-.18zm.34 0h.18v.79h-.18zm.35 0h.18v.79h-.18zm.34 0h.18v.79h-.18zm.34 0h.18v.79h-.18zm.34 0h.18v.79h-.18zm.34 0h.18v.79h-.18zm.34 0h.18v.79h-.18zm.35 0h.18v.79h-.18z" fill="#304ffe"/></g><path d="M32.6 27.25h36.22v.79H32.6z" fill="#f50057"/><path d="M26.4 25.29h36.22v.79H26.4z" fill="#4a148c"/><g clip-path="url(#clip-path-71)"><path d="M22.23 24.9h36.22v.79H22.23z" fill="#fff"/></g><g clip-path="url(#clip-path-72)"><path d="M5.09 29.94h36.22v.79H5.09z" fill="#fff"/></g><g clip-path="url(#clip-path-73)"><path d="M23.18 30.53H59.4v.79H23.18z" fill="#fff"/></g><g clip-path="url(#clip-path-74)"><path d="M57.96 38.43h36.22v.79H57.96z" fill="#fff"/></g><g clip-path="url(#clip-path-75)"><path d="M12.31 23.26h36.22v.79H12.31z" fill="#fff"/></g><g clip-path="url(#clip-path-76)"><path d="M28.96 21.48h14.11v.79H28.96z" fill="#fff"/></g><g clip-path="url(#clip-path-77)"><path d="M30.78 21.48h14.11v.79H30.78z" fill="#fff"/></g><g clip-path="url(#clip-path-78)"><path d="M33.14 21.48h14.11v.79H33.14z" fill="#fff"/></g><path d="M22.97 29.1h34.74v.58H22.97z" fill="#4a148c"/><g clip-path="url(#clip-path-79)"><path d="M43.39 27.65h17.26v.95H43.39z" fill="#fff"/></g><g clip-path="url(#clip-path-80)"><path d="M49.64 26.08H66.9v.95H49.64z" fill="#fff"/></g><path d="M36.43 28.48H62.3v.4H36.43zm13.93-2.12h25.87v.4H50.36z" fill="#304ffe"/><path d="M13.95 39.85h25.87v.39H13.95z" fill="#880e4f"/><path d="M31.49 47.45h25.87v.39H31.49z" fill="#d500f9"/><path d="M32.35 26.61h25.87v.4H32.35z" fill="#304ffe"/><g clip-path="url(#clip-path-81)"><path d="M28.4 28.68h.83v3.36h-.83zm1.6 0h.83v3.36H30zm1.61 0h.83v3.36h-.83zm1.61 0h.83v3.36h-.83zm1.6 0h.83v3.36h-.83zm1.61 0h.83v3.36h-.83zm1.6 0h.83v3.36h-.83zm1.61 0h.83v3.36h-.83zm1.6 0h.83v3.36h-.83zm1.61 0h.83v3.36h-.83zm1.61 0h.83v3.36h-.83zm1.6 0h.83v3.36h-.83zm1.61 0h.83v3.36h-.83z" fill="#304ffe"/></g><g clip-path="url(#clip-path-82)" opacity=".22"><path d="M74.09 33.52h.83v3.36h-.83zm1.6 0h.83v3.36h-.83zm1.61 0h.83v3.36h-.83zm1.61 0h.83v3.36h-.83zm1.6 0h.83v3.36h-.83zm1.61 0h.83v3.36h-.83zm1.6 0h.83v3.36h-.83zm1.61 0h.83v3.36h-.83zm1.6 0h.83v3.36h-.83zm1.61 0h.83v3.36h-.83zm1.61 0h.83v3.36h-.83zm1.6 0h.83v3.36h-.83zm1.61 0h.83v3.36h-.83z" fill="#00e5ff"/></g><g clip-path="url(#clip-path-83)"><path d="M44.34 25.69h.18v.79h-.18zm.34 0h.18v.79h-.18zm.34 0h.18v.79h-.18zm.34 0h.18v.79h-.18zm.34 0h.18v.79h-.18zm.35 0h.18v.79h-.18zm.34 0h.18v.79h-.18zm.34 0h.18v.79h-.18zm.34 0h.18v.79h-.18zm.34 0h.18v.79h-.18zm.34 0h.18v.79h-.18zm.35 0h.18v.79h-.18zm.34 0h.18v.79h-.18z" fill="#304ffe"/></g><g clip-path="url(#clip-path-84)"><path d="M61.66 7.23h.18v.79h-.18zm.34 0h.18v.79H62zm.34 0h.18v.79h-.18zm.34 0h.18v.79h-.18zm.34 0h.18v.79h-.18zm.35 0h.18v.79h-.18zm.34 0h.18v.79h-.18zm.34 0h.18v.79h-.18zm.34 0h.18v.79h-.18zm.34 0h.18v.79h-.18zm.34 0h.18v.79h-.18zm.35 0h.18v.79h-.18zm.34 0h.18v.79h-.18z" fill="#304ffe"/></g><g clip-path="url(#clip-path-85)"><path d="M49.6 12.55h.18v.79h-.18zm.34 0h.18v.79h-.18zm.34 0h.18v.79h-.18zm.34 0h.18v.79h-.18zm.35 0h.18v.79h-.18zm.34 0h.18v.79h-.18zm.34 0h.18v.79h-.18zm.34 0h.18v.79h-.18zm.34 0h.18v.79h-.18zm.34 0h.18v.79h-.18zm.35 0h.18v.79h-.18zm.34 0h.18v.79h-.18zm.34 0h.18v.79h-.18z" fill="#304ffe"/></g><g clip-path="url(#clip-path-86)"><path d="M34.7 19.44h.18v.79h-.18zm.34 0h.18v.79h-.18zm.34 0h.18v.79h-.18zm.34 0h.18v.79h-.18zm.35 0h.18v.79h-.18zm.34 0h.18v.79h-.18zm.34 0h.18v.79h-.18zm.34 0h.18v.79h-.18zm.34 0h.18v.79h-.18zm.34 0h.18v.79h-.18zm.35 0h.18v.79h-.18zm.34 0h.18v.79h-.18zm.34 0h.18v.79h-.18z" fill="#00e5ff"/></g><g clip-path="url(#clip-path-87)"><path d="M27.08 26.99h.18v.79h-.18zm.34 0h.18v.79h-.18zm.34 0h.18v.79h-.18zm.34 0h.18v.79h-.18zm.34 0h.18v.79h-.18zm.34 0h.18v.79h-.18zm.35 0h.18v.79h-.18zm.34 0h.18v.79h-.18zm.34 0h.18v.79h-.18zm.34 0h.18v.79h-.18zm.34 0h.18v.79h-.18zm.34 0h.18v.79h-.18zm.35 0h.18v.79h-.18z" fill="#00e5ff"/></g><g clip-path="url(#clip-path-88)"><path d="M13.04 18.82h.18v.79h-.18zm.34 0h.18v.79h-.18zm.34 0h.18v.79h-.18zm.34 0h.18v.79h-.18zm.35 0h.18v.79h-.18zm.34 0h.18v.79h-.18zm.34 0h.18v.79h-.18zm.34 0h.18v.79h-.18zm.34 0h.18v.79h-.18zm.34 0h.18v.79h-.18zm.34 0h.18v.79h-.18zm.35 0h.18v.79h-.18zm.34 0h.18v.79h-.18z" fill="#00e5ff"/></g><g clip-path="url(#clip-path-89)"><path d="M6.12 15.79h.18v.79h-.18zm.34 0h.18v.79h-.18zm.34 0h.18v.79H6.8zm.35 0h.18v.79h-.18zm.34 0h.18v.79h-.18zm.34 0h.18v.79h-.18zm.34 0h.18v.79h-.18zm.34 0h.18v.79h-.18zm.34 0h.18v.79h-.18zm.35 0h.18v.79H9.2zm.34 0h.18v.79h-.18zm.34 0h.18v.79h-.18zm.34 0h.18v.79h-.18z" fill="#00e5ff"/></g><g clip-path="url(#clip-path-90)"><path d="M45.11 13.78h.18v.79h-.18zm.34 0h.18v.79h-.18zm.34 0h.18v.79h-.18zm.34 0h.18v.79h-.18zm.35 0h.18v.79h-.18zm.34 0H47v.79h-.18zm.34 0h.18v.79h-.18zm.34 0h.18v.79h-.18zm.34 0h.18v.79h-.18zm.34 0h.18v.79h-.18zm.35 0h.18v.79h-.18zm.34 0h.18v.79h-.18zm.34 0h.18v.79h-.18z" fill="#f50057"/></g><g clip-path="url(#clip-path-91)"><path d="M72.33 12.1h.18v.79h-.18zm.35 0h.18v.79h-.18zm.34 0h.18v.79h-.18zm.34 0h.18v.79h-.18zm.34 0h.18v.79h-.18zm.34 0h.18v.79h-.18zm.34 0h.18v.79h-.18zm.35 0h.18v.79h-.18zm.34 0h.18v.79h-.18zm.34 0h.18v.79h-.18zm.34 0h.18v.79h-.18zm.34 0h.18v.79h-.18zm.34 0h.18v.79h-.18z" fill="#f50057"/></g><g clip-path="url(#clip-path-92)"><path d="M4.1 43.96h37.06v.39H4.1z" fill="#f50057"/></g><g clip-path="url(#clip-path-93)"><path d="M4.1 44.61h37.06v.4H4.1z" fill="#f50057"/></g><path d="M4.1 43.51h34.74v.58H4.1zm22.87 7.56H61.7v.58H26.97z" fill="#4a148c"/><path fill="#6a1b9a" d="M29.79 49.93h34.74v.58H29.79z"/><path d="M48.95 18.35h.83v1.08h-.83zm42.8 4.73h.83v1.08h-.83zm-82.6 9.5h.83v1.08h-.83z" fill="#f50057"/><path d="M6.1 37.6h.83v1.09H6.1z" fill="#e040fb"/><path d="M42.04 13.63h.83v1.08h-.83z" fill="#304ffe"/><path d="M92.52 26.41h.83v1.09h-.83zM4.98 13.34h1.57v.45H4.98zm45.54-2.75h1.57v.45h-1.57z" fill="#00e5ff"/><path d="M37.33 6.86h.56v.54h-.56z" fill="#304ffe"/><path d="M38.63 6.86h.56v.54h-.56z" fill="#40c4ff"/><path d="M39.93 6.86h.56v.54h-.56z" fill="#ff4081"/><path d="M41.23 6.86h.56v.54h-.56z" fill="#f50057"/><path d="M71.47 19.83h.56v.54h-.56z" fill="#304ffe"/><path d="M72.77 19.83h.56v.54h-.56z" fill="#40c4ff"/><path d="M74.07 19.83h.56v.54h-.56z" fill="#ff4081"/><path d="M75.37 19.83h.56v.54h-.56z" fill="#f50057"/><path d="M70.62 27.78h.6v.27h-.6z" fill="#304ffe"/><path d="M72 27.78h.6v.27H72z" fill="#40c4ff"/><path d="M73.39 27.78h.6v.27h-.6z" fill="#ff4081"/><path d="M74.77 27.78h.6v.27h-.6z" fill="#f50057"/><path d="M40.56 18.62h.6v.27h-.6z" fill="#304ffe"/><path d="M41.94 18.62h.6v.27h-.6z" fill="#40c4ff"/><path d="M43.32 18.62h.6v.27h-.6z" fill="#ff4081"/><path d="M44.7 18.62h.6v.27h-.6z" fill="#f50057"/><path d="M81.77 40.06h.6v.27h-.6zm1.38 0h.6v.27h-.6zm1.38 0h.6v.27h-.6zm1.38 0h.6v.27h-.6z" fill="#d500f9"/><path d="M70.96 42.8h.6v.27h-.6zm1.38 0h.6v.27h-.6zm1.38 0h.6v.27h-.6zm1.39 0h.6v.27h-.6z" fill="#18ffff"/><path d="M88.19 47.32h.6v.27h-.6zm1.38 0h.6v.27h-.6zm1.38 0h.6v.27h-.6zm1.38 0h.6v.27h-.6z" fill="#f50057"/><path d="M72.13 47.32h.6v.27h-.6zm1.38 0h.6v.27h-.6zm1.38 0h.6v.27h-.6zm1.39 0h.6v.27h-.6z" fill="#2962ff"/><path d="M60.99 34.11h.6v.27h-.6z" fill="#f50057"/><path d="M62.38 34.11h.6v.27h-.6z" fill="#40c4ff"/><path d="M63.76 34.11h.6v.27h-.6z" fill="#00e5ff"/><path d="M65.14 34.11h.6v.27h-.6z" fill="#8e24aa"/><path d="M48.11 20.96h.6v.27h-.6z" fill="#f50057"/><path d="M49.49 20.96h.6v.27h-.6z" fill="#40c4ff"/><path d="M50.87 20.96h.6v.27h-.6z" fill="#00e5ff"/><path d="M52.25 20.96h.6v.27h-.6z" fill="#8e24aa"/><path d="M18.82 40.83h.6v.27h-.6z" fill="#304ffe"/><path d="M20.21 40.83h.6v.27h-.6z" fill="#40c4ff"/><path d="M21.59 40.83h.6v.27h-.6z" fill="#ff4081"/><path d="M22.97 40.83h.6v.27h-.6z" fill="#f50057"/><path d="M7.3 47.02h.6v.27h-.6z" fill="#304ffe"/><path d="M8.68 47.02h.6v.27h-.6z" fill="#40c4ff"/><path d="M10.06 47.02h.6v.27h-.6z" fill="#ff4081"/><path d="M11.44 47.02h.6v.27h-.6z" fill="#f50057"/></g></g></g></g></g></g></svg>