<svg xmlns="http://www.w3.org/2000/svg" viewBox="0 0 110.66 98.38"><defs><style>.cls-1{fill:#cdc8f4;}.cls-2{fill:#aba2ea;}.cls-3{fill:#948fd8;}.cls-4{fill:#33323f;}.cls-5,.cls-8{fill:none;stroke:#fff;stroke-miterlimit:10;}.cls-5{stroke-width:0.75px;}.cls-6{fill:#fff;}.cls-7{fill:#1e120d;}.cls-8{stroke-width:0.5px;}</style></defs><title>pc</title><g id="Capa_2" data-name="Capa 2"><g id="mesas"><g id="_3D" data-name="3D"><g id="complementos_mesas" data-name="complementos mesas"><g id="pc_frontal_izquierdo" data-name="pc frontal izquierdo"><path class="cls-1" d="M110.66,65.39H0V4.11A4.12,4.12,0,0,1,4.11,0H107.54a3.13,3.13,0,0,1,3.12,3.11Z"/><path class="cls-2" d="M100.74,75.31H9.92A9.92,9.92,0,0,1,0,65.39H110.66a9.92,9.92,0,0,1-9.92,9.92"/><rect class="cls-1" x="45.22" y="75.31" width="20.08" height="16.71"/><rect class="cls-3" x="45.22" y="75.31" width="20.08" height="5.3"/><path class="cls-2" d="M78.47,98.38H32.05V96.54A4.53,4.53,0,0,1,36.56,92H74a4.53,4.53,0,0,1,4.52,4.52Z"/><path class="cls-3" d="M58,70a3.13,3.13,0,1,1-3.13-3.13A3.13,3.13,0,0,1,58,70"/><path class="cls-4" d="M105.27,2.8H5.31A1.81,1.81,0,0,0,3.54,4.64V58.72a1.82,1.82,0,0,0,1.77,1.85h100a1.82,1.82,0,0,0,1.78-1.85V4.64a1.82,1.82,0,0,0-1.78-1.84"/></g></g></g></g></g></svg>