<svg xmlns="http://www.w3.org/2000/svg" xmlns:xlink="http://www.w3.org/1999/xlink" viewBox="0 0 97.85 86.99"><defs><style>.cls-1,.cls-6{fill:none;}.cls-2{fill:#cdc8f4;}.cls-3{fill:#aba2ea;}.cls-4{fill:#948fd8;}.cls-5{fill:#34256b;}.cls-6{stroke:#e94662;stroke-miterlimit:10;stroke-width:0.75px;}.cls-7{opacity:0.78;}.cls-8{clip-path:url(#clip-path);}.cls-9{fill:#fff;}.cls-10{clip-path:url(#clip-path-2);}</style><clipPath id="clip-path"><rect class="cls-1" x="17.95" y="36.63" width="18.94" height="2.12"/></clipPath><clipPath id="clip-path-2"><rect class="cls-1" x="17.95" y="23.75" width="18.94" height="2.12"/></clipPath></defs><title>pc-thegame</title><g id="Capa_2" data-name="Capa 2"><g id="mesas"><g id="_3D" data-name="3D"><g id="complementos_mesas" data-name="complementos mesas"><g id="pc_fondo_derecho" data-name="pc fondo derecho"><path class="cls-2" d="M97.85,57.83H0V4.11A4.12,4.12,0,0,1,4.11,0H94.74a3.12,3.12,0,0,1,3.11,3.11Z"/><path class="cls-3" d="M89.08,66.6H8.77A8.77,8.77,0,0,1,0,57.83H97.85a8.77,8.77,0,0,1-8.77,8.77"/><rect class="cls-2" x="39.98" y="66.6" width="17.76" height="14.78"/><rect class="cls-4" x="39.98" y="66.6" width="17.76" height="4.68"/><path class="cls-3" d="M69.39,87h-41v-1.1a4.53,4.53,0,0,1,4.51-4.52h32a4.53,4.53,0,0,1,4.52,4.52Z"/><path class="cls-5" d="M92.09,4.22H5.64A1.53,1.53,0,0,0,4.1,5.75v45a1.54,1.54,0,0,0,1.54,1.54H92.09a1.54,1.54,0,0,0,1.53-1.54v-45a1.53,1.53,0,0,0-1.53-1.53"/><path class="cls-4" d="M51.28,61.92a2.77,2.77,0,1,1-2.76-2.77,2.75,2.75,0,0,1,2.76,2.77"/><rect class="cls-6" x="18.02" y="40.28" width="61" height="7"/><g class="cls-7"><g class="cls-8"><path class="cls-9" d="M36.35,38.75H18.48a.54.54,0,0,1-.53-.54v-1a.54.54,0,0,1,.53-.54H36.35a.54.54,0,0,1,.54.54v1a.54.54,0,0,1-.54.54"/></g></g><rect class="cls-6" x="18.11" y="27.18" width="61" height="7"/><g class="cls-7"><g class="cls-10"><path class="cls-9" d="M36.35,25.87H18.48a.54.54,0,0,1-.53-.54v-1a.53.53,0,0,1,.53-.53H36.35a.54.54,0,0,1,.54.53v1a.54.54,0,0,1-.54.54"/></g></g><path class="cls-9" d="M14.28,13.16v1.56L8.63,16.89v-1.5l3.95-1.45L8.63,12.48V11Z"/><path class="cls-9" d="M19.1,17.9a1.14,1.14,0,0,1-.33-.84,1.1,1.1,0,0,1,.33-.83,1.16,1.16,0,0,1,.82-.32,1.14,1.14,0,0,1,.82.32,1.1,1.1,0,0,1,.33.83,1.14,1.14,0,0,1-.33.84,1.08,1.08,0,0,1-.82.34A1.09,1.09,0,0,1,19.1,17.9Z"/><path class="cls-9" d="M26.07,8h1.65L23.8,19.34H22.15Z"/><path class="cls-9" d="M31.9,17.83a1.81,1.81,0,0,1-.67.31,3.72,3.72,0,0,1-.84.1,2.48,2.48,0,0,1-1.76-.59A2.25,2.25,0,0,1,28,15.92V13.27H27V11.83h1V10.26h1.85v1.57h1.59v1.44H29.86V15.9a.89.89,0,0,0,.21.63.75.75,0,0,0,.58.22,1.16,1.16,0,0,0,.75-.24Z"/><path class="cls-9" d="M38.75,12.31a2.9,2.9,0,0,1,.73,2.14v3.69H37.62V14.73a1.69,1.69,0,0,0-.33-1.14,1.21,1.21,0,0,0-1-.38,1.48,1.48,0,0,0-1.12.44A1.86,1.86,0,0,0,34.8,15v3.19H33V9.24H34.8v3.12a2.35,2.35,0,0,1,.89-.57,3.25,3.25,0,0,1,1.14-.2A2.63,2.63,0,0,1,38.75,12.31Z"/><path class="cls-9" d="M47.43,15.44H42.6a1.51,1.51,0,0,0,.62,1,2,2,0,0,0,1.21.35,2.42,2.42,0,0,0,.88-.15,2.07,2.07,0,0,0,.72-.48l1,1.08a3.3,3.3,0,0,1-2.64,1,4,4,0,0,1-1.91-.43,3,3,0,0,1-1.28-1.18,3.46,3.46,0,0,1,0-3.43A3.15,3.15,0,0,1,42.4,12a3.51,3.51,0,0,1,1.74-.43,3.56,3.56,0,0,1,1.7.41A2.91,2.91,0,0,1,47,13.17a3.52,3.52,0,0,1,.44,1.77S47.46,15.13,47.43,15.44ZM43.1,13.37a1.48,1.48,0,0,0-.52,1h3.14A1.51,1.51,0,0,0,44.15,13,1.56,1.56,0,0,0,43.1,13.37Z"/><path class="cls-9" d="M47.76,18.14H53.7v1.08H47.76Z"/><path class="cls-9" d="M60.87,11.69v5.37A3.45,3.45,0,0,1,60,19.7a3.73,3.73,0,0,1-2.67.87,6.68,6.68,0,0,1-1.76-.23,3.7,3.7,0,0,1-1.38-.66l.74-1.34a3.07,3.07,0,0,0,1,.53,4.06,4.06,0,0,0,1.23.2,2,2,0,0,0,1.42-.44A1.75,1.75,0,0,0,59,17.3V17a2.6,2.6,0,0,1-2,.8,3.39,3.39,0,0,1-1.61-.39,3.06,3.06,0,0,1-1.16-1.1,3.37,3.37,0,0,1,0-3.26A3.06,3.06,0,0,1,55.39,12,3.39,3.39,0,0,1,57,11.59a2.52,2.52,0,0,1,2.11.92v-.82Zm-2.3,4.17a1.64,1.64,0,0,0,0-2.3,1.68,1.68,0,0,0-1.2-.43,1.71,1.71,0,0,0-1.21.43,1.62,1.62,0,0,0,0,2.3,1.71,1.71,0,0,0,1.21.44A1.69,1.69,0,0,0,58.57,15.86Z"/><path class="cls-9" d="M67.45,12.3a2.77,2.77,0,0,1,.8,2.16v3.68H66.51v-.8a2.06,2.06,0,0,1-2,.9A3.09,3.09,0,0,1,63.29,18a1.92,1.92,0,0,1-.83-.7,1.81,1.81,0,0,1-.28-1,1.66,1.66,0,0,1,.67-1.41,3.36,3.36,0,0,1,2.07-.52h1.47a1.18,1.18,0,0,0-.37-.94,1.59,1.59,0,0,0-1.1-.33,3.12,3.12,0,0,0-1,.16,2.78,2.78,0,0,0-.84.44l-.66-1.31a3.69,3.69,0,0,1,1.25-.57,5.38,5.38,0,0,1,1.5-.21A3.33,3.33,0,0,1,67.45,12.3Zm-1.58,4.46a1.19,1.19,0,0,0,.52-.66v-.66H65.12c-.76,0-1.14.25-1.14.76a.69.69,0,0,0,.28.57A1.26,1.26,0,0,0,65,17,1.67,1.67,0,0,0,65.87,16.76Z"/><path class="cls-9" d="M80,12.3a3,3,0,0,1,.7,2.15v3.69H78.86V14.73a1.74,1.74,0,0,0-.32-1.14,1.09,1.09,0,0,0-.89-.38,1.28,1.28,0,0,0-1,.43,1.79,1.79,0,0,0-.38,1.26v3.24H74.38V14.73c0-1-.4-1.52-1.21-1.52a1.27,1.27,0,0,0-1,.43,1.84,1.84,0,0,0-.38,1.26v3.24H69.92V11.69h1.77v.74a2.35,2.35,0,0,1,.87-.62,2.78,2.78,0,0,1,1.13-.22,2.74,2.74,0,0,1,1.23.27,2.22,2.22,0,0,1,.88.79,2.53,2.53,0,0,1,1-.78,3,3,0,0,1,1.31-.28A2.6,2.6,0,0,1,80,12.3Z"/><path class="cls-9" d="M88.67,15.44H83.83a1.56,1.56,0,0,0,.62,1,2.06,2.06,0,0,0,1.21.35,2.44,2.44,0,0,0,.89-.15,2.27,2.27,0,0,0,.72-.48l1,1.08a3.28,3.28,0,0,1-2.63,1,4.08,4.08,0,0,1-1.92-.43,3,3,0,0,1-1.28-1.18A3.28,3.28,0,0,1,82,14.92a3.32,3.32,0,0,1,.45-1.72A3.08,3.08,0,0,1,83.64,12a3.51,3.51,0,0,1,1.74-.43,3.59,3.59,0,0,1,1.7.41,3,3,0,0,1,1.19,1.17,3.52,3.52,0,0,1,.43,1.77S88.69,15.13,88.67,15.44Zm-4.34-2.07a1.52,1.52,0,0,0-.52,1H87a1.58,1.58,0,0,0-.53-1,1.55,1.55,0,0,0-1-.36A1.6,1.6,0,0,0,84.33,13.37Z"/></g></g></g></g></g></svg>