<svg xmlns="http://www.w3.org/2000/svg" viewBox="0 0 97.85 86.99"><defs><clipPath id="clip-path"><path d="M17.95 36.63h18.94v2.12H17.95z" fill="none"/></clipPath><clipPath id="clip-path-2"><path d="M17.95 23.75h18.94v2.12H17.95z" fill="none"/></clipPath><style></style></defs><g id="Capa_2" data-name="Capa 2"><g id="mesas"><g id="_3D" data-name="3D"><g id="complementos_mesas" data-name="complementos mesas"><g id="pc_fondo_derecho" data-name="pc fondo derecho"><path d="M97.85 57.83H0V4.11A4.12 4.12 0 014.11 0h90.63a3.12 3.12 0 013.11 3.11z" fill="#cdc8f4"/><path d="M89.08 66.6H8.77A8.77 8.77 0 010 57.83h97.85a8.77 8.77 0 01-8.77 8.77" fill="#aba2ea"/><path d="M39.98 66.6h17.76v14.78H39.98z" fill="#cdc8f4"/><path d="M39.98 66.6h17.76v4.68H39.98z" fill="#948fd8"/><path d="M69.39 87h-41v-1.1a4.53 4.53 0 014.51-4.52h32a4.53 4.53 0 014.52 4.52z" fill="#aba2ea"/><path d="M92.09 4.22H5.64A1.53 1.53 0 004.1 5.75v45a1.54 1.54 0 001.54 1.54h86.45a1.54 1.54 0 001.53-1.54v-45a1.53 1.53 0 00-1.53-1.53" fill="#34256b"/><path d="M51.28 61.92a2.77 2.77 0 11-2.76-2.77 2.75 2.75 0 012.76 2.77" fill="#948fd8"/><path d="M18.02 40.28h61v7h-61z" stroke="#e94662" stroke-miterlimit="10" stroke-width=".75" fill="none"/><g clip-path="url(#clip-path)"><path d="M36.35 38.75H18.48a.54.54 0 01-.53-.54v-1a.54.54 0 01.53-.54h17.87a.54.54 0 01.54.54v1a.54.54 0 01-.54.54" fill="#fff"/></g><path d="M18.11 27.18h61v7h-61z" stroke="#e94662" stroke-miterlimit="10" stroke-width=".75" fill="none"/><g clip-path="url(#clip-path-2)"><path d="M36.35 25.87H18.48a.54.54 0 01-.53-.54v-1a.53.53 0 01.53-.53h17.87a.54.54 0 01.54.53v1a.54.54 0 01-.54.54" fill="#fff"/></g><path d="M14.28 13.16v1.56l-5.65 2.17v-1.5l3.95-1.45-3.95-1.46V11zm4.82 4.74a1.14 1.14 0 01-.33-.84 1.1 1.1 0 01.33-.83 1.16 1.16 0 01.82-.32 1.14 1.14 0 01.82.32 1.1 1.1 0 01.33.83 1.14 1.14 0 01-.33.84 1.08 1.08 0 01-.82.34 1.09 1.09 0 01-.82-.34zM26.07 8h1.65L23.8 19.34h-1.65zm5.83 9.83a1.81 1.81 0 01-.67.31 3.72 3.72 0 01-.84.1 2.48 2.48 0 01-1.76-.59 2.25 2.25 0 01-.63-1.73v-2.65h-1v-1.44h1v-1.57h1.85v1.57h1.59v1.44h-1.58v2.63a.89.89 0 00.21.63.75.75 0 00.58.22 1.16 1.16 0 00.75-.24zm6.85-5.52a2.9 2.9 0 01.73 2.14v3.69h-1.86v-3.41a1.69 1.69 0 00-.33-1.14 1.21 1.21 0 00-1-.38 1.48 1.48 0 00-1.12.44A1.86 1.86 0 0034.8 15v3.19H33V9.24h1.8v3.12a2.35 2.35 0 01.89-.57 3.25 3.25 0 011.14-.2 2.63 2.63 0 011.92.72zm8.68 3.13H42.6a1.51 1.51 0 00.62 1 2 2 0 001.21.35 2.42 2.42 0 00.88-.15 2.07 2.07 0 00.72-.48l1 1.08a3.3 3.3 0 01-2.64 1 4 4 0 01-1.91-.43 3 3 0 01-1.28-1.18 3.46 3.46 0 010-3.43 3.15 3.15 0 011.2-1.2 3.51 3.51 0 011.74-.43 3.56 3.56 0 011.7.41A2.91 2.91 0 0147 13.17a3.52 3.52 0 01.44 1.77s.02.19-.01.5zm-4.33-2.07a1.48 1.48 0 00-.52 1h3.14A1.51 1.51 0 0044.15 13a1.56 1.56 0 00-1.05.37zm4.66 4.77h5.94v1.08h-5.94zm13.11-6.45v5.37A3.45 3.45 0 0160 19.7a3.73 3.73 0 01-2.67.87 6.68 6.68 0 01-1.76-.23 3.7 3.7 0 01-1.38-.66l.74-1.34a3.07 3.07 0 001 .53 4.06 4.06 0 001.23.2 2 2 0 001.42-.44A1.75 1.75 0 0059 17.3V17a2.6 2.6 0 01-2 .8 3.39 3.39 0 01-1.61-.39 3.06 3.06 0 01-1.16-1.1 3.37 3.37 0 010-3.26A3.06 3.06 0 0155.39 12a3.39 3.39 0 011.61-.41 2.52 2.52 0 012.11.92v-.82zm-2.3 4.17a1.64 1.64 0 000-2.3 1.68 1.68 0 00-1.2-.43 1.71 1.71 0 00-1.21.43 1.62 1.62 0 000 2.3 1.71 1.71 0 001.21.44 1.69 1.69 0 001.2-.44zm8.88-3.56a2.77 2.77 0 01.8 2.16v3.68h-1.74v-.8a2.06 2.06 0 01-2 .9 3.09 3.09 0 01-1.22-.24 1.92 1.92 0 01-.83-.7 1.81 1.81 0 01-.28-1 1.66 1.66 0 01.67-1.41 3.36 3.36 0 012.07-.52h1.47a1.18 1.18 0 00-.37-.94 1.59 1.59 0 00-1.1-.33 3.12 3.12 0 00-1 .16 2.78 2.78 0 00-.84.44l-.66-1.31a3.69 3.69 0 011.25-.57 5.38 5.38 0 011.5-.21 3.33 3.33 0 012.28.69zm-1.58 4.46a1.19 1.19 0 00.52-.66v-.66h-1.27c-.76 0-1.14.25-1.14.76a.69.69 0 00.28.57A1.26 1.26 0 0065 17a1.67 1.67 0 00.87-.24zM80 12.3a3 3 0 01.7 2.15v3.69h-1.84v-3.41a1.74 1.74 0 00-.32-1.14 1.09 1.09 0 00-.89-.38 1.28 1.28 0 00-1 .43 1.79 1.79 0 00-.38 1.26v3.24h-1.89v-3.41c0-1-.4-1.52-1.21-1.52a1.27 1.27 0 00-1 .43 1.84 1.84 0 00-.38 1.26v3.24h-1.87v-6.45h1.77v.74a2.35 2.35 0 01.87-.62 2.78 2.78 0 011.13-.22 2.74 2.74 0 011.23.27 2.22 2.22 0 01.88.79 2.53 2.53 0 011-.78 3 3 0 011.31-.28 2.6 2.6 0 011.89.71zm8.67 3.14h-4.84a1.56 1.56 0 00.62 1 2.06 2.06 0 001.21.35 2.44 2.44 0 00.89-.15 2.27 2.27 0 00.72-.48l1 1.08a3.28 3.28 0 01-2.63 1 4.08 4.08 0 01-1.92-.43 3 3 0 01-1.28-1.18 3.28 3.28 0 01-.44-1.71 3.32 3.32 0 01.45-1.72 3.08 3.08 0 011.19-1.2 3.51 3.51 0 011.74-.43 3.59 3.59 0 011.7.41 3 3 0 011.19 1.17 3.52 3.52 0 01.43 1.77s-.01.21-.03.52zm-4.34-2.07a1.52 1.52 0 00-.52 1H87a1.58 1.58 0 00-.53-1 1.55 1.55 0 00-1-.36 1.6 1.6 0 00-1.14.36z" fill="#fff"/></g></g></g></g></g></svg>