<svg xmlns="http://www.w3.org/2000/svg" xmlns:xlink="http://www.w3.org/1999/xlink" viewBox="0 0 113.62 89.7"><defs><style>.cls-1{fill:none;}.cls-2{opacity:0.2;}.cls-3{clip-path:url(#clip-path);}.cls-4{fill:#cdc8f4;}.cls-5{fill:#aba2ea;}.cls-6{fill:#948fd8;}.cls-7{fill:#34256b;}</style><clipPath id="clip-path"><rect class="cls-1" y="81.45" width="113.62" height="8.24"/></clipPath></defs><title>pc</title><g id="Capa_2" data-name="Capa 2"><g id="Capa_1-2" data-name="Capa 1"><g class="cls-2"><g class="cls-3"><path d="M113.62,85.57c0,2.28-25.44,4.13-56.81,4.13S0,87.85,0,85.57s25.43-4.12,56.81-4.12,56.81,1.85,56.81,4.12"/></g></g><path class="cls-4" d="M104,57.83H6.1V4.11A4.12,4.12,0,0,1,10.21,0h90.63A3.12,3.12,0,0,1,104,3.11Z"/><path class="cls-5" d="M95.18,66.6H14.87A8.77,8.77,0,0,1,6.1,57.83H104a8.77,8.77,0,0,1-8.77,8.77"/><rect class="cls-4" x="46.08" y="66.6" width="17.76" height="14.78"/><rect class="cls-6" x="46.08" y="66.6" width="17.76" height="4.68"/><path class="cls-5" d="M75.48,87H34.43v-1.1A4.54,4.54,0,0,1,39,81.37H71a4.53,4.53,0,0,1,4.51,4.52Z"/><path class="cls-7" d="M98.19,4.22H11.73A1.53,1.53,0,0,0,10.2,5.75v45a1.54,1.54,0,0,0,1.53,1.54H98.19a1.54,1.54,0,0,0,1.53-1.54v-45a1.53,1.53,0,0,0-1.53-1.53"/><path class="cls-6" d="M57.38,61.92a2.77,2.77,0,1,1-2.77-2.77,2.76,2.76,0,0,1,2.77,2.77"/></g></g></svg>