<svg xmlns="http://www.w3.org/2000/svg" xmlns:xlink="http://www.w3.org/1999/xlink" viewBox="0 0 22.01 45"><defs><style>.cls-1{fill:none;}.cls-2{fill:#ed9596;}.cls-3{fill:#9a9a9a;}.cls-4{fill:#3a3a89;}.cls-5{fill:#f5c54e;}.cls-6{fill:#282928;}.cls-7{fill:#371c11;}.cls-8{fill:#fdd6b6;}.cls-9{fill:#f8ce71;}.cls-10{opacity:0.6;}.cls-11{clip-path:url(#clip-path);}.cls-12{fill:#a7d8d9;}.cls-13{fill:#4b53b2;}.cls-14{fill:#4442a0;}</style><clipPath id="clip-path"><rect class="cls-1" x="9.54" y="7.8" width="4.07" height="30.28"/></clipPath></defs><title>penholder</title><g id="Capa_2" data-name="Capa 2"><g id="mesas"><g id="_3D" data-name="3D"><g id="complementos_mesas" data-name="complementos mesas"><g id="portalapices"><path class="cls-2" d="M5.94,41.25c.73-.1,1.34-.09,1.22-.91L7,38.89l-2.72.38.19,1.45c.12.81.7.65,1.42.55Z"/><rect class="cls-3" x="4.17" y="38.26" width="2.75" height="0.83" transform="translate(-5.2 1.11) rotate(-7.81)"/><path class="cls-4" d="M20.06,19.54c0,.58-4.23,5.71-9.73,5.71S.16,20.12.16,19.54s4.68-.82,10.17-.82,9.73.23,9.73.82"/><rect class="cls-5" x="2.06" y="8.25" width="0.83" height="30.29" transform="translate(-3.16 0.55) rotate(-7.82)"/><rect class="cls-5" x="3.69" y="8" width="1.1" height="30.29" transform="translate(-3.11 0.79) rotate(-7.82)"/><rect class="cls-6" x="2.88" y="8.13" width="0.83" height="30.29" transform="translate(-3.13 0.66) rotate(-7.8)"/><polygon class="cls-7" points="0.82 2.26 0.55 4.2 1.42 4.08 0.82 2.26"/><polygon class="cls-8" points="2.73 8.07 1.42 4.08 0.55 4.2 0 8.44 2.73 8.07"/><path class="cls-2" d="M20.76,5.52c-.71-.17-1.27-.4-1.46.41L19,7.35,21.64,8,22,6.57c.19-.81-.41-.86-1.13-1Z"/><rect class="cls-3" x="19.79" y="6.7" width="0.83" height="2.75" transform="translate(7.68 25.87) rotate(-76.64)"/><rect class="cls-5" x="2.41" y="23.02" width="30.29" height="0.83" transform="translate(-9.3 35.1) rotate(-76.65)"/><rect class="cls-5" x="0.67" y="22.47" width="30.29" height="1.1" transform="translate(-10.24 33.09) rotate(-76.65)"/><rect class="cls-9" x="1.6" y="22.83" width="30.29" height="0.83" transform="translate(-9.73 34.18) rotate(-76.69)"/><polygon class="cls-7" points="11.46 43.73 12.41 42.02 11.55 41.82 11.46 43.73"/><polygon class="cls-8" points="11.78 37.63 11.55 41.82 12.41 42.02 14.46 38.26 11.78 37.63"/><path class="cls-6" d="M9.41,41.07l-.06-.83L7.45,10l-1.1.07-.83.05-.82,0L6.61,40.42l0,.82.09,1.46c0,.83.64.7,1.38.66h.09c.73-.05,1.33,0,1.28-.82Z"/><polygon class="cls-7" points="5.97 4.09 5.56 6 6.44 5.94 5.97 4.09"/><polygon class="cls-8" points="7.45 10.02 6.44 5.95 5.56 6 4.7 10.19 7.45 10.02"/><g class="cls-10"><g class="cls-11"><polygon class="cls-12" points="10.98 7.8 10.8 11.68 9.54 37.95 12.16 38.07 13.42 11.81 13.61 7.92 10.98 7.8"/></g></g><rect class="cls-12" x="-1.57" y="24.79" width="26.09" height="0.39" transform="translate(-14.06 35.18) rotate(-87.1)"/><path class="cls-13" d="M12.93,19c1.05.27,1.41-7.2,1.41-7.2S14.46.65,13.27.06,11,3.37,10.34,12.15l2.89.14Z"/><path class="cls-14" d="M.16,19.58C.42,23,1.3,44.05,3.91,44.47A42.18,42.18,0,0,0,9.53,45h1.05a42.4,42.4,0,0,0,5.73-.53c2.61-.42,3.49-21.52,3.75-24.89-3.78,2.28-19.48,1.35-19.9,0"/></g></g></g></g></g></svg>