<svg xmlns="http://www.w3.org/2000/svg" viewBox="0 0 22.01 45"><defs><clipPath id="c"><path fill="none" d="M9.54 7.8h4.07v30.28H9.54z"/></clipPath></defs><g data-name="Capa 2"><g data-name="3D"><g data-name="complementos mesas"><path d="M5.94 41.25c.73-.1 1.34-.09 1.22-.91L7 38.89l-2.72.38.19 1.45c.12.81.7.65 1.42.55z" fill="#ed9596"/><path d="M4.13 38.448l2.725-.373.113.822-2.725.374z" fill="#9a9a9a"/><path d="M20.06 19.54c0 .58-4.23 5.71-9.73 5.71S.16 20.12.16 19.54s4.68-.82 10.17-.82 9.73.23 9.73.82" fill="#3a3a89"/><path d="M.003 8.443l.823-.113 4.12 30.008-.821.113zM1.634 8.214l1.09-.15 4.121 30.008-1.09.15z" fill="#f5c54e"/><path d="M.827 8.324l.822-.113 4.11 30.01-.821.113z" fill="#282928"/><path d="M.82 2.26L.55 4.2l.87-.12-.6-1.82z" fill="#371c11"/><path d="M2.73 8.07L1.42 4.08l-.87.12L0 8.44l2.73-.37z" fill="#fdd6b6"/><path d="M20.76 5.52c-.71-.17-1.27-.4-1.46.41L19 7.35l2.64.65.36-1.43c.19-.81-.41-.86-1.13-1z" fill="#ed9596"/><path d="M18.772 8.164l.192-.808 2.675.636-.192.807z" fill="#9a9a9a"/><path d="M13.654 38.07L20.648 8.6l.807.192-6.994 29.471zM11.777 37.625l6.994-29.471 1.07.254-6.994 29.471z" fill="#f5c54e"/><path fill="#f8ce71" d="M12.855 37.879L19.83 8.403l.808.19-6.974 29.477z"/><path d="M11.46 43.73l.95-1.71-.86-.2-.09 1.91z" fill="#371c11"/><path d="M11.78 37.63l-.23 4.19.86.2 2.05-3.76-2.68-.63z" fill="#fdd6b6"/><path d="M9.41 41.07l-.06-.83L7.45 10l-1.1.07-.83.05H4.7l1.91 30.3v.82l.09 1.46c0 .83.64.7 1.38.66h.09c.73-.05 1.33 0 1.28-.82z" fill="#282928"/><path d="M5.97 4.09L5.56 6l.88-.06-.47-1.85z" fill="#371c11"/><path d="M7.45 10.02L6.44 5.95 5.56 6l-.86 4.19 2.75-.17z" fill="#fdd6b6"/><g clip-path="url(#c)" opacity=".6"><path d="M10.98 7.8l-.18 3.88-1.26 26.27 2.62.12 1.26-26.26.19-3.89-2.63-.12z" fill="#a7d8d9"/></g><path d="M10.62 38.002l1.32-26.056.389.02-1.32 26.056z" fill="#a7d8d9"/><path d="M12.93 19c1.05.27 1.41-7.2 1.41-7.2S14.46.65 13.27.06 11 3.37 10.34 12.15l2.89.14z" fill="#4b53b2"/><path d="M.16 19.58C.42 23 1.3 44.05 3.91 44.47a42.18 42.18 0 005.62.53h1.05a42.4 42.4 0 005.73-.53c2.61-.42 3.49-21.52 3.75-24.89-3.78 2.28-19.48 1.35-19.9 0" fill="#4442a0"/></g></g></g></svg>