<svg xmlns="http://www.w3.org/2000/svg" xmlns:xlink="http://www.w3.org/1999/xlink" viewBox="0 0 14.43 29.1"><defs><style>.cls-1{fill:none;}.cls-2{opacity:0.88;}.cls-3{clip-path:url(#clip-path);}.cls-4{fill:#b6375e;}.cls-5{fill:#ffaecf;}.cls-6{fill:#d4446f;}.cls-7{fill:#f5ffff;}</style><clipPath id="clip-path"><rect class="cls-1" width="14.43" height="29.1"/></clipPath></defs><title>rocket</title><g id="Capa_2" data-name="Capa 2"><g id="mesas"><g id="_3D" data-name="3D"><g id="complementos_mesas" data-name="complementos mesas"><g id="cohete" class="cls-2"><g class="cls-3"><path class="cls-4" d="M3.66,27.7c-2,0-3.66-2.23-3.66-5s1.64-5,3.66-5Z"/><path class="cls-4" d="M10.78,27.7c2,0,3.65-2.23,3.65-5s-1.63-5-3.65-5Z"/><path class="cls-5" d="M13.06,9.07c.13,1.52-.32,2.81-1,2.87s-1.35-1.13-1.48-2.65.31-2.81,1-2.87,1.35,1.13,1.49,2.65"/><path class="cls-5" d="M1.38,9.07c-.14,1.52.31,2.81,1,2.87s1.35-1.13,1.49-2.65-.32-2.81-1-2.87S1.51,7.55,1.38,9.07"/><path class="cls-6" d="M12.74,14.16c0,6.32-2.47,8.71-5.52,8.71s-5.53-2.39-5.53-8.71S4.16,0,7.22,0s5.52,7.84,5.52,14.16"/><path class="cls-4" d="M9.3,23.42c0,3.14-.93,5.68-2.08,5.68s-2.09-2.54-2.09-5.68.93-5.68,2.09-5.68S9.3,20.28,9.3,23.42"/><path class="cls-5" d="M9.77,9.54A2.56,2.56,0,1,1,7.22,7,2.56,2.56,0,0,1,9.77,9.54"/><path class="cls-7" d="M10.3,2.82C9.42,1.1,8.36,0,7.22,0S5,1.1,4.13,2.82Z"/><path class="cls-7" d="M1.75,15.82H12.68c0-.42.05-.86.05-1.31H1.7c0,.45,0,.89.05,1.31"/></g></g></g></g></g></g></svg>