<svg xmlns="http://www.w3.org/2000/svg" viewBox="0 0 14.43 29.1"><g opacity=".88"><path d="M3.66 27.7c-2 0-3.66-2.23-3.66-5s1.64-5 3.66-5zm7.12 0c2 0 3.65-2.23 3.65-5s-1.63-5-3.65-5z" fill="#b6375e"/><path d="M13.06 9.07c.13 1.52-.32 2.81-1 2.87s-1.35-1.13-1.48-2.65.31-2.81 1-2.87 1.35 1.13 1.49 2.65m-11.69 0c-.14 1.52.31 2.81 1 2.87s1.35-1.13 1.49-2.65-.32-2.81-1-2.87-1.36 1.13-1.49 2.65" fill="#ffaecf"/><path d="M12.74 14.16c0 6.32-2.47 8.71-5.52 8.71s-5.53-2.39-5.53-8.71S4.16 0 7.22 0s5.52 7.84 5.52 14.16" fill="#d4446f"/><path d="M9.3 23.42c0 3.14-.93 5.68-2.08 5.68s-2.09-2.54-2.09-5.68.93-5.68 2.09-5.68 2.08 2.54 2.08 5.68" fill="#b6375e"/><path d="M9.77 9.54A2.56 2.56 0 117.22 7a2.56 2.56 0 012.55 2.54" fill="#ffaecf"/><path d="M10.3 2.82C9.42 1.1 8.36 0 7.22 0S5 1.1 4.13 2.82zm-8.55 13h10.93c0-.42.05-.86.05-1.31H1.7c0 .45 0 .89.05 1.31" fill="#f5ffff"/></g></svg>