<svg xmlns="http://www.w3.org/2000/svg" viewBox="0 0 22.17 18.05"><path d="M5.18 8.14C1.84 9.26.54 7.69 0 6.56a.56.56 0 01.61-.74 9.67 9.67 0 003.63-.74z" fill="#ff7117"/><path d="M5 7.58C2 8.41.82 6.94.35 5.87a.53.53 0 00-.35.69c.5 1.13 1.8 2.7 5.14 1.58z" fill="#ff5f00"/><path d="M22.07 10.62c.26 1.89.07 4.31-1.3 5.85C19.63 17.74 17.59 18 15.9 18c-2.33 0-4.65 0-7-.06a5.51 5.51 0 01-3-.86A4.79 4.79 0 015.45 10a.62.62 0 00.06-.89 5.31 5.31 0 01-1.35-3.5A5.89 5.89 0 0110.38 0a5.89 5.89 0 016 5.63 5.21 5.21 0 01-.88 2.84.67.67 0 00.62 1 5.71 5.71 0 003.29-.73 5 5 0 001-.86.63.63 0 011.07.12 11.88 11.88 0 01.59 2.58" fill="#f3cc50"/><path d="M20.77 16.47c1.37-1.54 1.56-4 1.3-5.85A11.88 11.88 0 0021.48 8a.64.64 0 00-1.05-.16 5 5 0 01-1 .87 5.71 5.71 0 01-3.29.73.67.67 0 01-.62-1 5.21 5.21 0 00.88-2.84 5.89 5.89 0 00-6-5.63h-.51a6.34 6.34 0 014.77 2.58 4.73 4.73 0 01.87 2.63A5.31 5.31 0 0115 7.87a2.75 2.75 0 00-.51 1.41c.06.92 1 1.07 1.78 1.15a4.33 4.33 0 001.08 0 7.22 7.22 0 002.39-.78c.27-.14.83-.39 1.11-.11a1.27 1.27 0 01.32.87 25 25 0 010 2.74A5.42 5.42 0 0120 16.47C18.82 17.74 16.79 18 15.09 18h.81c1.69 0 3.73-.3 4.87-1.57" fill="#eeb900"/><path d="M7.75 4.86a.31.31 0 00.33-.3v-.85a.31.31 0 00-.33-.3.31.31 0 00-.32.3v.85a.31.31 0 00.32.3" fill="#7c7b7b"/><path d="M18.28 12.69a.38.38 0 00-.19-.57c-1.59 2.12-5.71 4.06-8 1.69a2.22 2.22 0 01-.54-.9 2 2 0 01-.09-.35 2.4 2.4 0 00.09 1.19 2.18 2.18 0 00.54.89c2.38 2.48 6.75.27 8.18-2" fill="#ff9500"/><path d="M9.56 13.75a2.7 2.7 0 01.84-2.84 3.47 3.47 0 013.53-.58c.7.29 1.37.82 2.07 1.18a6.57 6.57 0 002 .58.39.39 0 01.3.6c-1.43 2.22-5.8 4.43-8.18 2a2.28 2.28 0 01-.54-.9" fill="#fa0"/></svg>