<svg xmlns="http://www.w3.org/2000/svg" viewBox="0 0 26.12 23.34"><defs><style>.cls-1{fill:#fff;}</style></defs><title>rubberduck-silhouette</title><g id="Capa_2" data-name="Capa 2"><g id="pantallas"><g id="_2D" data-name="2D"><path class="cls-1" d="M26,13.73a16.33,16.33,0,0,0-.7-3.33.71.71,0,0,0-1.23-.21,5.87,5.87,0,0,1-1.15,1.13,6.3,6.3,0,0,1-3.87.93A.85.85,0,0,1,18.32,11,7.23,7.23,0,1,0,4.93,6.62a10.37,10.37,0,0,1-4.17.91.7.7,0,0,0-.71,1c.57,1.41,2,3.37,5.72,2.15a7.64,7.64,0,0,0,.72,1.12.85.85,0,0,1-.07,1.15c-2.43,2.36-2,7.2.61,9.23a6,6,0,0,0,3.49,1.11c2.73.14,5.47.1,8.21.09,2,0,4.39-.39,5.74-2C26.09,19.31,26.31,16.17,26,13.73Z"/></g></g></g></svg>