<svg xmlns="http://www.w3.org/2000/svg" viewBox="0 0 22.17 18.05"><defs><style>.cls-1{fill:#ff7117;}.cls-2{fill:#ff5f00;}.cls-3{fill:#f3cc50;}.cls-4{fill:#eeb900;}.cls-5{fill:#7c7b7b;}.cls-6{fill:#ff9500;}.cls-7{fill:#fa0;}</style></defs><title>rubberduck</title><g id="Capa_2" data-name="Capa 2"><g id="mesas"><g id="_3D" data-name="3D"><g id="complementos_mesas" data-name="complementos mesas"><g id="patito"><path class="cls-1" d="M5.18,8.14C1.84,9.26.54,7.69,0,6.56a.56.56,0,0,1,.61-.74,9.67,9.67,0,0,0,3.63-.74Z"/><path class="cls-2" d="M5,7.58C2,8.41.82,6.94.35,5.87A.53.53,0,0,0,0,6.56c.5,1.13,1.8,2.7,5.14,1.58Z"/><path class="cls-3" d="M22.07,10.62c.26,1.89.07,4.31-1.3,5.85C19.63,17.74,17.59,18,15.9,18c-2.33,0-4.65,0-7-.06a5.51,5.51,0,0,1-3-.86A4.79,4.79,0,0,1,5.45,10a.62.62,0,0,0,.06-.89,5.31,5.31,0,0,1-1.35-3.5A5.89,5.89,0,0,1,10.38,0a5.89,5.89,0,0,1,6,5.63,5.21,5.21,0,0,1-.88,2.84.67.67,0,0,0,.62,1,5.71,5.71,0,0,0,3.29-.73,5,5,0,0,0,1-.86A.63.63,0,0,1,21.48,8a11.88,11.88,0,0,1,.59,2.58"/><path class="cls-4" d="M20.77,16.47c1.37-1.54,1.56-4,1.3-5.85A11.88,11.88,0,0,0,21.48,8a.64.64,0,0,0-1.05-.16,5,5,0,0,1-1,.87,5.71,5.71,0,0,1-3.29.73.67.67,0,0,1-.62-1,5.21,5.21,0,0,0,.88-2.84,5.89,5.89,0,0,0-6-5.63H9.89a6.34,6.34,0,0,1,4.77,2.58,4.73,4.73,0,0,1,.87,2.63A5.31,5.31,0,0,1,15,7.87a2.75,2.75,0,0,0-.51,1.41c.06.92,1,1.07,1.78,1.15a4.33,4.33,0,0,0,1.08,0,7.22,7.22,0,0,0,2.39-.78c.27-.14.83-.39,1.11-.11a1.27,1.27,0,0,1,.32.87,25,25,0,0,1,0,2.74A5.42,5.42,0,0,1,20,16.47C18.82,17.74,16.79,18,15.09,18h.81c1.69,0,3.73-.3,4.87-1.57"/><path class="cls-5" d="M7.75,4.86a.31.31,0,0,0,.33-.3V3.71a.31.31,0,0,0-.33-.3.31.31,0,0,0-.32.3v.85a.31.31,0,0,0,.32.3"/><path class="cls-6" d="M18.28,12.69a.38.38,0,0,0-.19-.57c-1.59,2.12-5.71,4.06-8,1.69a2.22,2.22,0,0,1-.54-.9,2,2,0,0,1-.09-.35,2.4,2.4,0,0,0,.09,1.19,2.18,2.18,0,0,0,.54.89c2.38,2.48,6.75.27,8.18-2"/><path class="cls-7" d="M9.56,13.75a2.7,2.7,0,0,1,.84-2.84,3.47,3.47,0,0,1,3.53-.58c.7.29,1.37.82,2.07,1.18a6.57,6.57,0,0,0,2,.58.39.39,0,0,1,.3.6c-1.43,2.22-5.8,4.43-8.18,2a2.28,2.28,0,0,1-.54-.9"/></g></g></g></g></g></svg>