<svg xmlns="http://www.w3.org/2000/svg" xmlns:xlink="http://www.w3.org/1999/xlink" viewBox="0 0 220.14 270.93"><defs><style>.cls-1{fill:none;}.cls-2{fill:#34256b;}.cls-3{opacity:0.85;}.cls-4{clip-path:url(#clip-path);}.cls-5{fill:#ff7117;}.cls-6{fill:#ff5f00;}.cls-7{fill:#f3cc50;}.cls-8{fill:#eeb900;}.cls-9{fill:#fa0;}.cls-10{fill:#ff9500;}.cls-11{fill:#7c7b7b;}.cls-12{fill:#9287c6;}.cls-13{fill:#ebe6ff;opacity:0.11;}.cls-14{clip-path:url(#clip-path-2);}.cls-15{fill:#7966aa;}.cls-16{clip-path:url(#clip-path-3);}.cls-17{clip-path:url(#clip-path-4);}.cls-18{clip-path:url(#clip-path-5);}.cls-19{fill:#fff;}</style><clipPath id="clip-path"><rect class="cls-1" x="57.6" y="42.98" width="101.78" height="91.22"/></clipPath><clipPath id="clip-path-2"><rect class="cls-1" x="33.54" y="205.49" width="26.12" height="23.41" transform="translate(-4.05 0.91) rotate(-1.07)"/></clipPath><clipPath id="clip-path-3"><rect class="cls-1" x="126.8" y="205.49" width="26.12" height="23.41" transform="translate(-4.82 3.18) rotate(-1.28)"/></clipPath><clipPath id="clip-path-4"><rect class="cls-1" x="95.08" y="205.49" width="26.12" height="23.41" transform="translate(-4.4 2.25) rotate(-1.17)"/></clipPath><clipPath id="clip-path-5"><rect class="cls-1" x="64.42" y="205.49" width="26.12" height="23.41" transform="translate(-2.6 0.94) rotate(-0.69)"/></clipPath></defs><title>screen-rubberduck</title><g id="Capa_2" data-name="Capa 2"><g id="pantallas"><g id="_2D" data-name="2D"><g id="final"><g id="asimetrica_Final_" data-name="asimetrica [Final]"><g id="pantalla_patitos" data-name="pantalla patitos"><rect id="pantalla" class="cls-2" width="220.14" height="270.93"/><g id="patitos"><g id="patito" class="cls-3"><g class="cls-4"><path class="cls-5" d="M77.26,68.77s-9.6,4.36-16.7,3.74a2.72,2.72,0,0,0-2.76,3.7c2.27,5.68,8.26,13.64,23.58,8Z"/><path class="cls-6" d="M81.38,84.18c-15.32,5.67-21.31-2.29-23.58-8a2.69,2.69,0,0,1,1.4-3.46c2.19,5.4,7.75,12.77,21.42,8.6Z"/><path class="cls-7" d="M158.92,96.68a63.39,63.39,0,0,0-2.71-13,2.78,2.78,0,0,0-4.8-.79,25.05,25.05,0,0,1-4.48,4.37c-4.41,3.27-9.79,3.65-15.08,3.65A3.34,3.34,0,0,1,129,85.86,28.16,28.16,0,1,0,82.9,89a3.33,3.33,0,0,1-.27,4.49c-9.48,9.19-7.84,28.06,2.37,36,3.92,3,8.74,4.09,13.59,4.33,10.65.52,21.32.37,32,.33,7.79,0,17.13-1.53,22.36-7.93,6.31-7.73,7.18-20,6-29.46Z"/><path class="cls-8" d="M152.94,126.14c-5.23,6.4-14.57,7.9-22.36,7.93-5,0-7.5,0-3.69,0,7.79,0,17.13-1.53,22.36-7.93,3.87-4.74,5.21-10.93,5.56-16.91a122.32,122.32,0,0,0-.17-13.81A6.79,6.79,0,0,0,153.17,91c-1.26-1.42-3.82-.16-5.08.59a32.12,32.12,0,0,1-11,3.88,17.2,17.2,0,0,1-5,.24c-3.66-.42-7.91-1.19-8.16-5.81-.14-2.4,1.18-5,2.29-7.1,2-3.78,2.7-9.13,2.6-13.38a25.64,25.64,0,0,0-4-13.25,28.45,28.45,0,0,0-21.88-13c.75,0,1.5-.07,2.26-.06A28.16,28.16,0,0,1,129,85.86a3.34,3.34,0,0,0,2.87,5.06c5.29,0,10.67-.38,15.08-3.65a25.05,25.05,0,0,0,4.48-4.37,2.78,2.78,0,0,1,4.8.79,64.11,64.11,0,0,1,2.71,13c1.2,9.51.33,21.74-6,29.47Z"/></g><path class="cls-9" d="M101.47,112.45A12,12,0,0,0,104,117c10.94,12.49,31,1.32,37.57-9.83a2,2,0,0,0-1.37-3.05c-3.35-.66-6.18-1.24-9.12-2.92-3.18-1.82-6.28-4.45-9.5-5.93a14.76,14.76,0,0,0-16.17,2.92,14.44,14.44,0,0,0-3.89,14.31Z"/><path class="cls-10" d="M141.52,107.12c-6.58,11.15-26.63,22.32-37.57,9.83a12,12,0,0,1-2.48-4.5,13.71,13.71,0,0,1-.39-6,13.51,13.51,0,0,0,.39,1.76,12,12,0,0,0,2.48,4.5c10.5,12,29.38,2.18,36.71-8.49a2.06,2.06,0,0,1,.86,2.88Z"/><path class="cls-11" d="M93.19,67.66a1.49,1.49,0,0,1-1.49-1.49V61.85a1.49,1.49,0,0,1,3,0v4.32a1.49,1.49,0,0,1-1.49,1.49Z"/></g><g id="wanted"><path class="cls-12" d="M73.62,154.41l-6.17,19H61.68L58,161.87l-3.81,11.58H48.46l-6.17-19h5.55l3.83,12.16,4-12.16h4.95l3.83,12.27,4-12.27Z"/><path class="cls-12" d="M87.66,169.75h-8l-1.5,3.7H72.62l8.4-19h5.3l8.44,19H89.15Zm-1.58-4-2.45-6.09-2.45,6.09Z"/><path class="cls-12" d="M114.39,154.41v19H110l-8.4-10.14v10.14H96.28v-19h4.43l8.41,10.15V154.41Z"/><path class="cls-12" d="M122.25,158.68h-5.84v-4.27h17.05v4.27h-5.82v14.77h-5.39Z"/><path class="cls-12" d="M150.76,169.29v4.16H135.47v-19H150.4v4.17h-9.6v3.2h8.46v4H140.8v3.48Z"/><path class="cls-12" d="M153.75,154.41h9a12.58,12.58,0,0,1,5.55,1.17,8.79,8.79,0,0,1,3.75,3.32,10.11,10.11,0,0,1,0,10.06,8.73,8.73,0,0,1-3.75,3.32,12.58,12.58,0,0,1-5.55,1.17h-9Zm8.79,14.75a5.51,5.51,0,0,0,3.92-1.39,5.68,5.68,0,0,0,0-7.67,5.46,5.46,0,0,0-3.92-1.39h-3.41v10.45Z"/></g><g id="patitos-2" data-name="patitos"><rect id="fondo" class="cls-13" x="90.46" y="132.53" width="37.31" height="169.32" rx="15.25" ry="15.25" transform="translate(326.3 108.08) rotate(90)"/><g id="patitos-3" data-name="patitos"><g class="cls-14"><path class="cls-15" d="M38.5,212.26a10.85,10.85,0,0,1-4.27,1,.69.69,0,0,0-.69,1c.61,1.45,2.18,3.46,6.09,1.93Z"/><path class="cls-15" d="M39.63,216.19c-3.91,1.53-5.48-.48-6.09-1.93a.7.7,0,0,1,.34-.9c.59,1.38,2,3.24,5.54,2.11Z"/><path class="cls-15" d="M59.55,219.22a17.13,17.13,0,0,0-.7-3.34.72.72,0,0,0-1.23-.2,6.41,6.41,0,0,1-1.15,1.12,6.25,6.25,0,0,1-3.87.94.85.85,0,0,1-.74-1.29,7.23,7.23,0,1,0-11.82.8A.87.87,0,0,1,40,218.4c-2.43,2.36-2,7.2.61,9.23a6.11,6.11,0,0,0,3.49,1.11c2.73.13,5.47.09,8.21.08,2,0,4.39-.4,5.73-2,1.62-2,1.85-5.12,1.54-7.56Z"/><path class="cls-15" d="M58.19,226.61c-1.31,1.67-3.7,2.1-5.7,2.14l-1,0c2,0,4.39-.47,5.7-2.14a7.43,7.43,0,0,0,1.35-4.36,32.38,32.38,0,0,0-.11-3.55,1.75,1.75,0,0,0-.4-1.12c-.33-.36-1,0-1.3.18a8.18,8.18,0,0,1-2.8,1.05,4.48,4.48,0,0,1-1.27.08c-.94-.09-2-.26-2.12-1.45a3.77,3.77,0,0,1,.56-1.83,7.52,7.52,0,0,0,.6-3.45,6.52,6.52,0,0,0-1.1-3.38A7.28,7.28,0,0,0,45,205.58a5.52,5.52,0,0,1,.58,0,7.24,7.24,0,0,1,7.25,7.14,7.11,7.11,0,0,1-1,3.69.86.86,0,0,0,.76,1.29,6.29,6.29,0,0,0,3.85-1,6.77,6.77,0,0,0,1.13-1.14.71.71,0,0,1,1.23.18,16.32,16.32,0,0,1,.76,3.31c.36,2.44.19,5.58-1.39,7.59Z"/></g><path class="cls-15" d="M44.92,223.73a3,3,0,0,0,.65,1.14c2.87,3.16,8,.19,9.6-2.7a.53.53,0,0,0-.37-.77,7.28,7.28,0,0,1-2.35-.71c-.83-.45-1.64-1.11-2.47-1.48a3.78,3.78,0,0,0-4.13.83,3.7,3.7,0,0,0-.93,3.69Z"/><path class="cls-15" d="M55.17,222.17c-1.64,2.89-6.73,5.86-9.6,2.7a3,3,0,0,1-.65-1.14,3.44,3.44,0,0,1-.13-1.53,2.46,2.46,0,0,0,.11.45,3.18,3.18,0,0,0,.65,1.14c2.76,3,7.55.42,9.38-2.35a.53.53,0,0,1,.24.73Z"/><path class="cls-15" d="M42.58,212.28a.39.39,0,0,1-.39-.38l0-1.1a.37.37,0,0,1,.37-.39.37.37,0,0,1,.39.37l0,1.11a.38.38,0,0,1-.37.39Z"/><g class="cls-16"><path class="cls-15" d="M131.74,212.29a10.72,10.72,0,0,1-4.26,1.05.7.7,0,0,0-.69,1c.61,1.44,2.2,3.45,6.09,1.91Z"/><path class="cls-15" d="M132.88,216.22c-3.89,1.54-5.48-.47-6.09-1.91a.69.69,0,0,1,.34-.9c.59,1.37,2.06,3.23,5.54,2.08Z"/><path class="cls-15" d="M152.81,219.17a16.36,16.36,0,0,0-.71-3.33.71.71,0,0,0-1.23-.2,6.1,6.1,0,0,1-1.14,1.13,6.24,6.24,0,0,1-3.87.95.85.85,0,0,1-.74-1.29A7.23,7.23,0,0,0,139,205.5a7.22,7.22,0,0,0-7.3,7.25,7.14,7.14,0,0,0,1.61,4.52.85.85,0,0,1-.07,1.15c-2.42,2.37-2,7.21.65,9.23a6.12,6.12,0,0,0,3.49,1.1c2.74.12,5.47.07,8.21.05,2,0,4.39-.41,5.73-2.06,1.61-2,1.82-5.13,1.5-7.57Z"/><path class="cls-15" d="M151.48,226.57c-1.3,1.67-3.69,2.11-5.69,2.16-1.29,0-1.92.05-.95,0,2-.05,4.39-.48,5.7-2.16a7.51,7.51,0,0,0,1.33-4.37,32.13,32.13,0,0,0-.13-3.54,1.75,1.75,0,0,0-.4-1.12c-.33-.36-1,0-1.3.18a8.15,8.15,0,0,1-2.79,1.06,4.51,4.51,0,0,1-1.27.09c-.94-.09-2-.26-2.13-1.44a3.79,3.79,0,0,1,.55-1.84,7.39,7.39,0,0,0,.59-3.45,6.56,6.56,0,0,0-1.11-3.37,7.27,7.27,0,0,0-5.69-3.2l.58,0a7.25,7.25,0,0,1,7.29,7.12,7.11,7.11,0,0,1-1,3.69.87.87,0,0,0,.77,1.29,6.21,6.21,0,0,0,3.85-1,6.36,6.36,0,0,0,1.12-1.14.72.72,0,0,1,1.24.17,16.29,16.29,0,0,1,.77,3.32c.36,2.43.21,5.57-1.37,7.59Z"/></g><path class="cls-15" d="M138.2,223.35a3,3,0,0,0,.66,1.15c2.88,3.14,8,.16,9.58-2.74a.53.53,0,0,0-.36-.78,7.24,7.24,0,0,1-2.36-.69c-.83-.45-1.64-1.11-2.47-1.47a3.8,3.8,0,0,0-4.14.84,3.71,3.71,0,0,0-.91,3.69Z"/><path class="cls-15" d="M148.44,221.76c-1.62,2.9-6.7,5.88-9.58,2.74a3,3,0,0,1-.66-1.15,3.59,3.59,0,0,1-.14-1.53,3.74,3.74,0,0,0,.12.45,2.92,2.92,0,0,0,.66,1.14c2.76,3,7.55.39,9.37-2.39a.53.53,0,0,1,.23.74Z"/><path class="cls-15" d="M135.82,211.91a.38.38,0,0,1-.39-.37l0-1.11a.39.39,0,0,1,.38-.39.38.38,0,0,1,.39.37l0,1.11a.38.38,0,0,1-.37.39Z"/><g class="cls-17"><path class="cls-15" d="M100,212.27a10.72,10.72,0,0,1-4.26,1,.7.7,0,0,0-.7,1c.62,1.45,2.2,3.46,6.1,1.92Z"/><path class="cls-15" d="M101.16,216.2c-3.9,1.54-5.48-.47-6.1-1.92a.7.7,0,0,1,.35-.9c.59,1.38,2,3.24,5.54,2.1Z"/><path class="cls-15" d="M121.08,219.2a16.43,16.43,0,0,0-.7-3.34.72.72,0,0,0-1.23-.2,6.47,6.47,0,0,1-1.15,1.13,6.24,6.24,0,0,1-3.87.94.85.85,0,0,1-.74-1.29,7.22,7.22,0,1,0-11.82.82.85.85,0,0,1-.07,1.15c-2.43,2.37-2,7.2.63,9.23a6.1,6.1,0,0,0,3.49,1.1c2.73.13,5.47.08,8.21.07,2,0,4.39-.4,5.73-2.05,1.62-2,1.84-5.13,1.52-7.56Z"/><path class="cls-15" d="M119.74,226.59c-1.31,1.67-3.7,2.11-5.7,2.15-1.29,0-1.92,0-1,0,2,0,4.39-.48,5.7-2.15a7.42,7.42,0,0,0,1.34-4.36,32.39,32.39,0,0,0-.12-3.55,1.75,1.75,0,0,0-.4-1.12c-.33-.35-1,0-1.3.18a8.36,8.36,0,0,1-2.79,1.06,4.51,4.51,0,0,1-1.27.08c-.94-.09-2-.26-2.13-1.44a3.8,3.8,0,0,1,.56-1.84,7.37,7.37,0,0,0,.59-3.44,6.56,6.56,0,0,0-1.1-3.38,7.32,7.32,0,0,0-5.68-3.22l.58,0a7.25,7.25,0,0,1,7.27,7.13,7.17,7.17,0,0,1-1,3.7.86.86,0,0,0,.76,1.28,6.27,6.27,0,0,0,3.85-1,6.42,6.42,0,0,0,1.13-1.14.71.71,0,0,1,1.23.18,16.2,16.2,0,0,1,.77,3.31c.35,2.44.19,5.58-1.38,7.59Z"/></g><path class="cls-15" d="M106.46,223.35a2.92,2.92,0,0,0,.66,1.14c2.87,3.15,8,.18,9.59-2.72a.53.53,0,0,0-.37-.77,7.27,7.27,0,0,1-2.35-.7c-.83-.45-1.64-1.11-2.47-1.47a3.79,3.79,0,0,0-4.14.83,3.72,3.72,0,0,0-.92,3.69Z"/><path class="cls-15" d="M116.71,221.77c-1.63,2.9-6.72,5.87-9.59,2.72a2.92,2.92,0,0,1-.66-1.14,3.45,3.45,0,0,1-.13-1.53,2.46,2.46,0,0,0,.11.45,3.07,3.07,0,0,0,.66,1.14c2.75,3,7.55.41,9.37-2.37a.53.53,0,0,1,.24.73Z"/><path class="cls-15" d="M104.1,211.9a.37.37,0,0,1-.39-.37l0-1.11a.37.37,0,0,1,.37-.39.38.38,0,0,1,.39.37l0,1.11a.39.39,0,0,1-.38.39Z"/><g class="cls-18"><path class="cls-15" d="M69.4,212.2a10.66,10.66,0,0,1-4.27,1,.7.7,0,0,0-.7,1c.6,1.45,2.16,3.47,6.08,2Z"/><path class="cls-15" d="M70.51,216.15c-3.91,1.49-5.48-.53-6.08-2a.69.69,0,0,1,.35-.89c.58,1.38,2,3.25,5.52,2.14Z"/><path class="cls-15" d="M90.41,219.3a16.28,16.28,0,0,0-.68-3.33.71.71,0,0,0-1.23-.21,6.43,6.43,0,0,1-1.16,1.11,6.22,6.22,0,0,1-3.87.91.85.85,0,0,1-.73-1.3,7.15,7.15,0,0,0,1.06-3.67,7.23,7.23,0,1,0-14.45-.14,7.17,7.17,0,0,0,1.56,4.53.85.85,0,0,1-.08,1.15c-2.44,2.35-2,7.19.56,9.24a6,6,0,0,0,3.48,1.13c2.73.15,5.47.13,8.2.13,2,0,4.4-.36,5.75-2,1.64-2,1.88-5.12,1.59-7.56Z"/><path class="cls-15" d="M89,226.69c-1.32,1.66-3.72,2.07-5.71,2.1-1.3,0-1.93,0-1,0,2,0,4.39-.45,5.71-2.11a7.43,7.43,0,0,0,1.38-4.35,32.37,32.37,0,0,0-.09-3.55,1.68,1.68,0,0,0-.39-1.12c-.33-.36-1,0-1.3.17a8.43,8.43,0,0,1-2.8,1,4.18,4.18,0,0,1-1.27.07c-.94-.09-2-.28-2.12-1.46a3.75,3.75,0,0,1,.57-1.83,7.5,7.5,0,0,0,.63-3.44,6.68,6.68,0,0,0-1.07-3.39,7.3,7.3,0,0,0-5.66-3.26,5.52,5.52,0,0,1,.58,0,7.23,7.23,0,0,1,6.22,10.88.86.86,0,0,0,.75,1.29,6.22,6.22,0,0,0,3.86-1,6,6,0,0,0,1.13-1.13.72.72,0,0,1,1.24.19,16.33,16.33,0,0,1,.73,3.32c.34,2.44.15,5.58-1.44,7.58Z"/></g><path class="cls-15" d="M75.75,223.34a3.1,3.1,0,0,0,.65,1.14c2.85,3.18,8,.25,9.61-2.64a.52.52,0,0,0-.36-.77,7.3,7.3,0,0,1-2.35-.72c-.82-.46-1.62-1.13-2.46-1.5a3.79,3.79,0,0,0-4.14.8,3.72,3.72,0,0,0-1,3.69Z"/><path class="cls-15" d="M86,221.84c-1.65,2.89-6.76,5.82-9.61,2.64a3.1,3.1,0,0,1-.65-1.14,3.63,3.63,0,0,1-.12-1.54,3,3,0,0,0,.11.45,3,3,0,0,0,.65,1.15c2.73,3,7.54.47,9.39-2.29a.52.52,0,0,1,.23.73Z"/><path class="cls-15" d="M73.49,211.87a.39.39,0,0,1-.39-.38v-1.11a.38.38,0,0,1,.76,0l0,1.11a.39.39,0,0,1-.38.39Z"/><path class="cls-19" d="M184.54,218.56a16.43,16.43,0,0,0-.7-3.34.72.72,0,0,0-1.23-.2,5.82,5.82,0,0,1-1.15,1.12,6.24,6.24,0,0,1-3.87.94.86.86,0,0,1-.73-1.3,7.16,7.16,0,0,0,1-3.67,7.22,7.22,0,0,0-14.42-.67,10.34,10.34,0,0,1-4.17.92.69.69,0,0,0-.71.94c.57,1.42,2,3.37,5.72,2.16a8.21,8.21,0,0,0,.72,1.12.85.85,0,0,1-.07,1.15c-2.43,2.36-2,7.2.61,9.23a6,6,0,0,0,3.49,1.11c2.73.13,5.47.09,8.21.08,2,0,4.39-.39,5.74-2C184.63,224.14,184.85,221,184.54,218.56Z"/></g></g></g></g></g></g></g></g></g></svg>