<svg xmlns="http://www.w3.org/2000/svg" viewBox="0 0 556.56 373.67"><path fill="#34256b" d="M0 0h556.56v373.67H0z"/><path d="M95.94 133.8v66.47H89v-30.68H47.41v30.68h-7V133.8h7v29.63h41.6V133.8zm63.3 48.76h-37l-8 17.75h-7.31l30.43-66.45h6.93l30.34 66.5h-7.4zm-2.56-5.7l-15.93-35.72-16 35.7zm39.07 19.68a32 32 0 01-12.44-12.11 35.59 35.59 0 010-34.66 31.9 31.9 0 0112.5-12.1 38.8 38.8 0 0131.52-1.88A28.53 28.53 0 01238 143l-4.47 4.46q-7.78-7.87-19.65-7.89a28.88 28.88 0 00-14.35 3.6 26.37 26.37 0 00-10.12 9.87 28.87 28.87 0 000 28.1A26.47 26.47 0 00199.5 191a28.93 28.93 0 0014.34 3.62q12 0 19.66-8l4.46 4.47a28.84 28.84 0 01-10.69 7.26 36.66 36.66 0 01-13.72 2.5 36.15 36.15 0 01-17.8-4.31zm77.84-27.39L260 182.91v17.48h-7v-66.47h7v40.17l39.06-40.14h8.07L278.34 164l30.74 36.39h-8.36zm51.31 24.54q-7.9-7.89-7.9-22.51V134h15.38v36.65q0 17.85 14.8 17.86 7.21 0 11-4.31t3.8-13.53L362 134h15.19v37.22q0 14.63-7.95 22.5t-22.18 7.87q-14.23-.01-22.16-7.9zM436.52 137A22 22 0 01450 158.17a23.11 23.11 0 01-3.52 12.77 22.41 22.41 0 01-10 8.35 37.28 37.28 0 01-15.33 2.88h-13.39v18.33h-15.4l.05-66.47h28.77a37 37 0 0115.34 2.97zm-5.68 29.67q3.62-3 3.62-8.49t-3.6-8.6q-3.62-3-10.54-3h-12.54v23.08h12.52q6.93-.02 10.54-3.01zm44.47 30.59a32.81 32.81 0 01-12.9-12.26 35.72 35.72 0 010-35.42 33 33 0 0112.92-12.24 41.24 41.24 0 0134.1-1.35 31.36 31.36 0 0111.72 8.74l-9.88 9.11a21.25 21.25 0 00-16.71-7.79 22.13 22.13 0 00-11 2.69 19.23 19.23 0 00-7.55 7.55 23.74 23.74 0 000 22 19.21 19.21 0 007.54 7.55 22.15 22.15 0 0011 2.72 21.17 21.17 0 0016.72-7.87l9.87 9.12a30.76 30.76 0 01-11.79 8.82 38.83 38.83 0 01-15.67 3 38.09 38.09 0 01-18.37-4.37zM53.29 224.06V227l-6.95 16.63h-4.7l6.7-15.87h-6.19v3.18H38.3v-6.87zm5.26 18.69a8 8 0 01-2.85-3.48 14.85 14.85 0 010-10.87 8 8 0 012.85-3.47 7.74 7.74 0 018.28 0 8 8 0 012.84 3.47 14.85 14.85 0 010 10.87 7.92 7.92 0 01-2.84 3.48 7.74 7.74 0 01-8.28 0zm6.82-4.16a12 12 0 000-9.5 3.08 3.08 0 00-5.34 0 12.12 12.12 0 000 9.5 3.09 3.09 0 005.34 0zm11.31 4.16a7.92 7.92 0 01-2.84-3.48 14.85 14.85 0 010-10.87 8 8 0 012.84-3.47 7.74 7.74 0 018.28 0 8 8 0 012.85 3.47 14.85 14.85 0 010 10.87 8 8 0 01-2.81 3.48 7.74 7.74 0 01-8.28 0zm6.83-4.16a12.12 12.12 0 000-9.5 3 3 0 00-2.69-1.54 3 3 0 00-2.65 1.54 12 12 0 000 9.5 3 3 0 002.65 1.53 3 3 0 002.69-1.53zm33.32-14.53v19.56h-4.33v-8H104v8h-4.32v-19.56H104v7.71h8.49v-7.71zm16.74 15.37h-8.68l-1.65 4.19h-4.44l8.34-19.56h4.27l8.36 19.56h-4.54zm-1.36-3.43l-3-7.49-3 7.49zm13.02 6.65a9.44 9.44 0 01-3.63-3.6 10.94 10.94 0 010-10.42 9.47 9.47 0 013.63-3.61 11.19 11.19 0 019.59-.4 8.85 8.85 0 013.3 2.57l-2.78 2.68a5.85 5.85 0 00-4.7-2.29 6 6 0 00-3.1.8 5.6 5.6 0 00-2.12 2.22 7.29 7.29 0 000 6.48 5.6 5.6 0 002.12 2.22 6 6 0 003.1.8 5.85 5.85 0 004.7-2.32l2.78 2.68a8.78 8.78 0 01-3.31 2.6 10.69 10.69 0 01-4.41.89 10.34 10.34 0 01-5.17-1.3zm22.61-6.72l-2.51 2.74v5H161v-19.61h4.3v9.14l8.28-9.14h4.81l-7.75 8.72 8.2 10.84h-5zm27.43 4.07v3.64H180.8v-19.58h14.13v3.63h-9.83v4.25h8.68v3.52h-8.68V240zm15.36 3.62l-3.6-5.45h-4v5.45h-4.33v-19.56h8.09a10 10 0 014.32.87 6.43 6.43 0 012.81 2.46 7 7 0 011 3.77 6.82 6.82 0 01-1 3.75 6.43 6.43 0 01-2.84 2.42l4.19 6.29zm-1.09-15a4.41 4.41 0 00-3-.88h-3.52v6.81h3.52a4.36 4.36 0 003-.89 3.65 3.65 0 000-5zm10.67 14.7a10 10 0 01-3.33-1.63l1.47-3.41a9.77 9.77 0 002.86 1.48 10.36 10.36 0 003.31.56 5.08 5.08 0 002.72-.57 1.76 1.76 0 00.89-1.53 1.5 1.5 0 00-.53-1.16 4 4 0 00-1.33-.74c-.54-.18-1.28-.39-2.2-.61a29.3 29.3 0 01-3.5-1.06 5.69 5.69 0 01-2.34-1.71 4.72 4.72 0 01-1-3.12 5.61 5.61 0 01.89-3.09 6 6 0 012.65-2.19 10.48 10.48 0 014.34-.81 13.65 13.65 0 013.5.44 10 10 0 013 1.29l-1.33 3.43a10.14 10.14 0 00-5.18-1.53 4.71 4.71 0 00-2.69.61 1.89 1.89 0 00-.86 1.62 1.59 1.59 0 001 1.5 15.54 15.54 0 003.06 1 29.07 29.07 0 013.49 1.06 5.8 5.8 0 012.34 1.68 4.63 4.63 0 011 3.1 5.48 5.48 0 01-.9 3.06 6.09 6.09 0 01-2.68 2.19 10.57 10.57 0 01-4.36.81 14.59 14.59 0 01-4.29-.67zM392.33 234a5.46 5.46 0 011.31 3.71 5.9 5.9 0 01-3.47 5.47 9.61 9.61 0 01-4.3.86 14.21 14.21 0 01-3.89-.54 9.69 9.69 0 01-3.26-1.56l1.69-3.47a7.81 7.81 0 002.48 1.3 9.1 9.1 0 002.88.47 4.41 4.41 0 002.57-.66 2.16 2.16 0 00.94-1.87q0-2.4-3.51-2.4h-2v-3l3.85-4.57h-8v-3.64h13.12v2.9l-4.23 5a6.29 6.29 0 013.82 2zm15.61-1.86a5.8 5.8 0 012.33 2.14 6 6 0 01.86 3.21 6.25 6.25 0 01-.94 3.44 6.18 6.18 0 01-2.56 2.29 8.06 8.06 0 01-3.6.79 7.79 7.79 0 01-6.16-2.52q-2.22-2.52-2.22-7.2a12.57 12.57 0 011.2-5.71 8.43 8.43 0 013.37-3.61 9.87 9.87 0 015-1.23 11.36 11.36 0 012.88.35 7.37 7.37 0 012.34 1l-1.6 3.33a6 6 0 00-3.51-1 5 5 0 00-3.78 1.46 6.24 6.24 0 00-1.5 4.23 6.1 6.1 0 014.63-1.74 7 7 0 013.26.77zm-1.89 7.7a2.72 2.72 0 00.88-2.13 2.77 2.77 0 00-.88-2.14 3.71 3.71 0 00-4.64 0 2.92 2.92 0 000 4.21 3.39 3.39 0 002.41.82 3.26 3.26 0 002.23-.76zm32.61-15.77v19.61h-4.34v-8h-8.51v8h-4.34v-19.61h4.34v7.73h8.51v-7.73zm8.26 18.63a9.62 9.62 0 01-3.67-3.63 10.88 10.88 0 010-10.39 9.62 9.62 0 013.67-3.63 11.22 11.22 0 0110.52 0 9.76 9.76 0 013.67 3.63 10.81 10.81 0 010 10.39 9.76 9.76 0 01-3.67 3.63 11.22 11.22 0 01-10.52 0zm8.27-3.35a5.58 5.58 0 002.1-2.23 7.31 7.31 0 000-6.49 5.58 5.58 0 00-2.1-2.23 6 6 0 00-6 0 5.54 5.54 0 00-2.11 2.23 7.31 7.31 0 000 6.49 5.54 5.54 0 002.11 2.23 6 6 0 006 0zm12.6 2.34a9.2 9.2 0 01-2.24-6.64v-11h4.34v10.81q0 5.26 4.18 5.27a3.82 3.82 0 003.1-1.27 6.13 6.13 0 001.08-4v-10.79h4.28v11c0 2.88-.74 5.09-2.24 6.64a9.58 9.58 0 01-12.5 0zm30.97 1.99l-3.61-5.46h-4v5.46h-4.34v-19.61h8.11a10 10 0 014.33.87 6.53 6.53 0 012.82 2.46 7.07 7.07 0 011 3.79 6.85 6.85 0 01-1 3.76 6.42 6.42 0 01-2.85 2.43l4.2 6.3zm-1.1-15a4.39 4.39 0 00-3-.88h-3.53v6.83h3.53a4.39 4.39 0 003-.89 3.65 3.65 0 000-5.06zm10.7 14.71a10 10 0 01-3.33-1.64l1.47-3.42a9.83 9.83 0 002.87 1.48 10.11 10.11 0 003.32.56 5.14 5.14 0 002.73-.57 1.74 1.74 0 00.88-1.53 1.49 1.49 0 00-.52-1.16 3.74 3.74 0 00-1.34-.74c-.54-.19-1.28-.39-2.21-.62a30.12 30.12 0 01-3.51-1.06 5.78 5.78 0 01-2.34-1.71 4.78 4.78 0 01-1-3.14 5.61 5.61 0 01.89-3.09 5.93 5.93 0 012.66-2.2 10.49 10.49 0 014.35-.81 14.18 14.18 0 013.51.44 10.11 10.11 0 013 1.29l-1.34 3.45a10.06 10.06 0 00-5.19-1.54 4.69 4.69 0 00-2.69.61 1.92 1.92 0 00-.88 1.63 1.6 1.6 0 001 1.5 15.23 15.23 0 003.07 1 29.68 29.68 0 013.5 1.07 5.67 5.67 0 012.35 1.68 4.64 4.64 0 011 3.11 5.48 5.48 0 01-.9 3.06 6.07 6.07 0 01-2.69 2.2 10.59 10.59 0 01-4.37.81 14.76 14.76 0 01-4.29-.66z" fill="#fff"/></svg>