<svg xmlns="http://www.w3.org/2000/svg" viewBox="0 0 453.57 96.81"><defs><style>.cls-1{fill:#34256b;}.cls-2{fill:none;stroke:#7966aa;stroke-linecap:round;}.cls-2,.cls-3{stroke-miterlimit:10;stroke-width:4px;}.cls-3,.cls-4{fill:#9287c6;}.cls-3{stroke:#34256b;}</style></defs><title>screen-timeline</title><g id="Capa_2" data-name="Capa 2"><g id="pantallas"><g id="_2D" data-name="2D"><g id="final"><g id="asimetrica_Final_" data-name="asimetrica [Final]"><g id="pantalla_timeline" data-name="pantalla timeline"><rect id="pantalla" class="cls-1" x="178.38" y="-178.38" width="96.81" height="453.57" transform="translate(275.19 -178.38) rotate(90)"/><g id="timeline"><line class="cls-2" x1="40.62" y1="48.5" x2="402.36" y2="48.5"/><circle class="cls-3" cx="376.47" cy="48.48" r="8.72"/><circle class="cls-3" cx="324.97" cy="48.49" r="8.72"/><circle class="cls-3" cx="273.23" cy="48.49" r="8.72"/><circle class="cls-3" cx="221.49" cy="48.5" r="8.72"/><circle class="cls-3" cx="134.49" cy="48.51" r="8.72"/><circle class="cls-3" cx="64.88" cy="48.52" r="8.72"/><rect class="cls-4" x="30.92" y="11.2" width="68.8" height="23.02" rx="11.51" ry="11.51"/><path class="cls-1" d="M88.21,36.23H42.43a13.52,13.52,0,0,1,0-27H88.21a13.52,13.52,0,1,1,0,27Zm-45.78-23a9.51,9.51,0,0,0,0,19H88.21a9.51,9.51,0,1,0,0-19Z"/><path class="cls-1" d="M57.58,24.68v2.05H50.47V25.11l3.42-3.19a3.42,3.42,0,0,0,.67-.81,1.48,1.48,0,0,0,.17-.67.86.86,0,0,0-.3-.69,1.38,1.38,0,0,0-.88-.25,1.94,1.94,0,0,0-.93.23,1.92,1.92,0,0,0-.7.66L50,19.32a3.79,3.79,0,0,1,1.51-1.4,5.26,5.26,0,0,1,4.12-.17,2.84,2.84,0,0,1,1.26,1,2.45,2.45,0,0,1,.45,1.46A3.24,3.24,0,0,1,57,21.6a5.56,5.56,0,0,1-1.24,1.49l-1.72,1.59Z"/><path class="cls-1" d="M60.27,26.35a3.78,3.78,0,0,1-1.43-1.64,5.86,5.86,0,0,1-.51-2.55,5.92,5.92,0,0,1,.51-2.55A3.81,3.81,0,0,1,60.27,18a4.1,4.1,0,0,1,4.17,0,3.79,3.79,0,0,1,1.42,1.63,5.78,5.78,0,0,1,.52,2.55,5.72,5.72,0,0,1-.52,2.55,3.76,3.76,0,0,1-1.42,1.64,4.16,4.16,0,0,1-4.17,0Zm3.13-2.18a4.1,4.1,0,0,0,.38-2,4.06,4.06,0,0,0-.38-2,1.17,1.17,0,0,0-1-.63,1.19,1.19,0,0,0-1,.63,4,4,0,0,0-.38,2,4,4,0,0,0,.38,2,1.19,1.19,0,0,0,1,.63A1.17,1.17,0,0,0,63.4,24.17Z"/><path class="cls-1" d="M71.08,17.6v9.13H68.49V19.59H66.8v-2Z"/><path class="cls-1" d="M78.89,18.58A4.55,4.55,0,0,1,80,21.92a5.65,5.65,0,0,1-.61,2.69,4.17,4.17,0,0,1-1.71,1.72,5.36,5.36,0,0,1-2.55.58,6.52,6.52,0,0,1-1.48-.17,4.17,4.17,0,0,1-1.19-.49l.93-1.86a2.83,2.83,0,0,0,1.69.47,2.14,2.14,0,0,0,2.29-2.11,3.06,3.06,0,0,1-2.05.67,3.42,3.42,0,0,1-1.57-.36,2.81,2.81,0,0,1-1.14-1,2.67,2.67,0,0,1-.43-1.51,2.84,2.84,0,0,1,.48-1.63A3,3,0,0,1,74,17.8a4.58,4.58,0,0,1,4.91.78Zm-2,2.66a1.05,1.05,0,0,0,.35-.84,1.09,1.09,0,0,0-.34-.83,1.33,1.33,0,0,0-.93-.32,1.29,1.29,0,0,0-.9.32,1.09,1.09,0,0,0-.34.85,1.07,1.07,0,0,0,.34.83,1.29,1.29,0,0,0,.91.31A1.27,1.27,0,0,0,76.88,21.24Z"/><rect class="cls-3" x="183.06" y="4.6" width="76.86" height="29.3" rx="14.6" ry="14.6"/><path class="cls-1" d="M213.08,16.61v2.05H206V17l3.42-3.19a3.33,3.33,0,0,0,.66-.81,1.36,1.36,0,0,0,.17-.67.85.85,0,0,0-.3-.69,1.31,1.31,0,0,0-.87-.25,1.94,1.94,0,0,0-.93.23,1.77,1.77,0,0,0-.7.66l-1.92-1.07a3.82,3.82,0,0,1,1.5-1.4,5.28,5.28,0,0,1,4.13-.17,2.81,2.81,0,0,1,1.25,1,2.45,2.45,0,0,1,.45,1.46,3.1,3.1,0,0,1-.32,1.41A5.45,5.45,0,0,1,211.28,15l-1.72,1.59Z"/><path class="cls-1" d="M215.77,18.28a3.72,3.72,0,0,1-1.43-1.64,5.86,5.86,0,0,1-.51-2.55,5.92,5.92,0,0,1,.51-2.55,3.69,3.69,0,0,1,1.43-1.63,4.08,4.08,0,0,1,4.16,0,3.69,3.69,0,0,1,1.43,1.63,5.92,5.92,0,0,1,.52,2.55,5.86,5.86,0,0,1-.52,2.55,3.72,3.72,0,0,1-1.43,1.64,4.14,4.14,0,0,1-4.16,0Zm3.12-2.18a4,4,0,0,0,.39-2,3.93,3.93,0,0,0-.39-2,1.17,1.17,0,0,0-2.08,0,3.93,3.93,0,0,0-.39,2,4,4,0,0,0,.39,2,1.17,1.17,0,0,0,2.08,0Z"/><path class="cls-1" d="M226.57,9.53v9.13H224V11.52h-1.7v-2Z"/><path class="cls-1" d="M235.37,9.53v1.61l-3.23,7.52h-2.82l3.08-7.08H230V13h-2.2V9.53Z"/><path class="cls-1" d="M211.3,23.88v1.55h3.1V27h-3.1v2.41h-2v-7h5.52v1.54Z"/><path class="cls-1" d="M220.19,28h-3l-.55,1.37h-2l3.11-7h1.95l3.11,7h-2.06Zm-.58-1.46-.9-2.25-.9,2.25Z"/><path class="cls-1" d="M223.38,22.34h2v5.45h3.35v1.58h-5.33Z"/><path class="cls-1" d="M229.5,22.34h2v5.45h3.36v1.58H229.5Z"/><rect class="cls-4" x="100.08" y="64.82" width="68.8" height="23.02" rx="11.51" ry="11.51"/><path class="cls-1" d="M157.37,89.85H111.6a13.52,13.52,0,0,1,0-27h45.77a13.52,13.52,0,0,1,0,27Zm-45.77-23a9.51,9.51,0,1,0,0,19h45.77a9.51,9.51,0,1,0,0-19Z"/><path class="cls-1" d="M126.62,78.3v2h-7.11V78.73l3.42-3.2a3.14,3.14,0,0,0,.66-.8,1.39,1.39,0,0,0,.17-.67.87.87,0,0,0-.3-.7,1.37,1.37,0,0,0-.87-.24,1.9,1.9,0,0,0-.94.23A1.87,1.87,0,0,0,121,74L119,72.93a3.8,3.8,0,0,1,1.5-1.39,4.8,4.8,0,0,1,2.28-.51,4.66,4.66,0,0,1,1.85.34,2.84,2.84,0,0,1,1.25,1,2.46,2.46,0,0,1,.45,1.47,3.09,3.09,0,0,1-.32,1.4,5.17,5.17,0,0,1-1.23,1.49l-1.72,1.6Z"/><path class="cls-1" d="M129.31,80a3.77,3.77,0,0,1-1.43-1.64,6.51,6.51,0,0,1,0-5.1,3.72,3.72,0,0,1,1.43-1.64,4.14,4.14,0,0,1,4.16,0,3.78,3.78,0,0,1,1.43,1.64,6.63,6.63,0,0,1,0,5.1A3.84,3.84,0,0,1,133.47,80a4.14,4.14,0,0,1-4.16,0Zm3.12-2.19a5.32,5.32,0,0,0,0-4,1.15,1.15,0,0,0-1-.64,1.18,1.18,0,0,0-1,.64,5.45,5.45,0,0,0,0,4,1.19,1.19,0,0,0,1,.63A1.16,1.16,0,0,0,132.43,77.78Z"/><path class="cls-1" d="M140.11,71.21v9.13h-2.58V73.21h-1.7v-2Z"/><path class="cls-1" d="M149,76.43a2.23,2.23,0,0,1,.34,1.23,2.43,2.43,0,0,1-.5,1.51,3.12,3.12,0,0,1-1.39,1,6.33,6.33,0,0,1-4.15,0,3.16,3.16,0,0,1-1.4-1,2.42,2.42,0,0,1-.49-1.51,2.23,2.23,0,0,1,.34-1.23,2.69,2.69,0,0,1,1-.9,2.29,2.29,0,0,1-.72-.8,2.14,2.14,0,0,1-.26-1,2.28,2.28,0,0,1,.46-1.4,2.74,2.74,0,0,1,1.29-.93,5.61,5.61,0,0,1,3.79,0,2.84,2.84,0,0,1,1.29.93,2.28,2.28,0,0,1,.45,1.4,2.13,2.13,0,0,1-.25,1,2.29,2.29,0,0,1-.72.8A2.78,2.78,0,0,1,149,76.43Zm-2.63,2a1,1,0,0,0,.37-.83,1,1,0,0,0-.37-.83,1.55,1.55,0,0,0-1-.31,1.52,1.52,0,0,0-1,.31,1,1,0,0,0-.38.83,1,1,0,0,0,.38.83,1.52,1.52,0,0,0,1,.3A1.55,1.55,0,0,0,146.39,78.41Zm-1.78-5.31a.87.87,0,0,0-.3.71.9.9,0,0,0,.29.7,1.17,1.17,0,0,0,.79.25,1.2,1.2,0,0,0,.8-.25,1,1,0,0,0,0-1.41,1.2,1.2,0,0,0-.8-.26A1.17,1.17,0,0,0,144.61,73.1Z"/><rect class="cls-4" x="338.04" y="63.76" width="76.86" height="29.3" rx="14.65" ry="14.65"/><path class="cls-1" d="M400.25,95.07H352.7a16.66,16.66,0,1,1,0-33.31h47.55a16.66,16.66,0,1,1,0,33.31ZM352.7,65.77a12.65,12.65,0,1,0,0,25.29h47.55a12.65,12.65,0,0,0,0-25.29Z"/><path class="cls-1" d="M366.09,81.29l-2.28,7h-2.13L360.34,84l-1.41,4.28h-2.12l-2.28-7h2.05L358,85.78l1.49-4.49h1.82l1.42,4.53,1.47-4.53Z"/><path class="cls-1" d="M366.8,81.29h2v7h-2Z"/><path class="cls-1" d="M376.89,81.29v7h-1.64l-3.1-3.74v3.74h-1.94v-7h1.63l3.1,3.75V81.29Z"/><path class="cls-1" d="M379.79,82.87h-2.16V81.29h6.29v1.58h-2.14v5.45h-2Z"/><path class="cls-1" d="M390.31,86.78v1.54h-5.64v-7h5.51v1.54h-3.55V84h3.12V85.5h-3.12v1.28Z"/><path class="cls-1" d="M394.48,86.45H393.4v1.87h-2v-7h3.21a4,4,0,0,1,1.66.32,2.41,2.41,0,0,1,1.08.9,2.47,2.47,0,0,1,.38,1.38,2.32,2.32,0,0,1-1.37,2.22l1.51,2.21h-2.12Zm.95-3.32a1.39,1.39,0,0,0-.93-.27h-1.1v2.06h1.1a1.39,1.39,0,0,0,.93-.27,1,1,0,0,0,.31-.76A1,1,0,0,0,395.43,83.13Z"/><path class="cls-1" d="M367.72,75.77v2h-7.11V76.2L364,73a3.23,3.23,0,0,0,.67-.81,1.48,1.48,0,0,0,.17-.67.86.86,0,0,0-.3-.69,1.38,1.38,0,0,0-.88-.25,2,2,0,0,0-.93.23,1.92,1.92,0,0,0-.7.66l-1.91-1.07a3.69,3.69,0,0,1,1.5-1.4,4.92,4.92,0,0,1,2.28-.5,4.85,4.85,0,0,1,1.85.33,2.94,2.94,0,0,1,1.25,1,2.46,2.46,0,0,1,.45,1.47,3.23,3.23,0,0,1-.32,1.4,5.49,5.49,0,0,1-1.23,1.49l-1.73,1.59Z"/><path class="cls-1" d="M370.4,77.44A3.88,3.88,0,0,1,369,75.81a6.66,6.66,0,0,1,0-5.11,3.73,3.73,0,0,1,3.52-2.19,3.84,3.84,0,0,1,2.08.56A3.73,3.73,0,0,1,376,70.7a6.54,6.54,0,0,1,0,5.11,3.73,3.73,0,0,1-1.42,1.63,4.16,4.16,0,0,1-4.17,0Zm3.13-2.18a5.48,5.48,0,0,0,0-4,1.17,1.17,0,0,0-1-.63,1.19,1.19,0,0,0-1.05.63,5.48,5.48,0,0,0,0,4,1.19,1.19,0,0,0,1.05.63A1.17,1.17,0,0,0,373.53,75.26Z"/><path class="cls-1" d="M381.21,68.69v9.13h-2.59V70.68h-1.69v-2Z"/><path class="cls-1" d="M388.83,72.36a3,3,0,0,1,1.14,1,2.74,2.74,0,0,1,.42,1.51,2.91,2.91,0,0,1-.47,1.63,3.11,3.11,0,0,1-1.3,1.1,4.64,4.64,0,0,1-4.91-.78,4.55,4.55,0,0,1-1.13-3.34,5.65,5.65,0,0,1,.6-2.69,4.11,4.11,0,0,1,1.71-1.72,5.29,5.29,0,0,1,2.54-.58,6,6,0,0,1,1.49.17,3.64,3.64,0,0,1,1.2.49L389.18,71a2.9,2.9,0,0,0-1.69-.47,2.34,2.34,0,0,0-1.6.55,2.29,2.29,0,0,0-.7,1.58,3,3,0,0,1,2.06-.68A3.49,3.49,0,0,1,388.83,72.36Zm-1.29,3.49a1.09,1.09,0,0,0,.35-.85,1.08,1.08,0,0,0-.35-.83,1.29,1.29,0,0,0-.91-.32,1.33,1.33,0,0,0-.91.32,1.12,1.12,0,0,0-.35.85,1.05,1.05,0,0,0,.34.82,1.31,1.31,0,0,0,.94.32A1.27,1.27,0,0,0,387.54,75.85Z"/><rect class="cls-4" x="286.54" y="5.76" width="76.86" height="29.3" rx="14.65" ry="14.65"/><path class="cls-1" d="M348.74,37.07H301.19a16.66,16.66,0,0,1,0-33.32h47.55a16.66,16.66,0,0,1,0,33.32ZM301.19,7.76a12.65,12.65,0,0,0,0,25.29h47.55a12.65,12.65,0,1,0,0-25.29Z"/><path class="cls-1" d="M316.45,17.77v2h-7.11V18.2l3.42-3.2a3.14,3.14,0,0,0,.66-.8,1.51,1.51,0,0,0,.17-.67.87.87,0,0,0-.3-.7,1.37,1.37,0,0,0-.87-.24,1.9,1.9,0,0,0-.94.23,1.87,1.87,0,0,0-.69.65l-1.92-1.07a3.8,3.8,0,0,1,1.5-1.39,4.8,4.8,0,0,1,2.28-.51,4.66,4.66,0,0,1,1.85.34,2.84,2.84,0,0,1,1.25,1,2.46,2.46,0,0,1,.45,1.47,3.23,3.23,0,0,1-.32,1.4,5.17,5.17,0,0,1-1.23,1.49l-1.72,1.6Z"/><path class="cls-1" d="M319.14,19.44a3.77,3.77,0,0,1-1.43-1.64,5.92,5.92,0,0,1-.52-2.55,5.89,5.89,0,0,1,.52-2.55,3.72,3.72,0,0,1,1.43-1.64,4.14,4.14,0,0,1,4.16,0,3.78,3.78,0,0,1,1.43,1.64,5.89,5.89,0,0,1,.51,2.55,5.92,5.92,0,0,1-.51,2.55,3.84,3.84,0,0,1-1.43,1.64,4.14,4.14,0,0,1-4.16,0Zm3.12-2.19a3.93,3.93,0,0,0,.39-2,3.93,3.93,0,0,0-.39-2,1.16,1.16,0,0,0-1-.64,1.18,1.18,0,0,0-1.05.64,4.06,4.06,0,0,0-.38,2,4.06,4.06,0,0,0,.38,2,1.19,1.19,0,0,0,1.05.63A1.17,1.17,0,0,0,322.26,17.25Z"/><path class="cls-1" d="M329.94,10.68v9.13h-2.58V12.68h-1.7v-2Z"/><path class="cls-1" d="M337.56,14.35a2.81,2.81,0,0,1,1.14,1,2.74,2.74,0,0,1,.42,1.51,2.87,2.87,0,0,1-.47,1.64,3.12,3.12,0,0,1-1.29,1.09,4.62,4.62,0,0,1-4.92-.77,4.62,4.62,0,0,1-1.13-3.34,5.58,5.58,0,0,1,.61-2.7,4.06,4.06,0,0,1,1.7-1.71,5.32,5.32,0,0,1,2.54-.59,6.54,6.54,0,0,1,1.49.17,3.87,3.87,0,0,1,1.2.49L337.91,13a2.78,2.78,0,0,0-1.68-.47,2.31,2.31,0,0,0-1.61.55,2.26,2.26,0,0,0-.7,1.57A3,3,0,0,1,336,14,3.62,3.62,0,0,1,337.56,14.35Zm-1.29,3.49a1.07,1.07,0,0,0,.35-.84,1.09,1.09,0,0,0-.35-.84,1.28,1.28,0,0,0-.9-.31,1.34,1.34,0,0,0-.92.32,1.17,1.17,0,0,0,0,1.67,1.33,1.33,0,0,0,.93.32A1.26,1.26,0,0,0,336.27,17.84Z"/><path class="cls-1" d="M313.93,24.82v1.55H317V27.9h-3.1v2.41h-2v-7h5.51v1.53Z"/><path class="cls-1" d="M322.82,29h-3l-.55,1.36h-2l3.1-7h2l3.11,7h-2.07Zm-.58-1.47-.91-2.24-.9,2.24Z"/><path class="cls-1" d="M326,23.29h2v5.45h3.35v1.57H326Z"/><path class="cls-1" d="M332.12,23.29h2v5.45h3.35v1.57h-5.34Z"/><rect class="cls-4" x="235.9" y="63.76" width="76.86" height="29.3" rx="14.65" ry="14.65"/><path class="cls-1" d="M298.11,95.07H250.56a16.66,16.66,0,1,1,0-33.31h47.55a16.66,16.66,0,1,1,0,33.31Zm-47.55-29.3a12.65,12.65,0,1,0,0,25.29h47.55a12.65,12.65,0,0,0,0-25.29Z"/><path class="cls-1" d="M265.92,75.77v2h-7.11V76.2L262.23,73a3.47,3.47,0,0,0,.67-.81,1.48,1.48,0,0,0,.17-.67.86.86,0,0,0-.3-.69,1.4,1.4,0,0,0-.88-.25,1.94,1.94,0,0,0-.93.23,1.84,1.84,0,0,0-.7.66l-1.92-1.07a3.82,3.82,0,0,1,1.5-1.4,4.87,4.87,0,0,1,2.29-.51,4.79,4.79,0,0,1,1.84.34,2.84,2.84,0,0,1,1.26,1,2.52,2.52,0,0,1,.44,1.46,3.23,3.23,0,0,1-.31,1.41,5.56,5.56,0,0,1-1.24,1.49l-1.72,1.59Z"/><path class="cls-1" d="M268.61,77.44a3.78,3.78,0,0,1-1.43-1.64,5.86,5.86,0,0,1-.51-2.55,5.92,5.92,0,0,1,.51-2.55,3.81,3.81,0,0,1,1.43-1.63,3.88,3.88,0,0,1,2.09-.57,3.83,3.83,0,0,1,2.07.57,3.75,3.75,0,0,1,1.43,1.63,5.78,5.78,0,0,1,.52,2.55,5.72,5.72,0,0,1-.52,2.55,3.72,3.72,0,0,1-1.43,1.64,3.83,3.83,0,0,1-2.07.56A3.87,3.87,0,0,1,268.61,77.44Zm3.13-2.18a5.48,5.48,0,0,0,0-4,1.18,1.18,0,0,0-2.09,0,5.35,5.35,0,0,0,0,4,1.18,1.18,0,0,0,2.09,0Z"/><path class="cls-1" d="M279.41,68.69v9.13h-2.58V70.68h-1.7v-2Z"/><path class="cls-1" d="M288.21,68.69v1.62L285,77.82h-2.81l3.08-7.08h-2.4v1.41h-2.21V68.69Z"/><path class="cls-1" d="M264,81.29l-2.28,7h-2.13L258.2,84l-1.41,4.28h-2.13l-2.27-7h2l1.42,4.49,1.48-4.49h1.83l1.42,4.53,1.47-4.53Z"/><path class="cls-1" d="M264.66,81.29h2v7h-2Z"/><path class="cls-1" d="M274.75,81.29v7h-1.64L270,84.58v3.74h-1.95v-7h1.64L272.8,85V81.29Z"/><path class="cls-1" d="M277.65,82.87h-2.16V81.29h6.29v1.58h-2.15v5.45h-2Z"/><path class="cls-1" d="M288.16,86.78v1.54h-5.64v-7H288v1.54h-3.54V84h3.12V85.5h-3.12v1.28Z"/><path class="cls-1" d="M292.34,86.45h-1.08v1.87h-2v-7h3.21a4,4,0,0,1,1.66.32,2.47,2.47,0,0,1,1.08.9,2.55,2.55,0,0,1,.38,1.38,2.49,2.49,0,0,1-.35,1.33,2.4,2.4,0,0,1-1,.89l1.51,2.21h-2.13Zm.94-3.32a1.35,1.35,0,0,0-.92-.27h-1.1v2.06h1.1a1.35,1.35,0,0,0,.92-.27.94.94,0,0,0,.31-.76A1,1,0,0,0,293.28,83.13Z"/></g></g></g></g></g></g></g></svg>