<svg xmlns="http://www.w3.org/2000/svg" viewBox="0 0 95.4 380.46"><defs><style>.cls-1{fill:#34256b;}.cls-2{fill:#1f143a;opacity:0.8;}.cls-3{fill:#9287c6;}.cls-4{fill:#fefefe;}</style></defs><title>screen-countdown</title><g id="Capa_2" data-name="Capa 2"><g id="pantallas"><g id="_2D" data-name="2D"><g id="final"><g id="esquerra"><g id="pantalla_contador" data-name="pantalla contador"><rect id="pantalla" class="cls-1" width="95.4" height="380.46"/><g id="circulos"><circle class="cls-2" cx="47.36" cy="48.76" r="34"/><circle class="cls-2" cx="47.36" cy="139.76" r="34"/><circle class="cls-2" cx="47.36" cy="230.76" r="34"/><circle class="cls-2" cx="47.36" cy="321.76" r="34"/></g><g id="letras"><path class="cls-3" d="M27.42,89.09h3.82a5.35,5.35,0,0,1,2.42.52,3.94,3.94,0,0,1,1.63,1.47,4.5,4.5,0,0,1,0,4.42A3.94,3.94,0,0,1,33.66,97a5.35,5.35,0,0,1-2.42.52H27.42Zm3.72,6.8a2.81,2.81,0,0,0,2-.7,2.78,2.78,0,0,0,0-3.8,2.81,2.81,0,0,0-2-.7H29.37v5.2Z"/><path class="cls-3" d="M42.75,95.69h-3.9l-.75,1.8h-2l3.74-8.4h1.92l3.76,8.4h-2Zm-.61-1.48L40.8,91l-1.33,3.21Z"/><path class="cls-3" d="M49.92,94.51v3H48v-3l-3.25-5.4h2.06L49,92.82l2.25-3.73h1.91Z"/><path class="cls-3" d="M54.19,97.29a12.44,12.44,0,0,1,0-6.18,8.52,8.52,0,0,1,1.11-2.52h1.79A10.92,10.92,0,0,0,56,91.29a12.62,12.62,0,0,0,0,5.82,11,11,0,0,0,1.11,2.71H55.3A8.7,8.7,0,0,1,54.19,97.29Z"/><path class="cls-3" d="M59,97.36a4.55,4.55,0,0,1-1.5-.7l.66-1.46a4.56,4.56,0,0,0,1.29.63,4.77,4.77,0,0,0,1.48.24,2.45,2.45,0,0,0,1.23-.24.76.76,0,0,0,.4-.66.6.6,0,0,0-.24-.49,1.55,1.55,0,0,0-.6-.32q-.36-.12-1-.27a13.9,13.9,0,0,1-1.57-.45,2.56,2.56,0,0,1-1.05-.73,2,2,0,0,1-.44-1.35,2.26,2.26,0,0,1,.4-1.32,2.68,2.68,0,0,1,1.19-.95,4.9,4.9,0,0,1,2-.34,6.31,6.31,0,0,1,1.57.19,4.71,4.71,0,0,1,1.35.55l-.6,1.48a4.72,4.72,0,0,0-2.33-.66,2.18,2.18,0,0,0-1.21.26.81.81,0,0,0-.39.7.69.69,0,0,0,.45.64,6.71,6.71,0,0,0,1.38.41A13.67,13.67,0,0,1,63,93a2.54,2.54,0,0,1,1.05.72A1.94,1.94,0,0,1,64.53,95a2.33,2.33,0,0,1-.4,1.31,2.74,2.74,0,0,1-1.21,1,5,5,0,0,1-2,.34A6.85,6.85,0,0,1,59,97.36Z"/><path class="cls-3" d="M65,99.82a10.62,10.62,0,0,0,1.11-2.71,11.94,11.94,0,0,0,0-5.82A10.55,10.55,0,0,0,65,88.59h1.79a8.12,8.12,0,0,1,1.12,2.51,11.86,11.86,0,0,1,.39,3.1,12.11,12.11,0,0,1-.38,3.09,8.23,8.23,0,0,1-1.13,2.53Z"/><path class="cls-3" d="M35.13,178.89v8.4h-2v-3.44H29.37v3.44H27.42v-8.4h1.95v3.31h3.81v-3.31Z"/><path class="cls-3" d="M38.83,186.87a4.37,4.37,0,0,1-1.65-6,4.25,4.25,0,0,1,1.65-1.55,5.23,5.23,0,0,1,4.71,0,4.35,4.35,0,0,1,1.64,6,4.29,4.29,0,0,1-1.64,1.55,5.23,5.23,0,0,1-4.71,0Zm3.7-1.43a2.41,2.41,0,0,0,.94-1,2.94,2.94,0,0,0,0-2.78,2.41,2.41,0,0,0-.94-1,2.83,2.83,0,0,0-2.69,0,2.48,2.48,0,0,0-.94,1,3,3,0,0,0,0,2.78,2.48,2.48,0,0,0,.94,1,2.83,2.83,0,0,0,2.69,0Z"/><path class="cls-3" d="M48.18,186.44a3.84,3.84,0,0,1-1-2.85v-4.7h1.94v4.63c0,1.51.62,2.26,1.87,2.26a1.73,1.73,0,0,0,1.39-.55,2.53,2.53,0,0,0,.48-1.71v-4.63h1.92v4.7a4,4,0,0,1-6.6,2.85Z"/><path class="cls-3" d="M62.06,187.29,60.43,185H58.65v2.34H56.7v-8.4h3.64a4.66,4.66,0,0,1,1.94.37,2.81,2.81,0,0,1,1.26,1.06,3.12,3.12,0,0,1,0,3.23,2.89,2.89,0,0,1-1.28,1l1.88,2.7Zm-.5-6.44a2,2,0,0,0-1.33-.38H58.65v2.93h1.58a2,2,0,0,0,1.33-.38,1.51,1.51,0,0,0,0-2.17Z"/><path class="cls-3" d="M31.07,279.29l0-5-2.47,4.15h-.87l-2.46-4v4.93H23.42v-8.4H25l3.14,5.22,3.1-5.22h1.6l0,8.4Z"/><path class="cls-3" d="M34.88,270.89h1.95v8.4H34.88Z"/><path class="cls-3" d="M46.52,270.89v8.4H44.93l-4.19-5.1v5.1H38.82v-8.4h1.61L44.6,276v-5.1Z"/><path class="cls-3" d="M49.44,278.44a3.88,3.88,0,0,1-1-2.85v-4.7h2v4.63c0,1.51.62,2.26,1.87,2.26a1.73,1.73,0,0,0,1.39-.55,2.53,2.53,0,0,0,.48-1.71v-4.63h1.92v4.7a4,4,0,0,1-6.61,2.85Z"/><path class="cls-3" d="M59.57,272.47H56.88v-1.58H64.2v1.58H61.51v6.82H59.57Z"/><path class="cls-3" d="M71.75,277.73v1.56H65.24v-8.4h6.35v1.56H67.17v1.82h3.9v1.52h-3.9v1.94Z"/><path class="cls-3" d="M23.26,368.36a4.55,4.55,0,0,1-1.5-.7l.66-1.46a4.56,4.56,0,0,0,1.29.63,4.77,4.77,0,0,0,1.48.24,2.45,2.45,0,0,0,1.23-.24.75.75,0,0,0,.39-.66.59.59,0,0,0-.23-.49,1.71,1.71,0,0,0-.6-.32q-.36-.12-1-.27a13.9,13.9,0,0,1-1.57-.45,2.56,2.56,0,0,1-1.05-.73,2,2,0,0,1-.44-1.35,2.26,2.26,0,0,1,.4-1.32,2.68,2.68,0,0,1,1.19-.95,4.9,4.9,0,0,1,1.95-.34,6.31,6.31,0,0,1,1.57.19,4.84,4.84,0,0,1,1.35.55l-.6,1.48a4.72,4.72,0,0,0-2.33-.66,2.15,2.15,0,0,0-1.21.26.81.81,0,0,0-.39.7.69.69,0,0,0,.45.64,6.71,6.71,0,0,0,1.38.41,13.67,13.67,0,0,1,1.57.46,2.54,2.54,0,0,1,1,.72,1.94,1.94,0,0,1,.44,1.33,2.26,2.26,0,0,1-.41,1.31,2.71,2.71,0,0,1-1.2,1,5,5,0,0,1-2,.34A6.85,6.85,0,0,1,23.26,368.36Z"/><path class="cls-3" d="M36.58,366.93v1.56h-6.5v-8.4h6.35v1.56H32v1.82h3.9V365H32v1.94Z"/><path class="cls-3" d="M39.8,368.08a4.26,4.26,0,0,1-1.63-1.55,4.55,4.55,0,0,1,0-4.48,4.26,4.26,0,0,1,1.63-1.55,4.9,4.9,0,0,1,2.34-.55,4.81,4.81,0,0,1,2,.38,4,4,0,0,1,1.48,1.1l-1.24,1.16a2.7,2.7,0,0,0-2.12-1,2.89,2.89,0,0,0-1.39.34,2.44,2.44,0,0,0-1,1,3,3,0,0,0,0,2.78,2.44,2.44,0,0,0,1,1,2.89,2.89,0,0,0,1.39.34,2.67,2.67,0,0,0,2.12-1l1.24,1.15a3.91,3.91,0,0,1-1.48,1.12,5.27,5.27,0,0,1-4.31-.17Z"/><path class="cls-3" d="M48.43,368.07a4.15,4.15,0,0,1-1.64-1.55,4.44,4.44,0,0,1,0-4.46,4.15,4.15,0,0,1,1.64-1.55,4.87,4.87,0,0,1,2.36-.56,4.8,4.8,0,0,1,2.35.56,4.28,4.28,0,0,1,0,7.56,4.8,4.8,0,0,1-2.35.56A4.87,4.87,0,0,1,48.43,368.07Zm3.7-1.43a2.5,2.5,0,0,0,.95-1,3,3,0,0,0,0-2.78,2.5,2.5,0,0,0-.95-1,2.81,2.81,0,0,0-2.68,0,2.5,2.5,0,0,0-1,1,3,3,0,0,0,0,2.78,2.5,2.5,0,0,0,1,1,2.81,2.81,0,0,0,2.68,0Z"/><path class="cls-3" d="M64.55,360.09v8.4H63l-4.19-5.1v5.1H56.85v-8.4h1.61l4.17,5.1v-5.1Z"/><path class="cls-3" d="M66.55,360.09h3.81a5.35,5.35,0,0,1,2.42.52,3.94,3.94,0,0,1,1.63,1.47,4.5,4.5,0,0,1,0,4.42A3.94,3.94,0,0,1,72.78,368a5.35,5.35,0,0,1-2.42.52H66.55Zm3.72,6.8a2.81,2.81,0,0,0,2-.7,2.78,2.78,0,0,0,0-3.8,2.81,2.81,0,0,0-2-.7H68.49v5.2Z"/></g><g id="numeros"><path class="cls-4" d="M29.84,36V61.91H24.05V40.81H19V36Z"/><path class="cls-4" d="M51.23,38.87q3,3.3,3,9.53A16.54,16.54,0,0,1,52.61,56a11.06,11.06,0,0,1-4.49,4.78,13.37,13.37,0,0,1-6.69,1.63,16,16,0,0,1-3.83-.46,10.16,10.16,0,0,1-3.11-1.32l2.15-4.4a7.92,7.92,0,0,0,4.68,1.29,6.67,6.67,0,0,0,5-1.94,8.28,8.28,0,0,0,2-5.61,8.26,8.26,0,0,1-6.22,2.33,9.46,9.46,0,0,1-4.37-1,7.73,7.73,0,0,1-3.11-2.83,7.87,7.87,0,0,1-1.14-4.24,8.11,8.11,0,0,1,4.66-7.57A10.79,10.79,0,0,1,43,35.55,10.47,10.47,0,0,1,51.23,38.87Zm-4.7,7.81a3.87,3.87,0,0,0,0-5.57A4.51,4.51,0,0,0,43.36,40a4.38,4.38,0,0,0-3,1,3.59,3.59,0,0,0-1.16,2.81,3.67,3.67,0,0,0,1.16,2.84,5,5,0,0,0,6.19,0Z"/><path class="cls-4" d="M74,38.87q3,3.3,3,9.53A16.41,16.41,0,0,1,75.39,56a11,11,0,0,1-4.48,4.78,13.42,13.42,0,0,1-6.69,1.63,15.94,15.94,0,0,1-3.83-.46,10.06,10.06,0,0,1-3.11-1.32l2.14-4.4a8,8,0,0,0,4.69,1.29,6.67,6.67,0,0,0,5-1.94,8.34,8.34,0,0,0,2-5.61,8.29,8.29,0,0,1-6.23,2.33,9.42,9.42,0,0,1-4.36-1,7.68,7.68,0,0,1-4.26-7.07A8.1,8.1,0,0,1,61,36.61a10.75,10.75,0,0,1,4.81-1.06A10.48,10.48,0,0,1,74,38.87Zm-4.71,7.81a3.88,3.88,0,0,0,0-5.57A4.52,4.52,0,0,0,66.15,40a4.36,4.36,0,0,0-3,1A3.57,3.57,0,0,0,62,43.88a3.64,3.64,0,0,0,1.17,2.84,5,5,0,0,0,6.18,0Z"/><path class="cls-4" d="M44.21,129.87q3,3.3,3,9.53A16.54,16.54,0,0,1,45.59,147a11.06,11.06,0,0,1-4.49,4.78,13.37,13.37,0,0,1-6.69,1.63,15.94,15.94,0,0,1-3.83-.46,10.16,10.16,0,0,1-3.11-1.32l2.15-4.4a7.89,7.89,0,0,0,4.68,1.29,6.69,6.69,0,0,0,5.05-1.94,8.33,8.33,0,0,0,2-5.61,8.27,8.27,0,0,1-6.23,2.33,9.45,9.45,0,0,1-4.36-1,7.73,7.73,0,0,1-3.11-2.83,7.87,7.87,0,0,1-1.15-4.24,8.14,8.14,0,0,1,4.67-7.57A10.75,10.75,0,0,1,36,126.55,10.48,10.48,0,0,1,44.21,129.87Zm-4.7,7.81a3.89,3.89,0,0,0,0-5.57,4.51,4.51,0,0,0-3.2-1.08,4.36,4.36,0,0,0-3,1,3.56,3.56,0,0,0-1.16,2.81,3.64,3.64,0,0,0,1.16,2.84,4.42,4.42,0,0,0,3.09,1.05A4.41,4.41,0,0,0,39.51,137.68Z"/><path class="cls-4" d="M67,129.87q3,3.3,3,9.53a16.54,16.54,0,0,1-1.6,7.55,11,11,0,0,1-4.49,4.78,13.36,13.36,0,0,1-6.68,1.63,15.88,15.88,0,0,1-3.83-.46,10,10,0,0,1-3.11-1.32l2.14-4.4a8,8,0,0,0,4.69,1.29,6.67,6.67,0,0,0,5-1.94,8.34,8.34,0,0,0,2-5.61,8.29,8.29,0,0,1-6.23,2.33,9.42,9.42,0,0,1-4.36-1,7.76,7.76,0,0,1-3.12-2.83,7.87,7.87,0,0,1-1.14-4.24A8.1,8.1,0,0,1,54,127.61a10.72,10.72,0,0,1,4.81-1.06A10.5,10.5,0,0,1,67,129.87Zm-4.71,7.81a3.88,3.88,0,0,0,0-5.57,4.52,4.52,0,0,0-3.2-1.08,4.41,4.41,0,0,0-3,1,3.59,3.59,0,0,0-1.16,2.81,3.67,3.67,0,0,0,1.16,2.84,4.46,4.46,0,0,0,3.1,1.05A4.4,4.4,0,0,0,62.29,137.68Z"/><path class="cls-4" d="M44.21,220.87q3,3.3,3,9.53A16.54,16.54,0,0,1,45.59,238a11.06,11.06,0,0,1-4.49,4.78,13.37,13.37,0,0,1-6.69,1.63,15.94,15.94,0,0,1-3.83-.46,10.16,10.16,0,0,1-3.11-1.32l2.15-4.4a7.89,7.89,0,0,0,4.68,1.29,6.69,6.69,0,0,0,5.05-1.94,8.38,8.38,0,0,0,2-5.61,8.27,8.27,0,0,1-6.23,2.33,9.45,9.45,0,0,1-4.36-1,7.68,7.68,0,0,1-4.26-7.07,8.14,8.14,0,0,1,4.67-7.57A10.75,10.75,0,0,1,36,217.55,10.48,10.48,0,0,1,44.21,220.87Zm-4.7,7.81a3.64,3.64,0,0,0,1.19-2.8,3.57,3.57,0,0,0-1.16-2.77,4.51,4.51,0,0,0-3.2-1.08,4.36,4.36,0,0,0-3,1,3.56,3.56,0,0,0-1.16,2.81,3.64,3.64,0,0,0,1.16,2.84,4.42,4.42,0,0,0,3.09,1.05A4.41,4.41,0,0,0,39.51,228.68Z"/><path class="cls-4" d="M67,220.87q3,3.3,3,9.53A16.54,16.54,0,0,1,68.37,238a11,11,0,0,1-4.49,4.78,13.36,13.36,0,0,1-6.68,1.63,15.88,15.88,0,0,1-3.83-.46,10,10,0,0,1-3.11-1.32l2.14-4.4a8,8,0,0,0,4.69,1.29,6.67,6.67,0,0,0,5-1.94,8.28,8.28,0,0,0,2-5.61,8.25,8.25,0,0,1-6.22,2.33,9.42,9.42,0,0,1-4.36-1,7.76,7.76,0,0,1-3.12-2.83,7.87,7.87,0,0,1-1.14-4.24A8.1,8.1,0,0,1,54,218.61a10.72,10.72,0,0,1,4.81-1.06A10.5,10.5,0,0,1,67,220.87Zm-4.71,7.81a3.88,3.88,0,0,0,0-5.57,4.52,4.52,0,0,0-3.2-1.08,4.41,4.41,0,0,0-3,1,3.59,3.59,0,0,0-1.16,2.81,3.67,3.67,0,0,0,1.16,2.84,4.46,4.46,0,0,0,3.1,1.05A4.4,4.4,0,0,0,62.29,228.68Z"/><path class="cls-4" d="M44.21,312.87q3,3.3,3,9.53A16.54,16.54,0,0,1,45.59,330a11.06,11.06,0,0,1-4.49,4.78,13.37,13.37,0,0,1-6.69,1.63,15.94,15.94,0,0,1-3.83-.46,10.16,10.16,0,0,1-3.11-1.32l2.15-4.4a7.89,7.89,0,0,0,4.68,1.29,6.69,6.69,0,0,0,5.05-1.94,8.38,8.38,0,0,0,2-5.61,8.27,8.27,0,0,1-6.23,2.33,9.45,9.45,0,0,1-4.36-1,7.68,7.68,0,0,1-4.26-7.07,8.14,8.14,0,0,1,4.67-7.57A10.75,10.75,0,0,1,36,309.55,10.48,10.48,0,0,1,44.21,312.87Zm-4.7,7.81a3.64,3.64,0,0,0,1.19-2.8,3.57,3.57,0,0,0-1.16-2.77,4.51,4.51,0,0,0-3.2-1.08,4.36,4.36,0,0,0-3,1,3.56,3.56,0,0,0-1.16,2.81,3.64,3.64,0,0,0,1.16,2.84,4.42,4.42,0,0,0,3.09,1A4.41,4.41,0,0,0,39.51,320.68Z"/><path class="cls-4" d="M67,312.87q3,3.3,3,9.53A16.54,16.54,0,0,1,68.37,330a11,11,0,0,1-4.49,4.78,13.36,13.36,0,0,1-6.68,1.63,15.88,15.88,0,0,1-3.83-.46,10,10,0,0,1-3.11-1.32l2.14-4.4a8,8,0,0,0,4.69,1.29,6.67,6.67,0,0,0,5-1.94,8.28,8.28,0,0,0,2-5.61,8.25,8.25,0,0,1-6.22,2.33,9.42,9.42,0,0,1-4.36-1,7.76,7.76,0,0,1-3.12-2.83,7.87,7.87,0,0,1-1.14-4.24A8.1,8.1,0,0,1,54,310.61a10.72,10.72,0,0,1,4.81-1.06A10.5,10.5,0,0,1,67,312.87Zm-4.71,7.81a3.88,3.88,0,0,0,0-5.57,4.52,4.52,0,0,0-3.2-1.08,4.41,4.41,0,0,0-3,1,3.59,3.59,0,0,0-1.16,2.81,3.67,3.67,0,0,0,1.16,2.84,4.46,4.46,0,0,0,3.1,1A4.4,4.4,0,0,0,62.29,320.68Z"/></g></g></g></g></g></g></g></svg>