<svg xmlns="http://www.w3.org/2000/svg" viewBox="0 0 219.74 270.93"><defs><clipPath id="e"><path fill="none" d="M21.51 150.49h173.87v110.4H21.51z"/></clipPath></defs><g><g><g><g><path fill="#34256b" d="M0 0h219.74v270.93H0z"/><g opacity=".7"><path d="M176.7 229.84c-36.13-1-49.55-13.15-62.53-24.86-6.61-6-12.85-11.6-22-15.95C59 173.18 33.78 201.69 33.53 202a1.17 1.17 0 01-1.73.07 1.41 1.41 0 01-.05-1.87c.26-.3 26.65-30.17 61.43-13.56 9.44 4.5 16.11 10.52 22.56 16.34 12.65 11.42 25.74 23.23 61 24.25" fill="#bf5aed"/><path d="M177.14 191.56c-11.69 0-20.64 10.55-29.3 20.76-9.33 11-18.15 21.4-29 15.37a114.28 114.28 0 01-14.62-9.91c-8.06-6.17-14.43-11.05-27.35-11.05-19.21 0-43.08 25.31-43.32 25.56a1.17 1.17 0 01-.86.39 1.18 1.18 0 01-.87-.4 1.39 1.39 0 010-1.86c1-1.08 24.83-26.33 45-26.33 13.7 0 20.68 5.35 28.77 11.54a111.94 111.94 0 0014.31 9.72c9.25 5.1 17.08-4.12 26.14-14.81 8.59-10.13 18.33-21.62 31.1-21.62" fill="#3bdbd7"/><path d="M190.93 201.59c-13.87-16.58-27-32.24-39.62-32.24-11.49 0-19.05 6.34-27 13.05-10.06 8.43-20.47 17.16-39.64 15.31-34.28-3.3-52.13-23.3-52.87-24.15a1.41 1.41 0 01.05-1.87 1.16 1.16 0 011.73.06c.17.2 18 20.12 51.3 23.33 18.23 1.76 28.24-6.64 37.93-14.77 8.34-7 16.22-13.59 28.55-13.59 13.74 0 27.19 16.07 41.43 33.1" fill="#ea4e70"/><path d="M185.41 231c-6.41-8.73-12.47-17-20.48-17-6.1 0-12.12 7.66-17.94 15.07-6.48 8.26-13.19 16.81-21.13 16.81-14.31 0-20.4-25.75-25.28-46.43C98 188.43 95 176 92.08 176c-4.42 0-7.53 10.75-10.81 22.14-3.07 10.61-6.54 22.65-12.21 31.25C58.78 245 34 251.71 32.93 252a1 1 0 01-.29 0 1.25 1.25 0 01-1.19-1 1.33 1.33 0 01.9-1.6c.24-.06 25-6.78 34.72-21.61 5.44-8.26 8.85-20.08 11.87-30.51 3.87-13.4 6.92-24 13.14-24 4.84 0 7.37 10.69 10.86 25.47 4.68 19.8 10.51 44.45 22.92 44.45 6.8 0 13.14-8.07 19.27-15.88 6.46-8.23 12.57-16 19.8-16 9.19 0 15.9 9.14 22.39 18" fill="#5f30ef"/><g clip-path="url(#e)" opacity=".84"><path d="M25.53 157.91v102.23h169.84m-173.86-4.67h4.02m-4.02-11.67h4.02m-4.02-11.66h4.02m-4.02-11.66h4.02m-4.02-11.67h4.02m-4.02-11.66h4.02m-4.02-11.66h4.02m-4.02-11.67h4.02m-4.02-11.66h4.02" fill="none" stroke="#9287c6" stroke-miterlimit="10"/></g></g><g><g><path d="M190.12 42.93c2.6 0 4.72 1.62 4.72 3.62v95c0 2-2.12 3.62-4.72 3.62h-10.7c-2.6 0-4.72-1.63-4.72-3.62v-95c0-2 2.12-3.62 4.72-3.62z" fill="#7966aa"/><path d="M172.7 83.33c-2.59 0-4.7 1.67-4.7 3.67v54.5c0 2 2.13 3.62 4.72 3.62h24.14c2.59 0 4.72.36 4.72-1.63V87c0-2-2.13-3.62-4.72-3.62z" opacity=".5" fill="#3bdbd7"/></g><g><path d="M139.39 42.93c2.59 0 4.72 1.63 4.72 3.62v95c0 2-2.13 3.62-4.72 3.62h-10.71c-2.59 0-4.72-1.63-4.72-3.62v-95c0-2 2.13-3.62 4.72-3.62z" fill="#7966aa"/><path d="M122 102.57c-2.6 0-4.72 1.63-4.72 3.62v35.34c0 2 2.12 3.62 4.72 3.62h24.1c2.6 0 4.72-1.63 4.72-3.62v-35.34c0-2-2.12-3.62-4.72-3.62z" opacity=".5" fill="#bf5aed"/></g><g><path d="M88.8 43.35c2.56 0 4.66 1.63 4.66 3.61v94.58c0 2-2.1 3.61-4.66 3.61H78.24c-2.57 0-4.66-1.62-4.66-3.61V47c0-2 2.09-3.61 4.66-3.61z" fill="#7966aa"/><path d="M71.61 54C69.05 54 67 55.58 67 57.57v84c0 2 2.1 3.61 4.66 3.61h23.77c2.56 0 4.66-1.62 4.66-3.61v-84c0-2-2.1-3.61-4.66-3.61z" opacity=".5" fill="#ea4e70"/></g><g><path d="M41.29 44.23c2.53 0 4.59 1.6 4.59 3.55v93.82c0 2-2.06 3.55-4.59 3.55H30.88c-2.53 0-4.59-1.6-4.59-3.55V47.78c0-2 2.06-3.55 4.59-3.55z" fill="#7966aa"/><path d="M24.35 128.07c-2.53 0-4.59 1.6-4.59 3.55v10c0 2 2.06 3.55 4.59 3.55h23.47c2.53 0 4.6-1.6 4.6-3.55v-10c0-2-2.07-3.55-4.6-3.55z" opacity=".5" fill="#5f30ef"/></g><path d="M184.77 11.28a12.59 12.59 0 1012.59 12.59 12.59 12.59 0 00-12.59-12.59zm-1.63 7.38l1.07-1.27h-1v-.47H185v.37l-1.07 1.27H185V19h-1.89zm-2 1.38l.71-.84h-.69v-.31h1.21v.25l-.71.84h.74v.31h-1.3zm12.11 8.55V27h-16.92v1.58h-.76v-8.3h.76v3.1a1.51 1.51 0 01.31-.16v-.36a1.63 1.63 0 011.62-1.62h2a1.62 1.62 0 011.61 1.62v.22h10.32a1.75 1.75 0 011 .3v-1.67h.81v6.88z" fill="#9287c6"/><g fill="#9287c6"><path d="M133.68 11a12.59 12.59 0 1012.58 12.59A12.58 12.58 0 00133.68 11zm6.4 20.23a1 1 0 01-.89.51 1.13 1.13 0 01-.53-.14 1.06 1.06 0 01-.46-1.21L133.44 29c.14.92.2 2.16.37 2.82.35 1.34-.4 1.79-.89 1.79a1.23 1.23 0 01-.91-1.79c.24-.7.38-2.15.56-3.08l-1.79-.54c.09.5.15 1.08.26 1.44a.84.84 0 11-1.58 0c.12-.43.25-1.15.39-1.71l-5.8-1.75 10.45-10.31a1 1 0 011.27-1.62 12.42 12.42 0 014.31 17.01z"/><path d="M131.52 23.69a1.56 1.56 0 10-1.28 1.79 1.55 1.55 0 001.28-1.79zm-.35 1.1a1.42 1.42 0 01-.94.6h-.25a1.45 1.45 0 01-1.44-1.23 1.45 1.45 0 011.2-1.68h.25a1.45 1.45 0 011.18 2.31z"/><path d="M131.61 23.67a1.65 1.65 0 00-1.61-1.38 1.32 1.32 0 00-.28 0 1.7 1.7 0 00-1.07.67 1.66 1.66 0 001.35 2.63h.28a1.6 1.6 0 001.06-.67 1.64 1.64 0 00.27-1.25zM130 25.41a1.45 1.45 0 01-1.44-1.23 1.45 1.45 0 011.2-1.68h.25a1.45 1.45 0 011.18 2.31 1.42 1.42 0 01-.94.6z"/><path d="M131.43 23.7a1.46 1.46 0 01-.26 1.09 1.42 1.42 0 01-.94.6h-.25a1.45 1.45 0 01-1.44-1.23 1.45 1.45 0 011.2-1.68h.25a1.46 1.46 0 011.44 1.22zm5.73-.99a2.66 2.66 0 01-1.71 1.07 3.52 3.52 0 01-.45 0 2.63 2.63 0 01-2.61-2.22 2.58 2.58 0 01.46-2 2.65 2.65 0 011.72-1.08 3.25 3.25 0 01.44 0 2.65 2.65 0 012.15 4.2zm-.44 4.85a1.6 1.6 0 01-1.06.67 1.37 1.37 0 01-.29 0 1.63 1.63 0 01-1.61-1.38 1.65 1.65 0 011.35-1.9h.27a1.66 1.66 0 011.62 1.38 1.64 1.64 0 01-.28 1.23z"/></g><g fill="#9287c6"><path d="M89 24.4h-1.35a.31.31 0 00-.3.35 6.79 6.79 0 01.05.9c0 3.45-1.94 4.72-3.57 5.17a.12.12 0 000 .24c1.26 0 5.38-.39 5.38-5.41v-.9c0-.3-.16-.35-.21-.35zm2.33 1.29h-1a.25.25 0 00-.24.24 8.15 8.15 0 01-.39 2.13.25.25 0 00.31.31A2.5 2.5 0 0091.67 26a.34.34 0 00-.34-.31z"/><path d="M83.52 11.35A12.59 12.59 0 1096.1 23.94a12.59 12.59 0 00-12.58-12.59zm3.57 3.32a2.9 2.9 0 01-.17 3.85 3.9 3.9 0 01-.83.62 5.46 5.46 0 01-.89.41 11.55 11.55 0 01-1.8.45 5.14 5.14 0 00-1.51.44 1.41 1.41 0 00-.51.42 1 1 0 00-.15.27 1.16 1.16 0 000 .33 2.12 2.12 0 00.8 1.39 2 2 0 01-1.39-1.26 1.67 1.67 0 01-.08-.55 1.54 1.54 0 01.14-.56 2.07 2.07 0 01.69-.85 4.89 4.89 0 011.79-.77c.57-.15 1.12-.28 1.63-.47a5.78 5.78 0 00.72-.31 3.15 3.15 0 00.6-.41 2 2 0 00.67-1.19 2.43 2.43 0 00-.21-1.48 2.39 2.39 0 00-1.19-1.13 2.27 2.27 0 011.69.8zm-4.58 7.68c-.47-.19-.37-.88-.13-1.21a1.31 1.31 0 01.82-.44c.39-.11.79-.17 1.18-.28a7 7 0 001.33-.53 4.88 4.88 0 001.21-.89 3 3 0 01-1 1.3 4.89 4.89 0 01-1.48.78 7.19 7.19 0 01-.8.2 4.32 4.32 0 00-.8.14.72.72 0 00-.33.93zm-1.94-3.61a2.61 2.61 0 01.88-.66 4.92 4.92 0 011-.33 10.14 10.14 0 001.72-.47 1.76 1.76 0 00.66-.48 1.09 1.09 0 00.27-.8 1.07 1.07 0 01.11 1 2 2 0 01-.67.88 5 5 0 01-1.9.75 8.69 8.69 0 00-.85.23 2.81 2.81 0 00-.72.39 4.22 4.22 0 00-1.13 1.4 2.62 2.62 0 01.63-1.91zM89.17 30H89a.58.58 0 00-.44.21 6.07 6.07 0 01-2.3 1.67.18.18 0 000 .35 8.61 8.61 0 011.11.34.35.35 0 01-.14.68h-8.3a.35.35 0 01-.14-.68 8.61 8.61 0 011.11-.34.19.19 0 000-.35c-2.31-1-3.89-3.11-3.89-6.48a10 10 0 01.06-1.11A1.26 1.26 0 0177.25 23h11.68a1.17 1.17 0 011 .84.59.59 0 00.55.37h.79a1.79 1.79 0 011.79 1.8A3.94 3.94 0 0189.17 30z"/></g><path d="M36.09 11a12.59 12.59 0 1012.58 12.61A12.58 12.58 0 0036.09 11zm0 20.26a4.59 4.59 0 01-4.77-4.76C31.33 22 36.09 16 36.09 16s4.76 6 4.76 10.53a4.58 4.58 0 01-4.76 4.76z" fill="#9287c6"/></g></g></g></g></g></svg>