<svg xmlns="http://www.w3.org/2000/svg" viewBox="0 0 95.4 380.46"><g><g><g><path fill="#34256b" d="M0 0h95.4v380.46H0z"/><g fill="#1f143a"><circle cx="47.36" cy="48.76" r="34" opacity=".8"/><circle cx="47.36" cy="139.76" r="34" opacity=".8"/><circle cx="47.36" cy="230.76" r="34" opacity=".8"/><circle cx="47.36" cy="321.76" r="34" opacity=".8"/></g><path d="M27.42 89.09h3.82a5.35 5.35 0 012.42.52 3.94 3.94 0 011.63 1.47 4.5 4.5 0 010 4.42 3.94 3.94 0 01-1.63 1.5 5.35 5.35 0 01-2.42.52h-3.82zm3.72 6.8a2.81 2.81 0 002-.7 2.78 2.78 0 000-3.8 2.81 2.81 0 00-2-.7h-1.77v5.2zm11.61-.2h-3.9l-.75 1.8h-2l3.74-8.4h1.92l3.76 8.4h-2zm-.61-1.48L40.8 91l-1.33 3.21zm7.78.3v3H48v-3l-3.25-5.4h2.06L49 92.82l2.25-3.73h1.91zm4.27 2.78a12.44 12.44 0 010-6.18 8.52 8.52 0 011.11-2.52h1.79a10.92 10.92 0 00-1.09 2.7 12.62 12.62 0 000 5.82 11 11 0 001.11 2.71H55.3a8.7 8.7 0 01-1.11-2.53zm4.81.07a4.55 4.55 0 01-1.5-.7l.66-1.46a4.56 4.56 0 001.29.63 4.77 4.77 0 001.48.24 2.45 2.45 0 001.23-.24.76.76 0 00.4-.66.6.6 0 00-.24-.49 1.55 1.55 0 00-.6-.32q-.36-.12-1-.27a13.9 13.9 0 01-1.57-.45 2.56 2.56 0 01-1.05-.73 2 2 0 01-.44-1.35 2.26 2.26 0 01.4-1.32 2.68 2.68 0 011.19-.95 4.9 4.9 0 012-.34 6.31 6.31 0 011.57.19 4.71 4.71 0 011.35.55l-.6 1.48a4.72 4.72 0 00-2.33-.66 2.18 2.18 0 00-1.21.26.81.81 0 00-.39.7.69.69 0 00.45.64 6.71 6.71 0 001.38.41A13.67 13.67 0 0163 93a2.54 2.54 0 011.05.72 1.94 1.94 0 01.48 1.28 2.33 2.33 0 01-.4 1.31 2.74 2.74 0 01-1.21 1 5 5 0 01-2 .34 6.85 6.85 0 01-1.92-.29zm6 2.46a10.62 10.62 0 001.11-2.71 11.94 11.94 0 000-5.82 10.55 10.55 0 00-1.11-2.7h1.79a8.12 8.12 0 011.12 2.51 11.86 11.86 0 01.39 3.1 12.11 12.11 0 01-.38 3.09 8.23 8.23 0 01-1.13 2.53zm-29.87 79.07v8.4h-2v-3.44h-3.76v3.44h-1.95v-8.4h1.95v3.31h3.81v-3.31zm3.7 7.98a4.37 4.37 0 01-1.65-6 4.25 4.25 0 011.65-1.55 5.23 5.23 0 014.71 0 4.35 4.35 0 011.64 6 4.29 4.29 0 01-1.64 1.55 5.23 5.23 0 01-4.71 0zm3.7-1.43a2.41 2.41 0 00.94-1 2.94 2.94 0 000-2.78 2.41 2.41 0 00-.94-1 2.83 2.83 0 00-2.69 0 2.48 2.48 0 00-.94 1 3 3 0 000 2.78 2.48 2.48 0 00.94 1 2.83 2.83 0 002.69 0zm5.65 1a3.84 3.84 0 01-1-2.85v-4.7h1.94v4.63c0 1.51.62 2.26 1.87 2.26a1.73 1.73 0 001.39-.55 2.53 2.53 0 00.48-1.71v-4.63h1.92v4.7a4 4 0 01-6.6 2.85zm13.88.85L60.43 185h-1.78v2.34H56.7v-8.4h3.64a4.66 4.66 0 011.94.37 2.81 2.81 0 011.26 1.06 3.12 3.12 0 010 3.23 2.89 2.89 0 01-1.28 1l1.88 2.7zm-.5-6.44a2 2 0 00-1.33-.38h-1.58v2.93h1.58a2 2 0 001.33-.38 1.51 1.51 0 000-2.17zm-30.49 98.44v-5l-2.47 4.15h-.87l-2.46-4v4.93h-1.85v-8.4H25l3.14 5.22 3.1-5.22h1.6v8.4zm3.81-8.4h1.95v8.4h-1.95zm11.64 0v8.4h-1.59l-4.19-5.1v5.1h-1.92v-8.4h1.61L44.6 276v-5.1zm2.92 7.55a3.88 3.88 0 01-1-2.85v-4.7h2v4.63c0 1.51.62 2.26 1.87 2.26a1.73 1.73 0 001.39-.55 2.53 2.53 0 00.48-1.71v-4.63h1.92v4.7a4 4 0 01-6.61 2.85zm10.13-5.97h-2.69v-1.58h7.32v1.58h-2.69v6.82h-1.94zm12.18 5.26v1.56h-6.51v-8.4h6.35v1.56h-4.42v1.82h3.9v1.52h-3.9v1.94zm-48.49 90.63a4.55 4.55 0 01-1.5-.7l.66-1.46a4.56 4.56 0 001.29.63 4.77 4.77 0 001.48.24 2.45 2.45 0 001.23-.24.75.75 0 00.39-.66.59.59 0 00-.23-.49 1.71 1.71 0 00-.6-.32q-.36-.12-1-.27a13.9 13.9 0 01-1.57-.45 2.56 2.56 0 01-1.05-.73 2 2 0 01-.44-1.35 2.26 2.26 0 01.4-1.32 2.68 2.68 0 011.19-.95 4.9 4.9 0 011.95-.34 6.31 6.31 0 011.57.19 4.84 4.84 0 011.35.55l-.6 1.48a4.72 4.72 0 00-2.33-.66 2.15 2.15 0 00-1.21.26.81.81 0 00-.39.7.69.69 0 00.45.64 6.71 6.71 0 001.38.41 13.67 13.67 0 011.57.46 2.54 2.54 0 011 .72 1.94 1.94 0 01.44 1.33 2.26 2.26 0 01-.41 1.31 2.71 2.71 0 01-1.2 1 5 5 0 01-2 .34 6.85 6.85 0 01-1.82-.32zm13.32-1.43v1.56h-6.5v-8.4h6.35v1.56H32v1.82h3.9V365H32v1.94zm3.22 1.15a4.26 4.26 0 01-1.63-1.55 4.55 4.55 0 010-4.48 4.26 4.26 0 011.63-1.55 4.9 4.9 0 012.34-.55 4.81 4.81 0 012 .38 4 4 0 011.48 1.1l-1.24 1.16a2.7 2.7 0 00-2.12-1 2.89 2.89 0 00-1.39.34 2.44 2.44 0 00-1 1 3 3 0 000 2.78 2.44 2.44 0 001 1 2.89 2.89 0 001.39.34 2.67 2.67 0 002.12-1l1.24 1.15a3.91 3.91 0 01-1.48 1.12 5.27 5.27 0 01-4.31-.17zm8.63-.01a4.15 4.15 0 01-1.64-1.55 4.44 4.44 0 010-4.46 4.15 4.15 0 011.64-1.55 4.87 4.87 0 012.36-.56 4.8 4.8 0 012.35.56 4.28 4.28 0 010 7.56 4.8 4.8 0 01-2.35.56 4.87 4.87 0 01-2.36-.56zm3.7-1.43a2.5 2.5 0 00.95-1 3 3 0 000-2.78 2.5 2.5 0 00-.95-1 2.81 2.81 0 00-2.68 0 2.5 2.5 0 00-1 1 3 3 0 000 2.78 2.5 2.5 0 001 1 2.81 2.81 0 002.68 0zm12.42-6.55v8.4H63l-4.19-5.1v5.1h-1.96v-8.4h1.61l4.17 5.1v-5.1zm2 0h3.81a5.35 5.35 0 012.42.52 3.94 3.94 0 011.63 1.47 4.5 4.5 0 010 4.42 3.94 3.94 0 01-1.63 1.5 5.35 5.35 0 01-2.42.52h-3.81zm3.72 6.8a2.81 2.81 0 002-.7 2.78 2.78 0 000-3.8 2.81 2.81 0 00-2-.7h-1.78v5.2z" fill="#9287c6"/><path d="M29.84 36v25.91h-5.79v-21.1H19V36zm21.39 2.87q3 3.3 3 9.53a16.54 16.54 0 01-1.62 7.6 11.06 11.06 0 01-4.49 4.78 13.37 13.37 0 01-6.69 1.63 16 16 0 01-3.83-.46 10.16 10.16 0 01-3.11-1.32l2.15-4.4a7.92 7.92 0 004.68 1.29 6.67 6.67 0 005-1.94 8.28 8.28 0 002-5.61 8.26 8.26 0 01-6.22 2.33 9.46 9.46 0 01-4.37-1 7.73 7.73 0 01-3.11-2.83 7.87 7.87 0 01-1.14-4.24 8.11 8.11 0 014.66-7.57A10.79 10.79 0 0143 35.55a10.47 10.47 0 018.23 3.32zm-4.7 7.81a3.87 3.87 0 000-5.57A4.51 4.51 0 0043.36 40a4.38 4.38 0 00-3 1 3.59 3.59 0 00-1.16 2.81 3.67 3.67 0 001.16 2.84 5 5 0 006.19 0zM74 38.87q3 3.3 3 9.53a16.41 16.41 0 01-1.61 7.6 11 11 0 01-4.48 4.78 13.42 13.42 0 01-6.69 1.63 15.94 15.94 0 01-3.83-.46 10.06 10.06 0 01-3.11-1.32l2.14-4.4a8 8 0 004.69 1.29 6.67 6.67 0 005-1.94 8.34 8.34 0 002-5.61 8.29 8.29 0 01-6.23 2.33 9.42 9.42 0 01-4.36-1 7.68 7.68 0 01-4.26-7.07A8.1 8.1 0 0161 36.61a10.75 10.75 0 014.81-1.06A10.48 10.48 0 0174 38.87zm-4.71 7.81a3.88 3.88 0 000-5.57A4.52 4.52 0 0066.15 40a4.36 4.36 0 00-3 1A3.57 3.57 0 0062 43.88a3.64 3.64 0 001.17 2.84 5 5 0 006.18 0zm-25.08 83.19q3 3.3 3 9.53a16.54 16.54 0 01-1.62 7.6 11.06 11.06 0 01-4.49 4.78 13.37 13.37 0 01-6.69 1.63 15.94 15.94 0 01-3.83-.46 10.16 10.16 0 01-3.11-1.32l2.15-4.4a7.89 7.89 0 004.68 1.29 6.69 6.69 0 005.05-1.94 8.33 8.33 0 002-5.61 8.27 8.27 0 01-6.23 2.33 9.45 9.45 0 01-4.36-1 7.73 7.73 0 01-3.11-2.83 7.87 7.87 0 01-1.15-4.24 8.14 8.14 0 014.67-7.57 10.75 10.75 0 014.83-1.11 10.48 10.48 0 018.21 3.32zm-4.7 7.81a3.89 3.89 0 000-5.57 4.51 4.51 0 00-3.2-1.08 4.36 4.36 0 00-3 1 3.56 3.56 0 00-1.16 2.81 3.64 3.64 0 001.16 2.84 4.42 4.42 0 003.09 1.05 4.41 4.41 0 003.11-1.05zM67 129.87q3 3.3 3 9.53a16.54 16.54 0 01-1.6 7.55 11 11 0 01-4.49 4.78 13.36 13.36 0 01-6.68 1.63 15.88 15.88 0 01-3.83-.46 10 10 0 01-3.11-1.32l2.14-4.4a8 8 0 004.69 1.29 6.67 6.67 0 005-1.94 8.34 8.34 0 002-5.61 8.29 8.29 0 01-6.23 2.33 9.42 9.42 0 01-4.36-1 7.76 7.76 0 01-3.12-2.83 7.87 7.87 0 01-1.14-4.24 8.1 8.1 0 014.73-7.57 10.72 10.72 0 014.81-1.06 10.5 10.5 0 018.19 3.32zm-4.71 7.81a3.88 3.88 0 000-5.57 4.52 4.52 0 00-3.2-1.08 4.41 4.41 0 00-3 1 3.59 3.59 0 00-1.16 2.81 3.67 3.67 0 001.16 2.84 4.46 4.46 0 003.1 1.05 4.4 4.4 0 003.1-1.05zm-18.08 83.19q3 3.3 3 9.53a16.54 16.54 0 01-1.62 7.6 11.06 11.06 0 01-4.49 4.78 13.37 13.37 0 01-6.69 1.63 15.94 15.94 0 01-3.83-.46 10.16 10.16 0 01-3.11-1.32l2.15-4.4a7.89 7.89 0 004.68 1.29 6.69 6.69 0 005.05-1.94 8.38 8.38 0 002-5.61 8.27 8.27 0 01-6.23 2.33 9.45 9.45 0 01-4.36-1 7.68 7.68 0 01-4.26-7.07 8.14 8.14 0 014.67-7.57 10.75 10.75 0 014.83-1.11 10.48 10.48 0 018.21 3.32zm-4.7 7.81a3.64 3.64 0 001.19-2.8 3.57 3.57 0 00-1.16-2.77 4.51 4.51 0 00-3.2-1.08 4.36 4.36 0 00-3 1 3.56 3.56 0 00-1.16 2.81 3.64 3.64 0 001.16 2.84 4.42 4.42 0 003.09 1.05 4.41 4.41 0 003.08-1.05zM67 220.87q3 3.3 3 9.53a16.54 16.54 0 01-1.63 7.6 11 11 0 01-4.49 4.78 13.36 13.36 0 01-6.68 1.63 15.88 15.88 0 01-3.83-.46 10 10 0 01-3.11-1.32l2.14-4.4a8 8 0 004.69 1.29 6.67 6.67 0 005-1.94 8.28 8.28 0 002-5.61 8.25 8.25 0 01-6.22 2.33 9.42 9.42 0 01-4.36-1 7.76 7.76 0 01-3.12-2.83 7.87 7.87 0 01-1.14-4.24 8.1 8.1 0 014.75-7.62 10.72 10.72 0 014.81-1.06 10.5 10.5 0 018.19 3.32zm-4.71 7.81a3.88 3.88 0 000-5.57 4.52 4.52 0 00-3.2-1.08 4.41 4.41 0 00-3 1 3.59 3.59 0 00-1.16 2.81 3.67 3.67 0 001.16 2.84 4.46 4.46 0 003.1 1.05 4.4 4.4 0 003.1-1.05zm-18.08 84.19q3 3.3 3 9.53a16.54 16.54 0 01-1.62 7.6 11.06 11.06 0 01-4.49 4.78 13.37 13.37 0 01-6.69 1.63 15.94 15.94 0 01-3.83-.46 10.16 10.16 0 01-3.11-1.32l2.15-4.4a7.89 7.89 0 004.68 1.29 6.69 6.69 0 005.05-1.94 8.38 8.38 0 002-5.61 8.27 8.27 0 01-6.23 2.33 9.45 9.45 0 01-4.36-1 7.68 7.68 0 01-4.26-7.07 8.14 8.14 0 014.67-7.57 10.75 10.75 0 014.83-1.11 10.48 10.48 0 018.21 3.32zm-4.7 7.81a3.64 3.64 0 001.19-2.8 3.57 3.57 0 00-1.16-2.77 4.51 4.51 0 00-3.2-1.08 4.36 4.36 0 00-3 1 3.56 3.56 0 00-1.16 2.81 3.64 3.64 0 001.16 2.84 4.42 4.42 0 003.09 1 4.41 4.41 0 003.08-1zM67 312.87q3 3.3 3 9.53a16.54 16.54 0 01-1.63 7.6 11 11 0 01-4.49 4.78 13.36 13.36 0 01-6.68 1.63 15.88 15.88 0 01-3.83-.46 10 10 0 01-3.11-1.32l2.14-4.4a8 8 0 004.69 1.29 6.67 6.67 0 005-1.94 8.28 8.28 0 002-5.61 8.25 8.25 0 01-6.22 2.33 9.42 9.42 0 01-4.36-1 7.76 7.76 0 01-3.12-2.83 7.87 7.87 0 01-1.14-4.24 8.1 8.1 0 014.75-7.62 10.72 10.72 0 014.81-1.06 10.5 10.5 0 018.19 3.32zm-4.71 7.81a3.88 3.88 0 000-5.57 4.52 4.52 0 00-3.2-1.08 4.41 4.41 0 00-3 1 3.59 3.59 0 00-1.16 2.81 3.67 3.67 0 001.16 2.84 4.46 4.46 0 003.1 1 4.4 4.4 0 003.1-1z" fill="#fefefe"/></g></g></g></svg>