<svg xmlns="http://www.w3.org/2000/svg" viewBox="0 0 556.56 373.67"><defs><style>.cls-1{fill:#34256b;}.cls-2{fill:#fff;}</style></defs><title>screen-hackupc</title><g id="Capa_2" data-name="Capa 2"><g id="pantallas"><g id="_2D" data-name="2D"><g id="final"><g id="principal"><rect id="pantalla" class="cls-1" width="556.56" height="373.67"/><g id="título"><path class="cls-2" d="M95.94,133.8l0,66.47H89l0-30.68-41.59,0,0,30.68h-7l0-66.47h7l0,29.63,41.6,0,0-29.63Z"/><path class="cls-2" d="M159.24,182.56l-37,0-8,17.75h-7.31l30.43-66.45h6.93l30.34,66.5h-7.4Zm-2.56-5.7-15.93-35.72-16,35.7Z"/><path class="cls-2" d="M195.75,196.54a32,32,0,0,1-12.44-12.11,35.59,35.59,0,0,1,0-34.66,31.9,31.9,0,0,1,12.5-12.1,38.8,38.8,0,0,1,31.52-1.88A28.53,28.53,0,0,1,238,143l-4.47,4.46q-7.78-7.87-19.65-7.89a28.88,28.88,0,0,0-14.35,3.6,26.37,26.37,0,0,0-10.12,9.87,28.87,28.87,0,0,0,0,28.1A26.47,26.47,0,0,0,199.5,191a28.93,28.93,0,0,0,14.34,3.62q12,0,19.66-8l4.46,4.47a28.84,28.84,0,0,1-10.69,7.26,36.66,36.66,0,0,1-13.72,2.5A36.15,36.15,0,0,1,195.75,196.54Z"/><path class="cls-2" d="M273.59,169.15,260,182.91l0,17.48h-7l0-66.47h7l0,40.17,39.06-40.14h8.07L278.34,164l30.74,36.39h-8.36Z"/><path class="cls-2" d="M324.9,193.69Q317,185.8,317,171.18L317,134l15.38,0,0,36.65q0,17.85,14.8,17.86,7.21,0,11-4.31t3.8-13.53L362,134h15.19l0,37.22q0,14.63-7.95,22.5t-22.18,7.87Q332.83,201.58,324.9,193.69Z"/><path class="cls-2" d="M436.52,137A22,22,0,0,1,450,158.17a23.11,23.11,0,0,1-3.52,12.77,22.41,22.41,0,0,1-10,8.35,37.28,37.28,0,0,1-15.33,2.88H407.76l0,18.33H392.36l.05-66.47,28.77,0A37,37,0,0,1,436.52,137Zm-5.68,29.67q3.62-3,3.62-8.49t-3.6-8.6q-3.62-3-10.54-3H407.78v23.08H420.3Q427.23,169.64,430.84,166.65Z"/><path class="cls-2" d="M475.31,197.26A32.81,32.81,0,0,1,462.41,185a35.72,35.72,0,0,1,0-35.42,33,33,0,0,1,12.92-12.24,41.24,41.24,0,0,1,34.1-1.35,31.36,31.36,0,0,1,11.72,8.74l-9.88,9.11a21.25,21.25,0,0,0-16.71-7.79,22.13,22.13,0,0,0-11,2.69,19.23,19.23,0,0,0-7.55,7.55,23.74,23.74,0,0,0,0,22,19.21,19.21,0,0,0,7.54,7.55,22.15,22.15,0,0,0,11,2.72,21.17,21.17,0,0,0,16.72-7.87l9.87,9.12a30.76,30.76,0,0,1-11.79,8.82,38.83,38.83,0,0,1-15.67,3A38.09,38.09,0,0,1,475.31,197.26Z"/><g id="titol"><path class="cls-2" d="M53.29,224.06V227l-6.95,16.63h-4.7l6.7-15.87H42.15v3.18H38.3v-6.87Z"/><path class="cls-2" d="M58.55,242.75a8,8,0,0,1-2.85-3.48,14.85,14.85,0,0,1,0-10.87,8,8,0,0,1,2.85-3.47,7.74,7.74,0,0,1,8.28,0,8,8,0,0,1,2.84,3.47,14.85,14.85,0,0,1,0,10.87,7.92,7.92,0,0,1-2.84,3.48,7.74,7.74,0,0,1-8.28,0Zm6.82-4.16a12,12,0,0,0,0-9.5,3.08,3.08,0,0,0-5.34,0,12.12,12.12,0,0,0,0,9.5,3.09,3.09,0,0,0,5.34,0Z"/><path class="cls-2" d="M76.68,242.75a7.92,7.92,0,0,1-2.84-3.48,14.85,14.85,0,0,1,0-10.87,8,8,0,0,1,2.84-3.47,7.74,7.74,0,0,1,8.28,0,8,8,0,0,1,2.85,3.47,14.85,14.85,0,0,1,0,10.87A8,8,0,0,1,85,242.75a7.74,7.74,0,0,1-8.28,0Zm6.83-4.16a12.12,12.12,0,0,0,0-9.5,3,3,0,0,0-2.69-1.54,3,3,0,0,0-2.65,1.54,12,12,0,0,0,0,9.5,3,3,0,0,0,2.65,1.53A3,3,0,0,0,83.51,238.59Z"/><path class="cls-2" d="M116.83,224.06v19.56H112.5v-8H104v8H99.68V224.06H104v7.71h8.49v-7.71Z"/><path class="cls-2" d="M133.57,239.43h-8.68l-1.65,4.19H118.8l8.34-19.56h4.27l8.36,19.56h-4.54ZM132.21,236l-3-7.49-3,7.49Z"/><path class="cls-2" d="M145.23,242.65a9.44,9.44,0,0,1-3.63-3.6,10.94,10.94,0,0,1,0-10.42,9.47,9.47,0,0,1,3.63-3.61,11.19,11.19,0,0,1,9.59-.4,8.85,8.85,0,0,1,3.3,2.57l-2.78,2.68a5.85,5.85,0,0,0-4.7-2.29,6,6,0,0,0-3.1.8,5.6,5.6,0,0,0-2.12,2.22,7.29,7.29,0,0,0,0,6.48,5.6,5.6,0,0,0,2.12,2.22,6,6,0,0,0,3.1.8,5.85,5.85,0,0,0,4.7-2.32l2.78,2.68a8.78,8.78,0,0,1-3.31,2.6,10.69,10.69,0,0,1-4.41.89A10.34,10.34,0,0,1,145.23,242.65Z"/><path class="cls-2" d="M167.84,235.93l-2.51,2.74v5H161V224.06h4.3v9.14l8.28-9.14h4.81l-7.75,8.72,8.2,10.84h-5Z"/><path class="cls-2" d="M195.27,240v3.64H180.8V224.06h14.13v3.63H185.1v4.25h8.68v3.52H185.1V240Z"/><path class="cls-2" d="M210.63,243.62l-3.6-5.45h-4v5.45h-4.33V224.06h8.09a10,10,0,0,1,4.32.87,6.43,6.43,0,0,1,2.81,2.46,7,7,0,0,1,1,3.77,6.82,6.82,0,0,1-1,3.75,6.43,6.43,0,0,1-2.84,2.42l4.19,6.29Zm-1.09-15a4.41,4.41,0,0,0-3-.88h-3.52v6.81h3.52a4.36,4.36,0,0,0,3-.89,3.65,3.65,0,0,0,0-5Z"/><path class="cls-2" d="M220.21,243.32a10,10,0,0,1-3.33-1.63l1.47-3.41a9.77,9.77,0,0,0,2.86,1.48,10.36,10.36,0,0,0,3.31.56,5.08,5.08,0,0,0,2.72-.57,1.76,1.76,0,0,0,.89-1.53,1.5,1.5,0,0,0-.53-1.16,4,4,0,0,0-1.33-.74c-.54-.18-1.28-.39-2.2-.61a29.3,29.3,0,0,1-3.5-1.06,5.69,5.69,0,0,1-2.34-1.71,4.72,4.72,0,0,1-1-3.12,5.61,5.61,0,0,1,.89-3.09,6,6,0,0,1,2.65-2.19,10.48,10.48,0,0,1,4.34-.81,13.65,13.65,0,0,1,3.5.44,10,10,0,0,1,3,1.29l-1.33,3.43a10.14,10.14,0,0,0-5.18-1.53,4.71,4.71,0,0,0-2.69.61,1.89,1.89,0,0,0-.86,1.62,1.59,1.59,0,0,0,1,1.5,15.54,15.54,0,0,0,3.06,1,29.07,29.07,0,0,1,3.49,1.06,5.8,5.8,0,0,1,2.34,1.68,4.63,4.63,0,0,1,1,3.1,5.48,5.48,0,0,1-.9,3.06,6.09,6.09,0,0,1-2.68,2.19,10.57,10.57,0,0,1-4.36.81A14.59,14.59,0,0,1,220.21,243.32Z"/><path class="cls-2" d="M392.33,234a5.46,5.46,0,0,1,1.31,3.71,5.9,5.9,0,0,1-3.47,5.47,9.61,9.61,0,0,1-4.3.86,14.21,14.21,0,0,1-3.89-.54,9.69,9.69,0,0,1-3.26-1.56l1.69-3.47a7.81,7.81,0,0,0,2.48,1.3,9.1,9.1,0,0,0,2.88.47,4.41,4.41,0,0,0,2.57-.66,2.16,2.16,0,0,0,.94-1.87q0-2.4-3.51-2.4h-2v-3l3.85-4.57h-8v-3.64h13.12V227l-4.23,5A6.29,6.29,0,0,1,392.33,234Z"/><path class="cls-2" d="M407.94,232.14a5.8,5.8,0,0,1,2.33,2.14,6,6,0,0,1,.86,3.21,6.25,6.25,0,0,1-.94,3.44,6.18,6.18,0,0,1-2.56,2.29,8.06,8.06,0,0,1-3.6.79,7.79,7.79,0,0,1-6.16-2.52q-2.22-2.52-2.22-7.2a12.57,12.57,0,0,1,1.2-5.71,8.43,8.43,0,0,1,3.37-3.61,9.87,9.87,0,0,1,5-1.23,11.36,11.36,0,0,1,2.88.35,7.37,7.37,0,0,1,2.34,1l-1.6,3.33a6,6,0,0,0-3.51-1,5,5,0,0,0-3.78,1.46,6.24,6.24,0,0,0-1.5,4.23,6.1,6.1,0,0,1,4.63-1.74A7,7,0,0,1,407.94,232.14Zm-1.89,7.7a2.72,2.72,0,0,0,.88-2.13,2.77,2.77,0,0,0-.88-2.14,3.71,3.71,0,0,0-4.64,0,2.92,2.92,0,0,0,0,4.21,3.39,3.39,0,0,0,2.41.82A3.26,3.26,0,0,0,406.05,239.84Z"/><path class="cls-2" d="M438.66,224.07v19.61h-4.34v-8h-8.51v8h-4.34V224.07h4.34v7.73h8.51v-7.73Z"/><path class="cls-2" d="M446.92,242.7a9.62,9.62,0,0,1-3.67-3.63,10.88,10.88,0,0,1,0-10.39,9.62,9.62,0,0,1,3.67-3.63,11.22,11.22,0,0,1,10.52,0,9.76,9.76,0,0,1,3.67,3.63,10.81,10.81,0,0,1,0,10.39,9.76,9.76,0,0,1-3.67,3.63,11.22,11.22,0,0,1-10.52,0Zm8.27-3.35a5.58,5.58,0,0,0,2.1-2.23,7.31,7.31,0,0,0,0-6.49,5.58,5.58,0,0,0-2.1-2.23,6,6,0,0,0-6,0,5.54,5.54,0,0,0-2.11,2.23,7.31,7.31,0,0,0,0,6.49,5.54,5.54,0,0,0,2.11,2.23,6,6,0,0,0,6,0Z"/><path class="cls-2" d="M467.79,241.69a9.2,9.2,0,0,1-2.24-6.64v-11h4.34v10.81q0,5.26,4.18,5.27a3.82,3.82,0,0,0,3.1-1.27,6.13,6.13,0,0,0,1.08-4V224.07h4.28v11c0,2.88-.74,5.09-2.24,6.64a9.58,9.58,0,0,1-12.5,0Z"/><path class="cls-2" d="M498.76,243.68l-3.61-5.46h-4v5.46h-4.34V224.07h8.11a10,10,0,0,1,4.33.87,6.53,6.53,0,0,1,2.82,2.46,7.07,7.07,0,0,1,1,3.79,6.85,6.85,0,0,1-1,3.76,6.42,6.42,0,0,1-2.85,2.43l4.2,6.3Zm-1.1-15a4.39,4.39,0,0,0-3-.88h-3.53v6.83h3.53a4.39,4.39,0,0,0,3-.89,3.65,3.65,0,0,0,0-5.06Z"/><path class="cls-2" d="M508.36,243.39a10,10,0,0,1-3.33-1.64l1.47-3.42a9.83,9.83,0,0,0,2.87,1.48,10.11,10.11,0,0,0,3.32.56,5.14,5.14,0,0,0,2.73-.57,1.74,1.74,0,0,0,.88-1.53,1.49,1.49,0,0,0-.52-1.16,3.74,3.74,0,0,0-1.34-.74c-.54-.19-1.28-.39-2.21-.62a30.12,30.12,0,0,1-3.51-1.06,5.78,5.78,0,0,1-2.34-1.71,4.78,4.78,0,0,1-1-3.14,5.61,5.61,0,0,1,.89-3.09,5.93,5.93,0,0,1,2.66-2.2,10.49,10.49,0,0,1,4.35-.81,14.18,14.18,0,0,1,3.51.44,10.11,10.11,0,0,1,3,1.29l-1.34,3.45a10.06,10.06,0,0,0-5.19-1.54,4.69,4.69,0,0,0-2.69.61,1.92,1.92,0,0,0-.88,1.63,1.6,1.6,0,0,0,1,1.5,15.23,15.23,0,0,0,3.07,1,29.68,29.68,0,0,1,3.5,1.07,5.67,5.67,0,0,1,2.35,1.68,4.64,4.64,0,0,1,1,3.11,5.48,5.48,0,0,1-.9,3.06,6.07,6.07,0,0,1-2.69,2.2,10.59,10.59,0,0,1-4.37.81A14.76,14.76,0,0,1,508.36,243.39Z"/></g></g></g></g></g></g></g></svg>