<svg xmlns="http://www.w3.org/2000/svg" viewBox="0 0 99.97 336.77"><defs><style>.cls-1{fill:#1f143a;}</style></defs><title>silhouette-4</title><g id="Capa_2" data-name="Capa 2"><g id="Capa_1-2" data-name="Capa 1"><path class="cls-1" d="M87.91,147.92c3.75-3.81,10.39-13.93,10.88-14.66s.1-.45.87-1-.13-2.18.07-2.47.32-.42,0-1.29-.91-1.21-.65-2,.33-2.87-.39-6.23S94.47,92.75,93.75,83s-2.36-13.26-2.59-13.68-1-.4-1.23-.68a14.69,14.69,0,0,0-4.67-2.31c-1.07-.34-4.37-2-7.93-3.81a22,22,0,0,0-.47-4.48,12.45,12.45,0,0,0-2.64-5.45c-1.92-2.3-4.91-3.69-7.59-4.87-.39-.17-.59-.71-.9-.86,2.65-2,6.52-2.3,9-4.72a7.55,7.55,0,0,0,2.16-4.61,18.7,18.7,0,0,0-.24-3.88,50.91,50.91,0,0,1-.31-8.46,34.2,34.2,0,0,0,0-6.86A16.53,16.53,0,0,0,75,14.05a22.23,22.23,0,0,0-4.24-6.37A29.79,29.79,0,0,0,65,3.14a19.28,19.28,0,0,0-6.8-3,8.13,8.13,0,0,0-7,1.77,13.07,13.07,0,0,1-1.54,1.44c-1,.72-2.37.77-3.57,1.13-3.82,1.15-6.06,5.47-6.78,9.62S39,22.58,38.26,26.73A34,34,0,0,0,37.44,32a12.45,12.45,0,0,0,1.36,5.45,11.78,11.78,0,0,0,2.33,3.38c.33,2.58.51,3.86,2.56,5.86,0,0,.43.28.43,1.36,0,.67-.24,3.05-.38,5.23a6.15,6.15,0,0,0-1.9,2.51C40.72,58,40.13,58.25,39,58.67a6.43,6.43,0,0,0-2.74,1.47c-.39.56-17.74,3.47-19.29,4.24,0,0-.69-.39-1.34.63s-4.22,11.31-5.47,18.7-8,31.6-8.56,35c-.29,1.94-1.18,2.46-1.08,3.51s-.15,1.06-.3,2-.3,1.73,0,1.94-.1,1,.2,1.68-.15.84.49,1.21.35,1.84,1.68,3.73S13.38,145,15.73,148M64.88,47.15a2,2,0,0,1,0-.25,2,2,0,0,0,0,.25m.05-.56,0-.18,0,.18m.07-.43A.43.43,0,0,1,65,46a.43.43,0,0,0,0,.12M81.91,124.8c-.85,1.24-2.14,2.22-2.44,3.72-.14.65-.1,1.43-.57,1.87a2.68,2.68,0,0,1-.79.4,4.19,4.19,0,0,0-2.1,2c.22-.93.44-1.85.65-2.77a9.15,9.15,0,0,0,.27-1.55,17.21,17.21,0,0,0-.81-4.16.79.79,0,0,1,0-.43,1.53,1.53,0,0,0,.16-.31.62.62,0,0,0-.07-.33,2.18,2.18,0,0,1,.71-2,3.4,3.4,0,0,0,1.15-1.87c0-.45-.13-.9-.12-1.35,0-.82.59-1.56.52-2.37,0-.38-.2-.73-.24-1.1a3.34,3.34,0,0,1,.23-1.39l.8-2.51c0-.15.13-.32.28-.33h0c0,.63,0,1.27,0,1.91a3.1,3.1,0,0,0,.18,1.21,3.4,3.4,0,0,0,.57.78,8.54,8.54,0,0,1,1.36,2.22,2,2,0,0,1,.2.79,2.71,2.71,0,0,1-.2.84,11.52,11.52,0,0,0-.43,2.87,4.09,4.09,0,0,0,.48,2.8c.18.24.43.47.4.77a.8.8,0,0,1-.17.36m-59.7-11.29s0,0,0,.07a1,1,0,0,1,0,.14,14.34,14.34,0,0,0,.67,2,1,1,0,0,1,0,.1,12.43,12.43,0,0,1,.11,4,69.87,69.87,0,0,0,.06,7.09,6.77,6.77,0,0,0,.09,1,8.27,8.27,0,0,1,.45,1.94,22.42,22.42,0,0,1-3.43-2.9c-.24-.21-.59-.28-.56-.6a.9.9,0,0,1,.39-.72A2.47,2.47,0,0,0,20.9,124a4.07,4.07,0,0,0-.26-1.86,6.86,6.86,0,0,1-.34-1c-.16-.83.21-1.7.07-2.54-.06-.37-.21-.71-.25-1.08a4.45,4.45,0,0,1,1-2.4c.56-1,.57-3,.74-3.77a17.28,17.28,0,0,0,.38,2.16M43.64,55v-.28l0,0c0,.11,0,.21,0,.31m11.71,281.7c-.31,0-.61,0-.92,0a7.13,7.13,0,0,1,.92,0"/></g></g></svg>