<svg xmlns="http://www.w3.org/2000/svg" viewBox="0 0 71.18 237.37"><path d="M71.16 83.26c-.22-.47-.8-1.17-.71-1.46s.49-.67.4-1a11.34 11.34 0 00-1-1.59 1.82 1.82 0 010-1.1 2.84 2.84 0 00-.21-1.66 21.52 21.52 0 01-.84-4.2c-.07-.77-.33-3.52-.47-4.22s-.52-4.1-.61-4.76-.54-3.79-.66-5a40 40 0 00-.91-4.69 45.84 45.84 0 00-1.43-5.11 23.13 23.13 0 01-1-2.74c-.15-.28-.22-1.27-.64-2.39s-2-4.11-3.26-6.47a56.1 56.1 0 01-3.16-6.68c-.63-1.76-1.05-3.29-1.41-4.32s-1.1-4.71-1.26-5.69-1.08-4-1.57-6.14A16.77 16.77 0 0050 8.44a18.7 18.7 0 00-7.74-7.1C37.59-.77 32.2-.39 29.72 2.51c0 0-1.42.07-.59 2.72a4.74 4.74 0 00-4.42 4.9 9 9 0 00.29 3.44s-.22.46.21 1.43a2.73 2.73 0 01-.21 2.53 9 9 0 00-.11 4.66 19.34 19.34 0 001.51 5.19 23.57 23.57 0 001.6 2.88 8.08 8.08 0 001.1 1.08c.22.13-.32.72-.75 2.23a16.77 16.77 0 00-.27 3.52 9.59 9.59 0 01-4.79 3 46.85 46.85 0 01-7.29 1c-2.35.22-5.73 3.47-6.68 5.92s-2.74 7.62-3.09 8.88-1.54 4.66-1.54 4.66S3.32 67.18 3 69a50.94 50.94 0 01-2.5 7.22 1.12 1.12 0 00.16 1.49c.43.53.59.86.37 1.39a9.16 9.16 0 00-.86 2.27 7.53 7.53 0 00.62 2.28c.38.65 1 2.1 1.13 2.26s-.35 1.4-.51 2.59-.4 7-.38 8.34.38 7.61.38 8.64-.24 4.55-.35 5a2.11 2.11 0 00.19 1.32 17.46 17.46 0 01-.35 4.52c-.32 1.72-1 3.42-.89 4s.49 3.26.73 4.42a2.75 2.75 0 001.16 1.93c.7.68 1.37 1.65 1.61 1.78A1.11 1.11 0 014 129a2.45 2.45 0 00.67.75c.19.11 2.1 1.27 2.51 1.56a2.35 2.35 0 01.72.92 2.57 2.57 0 01.33 1.42c-.08.43-.49.92-.41 1.51s.54.92.94 1.34.38 1.49.46 2.32.43 1.08.73 1.78a6.41 6.41 0 01.32 3.31 20.93 20.93 0 00-.24 4.44c.11 1.21.48.94.35 2a12.08 12.08 0 00-.4 3.28c.16 1.1 1 2.5.8 2.9s-.05.95-.37 1.51a7.53 7.53 0 00-.6 3.23 6.82 6.82 0 00.54 1.8c.22.38.35.38 0 .78s-.68.76-.52.95a1.7 1.7 0 01.11 1.34c-.16.54-.27.51-.54 1s-.64.44-.32.89.46.59.35 1-.38 1.05-.48 1.4-.27 2.23-.35 3.17 0 2.69 0 3.39-.05 4.23 0 5.06.21 6.08.64 8.34c0 0 2.17 18.47 2.31 20s-2.38 3.64-1 5.88 2 1.4 1.68 4.19-1.12 3.64-.84 4.9-.42 1.82-.84 2.94c0 0-1.68 1.4-.28 2.52 0 0-.56 1.82 0 2.66s0 2 1 2.52 7.7 1.68 10.5.14c0 0 .56-2.38 1.68-3.08s1.95-2.1 1.67-2.94-1.12-2-.84-2.66 0-3.08.28-4.48-.56-5.31-.41-6.43.69-3.36 0-4.48-1-3.92-.42-4.34 1-7.56 1.25-12.87.14-16.1.7-18.2.56-3.78 1-5.45-.7-2 .28-3.36 2.66-8 2.94-10.22.84-8.26 1.12-9.09a19.68 19.68 0 001.12-4.34 53.53 53.53 0 011.26-6.16c.28-1.26.28-4.34.84-4.48s1.4 4.06 1.54 4.76-.56 1.54.42 3.08 1.12 11.89 1.54 13.71 1.4 9.38 1.82 10.64 1.12 2.24 1.26 3.08-.7.7-.28 1.82 1.12 1.4 1.26 2.38-.84 1.54-.56 2.51.42 10.08.7 11.62.14 5.18.7 6.16.28 1.68.42 2.51-1.68 8.54-1.82 10.78-1 12.46-.56 13.71 2.1 5.46 2.94 6.44.84 4.62 1.82 5.88a3.94 3.94 0 011 3.22c-.14 1 1.67.7 2.37.7s.42-1.12 1.26-.56 8.12 2.1 12 .84c0 0 1.12-1.12 1-1.82s-.28-1.26-.28-1.26-2.52-3.64-2.94-4.34a8.08 8.08 0 00-1.12-1.4 4.3 4.3 0 01-1-1.68 14.79 14.79 0 00-.84-2.66 5.24 5.24 0 01-1-1.68c-.14-.55-1.26-.84-.7-1.39s1-2.52.56-2.66-2-.56-1.54-1.26.28-2.1 1-2.8 2.38-6.86 2-8.68.56-12.45.56-15.11.7-18.75.56-19.59-.84-.56-.84-1.12-.28-1-.28-1.68-.42-.56-.14-2.1a24.09 24.09 0 00.28-4.48c0-1.54-.42-2.52-.28-4.06s.84-2.94.7-4.33a41 41 0 010-5.88c.14-.84 1-6.44 1.26-7.84s.28-.84.56-2.38-.14-3.22.28-3.78a5.24 5.24 0 001.26-2.66c.14-1.25 0-12.17-.28-14.55s-1.3-2.47-.85-2.65 7-1.26 8.26-4.48a10.44 10.44 0 001.07-2.31s.68-.09.82-.44a9.62 9.62 0 00.22-3c-.17-.52-1-1.15-.92-1.22s.59-6.09.73-7a36.34 36.34 0 00.21-5.21c-.12-.63-.14-1.4-.19-1.92s-.56-2.16-.26-2.53 1.46-1.24 1.25-1.71m-8.89 19.59c-.28-.08-.6-1.22-.81-2.06a17.11 17.11 0 01-.11-3.19 8.17 8.17 0 011.24 3.62c.11 1.42 0 1.72-.32 1.63" fill="#1f143a"/></svg>