<svg xmlns="http://www.w3.org/2000/svg" viewBox="0 0 93.66 247.15"><g data-name="Capa 2"><path d="M44.86 7.28A15.25 15.25 0 0147 15.69s.54 2.1.14 2.64-1.09.88-.82 2 1.7 4.74 1.83 5.49A1.08 1.08 0 0147 27.08c-.68-.07-1.42-.28-1.63.06s-.06 1.09-.4 1.7-.61.54-1 .68c0 0-2.61-.8-2.08.69 0 0-.16.68.83 1.24s.47 1.17.06 1.73a2.32 2.32 0 00-.78 2.13c.06 1.49-.59 2.6-1.7 2.76s-1.36-.59-1.86-.5a31.42 31.42 0 01-3.46.37c-1.3.07-2.39 1.4-2.91 2.57A29.7 29.7 0 0031 44.66c-.18.71.34 1.67.31 1.92s1.3 1 3 2 5.57 4 6.16 5.72a14.91 14.91 0 01.4 5.2c0 1.64.22 2.51.25 3.68s.84 4.27 1.15 6.35.21 6 .3 8.17a28.1 28.1 0 00.28 3.18s4.55-1.11 5.73-.89l7.22-32.61s0-1.24 2-1 34.78 6.5 34.78 6.5a1.48 1.48 0 011.11 1.64c-.15 1.33-7.48 32-7.48 32a2.76 2.76 0 01-1.52 1c-1.08.31-13.12 3.25-13.12 3.25s.18 2-.68 2.23-2-1.42-2.42-1.64l-.61.15s.77.66.8 1.09-.56 1.76-1.11 1.82a9 9 0 01-2-.28s.18 1-.41 1.3a6.72 6.72 0 00-2.14 1.7c-.31.56-2.1.65-2.6.62a2.32 2.32 0 01-.9-.16 4.35 4.35 0 00-.83-.43L57.59 97c-.21 0-.49-.55-1.11-.74s-2.88-1.2-3.5-1.08-1.73.77-2.44 1a16.72 16.72 0 00-3 1.64c-.13.15.77 2 .68 2.75a9.64 9.64 0 00.22 3.62 7.67 7.67 0 01.68 4.74 25.38 25.38 0 011.14 3.31c.28 1.27-.25 2.32 0 2.72a2.83 2.83 0 011 2 5.47 5.47 0 00.34 2.54 3.85 3.85 0 01.5 2.44l-.16 1s-.21-.06-.21 0a15.79 15.79 0 00.65 4.27 14.88 14.88 0 01.74 5.39c-.09 1.61-.59 8.69-.74 10.15a16.18 16.18 0 01-1 4.14 35.92 35.92 0 00-1 5.14c-.18 1.21-.77 3.25-1 4.77s-.4 1.88-.58 2.72-.28 3.31-.53 4.89-.77 4.64-.9 5.57-.43 3.46-.71 4.7-1.52 3.41-1.61 4 .74 2 .43 3a9.08 9.08 0 00-.61 4.34 43.15 43.15 0 01.77 5.72c0 1.55 0 5.39-.06 6.9s-.22 4.8-.47 6.56a45.39 45.39 0 01-1.51 6.5 9.72 9.72 0 00-.84 3.34c.09.74.74 1.86.81 2.57s1.73 6.53 1.85 7a9.47 9.47 0 01.28 2.6 10.75 10.75 0 01-.34 1.95s1.52.13 1.83 1.3-.44 1.67-.53 2a3.39 3.39 0 00.12 1.8 4.24 4.24 0 001.27 1.2c.25 0 1.27-.12 1.43.16s-.25.62-.31.83.18.28.65.44 2.53 1.14 3.77 1.76 2.79 1.83 3.13 1.73 3.93-1 5.26-.06 1.58 3 .86 3.81-2.26 2.29-4 2.32-30.91.74-30.91.74-.9-.31-1.18-.43-8.88.18-9 .18-5.72.28-8.26-.8-1.79-2.23-1.79-2.23a13.83 13.83 0 00.34-1.61c0-.31.15-1.39.15-1.39s-.37-.71-.24-1.05.55-.37.46-1.24-.8-2.32-.68-3.22 1.36-1.79 2.07-3.15 1.55-2.14 1.12-4.49.43-5.66.74-6.93 1.21-4.52 1.42-6.32 1.52-7.2 1.83-8.6 2.29-8.48 2.41-9.81a20.9 20.9 0 01.74-4.11c.31-.78.62-.19.69-1.46s.86-2 1.08-3.8a15 15 0 01.49-3.31 13.1 13.1 0 011.95-3.75c.68-1 1.05-1 1-1.92a33 33 0 01.1-5.44c.24-1.67.61-2.66.43-3.62s-.12-1.64-.47-2a7.88 7.88 0 01-1.94-3.1 49.32 49.32 0 01-1.43-5.91 9.18 9.18 0 00-.49-2.6 17.22 17.22 0 01-1.47-3.54c-.5-1.61-.84-3.72-1.24-4.55a12.81 12.81 0 01-.87-2c-.31-.93-1-4.71-1.14-5.23a8.83 8.83 0 00-.78-2.14 51.9 51.9 0 01-2.63-7c-.12-.93-.77-7.21-.8-7.64s.56-1.12.53-1.33-.13-5.39-.13-5.79a7 7 0 00.47-2.23c-.07-1.24-1.33-3.25-1.3-4.21s1-2.47.46-3.46a165 165 0 01-5.52-16.03C4 85.53.16 63.84 0 60.19S1.86 52 2.67 50.35s2.17-5.91 2.6-6.53 5.51-3.62 6.5-4.64 2.54-2.1 3.53-1.86a14.55 14.55 0 003.15-3.9 32.2 32.2 0 001.12-4.79 4 4 0 01-.72.18s.56-.15.78-1.76a10.8 10.8 0 00-.75-4.3c-.27-1-.27-1.33-.43-1.92a5.28 5.28 0 00-.45-1.42 18.44 18.44 0 01-.74-3.93 6.62 6.62 0 01.09-1.58 19 19 0 01.52-3 4.42 4.42 0 01.62-1.55c.44-.65 1.24-1.8 1.33-2A28 28 0 0122.32 5c.59-.53.65-.93 1.55-1.74A29.12 29.12 0 0128.26.81a3.71 3.71 0 012.35-.74 14.77 14.77 0 012.66 0c1.09.25 1 .06 1.8.46a6.6 6.6 0 002.13.87c.65.06 1.15-.25 1.74-.06s.46.06.92.46a7.46 7.46 0 001.14.68.9.9 0 00.59.4c.37.07.9-.34.62-.62 0 0 .68.59.21 1 0 0 1 .72 1 .13 0 0 .72.49 0 .8a.74.74 0 001.36.13s.13 1.17-.83 1 .12.15.12.15a12.84 12.84 0 00.79 1.8" fill="#1f143a" data-name="Capa 1"/></g></svg>