<svg xmlns="http://www.w3.org/2000/svg" viewBox="0 0 92.21 243.92"><g data-name="Capa 2"><path d="M90.21 58.94a21.19 21.19 0 01-.51-4c0-.3 1.3 1.25 2.18 3.12-.54-1.55-1.29-3.72-1.87-5.47a39.35 39.35 0 01-1.43-5.73s1.23 3.17 1.53 4.2c0 0 1.43-3.07-2.15-7.37 0 0 .11-2.22-.3-2.75.31.38 1.94 2.45 1.94 2.45a20.38 20.38 0 00-2-4c-1.64-2.66-3.89-4.19-4.3-5.11a2.62 2.62 0 012.35 1c.92 1.23 1.33 1.74 1.33 1.74S85.1 33.38 82.34 33a9.31 9.31 0 00-1.53-4.3c-1.33-1.74-3.68-2.55-3.68-3.06a4.6 4.6 0 00-.62-2.46c-.71-1.74-1.22-4.6-3.17-4.91s-2.45-1-2.86-2.76a13.84 13.84 0 00-2-4.6c-.82-1.12-3.38-1.43-4.2-2.76a29.31 29.31 0 00-5.93-5.93C56 .45 52.07-.67 47.37.45L45.2 1.77s-2.29-.66-6.79 4.45-4.77 7.55-5.18 11.78-.29 3.16-.4 4.18a8.68 8.68 0 00-.29 2.82c.2 1.12-.2 1.94-.51 3.27s-1 .71-.82 2.45.72 1.23.11 3.48-1 0-.62 2.25.51 1.94.21 3.67-.62-.51-.82 2.66-1.53 4.2-1.13 5l.41.82-.2.51-11.66-18s-.71-1.23-1.63-.82S.33 38.9.33 38.9s-.81.71.11 1.94 10.12 15 10.12 15l-.72 1.46a41.38 41.38 0 00-.2 4.4s-1 .92-.82 1.64.21 1.43.51 1.74-.3.71.31 1.32 2.36 2.25 2.56 3.07 2.33 2 2.53 3.07-.53 2.15-.53 4.4v6.28a45.32 45.32 0 017.7 4.56c2.56 2.14 5.63 4.19 6.35 4.7L30.34 94l-1.15 4.81.3.71s-2.67 9.31-2.67 13.3a.78.78 0 00.31.61c.3.2-.51 4.91.2 9.61s4.91 20.26 6.67 24.45 4 9.51 4.9 11.25 1 4 1.33 4.7-1.12.51-.61 1.23a6.21 6.21 0 01.92 2.45c.31 1.23 1 1.33 1.12 1.64s-1.12.71-.71 1.53.92 1.13.61 1.54-.92.51-.61 1.22.71 2.15.82 5.63 1.94 25.35 2.25 28a86.3 86.3 0 01.3 9.82c-.1 1.33-1.43 4.19-.81 4.7a5.36 5.36 0 011.63 2.56 24.35 24.35 0 01.92 3.37c0 .62-2.35 6.65-4 7.67s-.41 1.84.11 3.27 1.94 4.71 1.94 4.71 7.67.92 9.2.82c0 0 .62-.72 1-.51s.72.81 1.13.81 11.86.11 13.39-.41 1.84-1.73 2.77-5.31 3.27-8.39 3.68-7.88.41 11.86.41 11.86l1.32.11s.31-11.15 2.46-14.42 2.25-3.68 2.25-4a3.14 3.14 0 00-.31-.92l.41-.61s-1.94-8.39-3.37-11.76-7.57-17.08-8.08-20.25-2.15-12.27-3.79-15.44-4.09-6.23-4.09-6.75a4.34 4.34 0 00-1.84-2.55c-.81-.31-1-.72-.92-1.13a1.1 1.1 0 01.62-.61l-.92-.82.92-.61-.82-1.33s-.41-2.86.31-2.86.71-.21.81-.72-.1-1.64.31-2 3.48-9.81 5-12.67 2.86-6.85 3.48-7.47a17.09 17.09 0 001.84-3.58c.31-.71.1-1.63.51-2.25a26 26 0 001.21-3.71c.3-.92.1-.82.41-1.84s-.11-1.23.3-2.14a26 26 0 001.13-7.67 3.3 3.3 0 002.25-.31c.81-.61 2.65-3.17 3.47-3.58a3.94 3.94 0 001.23-.92s-5.58-20.45-6.3-23.93a46.83 46.83 0 005.73 1.84c1.43.21 3.06-.92 3.88-1.84s1.33-2.35 1.74-2.55.41-2.46.72-3.07a5.79 5.79 0 00.44-1.94c.1-.82 1-4.81.92-5.83s.83-6.24.83-7.67v-2.52s.42.68 1 1.9c0 0 .34 1.54 1.16 1.85A7 7 0 0190.55 63a2.11 2.11 0 00-.34-.81A6.73 6.73 0 0092 63.74c.81.31-.84-1.22-1-1.94s-.33-1.22-.74-2.86m-60.38 19.7a25.22 25.22 0 01-2.27-2.32c-.79-1-2.16-1.44-2.55-2s-1.74-.85-2-1.44-1.16-1.43-1.62-2.15-1.59-1.77-1.33-2S28 65.06 28 65.06a9.92 9.92 0 00-.11 4.13 44.52 44.52 0 01.63 4.58 3.77 3.77 0 00.6 1.89 4.27 4.27 0 01.8 2.1zm29.81 145.92a40.37 40.37 0 001.49-5.06l.62.44s.13.26-.22.57-.31.7-.35 1.23a9.35 9.35 0 00.22 2.86 7.86 7.86 0 01-.05 3.25 9.34 9.34 0 01-.61 1.23 8 8 0 00-.53 2.25c-.09.66-.62.83-1.41 1.36a5.25 5.25 0 01-2.11 1c-.22-.09.4-3.17.75-4.22s.83-2.2.83-2.2.58 0 .62-.27a6.92 6.92 0 01.75-2.41" fill="#1f143a" data-name="Capa 1"/></g></svg>