<svg xmlns="http://www.w3.org/2000/svg" viewBox="0 0 99.97 146.12"><defs><style>.cls-1{fill:#1f143a;}</style></defs><title>silhouette-4</title><g id="Capa_2" data-name="Capa 2"><g id="mesas"><g id="_3D" data-name="3D"><g id="complementos_mesas" data-name="complementos mesas"><path id="persona" class="cls-1" d="M99.73,129.79c.19-.29.32-.42,0-1.29s-.92-1.21-.65-2,.33-2.87-.4-6.23S94.47,92.75,93.74,83s-2.36-13.25-2.58-13.67-1-.41-1.23-.69a14.8,14.8,0,0,0-4.68-2.31c-1.06-.34-4.37-2-7.92-3.81a21.84,21.84,0,0,0-.48-4.47,12.34,12.34,0,0,0-2.64-5.45c-1.91-2.31-4.91-3.7-7.58-4.87-.4-.18-.59-.72-.9-.87,2.65-2,6.52-2.3,9-4.72a7.49,7.49,0,0,0,2.16-4.61,18.08,18.08,0,0,0-.24-3.88,49.81,49.81,0,0,1-.3-8.46,34.85,34.85,0,0,0,0-6.85A17.28,17.28,0,0,0,75,14.05a22.65,22.65,0,0,0-4.24-6.37A30.63,30.63,0,0,0,65,3.14a19.3,19.3,0,0,0-6.8-3,8.11,8.11,0,0,0-7,1.77,16.14,16.14,0,0,1-1.54,1.45c-1,.72-2.38.76-3.58,1.12C42.28,5.65,40,10,39.32,14.12S39,22.58,38.25,26.74A32.48,32.48,0,0,0,37.44,32a12.62,12.62,0,0,0,1.35,5.46,12.08,12.08,0,0,0,2.33,3.37c.34,2.59.51,3.86,2.56,5.86,0,0,.43.28.43,1.37,0,.66-.24,3-.38,5.22a6.17,6.17,0,0,0-1.89,2.52c-1.12,2.2-1.71,2.45-2.9,2.87a6.39,6.39,0,0,0-2.73,1.47c-.4.56-17.74,3.47-19.29,4.24,0,0-.69-.39-1.35.63s-4.21,11.31-5.46,18.71-8,31.59-8.56,35c-.3,1.94-1.19,2.47-1.09,3.52s-.15,1-.29,1.94-.3,1.74,0,2-.1.94.19,1.68-.14.84.5,1.21.34,1.84,1.68,3.73c1.08,1.53,8.1,9.25,11.64,13.41H89.51c3.78-4.51,8.85-12.23,9.28-12.86s.1-.45.86-1S99.53,130.08,99.73,129.79Zm-79.49-2.88c-.23-.2-.58-.28-.55-.6a.84.84,0,0,1,.39-.71A2.61,2.61,0,0,0,20.9,124a4.08,4.08,0,0,0-.27-1.86,5.63,5.63,0,0,1-.33-.95c-.17-.84.2-1.71.07-2.54-.06-.37-.22-.72-.25-1.09a4.47,4.47,0,0,1,1-2.4c.57-1,.58-3,.74-3.76a21.76,21.76,0,0,0,.38,2.15s0,0,0,.08l0,.13a14.25,14.25,0,0,0,.68,2l0,.1a12.21,12.21,0,0,1,.11,4,69.67,69.67,0,0,0,.06,7.08,7,7,0,0,0,.1,1,8.17,8.17,0,0,1,.44,1.93A23.42,23.42,0,0,1,20.24,126.91Zm61.67-2.1c-.85,1.23-2.14,2.22-2.45,3.71-.13.66-.09,1.44-.57,1.88a2.48,2.48,0,0,1-.78.39,4.15,4.15,0,0,0-2.1,2c.22-.92.43-1.84.65-2.76a8.33,8.33,0,0,0,.26-1.56,16.3,16.3,0,0,0-.81-4.16.79.79,0,0,1,0-.43c0-.11.14-.19.16-.31a.78.78,0,0,0-.07-.33,2.17,2.17,0,0,1,.71-2,3.41,3.41,0,0,0,1.14-1.87c0-.45-.12-.9-.11-1.35,0-.82.58-1.56.52-2.37,0-.38-.2-.72-.25-1.1a3.35,3.35,0,0,1,.24-1.39c.26-.84.53-1.67.79-2.51,0-.15.14-.32.28-.33h0c0,.63,0,1.27,0,1.91a2.9,2.9,0,0,0,.18,1.21,3.38,3.38,0,0,0,.57.79,8.33,8.33,0,0,1,1.36,2.21,2.19,2.19,0,0,1,.2.79,2.86,2.86,0,0,1-.21.85,12.44,12.44,0,0,0-.43,2.87,4.07,4.07,0,0,0,.49,2.79c.18.24.43.48.39.78A.83.83,0,0,1,81.91,124.81Z"/></g></g></g></g></svg>