<svg xmlns="http://www.w3.org/2000/svg" viewBox="0 0 234.08 204.53"><defs><style>.cls-1{opacity:0.6;}.cls-2{fill:#26210b;}.cls-3{fill:#ffeb00;}</style></defs><title>warining</title><g id="Capa_2" data-name="Capa 2"><g id="grafitis"><g class="cls-1"><path class="cls-2" d="M1,192.84l109-189a7.77,7.77,0,0,1,13.44,0L233,193a7.71,7.71,0,0,1-6.72,11.56L7.76,204.39A7.71,7.71,0,0,1,1,192.84Z"/><polyline class="cls-3" points="212.87 188.05 20.26 188.39 116.92 19.58"/><ellipse class="cls-2" cx="117.25" cy="133.13" rx="9.95" ry="9.9"/><path class="cls-2" d="M123.88,120a15.18,15.18,0,0,1,8.4,13.59l33.06,0c0-.1,0-.19,0-.29a48.18,48.18,0,0,0-24.69-42Z"/><path class="cls-2" d="M101.71,133.3A15.18,15.18,0,0,1,110,120.06c-1.88-3.46-6.15-11.36-15.9-29.37a48.22,48.22,0,0,0-25.74,42.57c0,.09,0,.18,0,.26Z"/><path class="cls-2" d="M125.25,146.38a15.35,15.35,0,0,1-16.61-.06L92.25,174.86a48.71,48.71,0,0,0,49.46-.15Z"/></g></g></g></svg>