<svg xmlns="http://www.w3.org/2000/svg" xmlns:xlink="http://www.w3.org/1999/xlink" viewBox="0 0 1962 460"><defs><style>.cls-1{fill:none;}.cls-2{clip-path:url(#clip-path);}.cls-3{fill:#4a4336;}.cls-4{fill:url(#Безымянный_градиент_23);}.cls-5{fill:#8c573a;}.cls-6{fill:#673f31;}.cls-7{fill:#b0b0b0;}.cls-8{fill:#979797;}.cls-9{fill:#665c49;}.cls-10{fill:#595140;}.cls-11{fill:#4f463a;}.cls-12{fill:#4d4638;}.cls-13{fill:#635a48;}.cls-14{fill:#5c5241;}.cls-15{fill:url(#Безымянный_градиент_26);}.cls-16,.cls-22,.cls-24{fill:#657144;}.cls-16,.cls-22,.cls-23,.cls-24,.cls-25,.cls-26{stroke-miterlimit:10;stroke-width:2px;}.cls-16{stroke:url(#plant);}.cls-17{fill:url(#Безымянный_градиент_26-2);}.cls-18{fill:url(#Безымянный_градиент_26-3);}.cls-19{fill:url(#Безымянный_градиент_26-4);}.cls-20{fill:url(#Безымянный_градиент_26-5);}.cls-21{fill:url(#Безымянный_градиент_26-6);}.cls-22{stroke:url(#plants2);}.cls-23{fill:url(#plants2-2);stroke:url(#plant-2);}.cls-24{stroke:url(#plants2-3);}.cls-25{fill:url(#plant-3);stroke:url(#plant-4);}.cls-26{fill:url(#plants2-4);stroke:url(#plants2-5);}.cls-27{fill:url(#Безымянный_градиент_11);}.cls-28{fill:url(#Безымянный_градиент_5);}.cls-29{fill:url(#Безымянный_градиент_26-7);}.cls-30{fill:url(#Безымянный_градиент_26-8);}.cls-31{fill:url(#Безымянный_градиент_11-2);}.cls-32{fill:url(#Безымянный_градиент_5-2);}.cls-33{fill:url(#Безымянный_градиент_26-9);}.cls-34{fill:url(#Безымянный_градиент_26-10);}</style><clipPath id="clip-path"><rect class="cls-1" width="1962" height="460"/></clipPath><linearGradient id="Безымянный_градиент_23" x1="808.2" y1="301.63" x2="808.2" y2="67.08" gradientUnits="userSpaceOnUse"><stop offset="0" stop-color="#4a4336"/><stop offset="0.45" stop-color="#4b4538"/><stop offset="0.61" stop-color="#514b3f"/><stop offset="0.73" stop-color="#5a554a"/><stop offset="0.82" stop-color="#68635b"/><stop offset="0.9" stop-color="#797771"/><stop offset="0.97" stop-color="#8f8e8c"/><stop offset="1" stop-color="#999"/></linearGradient><linearGradient id="Безымянный_градиент_26" x1="3860.78" y1="2971.77" x2="3860.78" y2="2941.72" gradientTransform="matrix(-0.71, -0.27, -0.33, 0.73, 4261.57, -892.81)" gradientUnits="userSpaceOnUse"><stop offset="0" stop-color="#9baa61"/><stop offset="1" stop-color="#657144"/></linearGradient><linearGradient id="plant" x1="4371.11" y1="2676.7" x2="4439.98" y2="2676.7" gradientTransform="matrix(-0.79, -0.36, -0.29, 0.77, 4838.28, -242.54)" gradientUnits="userSpaceOnUse"><stop offset="0" stop-color="#514943"/><stop offset="0.3" stop-color="#544f43"/><stop offset="0.72" stop-color="#5d6144"/><stop offset="1" stop-color="#657144"/></linearGradient><linearGradient id="Безымянный_градиент_26-2" x1="3670.47" y1="2945.3" x2="3718.92" y2="3003.04" xlink:href="#Безымянный_градиент_26"/><linearGradient id="Безымянный_градиент_26-3" x1="3798.34" y1="3006.71" x2="3776.73" y2="2969.28" xlink:href="#Безымянный_градиент_26"/><linearGradient id="Безымянный_градиент_26-4" x1="3660.3" y1="2872.16" x2="3731.7" y2="2872.16" xlink:href="#Безымянный_градиент_26"/><linearGradient id="Безымянный_градиент_26-5" x1="3724.19" y1="2927.03" x2="3766.51" y2="2942.42" xlink:href="#Безымянный_градиент_26"/><linearGradient id="Безымянный_градиент_26-6" x1="3821.84" y1="2889.63" x2="3778.96" y2="2914.38" xlink:href="#Безымянный_градиент_26"/><linearGradient id="plants2" x1="3702.56" y1="2923.8" x2="3773.37" y2="2923.8" gradientTransform="matrix(-0.71, -0.27, -0.33, 0.73, 4261.57, -892.81)" gradientUnits="userSpaceOnUse"><stop offset="0" stop-color="#657144"/><stop offset="0.22" stop-color="#5f6544"/><stop offset="0.69" stop-color="#555043"/><stop offset="1" stop-color="#514943"/></linearGradient><linearGradient id="plants2-2" x1="3706.15" y1="2992.57" x2="3812.28" y2="2992.57" xlink:href="#plants2"/><linearGradient id="plant-2" x1="3705.15" y1="2992.68" x2="3813.28" y2="2992.68" gradientTransform="matrix(-0.71, -0.27, -0.33, 0.73, 4261.57, -892.81)" xlink:href="#plant"/><linearGradient id="plants2-3" x1="3694" y1="2997.31" x2="3710.1" y2="2997.31" xlink:href="#plants2"/><linearGradient id="plant-3" x1="3877.77" y1="2919.03" x2="3924.41" y2="2919.03" gradientTransform="matrix(-0.73, -0.29, -0.32, 0.73, 4382, -757.01)" xlink:href="#plant"/><linearGradient id="plant-4" x1="3876.39" y1="2919.23" x2="3925.77" y2="2919.23" gradientTransform="matrix(-0.73, -0.29, -0.32, 0.73, 4382, -757.01)" xlink:href="#plant"/><linearGradient id="plants2-4" x1="3745.97" y1="2952.24" x2="3757.93" y2="2952.24" xlink:href="#plants2"/><linearGradient id="plants2-5" x1="3744.58" y1="2952.21" x2="3759.29" y2="2952.21" xlink:href="#plants2"/><linearGradient id="Безымянный_градиент_11" x1="-2248.2" y1="-2370.14" x2="-2248.2" y2="-2518.14" gradientTransform="matrix(0.61, -0.24, 0.3, 0.78, 2601.18, 1534.41)" gradientUnits="userSpaceOnUse"><stop offset="0" stop-color="#514943"/><stop offset="0.54" stop-color="#524b43"/><stop offset="0.74" stop-color="#555243"/><stop offset="0.87" stop-color="#5b5d44"/><stop offset="0.99" stop-color="#646e44"/><stop offset="1" stop-color="#657144"/></linearGradient><linearGradient id="Безымянный_градиент_5" x1="-2215.94" y1="-2428.64" x2="-2215.94" y2="-2481.64" gradientTransform="matrix(0.61, -0.24, 0.3, 0.78, 2601.18, 1534.41)" gradientUnits="userSpaceOnUse"><stop offset="0" stop-color="#514943"/><stop offset="0.5" stop-color="#524b43"/><stop offset="0.71" stop-color="#565243"/><stop offset="0.87" stop-color="#5c5e44"/><stop offset="0.99" stop-color="#647044"/><stop offset="1" stop-color="#657144"/></linearGradient><linearGradient id="Безымянный_градиент_26-7" x1="-2163.61" y1="-2486.54" x2="-2204.64" y2="-2510.23" gradientTransform="matrix(0.61, -0.24, 0.3, 0.78, 2601.18, 1534.41)" xlink:href="#Безымянный_градиент_26"/><linearGradient id="Безымянный_градиент_26-8" x1="-2351.24" y1="-2518.74" x2="-2266.44" y2="-2518.74" gradientTransform="matrix(0.61, -0.24, 0.3, 0.78, 2601.18, 1534.41)" xlink:href="#Безымянный_градиент_26"/><linearGradient id="Безымянный_градиент_11-2" x1="1793.34" y1="-1648.08" x2="1793.34" y2="-1796.08" gradientTransform="matrix(0.6, 0.27, -0.35, 0.76, -200.09, 1180.69)" xlink:href="#Безымянный_градиент_11"/><linearGradient id="Безымянный_градиент_5-2" x1="1825.61" y1="-1706.58" x2="1825.61" y2="-1759.58" gradientTransform="matrix(0.6, 0.27, -0.35, 0.76, -200.09, 1180.69)" xlink:href="#Безымянный_градиент_5"/><linearGradient id="Безымянный_градиент_26-9" x1="1877.94" y1="-1764.48" x2="1836.9" y2="-1788.18" gradientTransform="matrix(0.6, 0.27, -0.35, 0.76, -200.09, 1180.69)" xlink:href="#Безымянный_градиент_26"/><linearGradient id="Безымянный_градиент_26-10" x1="1690.31" y1="-1796.68" x2="1775.11" y2="-1796.68" gradientTransform="matrix(0.6, 0.27, -0.35, 0.76, -200.09, 1180.69)" xlink:href="#Безымянный_градиент_26"/></defs><title>footer</title><g id="Footer"><g class="cls-2"><path class="cls-3" d="M158,303c34.95-2.48,55.54-8.44,78-6,21.23,2.31,24.27,20.26,60,32,8.89,2.92,18.93,1.28,39-2,35.36-5.78,5-16,61-11,12.05,1.08,8.44,11.82,26,24,9.4,6.52,16,5.92,27,0,26-14,34.5-24.83,59-21,32,5,20.35,8,52,13,31.47,4.93,51.41-3.27,80,8,10.3,4.06,14.07,9,21,14,41.36,29.94,115.94-30.06,176-19,38,7,54.83-26.84,92-33,15.62-2.59,30.67-18.58,47-9,12.19,7.15,20.45,3.22,31,3,10.36-.21,7.8,4,21-3,18.82-9.93,41.15-3.3,59,2,18.48,5.49,30.8,12.91,38,17,19,10.8,46.22,29.59,125,21,55-6,35.74-12.77,59-28,18.47-12.1,24.9-4.16,34-5,22.43-2.07,26.52,16.55,51,16,18.77-.43,22.94-11.52,44-10,11.84.86,11.62,4.45,27,8,27.92,6.45,36.33-3.61,59,2,17.35,4.3,14.09,10.61,38,21,18,7.84,42.51,3.47,61-6,15-7.71,10.06-5.51,33-25,9.31-7.92,20.18-17.16,32-15,12,2.19,12.92,14,27,17,9,1.94,11.67-2.23,27-4,12.92-1.49,22.67.12,34,2,28.08,4.65,29.45,2.27,38-3,9.51-5.86,12.23-9.13,21-12,6.71-2.2,29.84,4.45,40,8,21.55,7.52,15.62-14.84,40-12,17.62,2.06,34.54,25.7,60,16,21-8,17.64-22.75,51-16,19.61,4,21,40.47,29,46,30.26,20.87,25.77,103.69,2,143-65.47,108.28-334-19.69-805,1-74.71,3.28-184.58,8.11-329,34-262.31,47-289.73,101-453,96-53.92-1.65-14.2-6.41-372-84-133.81-29-196.85-40.82-205-79-9.4-44,56.11-114.18,109-112,27.18,1.12,17.13,13,41,4,26.37-9.91,50.87-32.81,74-37C139.53,294.92,134.74,304.65,158,303Z"/><path class="cls-4" d="M1327.15,152.32c-.55,6.73-2.15,14.68-7.2,16.28-2.58.81-4.53.6-8.69-1.81-15.89-9.2-28.89,3.42-28.89,3.42-5.1,0-9.24-3.77-9.24-8.43V143.9c0-4.65-4.15-8.43-9.25-8.43l-25.71-.52h-76.26a95.68,95.68,0,0,1-15.89-2.89c-20.51-5.19-30.9-8.79-63.56,3.41-6.35,2.38-32.06,0-32.06,0-5.11,0-22,1-9.25-8.42s0-15,0-15c0-4.65-4.14-8.43-9.25-8.43H948.71c-5.1,0-9.25,3.78-9.25,8.43,0,0,9.54,18.66,0,15s-4.14,8.42-9.24,8.42c0,0-9.82,9.21-19.35,0s-44.78,0-44.78,0c-5.11,0-9.25-3.77-9.25-8.42V109.16c0-4.65-4.14-8.42-9.25-8.42H580.1c-5.11,0-9.25,3.77-9.25,8.42v17.89c0,4.65-4.14,8.42-9.25,8.42H494.3c-2.15-4,21.88-.64,22.61-3.25,9.08-32.33,7.43-34.59-84.2-32.33-16.53.4,4.92,32.43-11.56,35.34-7.79,1.38-52.31,2.56-71,1.5-12.06-.68-8.9-36.32-28.07-38.35-1.62-.17-29.72,2.26-48.71.75,0,0,.94-44.61-.83-28.57H180.91c-14,5.26-16.52,29.33-16.52,29.33S113.21,110.41,62,146.51c-18.16,21.05-58.61,12-58.61,12V260.06s19.81-2.26,35.5,15,47.88,31.58,70.17,24.81,25.59-14.28,60.27-7.52,31.37-6.76,28.07-9,36.32-26.32,42.1-18.8,21.47,3.76,24.77,8.27,7.85,1.05,7.85,1.05c0,4.65,23.21,9.2,28.32,9.2a84.5,84.5,0,0,0,16.17-3.41c20.83-6.33,58.8,7.58,67,3.41a31.37,31.37,0,0,0,15.6-17.89c2.32-7.68,9.31-13.54,18-14.75,9-1.26,17-2.61,23.35-10.52,3.18-6.56-12.71-15.25,0-17.88,12.71-9,0-3.16,19.07-6.05,17.5-2.66,57-8.62,82.62-2.9,9.53,6.19,25.71.52,25.71.52,5.1,0,2.89-4.75,9.24-8.42s6.36-18.15,6.36-18.15c3.18-11.57,36.2-5.78,41.31-5.78,0,0,57.48.52,69.91-5.79s28.6,5.79,38.13,0S752,184.16,755.16,190c6.35,2.89-.29,17.89,6.35,20.26s58.92,3.41,69.91,2.89,30.62,5.79,47.67,5.79c8.13,0,11.92-5.27,20-5.27,5.65,0,17.2,2.22,20.94-.62l7.62-3.38c5.22-.87,4.11-2.3,8.6-2.3.74.25,2.93-.89,3.59-1.28,2.76-1.62-.42-4.51,2.76-4.51,1.25,0,0-2.9,4.61-1,4.93-1.86,1.74-10.08,1.75-13.18,0-4.65,4.14-8.42,9.25-8.42,0,0,44.77-3.41,54.3-.52,2.79.85,6.45,2.19,9.54,2.9,12.71,2.89,15.88,17.36,15.88,20.26,0,4.09,15.89,20.26,25.43,14.47s25.42,0,25.42,0c12.71,0,35,2.89,41.31,8.68s19.06,17.37,28.6,23.16c3.18,5.79,29.84,5.79,35,5.79l37.86-2.08c4.2.35,15.4,1.42,18,4.47,3.52,4.16,1.36,3.4,7.72,9.18s3.17,5.79,6.35,8.69c4.5,4.09,19.07,8.68,22.25,11.58s23.76,1.34,31.58,3.57l21.15,2s0-.08,0-.12h24.56s47.06-14.29,47.06-8.27,39.63,5.26,39.63,5.26,45.41,5.26,57.79,0,33-14.29,72.65-5.26,32.2-13.54,32.2-13.54a517.53,517.53,0,0,1-3.3-54.89c0-27.83-34.68-26.32-34.68-26.32l-29.72-6s-30.55,12.79-56.14,15-6.6-17.29-6.6-17.29-46.24-12-57.79,3.76-44.58-9-44.58-9l-50.36-21.8Z"/><path class="cls-5" d="M850.64,206.49l-1.06-27.11L767.29,182l1.06,27.1S850.6,205.6,850.64,206.49Z"/><path class="cls-5" d="M1082.16,170.57l.77-24.16-75.57-2-.78,24.16S1082.18,169.78,1082.16,170.57Z"/><path class="cls-5" d="M995.9,169.41V145.24H920.29v24.17S995.9,168.62,995.9,169.41Z"/><path class="cls-5" d="M1124.55,207.76l1.52-24.12-75.49-3.95-1.52,24.13S1124.6,207,1124.55,207.76Z"/><path class="cls-5" d="M759.47,136.32l-1.42-24.13-76.92,3.75,1.42,24.13S759.43,135.53,759.47,136.32Z"/><path class="cls-5" d="M668.86,135.09V110.93h-77v24.16S668.86,134.3,668.86,135.09Z"/><path class="cls-5" d="M718.37,170.89l.33-24.17-12.84,1.42-6.55.42,1.15-3.95-63.75,2.95-.3,22.4S718.38,170.1,718.37,170.89Z"/><path class="cls-5" d="M374.74,207.68V183.52h-85.5v24.16S374.74,206.9,374.74,207.68Z"/><path class="cls-5" d="M329.25,235.89l-.74-24.16-85.46,2.15.73,24.16S329.22,235.1,329.25,235.89Z"/><path class="cls-6" d="M386,273.06l.08-24.16-85.5-.24-.08,24.16S386,272.28,386,273.06Z"/><path class="cls-6" d="M414.24,170.71V146.55h-85.5v24.16S414.24,169.93,414.24,170.71Z"/><path class="cls-5" d="M426.94,235V210.88h-85.5V235S426.94,234.25,426.94,235Z"/><path class="cls-5" d="M470.66,207.68V183.52H385.17v24.16S470.66,206.9,470.66,207.68Z"/><path class="cls-5" d="M316.2,173.78V149.62H230.7v24.16S316.2,173,316.2,173.78Z"/><path class="cls-5" d="M1029.89,135.81V111.65H954.28v24.16S1029.89,135,1029.89,135.81Z"/><path class="cls-6" d="M909.37,172.15,910.69,148l-76.94-3.48-1.32,24.14S909.41,171.36,909.37,172.15Z"/><path class="cls-5" d="M844.48,135.09V110.93h-77v24.16S844.48,134.3,844.48,135.09Z"/><path class="cls-5" d="M822.62,170.42V146.26H735.71v24.16S822.62,169.64,822.62,170.42Z"/><path class="cls-5" d="M619.33,171.07V146.9h-91v24.17S619.33,170.28,619.33,171.07Z"/><path class="cls-5" d="M568.93,206.35l-.47-24.16L483,183.58l.47,24.15S568.92,205.56,568.93,206.35Z"/><path class="cls-5" d="M1184,168.85V144.69h-85.5v24.16l40.17-.57v-2.89s5.69-3.17,9.54-2.9c1,.07-1.14,3.48,0,3.56C1161.49,167,1184,168.62,1184,168.85Z"/><path class="cls-6" d="M1318.54,209.68l.67-24.15-85.47-2-.67,24.16S1318.57,208.9,1318.54,209.68Z"/><path class="cls-5" d="M1249.62,244.32V220.16h-85.5v24.16S1249.62,243.54,1249.62,244.32Z"/><path class="cls-5" d="M1287,168V143.86h-85.5V168S1287,167.23,1287,168Z"/><path class="cls-5" d="M1350.07,244.61l-.38-24.17-85.49,1.1.38,24.16S1350.05,243.82,1350.07,244.61Z"/><path class="cls-5" d="M1219.79,206.26l-.53-24.16-85.48,1.56.53,24.16S1219.77,205.48,1219.79,206.26Z"/><path class="cls-5" d="M1405.81,276.77V252.6l-44.39-.37-9.33,7.17,6.35-5.79-38.13-1v15.48l9.53,2.9s-4.47,5.74,3.18,5.68C1356.84,276.48,1405.81,276.17,1405.81,276.77Z"/><path class="cls-5" d="M513,173V148.79H427.49V173S513,172.17,513,173Z"/><path class="cls-5" d="M513.39,130.89V106.72H436v24.17S513.39,130.1,513.39,130.89Z"/><path class="cls-5" d="M912.68,208.16c2.31-1,5.94-.35,8-2.07a7,7,0,0,1,1.09-.93,4.08,4.08,0,0,1,1.16-.33l10.2-1.76a15.15,15.15,0,0,1,1.82-2.62,1.37,1.37,0,0,1,1.22-.64c.34.07.6.37,1,.4s.81-.45,1-.86a56.78,56.78,0,0,1,3-5.45V181.43H858.73v27.12S888.87,208.22,912.68,208.16Z"/><path class="cls-5" d="M1499.72,277.9l.8-24.16-85.46-2.33-.8,24.16S1499.75,277.11,1499.72,277.9Z"/><path class="cls-5" d="M1596.91,272.43l-.37-24.16-85.49,1.09.37,24.16S1596.9,271.64,1596.91,272.43Z"/><path class="cls-5" d="M1449.85,239.85l-2-24.09-85.24,6,2,24.09S1449.78,239.06,1449.85,239.85Z"/><path class="cls-5" d="M1415.29,208.51l-.38-24.16-85.49,1.09.38,24.16S1415.27,207.72,1415.29,208.51Z"/><path class="cls-6" d="M1546.55,242.35l-.37-24.16-85.49,1.09.37,24.16S1546.54,241.56,1546.55,242.35Z"/><path class="cls-5" d="M1309.84,278.65l.79-24.15s-49.05-.46-49.05.29c-1.65,2.26,5.78,9.78,5.78,9.78l5.78.75-1.32,2.73,5.45,7.05s5.86,2.83,6.3,2.48S1309.85,278.36,1309.84,278.65Z"/><path class="cls-5" d="M1514.25,210.33l-.16-24.16-85.49.46.15,24.16S1514.24,209.55,1514.25,210.33Z"/><path class="cls-5" d="M278.06,208.07l-.73-24.16-85.47,2.15.74,24.15S278,207.28,278.06,208.07Z"/><path class="cls-6" d="M231,238.14,230.27,214l-85.46,2.15.73,24.15S231,237.36,231,238.14Z"/><path class="cls-5" d="M329.25,134.37l-.74-24.15-85.46,2.15.73,24.15S329.22,133.59,329.25,134.37Z"/><path class="cls-5" d="M216.61,174.47l1-24.15-85.44-2.9-1,24.15S216.64,173.68,216.61,174.47Z"/><path class="cls-5" d="M184,209.57l-.74-24.15-85.46,2.14.73,24.16S183.92,208.78,184,209.57Z"/><path class="cls-5" d="M231,137.38l-.73-24.15-85.46,2.14.73,24.16S231,136.59,231,137.38Z"/><path class="cls-6" d="M267.33,103.54l-.73-24.15-85.47,2.15.73,24.15S267.3,102.75,267.33,103.54Z"/><path class="cls-5" d="M129.46,241.9l-.73-24.15L43.26,219.9,44,244.05S129.43,241.12,129.46,241.9Z"/><path class="cls-5" d="M285.49,272l-.73-24.15L199.29,250l.74,24.15s-1-5.56,6.47-5.8c8.18-.27,16.84-9.44,28.07-9.78,9.8-.29,28.73,11.06,36.32,10.53C281.63,268.33,285.48,271.77,285.49,272Z"/><path class="cls-5" d="M188.07,274.24l-.73-24.15-85.46,2.14.73,24.16S188.05,273.45,188.07,274.24Z"/><path class="cls-5" d="M122.49,174.47l1-24.15L71.1,148.77l-33.84,15-.21,7.77S122.53,173.68,122.49,174.47Z"/><path class="cls-5" d="M86.53,212.58l-.73-24.16L.33,190.57l.73,24.16S86.5,211.79,86.53,212.58Z"/><path class="cls-7" d="M1081.19,159l9.56-46,33-2.21.25-20.5s15.19-15.22,27.19-15.09,33.35-27.84,24.41-33.06-11.36-54-11.36-54l35.27,61.92-9.41,33.23s14.58,36.05,11.51,41.15,14.87,11.7,14.87,11.7,12,4,14.86,11.7,2.79,18,2.79,18l8.5,41.11,32.79,18.31s-41.88-10.71-53.92-8.28-11.75-20.64-11.75-20.64-26.92-8-41.92-8.15-26.91-8-26.91-8l-36.07,4.73s.06-5.13-12.08,6c0,4.1-18.11,9-18.11,9s3-3.38-14.93-7a70.58,70.58,0,0,1-29.84-14s39.14-9.83,45.11-7.2S1081.19,159,1081.19,159Z"/><polygon class="cls-8" points="1144.42 141.77 1156.15 164.97 1158.99 177.82 1182.94 183.21 1218.91 186.17 1225.16 165.73 1198.4 144.92 1201.47 139.83 1180.68 121.66 1186.9 103.78 1168.98 95.89 1159.86 106.04 1144.61 126.39 1120.48 136.38 1120.29 151.76 1138.34 148.5 1144.42 141.77"/><path class="cls-5" d="M1100,117.31l-.26,21.4,80.73.89.26-21.4S1100,118,1100,117.31Z"/><path class="cls-5" d="M1144.37,146l-.26,21.4,27,.3.09-7.69,2.94,5.16,3-2.53,0,2.56,3,2.6,44.73.49.26-21.4S1144.36,146.7,1144.37,146Z"/><path class="cls-6" d="M1091.14,146.31s-3.46,5.09-.06,5.13-3.43,2.52-3.43,2.52,3.36,2.61-.06,5.13-3.52,10.22-3.52,10.22l54,.59.26-21.4S1091.13,147,1091.14,146.31Z"/><path class="cls-5" d="M1183.85,114.28s2.92-.25,0-8c-.91-2.45,3-2.53,3-2.53s-.43-2.83,3.06-5.1,1.06-5.12,1.06-5.12l-55-.6-.23,19.29S1183.86,113.65,1183.85,114.28Z"/><path class="cls-7" d="M806.25,168.17l-8.67-48.53-33.88-3.06L764,95.05S748.74,78.74,736.4,78.61s-33.56-30-24.24-35.25,13-56.36,13-56.36L687.39,51.16l8.83,35.08s-15.87,37.49-12.85,42.91-15.56,11.94-15.56,11.94S655.42,145,652.24,153s-3.31,18.8-3.31,18.8l-9.77,43L605,233.23s43.3-10.29,55.6-7.47,12.59-21.38,12.59-21.38,27.85-7.77,43.26-7.6S744.32,189,744.32,189l36.94,5.79s.06-5.38,12.25,6.59c0,4.31,18.38,9.89,18.38,9.89s-3-3.62,15.51-7a72.1,72.1,0,0,0,31-14s-39.95-11.2-46.15-8.57S806.25,168.17,806.25,168.17Z"/><polygon class="cls-8" points="741.72 148.62 729.1 172.7 725.85 186.12 701.12 191.23 664.09 193.51 658.18 171.92 686.19 150.71 683.17 145.29 704.98 126.69 699.04 107.8 717.64 99.93 726.76 110.79 741.92 132.48 766.46 143.51 766.26 159.66 747.8 155.82 741.72 148.62"/><path class="cls-5" d="M788,124l-.27,22.46-83-.91.27-22.46S788,124.71,788,124Z"/><path class="cls-5" d="M741.67,153.07l-.27,22.46-27.75-.31.1-8.07-3.15,5.35-3.05-2.73,0,2.69-3.12,2.66-46-.5.27-22.46S741.66,153.8,741.67,153.07Z"/><path class="cls-6" d="M796.35,154.6s3.42,5.42-.07,5.38,3.46,2.73,3.46,2.73-3.52,2.66-.07,5.38,3.36,10.8,3.36,10.8l-55.5-.61.28-22.46S796.34,155.34,796.35,154.6Z"/><path class="cls-5" d="M701.91,118.89s-3-.33.19-8.37c1-2.54-3.05-2.73-3.05-2.73s.5-3-3-5.41-1-5.39-1-5.39l56.53.62-.24,20.24S701.92,118.23,701.91,118.89Z"/><path class="cls-3" d="M93,174c35-2.48,55.54-8.44,78-6,21.23,2.31,24.27,20.26,60,32,8.89,2.92,18.93,1.28,39-2,35.36-5.78,5-16,61-11,12.05,1.08,8.44,11.82,26,24,9.4,6.52,16,5.92,27,0,26-14,34.5-24.83,59-21,32,5,20.35,8,52,13,31.47,4.93,51.41-3.27,80,8,10.3,4.06,14.07,9,21,14,41.36,29.94,115.94-30.06,176-19,38,7,54.83-26.84,92-33,15.62-2.59,30.67-18.58,47-9,12.19,7.15,20.45,3.22,31,3,10.36-.21,7.8,4,21-3,18.82-9.93,41.15-3.3,59,2,18.48,5.49,30.8,12.91,38,17,19,10.8,46.22,29.59,125,21,55-6,35.74-12.77,59-28,18.47-12.1,24.9-4.16,34-5,22.43-2.07,26.52,16.55,51,16,18.77-.43,22.94-11.52,44-10,11.84.86,11.62,4.45,27,8,27.92,6.45,36.33-3.61,59,2,17.35,4.3,14.09,10.61,38,21,18,7.84,42.51,3.47,61-6,15-7.71,10.06-5.51,33-25,9.31-7.92,20.18-17.16,32-15,12,2.19,12.92,14,27,17,9,1.94,11.67-2.23,27-4,12.92-1.49,22.67.12,34,2,28.08,4.65,29.45,2.27,38-3,9.51-5.86,12.23-9.13,21-12,6.71-2.2,29.84,4.45,40,8,21.55,7.52,15.62-14.84,40-12,17.62,2.06,34.54,25.7,60,16,21-8,17.64-22.75,51-16,19.61,4,21,40.47,29,46,30.26,20.87,25.77,103.69,2,143-65.47,108.28-334-19.69-805,1-74.71,3.28-184.58,8.11-329,34-262.31,47-289.73,101-453,96-53.92-1.65-14.2-6.41-372-84-133.81-29-196.85-40.82-205-79-9.4-44,56.11-114.18,109-112,27.18,1.12,17.13,13,41,4,26.37-9.91,50.87-32.81,74-37C74.53,165.92,69.74,175.65,93,174Z"/><path class="cls-9" d="M1221.53,213.12c14.38-1.24,22.85-4.21,32.1-3,8.74,1.15,10,10.11,24.69,16,3.66,1.46,7.79.64,16-1,14.55-2.88,2.06-8,25.11-5.49,5,.54,3.47,5.9,10.7,12,3.87,3.25,6.59,2.95,11.11,0,10.7-7,14.2-12.39,24.28-10.48,13.17,2.49,8.38,4,21.4,6.49s21.16-1.64,32.93,4c4.24,2,5.79,4.48,8.64,7,17,14.94,47.71-15,72.43-9.49,15.64,3.5,22.57-13.39,37.87-16.47,6.42-1.29,12.62-9.27,19.34-4.49,5,3.57,8.41,1.61,12.76,1.5s3.21,2,8.64-1.5c7.74-4.95,16.93-1.64,24.28,1a63.93,63.93,0,0,1,15.64,8.48c7.82,5.39,19,14.77,51.44,10.49,22.64-3,14.71-6.38,24.29-14,7.6-6,10.24-2.07,14-2.49,9.23-1,10.91,8.26,21,8,7.72-.21,9.44-5.75,18.11-5,4.87.43,4.78,2.22,11.11,4,11.49,3.22,15-1.8,24.28,1,7.14,2.15,5.8,5.3,15.64,10.48,7.42,3.91,17.5,1.74,25.1-3,6.2-3.85,4.15-2.75,13.59-12.48,3.83-4,8.3-8.56,13.17-7.49s5.31,7,11.11,8.49c3.7,1,4.8-1.11,11.11-2,5.32-.74,9.33.06,14,1,11.56,2.32,12.12,1.13,15.64-1.5,3.92-2.92,5-4.55,8.64-6,2.77-1.09,12.28,2.23,16.47,4,8.87,3.75,6.43-7.41,16.46-6,7.25,1,14.21,12.82,24.69,8,8.64-4,7.26-11.35,21-8,8.07,2,8.64,20.2,11.94,23,12.45,10.41,10.6,51.74.82,71.36-27,54-137.46-9.83-331.3.5-30.75,1.64-76,4.05-135.4,17-108,23.47-119.24,50.4-186.44,47.91-22.19-.83-5.84-3.2-153.1-41.92-55.07-14.48-81-20.37-84.36-39.43-3.87-22,23.09-57,44.86-55.89,11.18.56,7.05,6.47,16.87,2,10.85-4.94,20.94-16.37,30.45-18.46C1213.93,209.09,1212,214,1221.53,213.12Z"/><path class="cls-10" d="M452.2,348.45c-10.08-3.36-15.55-7.54-22.43-7.73-6.51-.18-9.24,8.41-21,11.94-2.92.88-5.72-.53-11.31-3.37-9.86-5,.15-8.13-16.91-9.13-3.67-.21-3.69,5.26-10.12,10.13-3.44,2.6-5.33,1.9-8-1.66-6.26-8.44-7.67-14.26-15.3-13.89-10,.47-6.83,2.67-16.68,3.15s-14.86-4.76-24.45-1c-3.46,1.35-5.07,3.52-7.63,5.54-15.26,12.09-31.19-21.82-50.06-20.11-11.94,1.09-13.47-16.48-23.82-21.78-4.35-2.22-7.17-11-13-7.29-4.33,2.75-6.37.32-9.46-.44s-2.71,1.46-5.9-2.76c-4.55-6-11.82-4.14-17.63-2.65a45.34,45.34,0,0,0-13,6c-6.71,4.11-16.67,11.62-39.06,2.57-15.64-6.31-9.26-8.44-14.58-17.31-4.23-7.05-6.94-3.56-9.54-4.53-6.42-2.39-9.52,6.45-16.69,4.68-5.51-1.37-5.61-7-12-7.6-3.58-.31-3.88,1.46-8.79,2.25-8.9,1.43-10.36-4-17.63-2.65-5.56,1-5.24,4.32-13.36,7.92-6.13,2.72-12.91-.92-17.41-6.68-3.66-4.7-2.42-3.31-7.21-14.25-1.94-4.44-4.22-9.62-7.93-9.3s-5.23,6-9.7,6.65c-2.86.39-3.22-1.81-7.57-3.62-3.66-1.52-6.71-1.33-10.25-1.11-8.77.54-8.93-.7-10.92-3.8-2.21-3.45-2.68-5.22-5-7.16-1.76-1.48-9.27.34-12.63,1.45-7.13,2.35-3.11-8.21-10.6-8.32-5.41-.08-12.82,10.43-19.35,4.12-5.39-5.2-2.9-12.2-13.44-10.95-6.2.73-10.32,18.48-13.25,20.69-11.06,8.33-18.16,49.07-15.14,69.74,8.33,56.94,100.67,10.93,237.71,50C133,372.36,193,393.47,233,415c72.71,39.11,47.35,55.18,96.1,62.79,16.09,2.51,4.84-2.26,118.44-18.16C490,453.68,559.71,487.15,566,469c7.26-20.93-54.82-94.6-70.67-96.78-8.14-1.13-6.38,5.28-12.52-.57-6.78-6.47-11.69-19.16-18.09-22.63C458.48,345.64,458.9,350.69,452.2,348.45Z"/><path class="cls-11" d="M54.53,237.12c14.38-1.24,22.85-4.21,32.1-3,8.74,1.15,10,10.11,24.69,16,3.66,1.46,7.79.64,16.05-1,14.55-2.88,2.06-8,25.11-5.49,5,.54,3.47,5.9,10.7,12,3.87,3.25,6.59,3,11.11,0,10.7-7,14.2-12.39,24.28-10.48,13.17,2.49,8.38,4,21.4,6.49s21.16-1.64,32.93,4c4.24,2,5.79,4.48,8.64,7,17,14.94,47.71-15,72.43-9.49,15.64,3.5,22.57-13.39,37.87-16.47,6.42-1.29,12.62-9.27,19.34-4.49,5,3.57,8.41,1.61,12.76,1.5s3.21,2,8.64-1.5c7.74-4.95,16.93-1.64,24.28,1a63.93,63.93,0,0,1,15.64,8.48c7.82,5.39,19,14.77,51.44,10.49,22.64-3,14.71-6.38,24.29-14,7.6-6,10.24-2.07,14-2.49,9.23-1,10.91,8.26,21,8,7.72-.21,9.44-5.75,18.11-5,4.87.43,4.78,2.22,11.11,4,11.49,3.22,15-1.8,24.28,1,7.14,2.15,5.8,5.3,15.64,10.48,7.42,3.91,17.5,1.74,25.1-3,6.2-3.85,4.15-2.75,13.59-12.48,3.83-4,8.3-8.56,13.17-7.49s5.31,7,11.11,8.49c3.7,1,4.8-1.11,11.11-2,5.32-.74,9.33.06,14,1,11.56,2.32,12.12,1.13,15.64-1.5,3.92-2.92,5-4.55,8.64-6,2.77-1.09,12.28,2.23,16.47,4,8.87,3.75,6.43-7.41,16.46-6,7.25,1,14.21,12.82,24.69,8,8.64-4,7.26-11.35,21-8,8.07,2,8.64,20.2,11.94,23,12.45,10.41,10.6,51.74.82,71.36-27,54-137.46-9.83-331.3.5-30.75,1.64-76,4.05-135.4,17-108,23.47-119.24,50.4-186.44,47.91-22.19-.83-5.84-3.2-153.1-41.92-55.07-14.48-81-20.37-84.36-39.43-3.87-22,23.09-57,44.86-55.89,11.18.56,7.05,6.47,16.87,2,10.85-4.94,20.94-16.37,30.45-18.46C46.93,233.09,45,238,54.53,237.12Z"/><path class="cls-12" d="M1075.85,217.31c-10.59.77-17.25-1-23.68,1.51-6.07,2.34-5.28,11.31-14.76,19.1-2.36,1.94-5.49,1.71-11.74,1.24-11-.81-3-7.55-19.12-1.91-3.47,1.21-1.38,6.27-5.44,13.24-2.17,3.74-4.18,3.82-8,1.54-9-5.38-12.56-10.2-19.46-6.93-9,4.28-5.27,5.11-14.19,9.34s-15.54,1.33-23,8.48c-2.67,2.58-3.32,5.21-4.9,8.06-9.43,17-37.19-8.12-53.94.72-10.6,5.6-18.78-10-30.38-10.92-4.87-.38-10.84-7.36-14.77-1.74-2.94,4.2-5.76,2.75-8.91,3.24s-1.93,2.39-6.5-.27c-6.51-3.8-12.51.73-17.3,4.34a45.11,45.11,0,0,0-9.65,10.5c-4.62,6.38-10.91,17.14-35.06,17.42-16.87.19-11.8-4.22-20.13-10.36-6.61-4.87-7.77-.62-10.54-.51-6.85.26-6.3,9.62-13.61,10.75-5.6.86-7.88-4.34-14-2.4-3.43,1.1-3,2.85-7.25,5.46-7.66,4.76-11.1.3-17.29,4.35-4.74,3.09-3.18,6-9.28,12.46-4.61,4.87-12.27,4.12-18.64.53-5.19-2.92-3.5-2.12-12.14-10.37-3.5-3.35-7.6-7.25-10.89-5.52s-2.51,7.58-6.4,9.87c-2.49,1.46-3.67-.43-8.38-.42-4,0-6.71,1.35-9.89,2.91-7.88,3.88-8.51,2.79-11.54.7-3.37-2.33-4.49-3.78-7.35-4.68-2.2-.7-8.43,3.88-11.1,6.2-5.68,4.91-6-6.39-13-3.6-5,2-7.81,14.56-16.27,11.26-7-2.72-7.37-10.14-16.62-4.93-5.44,3.06-2.4,21-4.25,24.19-7,12,2.14,52.29,12.89,70.2,29.61,49.33,97.11-28.7,238.63-45.41,22.45-2.65,55.46-6.55,100.7-2.09,82.16,8.09,95.37,33,143.28,21.22,15.82-3.88,3.61-3.95,102.31-62.37,36.92-21.85,54.49-31.23,53.3-50.41-1.37-22.11-27.39-52.76-42.86-48.67-7.94,2.1-3.85,7.33-11.77,4.3-8.75-3.36-18.17-13.18-25.42-13.92C1080.56,212.3,1082.9,216.79,1075.85,217.31Z"/><path class="cls-13" d="M445.08,310.94c14.43-.6,23-3.19,32.2-1.55,8.68,1.54,9.53,10.55,24,17.06,3.59,1.62,7.76,1,16.08-.28,14.67-2.23,2.42-7.88,25.33-4.36,4.93.76,3.21,6.05,10.15,12.45,3.72,3.42,6.45,3.25,11.1.5,11-6.5,14.74-11.74,24.73-9.38,13,3.08,8.19,4.38,21.09,7.44s21.21-.68,32.71,5.47c4.14,2.21,5.58,4.73,8.32,7.36,16.34,15.69,48.34-12.84,72.79-6.22,15.46,4.19,23.14-12.37,38.56-14.75,6.48-1,13-8.7,19.53-3.62,4.85,3.79,8.33,2,12.67,2.07s3.12,2.12,8.7-1.11c8-4.6,17-.89,24.22,2.09a63.93,63.93,0,0,1,15.24,9.17c7.57,5.74,18.34,15.61,50.92,12.78,22.75-2,15-5.71,24.89-12.87,7.86-5.69,10.32-1.61,14.09-1.86,9.27-.62,10.53,8.74,20.61,8.92,7.72.13,9.69-5.33,18.31-4.18,4.85.65,4.68,2.43,10.92,4.49,11.34,3.73,15-1.13,24.21,2.09,7,2.46,5.56,5.55,15.16,11.17,7.24,4.24,17.4,2.52,25.21-1.87,6.36-3.56,4.26-2.56,14.13-11.85,4-3.78,8.68-8.18,13.49-6.89s5,7.2,10.72,9c3.66,1.13,4.85-.9,11.19-1.5,5.35-.51,9.32.48,13.94,1.62,11.44,2.84,12,1.68,15.69-.79,4-2.75,5.23-4.33,8.9-5.59,2.81-1,12.17,2.77,16.27,4.72,8.69,4.15,6.75-7.11,16.71-5.24,7.2,1.35,13.63,13.45,24.31,9.08,8.81-3.6,7.76-11,21.33-7,8,2.34,7.72,20.56,10.89,23.47,12,11,8.27,52.17-2.38,71.33-29.34,52.78-136.88-16-331-14.37-30.79.26-185,27.87-245,38.11-108.9,18.6-155-24.49-222-30-22.13-1.82-87.48-89.51-86-37,1,35.53-147.51-2.81-150-22-2.88-22.13,75.3,4.93,97,7,11.15,1.06,35-32,45-36,11.06-4.45,68.4,15.66,78,14C417.35,350.38,435.48,311.33,445.08,310.94Z"/><path class="cls-14" d="M1106.53,331.12c14.38-1.24,22.85-4.21,32.1-3,8.74,1.15,10,10.11,24.69,16,3.66,1.46,7.79.64,16-1,14.55-2.88,2.06-8,25.11-5.49,5,.54,3.47,5.9,10.7,12,3.87,3.25,6.59,3,11.11,0,10.7-7,14.2-12.39,24.28-10.48,13.17,2.49,8.38,4,21.4,6.49s21.16-1.64,32.93,4c4.24,2,5.79,4.48,8.64,7,17,14.94,47.71-15,72.43-9.49,15.64,3.5,22.57-13.39,37.87-16.47,6.42-1.29,12.62-9.27,19.34-4.49,5,3.57,8.41,1.61,12.76,1.5s3.21,2,8.64-1.5c7.74-4.95,16.93-1.64,24.28,1a63.93,63.93,0,0,1,15.64,8.48c7.82,5.39,19,14.77,51.44,10.49,22.64-3,14.71-6.38,24.29-14,7.6-6,10.24-2.07,14-2.49,9.23-1,10.91,8.26,21,8,7.72-.21,9.44-5.75,18.11-5,4.87.43,4.78,2.22,11.11,4,11.49,3.22,15-1.8,24.28,1,7.14,2.15,5.8,5.3,15.64,10.48,7.42,3.91,17.5,1.74,25.1-3,6.2-3.85,4.15-2.75,13.59-12.48,3.83-3.95,8.3-8.56,13.17-7.49s5.31,7,11.11,8.49c3.7,1,4.8-1.11,11.11-2,5.32-.74,9.33.06,14,1,11.56,2.32,12.12,1.13,15.64-1.5,3.92-2.92,5-4.55,8.64-6,2.77-1.09,12.28,2.23,16.47,4,8.87,3.75,6.43-7.41,16.46-6,7.25,1,14.21,12.82,24.69,8,8.64-4,7.26-11.35,21-8,8.07,2,8.64,20.2,11.94,23,12.45,10.41,10.6,51.74.82,71.36-27,54-137.46-9.83-331.3.5-30.75,1.64-76,4.05-135.4,17-108,23.47-119.24,50.4-186.44,47.91-22.19-.83-5.84-3.2-153.1-41.92C1026.76,426.44,851.35,437.06,848,418c-3.87-22,105-78,161-18,7.64,8.19,40.38-47.93,50.2-52.41,10.85-4.94,20.94-16.37,30.45-18.46C1098.93,327.09,1097,332,1106.53,331.12Z"/><path class="cls-9" d="M682,328.35c0,2.4-128.49,4.35-287,4.35s-287-1.95-287-4.35S236.49,301,395,301,682,326,682,328.35Z"/><path class="cls-9" d="M1322,345.35c0,2.4-132.49,21.65-291,21.65s-283-19.25-283-21.65S876.49,341,1035,341,1322,343,1322,345.35Z"/><path class="cls-9" d="M1419,355.35c0,2.4-128.49,71.65-287,71.65s-287-69.25-287-71.65S973.49,351,1132,351,1419,353,1419,355.35Z"/><path class="cls-9" d="M1691,352.35c0,2.4-121.49,32.65-280,32.65s-294-30.25-294-32.65S1245.49,348,1404,348,1691,350,1691,352.35Z"/><path class="cls-12" d="M1164,382.35C1161.62,382,1031.51,413,873,413s-283-28.25-283-30.65S719.79,357.74,877,378C1352.06,439.22,1207.29,388.32,1164,382.35Z"/><path class="cls-3" d="M777,371.35c0,2.4-129.49,18.65-288,18.65s-286-16.25-286-18.65S331.49,367,490,367,777,369,777,371.35Z"/><path class="cls-9" d="M1872,395.35c0,2.4-129.49,31.65-288,31.65s-286-29.25-286-31.65S1426.49,391,1585,391,1872,393,1872,395.35Z"/><path class="cls-9" d="M506,289.91C506,297.62,378.51,378,220,378S-68,297.62-68,289.91s128.49-14,287-14S506,282.19,506,289.91Z"/><path class="cls-10" d="M503,348.35c0,2.4-128.49,28.65-287,28.65S-71,350.75-71,348.35,57.49,344,216,344,503,346,503,348.35Z"/><path class="cls-9" d="M1597,289.91c0,7.71-120.49,40.09-279,40.09s-295-32.38-295-40.09,128.49-14,287-14S1597,282.19,1597,289.91Z"/><ellipse class="cls-9" cx="1646" cy="295.91" rx="287" ry="13.97"/><path class="cls-10" d="M1049,279.91c0,7.71-122.49,85.09-281,85.09s-293-77.38-293-85.09,128.49-14,287-14S1049,272.19,1049,279.91Z"/><path class="cls-15" d="M544.05,227.16c-3.62-2.63-7.14-5.74-11.73-6.5,3.44-.93,6.63-2.84,9.94-4.32,11.43-5.14,39.76-7.1,39.72,10C581.92,247.75,550.94,232.15,544.05,227.16Z"/><path class="cls-16" d="M563,227l.08,1.43c12.09-.11,22.25,2.54,30.21,7.86,7.8,5.22,13.71,13.3,18.92,20.42l1.14-.81c-5.29-7.23-11.28-15.42-19.31-20.79C585.83,229.65,575.38,226.92,563,227Z"/><path class="cls-17" d="M674.11,289.61c3.49-11,7.44-23,17-30.23,1-.76,2.44-1.46,3.31-.74a52.88,52.88,0,0,0-21.58-.54,37.33,37.33,0,0,0-19.79,10.63c-8.24,8.79-11.56,24.92-4.06,33.43C658.39,312.84,670.65,300.5,674.11,289.61Z"/><path class="cls-18" d="M591.43,273.33l-10.37-12c-2-2.32-4.58-4.83-7.85-4.17a30.76,30.76,0,0,1,25.21-9.06c10.34,1.22,25.48,10.6,23.59,23C619.47,287.58,597.56,280.43,591.43,273.33Z"/><path class="cls-19" d="M687.77,213.7c3.68.89,7.73.18,11.64-.53l32-5.81c-4.85-4.62-9.81-9.19-15.64-12.61a35.1,35.1,0,0,0-19.82-5.18c-5.38.33-17.57,3.34-20,9.51C673.45,205.41,682.71,212.48,687.77,213.7Z"/><path class="cls-20" d="M639.39,253.46a27.51,27.51,0,0,0,6.34-4.5c2.88-2.51,5.83-5.19,7.4-8.59,1.25-2.72,1.52-5.66,2.46-8.47a21.29,21.29,0,0,1,11-12.19c-10.21-2.61-22.46.84-30.83,8.7a18.7,18.7,0,0,0-4.53,6,21.4,21.4,0,0,0-1.34,5.7C629,246.73,629.64,257.92,639.39,253.46Z"/><path class="cls-21" d="M623.29,215.6c2.57-5.81,2.55-12.07,3.05-18.17a102.17,102.17,0,0,1,2.59-16c.74-3.05,1.74-6.27,4.1-8.54-11.6.17-24.36,7.08-29.12,18.06a47,47,0,0,0-2.84,11.26c-1.28,7.78-1.08,16.54,5.34,21.47C612.51,228.39,620.21,222.56,623.29,215.6Z"/><path class="cls-22" d="M640.75,213.08a50.84,50.84,0,0,0-13.24,18.67,50.25,50.25,0,0,0-2.28,30.75l1.29-.45a48.58,48.58,0,0,1,23-53.71c14.46-8.06,31.39-7,47.53-4.67l.34-1.29C681,200,663.82,199,649,207.22A47.19,47.19,0,0,0,640.75,213.08Z"/><path class="cls-23" d="M617.78,180.44c-7.6,14.33-11,28.18-10.08,41.16.77,11,3,15.13,12.34,32.67l2.77,5.22c5,9.4,10.6,20.37,13.92,31.65,3.65,12.39,4.1,23.56,1.38,34.13a38,38,0,0,1-11.32,19.09l-.12.11c-7.57,6.64-16.48,8.53-23,9.91a65.35,65.35,0,0,1-16.27,1.37l-.21,1.3a66.22,66.22,0,0,0,16.61-1.4c6.29-1.33,15.8-3.34,23.67-10.26a39.36,39.36,0,0,0,11.91-19.95c2.78-10.8,2.33-22.19-1.39-34.8-3.35-11.38-9-22.41-14-31.86l-2.77-5.22C612,236.2,609.77,232.07,609,221.35c-.89-12.72,2.45-26.32,9.92-40.42Z"/><path class="cls-24" d="M671.63,268.63a52.92,52.92,0,0,0-12.23,16.94,154.61,154.61,0,0,0-6.5,16.72c-.64,1.87-1.31,3.79-2,5.68a27.06,27.06,0,0,1-3.67,7.49,9.61,9.61,0,0,1-6.68,4l-.09,1.3c2.75-.13,5.66-1.86,7.78-4.6a28,28,0,0,0,3.9-7.9c.68-1.89,1.35-3.83,2-5.69A151.88,151.88,0,0,1,660.58,286c4-8.25,8.9-14.54,14.68-18.72l-.7-1C673.56,267,672.58,267.78,671.63,268.63Z"/><path class="cls-25" d="M604.79,261.63l.75,1a3.32,3.32,0,0,1,2.24-.39c6.85.51,12.22,4.36,15.53,7.49,4.27,4.05,7.55,9.09,10.71,14l1.15-.79c-3.2-4.93-6.52-10-10.89-14.17-3.45-3.28-9.08-7.29-16.29-7.83A4.62,4.62,0,0,0,604.79,261.63Z"/><path class="cls-26" d="M644.53,234.52c-3.68,3.26-6.26,7.82-8.51,12.39l-.54,1.12c-2.58,5.28-5.25,10.73-9.85,14.33l.75,1c4.88-3.82,7.63-9.44,10.28-14.87l.54-1.11c2.82-5.75,6.18-11.46,11.56-14.31l-.52-1.13A18.83,18.83,0,0,0,644.53,234.52Z"/><path class="cls-27" d="M452.39,123.81a39.44,39.44,0,0,1,18.9,7c8.81,6.42,14.46,24.76,20.52,31.34s21.55,17.57,25.68,35.6,5.91,22.69,5.91,22.69.69-9.18,3.76-10.36-4.47-13.44-7.17-18.64-10.84-19-13-20.87A101,101,0,0,1,485.86,143c-8.12-15.6-19.24-19.79-22.14-20.91-2.13-.82-14-5.3-14-5.3Z"/><path class="cls-28" d="M501.11,165.25s-2.06-9,1.68-17.59,6-21,6-21l1.81,2.87s-7.93,24.49-5.5,33.32a56.5,56.5,0,0,0,4.19,10.88Z"/><path class="cls-29" d="M508.15,130.44s-1.92,9.66-8.9,2.53.56-27.86,10.1-34.2S530,86.38,530.58,84.36s1.84-.71.58,3.34-3.54,20.09-3,28.8-2,24-7.26,25.09a9,9,0,0,1-10.65-5.71Z"/><path class="cls-30" d="M452.58,119.72s7.59,11.37-5.95,15.67c-13.19,4.18-22-4-26.25-5.95s-13.42-3.75-17.09-4.13.63-2,.63-2,8.29-4.09,12.31-8.3,13.55-10.57,21.81-11.07,16.49,2.57,19.18,9.56S452.58,119.72,452.58,119.72Z"/><path class="cls-31" d="M1473.14,311.1a39.52,39.52,0,0,1,8.21,18.41c1.57,10.79-7.6,27.64-8.07,36.58s2.5,27.69-7.51,43.25-12.1,20.09-12.1,20.09,7.06-5.93,10-4.56,6.49-12.59,8.31-18.16,6-21,5.87-23.86a100.65,100.65,0,0,1,4.89-34.37c5.48-16.72.7-27.6-.53-30.45-.9-2.1-6-13.74-6-13.74Z"/><path class="cls-32" d="M1477.55,374.91s5-7.77,13.76-11.09,19.24-10.41,19.24-10.41l-.79,3.3s-23.06,11.45-27.67,19.36a56.74,56.74,0,0,0-4.86,10.6Z"/><path class="cls-33" d="M1507.37,355.61s-8.25,5.38-8-4.59,20.31-19.07,31.52-16.69,23.26,6.08,25.15,5.11,1.79.82-2,2.76-16.84,11.5-22.7,18-18.58,15.29-23,12.34a9,9,0,0,1-3.37-11.61Z"/><path class="cls-34" d="M1476.19,308.38s-2.82,13.38-15.36,6.7c-12.21-6.51-12.49-18.54-14.09-22.93s-6.7-12.22-9-15.11,1.89-1,1.89-1,8.72,3.08,14.54,3,17,2.3,23.16,7.86,9.69,13.59,6.58,20.4S1476.19,308.38,1476.19,308.38Z"/></g></g></svg>