<svg xmlns="http://www.w3.org/2000/svg" viewBox="0 0 174.48 194.85"><defs><style>.cls-1{fill:#b0b0b0;}.cls-2{fill:#979797;}.cls-3{fill:#673f31;}.cls-4{fill:#8c573a;}</style></defs><title>hole_1</title><g id="Capa_2" data-name="Capa 2"><g id="PARED"><g id="ABUJEROS"><path class="cls-1" d="M138.5,52.07l-6.09,38.29-23.35,2.3.13,17s-10.53,12.82-19,12.89S67,146.09,73.37,150.3s8.84,44.55,8.84,44.55l-25.88-50.8,6.16-27.67S51.65,86.72,53.74,82.46,43,73,43,73s-8.52-3.13-10.69-9.48-2.24-14.86-2.24-14.86L23.48,14.7,0,0S29.81,8.27,38.29,6.08,46.92,23,46.92,23s19.16,6.23,29.79,6.15,19.17,6.22,19.17,6.22L121.34,31s0,4.25,8.46-5.16c0-3.4,12.69-7.74,12.69-7.74s-2.11,2.84,10.66,5.58A47.66,47.66,0,0,1,174.48,34.8s-27.55,8.71-31.82,6.62S138.5,52.07,138.5,52.07Z"/><polygon class="cls-2" points="93.99 67.28 85.35 48.22 83.14 37.62 66.12 33.49 40.61 31.56 36.49 48.59 55.73 65.44 53.64 69.71 68.63 84.47 64.49 99.37 77.28 105.65 83.59 97.1 94.09 80.03 111.02 71.4 110.92 58.65 98.2 61.61 93.99 67.28"/><path class="cls-3" d="M125.81,85l-.13-17.73-57.17.43.14,17.73S125.81,84.43,125.81,85Z"/><path class="cls-4" d="M94.21,44l-1,18.4-19.09-1,.34-6.61-2.35,4.29-2-2.31L70,58.94,67.78,61,36.16,59.37l1-18.4S94.18,44.57,94.21,44Z"/><path class="cls-4" d="M131.64,62.75s2.37-4.27,0-4.25S134,56.35,134,56.35s-2.42-2.1,0-4.25,2.34-8.51,2.34-8.51l-38.24.29.13,17.73S131.64,62.17,131.64,62.75Z"/><path class="cls-4" d="M66.49,90.62s-2.06.25.11,6.61c.69,2-2.11,2.14-2.11,2.14a4.92,4.92,0,0,1-2.09,4.27,3,3,0,0,0-.68,4.25l39-.29-.12-16S66.49,91.14,66.49,90.62Z"/></g></g></g></svg>