<svg xmlns="http://www.w3.org/2000/svg" xmlns:xlink="http://www.w3.org/1999/xlink" viewBox="0 0 491.57 738.68"><defs><style>.cls-1{fill:url(#Безымянный_градиент_13);}.cls-2{fill:url(#Безымянный_градиент_10);}.cls-3{fill:url(#Безымянный_градиент_13-2);}.cls-4{fill:url(#Безымянный_градиент_10-2);}.cls-5{fill:url(#Безымянный_градиент_30);}.cls-6{fill:url(#Безымянный_градиент_26);}.cls-7{fill:url(#Безымянный_градиент_26-2);}.cls-8{fill:url(#Безымянный_градиент_26-3);}.cls-9{fill:url(#Безымянный_градиент_26-4);}.cls-10{fill:url(#Безымянный_градиент_26-5);}.cls-11{fill:url(#Безымянный_градиент_13-3);}.cls-12{fill:url(#Безымянный_градиент_10-3);}.cls-13{fill:url(#Безымянный_градиент_13-4);}.cls-14{fill:url(#Безымянный_градиент_10-4);}.cls-15{fill:url(#Безымянный_градиент_30-2);}.cls-16{fill:url(#Безымянный_градиент_26-6);}.cls-17{fill:url(#Безымянный_градиент_26-7);}.cls-18{fill:url(#Безымянный_градиент_26-8);}.cls-19{fill:url(#Безымянный_градиент_26-9);}.cls-20{fill:url(#Безымянный_градиент_26-10);}.cls-21{fill:url(#Безымянный_градиент_13-5);}.cls-22{fill:url(#Безымянный_градиент_10-5);}.cls-23{fill:url(#Безымянный_градиент_13-6);}.cls-24{fill:url(#Безымянный_градиент_10-6);}.cls-25{fill:url(#Безымянный_градиент_30-3);}.cls-26{fill:url(#Безымянный_градиент_26-11);}.cls-27{fill:url(#Безымянный_градиент_26-12);}.cls-28{fill:url(#Безымянный_градиент_26-13);}.cls-29{fill:url(#Безымянный_градиент_26-14);}.cls-30{fill:url(#Безымянный_градиент_26-15);}.cls-31{fill:url(#Безымянный_градиент_13-7);}.cls-32{fill:url(#Безымянный_градиент_10-7);}.cls-33{fill:url(#Безымянный_градиент_30-4);}.cls-34{fill:url(#Безымянный_градиент_26-16);}.cls-35{fill:url(#Безымянный_градиент_26-17);}.cls-36{fill:url(#Безымянный_градиент_26-18);}.cls-37{fill:url(#Безымянный_градиент_13-8);}.cls-38{fill:url(#Безымянный_градиент_10-8);}.cls-39{fill:url(#Безымянный_градиент_13-9);}.cls-40{fill:url(#Безымянный_градиент_10-9);}.cls-41{fill:url(#Безымянный_градиент_30-5);}.cls-42{fill:url(#Безымянный_градиент_26-19);}.cls-43{fill:url(#Безымянный_градиент_26-20);}.cls-44{fill:url(#Безымянный_градиент_26-21);}.cls-45{fill:url(#Безымянный_градиент_26-22);}.cls-46{fill:url(#Безымянный_градиент_13-10);}.cls-47{fill:url(#Безымянный_градиент_10-10);}.cls-48{fill:url(#Безымянный_градиент_13-11);}.cls-49{fill:url(#Безымянный_градиент_10-11);}.cls-50{fill:url(#Безымянный_градиент_30-6);}.cls-51{fill:url(#Безымянный_градиент_26-23);}.cls-52{fill:url(#Безымянный_градиент_26-24);}.cls-53{fill:url(#Безымянный_градиент_26-25);}.cls-54{fill:url(#Безымянный_градиент_26-26);}.cls-55{fill:url(#Безымянный_градиент_8);}.cls-56{fill:url(#Безымянный_градиент_12);}.cls-57{fill:url(#Безымянный_градиент_26-27);}.cls-58{fill:url(#Безымянный_градиент_26-28);}.cls-59{fill:url(#Безымянный_градиент_12-2);}.cls-60{fill:url(#Безымянный_градиент_26-29);}.cls-61{fill:url(#Безымянный_градиент_26-30);}.cls-62{fill:url(#Безымянный_градиент_8-2);}.cls-63{fill:url(#Безымянный_градиент_12-3);}.cls-64{fill:url(#Безымянный_градиент_26-31);}.cls-65{fill:url(#Безымянный_градиент_26-32);}.cls-66{fill:url(#Безымянный_градиент_8-3);}</style><linearGradient id="Безымянный_градиент_13" x1="9849.03" y1="255.41" x2="9938.56" y2="255.41" gradientTransform="matrix(-1.09, 0, 0, 1, 11047.61, 0)" gradientUnits="userSpaceOnUse"><stop offset="0" stop-color="#534741"/><stop offset="0.49" stop-color="#544941"/><stop offset="0.69" stop-color="#565041"/><stop offset="0.85" stop-color="#5a5d40"/><stop offset="0.98" stop-color="#5f6e3f"/><stop offset="1" stop-color="#60723f"/></linearGradient><linearGradient id="Безымянный_градиент_10" x1="9881.52" y1="91.11" x2="9881.52" y2="25.76" gradientTransform="matrix(-1.09, 0, 0, 1, 11047.61, 0)" gradientUnits="userSpaceOnUse"><stop offset="0" stop-color="#534741"/><stop offset="0.33" stop-color="#544a41"/><stop offset="0.61" stop-color="#575540"/><stop offset="0.87" stop-color="#5d6740"/><stop offset="1" stop-color="#60723f"/></linearGradient><linearGradient id="Безымянный_градиент_13-2" x1="9824.4" y1="272.44" x2="9824.4" y2="239.91" xlink:href="#Безымянный_градиент_13"/><linearGradient id="Безымянный_градиент_10-2" x1="9851.83" y1="196.41" x2="9851.83" y2="137.23" xlink:href="#Безымянный_градиент_10"/><linearGradient id="Безымянный_градиент_30" x1="9865.55" y1="189.41" x2="9912.61" y2="189.41" gradientTransform="matrix(-1.09, 0, 0, 1, 11047.61, 0)" gradientUnits="userSpaceOnUse"><stop offset="0" stop-color="#534741"/><stop offset="0.11" stop-color="#565141"/><stop offset="0.39" stop-color="#5c6340"/><stop offset="0.68" stop-color="#5f6e3f"/><stop offset="1" stop-color="#60723f"/></linearGradient><linearGradient id="Безымянный_градиент_26" x1="9746.84" y1="250.39" x2="9832.93" y2="250.39" gradientTransform="matrix(-1.09, 0, 0, 1, 11047.61, 0)" gradientUnits="userSpaceOnUse"><stop offset="0" stop-color="#95ab5c"/><stop offset="1" stop-color="#60723f"/></linearGradient><linearGradient id="Безымянный_градиент_26-2" x1="9800.73" y1="129.55" x2="9867.27" y2="129.55" xlink:href="#Безымянный_градиент_26"/><linearGradient id="Безымянный_градиент_26-3" x1="9918.7" y1="204.44" x2="9918.7" y2="163.64" xlink:href="#Безымянный_градиент_26"/><linearGradient id="Безымянный_градиент_26-4" x1="9938.17" y1="154.34" x2="9938.17" y2="74.19" xlink:href="#Безымянный_градиент_26"/><linearGradient id="Безымянный_градиент_26-5" x1="9822.29" y1="46.42" x2="9881.19" y2="46.42" xlink:href="#Безымянный_градиент_26"/><linearGradient id="Безымянный_градиент_13-3" x1="10073.33" y1="-249.26" x2="10162.85" y2="-249.26" gradientTransform="matrix(-1.08, 0.15, 0.17, 0.99, 11126.08, -908.5)" xlink:href="#Безымянный_градиент_13"/><linearGradient id="Безымянный_градиент_10-3" x1="10105.81" y1="-413.56" x2="10105.81" y2="-478.9" gradientTransform="matrix(-1.08, 0.15, 0.17, 0.99, 11126.08, -908.5)" xlink:href="#Безымянный_градиент_10"/><linearGradient id="Безымянный_градиент_13-4" x1="10048.69" y1="-232.23" x2="10048.69" y2="-264.76" gradientTransform="matrix(-1.08, 0.15, 0.17, 0.99, 11126.08, -908.5)" xlink:href="#Безымянный_градиент_13"/><linearGradient id="Безымянный_градиент_10-4" x1="10076.12" y1="-308.26" x2="10076.12" y2="-367.44" gradientTransform="matrix(-1.08, 0.15, 0.17, 0.99, 11126.08, -908.5)" xlink:href="#Безымянный_градиент_10"/><linearGradient id="Безымянный_градиент_30-2" x1="10089.84" y1="-315.26" x2="10136.9" y2="-315.26" gradientTransform="matrix(-1.08, 0.15, 0.17, 0.99, 11126.08, -908.5)" xlink:href="#Безымянный_градиент_30"/><linearGradient id="Безымянный_градиент_26-6" x1="9971.13" y1="-254.28" x2="10057.22" y2="-254.28" gradientTransform="matrix(-1.08, 0.15, 0.17, 0.99, 11126.08, -908.5)" xlink:href="#Безымянный_градиент_26"/><linearGradient id="Безымянный_градиент_26-7" x1="10025.03" y1="-375.11" x2="10091.57" y2="-375.11" gradientTransform="matrix(-1.08, 0.15, 0.17, 0.99, 11126.08, -908.5)" xlink:href="#Безымянный_градиент_26"/><linearGradient id="Безымянный_градиент_26-8" x1="10142.99" y1="-300.22" x2="10142.99" y2="-341.02" gradientTransform="matrix(-1.08, 0.15, 0.17, 0.99, 11126.08, -908.5)" xlink:href="#Безымянный_градиент_26"/><linearGradient id="Безымянный_градиент_26-9" x1="10162.46" y1="-350.33" x2="10162.46" y2="-430.48" gradientTransform="matrix(-1.08, 0.15, 0.17, 0.99, 11126.08, -908.5)" xlink:href="#Безымянный_градиент_26"/><linearGradient id="Безымянный_градиент_26-10" x1="10046.58" y1="-458.25" x2="10105.48" y2="-458.25" gradientTransform="matrix(-1.08, 0.15, 0.17, 0.99, 11126.08, -908.5)" xlink:href="#Безымянный_градиент_26"/><linearGradient id="Безымянный_градиент_13-5" x1="8485.32" y1="2650.71" x2="8574.85" y2="2650.71" gradientTransform="matrix(-0.9, -0.57, -0.62, 0.82, 9485.7, 3235.66)" xlink:href="#Безымянный_градиент_13"/><linearGradient id="Безымянный_градиент_10-5" x1="8517.81" y1="2486.41" x2="8517.81" y2="2421.07" gradientTransform="matrix(-0.9, -0.57, -0.62, 0.82, 9485.7, 3235.66)" xlink:href="#Безымянный_градиент_10"/><linearGradient id="Безымянный_градиент_13-6" x1="8460.69" y1="2667.74" x2="8460.69" y2="2635.21" gradientTransform="matrix(-0.9, -0.57, -0.62, 0.82, 9485.7, 3235.66)" xlink:href="#Безымянный_градиент_13"/><linearGradient id="Безымянный_градиент_10-6" x1="8488.12" y1="2591.71" x2="8488.12" y2="2532.53" gradientTransform="matrix(-0.9, -0.57, -0.62, 0.82, 9485.7, 3235.66)" xlink:href="#Безымянный_градиент_10"/><linearGradient id="Безымянный_градиент_30-3" x1="8501.84" y1="2584.71" x2="8548.9" y2="2584.71" gradientTransform="matrix(-0.9, -0.57, -0.62, 0.82, 9485.7, 3235.66)" xlink:href="#Безымянный_градиент_30"/><linearGradient id="Безымянный_градиент_26-11" x1="8383.13" y1="2645.69" x2="8469.22" y2="2645.69" gradientTransform="matrix(-0.9, -0.57, -0.62, 0.82, 9485.7, 3235.66)" xlink:href="#Безымянный_градиент_26"/><linearGradient id="Безымянный_градиент_26-12" x1="8437.02" y1="2524.86" x2="8503.56" y2="2524.86" gradientTransform="matrix(-0.9, -0.57, -0.62, 0.82, 9485.7, 3235.66)" xlink:href="#Безымянный_градиент_26"/><linearGradient id="Безымянный_градиент_26-13" x1="8554.99" y1="2599.75" x2="8554.99" y2="2558.95" gradientTransform="matrix(-0.9, -0.57, -0.62, 0.82, 9485.7, 3235.66)" xlink:href="#Безымянный_градиент_26"/><linearGradient id="Безымянный_градиент_26-14" x1="8574.46" y1="2549.64" x2="8574.46" y2="2469.49" gradientTransform="matrix(-0.9, -0.57, -0.62, 0.82, 9485.7, 3235.66)" xlink:href="#Безымянный_градиент_26"/><linearGradient id="Безымянный_градиент_26-15" x1="8458.58" y1="2441.72" x2="8517.48" y2="2441.72" gradientTransform="matrix(-0.9, -0.57, -0.62, 0.82, 9485.7, 3235.66)" xlink:href="#Безымянный_градиент_26"/><linearGradient id="Безымянный_градиент_13-7" x1="10160.36" y1="-135.4" x2="10249.89" y2="-135.4" gradientTransform="matrix(-1.08, 0.16, 0.17, 0.99, 11091.96, -969.97)" xlink:href="#Безымянный_градиент_13"/><linearGradient id="Безымянный_градиент_10-7" x1="10192.85" y1="-299.7" x2="10192.85" y2="-365.05" gradientTransform="matrix(-1.08, 0.16, 0.17, 0.99, 11091.96, -969.97)" xlink:href="#Безымянный_градиент_10"/><linearGradient id="Безымянный_градиент_30-4" x1="10176.88" y1="-201.41" x2="10223.94" y2="-201.41" gradientTransform="matrix(-1.08, 0.16, 0.17, 0.99, 11091.96, -969.97)" xlink:href="#Безымянный_градиент_30"/><linearGradient id="Безымянный_градиент_26-16" x1="10230.03" y1="-186.37" x2="10230.03" y2="-227.17" gradientTransform="matrix(-1.08, 0.16, 0.17, 0.99, 11091.96, -969.97)" xlink:href="#Безымянный_градиент_26"/><linearGradient id="Безымянный_градиент_26-17" x1="10249.5" y1="-236.47" x2="10249.5" y2="-316.63" gradientTransform="matrix(-1.08, 0.16, 0.17, 0.99, 11091.96, -969.97)" xlink:href="#Безымянный_градиент_26"/><linearGradient id="Безымянный_градиент_26-18" x1="10133.62" y1="-344.39" x2="10192.52" y2="-344.39" gradientTransform="matrix(-1.08, 0.16, 0.17, 0.99, 11091.96, -969.97)" xlink:href="#Безымянный_градиент_26"/><linearGradient id="Безымянный_градиент_13-8" x1="9294.06" y1="1582.44" x2="9383.58" y2="1582.44" gradientTransform="matrix(-0.42, -0.49, -0.37, 0.47, 4844.5, 4177.33)" xlink:href="#Безымянный_градиент_13"/><linearGradient id="Безымянный_градиент_10-8" x1="9326.54" y1="1418.14" x2="9326.54" y2="1352.8" gradientTransform="matrix(-0.42, -0.49, -0.37, 0.47, 4844.5, 4177.33)" xlink:href="#Безымянный_градиент_10"/><linearGradient id="Безымянный_градиент_13-9" x1="9269.42" y1="1599.47" x2="9269.42" y2="1566.94" gradientTransform="matrix(-0.42, -0.49, -0.37, 0.47, 4844.5, 4177.33)" xlink:href="#Безымянный_градиент_13"/><linearGradient id="Безымянный_градиент_10-9" x1="9296.85" y1="1523.44" x2="9296.85" y2="1464.26" gradientTransform="matrix(-0.42, -0.49, -0.37, 0.47, 4844.5, 4177.33)" xlink:href="#Безымянный_градиент_10"/><linearGradient id="Безымянный_градиент_30-5" x1="9310.57" y1="1516.44" x2="9357.63" y2="1516.44" gradientTransform="matrix(-0.42, -0.49, -0.37, 0.47, 4844.5, 4177.33)" xlink:href="#Безымянный_градиент_30"/><linearGradient id="Безымянный_градиент_26-19" x1="9191.86" y1="1577.42" x2="9277.95" y2="1577.42" gradientTransform="matrix(-0.42, -0.49, -0.37, 0.47, 4844.5, 4177.33)" xlink:href="#Безымянный_градиент_26"/><linearGradient id="Безымянный_градиент_26-20" x1="9363.72" y1="1531.48" x2="9363.72" y2="1490.67" gradientTransform="matrix(-0.42, -0.49, -0.37, 0.47, 4844.5, 4177.33)" xlink:href="#Безымянный_градиент_26"/><linearGradient id="Безымянный_градиент_26-21" x1="9383.19" y1="1481.37" x2="9383.19" y2="1401.22" gradientTransform="matrix(-0.42, -0.49, -0.37, 0.47, 4844.5, 4177.33)" xlink:href="#Безымянный_градиент_26"/><linearGradient id="Безымянный_градиент_26-22" x1="9267.31" y1="1373.45" x2="9326.21" y2="1373.45" gradientTransform="matrix(-0.42, -0.49, -0.37, 0.47, 4844.5, 4177.33)" xlink:href="#Безымянный_градиент_26"/><linearGradient id="Безымянный_градиент_13-10" x1="9068.21" y1="1569.42" x2="9157.74" y2="1569.42" gradientTransform="matrix(0.79, -0.18, 0, 0.76, -7050.76, 976.12)" xlink:href="#Безымянный_градиент_13"/><linearGradient id="Безымянный_градиент_10-10" x1="9100.69" y1="1405.12" x2="9100.69" y2="1339.78" gradientTransform="matrix(0.79, -0.18, 0, 0.76, -7050.76, 976.12)" xlink:href="#Безымянный_градиент_10"/><linearGradient id="Безымянный_градиент_13-11" x1="9043.57" y1="1586.45" x2="9043.57" y2="1553.92" gradientTransform="matrix(0.79, -0.18, 0, 0.76, -7050.76, 976.12)" xlink:href="#Безымянный_градиент_13"/><linearGradient id="Безымянный_градиент_10-11" x1="9071.01" y1="1510.42" x2="9071.01" y2="1451.24" gradientTransform="matrix(0.79, -0.18, 0, 0.76, -7050.76, 976.12)" xlink:href="#Безымянный_градиент_10"/><linearGradient id="Безымянный_градиент_30-6" x1="9084.72" y1="1503.42" x2="9131.78" y2="1503.42" gradientTransform="matrix(0.79, -0.18, 0, 0.76, -7050.76, 976.12)" xlink:href="#Безымянный_градиент_30"/><linearGradient id="Безымянный_градиент_26-23" x1="8966.01" y1="1564.4" x2="9052.1" y2="1564.4" gradientTransform="matrix(0.79, -0.18, 0, 0.76, -7050.76, 976.12)" xlink:href="#Безымянный_градиент_26"/><linearGradient id="Безымянный_градиент_26-24" x1="9137.87" y1="1518.46" x2="9137.87" y2="1477.65" gradientTransform="matrix(0.79, -0.18, 0, 0.76, -7050.76, 976.12)" xlink:href="#Безымянный_градиент_26"/><linearGradient id="Безымянный_градиент_26-25" x1="9157.35" y1="1468.35" x2="9157.35" y2="1388.2" gradientTransform="matrix(0.79, -0.18, 0, 0.76, -7050.76, 976.12)" xlink:href="#Безымянный_градиент_26"/><linearGradient id="Безымянный_градиент_26-26" x1="9041.46" y1="1360.43" x2="9100.36" y2="1360.43" gradientTransform="matrix(0.79, -0.18, 0, 0.76, -7050.76, 976.12)" xlink:href="#Безымянный_градиент_26"/><linearGradient id="Безымянный_градиент_8" x1="-286.44" y1="-2180.38" x2="-286.44" y2="-2351.68" gradientTransform="matrix(-0.54, 0.09, 0.1, 0.57, 279.34, 1897.84)" gradientUnits="userSpaceOnUse"><stop offset="0" stop-color="#534741"/><stop offset="0.53" stop-color="#544941"/><stop offset="0.72" stop-color="#565041"/><stop offset="0.86" stop-color="#595b40"/><stop offset="0.97" stop-color="#5e6c3f"/><stop offset="1" stop-color="#60723f"/></linearGradient><linearGradient id="Безымянный_градиент_12" x1="-251.58" y1="-2253.3" x2="-251.58" y2="-2315.09" gradientTransform="matrix(-0.54, 0.09, 0.1, 0.57, 279.34, 1897.84)" gradientUnits="userSpaceOnUse"><stop offset="0" stop-color="#534741"/><stop offset="0.49" stop-color="#544941"/><stop offset="0.7" stop-color="#565041"/><stop offset="0.85" stop-color="#595c40"/><stop offset="0.98" stop-color="#5f6e3f"/><stop offset="1" stop-color="#60723f"/></linearGradient><linearGradient id="Безымянный_градиент_26-27" x1="-194.06" y1="-2316.94" x2="-239.17" y2="-2342.99" gradientTransform="matrix(-0.54, 0.09, 0.1, 0.57, 279.34, 1897.84)" xlink:href="#Безымянный_градиент_26"/><linearGradient id="Безымянный_градиент_26-28" x1="-400.3" y1="-2352.33" x2="-307.09" y2="-2352.33" gradientTransform="matrix(-0.54, 0.09, 0.1, 0.57, 279.34, 1897.84)" xlink:href="#Безымянный_градиент_26"/><linearGradient id="Безымянный_градиент_12-2" x1="3244.91" y1="-1517.58" x2="3244.91" y2="-1558.54" gradientTransform="matrix(-0.55, 0.01, -0.12, 0.67, 2034.3, 1214.69)" xlink:href="#Безымянный_градиент_12"/><linearGradient id="Безымянный_градиент_26-29" x1="3292.8" y1="-1561.77" x2="3256.44" y2="-1582.76" gradientTransform="matrix(-0.55, 0.01, -0.12, 0.67, 2034.3, 1214.69)" xlink:href="#Безымянный_градиент_26"/><linearGradient id="Безымянный_градиент_26-30" x1="3374.21" y1="-1559.57" x2="3446.54" y2="-1559.57" gradientTransform="matrix(-0.52, 0.18, 0.09, 0.68, 2398.19, 617.35)" xlink:href="#Безымянный_градиент_26"/><linearGradient id="Безымянный_градиент_8-2" x1="2294.47" y1="1223.42" x2="2294.47" y2="1159.71" gradientTransform="matrix(-0.38, -0.64, -0.76, 0.49, 2225.96, 1096.6)" xlink:href="#Безымянный_градиент_8"/><linearGradient id="Безымянный_градиент_12-3" x1="2830.17" y1="-1960.49" x2="2830.17" y2="-2014.48" gradientTransform="matrix(0.47, -0.27, 0.46, 0.49, -167.08, 1780.8)" xlink:href="#Безымянный_градиент_12"/><linearGradient id="Безымянный_градиент_26-31" x1="2893.42" y1="-2018.97" x2="2845.96" y2="-2046.37" gradientTransform="matrix(0.47, -0.27, 0.46, 0.49, -167.08, 1780.8)" xlink:href="#Безымянный_градиент_26"/><linearGradient id="Безымянный_градиент_26-32" x1="2740.58" y1="-1861.19" x2="2834.22" y2="-1861.19" gradientTransform="matrix(0.54, -0.11, 0.28, 0.6, -792.6, 1477.75)" xlink:href="#Безымянный_градиент_26"/><linearGradient id="Безымянный_градиент_8-3" x1="2431.64" y1="786.08" x2="2431.64" y2="703.91" gradientTransform="matrix(-0.02, -0.71, 0.91, 0.02, -392.13, 1780.91)" xlink:href="#Безымянный_градиент_8"/></defs><title>plant_wall_left</title><g id="Capa_2" data-name="Capa 2"><g id="Capa_1-2" data-name="Capa 1"><path class="cls-1" d="M235.36,79s34.42-12.19,46.5,20.37,23.22,115.72,23.22,115.72S315.32,356.83,314,370.82s-5.93,68.62-5.93,68.62,5-16,11.61-15.38-.24-170.46-1.77-175.78S297.65,108.75,286.79,91.8c-6.61-10.33-12.72-16-21.54-18.69-7.14-2.17-15.6-2.83-31.12,1.1C212.92,84.33,235.36,79,235.36,79Z"/><path class="cls-2" d="M297.57,30.25s-27.53,1.1-13.17,59c-.36,7.45-10.77-9.51-10.77-9.51s-2.4-47.26,13.4-51.64C309.55,21.83,297.57,30.25,297.57,30.25Z"/><path class="cls-3" d="M319.49,272.44s13.1-25.58,30-27,30.21,7.81,30.21,7.81-20-15.19-30.27-13.14S319,262.22,319,262.22Z"/><path class="cls-4" d="M309.61,196.41s.62-55,23.36-59.18c-24.25.14-27,43.6-27,43.6Z"/><path class="cls-5" d="M302.29,186.2s-21.15-12.27-49-6.78c8.16,7.28,33.19-2.72,49.12,17.09C307.23,210.39,302.29,186.2,302.29,186.2Z"/><path class="cls-6" d="M357.53,242.72S346.37,228.8,364,227.37s45.91,33.68,65,30.9-22.61,17.45-55,15-35.76-25-33.36-29S350.14,238.77,357.53,242.72Z"/><path class="cls-7" d="M317.67,151.73s-1.28,19.32,15.62,18.56,41-19.56,41.81-81.49c0,0-7.85,24-32.8,27.5s-49.52,20.57-35.65,36.17C311.93,157.75,317.67,151.73,317.67,151.73Z"/><path class="cls-8" d="M286.37,181.89s13.1-12.73-3.85-17.29-39,8.64-42.52,10.24-27.14,5.49-38.24-1.77,29,36.45,68.66,30.88S286.37,181.89,286.37,181.89Z"/><path class="cls-9" d="M233.84,74.33s-27.22-3.17-30.66,20.16,12.36,59.85,12.36,59.85,1.17-29.3,13.62-34,29.76-28.25,10.19-42.39C230.21,78.35,233.84,74.33,233.84,74.33Z"/><path class="cls-10" d="M287.8,31.39s-5.65,23.34,31.12,25.79S340.59,92.53,347.8,79s8.42-64.12-35.22-68.38C283.2,10.46,287.8,31.39,287.8,31.39Z"/><path class="cls-11" d="M127.18,210.64s32-16.85,49.33,13.65,42.05,111.15,42.05,111.15,33.54,138.7,34.53,152.71,5.48,68.65,5.48,68.65,2.28-16.52,8.93-16.82-28.39-168.45-30.78-173.5-43.06-135.1-56.59-150.34c-8.25-9.28-15.21-14-24.38-15.46-7.41-1.16-15.89-.63-30.58,5.42C105.88,219.05,127.18,210.64,127.18,210.64Z"/><path class="cls-12" d="M180.61,153.8s-27,4.92-3.27,60.13c.88,7.41-12.22-7.9-12.22-7.9s-10.17-46.39,4.72-52.91C191.07,143.81,180.61,153.8,180.61,153.8Z"/><path class="cls-13" d="M242.28,390.14S251,363,267.46,359.27s31.15,3.51,31.15,3.51-22.27-12.24-32.08-8.77-26.45,26.1-26.45,26.1Z"/><path class="cls-14" d="M220,316.36s-8.48-54.49,13.31-61.75c-23.94,3.53-19.51,46.87-19.51,46.87Z"/><path class="cls-15" d="M211,307.29a76.57,76.57,0,0,0-49.56.13c9.26,6.05,32.36-7.31,51.37,10.05C219.92,330.52,211,307.29,211,307.29Z"/><path class="cls-16" d="M275,355.47s-13.34-12.21,3.85-16.08,50.93,26.9,69.33,21.5-19.46,20.39-51.86,22.46-39.47-19.72-37.76-24.05S267,352.59,275,355.47Z"/><path class="cls-17" d="M220.55,271.09s1.93,19.27,18.5,16.16,37.26-25,27.87-86.37c0,0-3.79,24.83-27.88,31.75s-45.55,27.22-29.26,40.71C215.87,277.83,220.55,271.09,220.55,271.09Z"/><path class="cls-18" d="M194.59,305.25s10.85-14.41-6.66-16.56-37.17,14-40.34,16.05-25.92,9.2-38.08,3.58,34.71,32,73,21S194.59,305.25,194.59,305.25Z"/><path class="cls-19" d="M124.91,206.25s-27.43.66-27,24.2S120,287.89,120,287.89s-3.68-29.13,7.84-35.55,24.75-32.06,3.07-43.32C122,210.73,124.91,206.25,124.91,206.25Z"/><path class="cls-20" d="M171.15,156.3s-1.73,23.85,35,21.15,27.26,31.93,32.15,17.52S236,130.42,192.2,132.3C163.15,136.25,171.15,156.3,171.15,156.3Z"/><path class="cls-21" d="M279.74,404.14s35.86,7.93,25.66,41-52.51,107.33-52.51,107.33-79.3,122-89,132.82-47.34,53.37-47.34,53.37,14-10.58,19.07-6.61S240.85,591.69,242.89,586.52s69.68-125.39,71.24-145c.95-11.95-.56-19.8-6.17-26.61-4.53-5.51-11.08-10.48-26.28-15.34C258,396.82,279.74,404.14,279.74,404.14Z"/><path class="cls-22" d="M361.08,396.5S337.75,383,313.76,438.15c-4.91,6-3-13.45-3-13.45s27.28-40.13,43-35.49C376.16,395.82,361.08,396.5,361.08,396.5Z"/><path class="cls-23" d="M229.25,607.23s26.6-14.22,41.39-6.58,20,22.19,20,22.19-7.05-22.94-16.77-26.6-38.75,2.3-38.75,2.3Z"/><path class="cls-24" d="M268.17,539.51s34.57-45,55.84-36.51c-20-12.54-49.22,21.78-49.22,21.78Z"/><path class="cls-25" d="M268.46,527.28s-9.8-21.13-36.13-31.15c2.21,10.24,29,15.08,29.84,39.69C257.56,549.77,268.46,527.28,268.46,527.28Z"/><path class="cls-26" d="M278.94,602.62s-.57-17.27,14.82-9.26S310.69,645,328.11,652.7s-29.4,2.56-54.5-16.36-14-39.22-9.49-41.29S275.31,595.51,278.94,602.62Z"/><path class="cls-27" d="M302.44,507s-13,15.23,1.38,23.42,45.8,5.28,84.82-45.23c0,0-21.31,15.67-44,5.51s-53.47-8.92-51.71,11.16C294,508.91,302.44,507,302.44,507Z"/><path class="cls-28" d="M258,515.43s18.66-3.64,7.54-16.24-37.49-13.26-41.33-13.76-25.73-9.65-30.37-21.41,1.33,45.14,37.38,61.24S258,515.43,258,515.43Z"/><path class="cls-29" d="M281.37,399.52s-20.44-16.82-37.71.58-26.87,55.7-26.87,55.7,19.11-23.5,32.28-20.9,42-7.71,34.62-29.57C275.89,400.93,281.37,399.52,281.37,399.52Z"/><path class="cls-30" d="M352.34,392.34S333.25,408.6,362,429.8s-4.05,40.4,10.28,33,46.6-48.37,13.32-74.64C361.51,372.72,352.34,392.34,352.34,392.34Z"/><path class="cls-31" d="M29.09,354.22S61,337.15,78.54,367.52s43,110.84,43,110.84,34.72,138.46,35.83,152.47,6.06,68.6,6.06,68.6,2.14-16.53,8.79-16.88S142.39,514.3,140,509.28,95.75,374.49,82.09,359.35c-8.32-9.23-15.33-13.94-24.51-15.3-7.42-1.09-15.89-.51-30.53,5.64C7.86,362.78,29.09,354.22,29.09,354.22Z"/><path class="cls-32" d="M82,297s-27,5.11-2.76,60.14c.94,7.41-12.28-7.81-12.28-7.81S56.43,303,71.26,296.4C92.41,286.94,82,297,82,297Z"/><path class="cls-33" d="M113.77,450.27a76.6,76.6,0,0,0-49.57.48c9.32,6,32.3-7.54,51.46,9.69C122.85,473.43,113.77,450.27,113.77,450.27Z"/><path class="cls-34" d="M97.31,448.34s10.72-14.48-6.8-16.5S53.46,446.09,50.3,448.17s-25.83,9.39-38,3.85,35,31.74,73.14,20.44S97.31,448.34,97.31,448.34Z"/><path class="cls-35" d="M26.79,349.85S-.64,350.71,0,374.24,22.6,431.52,22.6,431.52s-3.92-29.1,7.54-35.6,24.48-32.24,2.7-43.34C23.89,354.35,26.79,349.85,26.79,349.85Z"/><path class="cls-36" d="M72.6,299.57s-1.52,23.86,35.2,20.89,27.53,31.74,32.3,17.3-2.83-64.53-46.65-62.34C64.43,279.58,72.6,299.57,72.6,299.57Z"/><path class="cls-37" d="M412.31,222.58s17.72,9.82,10.25,30.64-34.12,65.06-34.12,65.06S339.68,389.76,334,395.75s-27.77,29.68-27.77,29.68,7.86-5.3,10.16-2,63.26-80.48,64.65-83.68,44.1-74.95,46.24-87.85c1.31-7.87,1.08-13.3-1.31-18.56-1.92-4.25-4.92-8.39-12.32-13.56C401.73,215,412.31,222.58,412.31,222.58Z"/><path class="cls-38" d="M454.25,227.74s-10.95-11.94-27,21.85c-2.9,3.35-.59-9.36-.59-9.36s16.65-23.37,24.33-18.29C462,229.19,454.25,227.74,454.25,227.74Z"/><path class="cls-39" d="M372.64,351.86s14.52-6.14,21.52.82S402.83,370,402.83,370s-2-16.21-6.71-19.88-19.88-3.35-19.88-3.35Z"/><path class="cls-40" d="M397.11,311.53s20.7-25.67,30.94-17.34c-9.34-10.9-26.55,8.34-26.55,8.34Z"/><path class="cls-41" d="M398.1,303.41s-3.53-15.35-16.25-25.37c.42,7.12,13.72,13.73,12.46,30.28C391,317.05,398.1,303.41,398.1,303.41Z"/><path class="cls-42" d="M398.26,355.05s.89-11.61,8.18-4.32,5.06,36.65,13.4,44-15.14-2-26.62-17.8-4.41-28-2-28.78S396.89,349.84,398.26,355.05Z"/><path class="cls-43" d="M393.61,294.17s9.75-.07,4.95-9.89-18.17-13.59-20.09-14.41-12.44-9.69-14-18.13-2.43,30.32,14.82,45.62S393.61,294.17,393.61,294.17Z"/><path class="cls-44" d="M413.46,219.7s-9.25-13.81-19.23-4.37-17.51,33.81-17.51,33.81,11.34-13.28,17.86-9.88,21.9.14,19.66-15.39C410.58,220,413.46,219.7,413.46,219.7Z"/><path class="cls-45" d="M450.08,223.86s-10.83,8.45,2.34,26.24-4.84,26.47,3,23.34S482.43,247,467.3,225.27C456.1,211.91,450.08,223.86,450.08,223.86Z"/><path class="cls-46" d="M220.71,371.1s-25.16-3.5-33.82,23.18-16.36,91.53-16.36,91.53-6.78,109.11-5.74,119.49,4.66,51,4.66,51-3.72-11.3-8.54-9.72-.66-129.17.43-133.46S175.43,404,183.26,389.38c4.78-8.93,9.2-14.24,15.62-17.74,5.2-2.84,11.36-4.75,22.7-4.36C237.1,371.41,220.71,371.1,220.71,371.1Z"/><path class="cls-47" d="M175.11,344.55S195.19,340.79,185,387c.3,5.58,7.81-9,7.81-9s1.52-36.21-10-36.89C166.33,340.17,175.11,344.55,175.11,344.55Z"/><path class="cls-48" d="M160.3,531.68s-9.68-17.19-22-15.46-22,10.95-22,10.95,14.51-14.85,22-15,22.32,11.68,22.32,11.68Z"/><path class="cls-49" d="M167.13,472.43s-.71-41.6-17.32-40.94C167.5,427.56,169.73,460,169.73,460Z"/><path class="cls-50" d="M172.43,463.48s15.35-12.82,35.71-13.31c-5.92,6.88-24.22,3.48-35.74,21.14C168.94,482.63,172.43,463.48,172.43,463.48Z"/><path class="cls-51" d="M132.41,515.5s8.08-12.4-4.78-10.55S94.31,538.12,80.39,539.2s16.57,9.44,40.16,2.18,26-24.89,24.18-27.55S137.78,511.28,132.41,515.5Z"/><path class="cls-52" d="M184,457.56s-9.61-7.46,2.72-13.74,28.52,0,31.06.67,19.82-.36,27.88-7.71-21,32.45-49.92,34.84S184,457.56,184,457.56Z"/><path class="cls-53" d="M221.79,367.32s19.84-6.93,22.46,10.16-8.72,47.41-8.72,47.41-1-22-10.1-23.52-21.84-16.44-7.64-30.42C224.46,369.76,221.79,367.32,221.79,367.32Z"/><path class="cls-54" d="M182.24,343.79s4.23,16.74-22.58,24.72S144,398.9,138.71,389.84s-6.45-47.17,25.36-57.67C185.48,327.17,182.24,343.79,182.24,343.79Z"/><path class="cls-55" d="M226.06,533.14s-7.74,4.53-11.89,12.33-.53,22-2.42,28.78-6.21,21.07-4.64,33.67c1.74,14,5.33,17.15,5.33,17.15s-3.61,5.67-6.56,6.17-3.39-21.9-3.54-26.39.2-16.8,1.06-18.88A68.52,68.52,0,0,0,208,559.4c-.45-13.46,6.52-20.76,8.32-22.68,1.32-1.41,8.77-9.22,8.77-9.22Z"/><path class="cls-56" d="M205.75,580.1a22.48,22.48,0,0,0-9.1-10.72c-6.76-4-13.52-13.32-13.52-13.32l-.69,4.76s17.1,12.62,19.07,19.35A36.51,36.51,0,0,1,203,589Z"/><path class="cls-57" d="M184.8,560.42s5.79,5.47,8.17-2-12.74-17.84-23.1-18-21.79.46-23.18-.6-1.77.3,1,2.41,11.68,11.57,15.1,17.44,12.2,14.7,16.82,13.28,6.46-5,5.93-8.1Z"/><path class="cls-58" d="M224.11,530.57s-1,10.5,11.63,7.71c12.3-2.73,15.65-11.67,18.17-14.68s9-8,11.73-9.72-1.39-1-1.39-1-8.38.77-13.42-.31-15.41-1.27-22.18,1.81-11.93,8.46-11,14.1S224.11,530.57,224.11,530.57Z"/><path class="cls-59" d="M434.74,224a16.11,16.11,0,0,0-4.35-9.83,61.86,61.86,0,0,1-8-10.95l-.74,2s9.93,12.55,9.83,18.16a31,31,0,0,1-.95,7.14Z"/><path class="cls-60" d="M423.56,205.27s3.08,5.19,6.65-.34-5.41-16-13.19-17.74-16.57-3-17.38-4-1.41,0,.2,2.05,6.09,10.9,7.29,16.05,5.75,13.45,9.57,13,6.05-2.91,6.39-5.46Z"/><path class="cls-61" d="M459.39,189s-.56,8.72,9.05,5.31c9.37-3.33,11.76-11,13.64-13.67a63,63,0,0,1,8.79-9c2.07-1.68-1.09-.74-1.09-.74s-6.4,1.37-10.28.92-11.82.32-16.95,3.45-9,8-8.13,12.56S459.39,189,459.39,189Z"/><path class="cls-62" d="M461.18,190.11a32.11,32.11,0,0,0-11.9,7.89c-5,5.5-5.6,17.25-8.63,22.29-2.32,3.86-8,10.36-10.42,18.26l-3.15,1.76c1.33-4.34,3.57-10.85,4.5-12.07A62.75,62.75,0,0,0,441.35,208,28,28,0,0,1,453,191.44c1.33-.91,8.8-5.92,8.8-5.92Z"/><path class="cls-63" d="M257.32,68.15a20.15,20.15,0,0,1-2-13.47c1.68-7.29,1.24-17.09,1.24-17.09l2.2,1.69s-2.3,20.12,1.65,26.08a39.07,39.07,0,0,0,5.92,7Z"/><path class="cls-64" d="M256.76,40.58s.19,7.64-7.51,4.07-5-20.81,2.32-27.87S267.68,2.53,267.84.87s1.52-1,1.19,2.34.79,15.78,3,22.11,2.91,18.3-1.57,20.4-8.61.9-10.72-1.62Z"/><path class="cls-65" d="M206.4,46.94s6.57,9-6.29,11.74c-12.52,2.68-20.37-4-24.27-5.6s-12.38-3.41-15.79-3.84.68-1.53.68-1.53,7.94-2.79,11.89-5.85,13.16-7.54,20.91-7.6,15.3,2.63,17.5,8.09S206.4,46.94,206.4,46.94Z"/><path class="cls-66" d="M205.22,49.36a42.29,42.29,0,0,1,18.41.55c9.21,2.6,17.93,14.82,24.69,18.22,5.19,2.6,15.91,5.77,23.9,12.69l4.66-.21c-4.42-3.78-11.34-9.29-13.18-10A81.59,81.59,0,0,1,239.18,55.4a36.72,36.72,0,0,0-24.09-10.07c-2.08-.09-13.68-.49-13.68-.49Z"/></g></g></svg>