<svg xmlns="http://www.w3.org/2000/svg" xmlns:xlink="http://www.w3.org/1999/xlink" viewBox="0 0 140.33 130.85"><defs><style>.cls-1{fill:url(#Безымянный_градиент_26);}.cls-10,.cls-2,.cls-8{fill:#60723f;}.cls-10,.cls-11,.cls-12,.cls-2,.cls-8,.cls-9{stroke-miterlimit:10;stroke-width:2px;}.cls-2{stroke:url(#plant);}.cls-3{fill:url(#Безымянный_градиент_26-2);}.cls-4{fill:url(#Безымянный_градиент_26-3);}.cls-5{fill:url(#Безымянный_градиент_26-4);}.cls-6{fill:url(#Безымянный_градиент_26-5);}.cls-7{fill:url(#Безымянный_градиент_26-6);}.cls-8{stroke:url(#plants2);}.cls-9{fill:url(#plants2-2);stroke:url(#plant-2);}.cls-10{stroke:url(#plants2-3);}.cls-11{fill:url(#plant-3);stroke:url(#plant-4);}.cls-12{fill:url(#plants2-4);stroke:url(#plants2-5);}</style><linearGradient id="Безымянный_градиент_26" x1="5087.18" y1="2149.3" x2="5087.18" y2="2128.12" gradientTransform="matrix(-0.71, -0.27, -0.33, 0.73, 4322.7, -159.5)" gradientUnits="userSpaceOnUse"><stop offset="0" stop-color="#95ab5c"/><stop offset="1" stop-color="#60723f"/></linearGradient><linearGradient id="plant" x1="5146.33" y1="2087.29" x2="5195.67" y2="2087.29" gradientTransform="matrix(-0.79, -0.36, -0.29, 0.77, 4724.11, 293.11)" gradientUnits="userSpaceOnUse"><stop offset="0" stop-color="#534741"/><stop offset="0.29" stop-color="#554d41"/><stop offset="0.69" stop-color="#5a5f40"/><stop offset="1" stop-color="#60723f"/></linearGradient><linearGradient id="Безымянный_градиент_26-2" x1="4953.02" y1="2130.64" x2="4987.18" y2="2171.35" xlink:href="#Безымянный_градиент_26"/><linearGradient id="Безымянный_градиент_26-3" x1="5043.16" y1="2173.93" x2="5027.93" y2="2147.55" xlink:href="#Безымянный_градиент_26"/><linearGradient id="Безымянный_градиент_26-4" x1="4945.85" y1="2079.08" x2="4996.19" y2="2079.08" xlink:href="#Безымянный_градиент_26"/><linearGradient id="Безымянный_градиент_26-5" x1="4990.9" y1="2117.76" x2="5020.72" y2="2128.62" xlink:href="#Безымянный_градиент_26"/><linearGradient id="Безымянный_градиент_26-6" x1="5059.73" y1="2091.4" x2="5029.5" y2="2108.85" xlink:href="#Безымянный_градиент_26"/><linearGradient id="plants2" x1="4975.31" y1="2115.52" x2="5025.86" y2="2115.52" gradientTransform="matrix(-0.71, -0.27, -0.33, 0.73, 4322.7, -159.5)" gradientUnits="userSpaceOnUse"><stop offset="0" stop-color="#60723f"/><stop offset="0.26" stop-color="#5b6340"/><stop offset="0.7" stop-color="#554e41"/><stop offset="1" stop-color="#534741"/></linearGradient><linearGradient id="plants2-2" x1="4978.17" y1="2163.97" x2="5052.99" y2="2163.97" xlink:href="#plants2"/><linearGradient id="plant-2" x1="4977.17" y1="2164.08" x2="5053.99" y2="2164.08" gradientTransform="matrix(-0.71, -0.27, -0.33, 0.73, 4322.7, -159.5)" xlink:href="#plant"/><linearGradient id="plants2-3" x1="4969.2" y1="2167.3" x2="4981.34" y2="2167.3" xlink:href="#plants2"/><linearGradient id="plant-3" x1="5026.24" y1="2147.57" x2="5059.12" y2="2147.57" gradientTransform="matrix(-0.73, -0.29, -0.32, 0.73, 4406.1, -65.46)" xlink:href="#plant"/><linearGradient id="plant-4" x1="5024.86" y1="2147.77" x2="5060.49" y2="2147.77" gradientTransform="matrix(-0.73, -0.29, -0.32, 0.73, 4406.1, -65.46)" xlink:href="#plant"/><linearGradient id="plants2-4" x1="5006.25" y1="2135.54" x2="5014.68" y2="2135.54" xlink:href="#plants2"/><linearGradient id="plants2-5" x1="5004.85" y1="2135.51" x2="5016.04" y2="2135.51" xlink:href="#plants2"/></defs><title>plant_wall_small_right</title><g id="Capa_2" data-name="Capa 2"><g id="Capa_1-2" data-name="Capa 1"><path class="cls-1" d="M8.27,38.23c-2.55-1.85-5-4-8.27-4.58,2.43-.65,4.68-2,7-3,8.06-3.62,28-5,28,7C35,52.75,13.13,41.75,8.27,38.23Z"/><path class="cls-2" d="M21.63,38.14l.06,1c8.52-.08,15.68,1.79,21.3,5.54s9.66,9.38,13.34,14.4l.79-.57c-3.72-5.1-7.95-10.88-13.6-14.66C37.72,40,30.36,38.06,21.63,38.14Z"/><path class="cls-3" d="M100,82.26C102.42,74.48,105.21,66,112,61c.72-.54,1.73-1,2.34-.52a37.25,37.25,0,0,0-15.22-.38,26.33,26.33,0,0,0-13.95,7.49c-5.81,6.2-8.15,17.57-2.86,23.57C88.88,98.64,97.53,89.94,100,82.26Z"/><path class="cls-4" d="M41.67,70.78l-7.31-8.47c-1.41-1.63-3.23-3.41-5.53-2.94A21.69,21.69,0,0,1,46.6,53c7.29.87,18,7.47,16.63,16.19C61.44,80.83,46,75.79,41.67,70.78Z"/><path class="cls-5" d="M109.59,28.75c2.6.62,5.45.12,8.21-.38l22.53-4.1a61.26,61.26,0,0,0-11-8.88,24.66,24.66,0,0,0-14-3.66c-3.8.24-12.39,2.36-14.09,6.71S106,27.89,109.59,28.75Z"/><path class="cls-6" d="M75.48,56.78A19.06,19.06,0,0,0,80,53.6c2-1.77,4.11-3.66,5.22-6.05.88-1.92,1.08-4,1.74-6A15,15,0,0,1,94.66,33c-7.2-1.84-15.83.6-21.73,6.14a13,13,0,0,0-3.2,4.23,15.36,15.36,0,0,0-.94,4C68.14,52,68.61,59.92,75.48,56.78Z"/><path class="cls-7" d="M64.13,30.09c1.82-4.1,1.8-8.52,2.15-12.81A73.09,73.09,0,0,1,68.11,6C68.64,3.87,69.34,1.6,71,0,62.82.12,53.83,5,50.47,12.73a33.51,33.51,0,0,0-2,7.94c-.9,5.48-.76,11.66,3.76,15.13C56.53,39.1,62,35,64.13,30.09Z"/><path class="cls-8" d="M76.44,28.31a35.88,35.88,0,0,0-9.33,13.16A35.49,35.49,0,0,0,65.5,63.15l.91-.32A34.55,34.55,0,0,1,68,41.72,34.18,34.18,0,0,1,82.62,25c10.2-5.68,22.14-4.94,33.51-3.3l.24-.91c-11.54-1.67-23.66-2.41-34.13,3.42A33.13,33.13,0,0,0,76.44,28.31Z"/><path class="cls-9" d="M60.25,5.3c-5.35,10.1-7.74,19.86-7.1,29,.54,7.74,2.1,10.67,8.69,23l2,3.67c3.52,6.63,7.47,14.37,9.81,22.32,2.57,8.74,2.89,16.61,1,24.06a26.75,26.75,0,0,1-8,13.46l-.08.07c-5.34,4.69-11.62,6-16.21,7a45.88,45.88,0,0,1-11.47,1l-.15.92a46.89,46.89,0,0,0,11.71-1c4.44-.94,11.14-2.36,16.69-7.23a27.77,27.77,0,0,0,8.39-14.07c2-7.61,1.65-15.64-1-24.53-2.37-8-6.34-15.8-9.87-22.47l-2-3.67c-6.52-12.24-8.07-15.15-8.6-22.71-.63-9,1.72-18.56,7-28.5Z"/><path class="cls-10" d="M98.21,67.47a37.39,37.39,0,0,0-8.62,11.94A108.6,108.6,0,0,0,85,91.2c-.45,1.32-.92,2.67-1.4,4A18.55,18.55,0,0,1,81,100.48a6.71,6.71,0,0,1-4.7,2.83l-.07.92A7.82,7.82,0,0,0,81.74,101a19.63,19.63,0,0,0,2.75-5.56c.48-1.34,1-2.7,1.4-4a109.14,109.14,0,0,1,4.54-11.68c2.79-5.81,6.27-10.25,10.34-13.19l-.49-.72A24.66,24.66,0,0,0,98.21,67.47Z"/><path class="cls-11" d="M51.09,62.54l.53.73A2.29,2.29,0,0,1,53.2,63a18.17,18.17,0,0,1,11,5.28,52.61,52.61,0,0,1,7.55,9.84l.81-.55a53.64,53.64,0,0,0-7.68-10,19.17,19.17,0,0,0-11.48-5.51A3.25,3.25,0,0,0,51.09,62.54Z"/><path class="cls-12" d="M79.11,43.43c-2.59,2.29-4.41,5.51-6,8.73-.13.26-.26.53-.38.79-1.82,3.72-3.7,7.56-6.94,10.1l.52.69c3.45-2.69,5.38-6.65,7.25-10.47.13-.27.26-.53.38-.79,2-4,4.35-8.07,8.15-10.09l-.36-.8A13.12,13.12,0,0,0,79.11,43.43Z"/></g></g></svg>