<svg xmlns="http://www.w3.org/2000/svg" xmlns:xlink="http://www.w3.org/1999/xlink" viewBox="0 0 19.08 17.92"><defs><style>.cls-1{fill:url(#Безымянный_градиент_2);}.cls-10,.cls-2,.cls-8{fill:#5f723f;}.cls-10,.cls-11,.cls-12,.cls-2,.cls-8,.cls-9{stroke-miterlimit:10;stroke-width:0.5px;}.cls-2{stroke:url(#plant_2);}.cls-3{fill:url(#Безымянный_градиент_2-2);}.cls-4{fill:url(#Безымянный_градиент_2-3);}.cls-5{fill:url(#Безымянный_градиент_2-4);}.cls-6{fill:url(#Безымянный_градиент_2-5);}.cls-7{fill:url(#Безымянный_градиент_2-6);}.cls-8{stroke:url(#plants2_2);}.cls-9{fill:url(#plants2_2-2);stroke:url(#plant_2-2);}.cls-10{stroke:url(#plants2_2-3);}.cls-11{fill:url(#plant_2-3);stroke:url(#plant_2-4);}.cls-12{fill:url(#plants2_2-4);stroke:url(#plants2_2-5);}</style><linearGradient id="Безымянный_градиент_2" x1="1290.15" y1="-6093.13" x2="1290.15" y2="-6095.63" gradientTransform="matrix(0.03, -0.98, 0.9, 0.12, 5424.84, 2007.81)" gradientUnits="userSpaceOnUse"><stop offset="0" stop-color="#97ad5c"/><stop offset="1" stop-color="#5f723f"/></linearGradient><linearGradient id="plant_2" x1="1274.85" y1="-6089.68" x2="1281.03" y2="-6089.68" gradientTransform="matrix(-0.02, -1.13, 0.92, 0.2, 5672.83, 2648.71)" gradientUnits="userSpaceOnUse"><stop offset="0" stop-color="#534741"/><stop offset="0.29" stop-color="#554d41"/><stop offset="0.69" stop-color="#5a5f40"/><stop offset="1" stop-color="#5f723f"/></linearGradient><linearGradient id="Безымянный_градиент_2-2" x1="1274.29" y1="-6095.33" x2="1278.33" y2="-6090.52" xlink:href="#Безымянный_градиент_2"/><linearGradient id="Безымянный_градиент_2-3" x1="1284.95" y1="-6090.22" x2="1283.15" y2="-6093.34" xlink:href="#Безымянный_градиент_2"/><linearGradient id="Безымянный_градиент_2-4" x1="1273.45" y1="-6101.43" x2="1279.4" y2="-6101.43" xlink:href="#Безымянный_градиент_2"/><linearGradient id="Безымянный_градиент_2-5" x1="1278.77" y1="-6096.86" x2="1282.3" y2="-6095.57" xlink:href="#Безымянный_градиент_2"/><linearGradient id="Безымянный_градиент_2-6" x1="1286.91" y1="-6099.97" x2="1283.33" y2="-6097.91" xlink:href="#Безымянный_градиент_2"/><linearGradient id="plants2_2" x1="1276.78" y1="-6097.11" x2="1283.03" y2="-6097.11" gradientTransform="matrix(0.03, -0.98, 0.9, 0.12, 5424.84, 2007.81)" gradientUnits="userSpaceOnUse"><stop offset="0" stop-color="#5f723f"/><stop offset="0.26" stop-color="#5b6340"/><stop offset="0.7" stop-color="#554e41"/><stop offset="1" stop-color="#534741"/></linearGradient><linearGradient id="plants2_2-2" x1="1277.27" y1="-6091.4" x2="1286.11" y2="-6091.4" xlink:href="#plants2_2"/><linearGradient id="plant_2-2" x1="1277.02" y1="-6091.37" x2="1286.36" y2="-6091.37" gradientTransform="matrix(0.03, -0.98, 0.9, 0.12, 5424.84, 2007.81)" xlink:href="#plant_2"/><linearGradient id="plants2_2-3" x1="1276.02" y1="-6091" x2="1277.81" y2="-6091" xlink:href="#plants2_2"/><linearGradient id="plant_2-3" x1="1275.51" y1="-6089.72" x2="1279.4" y2="-6089.72" gradientTransform="matrix(0.02, -1.01, 0.9, 0.14, 5476.22, 2140.59)" xlink:href="#plant_2"/><linearGradient id="plant_2-4" x1="1275.16" y1="-6089.67" x2="1279.74" y2="-6089.67" gradientTransform="matrix(0.02, -1.01, 0.9, 0.14, 5476.22, 2140.59)" xlink:href="#plant_2"/><linearGradient id="plants2_2-4" x1="1280.59" y1="-6094.76" x2="1281.58" y2="-6094.76" xlink:href="#plants2_2"/><linearGradient id="plants2_2-5" x1="1280.24" y1="-6094.76" x2="1281.92" y2="-6094.76" xlink:href="#plants2_2"/></defs><title>plant_title_letter_U</title><g id="Capa_2" data-name="Capa 2"><g id="Capa_3" data-name="Capa 3"><path class="cls-1" d="M9.12,1.47A3.54,3.54,0,0,1,9,0a6,6,0,0,1-.74.69C7.39,1.47,6.18,4,7.66,5,9.51,6.18,9.3,2.39,9.12,1.47Z"/><path class="cls-2" d="M8.41,3.24l.12.08A6.13,6.13,0,0,0,8.11,6.6,11.28,11.28,0,0,0,9.18,9.53l-.11.06A11.47,11.47,0,0,1,8,6.6,6.22,6.22,0,0,1,8.41,3.24Z"/><path class="cls-3" d="M9.76,17.18a4.66,4.66,0,0,0-3.24-.11c-.1.06-.21.15-.18.27a5.37,5.37,0,0,1,.74-2.05A2.89,2.89,0,0,1,8.72,14a2.73,2.73,0,0,1,3,1.5C12.34,17,10.82,17.47,9.76,17.18Z"/><path class="cls-4" d="M11.37,8.51l-.65-1.65a1.12,1.12,0,0,1-.08-1,2.55,2.55,0,0,0-1.7,1.85c-.28,1,0,3,1.12,3.51C11.58,11.94,11.76,9.49,11.37,8.51Z"/><path class="cls-5" d="M2.7,14.19a2.83,2.83,0,0,1-.48,1.06L.55,17.92A12.8,12.8,0,0,1,0,15.74a4.11,4.11,0,0,1,.28-2.15c.23-.49.93-1.46,1.56-1.34S2.77,13.64,2.7,14.19Z"/><path class="cls-6" d="M7.9,11.89a2.08,2.08,0,0,1-.62.34,2.09,2.09,0,0,1-1,.21,7.76,7.76,0,0,1-.82-.25A1.6,1.6,0,0,0,4,12.54a2.94,2.94,0,0,1,1.88-2.4,1.35,1.35,0,0,1,.69-.09,2,2,0,0,1,.54.2C7.7,10.53,8.64,11.23,7.9,11.89Z"/><path class="cls-7" d="M5.22,8.25a5.23,5.23,0,0,1-1.68-.74,10.28,10.28,0,0,0-1.48-.66,1.38,1.38,0,0,0-.89-.09A2.59,2.59,0,0,1,3.8,5a4.32,4.32,0,0,1,1.08.37A2.6,2.6,0,0,1,6.54,7.12C6.72,8,5.93,8.35,5.22,8.25Z"/><path class="cls-8" d="M4.36,9.74a3.92,3.92,0,0,1,2.1-.19A5.24,5.24,0,0,1,9.2,11.07l-.08.1A5,5,0,0,0,6.45,9.69a3.69,3.69,0,0,0-2.82.61c-1.22.9-1.75,2.55-2.14,4.19l-.13,0c.4-1.67.94-3.34,2.19-4.27A3.53,3.53,0,0,1,4.36,9.74Z"/><path class="cls-9" d="M2.38,5.75A7.18,7.18,0,0,1,6.31,7.12c.92.69,1.2,1.14,2.37,3,.11.17.22.36.35.55a22.47,22.47,0,0,0,2.23,3.09,6.83,6.83,0,0,0,2.9,2.05,3,3,0,0,0,2.06,0h0a3.74,3.74,0,0,0,1.7-1.6,6.06,6.06,0,0,0,.72-1.44l.12.05A6.37,6.37,0,0,1,18,14.31,4,4,0,0,1,16.28,16a3.14,3.14,0,0,1-2.16,0,7,7,0,0,1-2.95-2.09,23.61,23.61,0,0,1-2.25-3.1l-.34-.56c-1.17-1.84-1.44-2.28-2.34-3A7,7,0,0,0,2.38,5.89Z"/><path class="cls-10" d="M8,15.77a4.06,4.06,0,0,1,1.92-.2,13.89,13.89,0,0,1,1.68.34l.56.13a2.36,2.36,0,0,0,.78.08.73.73,0,0,0,.59-.4l.12.06a.85.85,0,0,1-.68.47,2.16,2.16,0,0,1-.83-.08L11.61,16a13.69,13.69,0,0,0-1.67-.33A3.7,3.7,0,0,0,7.78,16l-.06-.12Z"/><path class="cls-11" d="M9.87,9.1l.07.13a.31.31,0,0,0-.12.19A3.27,3.27,0,0,0,9.9,11.3a9.66,9.66,0,0,0,.82,1.79l-.11.06a10,10,0,0,1-.83-1.82,3.36,3.36,0,0,1-.08-2A.42.42,0,0,1,9.87,9.1Z"/><path class="cls-12" d="M6.08,11.3a3.16,3.16,0,0,1,1.38-.1l.12,0a3,3,0,0,0,1.59-.12l.06.13a3.1,3.1,0,0,1-1.66.12H7.46a2.27,2.27,0,0,0-1.66.28l-.08-.11A1.31,1.31,0,0,1,6.08,11.3Z"/></g></g></svg>