<svg xmlns="http://www.w3.org/2000/svg" width="933.333" height="933.333" version="1" viewBox="0 0 700 700"><path d="M325.3 22c-2.6 1.1-25.8 22.7-46.3 43.4L263.5 81h-5.3c-5.5 0-11.3 1.9-14.6 4.8-2.6 2.3-6.6 11.1-6.6 14.6 0 8.6 6.9 18.3 14.7 20.6 8.5 2.6 18.5-1.4 23.7-9.3 2.1-3.4 2.6-5.3 2.6-10.5v-6.5l27.7-27.3L333.5 40h32l55.3 55.3 55.2 55.2v33l-54.8 54.8-54.7 54.7h-33l-55.2-55.2-55.3-55.3V150.8l9.3-9.9c11.1-12 11.9-13.6 8.6-17.6-4.2-5.1-7.8-7.5-10.2-6.9-2.8.7-22.5 20.3-24.9 24.8-1.6 2.8-1.8 6.2-1.8 25.1 0 16.7.3 22.6 1.4 25.2 1.5 3.4 30.5 33.3 84.7 87.2 29.9 29.6 33.7 33 38.3 33.8 1.7.4 12.7.5 24.3.3l21-.3 10.9-10c5.9-5.5 32.8-31.8 59.6-58.5 33.9-33.7 49.2-49.6 50.3-52.2 2.2-5.3 2.2-44.2 0-49.4C491.8 136 381 25.1 374.6 22.5c-2.8-1.2-8.2-1.5-25.3-1.4-12 0-22.8.4-24 .9zm-62.8 76.4c1.9 2.8.9 5.8-2.6 7.6-4.5 2.5-9.4-5.1-5.7-8.8 2.1-2.1 6.6-1.4 8.3 1.2z"/><path d="M369.5 95.4c-7.6 3.5-11.9 10.3-12 19.2 0 7 2.8 12.2 9.1 17 3.1 2.4 4.9 2.9 10.8 3.2l7.1.4 10.8 10.6c10.5 10.4 10.7 10.8 10.7 15.2 0 7 1.8 11.8 6.2 16.6 4.7 5.1 9.1 6.8 16.4 6.2 10.6-.9 18.4-9.5 18.4-20.4 0-6.6-1.3-10-5.3-14.3-4.2-4.4-8.4-6.1-15.4-6.1h-5.8l-11.3-11.3-11.2-11.2v-5.9c0-7.7-2.8-13.5-8.2-17.2-3.3-2.3-5.3-2.9-10.7-3.1-4.1-.2-7.7.2-9.6 1.1zm12.3 14.8c1.8 1.8 1.4 6.3-.7 8.2-2.7 2.5-6.3 1.7-7.9-1.7-1.2-2.4-1.1-3.1.2-5.3 1.8-2.6 6.3-3.3 8.4-1.2zm49 49c1.7 1.7 1.5 7.3-.2 8.7-2.4 2-6.9.9-8.5-2-1.3-2.4-1.3-2.9.2-5.3 1.9-2.8 6.3-3.6 8.5-1.4zM153.9 202.9l-10.5.6-5 4.2C132.9 212.4 32 313.4 26.9 319.4l-3.4 3.9-.3 24.8-.3 24.8 8.9 9.8c12.5 13.7 101.6 102.8 107.5 107.5l4.9 3.8h23.3c14.2 0 24.5-.4 26.2-1.1 3.7-1.4 117.9-115.6 119.3-119.2.6-1.7 1-12.2 1-25.5 0-19.7-.2-23.2-1.7-26-2.4-4.3-23.3-25.2-25.3-25.2-2.2 0-12 10.2-12 12.4 0 1.1 4.5 6.5 10 12.1l10 10.1v32.9l-55.3 55.3-55.2 55.2h-32l-55.2-55.2L42 364.5v-32.1l55.3-55.2 55.2-55.2h33.6l26.7 27.1 26.7 27.1.7 7c.8 8.8 3.9 13.8 10.8 17.3 11.6 5.9 25.1.7 29-11.1.7-2 1-6.1.8-9-.9-10.6-9.5-18.3-20.8-18.4l-5.5-.1L226 234c-15.7-15.4-29.8-28.6-31.5-29.4-3.6-1.6-25-2.5-40.6-1.7zm111.9 77.9c1.3 2 1.1 2.4-1.7 5.3-2.9 2.8-3.3 3-5.3 1.7-1.2-.8-2.8-2.4-3.6-3.6-1.3-2-1.1-2.4 1.7-5.3 2.9-2.8 3.3-3 5.3-1.7 1.2.8 2.8 2.4 3.6 3.6zM501.3 207.9c-6.1 5.1-105.7 104.8-111.4 111.4-3.1 3.7-3.3 4.3-4.1 15.5-.5 6.6-.4 17.7 0 25.4l.9 13.8 8.6 9.2c9.8 10.7 101.2 101.9 107.1 107l3.9 3.3 24.5.3 24.4.3 3.7-2.5c3.4-2.4 102.4-101.2 112.7-112.5l4.9-5.3.3-24.7.3-24.7-3.1-4c-1.7-2.1-15-16.1-29.4-30.9l-26.3-27.1-.5-6.6c-.5-8.5-3.8-13.6-11.1-17.3-14.7-7.3-29.7 2.1-29.7 18.5 0 5.3 2.3 11.2 5.7 14.2 3.4 3.1 10.7 5.8 15.8 5.8h5l27.3 27.3 27.2 27.2v33l-55.3 55.3-55.2 55.2h-32l-55.2-55.2-55.3-55.3v-33.1l54.8-54.7 54.7-54.7h33.9l10.1 10c5.6 5.5 10.9 10 11.7 10 2 0 9.3-5.8 10.8-8.7.7-1.2 1-3.3.6-4.8-.7-2.8-15.2-17.8-21.9-22.6l-4-2.9h-48.6l-5.8 4.9zm101.5 46.9c1.3 2 1.1 2.4-1.7 5.3-2.9 2.8-3.3 3-5.3 1.7-1.2-.8-2.8-2.4-3.6-3.6-1.3-2-1.1-2.4 1.7-5.3 2.9-2.8 3.3-3 5.3-1.7 1.2.8 2.8 2.4 3.6 3.6z"/><path d="M458.5 306.4c-4.6 2-9.6 6.6-11.1 10.3-.8 1.8-1.4 5.5-1.4 8.4 0 4.9-.2 5.4-6.6 12.3-8.2 8.8-9.7 11-9 13.3.3 1 3.7 5.1 7.5 9 6.7 7.1 6.9 7.4 7.6 14 .9 8.2 1.9 11 5.3 14.7 5.7 6.1 15.4 8.2 23 5.1 7.8-3.3 12.2-10.1 12.2-18.9 0-6.8-1.2-10.2-5.3-14.5-4.3-4.4-8.4-6.1-15.5-6.1-4.8 0-6.2-.4-8-2.3-2.2-2.3-2.2-2.4-.4-4 1.3-1.2 3.7-1.7 8.1-1.7 7.3 0 12.3-2.2 16.8-7.4 5.1-5.7 6.3-15.7 2.7-22.6-4.4-8.8-17.1-13.5-25.9-9.6zm10.9 14.9c2.1 1.6 2.4 6 .6 8.2-2 2.4-6.7 1.9-8.5-.9-3.5-5.3 2.8-11.1 7.9-7.3zm1 49.9c2.1 3 2 4.4-.4 6.8-2.6 2.6-5.5 2.5-8.1-.1-2-2-1.9-4.8.3-7.7 1.7-2 6.5-1.4 8.2 1zM323.5 386.2C320 388 298 410.4 298 412c0 2.1 10.1 12 12.2 12 1.5 0 18.3-14.3 21.7-18.3 1.2-1.5 3.6-1.7 17.5-1.7h16.1l55.3 55.3 55.2 55.2v32l-55.3 55.3-55.2 55.2h-16l-16-.1-55.3-54.7-55.3-54.7.1-16.5v-16.6l27.5-27.4 27.5-27.5 6.5-.6c8-.7 13.7-4.3 17.2-10.8 3.8-7.2 2.7-17.7-2.5-23.4-3-3.3-10.8-6.7-15.6-6.7-5.7 0-8.5 1.1-13 5.1-5.1 4.4-7.6 9.7-7.6 15.9v5.2l-27.5 28.1c-15.2 15.5-28.4 29.5-29.5 31.2-1.8 2.8-2 4.8-2 27.3V555l7.9 8.8c14.7 16.2 109.6 110.1 112.4 111.1 1.7.7 12.1 1.1 26.3 1.1H374l6.3-5.6C390.7 661 487 564.8 491.2 559.6l3.9-4.9-.3-24.7-.3-24.7-6.6-7.4c-10-11.1-103.7-104.7-109.2-109.1l-4.9-3.8h-24.1c-15.5 0-24.9.5-26.2 1.2zm-34.7 50.6c1.3 2 1.1 2.4-1.7 5.3-2.9 2.8-3.3 3-5.3 1.7-1.2-.8-2.8-2.4-3.6-3.6-1.3-2-1.1-2.4 1.7-5.3 2.9-2.8 3.3-3 5.3-1.7 1.2.8 2.8 2.4 3.6 3.6zM134.5 395.6c-7.9 4.1-11.5 10.1-11.5 19.1 0 11.3 8.1 19.2 20.3 20.1 5.9.5 6.5.7 12.7 6.5 11.9 10.9 12 10.9 23.2.7 7-6.4 8-7 12-7 5.8-.1 11.5-2.8 16-7.8 4.4-4.9 5.2-7.3 4.6-15.1-.8-10.9-7.5-17.3-18.8-17.9-7.8-.5-10.7.7-16.3 6.5-4.4 4.4-6.1 9.9-5.4 16.4.5 3.8.2 5-1.4 6.5-1.8 1.6-2 1.6-3.8 0-1.4-1.3-2.1-3.7-2.6-8.4-.8-8.2-1.9-11.4-5.3-14.8-6.2-6.1-17-8.3-23.7-4.8zm12.1 14.9c2.4 2.4 2.6 5.6.5 7.6-2 2.1-5.2 1.9-7.6-.5-3.1-3.1-3.1-4.1 0-7.1 3-3.1 4-3.1 7.1 0zm49.2-.3c2 2 1.4 6.5-1 8.2-3 2.1-4.4 2-6.9-.5-2-2-1.9-4.8.3-7.7 1.3-1.5 6-1.6 7.6 0z"/><path d="M289 539.1c-6.7 2.7-13 12-13 19.3 0 5.8 1.4 9.3 5.3 13.5 4.6 4.8 10.1 7.1 17.2 7.1h6.1l10.2 10.9c9.7 10.4 10.2 11.2 10.2 15.3 0 17 15.8 27.8 30 20.5 6.5-3.3 10.2-8.5 10.8-15.1.7-8.1-.5-12.2-4.6-16.8-4.6-5.1-8.5-6.8-15.9-6.8h-5.8l-11.3-11.3-11.2-11.2V559c-.1-12.6-8.5-21.1-20.7-20.9-2.6 0-5.9.5-7.3 1zm11.8 15.1c1.7 1.7 1.5 7.3-.2 8.7-2.4 2-6.9.9-8.5-2-1.3-2.4-1.3-2.9.2-5.3 1.9-2.8 6.3-3.6 8.5-1.4zm49.2 49.3c1.6 2 1.6 6.1 0 8-2.1 2.5-7.2 1.5-8.9-1.6-1.3-2.4-1.3-2.9.2-5.3 2-3 6.7-3.6 8.7-1.1z"/></svg>