<svg width="1040" height="1040" viewBox="0 0 1040 1040" fill="none" xmlns="http://www.w3.org/2000/svg">
<path fill-rule="evenodd" clip-rule="evenodd" d="M1031.5 0L1040 5.5V1031.5L1033 1040H12.5L0 1034.5V8.5L5.5 0H1031.5Z" fill="#EAE2D6"/>
<path d="M1037 9L1034 17L1026 15.5L1023.5 8.5L1029 3.5L1037 9Z" fill="#1E53A2"/>
<path d="M9 3L17 6L15.5 14L6 14L4.5 8.5L9 3Z" fill="#1E53A2"/>
<path d="M5 1031.5L6.5 1022.5L13 1025.5L16.5 1031.5L11 1034L5 1031.5Z" fill="#1E53A2"/>
<path d="M1035.5 1031L1029.5 1037.5L1025 1032.5L1026 1025.5H1033L1035.5 1031Z" fill="#1E53A2"/>
<path d="M15 1000V1020H5V1000H15Z" fill="#1E53A2"/>
<path d="M5 995H15L13 975H3L5 995Z" fill="#1E53A2"/>
<path d="M6.5 970.5L16.5 971.5V953L10 952L6.5 970.5Z" fill="#1E53A2"/>
<path d="M15 941.5V947.5L5 948.5V941.5H15Z" fill="#1E53A2"/>
<path d="M13 937.5L3 936L6.5 911.5L16.5 913L13 937.5Z" fill="#1E53A2"/>
<path d="M14 877.5L15 905.5H7.5L5 877.5H14Z" fill="#1E53A2"/>
<path d="M15 834L16.5 870H9.5L3.5 851L5 834H15Z" fill="#1E53A2"/>
<path d="M15 822.5L11.5 829.5L3.5 822.5L10.5 816.5L15 822.5Z" fill="#1E53A2"/>
<path d="M2 811.5H15V788.5L3.5 786L2 811.5Z" fill="#1E53A2"/>
<path d="M6.5 778H15L11.5 752.5L4.5 749.5L6.5 778Z" fill="#1E53A2"/>
<path d="M9.5 746.5L15 746L13 723.5L5.5 724.5L9.5 746.5Z" fill="#1E53A2"/>
<path d="M4 718.5H17L11.5 695H6.5L4 718.5Z" fill="#1E53A2"/>
<path d="M17 663.5L15.5 689H3L8 663.5H17Z" fill="#1E53A2"/>
<path d="M16.5 652V656.5L4 658L2.5 652H16.5Z" fill="#1E53A2"/>
<path d="M8 649.5L16.5 647.5L10.5 628L2.5 630L8 649.5Z" fill="#1E53A2"/>
<path d="M5.5 622.5L15.5 625.5L16.5 602.5L9 600.5L5.5 622.5Z" fill="#1E53A2"/>
<path d="M5.5 594.5L15 595.5L16.5 568H9L5.5 594.5Z" fill="#1E53A2"/>
<path d="M6.5 564.5L14 562.5L13.5 544.5L4.5 547.5L6.5 564.5Z" fill="#1E53A2"/>
<path d="M15 533V539.5H6L4.5 532L15 533Z" fill="#1E53A2"/>
<path d="M15 506V525H6.5L6 506H15Z" fill="#1E53A2"/>
<path d="M6.5 499.5L13.5 498L12 485H4.5L6.5 499.5Z" fill="#1E53A2"/>
<path d="M4.5 479L15 480.5L18.5 450L10 447.5L4.5 479Z" fill="#1E53A2"/>
<path d="M4 444.5L15.5 443.5L12 414.5H2.5L4 444.5Z" fill="#1E53A2"/>
<path d="M15.5 384.5V411.5L7.5 409L4.5 385L15.5 384.5Z" fill="#1E53A2"/>
<path d="M5.5 374L15.5 376V348.5L10.5 347L5.5 374Z" fill="#1E53A2"/>
<path d="M15.4817 342.002L15.5 342C15.5 342.029 15.4937 342.029 15.4817 342.002L3.5 343L2.5 314H16.5L12 327C12 327 15.2097 341.385 15.4817 342.002Z" fill="#1E53A2"/>
<path d="M16.5 279.5L15.5 305.5L6.5 304.5L9.5 296L7.5 279.5H16.5Z" fill="#1E53A2"/>
<path d="M6.5 275H15L13 251L5 252.5L6.5 275Z" fill="#1E53A2"/>
<path d="M5 242.5H15L16.5 232.5L6.5 233.5L5 242.5Z" fill="#1E53A2"/>
<path d="M5 230.5L15 228V219.5L10 214L1.5 217L5 230.5Z" fill="#1E53A2"/>
<path d="M5 210.5H15L16.5 189.5L6.5 186.5L5 210.5Z" fill="#1E53A2"/>
<path d="M6.5 179.5H16L13 149.5H3.5L6.5 179.5Z" fill="#1E53A2"/>
<path d="M5.5 141L16 143.5V122.5L13 112L5.5 141Z" fill="#1E53A2"/>
<path d="M16 94L5.5 121V104.5L10 91L16 94Z" fill="#1E53A2"/>
<path d="M14 59.5L16 87H5.5L3.5 60L14 59.5Z" fill="#1E53A2"/>
<path d="M15 20L14 53L3.5 54L5 20H15Z" fill="#1E53A2"/>
<path d="M1026 40V20H1036V40H1026Z" fill="#1E53A2"/>
<path d="M1036 45H1026L1028 65H1038L1036 45Z" fill="#1E53A2"/>
<path d="M1034.5 69.5L1024.5 68.5V87L1031 88L1034.5 69.5Z" fill="#1E53A2"/>
<path d="M1026 98.5V92.5L1036 91.5V98.5H1026Z" fill="#1E53A2"/>
<path d="M1028 102.5L1038 104L1034.5 128.5L1024.5 127L1028 102.5Z" fill="#1E53A2"/>
<path d="M1027 162.5L1026 134.5H1033.5L1036 162.5H1027Z" fill="#1E53A2"/>
<path d="M1026 206L1024.5 170H1031.5L1037.5 189L1036 206H1026Z" fill="#1E53A2"/>
<path d="M1026 217.5L1029.5 210.5L1037.5 217.5L1030.5 223.5L1026 217.5Z" fill="#1E53A2"/>
<path d="M1039 228.5H1026V251.5L1037.5 254L1039 228.5Z" fill="#1E53A2"/>
<path d="M1034.5 262H1026L1029.5 287.5L1036.5 290.5L1034.5 262Z" fill="#1E53A2"/>
<path d="M1031.5 293.5L1026 294L1028 316.5L1035.5 315.5L1031.5 293.5Z" fill="#1E53A2"/>
<path d="M1037 321.5H1024L1029.5 345H1034.5L1037 321.5Z" fill="#1E53A2"/>
<path d="M1024 376.5L1025.5 351H1038L1033 376.5H1024Z" fill="#1E53A2"/>
<path d="M1024.5 388V383.5L1037 382L1038.5 388H1024.5Z" fill="#1E53A2"/>
<path d="M1033 390.5L1024.5 392.5L1030.5 412L1038.5 410L1033 390.5Z" fill="#1E53A2"/>
<path d="M1035.5 417.5L1025.5 414.5L1024.5 437.5L1032 439.5L1035.5 417.5Z" fill="#1E53A2"/>
<path d="M1035.5 445.5L1026 444.5L1024.5 472H1032L1035.5 445.5Z" fill="#1E53A2"/>
<path d="M1034.5 475.5L1027 477.5L1027.5 495.5L1036.5 492.5L1034.5 475.5Z" fill="#1E53A2"/>
<path d="M1026 507V500.5H1035L1036.5 508L1026 507Z" fill="#1E53A2"/>
<path d="M1026 534V515H1034.5L1035 534H1026Z" fill="#1E53A2"/>
<path d="M1034.5 540.5L1027.5 542L1029 555H1036.5L1034.5 540.5Z" fill="#1E53A2"/>
<path d="M1036.5 561L1026 559.5L1022.5 590L1031 592.5L1036.5 561Z" fill="#1E53A2"/>
<path d="M1037 595.5L1025.5 596.5L1029 625.5H1038.5L1037 595.5Z" fill="#1E53A2"/>
<path d="M1025.5 655.5V628.5L1033.5 631L1036.5 655L1025.5 655.5Z" fill="#1E53A2"/>
<path d="M1035.5 666L1025.5 664V691.5L1030.5 693L1035.5 666Z" fill="#1E53A2"/>
<path d="M1025.52 697.998L1025.5 698C1025.5 697.971 1025.51 697.971 1025.52 697.998L1037.5 697L1038.5 726H1024.5L1029 713C1029 713 1025.79 698.615 1025.52 697.998Z" fill="#1E53A2"/>
<path d="M1024.5 760.5L1025.5 734.5L1034.5 735.5L1031.5 744L1033.5 760.5H1024.5Z" fill="#1E53A2"/>
<path d="M1034.5 765H1026L1028 789L1036 787.5L1034.5 765Z" fill="#1E53A2"/>
<path d="M1036 797.5H1026L1024.5 807.5L1034.5 806.5L1036 797.5Z" fill="#1E53A2"/>
<path d="M1036 809.5L1026 812V820.5L1031 826L1039.5 823L1036 809.5Z" fill="#1E53A2"/>
<path d="M1036 829.5H1026L1024.5 850.5L1034.5 853.5L1036 829.5Z" fill="#1E53A2"/>
<path d="M1034.5 860.5H1025L1028 890.5H1037.5L1034.5 860.5Z" fill="#1E53A2"/>
<path d="M1035.5 899L1025 896.5V917.5L1028 928L1035.5 899Z" fill="#1E53A2"/>
<path d="M1025 946L1035.5 919V935.5L1031 949L1025 946Z" fill="#1E53A2"/>
<path d="M1027 980.5L1025 953H1035.5L1037.5 980L1027 980.5Z" fill="#1E53A2"/>
<path d="M1026 1020L1027 987L1037.5 986L1036 1020H1026Z" fill="#1E53A2"/>
<path d="M1000 15L1020 15V5L1000 5V15Z" fill="#1E53A2"/>
<path d="M995 5V15L975 13V3L995 5Z" fill="#1E53A2"/>
<path d="M970.5 6.5L971.5 16.5L953 16.5L952 10L970.5 6.5Z" fill="#1E53A2"/>
<path d="M941.5 15H947.5L948.5 5L941.5 5V15Z" fill="#1E53A2"/>
<path d="M937.5 13L936 3L911.5 6.5L913 16.5L937.5 13Z" fill="#1E53A2"/>
<path d="M877.5 14L905.5 15V7.5L877.5 5V14Z" fill="#1E53A2"/>
<path d="M834 15L870 16.5V9.5L851 3.5L834 5V15Z" fill="#1E53A2"/>
<path d="M822.5 15L829.5 11.5L822.5 3.5L816.5 10.5L822.5 15Z" fill="#1E53A2"/>
<path d="M811.5 2V15L788.5 15L786 3.5L811.5 2Z" fill="#1E53A2"/>
<path d="M778 6.5V15L752.5 11.5L749.5 4.5L778 6.5Z" fill="#1E53A2"/>
<path d="M746.5 9.5L746 15L723.5 13L724.5 5.5L746.5 9.5Z" fill="#1E53A2"/>
<path d="M718.5 4V17L695 11.5V6.5L718.5 4Z" fill="#1E53A2"/>
<path d="M663.5 17L689 15.5V3L663.5 8V17Z" fill="#1E53A2"/>
<path d="M652 16.5H656.5L658 4L652 2.5V16.5Z" fill="#1E53A2"/>
<path d="M649.5 8L647.5 16.5L628 10.5L630 2.5L649.5 8Z" fill="#1E53A2"/>
<path d="M622.5 5.5L625.5 15.5L602.5 16.5L600.5 9L622.5 5.5Z" fill="#1E53A2"/>
<path d="M594.5 5.5L595.5 15L568 16.5V9L594.5 5.5Z" fill="#1E53A2"/>
<path d="M564.5 6.5L562.5 14L544.5 13.5L547.5 4.5L564.5 6.5Z" fill="#1E53A2"/>
<path d="M533 15H539.5V6L532 4.5L533 15Z" fill="#1E53A2"/>
<path d="M506 15L525 15V6.5L506 6V15Z" fill="#1E53A2"/>
<path d="M499.5 6.5L498 13.5L485 12V4.5L499.5 6.5Z" fill="#1E53A2"/>
<path d="M479 4.5L480.5 15L450 18.5L447.5 10L479 4.5Z" fill="#1E53A2"/>
<path d="M444.5 4L443.5 15.5L414.5 12V2.5L444.5 4Z" fill="#1E53A2"/>
<path d="M384.5 15.5L411.5 15.5L409 7.5L385 4.5L384.5 15.5Z" fill="#1E53A2"/>
<path d="M374 5.5L376 15.5L348.5 15.5L347 10.5L374 5.5Z" fill="#1E53A2"/>
<path d="M342.002 15.4817L342 15.5C342.029 15.5 342.029 15.4937 342.002 15.4817L343 3.5L314 2.5V16.5L327 12C327 12 341.385 15.2097 342.002 15.4817Z" fill="#1E53A2"/>
<path d="M279.5 16.5L305.5 15.5L304.5 6.5L296 9.5L279.5 7.5V16.5Z" fill="#1E53A2"/>
<path d="M275 6.5V15L251 13L252.5 5L275 6.5Z" fill="#1E53A2"/>
<path d="M242.5 5V15L232.5 16.5L233.5 6.5L242.5 5Z" fill="#1E53A2"/>
<path d="M230.5 5L228 15L219.5 15L214 10L217 1.5L230.5 5Z" fill="#1E53A2"/>
<path d="M210.5 5V15L189.5 16.5L186.5 6.5L210.5 5Z" fill="#1E53A2"/>
<path d="M179.5 6.5V16L149.5 13V3.5L179.5 6.5Z" fill="#1E53A2"/>
<path d="M141 5.5L143.5 16L122.5 16L112 13L141 5.5Z" fill="#1E53A2"/>
<path d="M94 16L121 5.5L104.5 5.5L91 10L94 16Z" fill="#1E53A2"/>
<path d="M59.5 14L87 16V5.5L60 3.5L59.5 14Z" fill="#1E53A2"/>
<path d="M20 15L53 14L54 3.5L20 5V15Z" fill="#1E53A2"/>
<path d="M40 1025H20L20 1035H40V1025Z" fill="#1E53A2"/>
<path d="M45 1035V1025L65 1027V1037L45 1035Z" fill="#1E53A2"/>
<path d="M69.5 1033.5L68.5 1023.5H87L88 1030L69.5 1033.5Z" fill="#1E53A2"/>
<path d="M98.5 1025H92.5L91.5 1035H98.5V1025Z" fill="#1E53A2"/>
<path d="M102.5 1027L104 1037L128.5 1033.5L127 1023.5L102.5 1027Z" fill="#1E53A2"/>
<path d="M162.5 1026L134.5 1025V1032.5L162.5 1035V1026Z" fill="#1E53A2"/>
<path d="M206 1025L170 1023.5V1030.5L189 1036.5L206 1035V1025Z" fill="#1E53A2"/>
<path d="M217.5 1025L210.5 1028.5L217.5 1036.5L223.5 1029.5L217.5 1025Z" fill="#1E53A2"/>
<path d="M228.5 1038V1025H251.5L254 1036.5L228.5 1038Z" fill="#1E53A2"/>
<path d="M262 1033.5V1025L287.5 1028.5L290.5 1035.5L262 1033.5Z" fill="#1E53A2"/>
<path d="M293.5 1030.5L294 1025L316.5 1027L315.5 1034.5L293.5 1030.5Z" fill="#1E53A2"/>
<path d="M321.5 1036V1023L345 1028.5V1033.5L321.5 1036Z" fill="#1E53A2"/>
<path d="M376.5 1023L351 1024.5V1037L376.5 1032V1023Z" fill="#1E53A2"/>
<path d="M388 1023.5H383.5L382 1036L388 1037.5V1023.5Z" fill="#1E53A2"/>
<path d="M390.5 1032L392.5 1023.5L412 1029.5L410 1037.5L390.5 1032Z" fill="#1E53A2"/>
<path d="M417.5 1034.5L414.5 1024.5L437.5 1023.5L439.5 1031L417.5 1034.5Z" fill="#1E53A2"/>
<path d="M445.5 1034.5L444.5 1025L472 1023.5V1031L445.5 1034.5Z" fill="#1E53A2"/>
<path d="M475.5 1033.5L477.5 1026L495.5 1026.5L492.5 1035.5L475.5 1033.5Z" fill="#1E53A2"/>
<path d="M507 1025H500.5V1034L508 1035.5L507 1025Z" fill="#1E53A2"/>
<path d="M534 1025H515V1033.5L534 1034V1025Z" fill="#1E53A2"/>
<path d="M540.5 1033.5L542 1026.5L555 1028V1035.5L540.5 1033.5Z" fill="#1E53A2"/>
<path d="M561 1035.5L559.5 1025L590 1021.5L592.5 1030L561 1035.5Z" fill="#1E53A2"/>
<path d="M595.5 1036L596.5 1024.5L625.5 1028V1037.5L595.5 1036Z" fill="#1E53A2"/>
<path d="M655.5 1024.5L628.5 1024.5L631 1032.5L655 1035.5L655.5 1024.5Z" fill="#1E53A2"/>
<path d="M666 1034.5L664 1024.5H691.5L693 1029.5L666 1034.5Z" fill="#1E53A2"/>
<path d="M697.998 1024.52L698 1024.5C697.971 1024.5 697.971 1024.51 697.998 1024.52L697 1036.5L726 1037.5V1023.5L713 1028C713 1028 698.615 1024.79 697.998 1024.52Z" fill="#1E53A2"/>
<path d="M760.5 1023.5L734.5 1024.5L735.5 1033.5L744 1030.5L760.5 1032.5V1023.5Z" fill="#1E53A2"/>
<path d="M765 1033.5V1025L789 1027L787.5 1035L765 1033.5Z" fill="#1E53A2"/>
<path d="M797.5 1035V1025L807.5 1023.5L806.5 1033.5L797.5 1035Z" fill="#1E53A2"/>
<path d="M809.5 1035L812 1025H820.5L826 1030L823 1038.5L809.5 1035Z" fill="#1E53A2"/>
<path d="M829.5 1035V1025L850.5 1023.5L853.5 1033.5L829.5 1035Z" fill="#1E53A2"/>
<path d="M860.5 1033.5V1024L890.5 1027V1036.5L860.5 1033.5Z" fill="#1E53A2"/>
<path d="M899 1034.5L896.5 1024H917.5L928 1027L899 1034.5Z" fill="#1E53A2"/>
<path d="M946 1024L919 1034.5H935.5L949 1030L946 1024Z" fill="#1E53A2"/>
<path d="M980.5 1026L953 1024V1034.5L980 1036.5L980.5 1026Z" fill="#1E53A2"/>
<path d="M1020 1025L987 1026L986 1036.5L1020 1035V1025Z" fill="#1E53A2"/>
</svg>
