<svg width="1200" height="1200" viewBox="0 0 1200 1200" fill="none" xmlns="http://www.w3.org/2000/svg">
<path fill-rule="evenodd" clip-rule="evenodd" d="M1120 85.5L1111.5 80H85.5L80 88.5V1114.5L92.5 1120H1113L1120 1111.5V85.5ZM1100 100V1100H100V100L136 98L166.5 100H175.5L189 96L199 100H228V96L262.5 100H277.5L295 98H309.5L313.5 100L328.5 98L354 100H399L406.5 98L422 100L429 99H456.5L465.5 98L491.5 99L496 98L501 96L522 100H540L563 98L566.5 96H578.5L585 98H608L610 100H618L622 98L629.5 96H643.5L647 100L676.5 98L684.5 100H706.5L710.5 96L727 100H737.5L740.5 98L742.5 100H771L773 96L795 100H804L805 97L830 98V96L859.5 100H868L872 98L898 97L903 100L911 97L915.5 98L950 100L959 98H985L991.5 100L1018.5 98H1029L1032.5 100H1055V95.5L1077.5 100H1100Z" fill="#fbf8f4"/>
<path d="M1117 89L1114 97L1106 95.5L1103.5 88.5L1109 83.5L1117 89Z" fill="#1E53A2"/>
<path d="M89 83L97 86L95.5 94L86 94L84.5 88.5L89 83Z" fill="#1E53A2"/>
<path d="M85 1111.5L86.5 1102.5L93 1105.5L96.5 1111.5L91 1114L85 1111.5Z" fill="#1E53A2"/>
<path d="M1115.5 1111L1109.5 1117.5L1105 1112.5L1106 1105.5H1113L1115.5 1111Z" fill="#1E53A2"/>
<path d="M95 1080V1100H85V1080H95Z" fill="#1E53A2"/>
<path d="M85 1075H95L93 1055H83L85 1075Z" fill="#1E53A2"/>
<path d="M86.5 1050.5L96.5 1051.5V1033L90 1032L86.5 1050.5Z" fill="#1E53A2"/>
<path d="M95 1021.5V1027.5L85 1028.5V1021.5H95Z" fill="#1E53A2"/>
<path d="M93 1017.5L83 1016L86.5 991.5L96.5 993L93 1017.5Z" fill="#1E53A2"/>
<path d="M94 957.5L95 985.5H87.5L85 957.5H94Z" fill="#1E53A2"/>
<path d="M95 914L96.5 950H89.5L83.5 931L85 914H95Z" fill="#1E53A2"/>
<path d="M95 902.5L91.5 909.5L83.5 902.5L90.5 896.5L95 902.5Z" fill="#1E53A2"/>
<path d="M82 891.5H95V868.5L83.5 866L82 891.5Z" fill="#1E53A2"/>
<path d="M86.5 858H95L91.5 832.5L84.5 829.5L86.5 858Z" fill="#1E53A2"/>
<path d="M89.5 826.5L95 826L93 803.5L85.5 804.5L89.5 826.5Z" fill="#1E53A2"/>
<path d="M84 798.5H97L91.5 775H86.5L84 798.5Z" fill="#1E53A2"/>
<path d="M97 743.5L95.5 769H83L88 743.5H97Z" fill="#1E53A2"/>
<path d="M96.5 732V736.5L84 738L82.5 732H96.5Z" fill="#1E53A2"/>
<path d="M88 729.5L96.5 727.5L90.5 708L82.5 710L88 729.5Z" fill="#1E53A2"/>
<path d="M85.5 702.5L95.5 705.5L96.5 682.5L89 680.5L85.5 702.5Z" fill="#1E53A2"/>
<path d="M85.5 674.5L95 675.5L96.5 648H89L85.5 674.5Z" fill="#1E53A2"/>
<path d="M86.5 644.5L94 642.5L93.5 624.5L84.5 627.5L86.5 644.5Z" fill="#1E53A2"/>
<path d="M95 613V619.5H86L84.5 612L95 613Z" fill="#1E53A2"/>
<path d="M95 586V605H86.5L86 586H95Z" fill="#1E53A2"/>
<path d="M86.5 579.5L93.5 578L92 565H84.5L86.5 579.5Z" fill="#1E53A2"/>
<path d="M84.5 559L95 560.5L98.5 530L90 527.5L84.5 559Z" fill="#1E53A2"/>
<path d="M84 524.5L95.5 523.5L92 494.5H82.5L84 524.5Z" fill="#1E53A2"/>
<path d="M95.5 464.5V491.5L87.5 489L84.5 465L95.5 464.5Z" fill="#1E53A2"/>
<path d="M85.5 454L95.5 456V428.5L90.5 427L85.5 454Z" fill="#1E53A2"/>
<path d="M95.4817 422.002L95.5 422C95.5 422.029 95.4937 422.029 95.4817 422.002L83.5 423L82.5 394H96.5L92 407C92 407 95.2097 421.385 95.4817 422.002Z" fill="#1E53A2"/>
<path d="M96.5 359.5L95.5 385.5L86.5 384.5L89.5 376L87.5 359.5H96.5Z" fill="#1E53A2"/>
<path d="M86.5 355H95L93 331L85 332.5L86.5 355Z" fill="#1E53A2"/>
<path d="M85 322.5H95L96.5 312.5L86.5 313.5L85 322.5Z" fill="#1E53A2"/>
<path d="M85 310.5L95 308V299.5L90 294L81.5 297L85 310.5Z" fill="#1E53A2"/>
<path d="M85 290.5H95L96.5 269.5L86.5 266.5L85 290.5Z" fill="#1E53A2"/>
<path d="M86.5 259.5H96L93 229.5H83.5L86.5 259.5Z" fill="#1E53A2"/>
<path d="M85.5 221L96 223.5V202.5L93 192L85.5 221Z" fill="#1E53A2"/>
<path d="M96 174L85.5 201V184.5L90 171L96 174Z" fill="#1E53A2"/>
<path d="M94 139.5L96 167H85.5L83.5 140L94 139.5Z" fill="#1E53A2"/>
<path d="M95 100L94 133L83.5 134L85 100H95Z" fill="#1E53A2"/>
<path d="M1106 120V100H1116V120H1106Z" fill="#1E53A2"/>
<path d="M1116 125H1106L1108 145H1118L1116 125Z" fill="#1E53A2"/>
<path d="M1114.5 149.5L1104.5 148.5V167L1111 168L1114.5 149.5Z" fill="#1E53A2"/>
<path d="M1106 178.5V172.5L1116 171.5V178.5H1106Z" fill="#1E53A2"/>
<path d="M1108 182.5L1118 184L1114.5 208.5L1104.5 207L1108 182.5Z" fill="#1E53A2"/>
<path d="M1107 242.5L1106 214.5H1113.5L1116 242.5H1107Z" fill="#1E53A2"/>
<path d="M1106 286L1104.5 250H1111.5L1117.5 269L1116 286H1106Z" fill="#1E53A2"/>
<path d="M1106 297.5L1109.5 290.5L1117.5 297.5L1110.5 303.5L1106 297.5Z" fill="#1E53A2"/>
<path d="M1119 308.5H1106V331.5L1117.5 334L1119 308.5Z" fill="#1E53A2"/>
<path d="M1114.5 342H1106L1109.5 367.5L1116.5 370.5L1114.5 342Z" fill="#1E53A2"/>
<path d="M1111.5 373.5L1106 374L1108 396.5L1115.5 395.5L1111.5 373.5Z" fill="#1E53A2"/>
<path d="M1117 401.5H1104L1109.5 425H1114.5L1117 401.5Z" fill="#1E53A2"/>
<path d="M1104 456.5L1105.5 431H1118L1113 456.5H1104Z" fill="#1E53A2"/>
<path d="M1104.5 468V463.5L1117 462L1118.5 468H1104.5Z" fill="#1E53A2"/>
<path d="M1113 470.5L1104.5 472.5L1110.5 492L1118.5 490L1113 470.5Z" fill="#1E53A2"/>
<path d="M1115.5 497.5L1105.5 494.5L1104.5 517.5L1112 519.5L1115.5 497.5Z" fill="#1E53A2"/>
<path d="M1115.5 525.5L1106 524.5L1104.5 552H1112L1115.5 525.5Z" fill="#1E53A2"/>
<path d="M1114.5 555.5L1107 557.5L1107.5 575.5L1116.5 572.5L1114.5 555.5Z" fill="#1E53A2"/>
<path d="M1106 587V580.5H1115L1116.5 588L1106 587Z" fill="#1E53A2"/>
<path d="M1106 614V595H1114.5L1115 614H1106Z" fill="#1E53A2"/>
<path d="M1114.5 620.5L1107.5 622L1109 635H1116.5L1114.5 620.5Z" fill="#1E53A2"/>
<path d="M1116.5 641L1106 639.5L1102.5 670L1111 672.5L1116.5 641Z" fill="#1E53A2"/>
<path d="M1117 675.5L1105.5 676.5L1109 705.5H1118.5L1117 675.5Z" fill="#1E53A2"/>
<path d="M1105.5 735.5V708.5L1113.5 711L1116.5 735L1105.5 735.5Z" fill="#1E53A2"/>
<path d="M1115.5 746L1105.5 744V771.5L1110.5 773L1115.5 746Z" fill="#1E53A2"/>
<path d="M1105.52 777.998L1105.5 778C1105.5 777.971 1105.51 777.971 1105.52 777.998L1117.5 777L1118.5 806H1104.5L1109 793C1109 793 1105.79 778.615 1105.52 777.998Z" fill="#1E53A2"/>
<path d="M1104.5 840.5L1105.5 814.5L1114.5 815.5L1111.5 824L1113.5 840.5H1104.5Z" fill="#1E53A2"/>
<path d="M1114.5 845H1106L1108 869L1116 867.5L1114.5 845Z" fill="#1E53A2"/>
<path d="M1116 877.5H1106L1104.5 887.5L1114.5 886.5L1116 877.5Z" fill="#1E53A2"/>
<path d="M1116 889.5L1106 892V900.5L1111 906L1119.5 903L1116 889.5Z" fill="#1E53A2"/>
<path d="M1116 909.5H1106L1104.5 930.5L1114.5 933.5L1116 909.5Z" fill="#1E53A2"/>
<path d="M1114.5 940.5H1105L1108 970.5H1117.5L1114.5 940.5Z" fill="#1E53A2"/>
<path d="M1115.5 979L1105 976.5V997.5L1108 1008L1115.5 979Z" fill="#1E53A2"/>
<path d="M1105 1026L1115.5 999V1015.5L1111 1029L1105 1026Z" fill="#1E53A2"/>
<path d="M1107 1060.5L1105 1033H1115.5L1117.5 1060L1107 1060.5Z" fill="#1E53A2"/>
<path d="M1106 1100L1107 1067L1117.5 1066L1116 1100H1106Z" fill="#1E53A2"/>
<path d="M1080 95H1100V85H1080V95Z" fill="#1E53A2"/>
<path d="M1075 85V95L1055 93V83L1075 85Z" fill="#1E53A2"/>
<path d="M1050.5 86.5L1051.5 96.5H1033L1032 90L1050.5 86.5Z" fill="#1E53A2"/>
<path d="M1021.5 95H1027.5L1028.5 85H1021.5V95Z" fill="#1E53A2"/>
<path d="M1017.5 93L1016 83L991.5 86.5L993 96.5L1017.5 93Z" fill="#1E53A2"/>
<path d="M957.5 94L985.5 95V87.5L957.5 85V94Z" fill="#1E53A2"/>
<path d="M914 95L950 96.5V89.5L931 83.5L914 85V95Z" fill="#1E53A2"/>
<path d="M902.5 95L909.5 91.5L902.5 83.5L896.5 90.5L902.5 95Z" fill="#1E53A2"/>
<path d="M891.5 82V95H868.5L866 83.5L891.5 82Z" fill="#1E53A2"/>
<path d="M858 86.5V95L832.5 91.5L829.5 84.5L858 86.5Z" fill="#1E53A2"/>
<path d="M826.5 89.5L826 95L803.5 93L804.5 85.5L826.5 89.5Z" fill="#1E53A2"/>
<path d="M798.5 84V97L775 91.5V86.5L798.5 84Z" fill="#1E53A2"/>
<path d="M743.5 97L769 95.5V83L743.5 88V97Z" fill="#1E53A2"/>
<path d="M732 96.5H736.5L738 84L732 82.5V96.5Z" fill="#1E53A2"/>
<path d="M729.5 88L727.5 96.5L708 90.5L710 82.5L729.5 88Z" fill="#1E53A2"/>
<path d="M702.5 85.5L705.5 95.5L682.5 96.5L680.5 89L702.5 85.5Z" fill="#1E53A2"/>
<path d="M674.5 85.5L675.5 95L648 96.5V89L674.5 85.5Z" fill="#1E53A2"/>
<path d="M644.5 86.5L642.5 94L624.5 93.5L627.5 84.5L644.5 86.5Z" fill="#1E53A2"/>
<path d="M613 95H619.5V86L612 84.5L613 95Z" fill="#1E53A2"/>
<path d="M586 95L605 95V86.5L586 86V95Z" fill="#1E53A2"/>
<path d="M579.5 86.5L578 93.5L565 92V84.5L579.5 86.5Z" fill="#1E53A2"/>
<path d="M559 84.5L560.5 95L530 98.5L527.5 90L559 84.5Z" fill="#1E53A2"/>
<path d="M524.5 84L523.5 95.5L494.5 92V82.5L524.5 84Z" fill="#1E53A2"/>
<path d="M464.5 95.5H491.5L489 87.5L465 84.5L464.5 95.5Z" fill="#1E53A2"/>
<path d="M454 85.5L456 95.5L428.5 95.5L427 90.5L454 85.5Z" fill="#1E53A2"/>
<path d="M422.002 95.4817L422 95.5C422.029 95.5 422.029 95.4937 422.002 95.4817L423 83.5L394 82.5V96.5L407 92C407 92 421.385 95.2097 422.002 95.4817Z" fill="#1E53A2"/>
<path d="M359.5 96.5L385.5 95.5L384.5 86.5L376 89.5L359.5 87.5V96.5Z" fill="#1E53A2"/>
<path d="M355 86.5V95L331 93L332.5 85L355 86.5Z" fill="#1E53A2"/>
<path d="M322.5 85V95L312.5 96.5L313.5 86.5L322.5 85Z" fill="#1E53A2"/>
<path d="M310.5 85L308 95H299.5L294 90L297 81.5L310.5 85Z" fill="#1E53A2"/>
<path d="M290.5 85V95L269.5 96.5L266.5 86.5L290.5 85Z" fill="#1E53A2"/>
<path d="M259.5 86.5V96L229.5 93V83.5L259.5 86.5Z" fill="#1E53A2"/>
<path d="M221 85.5L223.5 96L202.5 96L192 93L221 85.5Z" fill="#1E53A2"/>
<path d="M174 96L201 85.5H184.5L171 90L174 96Z" fill="#1E53A2"/>
<path d="M139.5 94L167 96V85.5L140 83.5L139.5 94Z" fill="#1E53A2"/>
<path d="M100 95L133 94L134 83.5L100 85V95Z" fill="#1E53A2"/>
<path d="M120 1105H100V1115H120V1105Z" fill="#1E53A2"/>
<path d="M125 1115V1105L145 1107V1117L125 1115Z" fill="#1E53A2"/>
<path d="M149.5 1113.5L148.5 1103.5H167L168 1110L149.5 1113.5Z" fill="#1E53A2"/>
<path d="M178.5 1105H172.5L171.5 1115H178.5V1105Z" fill="#1E53A2"/>
<path d="M182.5 1107L184 1117L208.5 1113.5L207 1103.5L182.5 1107Z" fill="#1E53A2"/>
<path d="M242.5 1106L214.5 1105V1112.5L242.5 1115V1106Z" fill="#1E53A2"/>
<path d="M286 1105L250 1103.5V1110.5L269 1116.5L286 1115V1105Z" fill="#1E53A2"/>
<path d="M297.5 1105L290.5 1108.5L297.5 1116.5L303.5 1109.5L297.5 1105Z" fill="#1E53A2"/>
<path d="M308.5 1118V1105H331.5L334 1116.5L308.5 1118Z" fill="#1E53A2"/>
<path d="M342 1113.5V1105L367.5 1108.5L370.5 1115.5L342 1113.5Z" fill="#1E53A2"/>
<path d="M373.5 1110.5L374 1105L396.5 1107L395.5 1114.5L373.5 1110.5Z" fill="#1E53A2"/>
<path d="M401.5 1116V1103L425 1108.5V1113.5L401.5 1116Z" fill="#1E53A2"/>
<path d="M456.5 1103L431 1104.5V1117L456.5 1112V1103Z" fill="#1E53A2"/>
<path d="M468 1103.5H463.5L462 1116L468 1117.5V1103.5Z" fill="#1E53A2"/>
<path d="M470.5 1112L472.5 1103.5L492 1109.5L490 1117.5L470.5 1112Z" fill="#1E53A2"/>
<path d="M497.5 1114.5L494.5 1104.5L517.5 1103.5L519.5 1111L497.5 1114.5Z" fill="#1E53A2"/>
<path d="M525.5 1114.5L524.5 1105L552 1103.5V1111L525.5 1114.5Z" fill="#1E53A2"/>
<path d="M555.5 1113.5L557.5 1106L575.5 1106.5L572.5 1115.5L555.5 1113.5Z" fill="#1E53A2"/>
<path d="M587 1105H580.5V1114L588 1115.5L587 1105Z" fill="#1E53A2"/>
<path d="M614 1105H595V1113.5L614 1114V1105Z" fill="#1E53A2"/>
<path d="M620.5 1113.5L622 1106.5L635 1108V1115.5L620.5 1113.5Z" fill="#1E53A2"/>
<path d="M641 1115.5L639.5 1105L670 1101.5L672.5 1110L641 1115.5Z" fill="#1E53A2"/>
<path d="M675.5 1116L676.5 1104.5L705.5 1108V1117.5L675.5 1116Z" fill="#1E53A2"/>
<path d="M735.5 1104.5L708.5 1104.5L711 1112.5L735 1115.5L735.5 1104.5Z" fill="#1E53A2"/>
<path d="M746 1114.5L744 1104.5H771.5L773 1109.5L746 1114.5Z" fill="#1E53A2"/>
<path d="M777.998 1104.52L778 1104.5C777.971 1104.5 777.971 1104.51 777.998 1104.52L777 1116.5L806 1117.5V1103.5L793 1108C793 1108 778.615 1104.79 777.998 1104.52Z" fill="#1E53A2"/>
<path d="M840.5 1103.5L814.5 1104.5L815.5 1113.5L824 1110.5L840.5 1112.5V1103.5Z" fill="#1E53A2"/>
<path d="M845 1113.5V1105L869 1107L867.5 1115L845 1113.5Z" fill="#1E53A2"/>
<path d="M877.5 1115V1105L887.5 1103.5L886.5 1113.5L877.5 1115Z" fill="#1E53A2"/>
<path d="M889.5 1115L892 1105H900.5L906 1110L903 1118.5L889.5 1115Z" fill="#1E53A2"/>
<path d="M909.5 1115V1105L930.5 1103.5L933.5 1113.5L909.5 1115Z" fill="#1E53A2"/>
<path d="M940.5 1113.5V1104L970.5 1107V1116.5L940.5 1113.5Z" fill="#1E53A2"/>
<path d="M979 1114.5L976.5 1104H997.5L1008 1107L979 1114.5Z" fill="#1E53A2"/>
<path d="M1026 1104L999 1114.5H1015.5L1029 1110L1026 1104Z" fill="#1E53A2"/>
<path d="M1060.5 1106L1033 1104V1114.5L1060 1116.5L1060.5 1106Z" fill="#1E53A2"/>
<path d="M1100 1105L1067 1106L1066 1116.5L1100 1115V1105Z" fill="#1E53A2"/>
<path d="M441 42L462 80H747.5V73L767.5 41.5V31L778.5 23.5V16L753 9.5L747.5 11.5L751 28.5L744.5 31L733.5 50L724.5 52.5L707.5 58.5L686 50L679 44.5H666L633.5 18V11.5L612.5 9.5L611 0H591.5V14H577L572.5 28.5L564.5 20L547 42H538.5L526 55L518 47.5L498.5 55L476 47.5L471.5 35L468 26L448 11.5H441V42Z" fill="#fbf8f4"/>
<path d="M47.75 725.5H80.25L80.25 472L52.75 477L58.75 494L50.25 515.5L44.75 522.5V535.5L18.25 568H11.75L9.75 589L0.25 590.5L0.25 610H14.25L14.25 624.5L28.75 629L20.25 637L42.25 654.5V663L55.25 675.5L47.75 683.5L55.25 703L47.75 725.5Z" fill="#fbf8f4"/>
<path d="M1152.25 725.5H1119.75V472L1147.25 477L1141.25 494L1149.75 515.5L1155.25 522.5V535.5L1181.75 568H1188.25L1190.25 589L1199.75 590.5V610H1185.75V624.5L1171.25 629L1179.75 637L1157.75 654.5V663L1144.75 675.5L1152.25 683.5L1144.75 703L1152.25 725.5Z" fill="#fbf8f4"/>
<path d="M598 2L600.5 82L608 80L605.5 2H598Z" fill="#1E53A2"/>
<path d="M677.5 51L616 46V56.5L677.5 65.5V51Z" fill="#1E53A2"/>
<path d="M616 15L613 40H623.5L628.5 18L616 15Z" fill="#1E53A2"/>
<path d="M633.5 41.5L641.5 28.5L657 46L633.5 41.5Z" fill="#1E53A2"/>
<path d="M689.5 73L686.5 56.5L709 65.5L725 56.5L722.5 73H689.5Z" fill="#1E53A2"/>
<path d="M748 34L728.5 73H739.5L762.5 37L748 34Z" fill="#1E53A2"/>
<path d="M758.5 28.5L755 15L773 20L758.5 28.5Z" fill="#1E53A2"/>
<path d="M611 62L616 76L633.5 65.5L611 62Z" fill="#1E53A2"/>
<path d="M645 67.5L628.5 76L647.5 82L645 67.5Z" fill="#1E53A2"/>
<path d="M657 82V70.5L677.5 73L679 80L657 82Z" fill="#1E53A2"/>
<path d="M536.5 51L590.5 46V56.5L529 65.5L536.5 51Z" fill="#1E53A2"/>
<path d="M590.5 18.7143V40L578 37L581 18L590.5 18.7143Z" fill="#1E53A2"/>
<path d="M573 41.5L565 28.5L556.5 43L573 41.5Z" fill="#1E53A2"/>
<path d="M517 73L521 56.5L500 62L481.5 56.5L492 79L517 73Z" fill="#1E53A2"/>
<path d="M462.5 37L482 76H471L448 40L462.5 37Z" fill="#1E53A2"/>
<path d="M462 29.2143L448 18.7143V34.2143L462 29.2143Z" fill="#1E53A2"/>
<path d="M595.5 62L590.5 76L569.5 65.5L595.5 62Z" fill="#1E53A2"/>
<path d="M556.5 70.5L578 76L559 82L556.5 70.5Z" fill="#1E53A2"/>
<path d="M549.5 82V70.5H531L527.5 80L549.5 82Z" fill="#1E53A2"/>
<path d="M685 77.5L686.5 84L709 77.5H685Z" fill="#1E53A2"/>
<path d="M722.5 77.5L720 80L722.5 82L728.5 80L722.5 77.5Z" fill="#1E53A2"/>
<path d="M0 607.25L80 604.75L78 597.25L0 599.75L0 607.25Z" fill="#1E53A2"/>
<path d="M49 527.75L44 589.25H54.5L63.5 527.75H49Z" fill="#1E53A2"/>
<path d="M13 589.25L38 592.25V581.75L16 576.75L13 589.25Z" fill="#1E53A2"/>
<path d="M39.5 571.75L26.5 563.75L44 548.25L39.5 571.75Z" fill="#1E53A2"/>
<path d="M71 515.75L54.5 518.75L63.5 496.25L54.5 480.25L71 482.75V515.75Z" fill="#1E53A2"/>
<path d="M60 594.25L74 589.25L63.5 571.75L60 594.25Z" fill="#1E53A2"/>
<path d="M65.5 560.25L74 576.75L80 557.75L65.5 560.25Z" fill="#1E53A2"/>
<path d="M80 548.25H68.5L71 527.75L78 526.25L80 548.25Z" fill="#1E53A2"/>
<path d="M49 668.75L44 614.75H54.5L63.5 676.25L49 668.75Z" fill="#1E53A2"/>
<path d="M16.7143 614.75H38L35 627.25L16 624.25L16.7143 614.75Z" fill="#1E53A2"/>
<path d="M39.5 632.25L26.5 640.25L41 648.75L39.5 632.25Z" fill="#1E53A2"/>
<path d="M71 688.25L54.5 684.25L60 705.25L54.5 723.75L77 713.25L71 688.25Z" fill="#1E53A2"/>
<path d="M60 609.75L74 614.75L63.5 635.75L60 609.75Z" fill="#1E53A2"/>
<path d="M68.5 648.75L74 627.25L80 646.25L68.5 648.75Z" fill="#1E53A2"/>
<path d="M80 655.75H68.5V674.25L78 677.75L80 655.75Z" fill="#1E53A2"/>
<path d="M75.5 520.25L82 518.75L75.5 496.25V520.25Z" fill="#1E53A2"/>
<path d="M75.5 482.75L78 485.25L80 482.75L78 476.75L75.5 482.75Z" fill="#1E53A2"/>
<path d="M1200 607.25L1120 604.75L1122 597.25L1200 599.75V607.25Z" fill="#1E53A2"/>
<path d="M1151 527.75L1156 589.25H1145.5L1136.5 527.75H1151Z" fill="#1E53A2"/>
<path d="M1187 589.25L1162 592.25V581.75L1184 576.75L1187 589.25Z" fill="#1E53A2"/>
<path d="M1160.5 571.75L1173.5 563.75L1156 548.25L1160.5 571.75Z" fill="#1E53A2"/>
<path d="M1129 515.75L1145.5 518.75L1136.5 496.25L1145.5 480.25L1129 482.75V515.75Z" fill="#1E53A2"/>
<path d="M1140 594.25L1126 589.25L1136.5 571.75L1140 594.25Z" fill="#1E53A2"/>
<path d="M1134.5 560.25L1126 576.75L1120 557.75L1134.5 560.25Z" fill="#1E53A2"/>
<path d="M1120 548.25H1131.5L1129 527.75L1122 526.25L1120 548.25Z" fill="#1E53A2"/>
<path d="M1151 668.75L1156 614.75H1145.5L1136.5 676.25L1151 668.75Z" fill="#1E53A2"/>
<path d="M1183.29 614.75H1162L1165 627.25L1184 624.25L1183.29 614.75Z" fill="#1E53A2"/>
<path d="M1160.5 632.25L1173.5 640.25L1159 648.75L1160.5 632.25Z" fill="#1E53A2"/>
<path d="M1129 688.25L1145.5 684.25L1140 705.25L1145.5 723.75L1123 713.25L1129 688.25Z" fill="#1E53A2"/>
<path d="M1140 609.75L1126 614.75L1136.5 635.75L1140 609.75Z" fill="#1E53A2"/>
<path d="M1131.5 648.75L1126 627.25L1120 646.25L1131.5 648.75Z" fill="#1E53A2"/>
<path d="M1120 655.75H1131.5V674.25L1122 677.75L1120 655.75Z" fill="#1E53A2"/>
<path d="M1124.5 520.25L1118 518.75L1124.5 496.25V520.25Z" fill="#1E53A2"/>
<path d="M1124.5 482.75L1122 485.25L1120 482.75L1122 476.75L1124.5 482.75Z" fill="#1E53A2"/>
<path d="M438 1158L459 1120H744.5V1127L764.5 1158.5V1169L775.5 1176.5V1184L750 1190.5L744.5 1188.5L748 1171.5L741.5 1169L730.5 1150L721.5 1147.5L704.5 1141.5L683 1150L676 1155.5H663L630.5 1182V1188.5L609.5 1190.5L608 1200H588.5V1186H574L569.5 1171.5L561.5 1180L544 1158H535.5L523 1145L515 1152.5L495.5 1145L473 1152.5L468.5 1165L465 1174L445 1188.5H438V1158Z" fill="#fbf8f4"/>
<path d="M595 1198L597.5 1118L605 1120L602.5 1198H595Z" fill="#1E53A2"/>
<path d="M674.5 1149L613 1154V1143.5L674.5 1134.5V1149Z" fill="#1E53A2"/>
<path d="M613 1185L610 1160H620.5L625.5 1182L613 1185Z" fill="#1E53A2"/>
<path d="M630.5 1158.5L638.5 1171.5L654 1154L630.5 1158.5Z" fill="#1E53A2"/>
<path d="M686.5 1127L683.5 1143.5L706 1134.5L722 1143.5L719.5 1127H686.5Z" fill="#1E53A2"/>
<path d="M745 1166L725.5 1127H736.5L759.5 1163L745 1166Z" fill="#1E53A2"/>
<path d="M755.5 1171.5L752 1185L770 1180L755.5 1171.5Z" fill="#1E53A2"/>
<path d="M608 1138L613 1124L630.5 1134.5L608 1138Z" fill="#1E53A2"/>
<path d="M642 1132.5L625.5 1124L644.5 1118L642 1132.5Z" fill="#1E53A2"/>
<path d="M654 1118V1129.5L674.5 1127L676 1120L654 1118Z" fill="#1E53A2"/>
<path d="M533.5 1149L587.5 1154V1143.5L526 1134.5L533.5 1149Z" fill="#1E53A2"/>
<path d="M587.5 1181.29V1160L575 1163L578 1182L587.5 1181.29Z" fill="#1E53A2"/>
<path d="M570 1158.5L562 1171.5L553.5 1157L570 1158.5Z" fill="#1E53A2"/>
<path d="M514 1127L518 1143.5L497 1138L478.5 1143.5L489 1121L514 1127Z" fill="#1E53A2"/>
<path d="M459.5 1163L479 1124H468L445 1160L459.5 1163Z" fill="#1E53A2"/>
<path d="M459 1170.79L445 1181.29V1165.79L459 1170.79Z" fill="#1E53A2"/>
<path d="M592.5 1138L587.5 1124L566.5 1134.5L592.5 1138Z" fill="#1E53A2"/>
<path d="M553.5 1129.5L575 1124L556 1118L553.5 1129.5Z" fill="#1E53A2"/>
<path d="M546.5 1118V1129.5H528L524.5 1120L546.5 1118Z" fill="#1E53A2"/>
<path d="M500.5 1118.72L519.5 1115.22V1125L500.5 1118.72Z" fill="#1E53A2"/>
<path d="M719.5 1122.5L717 1120L719.5 1118L725.5 1120L719.5 1122.5Z" fill="#1E53A2"/>
</svg>
