<svg xmlns="http://www.w3.org/2000/svg" width="1245" height="730" fill="none" viewBox="0 0 1245 730"><path stroke="#000" stroke-dasharray="5 5" stroke-width="15" d="M565 360L865 360"/><path fill="#000" d="M1180 40H1054.14C1045.23 40 1040.77 50.7714 1047.07 57.0711L1097.07 107.071C1098.95 108.946 1101.49 110 1104.14 110H1140C1145.52 110 1150 114.477 1150 120V163.82C1150 171.253 1157.82 176.088 1164.47 172.764L1184.47 162.764C1187.86 161.07 1190 157.607 1190 153.82V50C1190 44.4772 1185.52 40 1180 40Z"/><path fill="#fff" d="M1098.16 67.2L1091.05 84H1085.48L1078.38 67.2H1084.48L1088.48 77.016L1092.59 67.2H1098.16ZM1112.69 79.728V84H1098.72V67.2H1112.38V71.472H1104.29V73.44H1111.39V77.52H1104.29V79.728H1112.69ZM1099.75 61.992H1104.91L1108.08 65.832H1104.48L1099.75 61.992ZM1122.07 79.776H1120.53V84H1114.87V67.2H1122.96C1124.51 67.2 1125.86 67.456 1127.01 67.968C1128.16 68.48 1129.05 69.216 1129.68 70.176C1130.3 71.136 1130.61 72.256 1130.61 73.536C1130.61 74.736 1130.34 75.784 1129.8 76.68C1129.25 77.576 1128.47 78.288 1127.44 78.816L1130.97 84H1124.92L1122.07 79.776ZM1124.9 73.536C1124.9 72.912 1124.71 72.432 1124.32 72.096C1123.94 71.744 1123.36 71.568 1122.6 71.568H1120.53V75.504H1122.6C1123.36 75.504 1123.94 75.336 1124.32 75C1124.71 74.648 1124.9 74.16 1124.9 73.536ZM1136.16 71.592H1131.24V67.2H1146.75V71.592H1141.83V84H1136.16V71.592ZM1162.19 79.728V84H1148.22V67.2H1161.88V71.472H1153.79V73.44H1160.89V77.52H1153.79V79.728H1162.19ZM1174.88 84L1171.98 79.512L1169.15 84H1162.69L1168.76 75.528L1162.91 67.2H1169.27L1172.12 71.424L1174.91 67.2H1181L1175.17 75.312L1181.36 84H1174.88Z"/><path stroke="#000" stroke-dasharray="10 10" stroke-linejoin="bevel" stroke-width="20" d="M1005 670V450V88.2843C1005 70.4662 1026.54 61.5428 1039.14 74.1421L1090.86 125.858C1093.51 128.51 1097.11 130 1100.86 130V130C1108.67 130 1115 123.668 1115 115.858V100M680 380V380C680 391.046 688.954 400 700 400H990M205 670L289.848 585.152C293.176 581.824 297.57 579.777 302.258 579.369L506.733 561.588C517.068 560.69 525 552.038 525 541.664V470C525 458.954 533.954 450 545 450H835V450C846.006 450 854.944 441.006 855 430V430V430C855.058 441.005 863.996 450 875 450H990M620 670V465"/><path stroke="#000" stroke-width="20" d="M960 382.5V387.5M820 382.5V387.5M750 382.5V387.5M890 382.5V387.5"/><g opacity=".333"><path fill="#000" d="M949.53 643.835L954.379 576.761C954.736 571.824 951.428 567.369 946.599 566.283L876.286 550.474C874.897 550.162 873.457 550.149 872.063 550.438L664.12 593.54C658.981 594.605 655.54 599.46 656.238 604.661L663.721 660.461C664.435 665.787 669.231 669.597 674.581 669.087L868.014 650.645L939.21 653.108C944.584 653.294 949.142 649.198 949.53 643.835Z"/><path fill="#fff" d="M747.385 628.576C744.673 628.576 742.237 628.012 740.077 626.884C737.917 625.756 736.225 624.196 735.001 622.204C733.777 620.188 733.165 617.92 733.165 615.4C733.165 612.88 733.777 610.624 735.001 608.632C736.225 606.616 737.917 605.044 740.077 603.916C742.237 602.788 744.673 602.224 747.385 602.224C750.097 602.224 752.533 602.788 754.693 603.916C756.853 605.044 758.545 606.616 759.769 608.632C760.993 610.624 761.605 612.88 761.605 615.4C761.605 617.92 760.993 620.188 759.769 622.204C758.545 624.196 756.853 625.756 754.693 626.884C752.533 628.012 750.097 628.576 747.385 628.576ZM747.385 621.7C748.441 621.7 749.389 621.448 750.229 620.944C751.093 620.416 751.777 619.684 752.281 618.748C752.785 617.788 753.037 616.672 753.037 615.4C753.037 614.128 752.785 613.024 752.281 612.088C751.777 611.128 751.093 610.396 750.229 609.892C749.389 609.364 748.441 609.1 747.385 609.1C746.329 609.1 745.369 609.364 744.505 609.892C743.665 610.396 742.993 611.128 742.489 612.088C741.985 613.024 741.733 614.128 741.733 615.4C741.733 616.672 741.985 617.788 742.489 618.748C742.993 619.684 743.665 620.416 744.505 620.944C745.369 621.448 746.329 621.7 747.385 621.7ZM787.189 628L787.117 616.516L781.645 625.732H777.901L772.429 616.912V628H764.689V602.8H771.673L779.881 616.228L787.873 602.8H794.857L794.929 628H787.189ZM819.988 621.592V628H799.036V602.8H819.52V609.208H807.388V612.16H818.044V618.28H807.388V621.592H819.988ZM839.927 614.716H847.307V625.372C845.819 626.404 844.091 627.196 842.123 627.748C840.155 628.3 838.223 628.576 836.327 628.576C833.639 628.576 831.227 628.024 829.091 626.92C826.955 625.792 825.275 624.232 824.051 622.24C822.851 620.224 822.251 617.944 822.251 615.4C822.251 612.856 822.851 610.588 824.051 608.596C825.275 606.58 826.967 605.02 829.127 603.916C831.311 602.788 833.771 602.224 836.507 602.224C838.979 602.224 841.187 602.644 843.131 603.484C845.099 604.3 846.731 605.5 848.027 607.084L842.591 611.872C841.007 610.024 839.123 609.1 836.939 609.1C835.067 609.1 833.579 609.664 832.475 610.792C831.371 611.92 830.819 613.456 830.819 615.4C830.819 617.296 831.359 618.82 832.439 619.972C833.543 621.124 835.007 621.7 836.831 621.7C837.911 621.7 838.943 621.496 839.927 621.088V614.716ZM868.099 623.608H858.523L856.831 628H848.191L859.207 602.8H867.559L878.575 628H869.791L868.099 623.608ZM865.759 617.488L863.311 611.152L860.863 617.488H865.759Z"/></g><g opacity=".333"><path fill="#000" d="M305 480V549.06C305 554.936 310.043 559.546 315.896 559.019L495.896 542.819C501.051 542.355 505 538.035 505 532.86V480C505 474.477 500.523 470 495 470H315C309.477 470 305 474.477 305 480Z"/><path fill="#fff" d="M321.798 497.8H330.294V516.412H341.67V523H321.798V497.8ZM344.017 497.8H352.513V523H344.017V497.8ZM376.763 509.824C378.251 510.376 379.403 511.18 380.219 512.236C381.035 513.292 381.443 514.564 381.443 516.052C381.443 518.26 380.531 519.976 378.707 521.2C376.883 522.4 374.243 523 370.787 523H356.603V497.8H370.067C373.427 497.8 375.959 498.4 377.663 499.6C379.391 500.8 380.255 502.396 380.255 504.388C380.255 505.564 379.955 506.62 379.355 507.556C378.779 508.492 377.915 509.248 376.763 509.824ZM364.955 503.74V507.484H368.915C370.763 507.484 371.687 506.86 371.687 505.612C371.687 504.364 370.763 503.74 368.915 503.74H364.955ZM370.067 517.06C371.939 517.06 372.875 516.4 372.875 515.08C372.875 513.76 371.939 513.1 370.067 513.1H364.955V517.06H370.067ZM395.247 516.664H392.943V523H384.447V497.8H396.579C398.907 497.8 400.935 498.184 402.663 498.952C404.391 499.72 405.723 500.824 406.659 502.264C407.595 503.704 408.063 505.384 408.063 507.304C408.063 509.104 407.655 510.676 406.839 512.02C406.023 513.364 404.847 514.432 403.311 515.224L408.603 523H399.531L395.247 516.664ZM399.495 507.304C399.495 506.368 399.207 505.648 398.631 505.144C398.055 504.616 397.191 504.352 396.039 504.352H392.943V510.256H396.039C397.191 510.256 398.055 510.004 398.631 509.5C399.207 508.972 399.495 508.24 399.495 507.304ZM428.443 518.608H418.867L417.175 523H408.535L419.551 497.8H427.903L438.919 523H430.135L428.443 518.608ZM426.103 512.488L423.655 506.152L421.207 512.488H426.103ZM451.075 516.664H448.771V523H440.275V497.8H452.407C454.735 497.8 456.763 498.184 458.491 498.952C460.219 499.72 461.551 500.824 462.487 502.264C463.423 503.704 463.891 505.384 463.891 507.304C463.891 509.104 463.483 510.676 462.667 512.02C461.851 513.364 460.675 514.432 459.139 515.224L464.431 523H455.359L451.075 516.664ZM455.323 507.304C455.323 506.368 455.035 505.648 454.459 505.144C453.883 504.616 453.019 504.352 451.867 504.352H448.771V510.256H451.867C453.019 510.256 453.883 510.004 454.459 509.5C455.035 508.972 455.323 508.24 455.323 507.304ZM481.723 513.856V523H473.227V513.748L463.723 497.8H472.687L477.835 506.512L483.019 497.8H491.227L481.723 513.856Z"/></g><g opacity=".333"><circle cx="150" cy="555" r="65" fill="#000"/><path fill="#fff" d="M114.744 546.5V564H109.894L103.244 556.05V564H97.4943V546.5H102.344L108.994 554.45V546.5H114.744ZM132.137 559.55V564H117.587V546.5H131.812V550.95H123.387V553H130.787V557.25H123.387V559.55H132.137ZM145.361 564L142.336 559.325L139.386 564H132.661L138.986 555.175L132.886 546.5H139.511L142.486 550.9L145.386 546.5H151.736L145.661 554.95L152.111 564H145.361ZM161.46 564.4C158.777 564.4 156.685 563.675 155.185 562.225C153.685 560.775 152.935 558.742 152.935 556.125V546.5H158.835V555.95C158.835 557.233 159.06 558.167 159.51 558.75C159.977 559.333 160.643 559.625 161.51 559.625C162.377 559.625 163.035 559.333 163.485 558.75C163.952 558.167 164.185 557.233 164.185 555.95V546.5H169.985V556.125C169.985 558.742 169.235 560.775 167.735 562.225C166.235 563.675 164.143 564.4 161.46 564.4ZM179.215 564.4C177.765 564.4 176.348 564.242 174.965 563.925C173.598 563.592 172.473 563.15 171.59 562.6L173.49 558.3C174.323 558.783 175.256 559.175 176.29 559.475C177.323 559.758 178.315 559.9 179.265 559.9C180.081 559.9 180.665 559.825 181.015 559.675C181.365 559.508 181.54 559.267 181.54 558.95C181.54 558.583 181.306 558.308 180.84 558.125C180.39 557.942 179.64 557.742 178.59 557.525C177.24 557.242 176.115 556.942 175.215 556.625C174.315 556.292 173.531 555.758 172.865 555.025C172.198 554.275 171.865 553.267 171.865 552C171.865 550.9 172.173 549.9 172.79 549C173.406 548.1 174.323 547.392 175.54 546.875C176.773 546.358 178.265 546.1 180.015 546.1C181.215 546.1 182.39 546.233 183.54 546.5C184.706 546.75 185.731 547.125 186.615 547.625L184.84 551.9C183.123 551.033 181.498 550.6 179.965 550.6C178.448 550.6 177.69 550.967 177.69 551.7C177.69 552.05 177.915 552.317 178.365 552.5C178.815 552.667 179.556 552.85 180.59 553.05C181.923 553.3 183.048 553.592 183.965 553.925C184.881 554.242 185.673 554.767 186.34 555.5C187.023 556.233 187.365 557.233 187.365 558.5C187.365 559.6 187.056 560.6 186.44 561.5C185.823 562.383 184.898 563.092 183.665 563.625C182.448 564.142 180.965 564.4 179.215 564.4ZM196.615 546.5H202.515V564H196.615V546.5Z"/></g><g opacity=".333"><path fill="#000" d="M835 160H735C729.477 160 725 164.477 725 170V210C725 215.523 729.477 220 735 220H835C840.523 220 845 215.523 845 210V170C845 164.477 840.523 160 835 160Z"/><path fill="#fff" d="M775.721 203.576C773.057 203.576 770.657 203.024 768.521 201.92C766.385 200.792 764.705 199.232 763.481 197.24C762.281 195.224 761.681 192.944 761.681 190.4C761.681 187.856 762.281 185.588 763.481 183.596C764.705 181.58 766.385 180.02 768.521 178.916C770.657 177.788 773.057 177.224 775.721 177.224C778.169 177.224 780.353 177.656 782.273 178.52C784.193 179.384 785.777 180.632 787.025 182.264L781.661 187.052C780.101 185.084 778.265 184.1 776.153 184.1C774.377 184.1 772.949 184.676 771.869 185.828C770.789 186.956 770.249 188.48 770.249 190.4C770.249 192.32 770.789 193.856 771.869 195.008C772.949 196.136 774.377 196.7 776.153 196.7C778.265 196.7 780.101 195.716 781.661 193.748L787.025 198.536C785.777 200.168 784.193 201.416 782.273 202.28C780.353 203.144 778.169 203.576 775.721 203.576ZM798.414 186.692C801.942 186.692 804.534 187.436 806.19 188.924C807.87 190.388 808.71 192.32 808.71 194.72C808.71 196.304 808.29 197.768 807.45 199.112C806.634 200.432 805.362 201.512 803.634 202.352C801.906 203.168 799.758 203.576 797.19 203.576C795.414 203.576 793.638 203.384 791.862 203C790.11 202.616 788.574 202.052 787.254 201.308L790.134 195.044C791.19 195.644 792.294 196.1 793.446 196.412C794.622 196.724 795.762 196.88 796.866 196.88C797.85 196.88 798.642 196.712 799.242 196.376C799.866 196.016 800.178 195.524 800.178 194.9C800.178 194.3 799.902 193.856 799.35 193.568C798.798 193.256 797.802 193.1 796.362 193.1H789.054L790.314 177.8H807.054V184.208H797.298L797.118 186.692H798.414Z"/></g><g opacity=".333"><path fill="#000" d="M775 240H735C729.477 240 725 244.477 725 250V290C725 295.523 729.477 300 735 300H775C780.523 300 785 295.523 785 290V250C785 244.477 780.523 240 775 240Z"/><path fill="#fff" d="M752.146 269.824C753.634 270.376 754.786 271.18 755.602 272.236C756.418 273.292 756.826 274.564 756.826 276.052C756.826 278.26 755.914 279.976 754.09 281.2C752.266 282.4 749.626 283 746.17 283H731.986V257.8H745.45C748.81 257.8 751.342 258.4 753.046 259.6C754.774 260.8 755.638 262.396 755.638 264.388C755.638 265.564 755.338 266.62 754.738 267.556C754.162 268.492 753.298 269.248 752.146 269.824ZM740.338 263.74V267.484H744.298C746.146 267.484 747.07 266.86 747.07 265.612C747.07 264.364 746.146 263.74 744.298 263.74H740.338ZM745.45 277.06C747.322 277.06 748.258 276.4 748.258 275.08C748.258 273.76 747.322 273.1 745.45 273.1H740.338V277.06H745.45ZM769.117 266.692C772.645 266.692 775.237 267.436 776.893 268.924C778.573 270.388 779.413 272.32 779.413 274.72C779.413 276.304 778.993 277.768 778.153 279.112C777.337 280.432 776.065 281.512 774.337 282.352C772.609 283.168 770.461 283.576 767.893 283.576C766.117 283.576 764.341 283.384 762.565 283C760.813 282.616 759.277 282.052 757.957 281.308L760.837 275.044C761.893 275.644 762.997 276.1 764.149 276.412C765.325 276.724 766.465 276.88 767.569 276.88C768.553 276.88 769.345 276.712 769.945 276.376C770.569 276.016 770.881 275.524 770.881 274.9C770.881 274.3 770.605 273.856 770.053 273.568C769.501 273.256 768.505 273.1 767.065 273.1H759.757L761.017 257.8H777.757V264.208H768.001L767.821 266.692H769.117Z"/></g><path fill="#000" d="M835 320H735C729.477 320 725 324.477 725 330V370C725 375.523 729.477 380 735 380H835C840.523 380 845 375.523 845 370V330C845 324.477 840.523 320 835 320Z"/><path fill="#fff" d="M778.578 358.608H769.002L767.31 363H758.67L769.686 337.8H778.038L789.054 363H780.27L778.578 358.608ZM776.238 352.488L773.79 346.152L771.342 352.488H776.238ZM799.697 346.692C803.225 346.692 805.817 347.436 807.473 348.924C809.153 350.388 809.993 352.32 809.993 354.72C809.993 356.304 809.573 357.768 808.733 359.112C807.917 360.432 806.645 361.512 804.917 362.352C803.189 363.168 801.041 363.576 798.473 363.576C796.697 363.576 794.921 363.384 793.145 363C791.393 362.616 789.857 362.052 788.537 361.308L791.417 355.044C792.473 355.644 793.577 356.1 794.729 356.412C795.905 356.724 797.045 356.88 798.149 356.88C799.133 356.88 799.925 356.712 800.525 356.376C801.149 356.016 801.461 355.524 801.461 354.9C801.461 354.3 801.185 353.856 800.633 353.568C800.081 353.256 799.085 353.1 797.645 353.1H790.337L791.597 337.8H808.337V344.208H798.581L798.401 346.692H799.697Z"/><path fill="#000" d="M975 320H875C869.477 320 865 324.477 865 330V370C865 375.523 869.477 380 875 380H975C980.523 380 985 375.523 985 370V330C985 324.477 980.523 320 975 320Z"/><path fill="#fff" d="M918.085 358.608H908.509L906.817 363H898.177L909.193 337.8H917.545L928.561 363H919.777L918.085 358.608ZM915.745 352.488L913.297 346.152L910.849 352.488H915.745ZM942.062 346.692C943.598 346.692 945.026 347.028 946.346 347.7C947.666 348.372 948.722 349.32 949.514 350.544C950.306 351.768 950.702 353.172 950.702 354.756C950.702 356.508 950.246 358.056 949.334 359.4C948.446 360.744 947.222 361.776 945.662 362.496C944.102 363.216 942.374 363.576 940.478 363.576C938.054 363.576 935.93 363.108 934.106 362.172C932.306 361.236 930.902 359.844 929.894 357.996C928.886 356.148 928.382 353.88 928.382 351.192C928.382 348.312 928.958 345.816 930.11 343.704C931.286 341.592 932.918 339.984 935.006 338.88C937.118 337.776 939.566 337.224 942.35 337.224C943.862 337.224 945.302 337.404 946.67 337.764C948.038 338.1 949.202 338.58 950.162 339.204L947.102 345.144C945.854 344.256 944.33 343.812 942.53 343.812C941.066 343.812 939.854 344.184 938.894 344.928C937.958 345.648 937.346 346.704 937.058 348.096C938.378 347.16 940.046 346.692 942.062 346.692ZM939.902 357.708C940.67 357.708 941.294 357.48 941.774 357.024C942.254 356.568 942.494 355.944 942.494 355.152C942.494 354.36 942.254 353.736 941.774 353.28C941.294 352.8 940.67 352.56 939.902 352.56C939.134 352.56 938.51 352.8 938.03 353.28C937.55 353.736 937.31 354.36 937.31 355.152C937.31 355.944 937.55 356.568 938.03 357.024C938.51 357.48 939.134 357.708 939.902 357.708Z"/><g opacity=".333"><path fill="#000" d="M975 240H935C929.477 240 925 244.477 925 250V290C925 295.523 929.477 300 935 300H975C980.523 300 985 295.523 985 290V250C985 244.477 980.523 240 975 240Z"/><path fill="#fff" d="M951.39 269.824C952.878 270.376 954.03 271.18 954.846 272.236C955.662 273.292 956.07 274.564 956.07 276.052C956.07 278.26 955.158 279.976 953.334 281.2C951.51 282.4 948.87 283 945.414 283H931.23V257.8H944.694C948.054 257.8 950.586 258.4 952.29 259.6C954.018 260.8 954.882 262.396 954.882 264.388C954.882 265.564 954.582 266.62 953.982 267.556C953.406 268.492 952.542 269.248 951.39 269.824ZM939.582 263.74V267.484H943.542C945.39 267.484 946.314 266.86 946.314 265.612C946.314 264.364 945.39 263.74 943.542 263.74H939.582ZM944.694 277.06C946.566 277.06 947.502 276.4 947.502 275.08C947.502 273.76 946.566 273.1 944.694 273.1H939.582V277.06H944.694ZM971.745 266.692C973.281 266.692 974.709 267.028 976.029 267.7C977.349 268.372 978.405 269.32 979.197 270.544C979.989 271.768 980.385 273.172 980.385 274.756C980.385 276.508 979.929 278.056 979.017 279.4C978.129 280.744 976.905 281.776 975.345 282.496C973.785 283.216 972.057 283.576 970.161 283.576C967.737 283.576 965.613 283.108 963.789 282.172C961.989 281.236 960.585 279.844 959.577 277.996C958.569 276.148 958.065 273.88 958.065 271.192C958.065 268.312 958.641 265.816 959.793 263.704C960.969 261.592 962.601 259.984 964.689 258.88C966.801 257.776 969.249 257.224 972.033 257.224C973.545 257.224 974.985 257.404 976.353 257.764C977.721 258.1 978.885 258.58 979.845 259.204L976.785 265.144C975.537 264.256 974.013 263.812 972.213 263.812C970.749 263.812 969.537 264.184 968.577 264.928C967.641 265.648 967.029 266.704 966.741 268.096C968.061 267.16 969.729 266.692 971.745 266.692ZM969.585 277.708C970.353 277.708 970.977 277.48 971.457 277.024C971.937 276.568 972.177 275.944 972.177 275.152C972.177 274.36 971.937 273.736 971.457 273.28C970.977 272.8 970.353 272.56 969.585 272.56C968.817 272.56 968.193 272.8 967.713 273.28C967.233 273.736 966.993 274.36 966.993 275.152C966.993 275.944 967.233 276.568 967.713 277.024C968.193 277.48 968.817 277.708 969.585 277.708Z"/></g><g opacity=".333"><path fill="#000" d="M975 160H875C869.477 160 865 164.477 865 170V210C865 215.523 869.477 220 875 220H975C980.523 220 985 215.523 985 210V170C985 164.477 980.523 160 975 160Z"/><path fill="#fff" d="M915.053 203.576C912.389 203.576 909.989 203.024 907.853 201.92C905.717 200.792 904.037 199.232 902.813 197.24C901.613 195.224 901.013 192.944 901.013 190.4C901.013 187.856 901.613 185.588 902.813 183.596C904.037 181.58 905.717 180.02 907.853 178.916C909.989 177.788 912.389 177.224 915.053 177.224C917.501 177.224 919.685 177.656 921.605 178.52C923.525 179.384 925.109 180.632 926.357 182.264L920.993 187.052C919.433 185.084 917.597 184.1 915.485 184.1C913.709 184.1 912.281 184.676 911.201 185.828C910.121 186.956 909.581 188.48 909.581 190.4C909.581 192.32 910.121 193.856 911.201 195.008C912.281 196.136 913.709 196.7 915.485 196.7C917.597 196.7 919.433 195.716 920.993 193.748L926.357 198.536C925.109 200.168 923.525 201.416 921.605 202.28C919.685 203.144 917.501 203.576 915.053 203.576ZM940.954 186.692C942.49 186.692 943.918 187.028 945.238 187.7C946.558 188.372 947.614 189.32 948.406 190.544C949.198 191.768 949.594 193.172 949.594 194.756C949.594 196.508 949.138 198.056 948.226 199.4C947.338 200.744 946.114 201.776 944.554 202.496C942.994 203.216 941.266 203.576 939.37 203.576C936.946 203.576 934.822 203.108 932.998 202.172C931.198 201.236 929.794 199.844 928.786 197.996C927.778 196.148 927.274 193.88 927.274 191.192C927.274 188.312 927.85 185.816 929.002 183.704C930.178 181.592 931.81 179.984 933.898 178.88C936.01 177.776 938.458 177.224 941.242 177.224C942.754 177.224 944.194 177.404 945.562 177.764C946.93 178.1 948.094 178.58 949.054 179.204L945.994 185.144C944.746 184.256 943.222 183.812 941.422 183.812C939.958 183.812 938.746 184.184 937.786 184.928C936.85 185.648 936.238 186.704 935.95 188.096C937.27 187.16 938.938 186.692 940.954 186.692ZM938.794 197.708C939.562 197.708 940.186 197.48 940.666 197.024C941.146 196.568 941.386 195.944 941.386 195.152C941.386 194.36 941.146 193.736 940.666 193.28C940.186 192.8 939.562 192.56 938.794 192.56C938.026 192.56 937.402 192.8 936.922 193.28C936.442 193.736 936.202 194.36 936.202 195.152C936.202 195.944 936.442 196.568 936.922 197.024C937.402 197.48 938.026 197.708 938.794 197.708Z"/></g><g opacity=".333"><path fill="#000" d="M555 160H455C449.477 160 445 164.477 445 170V210C445 215.523 449.477 220 455 220H555C560.523 220 565 215.523 565 210V170C565 164.477 560.523 160 555 160Z"/><path fill="#fff" d="M495.633 203.576C492.969 203.576 490.569 203.024 488.433 201.92C486.297 200.792 484.617 199.232 483.393 197.24C482.193 195.224 481.593 192.944 481.593 190.4C481.593 187.856 482.193 185.588 483.393 183.596C484.617 181.58 486.297 180.02 488.433 178.916C490.569 177.788 492.969 177.224 495.633 177.224C498.081 177.224 500.265 177.656 502.185 178.52C504.105 179.384 505.689 180.632 506.937 182.264L501.573 187.052C500.013 185.084 498.177 184.1 496.065 184.1C494.289 184.1 492.861 184.676 491.781 185.828C490.701 186.956 490.161 188.48 490.161 190.4C490.161 192.32 490.701 193.856 491.781 195.008C492.861 196.136 494.289 196.7 496.065 196.7C498.177 196.7 500.013 195.716 501.573 193.748L506.937 198.536C505.689 200.168 504.105 201.416 502.185 202.28C500.265 203.144 498.081 203.576 495.633 203.576ZM522.53 187.772C524.474 188.252 525.962 189.128 526.994 190.4C528.05 191.648 528.578 193.16 528.578 194.936C528.578 196.448 528.158 197.864 527.318 199.184C526.502 200.48 525.23 201.536 523.502 202.352C521.774 203.168 519.626 203.576 517.058 203.576C515.282 203.576 513.506 203.384 511.73 203C509.978 202.616 508.442 202.052 507.122 201.308L510.002 195.044C511.034 195.644 512.138 196.1 513.314 196.412C514.514 196.724 515.666 196.88 516.77 196.88C517.754 196.88 518.546 196.712 519.146 196.376C519.746 196.04 520.046 195.56 520.046 194.936C520.046 193.784 519.05 193.208 517.058 193.208H513.71V187.988L517.418 184.208H508.418V177.8H527.21V183.02L522.53 187.772Z"/></g><g opacity=".333"><path fill="#000" d="M495 240H455C449.477 240 445 244.477 445 250V290C445 295.523 449.477 300 455 300H495C500.523 300 505 295.523 505 290V250C505 244.477 500.523 240 495 240Z"/><path fill="#fff" d="M472.233 269.824C473.721 270.376 474.873 271.18 475.689 272.236C476.505 273.292 476.913 274.564 476.913 276.052C476.913 278.26 476.001 279.976 474.177 281.2C472.353 282.4 469.713 283 466.257 283H452.073V257.8H465.537C468.897 257.8 471.429 258.4 473.133 259.6C474.861 260.8 475.725 262.396 475.725 264.388C475.725 265.564 475.425 266.62 474.825 267.556C474.249 268.492 473.385 269.248 472.233 269.824ZM460.425 263.74V267.484H464.385C466.233 267.484 467.157 266.86 467.157 265.612C467.157 264.364 466.233 263.74 464.385 263.74H460.425ZM465.537 277.06C467.409 277.06 468.345 276.4 468.345 275.08C468.345 273.76 467.409 273.1 465.537 273.1H460.425V277.06H465.537ZM493.057 267.772C495.001 268.252 496.489 269.128 497.521 270.4C498.577 271.648 499.105 273.16 499.105 274.936C499.105 276.448 498.685 277.864 497.845 279.184C497.029 280.48 495.757 281.536 494.029 282.352C492.301 283.168 490.153 283.576 487.585 283.576C485.809 283.576 484.033 283.384 482.257 283C480.505 282.616 478.969 282.052 477.649 281.308L480.529 275.044C481.561 275.644 482.665 276.1 483.841 276.412C485.041 276.724 486.193 276.88 487.297 276.88C488.281 276.88 489.073 276.712 489.673 276.376C490.273 276.04 490.573 275.56 490.573 274.936C490.573 273.784 489.577 273.208 487.585 273.208H484.237V267.988L487.945 264.208H478.945V257.8H497.737V263.02L493.057 267.772Z"/></g><path fill="#000" d="M555 320H455C449.477 320 445 324.477 445 330V370C445 375.523 449.477 380 455 380H555C560.523 380 565 375.523 565 370V330C565 324.477 560.523 320 555 320Z"/><path fill="#fff" d="M498.49 358.608H488.914L487.222 363H478.582L489.598 337.8H497.95L508.966 363H500.182L498.49 358.608ZM496.15 352.488L493.702 346.152L491.254 352.488H496.15ZM523.813 347.772C525.757 348.252 527.245 349.128 528.277 350.4C529.333 351.648 529.861 353.16 529.861 354.936C529.861 356.448 529.441 357.864 528.601 359.184C527.785 360.48 526.513 361.536 524.785 362.352C523.057 363.168 520.909 363.576 518.341 363.576C516.565 363.576 514.789 363.384 513.013 363C511.261 362.616 509.725 362.052 508.405 361.308L511.285 355.044C512.317 355.644 513.421 356.1 514.597 356.412C515.797 356.724 516.949 356.88 518.053 356.88C519.037 356.88 519.829 356.712 520.429 356.376C521.029 356.04 521.329 355.56 521.329 354.936C521.329 353.784 520.333 353.208 518.341 353.208H514.993V347.988L518.701 344.208H509.701V337.8H528.493V343.02L523.813 347.772Z"/><path fill="#000" d="M695 320H595C589.477 320 585 324.477 585 330V370C585 375.523 589.477 380 595 380H695C700.523 380 705 375.523 705 370V330C705 324.477 700.523 320 695 320Z"/><path fill="#fff" d="M637.171 358.608H627.595L625.903 363H617.263L628.279 337.8H636.631L647.647 363H638.863L637.171 358.608ZM634.831 352.488L632.383 346.152L629.935 352.488H634.831ZM671.912 358.68H668.564V363H660.32V358.68H647.252V353.28L657.944 337.8H666.656L657.152 352.092H660.572V348.24H668.564V352.092H671.912V358.68Z"/><g opacity=".333"><path fill="#000" d="M695 240H655C649.477 240 645 244.477 645 250V290C645 295.523 649.477 300 655 300H695C700.523 300 705 295.523 705 290V250C705 244.477 700.523 240 695 240Z"/><path fill="#fff" d="M670.476 269.824C671.964 270.376 673.116 271.18 673.932 272.236C674.748 273.292 675.156 274.564 675.156 276.052C675.156 278.26 674.244 279.976 672.42 281.2C670.596 282.4 667.956 283 664.5 283H650.316V257.8H663.78C667.14 257.8 669.672 258.4 671.376 259.6C673.104 260.8 673.968 262.396 673.968 264.388C673.968 265.564 673.668 266.62 673.068 267.556C672.492 268.492 671.628 269.248 670.476 269.824ZM658.668 263.74V267.484H662.628C664.476 267.484 665.4 266.86 665.4 265.612C665.4 264.364 664.476 263.74 662.628 263.74H658.668ZM663.78 277.06C665.652 277.06 666.588 276.4 666.588 275.08C666.588 273.76 665.652 273.1 663.78 273.1H658.668V277.06H663.78ZM701.595 278.68H698.247V283H690.003V278.68H676.935V273.28L687.627 257.8H696.339L686.835 272.092H690.255V268.24H698.247V272.092H701.595V278.68Z"/></g><g opacity=".333"><path fill="#000" d="M695 160H595C589.477 160 585 164.477 585 170V210C585 215.523 589.477 220 595 220H695C700.523 220 705 215.523 705 210V170C705 164.477 700.523 160 695 160Z"/><path fill="#fff" d="M633.875 203.576C631.211 203.576 628.811 203.024 626.675 201.92C624.539 200.792 622.859 199.232 621.635 197.24C620.435 195.224 619.835 192.944 619.835 190.4C619.835 187.856 620.435 185.588 621.635 183.596C622.859 181.58 624.539 180.02 626.675 178.916C628.811 177.788 631.211 177.224 633.875 177.224C636.323 177.224 638.507 177.656 640.427 178.52C642.347 179.384 643.931 180.632 645.179 182.264L639.815 187.052C638.255 185.084 636.419 184.1 634.307 184.1C632.531 184.1 631.103 184.676 630.023 185.828C628.943 186.956 628.403 188.48 628.403 190.4C628.403 192.32 628.943 193.856 630.023 195.008C631.103 196.136 632.531 196.7 634.307 196.7C636.419 196.7 638.255 195.716 639.815 193.748L645.179 198.536C643.931 200.168 642.347 201.416 640.427 202.28C638.507 203.144 636.323 203.576 633.875 203.576ZM671.068 198.68H667.72V203H659.476V198.68H646.408V193.28L657.1 177.8H665.812L656.308 192.092H659.728V188.24H667.72V192.092H671.068V198.68Z"/></g><g opacity=".333"><path fill="#000" d="M275 160H55C49.4772 160 45 164.477 45 170V210C45 215.523 49.4772 220 55 220H275C280.523 220 285 215.523 285 210V170C285 164.477 280.523 160 275 160Z"/><path fill="#fff" d="M158.99 203.576C156.326 203.576 153.926 203.024 151.79 201.92C149.654 200.792 147.974 199.232 146.75 197.24C145.55 195.224 144.95 192.944 144.95 190.4C144.95 187.856 145.55 185.588 146.75 183.596C147.974 181.58 149.654 180.02 151.79 178.916C153.926 177.788 156.326 177.224 158.99 177.224C161.438 177.224 163.622 177.656 165.542 178.52C167.462 179.384 169.046 180.632 170.294 182.264L164.93 187.052C163.37 185.084 161.534 184.1 159.422 184.1C157.646 184.1 156.218 184.676 155.138 185.828C154.058 186.956 153.518 188.48 153.518 190.4C153.518 192.32 154.058 193.856 155.138 195.008C156.218 196.136 157.646 196.7 159.422 196.7C161.534 196.7 163.37 195.716 164.93 193.748L170.294 198.536C169.046 200.168 167.462 201.416 165.542 202.28C163.622 203.144 161.438 203.576 158.99 203.576ZM184.043 177.8V203H175.547V184.208H171.227V177.8H184.043Z"/></g><g opacity=".333"><path fill="#000" d="M275 80H55C49.4772 80 45 84.4772 45 90V130C45 135.523 49.4772 140 55 140H275C280.523 140 285 135.523 285 130V90C285 84.4772 280.523 80 275 80Z"/><path fill="#fff" d="M144.833 97.8H157.253C160.061 97.8 162.533 98.316 164.669 99.348C166.829 100.356 168.497 101.808 169.673 103.704C170.873 105.6 171.473 107.832 171.473 110.4C171.473 112.968 170.873 115.2 169.673 117.096C168.497 118.992 166.829 120.456 164.669 121.488C162.533 122.496 160.061 123 157.253 123H144.833V97.8ZM156.893 116.376C158.717 116.376 160.169 115.86 161.249 114.828C162.353 113.772 162.905 112.296 162.905 110.4C162.905 108.504 162.353 107.04 161.249 106.008C160.169 104.952 158.717 104.424 156.893 104.424H153.329V116.376H156.893ZM185.168 97.8V123H176.672V104.208H172.352V97.8H185.168Z"/></g><g opacity=".333"><path fill="#000" d="M215 240H115C109.477 240 105 244.477 105 250V290C105 295.523 109.477 300 115 300H215C220.523 300 225 295.523 225 290V250C225 244.477 220.523 240 215 240Z"/><path fill="#fff" d="M165.767 269.824C167.255 270.376 168.407 271.18 169.223 272.236C170.039 273.292 170.447 274.564 170.447 276.052C170.447 278.26 169.535 279.976 167.711 281.2C165.887 282.4 163.247 283 159.791 283H145.607V257.8H159.071C162.431 257.8 164.963 258.4 166.667 259.6C168.395 260.8 169.259 262.396 169.259 264.388C169.259 265.564 168.959 266.62 168.359 267.556C167.783 268.492 166.919 269.248 165.767 269.824ZM153.959 263.74V267.484H157.919C159.767 267.484 160.691 266.86 160.691 265.612C160.691 264.364 159.767 263.74 157.919 263.74H153.959ZM159.071 277.06C160.943 277.06 161.879 276.4 161.879 275.08C161.879 273.76 160.943 273.1 159.071 273.1H153.959V277.06H159.071ZM184.394 257.8V283H175.898V264.208H171.578V257.8H184.394Z"/></g><g opacity=".333"><path fill="#000" d="M275 320H175C169.477 320 165 324.477 165 330V370C165 375.523 169.477 380 175 380H275C280.523 380 285 375.523 285 370V330C285 324.477 280.523 320 275 320Z"/><path fill="#fff" d="M223.007 358.608H213.431L211.739 363H203.099L214.115 337.8H222.467L233.483 363H224.699L223.007 358.608ZM220.667 352.488L218.219 346.152L215.771 352.488H220.667ZM244.166 337.8V363H235.67V344.208H231.35V337.8H244.166Z"/></g><g opacity=".333"><path fill="#000" d="M415 320H315C309.477 320 305 324.477 305 330V370C305 375.523 309.477 380 315 380H415C420.523 380 425 375.523 425 370V330C425 324.477 420.523 320 415 320Z"/><path fill="#fff" d="M358.771 358.608H349.195L347.503 363H338.863L349.879 337.8H358.231L369.247 363H360.463L358.771 358.608ZM356.431 352.488L353.983 346.152L351.535 352.488H356.431ZM389.755 356.412V363H369.559V357.78L378.667 349.356C379.459 348.612 379.987 347.976 380.251 347.448C380.515 346.92 380.647 346.404 380.647 345.9C380.647 345.276 380.431 344.796 379.999 344.46C379.591 344.1 378.991 343.92 378.199 343.92C377.431 343.92 376.711 344.124 376.039 344.532C375.367 344.94 374.851 345.516 374.491 346.26L368.083 343.056C369.043 341.256 370.447 339.84 372.295 338.808C374.143 337.752 376.375 337.224 378.991 337.224C380.983 337.224 382.747 337.548 384.283 338.196C385.819 338.844 387.019 339.768 387.883 340.968C388.747 342.168 389.179 343.548 389.179 345.108C389.179 346.5 388.879 347.808 388.279 349.032C387.703 350.232 386.563 351.6 384.859 353.136L381.259 356.412H389.755Z"/></g><g opacity=".333"><path fill="#000" d="M415 240H375C369.477 240 365 244.477 365 250V290C365 295.523 369.477 300 375 300H415C420.523 300 425 295.523 425 290V250C425 244.477 420.523 240 415 240Z"/><path fill="#fff" d="M392.339 269.824C393.827 270.376 394.979 271.18 395.795 272.236C396.611 273.292 397.019 274.564 397.019 276.052C397.019 278.26 396.107 279.976 394.283 281.2C392.459 282.4 389.819 283 386.363 283H372.179V257.8H385.643C389.003 257.8 391.535 258.4 393.239 259.6C394.967 260.8 395.831 262.396 395.831 264.388C395.831 265.564 395.531 266.62 394.931 267.556C394.355 268.492 393.491 269.248 392.339 269.824ZM380.531 263.74V267.484H384.491C386.339 267.484 387.263 266.86 387.263 265.612C387.263 264.364 386.339 263.74 384.491 263.74H380.531ZM385.643 277.06C387.515 277.06 388.451 276.4 388.451 275.08C388.451 273.76 387.515 273.1 385.643 273.1H380.531V277.06H385.643ZM419.175 276.412V283H398.979V277.78L408.087 269.356C408.879 268.612 409.407 267.976 409.671 267.448C409.935 266.92 410.067 266.404 410.067 265.9C410.067 265.276 409.851 264.796 409.419 264.46C409.011 264.1 408.411 263.92 407.619 263.92C406.851 263.92 406.131 264.124 405.459 264.532C404.787 264.94 404.271 265.516 403.911 266.26L397.503 263.056C398.463 261.256 399.867 259.84 401.715 258.808C403.563 257.752 405.795 257.224 408.411 257.224C410.403 257.224 412.167 257.548 413.703 258.196C415.239 258.844 416.439 259.768 417.303 260.968C418.167 262.168 418.599 263.548 418.599 265.108C418.599 266.5 418.299 267.808 417.699 269.032C417.123 270.232 415.983 271.6 414.279 273.136L410.679 276.412H419.175Z"/></g><g opacity=".333"><path fill="#000" d="M415 160H315C309.477 160 305 164.477 305 170V210C305 215.523 309.477 220 315 220H415C420.523 220 425 215.523 425 210V170C425 164.477 420.523 160 415 160Z"/><path fill="#fff" d="M355.738 203.576C353.074 203.576 350.674 203.024 348.538 201.92C346.402 200.792 344.722 199.232 343.498 197.24C342.298 195.224 341.698 192.944 341.698 190.4C341.698 187.856 342.298 185.588 343.498 183.596C344.722 181.58 346.402 180.02 348.538 178.916C350.674 177.788 353.074 177.224 355.738 177.224C358.186 177.224 360.37 177.656 362.29 178.52C364.21 179.384 365.794 180.632 367.042 182.264L361.678 187.052C360.118 185.084 358.282 184.1 356.17 184.1C354.394 184.1 352.966 184.676 351.886 185.828C350.806 186.956 350.266 188.48 350.266 190.4C350.266 192.32 350.806 193.856 351.886 195.008C352.966 196.136 354.394 196.7 356.17 196.7C358.282 196.7 360.118 195.716 361.678 193.748L367.042 198.536C365.794 200.168 364.21 201.416 362.29 202.28C360.37 203.144 358.186 203.576 355.738 203.576ZM388.647 196.412V203H368.451V197.78L377.559 189.356C378.351 188.612 378.879 187.976 379.143 187.448C379.407 186.92 379.539 186.404 379.539 185.9C379.539 185.276 379.323 184.796 378.891 184.46C378.483 184.1 377.883 183.92 377.091 183.92C376.323 183.92 375.603 184.124 374.931 184.532C374.259 184.94 373.743 185.516 373.383 186.26L366.975 183.056C367.935 181.256 369.339 179.84 371.187 178.808C373.035 177.752 375.267 177.224 377.883 177.224C379.875 177.224 381.639 177.548 383.175 178.196C384.711 178.844 385.911 179.768 386.775 180.968C387.639 182.168 388.071 183.548 388.071 185.108C388.071 186.5 387.771 187.808 387.171 189.032C386.595 190.232 385.455 191.6 383.751 193.136L380.151 196.412H388.647Z"/></g><g opacity=".333"><path fill="#000" d="M835 80H735C729.477 80 725 84.4772 725 90V130C725 135.523 729.477 140 735 140H835C840.523 140 845 135.523 845 130V90C845 84.4772 840.523 80 835 80Z"/><path fill="#fff" d="M761.036 97.8H773.456C776.264 97.8 778.736 98.316 780.872 99.348C783.032 100.356 784.7 101.808 785.876 103.704C787.076 105.6 787.676 107.832 787.676 110.4C787.676 112.968 787.076 115.2 785.876 117.096C784.7 118.992 783.032 120.456 780.872 121.488C778.736 122.496 776.264 123 773.456 123H761.036V97.8ZM773.096 116.376C774.92 116.376 776.372 115.86 777.452 114.828C778.556 113.772 779.108 112.296 779.108 110.4C779.108 108.504 778.556 107.04 777.452 106.008C776.372 104.952 774.92 104.424 773.096 104.424H769.532V116.376H773.096ZM800.067 106.692C803.595 106.692 806.187 107.436 807.843 108.924C809.523 110.388 810.363 112.32 810.363 114.72C810.363 116.304 809.943 117.768 809.103 119.112C808.287 120.432 807.015 121.512 805.287 122.352C803.559 123.168 801.411 123.576 798.843 123.576C797.067 123.576 795.291 123.384 793.515 123C791.763 122.616 790.227 122.052 788.907 121.308L791.787 115.044C792.843 115.644 793.947 116.1 795.099 116.412C796.275 116.724 797.415 116.88 798.519 116.88C799.503 116.88 800.295 116.712 800.895 116.376C801.519 116.016 801.831 115.524 801.831 114.9C801.831 114.3 801.555 113.856 801.003 113.568C800.451 113.256 799.455 113.1 798.015 113.1H790.707L791.967 97.8H808.707V104.208H798.951L798.771 106.692H800.067Z"/></g><g opacity=".333"><path fill="#000" d="M975 80H875C869.477 80 865 84.4772 865 90V130C865 135.523 869.477 140 875 140H975C980.523 140 985 135.523 985 130V90C985 84.4772 980.523 80 975 80Z"/><path fill="#fff" d="M900.281 97.8H912.701C915.509 97.8 917.981 98.316 920.117 99.348C922.277 100.356 923.945 101.808 925.121 103.704C926.321 105.6 926.921 107.832 926.921 110.4C926.921 112.968 926.321 115.2 925.121 117.096C923.945 118.992 922.277 120.456 920.117 121.488C917.981 122.496 915.509 123 912.701 123H900.281V97.8ZM912.341 116.376C914.165 116.376 915.617 115.86 916.697 114.828C917.801 113.772 918.353 112.296 918.353 110.4C918.353 108.504 917.801 107.04 916.697 106.008C915.617 104.952 914.165 104.424 912.341 104.424H908.777V116.376H912.341ZM942.695 106.692C944.231 106.692 945.659 107.028 946.979 107.7C948.299 108.372 949.355 109.32 950.147 110.544C950.939 111.768 951.335 113.172 951.335 114.756C951.335 116.508 950.879 118.056 949.967 119.4C949.079 120.744 947.855 121.776 946.295 122.496C944.735 123.216 943.007 123.576 941.111 123.576C938.687 123.576 936.563 123.108 934.739 122.172C932.939 121.236 931.535 119.844 930.527 117.996C929.519 116.148 929.015 113.88 929.015 111.192C929.015 108.312 929.591 105.816 930.743 103.704C931.919 101.592 933.551 99.984 935.639 98.88C937.751 97.776 940.199 97.224 942.983 97.224C944.495 97.224 945.935 97.404 947.303 97.764C948.671 98.1 949.835 98.58 950.795 99.204L947.735 105.144C946.487 104.256 944.963 103.812 943.163 103.812C941.699 103.812 940.487 104.184 939.527 104.928C938.591 105.648 937.979 106.704 937.691 108.096C939.011 107.16 940.679 106.692 942.695 106.692ZM940.535 117.708C941.303 117.708 941.927 117.48 942.407 117.024C942.887 116.568 943.127 115.944 943.127 115.152C943.127 114.36 942.887 113.736 942.407 113.28C941.927 112.8 941.303 112.56 940.535 112.56C939.767 112.56 939.143 112.8 938.663 113.28C938.183 113.736 937.943 114.36 937.943 115.152C937.943 115.944 938.183 116.568 938.663 117.024C939.143 117.48 939.767 117.708 940.535 117.708Z"/></g><g opacity=".333"><path fill="#000" d="M555 80H455C449.477 80 445 84.4772 445 90V130C445 135.523 449.477 140 455 140H555C560.523 140 565 135.523 565 130V90C565 84.4772 560.523 80 555 80Z"/><path fill="#fff" d="M481.388 97.8H493.808C496.616 97.8 499.088 98.316 501.224 99.348C503.384 100.356 505.052 101.808 506.228 103.704C507.428 105.6 508.028 107.832 508.028 110.4C508.028 112.968 507.428 115.2 506.228 117.096C505.052 118.992 503.384 120.456 501.224 121.488C499.088 122.496 496.616 123 493.808 123H481.388V97.8ZM493.448 116.376C495.272 116.376 496.724 115.86 497.804 114.828C498.908 113.772 499.46 112.296 499.46 110.4C499.46 108.504 498.908 107.04 497.804 106.008C496.724 104.952 495.272 104.424 493.448 104.424H489.884V116.376H493.448ZM523.743 107.772C525.687 108.252 527.175 109.128 528.207 110.4C529.263 111.648 529.791 113.16 529.791 114.936C529.791 116.448 529.371 117.864 528.531 119.184C527.715 120.48 526.443 121.536 524.715 122.352C522.987 123.168 520.839 123.576 518.271 123.576C516.495 123.576 514.719 123.384 512.943 123C511.191 122.616 509.655 122.052 508.335 121.308L511.215 115.044C512.247 115.644 513.351 116.1 514.527 116.412C515.727 116.724 516.879 116.88 517.983 116.88C518.967 116.88 519.759 116.712 520.359 116.376C520.959 116.04 521.259 115.56 521.259 114.936C521.259 113.784 520.263 113.208 518.271 113.208H514.923V107.988L518.631 104.208H509.631V97.8H528.423V103.02L523.743 107.772Z"/></g><g opacity=".333"><path fill="#000" d="M695 80H595C589.477 80 585 84.4772 585 90V130C585 135.523 589.477 140 595 140H695C700.523 140 705 135.523 705 130V90C705 84.4772 700.523 80 695 80Z"/><path fill="#fff" d="M619.366 97.8H631.786C634.594 97.8 637.066 98.316 639.202 99.348C641.362 100.356 643.03 101.808 644.206 103.704C645.406 105.6 646.006 107.832 646.006 110.4C646.006 112.968 645.406 115.2 644.206 117.096C643.03 118.992 641.362 120.456 639.202 121.488C637.066 122.496 634.594 123 631.786 123H619.366V97.8ZM631.426 116.376C633.25 116.376 634.702 115.86 635.782 114.828C636.886 113.772 637.438 112.296 637.438 110.4C637.438 108.504 636.886 107.04 635.782 106.008C634.702 104.952 633.25 104.424 631.426 104.424H627.862V116.376H631.426ZM672.545 118.68H669.197V123H660.953V118.68H647.885V113.28L658.577 97.8H667.289L657.785 112.092H661.205V108.24H669.197V112.092H672.545V118.68Z"/></g><g opacity=".333"><path fill="#000" d="M415 80H315C309.477 80 305 84.4772 305 90V130C305 135.523 309.477 140 315 140H415C420.523 140 425 135.523 425 130V90C425 84.4772 420.523 80 415 80Z"/><path fill="#fff" d="M341.406 97.8H353.826C356.634 97.8 359.106 98.316 361.242 99.348C363.402 100.356 365.07 101.808 366.246 103.704C367.446 105.6 368.046 107.832 368.046 110.4C368.046 112.968 367.446 115.2 366.246 117.096C365.07 118.992 363.402 120.456 361.242 121.488C359.106 122.496 356.634 123 353.826 123H341.406V97.8ZM353.466 116.376C355.29 116.376 356.742 115.86 357.822 114.828C358.926 113.772 359.478 112.296 359.478 110.4C359.478 108.504 358.926 107.04 357.822 106.008C356.742 104.952 355.29 104.424 353.466 104.424H349.902V116.376H353.466ZM389.948 116.412V123H369.752V117.78L378.86 109.356C379.652 108.612 380.18 107.976 380.444 107.448C380.708 106.92 380.84 106.404 380.84 105.9C380.84 105.276 380.624 104.796 380.192 104.46C379.784 104.1 379.184 103.92 378.392 103.92C377.624 103.92 376.904 104.124 376.232 104.532C375.56 104.94 375.044 105.516 374.684 106.26L368.276 103.056C369.236 101.256 370.64 99.84 372.488 98.808C374.336 97.752 376.568 97.224 379.184 97.224C381.176 97.224 382.94 97.548 384.476 98.196C386.012 98.844 387.212 99.768 388.076 100.968C388.94 102.168 389.372 103.548 389.372 105.108C389.372 106.5 389.072 107.808 388.472 109.032C387.896 110.232 386.756 111.6 385.052 113.136L381.452 116.412H389.948Z"/></g><g clip-path="url(#clip0)"><path fill="#ED1B2D" d="M315 635.011L295.004 620.022L275 635.011L295.012 650L315 635.011Z"/><path fill="#fff" d="M287.463 641.601V628.417H292.683L295.008 636.638L297.334 628.417H302.55V641.601H298.668V637.572L298.726 635.521L298.947 633.138H298.906L296.511 641.601H293.506L291.106 633.138H291.07L291.254 635.083L291.344 637.134V641.601H287.463Z"/></g><g clip-path="url(#clip1)"><path fill="#ED1B2D" d="M1075 635.011L1055 620.022L1035 635.011L1055.01 650L1075 635.011Z"/><path fill="#fff" d="M1047.46 641.601V628.417H1052.68L1055.01 636.638L1057.33 628.417H1062.55V641.601H1058.67V637.572L1058.73 635.521L1058.95 633.138H1058.91L1056.51 641.601H1053.51L1051.11 633.138H1051.07L1051.25 635.083L1051.34 637.134V641.601H1047.46Z"/></g><path fill="#F1832D" d="M355 620H325V650H355V620Z"/><path fill="#fff" d="M329.598 623.944H333.089V636.908H340.843V639.848H329.598V623.944Z"/><path fill="#fff" d="M344.013 635.835C344.117 636.353 344.354 636.805 344.725 637.19C345.096 637.575 345.555 637.767 346.104 637.767C346.682 637.767 347.157 637.601 347.527 637.267C347.898 636.933 348.195 636.525 348.417 636.042C348.64 635.56 348.799 635.045 348.896 634.496C348.992 633.947 349.055 633.457 349.085 633.027L349.037 632.982C348.607 633.608 348.102 634.054 347.523 634.322C346.943 634.591 346.275 634.724 345.518 634.724C344.85 634.724 344.196 634.58 343.558 634.29C342.919 634.001 342.377 633.611 341.932 633.121C341.516 632.646 341.212 632.103 341.019 631.495C340.826 630.886 340.729 630.27 340.729 629.646C340.729 628.845 340.859 628.098 341.119 627.408C341.379 626.718 341.75 626.116 342.233 625.604C342.715 625.092 343.291 624.687 343.959 624.39C344.628 624.093 345.37 623.944 346.187 623.944C347.36 623.944 348.333 624.178 349.105 624.646C349.877 625.114 350.494 625.73 350.954 626.495C351.415 627.259 351.734 628.124 351.912 629.089C352.09 630.054 352.179 631.027 352.179 632.006C352.179 632.957 352.068 633.918 351.846 634.89C351.623 635.863 351.267 636.739 350.777 637.518C350.287 638.298 349.656 638.933 348.885 639.423C348.113 639.912 347.17 640.157 346.057 640.157C344.707 640.157 343.572 639.782 342.651 639.032C341.731 638.282 341.182 637.216 341.004 635.835H344.013V635.835ZM346.276 632.334C346.691 632.334 347.059 632.257 347.378 632.101C347.697 631.946 347.961 631.735 348.169 631.468C348.377 631.202 348.532 630.894 348.636 630.546C348.74 630.198 348.793 629.831 348.793 629.446C348.793 629.091 348.737 628.739 348.625 628.391C348.514 628.043 348.351 627.732 348.135 627.458C347.92 627.184 347.656 626.965 347.345 626.802C347.033 626.639 346.676 626.558 346.276 626.558C345.89 626.558 345.552 626.639 345.262 626.802C344.973 626.965 344.724 627.18 344.516 627.447C344.308 627.713 344.152 628.017 344.048 628.358C343.944 628.698 343.893 629.046 343.893 629.402C343.893 629.772 343.941 630.131 344.037 630.479C344.134 630.827 344.279 631.139 344.471 631.413C344.664 631.687 344.913 631.909 345.218 632.079C345.522 632.249 345.875 632.334 346.276 632.334Z"/><path fill="#fff" d="M329.385 644.53L330.159 644.454C330.205 644.714 330.299 644.905 330.441 645.026C330.584 645.148 330.776 645.209 331.018 645.209C331.274 645.209 331.467 645.155 331.596 645.048C331.726 644.939 331.792 644.812 331.792 644.667C331.792 644.574 331.764 644.495 331.708 644.43C331.655 644.364 331.56 644.307 331.424 644.258C331.331 644.226 331.118 644.169 330.787 644.087C330.361 643.981 330.062 643.851 329.89 643.697C329.649 643.481 329.528 643.216 329.528 642.905C329.528 642.704 329.584 642.517 329.697 642.344C329.811 642.168 329.975 642.035 330.188 641.943C330.403 641.852 330.662 641.807 330.964 641.807C331.459 641.807 331.83 641.915 332.079 642.131C332.33 642.348 332.461 642.637 332.474 642.999L331.679 643.034C331.645 642.832 331.571 642.686 331.459 642.599C331.348 642.509 331.18 642.464 330.956 642.464C330.725 642.464 330.545 642.512 330.414 642.607C330.33 642.668 330.288 642.749 330.288 642.851C330.288 642.944 330.327 643.024 330.406 643.09C330.506 643.174 330.75 643.262 331.136 643.353C331.523 643.445 331.809 643.54 331.993 643.638C332.179 643.735 332.324 643.868 332.428 644.038C332.534 644.207 332.587 644.415 332.587 644.664C332.587 644.89 332.524 645.101 332.399 645.298C332.273 645.495 332.096 645.641 331.867 645.738C331.638 645.833 331.352 645.88 331.01 645.88C330.512 645.88 330.13 645.766 329.863 645.537C329.597 645.306 329.437 644.97 329.385 644.53ZM335.127 645.811V645.384C335.023 645.536 334.886 645.656 334.716 645.744C334.548 645.831 334.37 645.875 334.182 645.875C333.99 645.875 333.818 645.833 333.666 645.749C333.514 645.665 333.404 645.547 333.336 645.394C333.268 645.242 333.234 645.032 333.234 644.763V642.959H333.988V644.269C333.988 644.67 334.002 644.916 334.029 645.008C334.057 645.097 334.108 645.169 334.182 645.223C334.255 645.274 334.348 645.3 334.461 645.3C334.59 645.3 334.705 645.266 334.807 645.196C334.91 645.124 334.979 645.036 335.017 644.932C335.055 644.827 335.073 644.57 335.073 644.162V642.959H335.828V645.811H335.127ZM339.228 645.811H338.527V645.392C338.411 645.555 338.273 645.676 338.113 645.757C337.956 645.836 337.796 645.875 337.635 645.875C337.308 645.875 337.027 645.744 336.792 645.48C336.559 645.215 336.443 644.847 336.443 644.374C336.443 643.891 336.557 643.523 336.784 643.273C337.011 643.02 337.299 642.894 337.646 642.894C337.965 642.894 338.241 643.027 338.473 643.292V641.874H339.228V645.811ZM337.214 644.323C337.214 644.627 337.256 644.847 337.34 644.984C337.462 645.18 337.632 645.279 337.85 645.279C338.024 645.279 338.172 645.206 338.293 645.059C338.415 644.91 338.476 644.689 338.476 644.395C338.476 644.068 338.417 643.832 338.299 643.689C338.181 643.544 338.029 643.472 337.845 643.472C337.666 643.472 337.515 643.543 337.394 643.686C337.274 643.828 337.214 644.04 337.214 644.323Z"/><g clip-path="url(#clip2)"><path fill="#53B955" d="M1115 620H1085V650H1115V620Z"/><path fill="#fff" d="M1089.75 626.587V642.491H1101V639.551H1093.25V626.587H1089.75Z"/><path fill="#fff" d="M1104.98 633.148V635.376C1105.36 635.376 1105.77 635.391 1106.18 635.42C1106.61 635.435 1107.01 635.517 1107.36 635.665C1107.72 635.799 1108.01 636.022 1108.23 636.334C1108.47 636.645 1108.59 637.098 1108.59 637.692C1108.59 638.45 1108.34 639.051 1107.85 639.497C1107.36 639.927 1106.76 640.143 1106.05 640.143C1105.59 640.143 1105.19 640.061 1104.84 639.898C1104.52 639.734 1104.24 639.519 1104.02 639.252C1103.8 638.969 1103.63 638.643 1103.51 638.272C1103.39 637.885 1103.32 637.484 1103.31 637.069H1100.3C1100.29 637.975 1100.41 638.776 1100.68 639.474C1100.96 640.172 1101.35 640.766 1101.86 641.256C1102.36 641.732 1102.97 642.095 1103.69 642.348C1104.41 642.6 1105.22 642.727 1106.09 642.727C1106.85 642.727 1107.58 642.615 1108.28 642.392C1108.97 642.17 1109.59 641.843 1110.12 641.412C1110.66 640.982 1111.08 640.447 1111.39 639.808C1111.72 639.17 1111.88 638.442 1111.88 637.626C1111.88 636.735 1111.64 635.97 1111.15 635.331C1110.66 634.693 1109.98 634.277 1109.12 634.084V634.039C1109.85 633.831 1110.39 633.438 1110.75 632.859C1111.12 632.28 1111.3 631.611 1111.3 630.854C1111.3 630.156 1111.15 629.54 1110.84 629.005C1110.52 628.471 1110.12 628.018 1109.61 627.646C1109.12 627.275 1108.56 627 1107.94 626.822C1107.32 626.629 1106.69 626.533 1106.07 626.533C1105.27 626.533 1104.54 626.666 1103.89 626.934C1103.23 627.186 1102.67 627.55 1102.19 628.025C1101.73 628.5 1101.37 629.072 1101.1 629.74C1100.85 630.394 1100.71 631.121 1100.68 631.923H1103.69C1103.67 631.121 1103.86 630.46 1104.27 629.941C1104.68 629.406 1105.29 629.139 1106.09 629.139C1106.67 629.139 1107.18 629.317 1107.63 629.673C1108.07 630.03 1108.3 630.542 1108.3 631.21C1108.3 631.656 1108.19 632.012 1107.96 632.28C1107.76 632.547 1107.48 632.755 1107.14 632.903C1106.81 633.037 1106.46 633.119 1106.07 633.148C1105.68 633.178 1105.32 633.178 1104.98 633.148Z"/></g><path fill="#000" d="M778.968 525.288C776.448 525.288 774.168 524.736 772.128 523.632C770.112 522.504 768.528 520.968 767.376 519.024C766.224 517.056 765.648 514.848 765.648 512.4C765.648 509.952 766.224 507.756 767.376 505.812C768.528 503.844 770.124 502.308 772.164 501.204C774.204 500.076 776.484 499.512 779.004 499.512C780.972 499.512 782.772 499.848 784.404 500.52C786.036 501.168 787.428 502.14 788.58 503.436L786.24 505.704C784.344 503.712 781.98 502.716 779.148 502.716C777.276 502.716 775.584 503.136 774.072 503.976C772.56 504.816 771.372 505.98 770.508 507.468C769.668 508.932 769.248 510.576 769.248 512.4C769.248 514.224 769.668 515.88 770.508 517.368C771.372 518.832 772.56 519.984 774.072 520.824C775.584 521.664 777.276 522.084 779.148 522.084C781.956 522.084 784.32 521.076 786.24 519.06L788.58 521.328C787.428 522.624 786.024 523.608 784.368 524.28C782.736 524.952 780.936 525.288 778.968 525.288ZM815.388 499.8V525H811.788V513.768H797.316V525H793.716V499.8H797.316V510.636H811.788V499.8H815.388ZM841.218 521.868V525H822.93V499.8H840.714V502.932H826.53V510.672H839.166V513.732H826.53V521.868H841.218ZM858.21 525.288C855.69 525.288 853.41 524.736 851.37 523.632C849.354 522.504 847.77 520.968 846.618 519.024C845.466 517.056 844.89 514.848 844.89 512.4C844.89 509.952 845.466 507.756 846.618 505.812C847.77 503.844 849.366 502.308 851.406 501.204C853.446 500.076 855.726 499.512 858.246 499.512C860.214 499.512 862.014 499.848 863.646 500.52C865.278 501.168 866.67 502.14 867.822 503.436L865.482 505.704C863.586 503.712 861.222 502.716 858.39 502.716C856.518 502.716 854.826 503.136 853.314 503.976C851.802 504.816 850.614 505.98 849.75 507.468C848.91 508.932 848.49 510.576 848.49 512.4C848.49 514.224 848.91 515.88 849.75 517.368C850.614 518.832 851.802 519.984 853.314 520.824C854.826 521.664 856.518 522.084 858.39 522.084C861.198 522.084 863.562 521.076 865.482 519.06L867.822 521.328C866.67 522.624 865.266 523.608 863.61 524.28C861.978 524.952 860.178 525.288 858.21 525.288ZM881.166 513.804L876.558 518.484V525H872.958V499.8H876.558V513.876L890.238 499.8H894.342L883.578 511.14L895.026 525H890.814L881.166 513.804ZM908.501 499.8H912.101V525H908.501V499.8ZM941.317 499.8V525H938.365L923.245 506.208V525H919.645V499.8H922.597L937.717 518.592V499.8H941.317Z"/><path fill="#000" d="M417.483 670.288C415.587 670.288 413.751 670 411.975 669.424C410.223 668.824 408.843 668.056 407.835 667.12L409.167 664.312C410.127 665.176 411.351 665.884 412.839 666.436C414.351 666.964 415.899 667.228 417.483 667.228C419.571 667.228 421.131 666.88 422.163 666.184C423.195 665.464 423.711 664.516 423.711 663.34C423.711 662.476 423.423 661.78 422.847 661.252C422.295 660.7 421.599 660.28 420.759 659.992C419.943 659.704 418.779 659.38 417.267 659.02C415.371 658.564 413.835 658.108 412.659 657.652C411.507 657.196 410.511 656.5 409.671 655.564C408.855 654.604 408.447 653.32 408.447 651.712C408.447 650.368 408.795 649.156 409.491 648.076C410.211 646.996 411.291 646.132 412.731 645.484C414.171 644.836 415.959 644.512 418.095 644.512C419.583 644.512 421.047 644.704 422.487 645.088C423.927 645.472 425.163 646.024 426.195 646.744L425.007 649.624C423.951 648.952 422.823 648.448 421.623 648.112C420.423 647.752 419.247 647.572 418.095 647.572C416.055 647.572 414.519 647.944 413.487 648.688C412.479 649.432 411.975 650.392 411.975 651.568C411.975 652.432 412.263 653.14 412.839 653.692C413.415 654.22 414.123 654.64 414.963 654.952C415.827 655.24 416.991 655.552 418.455 655.888C420.351 656.344 421.875 656.8 423.027 657.256C424.179 657.712 425.163 658.408 425.979 659.344C426.819 660.28 427.239 661.54 427.239 663.124C427.239 664.444 426.879 665.656 426.159 666.76C425.439 667.84 424.347 668.704 422.883 669.352C421.419 669.976 419.619 670.288 417.483 670.288ZM454.171 644.8V670H450.571V658.768H436.099V670H432.499V644.8H436.099V655.636H450.571V644.8H454.171ZM473.09 670.288C470.546 670.288 468.254 669.736 466.214 668.632C464.174 667.504 462.566 665.956 461.39 663.988C460.238 662.02 459.662 659.824 459.662 657.4C459.662 654.976 460.238 652.78 461.39 650.812C462.566 648.844 464.174 647.308 466.214 646.204C468.254 645.076 470.546 644.512 473.09 644.512C475.61 644.512 477.89 645.076 479.93 646.204C481.97 647.308 483.566 648.844 484.718 650.812C485.87 652.756 486.446 654.952 486.446 657.4C486.446 659.848 485.87 662.056 484.718 664.024C483.566 665.968 481.97 667.504 479.93 668.632C477.89 669.736 475.61 670.288 473.09 670.288ZM473.09 667.084C474.938 667.084 476.594 666.664 478.058 665.824C479.546 664.984 480.71 663.832 481.55 662.368C482.414 660.88 482.846 659.224 482.846 657.4C482.846 655.576 482.414 653.932 481.55 652.468C480.71 650.98 479.546 649.816 478.058 648.976C476.594 648.136 474.938 647.716 473.09 647.716C471.242 647.716 469.562 648.136 468.05 648.976C466.562 649.816 465.386 650.98 464.522 652.468C463.682 653.932 463.262 655.576 463.262 657.4C463.262 659.224 463.682 660.88 464.522 662.368C465.386 663.832 466.562 664.984 468.05 665.824C469.562 666.664 471.242 667.084 473.09 667.084ZM526.743 644.8L518.319 670H514.539L507.663 649.876L500.787 670H496.935L488.511 644.8H492.219L499.023 665.284L506.115 644.8H509.427L516.375 665.392L523.323 644.8H526.743ZM549.435 666.868V670H531.147V644.8H548.931V647.932H534.747V655.672H547.383V658.732H534.747V666.868H549.435ZM572.112 670L566.676 662.26C566.004 662.308 565.476 662.332 565.092 662.332H558.864V670H555.264V644.8H565.092C568.356 644.8 570.924 645.58 572.796 647.14C574.668 648.7 575.604 650.848 575.604 653.584C575.604 655.528 575.124 657.184 574.164 658.552C573.204 659.92 571.836 660.916 570.06 661.54L576.036 670H572.112ZM564.984 659.272C567.264 659.272 569.004 658.78 570.204 657.796C571.404 656.812 572.004 655.408 572.004 653.584C572.004 651.76 571.404 650.368 570.204 649.408C569.004 648.424 567.264 647.932 564.984 647.932H558.864V659.272H564.984ZM588.765 670.288C586.869 670.288 585.033 670 583.257 669.424C581.505 668.824 580.125 668.056 579.117 667.12L580.449 664.312C581.409 665.176 582.633 665.884 584.121 666.436C585.633 666.964 587.181 667.228 588.765 667.228C590.853 667.228 592.413 666.88 593.445 666.184C594.477 665.464 594.993 664.516 594.993 663.34C594.993 662.476 594.705 661.78 594.129 661.252C593.577 660.7 592.881 660.28 592.041 659.992C591.225 659.704 590.061 659.38 588.549 659.02C586.653 658.564 585.117 658.108 583.941 657.652C582.789 657.196 581.793 656.5 580.953 655.564C580.137 654.604 579.729 653.32 579.729 651.712C579.729 650.368 580.077 649.156 580.773 648.076C581.493 646.996 582.573 646.132 584.013 645.484C585.453 644.836 587.241 644.512 589.377 644.512C590.865 644.512 592.329 644.704 593.769 645.088C595.209 645.472 596.445 646.024 597.477 646.744L596.289 649.624C595.233 648.952 594.105 648.448 592.905 648.112C591.705 647.752 590.529 647.572 589.377 647.572C587.337 647.572 585.801 647.944 584.769 648.688C583.761 649.432 583.257 650.392 583.257 651.568C583.257 652.432 583.545 653.14 584.121 653.692C584.697 654.22 585.405 654.64 586.245 654.952C587.109 655.24 588.273 655.552 589.737 655.888C591.633 656.344 593.157 656.8 594.309 657.256C595.461 657.712 596.445 658.408 597.261 659.344C598.101 660.28 598.521 661.54 598.521 663.124C598.521 664.444 598.161 665.656 597.441 666.76C596.721 667.84 595.629 668.704 594.165 669.352C592.701 669.976 590.901 670.288 588.765 670.288Z"/><path stroke="#000" stroke-width="4" d="M855 465L845 475M855 465L865 475M855 465V495"/><path fill="red" d="M855 460C871.569 460 885 446.569 885 430H825C825 446.569 838.431 460 855 460Z" opacity=".66"/><path stroke="#222" stroke-linecap="square" stroke-width="10" d="M1030 95V425M45 425H980"/><path stroke="#000" stroke-dasharray="10 10" stroke-width="20" d="M1077 530L1077 580" opacity=".75"/><path fill="#000" d="M1104.26 546.2C1105.75 546.2 1107.04 546.448 1108.13 546.944C1109.23 547.44 1110.08 548.144 1110.67 549.056C1111.26 549.968 1111.56 551.048 1111.56 552.296C1111.56 553.528 1111.26 554.608 1110.67 555.536C1110.08 556.448 1109.23 557.152 1108.13 557.648C1107.04 558.128 1105.75 558.368 1104.26 558.368H1100.88V563H1096.99V546.2H1104.26ZM1104.05 555.2C1105.22 555.2 1106.1 554.952 1106.71 554.456C1107.32 553.944 1107.62 553.224 1107.62 552.296C1107.62 551.352 1107.32 550.632 1106.71 550.136C1106.1 549.624 1105.22 549.368 1104.05 549.368H1100.88V555.2H1104.05ZM1124.56 559.4H1116.76L1115.27 563H1111.28L1118.77 546.2H1122.61L1130.12 563H1126.04L1124.56 559.4ZM1123.33 556.448L1120.67 550.016L1118 556.448H1123.33ZM1134.5 549.368H1129.13V546.2H1143.77V549.368H1138.39V563H1134.5V549.368ZM1161.27 546.2V563H1157.38V556.112H1149.75V563H1145.86V546.2H1149.75V552.824H1157.38V546.2H1161.27Z" opacity=".75"/><path stroke="#000" stroke-width="10" d="M1077 460L1077 510" opacity=".75"/><path fill="#000" d="M1122.38 476.2L1116.89 493H1112.71L1109.02 481.624L1105.2 493H1101.05L1095.53 476.2H1099.56L1103.35 488.008L1107.31 476.2H1110.91L1114.75 488.104L1118.66 476.2H1122.38ZM1135.06 489.4H1127.26L1125.77 493H1121.78L1129.27 476.2H1133.11L1140.62 493H1136.54L1135.06 489.4ZM1133.83 486.448L1131.17 480.016L1128.5 486.448H1133.83ZM1142.37 476.2H1146.26V489.832H1154.68V493H1142.37V476.2ZM1156.85 476.2H1160.74V489.832H1169.16V493H1156.85V476.2Z" opacity=".75"/><rect width="133" height="155" x="1049.5" y="442.5" stroke="#000" stroke-width="5" opacity=".25" rx="7.5"/><path fill="#000" d="M572.929 604.433H540V611.109H572.929V604.433Z"/><path fill="#000" d="M573.876 575H570.497C562.349 575 555.623 581.203 554.793 589.135C548.6 589.885 543.657 594.757 542.8 600.917H570.129C569.28 594.822 564.433 589.988 558.331 589.16C559.131 583.16 564.281 578.516 570.497 578.516H573.876C580.644 578.516 586.151 584.022 586.151 590.791V646H589.666V590.791C589.666 582.084 582.583 575 573.876 575Z"/><path fill="#000" d="M547.119 614.738H543.604V618.731H547.119V614.738Z"/><path fill="#000" d="M547.119 622.238H543.604V626.231H547.119V622.238Z"/><path fill="#000" d="M547.119 629.738H543.604V633.731H547.119V629.738Z"/><path fill="#000" d="M554.51 614.738H550.995V618.731H554.51V614.738Z"/><path fill="#000" d="M554.51 622.238H550.995V626.231H554.51V622.238Z"/><path fill="#000" d="M554.51 629.738H550.995V633.731H554.51V629.738Z"/><path fill="#000" d="M561.901 614.738H558.386V618.731H561.901V614.738Z"/><path fill="#000" d="M561.901 622.238H558.386V626.231H561.901V622.238Z"/><path fill="#000" d="M561.901 629.738H558.386V633.731H561.901V629.738Z"/><path fill="#000" d="M569.292 614.738H565.777V618.731H569.292V614.738Z"/><path fill="#000" d="M569.292 622.238H565.777V626.231H569.292V622.238Z"/><path fill="#000" d="M569.292 629.738H565.777V633.731H569.292V629.738Z"/><path fill="#000" d="M620 690L602.679 660L637.321 660L620 690Z"/><path fill="#000" d="M190.858 684.142L199.824 650.681L224.319 675.176L190.858 684.142Z"/><path fill="#000" d="M1005 690L987.679 660L1022.32 660L1005 690Z"/><defs><clipPath id="clip0"><rect width="40" height="30" fill="#fff" transform="translate(275 620)"/></clipPath><clipPath id="clip1"><rect width="40" height="30" fill="#fff" transform="translate(1035 620)"/></clipPath><clipPath id="clip2"><rect width="30" height="30" fill="#fff" transform="translate(1085 620)"/></clipPath></defs></svg>