<svg xmlns="http://www.w3.org/2000/svg" viewBox="0 0 255.23 293.68"><defs><style>.cls-1{fill:#6494bd;}</style></defs><title>Recurso 1</title><g id="Capa_2" data-name="Capa 2"><g id="Capa_1-2" data-name="Capa 1"><path class="cls-1" d="M255.23,117.13c.08-3.92-1.35-4.73-4.93-4.67-12,.2-24-.16-36,.19-5,.15-6.17-1.61-6-6.28.31-11.32,0-22.65.16-34,0-3.19-1-4.49-4.29-4.46-12.16.12-24.32.14-36.48,0-3.48,0-4.65,1.17-4.6,4.65.16,11.49-.14,23,.16,34.48.12,4.53-1.45,5.65-5.74,5.57-12.66-.25-25.32-.09-38-.09-12.17,0-24.33,0-36.49,0a45,45,0,0,1-11.86-1.39C56,107.05,44.74,91.24,46.46,76.61,48.52,59.1,61.94,46.22,79,45.83c11.49-.27,23-.22,34.49,0,4,.08,5.61-1,5.48-5.27-.28-9.16-.09-18.33-.09-27.49,0-13.09,0-13.25-12.93-13C91.3.29,76.66-1,62.13,2.31,4.39,15.33-18.75,85.86,20.2,130.55c6.25,7.16,6.25,7.16.39,14.57-.83,1-1.64,2.1-2.46,3.15-37.24,48.19-14.4,121.37,43.79,139.45,22.13,6.88,44.82,7.3,67.7,3.83,46.61-7.07,78.66-44.06,78.75-91.22,0-12.49.16-25-.08-37.48-.07-4,1.3-5.12,5.18-5,12.33.22,24.66-.05,37,.17,3.81.07,4.83-1.18,4.77-4.86C255,141.12,255,129.12,255.23,117.13Zm-92.85,90.66c-3,21.61-18.35,35.71-40.35,38.78a129.11,129.11,0,0,1-40.72-.75C63,242.57,44.15,224.87,45.83,198.94a44.07,44.07,0,0,1,38.83-40.42c13.28-1.47,26.61-.14,37.21-.64,14,0,25.34,0,36.66,0,2.17,0,4.62-.31,4.57,3C162.83,176.55,164.55,192.3,162.38,207.79Z"/></g></g></svg>