<svg xmlns="http://www.w3.org/2000/svg" viewBox="0 0 826.67 357"><defs><style>.cls-1{fill:#4295c0;}</style></defs><title>Recurso 2</title><g id="Capa_2" data-name="Capa 2"><g id="Capa_1-2" data-name="Capa 1"><g id="Capa_1-2-2" data-name="Capa 1-2"><path class="cls-1" d="M310.26,142.38c.09-4.76-1.64-5.75-6-5.67-14.58.24-29.17-.2-43.76.23-6.08.18-7.5-2-7.29-7.64.38-13.76,0-27.53.19-41.33,0-3.88-1.21-5.46-5.21-5.42q-22.17.23-44.35,0c-4.23,0-5.65,1.42-5.59,5.65.2,14-.17,28,.2,41.92.14,5.5-1.77,6.87-7,6.77-15.39-.31-30.78-.11-46.19-.11H100.92a54.76,54.76,0,0,1-14.42-1.69c-18.43-5-32.11-24.18-30-42C59,71.84,75.29,56.18,96,55.71c14-.33,28-.27,41.93,0,4.86.1,6.82-1.21,6.66-6.41-.34-11.13-.11-22.28-.11-33.41,0-15.91,0-16.11-15.72-15.81C111,.35,93.19-1.22,75.52,2.81,5.34,18.63-22.79,104.37,24.55,158.7c7.6,8.7,7.6,8.7.48,17.71-1,1.21-2,2.55-3,3.83C-23.23,238.82,4.53,327.77,75.27,349.75c26.9,8.37,54.48,8.88,82.3,4.66,56.65-8.6,95.61-53.56,95.72-110.89,0-15.18.2-30.39-.09-45.56-.09-4.86,1.58-6.22,6.29-6.08,15,.27,30-.06,45,.21,4.63.08,5.87-1.44,5.8-5.91Q309.84,164.24,310.26,142.38ZM197.39,252.59c-3.65,26.27-22.31,43.41-49,47.14a156.88,156.88,0,0,1-49.5-.91c-22.26-3.95-45.17-25.47-43.13-57a53.57,53.57,0,0,1,47.2-49.13c16.14-1.79,32.35-.17,45.23-.78h44.57c2.64,0,5.61-.38,5.55,3.65-.32,19,1.77,38.19-.87,57Z"/></g><path class="cls-1" d="M471.41,251.56q-15.35,7.43-40,7.43-32.24,0-50.69-19t-18.45-50.49q0-33.59,20.75-54.49t53.86-20.9q20.51,0,34.57,5.18v30.37q-14.07-8.4-32-8.4-19.72,0-31.83,12.4t-12.11,33.6q0,20.31,11.43,32.37t30.76,12.06a65.64,65.64,0,0,0,33.79-9Z"/><path class="cls-1" d="M601.58,142.19H552.16v34.37h45.41v25.59H552.16v54.39H520.62v-140h81Z"/><path class="cls-1" d="M681,256.54H649.42v-140H681Z"/><path class="cls-1" d="M731.16,251.17V219.92a59.95,59.95,0,0,0,38.57,14.26,45,45,0,0,0,10.4-1.07,24.4,24.4,0,0,0,7.42-3,13,13,0,0,0,4.45-4.49,11.3,11.3,0,0,0,1.46-5.62,12.15,12.15,0,0,0-2.34-7.32,25.16,25.16,0,0,0-6.4-6,66.83,66.83,0,0,0-9.62-5.27q-5.57-2.55-12-5.18-16.41-6.84-24.46-16.7t-8.06-23.83q0-10.94,4.4-18.8a37.29,37.29,0,0,1,12-12.93,53.62,53.62,0,0,1,17.53-7.48,90.32,90.32,0,0,1,21.09-2.39,126.79,126.79,0,0,1,19.39,1.32,76.42,76.42,0,0,1,15.57,4v29.2a47.19,47.19,0,0,0-7.66-4.29,60.09,60.09,0,0,0-8.55-3.08,65.61,65.61,0,0,0-8.74-1.81,61.86,61.86,0,0,0-8.25-.58,43.3,43.3,0,0,0-9.77,1,25.53,25.53,0,0,0-7.42,2.88,14.22,14.22,0,0,0-4.68,4.45,10.49,10.49,0,0,0-1.66,5.81,11.09,11.09,0,0,0,1.85,6.3,21.37,21.37,0,0,0,5.27,5.27,55.5,55.5,0,0,0,8.31,4.88q4.88,2.4,11,4.93A124.83,124.83,0,0,1,805.33,182a53.72,53.72,0,0,1,11.47,8.94,34.9,34.9,0,0,1,7.33,11.38,40.24,40.24,0,0,1,2.54,14.89q0,11.72-4.45,19.68a36.1,36.1,0,0,1-12.06,12.89,52.18,52.18,0,0,1-17.72,7.08A102.6,102.6,0,0,1,771.1,259a118.77,118.77,0,0,1-21.92-2A65.88,65.88,0,0,1,731.16,251.17Z"/></g></g></svg>