<svg xmlns="http://www.w3.org/2000/svg" xmlns:xlink="http://www.w3.org/1999/xlink" id="Layer_1" width="735.472" height="110.377" x="0" y="0" enable-background="new 0 0 735.472 110.377" version="1.1" viewBox="0 0 735.472 110.377" xml:space="preserve"><g><path fill="#00A6D1" fill-rule="evenodd" d="M21.262,81.812c0.32-3.59,2.17-4.2,5.45-4.16 c16.75,0.17,33.49,0.09,50.24,0.07c7.49-0.01,15,0.34,22.45-0.65c6.08-0.81,11.79-2.39,15.06-8.33c-1-9.16-1.91-18.33-3.08-27.48 c-0.48-3.78-0.05-7.76-2.12-11.25c-1.74-0.2-3.47-0.57-5.2-0.57c-22.12-0.07-44.24-0.5-66.34,0.04 c-15.49,0.38-21.62,5.58-26.14,20.45c-3.27,10.73-5.91,21.65-8.89,32.47c-1.16,4.22-2.23,8.439-2.61,12.81 c-0.69,8.11,2.97,12.87,11.02,14.09c2.71,0.421,5.47,0.641,8.21,0.65c23.87,0.04,47.74,0.04,71.6,0.01 c4.11,0,9.15,1.271,12.08-0.63c3.16-2.05,2.49-7.72,4.02-11.64c1.25-3.2,0.26-3.86-3.01-3.851c-25.12,0.141-50.24,0.08-75.36,0.061 c-1.62,0-3.25-0.04-4.85-0.28c-2.95-0.45-4.43-2.29-4-5.26C20.112,86.152,21.072,84.022,21.262,81.812z M27.452,58.332 c3.7-14.15,3.32-13.05,16.62-13.04c17.35,0,34.7-0.01,52.05,0c6.48,0.01,7.24,1.05,5.61,7.38c-2.13,8.3-3.02,9-11.48,9h-28.83 c-10.49,0-20.98-0.1-31.46,0.06C27.042,61.771,26.772,60.942,27.452,58.332z" clip-rule="evenodd"/><path fill="#ABC14D" fill-rule="evenodd" d="M706.977,29.842c12.334,0.237,18.03,7.52,15.448,21.155 c-2.688,14.2-6.547,28.178-11.225,41.853c-3.691,10.793-11.677,16.313-22.105,16.548c-0.567,0.329-1.191,0.313-1.817,0.313 c-18.595,0.003-37.19-0.039-55.786,0.049c-2.359,0.012-3.381-0.847-3.763-3.066c-0.553-3.207-0.807-6.438-1.068-9.67 c-0.185-2.281,0.926-3.514,3.233-3.658c1.372-0.087,2.744-0.076,4.117-0.076c16.598-0.004,33.197,0.003,49.795-0.009 c1.736-0.002,3.506,0.203,5.148-0.59c2.699-1.052,4.021-3.245,4.758-5.866c0.81-2.879,1.639-5.754,2.39-8.649 c1.025-3.958,0.708-4.383-3.287-4.43c-4.113-0.048-8.227-0.012-12.341-0.012c-13.337,0-26.675,0.004-40.013-0.002 c-4.608-0.003-9.218-0.067-13.817,0.381c-0.761-0.123-1.602-0.389-1.82-1.102c-1.474-4.797-2.906-9.621-1.131-14.676 c4.31-2.024,8.979-1.9,13.527-1.927c20.827-0.125,41.657-0.177,62.482,0.051c4.027,0.044,3.896-2.568,4.56-4.911 c0.674-2.38,1.698-4.999-1.888-6.12c-1.345-0.393-2.723-0.196-4.084-0.199c-24.521-0.053-49.041,0.072-73.562-0.07 c-2.709-3.268-3.604-12.088-1.579-15.576c27.466-0.205,54.932-0.035,82.396-0.089C706.058,29.493,706.535,29.582,706.977,29.842z" clip-rule="evenodd"/><path fill="#ACC14D" fill-rule="evenodd" d="M735.417,0.608c0.502,4.419-2.456,6.967-5.396,9.258 c-5.6,4.365-12.353,5.668-19.209,6.444c-1.724,0.195-3.482,0.081-5.225,0.107c-0.69,0.4-1.453,0.302-2.194,0.301 c-27.952-0.028-55.904,0.068-83.854-0.044c-2.456-3.063-1.776-6.841-2.243-10.33c-0.266-1.983-1.263-4.197,0.628-6.017 c38.565-0.188,77.13-0.03,115.694-0.081C734.244,0.247,734.867,0.237,735.417,0.608z" clip-rule="evenodd"/><path fill="#2EADAE" fill-rule="evenodd" d="M230.14,59.13c2.072-8.386,3.841-16.91,10.477-23.235 c0.351-0.334,0.784-0.582,1.179-0.871c2.633-0.851,2.559,1.328,2.822,2.735c1.111,5.969,1.403,12.046,2.217,18.058 c0.266,1.965,0.504,3.929,1.007,5.847c0.188,5.346-1.953,10.228-3.167,15.288c-0.873,3.634-1.927,7.229-2.74,10.881 c-0.413,1.855-0.713,3.762,1.395,4.939c2.034,1.172,4.667-0.157,6.562,1.576c1.654,4.975,3.125,9.963,1.061,15.196 c-4.649,0.328-9.302,0.149-13.953,0.103c-1.8-1.189-1.852-3.122-2.054-4.962c-1.464-13.343-2.726-26.707-4.427-40.023 C230.283,62.815,230.885,60.928,230.14,59.13z" clip-rule="evenodd"/><path fill="#76B976" fill-rule="evenodd" d="M380.602,29.768c1.913-0.794,3.934-0.549,5.914-0.551 c20.371-0.019,40.743,0.002,61.115-0.014c3.769-0.003,7.483,0.375,11.104,1.412c5.359,1.537,8.019,5.068,8.247,10.67 c0.326,8.045-2.521,15.477-4.602,23.018c-2.58,9.352-4.331,18.952-8.056,27.977c-2.428-1.218-2.425-3.586-2.652-5.782 c-1.011-9.78-2.226-19.538-3.224-29.319c-0.188-1.84-0.369-3.731-1.434-5.36c-0.774-2.044-0.685-4.252-1.205-6.346 c-0.31-3.569-0.924-7.105-1.176-10.681c-0.188-2.682-1.543-3.933-4.332-3.846c-3.455,0.108-6.919,0.051-10.383,0.004 c-4.641,0.141-9.276,0.13-13.912,0.012c-4.012,0.121-8.021,0.125-12.032,0.002c-4.992,0.129-9.984,0.136-14.977,0 C386.166,30.802,383.159,31.859,380.602,29.768z" clip-rule="evenodd"/><path fill="#4CB297" fill-rule="evenodd" d="M335,75.642c-2.196,8.919-3.452,18.197-9.728,25.564 c-2.308-1.852-2.302-4.574-2.56-7.131c-0.809-8.037-1.727-16.063-2.557-24.097c-0.142-1.376-0.023-2.909-1.333-3.93 c0.137-4.555,1.862-8.756,2.905-13.104c1.211-5.042,0.515-6.143-4.652-6.161c-18.603-0.062-37.206-0.006-55.809-0.043 c-1.959-0.004-4.031,0.363-5.76-1.039c1.521-3.276,4.464-1.567,6.813-1.949c5.72-0.14,11.44-0.143,17.159-0.006 c6.622-0.129,13.244-0.163,19.861,0.007c4.727-0.076,9.458-0.047,14.189-0.014c2.449,0.018,3.38-1.023,3.098-3.417 c-1.316-11.175,0.023-9.112-9.358-9.331c-3.111-0.073-6.225,0.042-9.342-0.038c-6.378,0.158-12.751,0.152-19.125,0.011 c-5.954,0.122-11.908,0.157-17.862-0.023c-1.682,0-3.43,0.28-4.77-1.141c1.771-0.812,3.667-0.584,5.511-0.586 c20.715-0.021,41.43-0.011,62.145,0.012c1.985,0.002,4-0.13,5.909,0.641c1.8,2.909,1.389,6.269,1.79,9.429 c1.334,10.508,2.243,21.067,3.651,31.569C335.39,72.45,335.67,74.074,335,75.642z" clip-rule="evenodd"/><path fill="#A7C051" fill-rule="evenodd" d="M623.693,58.334c0.507,4.459,1.035,8.915,1.506,13.378 c0.107,1.025,0.572,1.557,1.569,1.665c-1.108,4.193-3.06,8.1-4.042,12.349c-1.303,5.64-0.61,6.698,5.208,6.71 c18.599,0.036,37.197-0.01,55.796,0.043c2.04,0.006,4.297-0.565,5.963,1.314c-1.225,0.932-2.649,0.538-3.985,0.54 c-17.971,0.025-35.94,0.061-53.911-0.023c-3.119-0.014-5.1,0.073-3.785,4.219c0.719,2.269,0.771,4.936,0.777,7.349 c0.009,3.345,1.584,3.515,4.148,3.505c17.221-0.067,34.442-0.037,51.664-0.033c1.497,0.001,2.994,0.031,4.492,0.049 c-1.512,0.826-3.166,0.584-4.771,0.586c-21.493,0.015-42.986-0.002-64.48,0.021c-2.516,0.003-4.984-0.235-7.426-0.819 c-1.859-0.934-1.984-2.802-2.195-4.474c-1.257-9.975-2.071-19.999-3.324-29.976c-0.027-0.217,0.16-0.449,0.295-0.664 C610.241,66.257,615.436,60.689,623.693,58.334z" clip-rule="evenodd"/><path fill="#0EA8C7" fill-rule="evenodd" d="M144.454,109.383l-0.356,0.038l-0.338-0.117 c-2.732-3.547-2.021-7.884-2.452-11.861c-1.621-14.958-3.364-29.905-4.992-44.863c-0.252-2.322,0.08-4.701-0.66-6.971 c2.043-8.149,3.762-16.394,6.988-24.197c0.512-1.237,1.326-2.35,2-3.52c2.917,0.445,2.737,2.979,2.97,4.891 c0.932,7.637,1.676,15.297,2.497,22.948c0.37,3.452,0.7,6.907,1.06,10.359c-2.289,8.775-4.584,17.547-6.859,26.325 c-0.343,1.322-0.653,2.659-0.883,4.005c-0.837,4.92,1,7.106,5.972,7.185c0.87,0.014,1.738,0.079,2.608,0.12 c1.704,5.16,2.942,10.362,1.459,15.817C150.458,109.723,147.448,109.998,144.454,109.383z" clip-rule="evenodd"/><path fill="#87BB69" fill-rule="evenodd" d="M521.625,88.333c0.106,1.716-0.583,3.578,0.92,5.039 c1.327,5.274,2.572,10.554,0.864,15.991c-2.098,0.567-4.198,0.539-6.3,0.024c-10.765-0.458-16.368-8.201-13.701-20.001 c2.689-11.901,6.094-23.642,9.203-35.447c0.537-2.038,1.162-4.053,1.746-6.078c3.153-0.418,2.882,2.112,3.101,3.877 c0.854,6.893,1.445,13.815,2.256,20.715C520.335,77.749,520.832,83.058,521.625,88.333z" clip-rule="evenodd"/><path fill="#8CBC65" fill-rule="evenodd" d="M521.625,88.333c-2.286-1.307-1.748-3.849-1.979-5.697 c-1.283-10.274-2.172-20.597-3.175-30.905c-0.156-1.612-0.076-3.306-2.113-3.869c3.532-13.228,7.064-26.455,10.597-39.682 c2.821,0.532,2.728,2.956,3.023,4.945c1.355,9.126,1.995,18.336,3.079,27.496c0.405,3.424,1.09,6.85,0.439,10.325 c-2.625,10.207-5.235,20.417-7.886,30.618C523.019,83.837,522.291,86.077,521.625,88.333z" clip-rule="evenodd"/><path fill="#09A8CA" fill-rule="evenodd" d="M135.655,45.609c2.637,2.355,1.568,5.702,1.974,8.521 c1.528,10.616,2.574,21.303,3.741,31.969c0.846,7.729,1.596,15.469,2.389,23.205c-13.378-0.267-20.768-8.429-18.887-21.502 c1.737-12.08,5.94-23.599,8.86-35.415C134.294,50.109,135.01,47.868,135.655,45.609z" clip-rule="evenodd"/><path fill="#90BD62" fill-rule="evenodd" d="M531.496,50.945c-1.652-7.979-2.096-16.111-3.029-24.182 c-0.58-5.018-1.027-10.053-1.738-15.051c-0.177-1.24-0.371-2.772-1.774-3.535c1.853-8.071,1.853-8.072,10.129-8.072 c2.484,0,4.971,0.062,7.453-0.018c1.924-0.061,2.778,0.45,2.177,2.586c-2.451,8.696-4.813,17.418-7.208,26.13 c1.857,1.436,4.002,0.574,5.991,0.62c1.981,0.046,2.941,0.766,3.346,2.654c0.73,3.417,0.896,6.893,1.207,10.351 c0.179,1.99-0.838,2.779-2.918,2.841c-4.051,0.121-8.14-0.658-12.154,0.424C532.72,47.512,532.449,49.325,531.496,50.945z" clip-rule="evenodd"/><path fill="#7FBA70" fill-rule="evenodd" d="M491.796,76.502c-2.238,10.691-5.517,21.113-8.191,31.69 c-0.416,1.647-1.352,1.845-2.697,1.805c-2.606-0.078-5.214-0.125-7.82-0.185c0.58-1.756,2.17-1.402,3.428-1.518 c1.864-0.171,2.635-0.949,2.42-2.877c-1.256-11.213-2.079-22.475-3.862-33.627c3.344-12.466,6.688-24.933,10.032-37.399 c2.72,0.382,2.723,2.721,2.936,4.552c0.876,7.558,1.845,15.108,2.493,22.689C490.957,66.588,492.058,71.488,491.796,76.502z" clip-rule="evenodd"/><path fill="#55B390" fill-rule="evenodd" d="M358.216,109.383c-8.953-0.438-12.913-4.582-12.845-13.354 c0.054-6.958,2.581-13.39,4.233-20c2.043-8.171,4.326-16.283,6.505-24.421c3.146-0.45,2.881,2.085,3.148,3.846 c0.896,5.895,1.401,11.841,1.99,17.776c1.079,10.869,2.581,21.693,3.456,32.584c0.099,1.22,0.406,2.482-0.366,3.625 C362.293,109.853,360.251,109.931,358.216,109.383z" clip-rule="evenodd"/><path fill="#83BB6C" fill-rule="evenodd" d="M491.796,76.502c-1.69-4.594-1.74-9.458-2.318-14.233 c-1.026-8.468-1.994-16.943-2.959-25.418c-0.12-1.06-0.422-1.938-1.414-2.46c2.75-10.676,5.488-21.355,8.281-32.02 c0.174-0.663,0.778-1.214,1.183-1.816c2.649-0.803,2.528,1.388,2.795,2.796c1.067,5.626,1.504,11.345,2.056,17.032 c0.646,6.672,1.572,13.316,2.062,20.002C498.642,52.528,495.481,64.585,491.796,76.502z" clip-rule="evenodd"/><path fill="#9DBF57" fill-rule="evenodd" d="M591.412,75.592c-1.072,6.719-3.279,13.154-4.992,19.71 c-1.229,4.702-2.686,9.343-4.041,14.012c-2.312-0.458-2.223-2.465-2.394-4.071c-1.448-13.673-3.104-27.325-4.348-41.021 c1.689-8.782,4.271-17.171,10.548-23.932c2.639,4.264,1.885,9.18,2.556,13.804C589.777,61.238,589.974,68.492,591.412,75.592z" clip-rule="evenodd"/><path fill="#72B879" fill-rule="evenodd" d="M447.614,51.606c2.415,0.848,1.706,3.265,1.898,4.781 c1.277,10.043,2.225,20.13,3.177,30.212c0.191,2.035,0.826,3.862,1.636,5.679c-2.411,7.37-6.541,13.151-14.354,15.527 c-1.707-1.13-1.53-2.957-1.816-4.663c-0.65-3.893-0.134-8.007-2.171-11.639c0.338-4.261,1.992-8.21,3.017-12.305 c1.908-7.63,4.09-15.192,6.051-22.811C445.506,54.619,445.72,52.64,447.614,51.606z" clip-rule="evenodd"/><path fill="#7BBA72" fill-rule="evenodd" d="M366.494,0.406c1.486-0.102,2.972-0.293,4.458-0.293 c32.344-0.014,64.688-0.013,97.031,0.008c2.868,0.001,5.738,0.253,8.604,0.216c1.966-0.025,2.805,0.579,2.249,2.623 c-1.045,3.848-2.076,7.701-3.041,11.57c-0.403,1.613-1.394,2.227-2.957,2.225c-1.122-0.001-2.244,0.101-3.367,0.101 c-43.332,0.01-86.665,0.017-129.998,0.007c-1.238,0-2.475-0.185-3.713-0.283c0.129-0.182,0.258-0.363,0.386-0.546 c1.422-0.892,3.021-0.683,4.578-0.741c3.89-0.141,7.778-0.114,11.669-0.033c5.699-0.149,11.396-0.144,17.092-0.01 c6.486-0.142,12.971-0.152,19.456-0.001c6.496-0.14,12.991-0.154,19.486,0c6.475-0.135,12.949-0.155,19.423,0.003 c4.909-0.11,9.818-0.148,14.724,0.012c3.602-0.072,7.209-0.016,10.816-0.023c2.171-0.004,3.196-0.762,2.907-3.134 c-0.302-2.466-0.55-4.94-0.838-7.41c-0.257-2.205-1.426-2.952-3.479-2.962c-3.606-0.016-7.215,0.052-10.826-0.029 c-4.911,0.153-9.816,0.136-14.723,0.016c-6.471,0.144-12.94,0.153-19.41,0.003c-6.451,0.132-12.902,0.158-19.352-0.006 c-6.271,0.072-12.543,0.169-18.815-0.053c-0.694-0.106-1.373-0.265-1.956-0.69C366.764,0.786,366.629,0.596,366.494,0.406z" clip-rule="evenodd"/><path fill="#9FC058" fill-rule="evenodd" d="M619.198,16.265c25.556,0.031,51.11,0.059,76.665,0.094 c3.24,0.004,6.481,0.039,9.724,0.059c-1.147,0.715-2.428,0.44-3.653,0.44c-47.65,0.012-95.301,0.011-142.952-0.015 c-1.066-0.001-2.253,0.442-3.203-0.478c2.93-2.032,6.247-0.955,9.382-1.063c5.711-0.196,6.193-0.617,5.434-6.276 c-0.886-6.611-0.886-6.613-7.766-7.375c-0.991-0.11-1.983-0.199-2.709-1.011c1.205-1.011,2.639-0.511,3.955-0.511 c55.785-0.03,111.571-0.031,167.357-0.009c1.329,0,2.752-0.429,3.985,0.488C697.8,0.61,660.185,0.61,622.569,0.617 c-1.624,0-3.247,0.057-4.871,0.088c-2.078,1.571-4.511,1.04-6.817,1.07c-3.337,0.045-6.679,0.143-10.01-0.066 c-3.352,0.073-6.709,0.04-10.065,0.019c-2.547-0.016-3.691,1.07-3.355,3.64c0.112,0.864,0.311,1.72,0.36,2.584 c0.397,6.79-0.907,7.44,8.533,7.292c1.988-0.031,3.979-0.037,5.973,0.019c4.22-0.211,8.437-0.074,12.652-0.076 C616.458,15.187,617.964,15.215,619.198,16.265z" clip-rule="evenodd"/><path fill="#29ADB2" fill-rule="evenodd" d="M230.14,59.13c2.71,2.009,1.428,5.168,1.828,7.667 c1.271,7.944,1.693,16.021,2.549,24.037c0.658,6.157,1.478,12.297,2.226,18.444c-0.749,0.65-1.544,0.501-2.353,0.138 c-9.835-0.329-14.598-6.089-13.065-16.02c1.444-9.357,4.564-18.311,6.873-27.461C228.774,63.649,229.489,61.398,230.14,59.13z" clip-rule="evenodd"/><path fill="#9ABE5A" fill-rule="evenodd" d="M575.637,64.222c2.272,2.992,1.743,6.69,2.177,10.029 c1.334,10.272,2.137,20.614,3.149,30.927c0.146,1.488,0.464,2.922,1.415,4.136c-5.856,1.509-11.814,0.33-17.718,0.644 c-1.827,0.098-1.137-1.305-0.919-2.111C567.68,93.297,571.664,78.761,575.637,64.222z" clip-rule="evenodd"/><path fill="#47B19A" fill-rule="evenodd" d="M319.433,66.605c2.701,0.96,1.764,3.375,2.035,5.252 c1.409,9.764,1.307,19.724,3.805,29.348c-3.918,5.317-9.396,7.592-15.785,8.084c-2.362-2.669-1.614-6.082-2.153-9.177 c-0.786-4.517-0.812-4.615-5.346-4.657c-2.341-0.022-4.683,0.038-7.027-0.021c-3.689,0.141-7.374,0.114-11.061,0.018 c-5.479,0.143-10.957,0.142-16.435,0.008c-4.582,0.197-9.166,0.068-13.748,0.07c-1.489,0-2.991-0.035-4.233-1.061 c-2.223-0.43-4.564,0.466-6.73-0.6c1.469-1.908,3.607-1.387,5.515-1.392c18.436-0.05,36.872-0.022,55.308-0.032 c6.623-0.004,7.668-0.727,9.482-7.03c1.413-4.906,2.585-9.881,4.002-14.788C317.504,69.097,317.723,67.403,319.433,66.605z" clip-rule="evenodd"/><path fill="#58B48D" fill-rule="evenodd" d="M364.233,109.316c-0.75-6.135-1.534-12.266-2.241-18.404 c-0.99-8.6-1.938-17.204-2.87-25.809c-0.347-3.202-0.613-6.412-0.884-9.622c-0.137-1.621-0.073-3.319-2.129-3.872 c1.092-3.689,2.251-7.348,4.584-10.495c2.927-0.569,2.836,1.711,3.081,3.435c0.947,6.672,1.45,13.4,2.349,20.078 c0.564,4.194,0.366,8.488,1.649,12.582c0.04,3.628-1.495,6.944-2.123,10.444c-0.352,1.963-0.83,3.96,1.452,5.183 c2.079,1.05,4.618-0.123,6.599,1.377c1.857,4.997,3.154,10.035,1.045,15.304C371.237,109.72,367.725,110.068,364.233,109.316z" clip-rule="evenodd"/><path fill="#97BE5E" fill-rule="evenodd" d="M532.976,45.694c3.517-1.81,7.274-0.639,10.906-0.757 c2.889-0.095,3.91-0.917,2.993-3.771c-0.877-2.731-0.554-5.635-0.985-8.453c-0.402-2.63-1.49-2.872-3.61-2.919 c-1.597-0.037-3.527,0.925-4.775-0.989c8.949,0.904,17.922,0.219,26.882,0.38c5.971,0.108,5.972,0.019,4.438,5.79 c-2.761,10.39-2.762,10.313-13.437,10.412C547.917,45.458,540.437,44.94,532.976,45.694z" clip-rule="evenodd"/><path fill="#50B394" fill-rule="evenodd" d="M335,75.642c-1.979-8.596-2.514-17.4-3.483-26.124 c-0.725-6.525-1.981-13.031-1.78-19.65c9.519,0.318,14.313,5.734,13.041,15.05C341.339,55.439,338.006,65.504,335,75.642z" clip-rule="evenodd"/><path fill="#87BC6A" fill-rule="evenodd" d="M501.481,40.385c-2.5-2.35-1.596-5.657-2.013-8.443 c-1.204-8.025-1.563-16.174-2.599-24.23c-0.312-2.418,0.705-5.514-2.3-7.156c5.189-1.012,10.43-0.198,15.642-0.433 c1.874-0.084,2.029,1.072,1.647,2.469C508.41,15.192,504.943,27.788,501.481,40.385z" clip-rule="evenodd"/><path fill="#A5C052" fill-rule="evenodd" d="M624.45,44.762c24.53,0.03,49.062,0.051,73.592,0.114 c1.446,0.003,3.001-0.483,4.333,0.551c-30.571-0.022-61.143-0.005-91.713-0.12c-3.855-0.014-6.998,1.45-10.104,3.354 c-0.854,0.223-1.683-0.143-1.865-0.846c-1.335-5.14-2.788-10.292-1.239-15.667c4.432-2.342,9.292-2.879,14.143-2.893 c30.211-0.087,60.422-0.054,90.633-0.02c1.585,0.001,3.251-0.247,4.749,0.606c-28.009,0.016-56.019,0.033-84.027,0.049 c-2.222,1.67-4.815,1.023-7.253,1.035c-2.769,0.013-3.752,1.123-3.537,3.88c0.646,8.287,0.584,8.297,9.135,8.978 C622.429,43.873,623.535,43.993,624.45,44.762z" clip-rule="evenodd"/><path fill="#11A9C4" fill-rule="evenodd" d="M151.17,56.09c-2.795-1.939-1.462-5.104-1.861-7.565 c-1.277-7.875-1.772-15.878-2.542-23.835c-0.234-2.423-0.132-4.931-2.123-6.797c2.085-3.993,4.695-7.527,8.641-9.895 c2.596-0.122,2.547,1.906,2.773,3.56c0.84,6.136,1.502,12.293,2.033,18.465C156.211,38.826,153.767,47.479,151.17,56.09z" clip-rule="evenodd"/><path fill="#A1C055" fill-rule="evenodd" d="M597.453,32.148c0.519,4.865,1.031,9.73,1.559,14.594 c0.103,0.955,0.724,1.526,1.546,1.919c-4.175,4.224-4.001,10.174-5.862,15.292c-1.361,3.743-1.823,7.853-3.283,11.638 c-1.991-0.904-1.813-3.019-1.994-4.521c-1.229-10.242-2.188-20.517-3.232-30.781C589.137,36.463,592.798,33.619,597.453,32.148z" clip-rule="evenodd"/><path fill="#59B48D" fill-rule="evenodd" d="M367.245,77.899c-2.534-3.378-1.454-7.497-2.082-11.229 c-1.253-7.439-1.7-15.018-2.405-22.546c-0.138-1.476-0.246-2.776-2.063-3.01c2.308-4.257,5.53-7.483,10.221-9.048 c2.616,0.313,2.409,2.455,2.569,4.196c0.422,4.569,0.79,9.139,2.01,13.586c0.213,3.974-1.652,7.501-2.458,11.259 c-0.967,4.51-2.432,8.894-3.548,13.369C369.157,75.802,369.236,77.583,367.245,77.899z" clip-rule="evenodd"/><path fill="#34AEAA" fill-rule="evenodd" d="M256.172,29.801c1.524,0.032,3.048,0.064,4.572,0.096 c2.698,4.726,3.104,9.681,1.492,14.84c-2.219,0.461-4.587-0.547-6.728,0.686c-3.701,3.504-4.655,8.261-5.961,12.882 c-0.398,1.41-0.149,3.339-2.235,3.813c-2.312-3.509-1.494-7.653-2.229-11.477c-0.86-4.471-1.13-9.06-1.571-13.606 c-0.114-1.176-0.52-1.872-1.716-2.011C245.86,31.279,250.824,30.012,256.172,29.801z" clip-rule="evenodd"/><path fill="#7BBA73" fill-rule="evenodd" d="M475.073,71.79c2.808,2.426,1.893,5.912,2.311,8.913 c1.175,8.426,1.867,16.918,2.938,25.36c0.317,2.5-0.319,3.453-2.864,3.326c-1.444-0.072-2.989-0.448-4.37,0.423 c-8.378,0.65-8.394,0.646-6.28-7.26C469.546,92.294,472.316,82.043,475.073,71.79z" clip-rule="evenodd"/><path fill="#6DB77D" fill-rule="evenodd" d="M373.267,94.445c-2.235-0.446-4.611,0.553-6.771-0.664 c1.662-1.877,3.92-1.354,5.972-1.36c15.991-0.054,31.982-0.022,47.975-0.032c5.355-0.003,10.734,0.307,16.006-1.031 c2.156,0.75,1.857,2.613,2.043,4.326c0.439,4.046,0.979,8.082,1.479,12.122c-3.682,1.769-7.667,2.138-11.633,2.151 c-21.919,0.077-43.839,0.049-65.758,0.031c-1.468-0.001-2.995,0.203-4.364-0.604c2.006-0.021,4.012-0.044,6.018-0.067 c3.499,0,6.999-0.001,10.498-0.001c4.074-2.191,8.451-0.784,12.686-1.072c4.252-0.117,8.504-0.13,12.755,0.001 c4.623-0.107,9.248-0.141,13.867,0.012c2.854-0.072,5.712,0.051,8.57-0.053c1.821-0.066,2.815-0.919,2.605-2.805 c-0.262-2.346-0.542-4.688-0.76-7.039c-0.178-1.918-1.351-2.813-3.253-2.872c-2.61-0.081-5.221,0.023-7.835-0.05 c-4.629,0.148-9.253,0.132-13.878,0.017c-4.495,0.124-8.991,0.131-13.485,0C381.746,95.266,377.382,96.401,373.267,94.445z" clip-rule="evenodd"/><path fill="#04A7CE" fill-rule="evenodd" d="M114.464,68.746c-1.909-1.691-1.618-4.166-1.864-6.261 c-1.267-10.805-2.254-21.644-3.34-32.469c8.848,1.159,12.385,4.783,11.911,13.432C120.687,52.272,119.082,60.947,114.464,68.746z" clip-rule="evenodd"/><path fill="#1FABB9" fill-rule="evenodd" d="M144.454,109.383c3.018-0.03,6.035-0.062,9.053-0.093 c3.085-1.935,6.492-0.859,9.764-1.047c5.363-0.116,10.728-0.148,16.087,0.01c3.338-0.071,6.681-0.051,10.022-0.013 c2.633,0.028,3.578-1.086,3.077-3.664c-0.425-2.187-0.358-4.438-0.723-6.643c-0.244-1.472-0.401-2.974,0.769-4.208 c5.237-0.041,10.476-0.018,15.71-0.153c1.98-0.052,2.746,0.439,2.144,2.526c-1.138,3.945-2.165,7.923-3.195,11.898 c-0.354,1.37-0.983,2.021-2.561,2.015c-19.212-0.072-38.424-0.063-57.636-0.11C146.127,109.9,145.291,109.564,144.454,109.383z" clip-rule="evenodd"/><path fill="#5FB588" fill-rule="evenodd" d="M374.726,50.09c-1.93-4.116-1.764-8.6-2.209-12.964 c-0.188-1.836,0.098-3.736-1.603-5.06c2.998-1.741,6.263-2.357,9.688-2.297c2.793,0.039,5.586,0.078,8.38,0.117 c2.632,4.745,2.746,9.795,1.82,14.972c-2.862,2.041-6.249,0.386-9.266,1.316C378.409,45.98,377.315,49.34,374.726,50.09z" clip-rule="evenodd"/><path fill="#16AAC1" fill-rule="evenodd" d="M158.091,30.022c-2.623-3.405-1.413-7.594-2.263-11.37 c-0.616-2.733-0.604-5.611-0.846-8.426c-0.096-1.124-0.731-1.792-1.697-2.229c4.581-3.999,10.026-5.917,15.972-6.624 c2.013,4.606,1.851,9.522,2.044,14.387c-0.729,1.573-2.197,0.709-3.316,1.001c-4.81,1.013-6.977,4.545-8.392,8.798 C159.097,27.048,158.592,28.535,158.091,30.022z" clip-rule="evenodd"/><path fill="#15AAC1" fill-rule="evenodd" d="M179.745,109.294c-5.5-0.001-11-0.002-16.499-0.003 c-1.695-5.073-2.73-10.211-1.491-15.566c5.499,0.001,10.999,0.001,16.498,0.001C179.985,98.797,181.014,103.936,179.745,109.294z" clip-rule="evenodd"/><path fill="#42B09E" fill-rule="evenodd" d="M295.231,94.458c3.35-0.033,6.699-0.054,10.048-0.107 c1.491-0.023,2.582,0.132,2.744,2.103c0.354,4.29,0.961,8.559,1.464,12.836c-1.805,0.58-3.666,0.698-5.547,0.698 c-21.719,0.002-43.438,0.016-65.156,0.008c-1.481,0-3.004,0.17-4.394-0.58c0.784-0.046,1.568-0.091,2.352-0.137 c4.749,0.008,9.498,0.016,14.247,0.024c1.443-1.243,3.212-1.141,4.93-1.138c4.318,0.008,8.637-0.13,12.953,0.075 c5.375-0.113,10.752-0.151,16.123,0.013c2.346-0.047,4.699-0.055,7.048,0.006c2.384,0.06,3.398-0.823,3.023-3.325 c-0.311-2.074-0.393-4.185-0.693-6.27C294.159,97.185,294.085,95.684,295.231,94.458z" clip-rule="evenodd"/><path fill="#8DBD66" fill-rule="evenodd" d="M523.21,109.315c0.286-5.336-1.366-10.59-0.666-15.943 c0.494,0.134,0.988,0.267,1.482,0.4c3.961,0.461,7.936,0.155,11.902,0.185c1.678,0.013,3.049,0.267,3.222,2.21 c0.308,3.458,1.079,6.877,0.903,10.377c-0.112,2.23-1.068,3.38-3.52,3.197C532.103,109.41,527.63,110.182,523.21,109.315z" clip-rule="evenodd"/><path fill="#92BE64" fill-rule="evenodd" d="M523.21,109.315c4.235,0.01,8.474-0.064,12.705,0.064 c2.203,0.066,3.281-0.592,3.06-2.95c-0.324-3.449-0.555-6.908-0.795-10.365c-0.129-1.854-1.487-1.623-2.72-1.719 c-3.807-0.295-7.677,0.673-11.434-0.573c8.477,0.021,16.954,0.123,25.43,0.019c2.762-0.033,3.584,0.737,2.707,3.472 c-1.102,3.432-1.904,6.959-2.854,10.441c-0.334,1.228-0.688,2.33-2.392,2.312c-9.596-0.105-19.192-0.134-28.788-0.213 c-0.342-0.003-0.681-0.271-1.021-0.415C519.142,109.363,521.176,109.339,523.21,109.315z" clip-rule="evenodd"/><path fill="#1AAABD" fill-rule="evenodd" d="M179.745,109.294c-0.475-5.191-1.561-10.324-1.492-15.568 c4.75,0,9.5,0,14.249,0c0.404,3.785,0.629,7.602,1.271,11.347c0.489,2.854,0.337,4.56-3.255,4.319 C186.94,109.152,183.337,109.31,179.745,109.294z" clip-rule="evenodd"/><path fill="#9ABE5A" fill-rule="evenodd" d="M560.119,0.64c0.248-0.007,0.5-0.043,0.744-0.015 c3.268,0.386,8.048-1.663,9.494,0.998c1.987,3.658,1.793,8.57,1.561,13.033c-0.097,1.848-1.484,1.688-2.717,1.692 c-4.475,0.019-8.949,0.013-13.423,0.016C556.725,10.985,557.92,5.674,560.119,0.64z" clip-rule="evenodd"/><path fill="#A3C154" fill-rule="evenodd" d="M607.191,74.072c2.48,6.611,1.864,13.676,2.997,20.486 c0.81,4.865,0.529,9.896,2.228,14.628c-8.638-1.779-11.941-6.436-10.68-15.177C602.727,87.143,604.119,80.375,607.191,74.072z" clip-rule="evenodd"/><path fill="#1BAABC" fill-rule="evenodd" d="M170.756,16.249c-0.662-4.942-1.542-9.862-1.499-14.875 c2.679-1.114,5.515-0.754,8.299-0.889c1.799-0.341,3.595-0.437,5.385,0.066c2.14,5.207,3.231,10.495,1.24,16.022 C179.702,16.632,175.21,17.197,170.756,16.249z" clip-rule="evenodd"/><path fill="#0FA9C6" fill-rule="evenodd" d="M161.755,93.725c0.47,5.192,1.613,10.319,1.491,15.567 c-3.247,0-6.493,0-9.74-0.001c-0.483-5.19-1.573-10.322-1.499-15.566C155.257,93.725,158.506,93.725,161.755,93.725z" clip-rule="evenodd"/><path fill="#65B683" fill-rule="evenodd" d="M335.738,16.538l0.023,0.041 c-1.482,0.095-2.965,0.274-4.449,0.275c-21.286,0.022-42.573,0.026-63.859,0.012c-1.483-0.001-2.966-0.179-4.448-0.274 c0.139-0.189,0.278-0.379,0.416-0.571c4.095-1.544,8.343-0.554,12.521-0.761c6.67-0.156,13.34-0.152,20.01-0.011 c5.978-0.137,11.955-0.149,17.931,0.013c4.518-0.157,9.036-0.122,13.554,0.001C330.242,15.443,333.25,14.304,335.738,16.538z" clip-rule="evenodd"/><path fill="#5FB588" fill-rule="evenodd" d="M203.759,0.349c11.178-0.087,22.358-0.267,33.536-0.23 c8.069,0.027,16.146-0.4,24.208,0.262c-0.128,0.184-0.256,0.368-0.383,0.553c-1.206,0.794-2.582,0.689-3.928,0.749 c-4.58,0.137-9.16,0.125-13.741,0.028c-3.98,0.123-7.96,0.123-11.939,0.003c-4.704,0.117-9.408,0.137-14.111-0.003 c-4.415-0.238-8.909,0.86-13.244-0.773C204.023,0.743,203.891,0.545,203.759,0.349z" clip-rule="evenodd"/><path fill="#5FB588" fill-rule="evenodd" d="M262.997,16.538c0,0,0.008,0.056,0.009,0.055 c-5.583,0.095-11.167,0.282-16.749,0.269c-13.416-0.031-26.832-0.154-40.248-0.241c0.197-0.428,0.513-0.732,0.945-0.919 c3.998-0.882,8.048-0.303,12.076-0.428c4.648-0.155,9.294-0.121,13.941-0.009c3.995-0.142,7.989-0.125,11.982-0.008 c4.703-0.123,9.406-0.119,14.11,0.016C260.514,15.259,261.982,15.198,262.997,16.538z" clip-rule="evenodd"/><path fill="#72B879" fill-rule="evenodd" d="M366.494,0.406l-0.013,0.036c-1.051,1.38-2.611,1.305-4.075,1.324 c-3.843,0.051-7.687,0.144-11.528-0.05c-4.027,0.115-8.055,0.129-12.082-0.002c-4.209,0.109-8.419,0.133-12.627-0.006 c-4.318,0.075-8.638,0.104-12.957-0.024c-0.903-0.086-1.808-0.174-2.576-0.735c-0.128-0.184-0.254-0.371-0.381-0.558 c8.932-0.665,17.878-0.268,26.815-0.253C346.877,0.151,356.692-0.285,366.494,0.406z" clip-rule="evenodd"/><path fill="#65B683" fill-rule="evenodd" d="M310.255,0.391l-0.016,0.046 c-1.174,1.496-2.884,1.316-4.473,1.341c-3.742,0.06-7.487,0.111-11.229-0.066c-6.751,0.168-13.502,0.155-20.254,0 c-3.051,0.199-6.103,0.121-9.153,0.041c-1.33-0.035-2.723-0.058-3.633-1.32c0,0,0.006-0.053,0.006-0.052 c10.667-0.664,21.344-0.189,32.016-0.25C299.096,0.1,304.686-0.254,310.255,0.391z" clip-rule="evenodd"/><path fill="#58B48D" fill-rule="evenodd" d="M206.003,16.563l0.005,0.057 c-12.675,0.532-25.353,0.264-38.027,0.144c0.927-0.173,1.851-0.343,2.774-0.514c4.499,0,8.998,0.001,13.497,0.001 c2.692-1.796,5.729-0.906,8.619-1.048c2.326-0.115,4.667-0.121,6.999,0.054C201.99,15.335,204.276,14.645,206.003,16.563z" clip-rule="evenodd"/><path fill="#54B391" fill-rule="evenodd" d="M182.753,0.726c-1.734-0.08-3.468-0.16-5.199-0.24 c6.483-0.76,12.971-0.488,19.459-0.122c-0.139,0.193-0.277,0.385-0.415,0.58C191.964,2.119,187.342,2.449,182.753,0.726z" clip-rule="evenodd"/><path fill="#58B48D" fill-rule="evenodd" d="M197.002,0.447l0.01-0.083c2.248-0.447,4.497-0.417,6.746-0.015 c0,0-0.006,0.058-0.006,0.058c-1.401,1.689-3.271,1.222-5.068,1.104C197.992,1.366,197.375,1.098,197.002,0.447z" clip-rule="evenodd"/><path fill="none" fill-rule="evenodd" d="M101.732,52.672c-2.13,8.3-3.02,9-11.48,9h-28.83 c-10.49,0-20.98-0.1-31.46,0.06c-2.92,0.04-3.19-0.79-2.51-3.4c3.7-14.15,3.32-13.05,16.62-13.04c17.35,0,34.7-0.01,52.05,0 C102.602,45.302,103.362,46.342,101.732,52.672z" clip-rule="evenodd"/><path fill="#A8C14F" fill-rule="evenodd" d="M624.45,44.762c-3.098,0.029-6.198-0.026-9.291,0.116 c-2.456,0.114-3.325-1.174-3.439-3.341c-0.032-0.618-0.034-1.239-0.015-1.858c0.094-3.14-2.497-7.053,0.015-9.173 c2.353-1.986,6.433-0.432,9.744-0.641c0.493-0.032,0.991,0.015,1.486,0.025C622.906,34.903,623.794,39.82,624.45,44.762z" clip-rule="evenodd"/><path fill="#A7C050" fill-rule="evenodd" d="M600.454,0.705c5.748-0.001,11.496-0.001,17.244-0.001 c0.487,5.189,1.586,10.319,1.5,15.562c-5.748,0-11.496,0-17.244,0C599.716,11.246,598.978,6.082,600.454,0.705z" clip-rule="evenodd"/><path fill="#34AFAA" fill-rule="evenodd" d="M268.988,109.304c-6,0-11.999,0-17.999-0.001 c0.092-5.006-0.85-9.906-1.504-14.835c6-0.001,12-0.002,18-0.004C269.247,99.284,270.116,104.193,268.988,109.304z" clip-rule="evenodd"/><path fill="#72B879" fill-rule="evenodd" d="M446.66,45.777c-0.241-0.09-0.482-0.179-0.724-0.269 c-4.714-0.772-9.483,0.129-14.203-0.476c-1.889-4.91-2.459-9.949-1.508-15.142c4.078-0.01,8.158,0.026,12.235-0.053 c1.76-0.034,2.604,0.417,2.861,2.407C445.904,36.747,446.718,41.215,446.66,45.777z" clip-rule="evenodd"/><path fill="#64B684" fill-rule="evenodd" d="M390.478,44.753c-0.499-4.957-0.998-9.912-1.496-14.869 c4.998,0.001,9.997,0.002,14.995,0.004c1.563,4.991,2.602,10.025,1.249,15.254C400.309,45.023,395.371,45.76,390.478,44.753z" clip-rule="evenodd"/><path fill="#6CB77D" fill-rule="evenodd" d="M430.225,29.891c0.858,4.918,1.547,9.854,1.495,14.864 c-4.662,0.966-9.367,0.299-14.053,0.375c-2.242-4.893-2.903-9.963-1.692-15.24C420.725,29.89,425.475,29.891,430.225,29.891z" clip-rule="evenodd"/><path fill="#68B681" fill-rule="evenodd" d="M415.975,29.89c0.408,4.963,1.559,9.853,1.497,14.864 c-3.999,0.754-7.998,0.757-11.997-0.001c-1.185-4.885-1.552-9.854-1.498-14.865C407.976,29.889,411.976,29.889,415.975,29.89z" clip-rule="evenodd"/><path fill="#40B0A0" fill-rule="evenodd" d="M278.737,29.9c6.498-0.001,12.996-0.001,19.494-0.003 c2.286,4.77,3.206,9.678,1.493,14.851c-6.749-0.003-13.497-0.006-20.245-0.008C277.952,39.858,276.494,34.972,278.737,29.9z" clip-rule="evenodd"/><path fill="#47B29B" fill-rule="evenodd" d="M299.724,44.748c0.156-5.016-1.127-9.888-1.493-14.852 c5.351-0.011,10.702-0.028,16.053-0.03c1.253,0,2.535-0.102,2.688,1.744c0.326,3.941,0.756,7.872,1.113,11.81 c0.178,1.958-1.367,1.396-2.312,1.401C310.423,44.845,305.073,44.782,299.724,44.748z" clip-rule="evenodd"/><path fill="#39AFA5" fill-rule="evenodd" d="M278.737,29.9c-0.511,4.985,1.106,9.864,0.742,14.84 c-5.748,0-11.496-0.001-17.243-0.002c0.066-5.005-0.639-9.931-1.492-14.842C266.742,29.898,272.74,29.899,278.737,29.9z" clip-rule="evenodd"/><path fill="#6BB77E" fill-rule="evenodd" d="M406.973,0.705c6.5,0,13,0,19.499,0 c2.139,5.029,3.179,10.164,1.5,15.561c-6.5,0-12.999,0-19.499,0C406.093,11.259,405.47,6.084,406.973,0.705z" clip-rule="evenodd"/><path fill="#65B683" fill-rule="evenodd" d="M406.973,0.705c0.5,5.187,1,10.375,1.5,15.561 c-6.499,0-12.997,0-19.496,0c-2.382-5.006-3.006-10.182-1.499-15.562C393.976,0.704,400.474,0.705,406.973,0.705z" clip-rule="evenodd"/><path fill="#5FB588" fill-rule="evenodd" d="M387.478,0.704c0.499,5.188,1,10.375,1.499,15.563 c-6.499,0-12.999,0-19.497,0.001c-1.75-5.069-2.626-10.222-1.5-15.568C374.48,0.702,380.978,0.702,387.478,0.704z" clip-rule="evenodd"/><path fill="#58B48D" fill-rule="evenodd" d="M367.98,0.7c0.652,5.174,1.564,10.325,1.5,15.568 c-5.749,0-11.498,0.001-17.246,0.001c-1.652-5.077-2.552-10.225-1.502-15.561c5.25-0.088,10.5-0.175,15.75-0.265 C366.981,0.529,367.481,0.614,367.98,0.7z" clip-rule="evenodd"/><path fill="#72B879" fill-rule="evenodd" d="M427.972,16.265c-0.5-5.188-1-10.375-1.5-15.562 c5,0.001,10,0,14.999,0c2.483,4.997,3.384,10.145,1.499,15.562C437.971,16.266,432.972,16.265,427.972,16.265z" clip-rule="evenodd"/><path fill="#76B976" fill-rule="evenodd" d="M442.97,16.266c0.107-5.247-0.783-10.396-1.499-15.563 c4.113-0.029,8.228-0.006,12.338-0.111c1.879-0.047,2.604,0.602,2.714,2.566c0.191,3.45,0.54,6.917,1.184,10.308 c0.434,2.284-0.262,2.951-2.398,2.905C451.197,16.283,447.083,16.295,442.97,16.266z" clip-rule="evenodd"/><path fill="#50B393" fill-rule="evenodd" d="M325.986,0.705c4.25,0,8.499,0.001,12.749,0.001 c1.853,5.059,2.924,10.192,1.501,15.567c-1.499,0.087-2.998,0.174-4.497,0.263c-2.755-0.092-5.509-0.187-8.264-0.281 C325.154,13.227,324.303,4.337,325.986,0.705z" clip-rule="evenodd"/><path fill="#54B391" fill-rule="evenodd" d="M340.236,16.273c-0.5-5.189-1.001-10.378-1.501-15.568 c3.999,0.001,7.998,0.001,11.997,0.002c0.701,5.169,1.613,10.317,1.502,15.563C348.235,16.271,344.235,16.272,340.236,16.273z" clip-rule="evenodd"/><path fill="#A3C053" fill-rule="evenodd" d="M600.454,0.705c0.5,5.187,1,10.375,1.5,15.561 c-3.845,0.029-7.692-0.011-11.534,0.117c-1.959,0.064-3.158-0.688-3.367-2.602c-0.359-3.307-0.531-6.634-0.861-9.945 c-0.235-2.361,0.578-3.392,3.103-3.262C593.005,0.766,596.733,0.674,600.454,0.705z" clip-rule="evenodd"/><path fill="#39AFA5" fill-rule="evenodd" d="M268.988,109.304c-0.667-4.931-1.499-9.844-1.503-14.84 c5.499,0,10.998-0.002,16.497-0.003c1.762,4.82,2.633,9.73,1.502,14.843C279.986,109.304,274.487,109.304,268.988,109.304z" clip-rule="evenodd"/><path fill="#3EB0A1" fill-rule="evenodd" d="M285.485,109.304c-0.664-4.932-1.497-9.846-1.502-14.843 c3.75-0.001,7.499-0.003,11.249-0.003c0.361,3.915,0.416,7.891,1.185,11.724c0.566,2.82-0.439,3.26-2.764,3.181 C290.932,109.271,288.208,109.318,285.485,109.304z" clip-rule="evenodd"/><path fill="#5CB58A" fill-rule="evenodd" d="M373.267,94.445c4.236,0.002,8.473,0.002,12.709,0.004 c1.894,4.814,2.708,9.737,1.502,14.864c-4.249,0.001-8.498,0.002-12.747,0.002C374.809,104.302,374.357,99.342,373.267,94.445z" clip-rule="evenodd"/><path fill="#65B683" fill-rule="evenodd" d="M414.474,109.313c-4.75,0-9.499,0-14.248,0 c-1.461-4.894-2.925-9.788-0.754-14.866c4.75,0,9.5,0,14.25-0.001C415.207,99.339,416.646,104.234,414.474,109.313z" clip-rule="evenodd"/><path fill="#60B587" fill-rule="evenodd" d="M399.472,94.447c0.252,4.956,0.503,9.912,0.754,14.866 c-4.25,0-8.499,0-12.748,0c-0.501-4.955-1.002-9.911-1.502-14.865C390.474,94.448,394.973,94.448,399.472,94.447z" clip-rule="evenodd"/><path fill="#69B780" fill-rule="evenodd" d="M414.474,109.313c-0.25-4.957-0.501-9.913-0.752-14.868 c2.621-0.03,5.262,0.127,7.856-0.145c2.847-0.297,3.776,1.223,4.085,3.578c0.112,0.86,0.087,1.745,0.055,2.617 c-0.105,2.801,2.323,6.197,0.081,8.193c-2.13,1.896-5.751,0.416-8.705,0.646C416.227,109.402,415.348,109.324,414.474,109.313z" clip-rule="evenodd"/><path fill="#76B976" fill-rule="evenodd" d="M405.475,44.752c3.999,0.001,7.998,0.002,11.997,0.002 c4.75,0,9.499,0,14.248,0c4.722,0.573,9.541-0.708,14.216,0.752c-20.184-0.047-40.368-0.092-60.552-0.148 c-1.49-0.004-2.981-0.101-4.471-0.155c3.157-0.829,6.389-0.047,9.564-0.451C395.477,44.753,400.476,44.753,405.475,44.752z" clip-rule="evenodd"/><path fill="#1FABB9" fill-rule="evenodd" d="M197.002,0.447c0.501,0.091,1.002,0.182,1.503,0.273 c2.744,4.961,3.375,10.125,1.493,15.529c-5.249,0.001-10.497,0.002-15.746,0.002c0.042-5.228-0.81-10.37-1.5-15.526 C187.502,0.633,192.252,0.54,197.002,0.447z" clip-rule="evenodd"/><path fill="#40B0A0" fill-rule="evenodd" d="M274.245,0.714c6.75,0,13.5,0.001,20.25,0.001 c2.743,4.964,3.375,10.131,1.493,15.54c-6.75,0-13.499,0-20.249,0C274.121,11.183,273.36,6.027,274.245,0.714z" clip-rule="evenodd"/><path fill="#46B19B" fill-rule="evenodd" d="M295.987,16.255c0.108-5.239-0.501-10.409-1.493-15.541 c5.248-0.09,10.497-0.182,15.745-0.274c0.749,0.086,1.499,0.176,2.248,0.264c1.629,5.075,2.393,10.233,1.49,15.551 C307.98,16.255,301.984,16.255,295.987,16.255z" clip-rule="evenodd"/><path fill="#39AFA5" fill-rule="evenodd" d="M274.245,0.714c0.995,5.133,1.603,10.303,1.493,15.542 c-4.247,0.091-8.494,0.185-12.742,0.279c-1.266-0.092-2.532-0.187-3.798-0.281c-0.214-0.129-0.554-0.227-0.608-0.414 c-1.456-4.972-2.849-9.953-0.85-15.121c1.252-0.094,2.504-0.189,3.757-0.285C265.747,0.526,269.996,0.62,274.245,0.714z" clip-rule="evenodd"/><path fill="#4BB297" fill-rule="evenodd" d="M313.977,16.255c-0.995-5.137-1.58-10.312-1.49-15.552 c4.5,0,8.999,0,13.499,0.001c-0.042,5.236,0.583,10.408,1.49,15.551C322.976,16.255,318.476,16.255,313.977,16.255z" clip-rule="evenodd"/><path fill="#26ACB4" fill-rule="evenodd" d="M199.999,16.249c0.109-5.235-0.501-10.401-1.493-15.53 c1.75-0.103,3.499-0.205,5.247-0.311c4.499,0.1,8.997,0.204,13.495,0.307c1.712,5.063,2.75,10.19,1.5,15.54 c-4.249,0.101-8.497,0.202-12.745,0.306C204.001,16.458,202,16.354,199.999,16.249z" clip-rule="evenodd"/><path fill="#2BADB0" fill-rule="evenodd" d="M218.748,16.255c-0.486-5.182-1.571-10.306-1.5-15.54 c4.75,0,9.5,0.001,14.25,0.002c1.628,5.07,2.386,10.223,1.494,15.536C228.243,16.253,223.496,16.254,218.748,16.255z" clip-rule="evenodd"/><path fill="#34AEA9" fill-rule="evenodd" d="M257.74,0.72c0.003,5.224,0.501,10.401,1.459,15.535 c-4.736-0.002-9.471-0.003-14.207-0.004c-1.698-5.062-2.739-10.186-1.5-15.531C248.242,0.719,252.991,0.72,257.74,0.72z" clip-rule="evenodd"/><path fill="#30AEAC" fill-rule="evenodd" d="M243.493,0.719c0.503,5.177,1.583,10.298,1.5,15.532 c-4,0.001-8.001,0.002-12.001,0.002c-0.989-5.132-1.588-10.302-1.494-15.537C235.497,0.718,239.495,0.718,243.493,0.719z" clip-rule="evenodd"/></g></svg>