<svg xmlns="http://www.w3.org/2000/svg" viewBox="0 0 180.53 68.23"><defs><style>.cls-1{fill:#6e7067;fill-rule:evenodd;}.cls-2{fill:#dc003b;}</style></defs><title>Recurso 2</title><g id="Capa_2" data-name="Capa 2"><g id="Capa_1-2" data-name="Capa 1"><polygon class="cls-1" points="0.01 68.2 0 0.16 54.5 0.16 54.5 13.79 27.29 13.72 27.29 27.35 54.5 27.36 54.5 40.99 27.29 40.95 27.29 68.23 0.01 68.2"/><rect class="cls-2" x="68.12" y="0.16" width="27.25" height="68.03"/><path class="cls-1" d="M166.26,33.94A17,17,0,0,0,163.49.1h0L109.22,0V67.94l54.27-.16a17,17,0,0,0,2.77-33.84ZM149.87,54.31h-13.5V41h13.53Zm0-26.95-13.53,0V13.73l13.53,0Z"/></g></g></svg>