<svg xmlns="http://www.w3.org/2000/svg" viewBox="0 0 2132.35 1931.99"><defs><style>.cls-1{fill:#33348e;fill-rule:evenodd;}</style></defs><title>g</title><g id="Capa_2" data-name="Capa 2"><g id="Capa_1-2" data-name="Capa 1"><path class="cls-1" d="M834.33,945.53h7.33c14.31,0,28.6,14.31,28.6,35.93,0,7.31,0,18-6.6,22l10.63,21.63c0,3.68,3.67,3.68,3.67,3.68,3.66,3.64,3.66,0,7.33,0h123.52c3.67,25.66,11,50.94,18,73,7.33,25.28,14.65,47.28,18,72.93,0,6.61,0,18-3.29,24.93-7.33,36.65-29,65.25-62,72.6-7,4-10.63,4-18.32,4H765.06c-11,0-21.63-4-29-4-43.63-18-62-51-57.92-94.59,0-10.63,0-21.63,7.32-32.24,10.64-29.34,28.6-57.94,43.62-87.25l-51-54.64h51c-3.67-7-7.69-14.67-7.69-22,0-21.62,18.33-40,36.29-40,3.67,0,7.33,4,11.36,4,3.67-11.36,18-22,32.26-22,15,0,25.66,10.62,33,22Zm-47.29,18c3.67,3.67,3.67,3.67,3.67,7.31s-3.67,7-7.32,7-7.71-3.3-7.71-7l-2.93-3.64c-3.67,0-3.67-3.67-7.69-3.67-7.33,0-18,0-21.63,11-3.66,3.29-3.66,14.29,3.67,18.34,0,3.64,3.65,10.6,3.65,18v10.61H721.44l7.69,7.34,24.93,29.34L710.44,1156c-3.29,7.34-7,25.31-7,36.66,0,21.63,14.29,40,32.63,50.58,3.67,0,11,3.67,18,3.67,3.68,3.67,7.33,3.67,11,3.67H950.55c7,0,18.33-3.67,25.29-3.67,14.66-7,21.63-14.29,29-25.67,11.36-18,18.32-35.93,11.36-54.26-7.33-35.93-18.69-76.6-29.33-112.53H878c-7.71,0-18.33-7.7-22-14.32l-21.62-36.65c7.33-7,14.3-10.61,18-18.31,0-10.64-3.66-18-14.3-18-3.66,0-7.33,0-11,3.65,0,0-4,3.67-4,7-2.93,3.67-6.6,3.67-10.62,0-3.67-3.29-3.67-7,0-10.61,4-3.67,4-3.67,4-7.34,0-7-7.69-14.3-15-14.3-7,0-14.29,7.32-14.29,14.3v3.7Zm-18,51c0-7.35,3.67-15.05,10.64-15.05,11,0,14.65,7.7,14.65,15.05,0,6.93-3.66,14.29-14.65,14.29C772.75,1028.76,769.08,1021.4,769.08,1014.47Zm450.53-68.94h7c18,0,33,14.31,33,35.93,0,7.31-3.67,18-7.32,22l11,21.63a3.36,3.36,0,0,0,3.3,3.68c3.67,3.64,3.67,0,7.31,0h123.93c3.29,25.66,10.61,50.94,18,73,7,25.28,14.29,47.28,18.31,72.93,0,6.61,0,18-4,24.93-7.31,36.65-29,65.25-61.58,72.6-7.34,4-11,4-18,4H1153.62c-10.63,0-21.63-4-28.6-4-43.61-18-61.58-51-61.58-94.59,3.3-10.63,3.3-21.63,10.64-32.24,11-29.34,29.31-57.94,40-87.25l-47.29-54.64h51c-7.71-7-7.71-14.67-7.71-22,0-21.62,18.69-40,37-40,3.67,0,6.61,4,10.64,4,3.67-11.36,18-22,32.63-22s25.65,10.62,29.32,22Zm-44,18c0,3.67,3.67,3.67,3.67,7.31s-3.67,7-7,7c-3.67,0-7.34-3.3-7.34-7-3.64,0-3.64-3.64-3.64-3.64-3.67,0-3.67-3.67-7.71-3.67-6.61,0-18,0-21.63,11-3.3,3.29-3.3,14.29,0,18.34a26.86,26.86,0,0,1,7.34,18v10.61h-32.28l10.63,7.34L1143,1058.1,1095.69,1156c0,7.34-3.67,25.31-3.67,36.66,0,21.63,15,40,33,50.58,3.67,0,10.63,3.67,18,3.67,4,3.67,4,3.67,7.7,3.67h188.42c7.7,0,18.34-3.67,22-3.67,14.32-7,25.67-14.29,33-25.67,10.61-18,14.29-35.93,10.61-54.26-6.94-35.93-18-76.6-29.31-112.53H1266.48c-10.63,0-18-7.7-22-14.32l-21.63-36.65c7.31-7,15-10.61,15-18.31,3.67-10.64-4-18-11.35-18-3.67,0-7,0-10.64,3.65,0,0-3.67,3.67-3.67,7-3.67,3.67-11.35,3.67-11.35,0-2.94-3.29-2.94-7,0-10.61,4-3.67,4-3.67,4-7.34,0-7-7-14.3-14.67-14.3-11,0-14.67,7.32-14.67,14.3v3.7Zm-22,51c0-7.35,7.71-15.05,15-15.05,7,0,14.32,7.7,14.32,15.05,0,6.93-7.34,14.29-14.32,14.29C1161.33,1028.76,1153.62,1021.4,1153.62,1014.47ZM714.1,280.21c0-29,22-51,47.29-51,29.32,0,51,22,51,51s-21.62,51.32-51,51.32C736.1,331.53,714.1,309.17,714.1,280.21Zm843.1,465.18c-36.27-80.28-79.54-156.15-105.2-221.4-10.61-25.67-3.64-58.65,25.67-76.61,28.95-18.33,75.9-22,98.26,11,10.61,18.33,17.94,36.29,28.57,57.91,7.34,22,25.67,36.66,51,36.66,29.32,0,54.24-33,54.24-62,0-32.62-28.57-47.28-57.91-54.25h-25.3c-22,0-36.28-15-36.28-36.67,0-18.32,14.3-32.61,32.25-36.28,18.69,0,33,3.67,43.61,0,33-7.33,55-21.63,65.64-51,11-25.67-3.32-47.29-24.92-54.25-33-15-69.29,0-90.92,18-22,14.31-40,51-40,51-3.67,7-3.67,7-11.37,14.65-14.32,14.31-35.93,14.31-51,0-14.29-10.62-14.29-33,0-51.32,11.38-10.63,29.34-25.29,36.66-32.25,14.32-15,28.6-33,32.63-54.62,7.34-36.29-14.64-65.61-47.28-69.27-32.63-7-57.93,15-76.24,40.32-18,24.93-21.64,50.59-21.64,79.91,0,40,25.28,76.61,21.64,120.24-3.67,24.93-14.67,50.22-40,53.89h-280c-54.26,0-105.22-29-134.55-72.58-29-36.29-50.95-79.92-79.54-119.5,28.6-4,57.91-18.33,75.89-39.95,11.36-22,11.36-47.28-7-62.32-18.34-18-47.29-10.63-68.92,7.33-3.67,0-3.67,4-7.33,4-4,3.65-7.69,10.62-10.62,14.29-4,3.67-11.36,3.67-18.69,3.67-10.63,0-24.93-10.62-24.93-25.67,0-3.66,3-7.33,3-10.63,7.69-11,15-25.3,15-36.66,0-28.6-25.66-50.58-54.62-43.63-29.32,3.67-40,33-36.29,58.65,3.66,2.93,3.66,10.64,7,14.31v14.3c0,15-14.3,22-28.6,22-11.36,0-18.33-14.66-22-18.33-7.32-25.29-29.33-35.93-54.63-35.93-32.61,0-57.91,25.3-57.91,61.6,0,3.66,0,11,3.68,14.3,0,3.66,0,7.33,3.65,11,7,14.66,24.93,25.67,40,40,14.31,18.34,7,47.29,10.62,73H591l-29.32-3.67,25.67,14.3L692.49,414.8c-57.91,119.86-127.2,239.73-178.15,366.94-28.6,73-28.6,156.17,21.62,225.44,33,43.61,83.58,83.21,142.23,90.91L648.86,1156C569,1137.69,518,1094.42,481.71,1036.14c-18-21.61-36.65-65.25-39.58-94.58-7.71-32.25-11.36-43.63-7.71-76.25,4-32.63,7.71-61.94,18.33-94.21C500,643.53,569,534.66,623.21,414.78c-43.62-39.58-90.9-87.24-134.52-127.55-2.95-2.94-10.64-10.64-10.64-14.3,0-7.33,7.71-14.3,18.33-14.3h152.5c-36.29-18-61.58-54.62-61.58-98.25,0-57.92,47.28-105.21,105.19-105.21,21.64,0,43.64,10.64,61.6,25.29C750.79,36.84,790.75,3.85,830.7.19,878-3.12,935.91,36.84,918,91.1c14.3-10.64,32.63-18,47.29-18,51,0,90.9,43.62,90.9,94.58,0,36.29-22,72.95-55,87.25,25.67,35.92,43.62,76.61,80.27,105.21,10.64,7.32,36.3,15,47.29,15h261.73c3.67,0,7.34,0,7.34-4,3.3-3.66,6.94-7.33,6.94-7.33-3.64-21.62-10.61-47.29-14.29-68.91-7.71-22-7.71-47.29-3.67-65.61,3.67-50.95,21.63-90.91,57.93-120.25,40.33-32.25,94.57-39.58,141.87-14.29,14.31,11.36,21.63,18.33,33,33,10.61,18.34,21.61,40,21.61,65.62,0,0-3.64,3.67-3.64,6.6,69.28-24.93,127.19,18.69,145.14,65.61,14.67,51-3.67,112.54-69.28,138.19,25.66,11,39.94,36.66,47.28,65.26,15,76.61-47.28,141.86-126.83,127.57-25.66-3.67-47.28-14.66-65.61-36.67-11-14.29-21.63-35.93-29-54.25-3.64-7.33-7.7-14.67-18.31-14.67-7.34,0-14.32,7.33-14.32,14.67,0,3.29,3.32,10.62,3.32,10.62,25.67,61.58,58.29,112.91,83.93,174.5,7,11,22,51,28.6,65.25,18.69,47.28,36.65,105.93,29.34,171.18-10.64,115.84-94.59,196.12-192.45,228.74l-14.67-54.24c80.27-25.67,145.54-98.26,152.85-181.84,7-61.6-14.68-116.6-40.35-174.51ZM212.63,1517.76H147.38c-22.74,0-43.26,9.91-59.39,24.19-9.54,9.52-15.76,23.83-15.76,39.94,0,1.86,2.93,6.23,2.93,8.08-2.93,0-7.7-3.29-9.53-3.29-15.76,0-30.43,6.59-40,16.11A78.23,78.23,0,0,0,0,1660.35v129.42a78.19,78.19,0,0,0,25.67,57.56c9.53,9.52,24.19,15.76,40,15.76,1.83,0,6.6-3.29,9.53-3.29,0,1.83-2.93,6.58-2.93,8,0,16.14,6.22,30.43,15.76,40,16.13,14.67,36.65,24.19,59.39,24.19H1985c22.72,0,43.26-9.52,59.37-24.19,9.55-9.52,15.79-23.81,15.79-40,0-1.47-2.95-6.22-2.95-8,2.95,0,7.71,3.29,9.52,3.29,15.76,0,30.43-6.22,39.95-15.76a78.18,78.18,0,0,0,25.67-57.56V1660.35a78.18,78.18,0,0,0-25.67-57.56c-9.52-9.52-24.19-16.11-39.95-16.11-1.83,0-6.59,3.29-9.52,3.29,0-1.85,2.95-6.22,2.95-8.08,0-16.11-6.23-30.42-15.79-39.94-16.11-14.3-36.65-24.19-59.37-24.19Zm0,16.48H147.38c-35.2,0-65.63,28.6-59.39,59,1.83,6.22,1.83,9.52,3.29,14.32l-12.83-3.32c-30.42-8.06-60.85,22.37-60.85,56.08v129.42c0,33.33,30.43,63.79,60.85,56.08l12.83-3.32c-1.46,4.79-1.46,7.71-3.29,14.32-6.23,30,24.19,59.38,59.39,59.38H1985c35.18,0,65.61-29.34,59.37-59.38-1.83-6.61-1.83-9.52-3.29-14.32l12.84,3.32c30.43,7.71,60.84-22.75,60.84-56.08V1660.35c0-33.72-30.43-64.14-60.84-56.08l-12.84,3.32c1.46-4.79,1.46-8.08,3.29-14.32,6.23-30.43-24.19-59-59.37-59Zm0,15.79H147.38c-27.14,0-49.86,22.34-48,48,0,11,8.07,20.54,9.53,25.3-4.76,0-15.76-9.52-27.12-11-25.67-1.46-48,22.35-48,48v129.43c0,25.67,22.36,49.47,48,48,11.36-1.83,22.36-11.35,27.12-11.35-1.46,4.76-9.53,14.29-9.53,25.67-1.83,25.28,20.89,48,48,48H1985c27.13,0,49.85-22.72,48-48,0-11.38-8.08-20.9-9.52-25.67,4.76,0,15.76,9.52,27.11,11.35,25.67,1.47,48-22.35,48-48V1660.33c0-25.66-22.38-49.46-48-48-11.35,1.47-22.35,11-27.11,11,1.44-4.76,9.52-14.32,9.52-25.3,1.83-25.67-20.89-48-48-48Zm76.61,118.4L283,1602.79c-17.58-12.82-41.42-19.06-61.94-19.06-57.92,0-99.34,60.5-99.34,141.87,0,86.51,38.49,139.29,102.27,139.29,20.9,0,43.25-5.12,68.56-14.67v-63.78c0-33.72,0-36.65,17.59-41.41v-20.9H212.64V1745c18,1.46,19.05,7.7,19.05,41.41v51.32c-1.09,2.94-7.69,6.23-12.46,6.23-14.29,0-25.66-14.3-30.43-40-3.29-22.37-4.76-48-4.76-86.16a560.37,560.37,0,0,1,3.3-64.13c4.39-31.9,15.75-49.5,33.72-49.5,19.06,0,33.35,22.38,41.06,62.32l1.83,1.86ZM466.67,1823.1c-4.4,5.14-7.71,6.62-11,6.62-6.23,0-8.07-3.3-8.07-27.13v-67.08c0-25.67-1.47-35.19-12.46-44.74-11.37-8.4-27.5-14.64-48-14.64-40,0-65.62,17.57-65.62,46.54,0,6.22,1.47,12.84,3.3,20.54l44.36-14.32c0-3.29-1.47-4.76-1.47-8.05,0-17.6,6.6-25.28,17.59-25.28,11.36,0,14.3,7.68,14.3,31.87v15.78l-44.35,25.67c-27.14,16.13-37,30.42-37,50.94,0,27.51,14.29,45.1,37,45.1,15.75,0,33.35-11.35,44.35-30.43,3.3,20.9,12.83,30.43,30.43,30.43,11.36,0,25.67-8.06,36.65-19.05V1823.1Zm-67.08-57.56v46.57c-4.4,7.7-15.78,16.13-20.54,16.13-8.06,0-12.82-8.43-12.82-19.43,0-12.81,6.22-22.37,20.89-31.89Zm89.8-138.91v171.18c0,36.66-1.84,44.71-12.83,44.71h-3.29v17.25h81.37v-17.25h-2.93c-11.36,0-14.66-8-14.66-44.71V1583.75h-11l-50.95,22v11.38l14.29,9.52Zm86.14,0v171.18c0,36.66-2.93,44.71-14.3,44.71h-1.47v17.25h79.91v-17.25h-1.83c-11,0-14.31-8-14.31-44.71V1583.75H612.17l-51,22v11.38l14.32,9.52Zm88,89.45v81.75c0,36.65-3.29,44.7-14.31,44.7h-1.82v17.25h78.44v-17.25h-1.47c-11.36,0-14.67-8-14.67-44.7v-121.7h-11l-49.48,19.43v11Zm0-100.83c0,17.6,11,32.27,25.67,32.27,14.29,0,27.12-14.67,27.12-32.27,0-15.76-12.83-30-27.12-30C674.51,1585.21,663.52,1599.51,663.52,1615.25Zm132.69,117c1.47-12.84,14.3-23.84,23.83-23.84,11.36,0,14.67,9.52,14.67,30.43v59c0,35.18-1.84,41.41-13.21,44.7v17.25H900v-17.25h-3.3c-11,0-12.46-8-12.46-44.7V1745c0-29-3.3-40-9.54-52.79-8.43-8-19.42-16.11-33.72-16.11-19.43,0-35.18,11.35-44.72,30.43v-30.43H783.39l-51.32,19.43v11l14.66,9.52v81.75c0,36.65-1.84,44.71-12.82,44.71h-1.84v17.25h78.44v-17.25c-12.83-1.83-14.3-8.06-14.3-44.71v-65.63ZM1055,1823.1c-2.94,5.14-6.22,6.62-9.53,6.62-6.23,0-8.07-3.3-8.07-27.13v-67.08c0-25.67-3.29-35.19-12.82-44.74-11.37-8.4-27.12-14.64-48-14.64-41.42,0-65.25,17.57-65.25,46.54,0,6.22,1.45,12.84,3.29,20.54L959,1728.89c-1.46-3.29-1.46-4.76-1.46-8.05,0-17.6,6.6-25.28,16.13-25.28,12.46,0,15.76,7.68,15.76,31.87v15.78l-44.72,25.67C917.56,1785,908,1799.3,908,1819.82c0,27.51,14.31,45.1,36.67,45.1,16.13,0,31.89-11.35,44.72-30.43,3.31,20.9,12.83,30.43,29,30.43,12.83,0,27.13-8.06,36.67-19.05V1823.1Zm-65.61-57.56v46.57c-6.23,7.7-15.76,16.13-22.36,16.13-6.23,0-11.36-8.43-11.36-19.43,0-12.81,5.13-22.37,19.43-31.89Zm129.77-178.86v20.89h1.09c14.67,0,19.43,9.52,19.43,41.42v148.82c0,33.36-4.76,42.89-19.43,42.89h-1.09v19.08H1194c48,0,65.61-2.94,79.89-11,17.6-9.52,32.27-35.19,32.27-59,0-37-22.37-62.35-62.32-73.7,38.12-12.84,55.71-31.89,55.71-60.84,0-28.59-17.58-52.43-42.9-60.49-16.1-4.76-38.48-8-68.89-8Zm79.55,119.88V1609h1.83c27.13,0,41.41,17.6,41.41,52.78,0,31.89-11.35,44.74-40,44.74h-3.29Zm0,20.87H1202c20.9,0,28.6,2.94,35.19,17.6,4.76,9.52,6.61,22.37,6.61,43.26,0,33.36-8.08,51-25.66,51-16.14,0-19.43-8.06-19.43-43.24v-68.57Zm125-100.8v171.18c0,36.66-3.29,44.71-14.64,44.71h-2.94v17.25h81.36v-17.25h-1.83c-12.47,0-14.29-8-14.29-44.71V1583.75h-12.84l-51,22v11.38l16.13,9.52Zm217,196.47c-3,5.14-6.23,6.62-9.52,6.62-6.23,0-8.06-3.3-8.06-27.13v-67.08c0-25.67-2.94-35.19-12.46-44.74-11.38-8.4-27.51-14.64-48.4-14.64-41,0-65.23,17.57-65.23,46.54,0,6.22,1.44,12.84,3.3,20.54l44.7-14.32c-1.83-3.29-1.83-4.76-1.83-8.05,0-17.6,6.59-25.28,16.14-25.28,12.81,0,16.11,7.68,16.11,31.87v15.78l-44.71,25.67c-27.13,16.13-36.65,30.42-36.65,50.94,0,27.51,13.93,45.1,36.65,45.1,15.76,0,31.52-11.35,44.71-30.43,2.94,20.9,12.84,30.43,28.59,30.43,12.84,0,27.14-8.06,36.66-19.05V1823.1Zm-65.25-57.56v46.57c-4.76,7.7-16.11,16.13-22.73,16.13-6.22,0-11-8.43-11-19.43,0-12.81,4.76-22.37,19.43-31.89Zm132.7-33.33c2.95-12.84,15.76-23.84,25.28-23.84s14.67,9.52,14.67,30.43v59c0,35.18-1.83,41.41-12.81,44.7v17.25h78.07v-17.25h-3.29c-11,0-13.93-8-13.93-44.7V1745c0-29-1.83-40-9.91-52.79-6.22-8-19-16.11-33.36-16.11-17.57,0-33.72,11.35-43.24,30.43h-1.46v-30.43h-12.84l-49.86,19.43v11l14.67,9.52v81.75c0,36.65-3.3,44.71-14.67,44.71H1544v17.25h78.46v-17.25c-12.82-1.83-14.29-8.06-14.29-44.71v-65.63Zm214.08,73.67v1.47c-9.52,14.31-17.6,20.89-29,20.89-20.54,0-33.35-35.56-33.35-85,0-34.84,4.76-51,17.22-51,9.91,0,9.91,3.32,13.2,22.37,3,19.05,11,28.6,23.84,28.6s22.35-11,22.35-25.31c0-25.66-20.9-39.94-51.32-39.94-42.89,0-73.31,36.65-73.31,92.38,0,57.91,27.13,94.56,70.4,94.56,23.81,0,42.89-16.13,55.71-45.09l-15.79-13.92Zm172.66,17.22c-3.3,5.14-6.62,6.62-9.91,6.62-6.23,0-7.71-3.3-7.71-27.13v-67.08c0-25.67-3.29-35.19-12.81-44.74-11.38-8.4-27.13-14.64-48-14.64-41.8,0-65.61,17.57-65.61,46.54,0,6.22,1.83,12.84,3.29,20.54l44.71-14.32c0-3.29-1.47-4.76-1.47-8.05,0-17.6,6.23-25.28,17.25-25.28,11.35,0,14.67,7.68,14.67,31.87v15.78l-44.73,25.67c-27.13,16.13-37,30.42-37,50.94,0,27.51,14.67,45.1,37,45.1,16.13,0,33.36-11.35,44.73-30.43,2.92,20.9,12.46,30.43,30.43,30.43,11,0,25.28-8.06,35.18-19.05V1823.1Zm-65.61-57.56v46.57c-4.78,7.7-16.13,16.13-20.89,16.13-7.7,0-12.84-8.43-12.84-19.43,0-12.81,6.61-22.37,20.89-31.89Z"/></g></g></svg>