<svg id="Ebene_2" data-name="Ebene 2" xmlns="http://www.w3.org/2000/svg" viewBox="0 0 782.6 73"><defs><style>.cls-1{fill:#005da5;}</style></defs><title>16132_LO_Haufe_Group_RGB_pos_en</title><path d="M244.1,57.2c-31.3,0-40.8-8.3-40.8-18.9V.4h20.5V36.2c0,8.7,9.1,11.1,21.3,11.1a158.29,158.29,0,0,0,19.1-.8V.5h20.5V54.9A321.85,321.85,0,0,1,244.1,57.2Z"/><polygon points="60.9 55.8 60.9 32.9 20.5 32.9 20.5 55.8 0 55.8 0 0.3 20.5 0.3 20.5 23 60.9 23 60.9 0.3 81.4 0.3 81.4 55.8 60.9 55.8"/><path d="M331.9,11.4h55.4V.3H327.6c-16.2,0-21.8,2.9-21.8,11.3V55.9h20.5V32.7h60.9V22.8H326.3V14.9C326.4,12.8,327.6,11.4,331.9,11.4Z"/><path d="M429.5,11.4c-4.4,0-5.5,1.4-5.5,3.4v8.1h60.9v9.5H424v8.9c0,2,1.2,3.4,5.5,3.4h55.4V55.8H425.2c-16.2,0-21.8-2.9-21.8-11.3v-33C403.4,3.1,409,.2,425.2.2h59.7V11.3H429.5Z"/><path class="cls-1" d="M505.6,45.4c0-2.8,1.6-3.8,6.4-3.8h8.2c4.7,0,6.4,1,6.4,3.8v6.7c0,2.8-1.6,3.8-6.4,3.8H512c-4.7,0-6.4-1-6.4-3.8Z"/><path d="M142.8,21.6a204.44,204.44,0,0,0-33.1,2.6c-5.9.9-8.5,3.2-8.5,8.2v14c0,5,2.6,7.2,8.5,8.2a204.44,204.44,0,0,0,33.1,2.6,271.11,271.11,0,0,0,39.9-2.5v-36C182.7,1.3,176,.3,153.3.3H107.7V9.9h45.1c8.5,0,9.3,2.3,9.3,7.4v4.3Zm0,26.4a97.55,97.55,0,0,1-16.9-1.3c-2.9-.5-4.2-1.6-4.2-4V36.2c0-2.5,1.3-3.6,4.2-4a97.55,97.55,0,0,1,16.9-1.3H162V47.3c-3.9.4-11.5.7-19.2.7Z"/><path d="M574,56.6c-16.2,0-29.1-9.4-29.1-28.3C544.9,11.2,556.3,0,574.8,0a36.88,36.88,0,0,1,15.5,3l-2.6,4.6a31.43,31.43,0,0,0-12.4-2.4c-13.4,0-21,9-21,23.4,0,15.5,9.1,22.8,19.4,22.8a29.68,29.68,0,0,0,8.9-1.1V29.6H570V25h21.4V53.7C587.3,55.5,580.2,56.6,574,56.6Z"/><path d="M627,17.4a18.81,18.81,0,0,0-5.5-.7,17.45,17.45,0,0,0-6.7,1.1v38H606V15a50.13,50.13,0,0,1,18.3-3c2,0,4.2.2,4.7.2Z"/><path d="M656.1,56.6c-14.5,0-21.1-9.4-21.1-22.4s6.6-22.3,21.1-22.3,21.1,9.4,21.1,22.3S670.6,56.6,656.1,56.6Zm0-40.2c-9.3,0-12.4,8.1-12.4,17.7s3.1,17.8,12.4,17.8,12.4-8.2,12.4-17.8S665.5,16.4,656.1,16.4Z"/><path d="M709.3,56.6c-12.8,0-19.5-4.4-19.5-14.1V12.7h8.7V42.8c0,6,3.5,9,10.9,9a29.29,29.29,0,0,0,9.5-1.4V12.7h8.7V53.4C723.6,55.2,716.3,56.6,709.3,56.6Z"/><path d="M759.2,56.5a36.9,36.9,0,0,1-8.3-1V73h-8.6V14.9a44.3,44.3,0,0,1,16.6-3c15.3,0,23.7,8.5,23.7,21.6C782.5,47.9,773.3,56.5,759.2,56.5Zm-.7-40.3a22.13,22.13,0,0,0-7.6,1.1V51.1a22.35,22.35,0,0,0,6.4.9c10.9,0,16.5-6.6,16.5-18.1C773.8,23.1,769.7,16.2,758.5,16.2Z"/></svg>