<svg xmlns="http://www.w3.org/2000/svg" viewBox="0 0 331.3 35.88"><defs><style>.cls-1{fill:#005da5}.cls-2{fill-rule:evenodd}</style></defs><title>haufe_alt</title><g id="Capa_2" data-name="Capa 2"><g id="Ebene_1" data-name="Ebene 1"><path d="M154.13,35.88c-19.65,0-25.67-5.24-25.67-11.92V.13h13V22.65c0,5.5,5.77,6.94,13.36,6.94a96.69,96.69,0,0,0,12.05-.52V0h13V34.18C174.82,35.09,165.13,35.88,154.13,35.88Z"/><polygon points="38.37 34.96 38.37 20.56 12.96 20.56 12.96 34.96 0 34.96 0 0 12.96 0 12.96 14.27 38.37 14.27 38.37 0 51.33 0 51.33 34.96 38.37 34.96"/><path d="M208.86,7.07H243.7V.13H206.11C195.9.13,192.36,2,192.36,7.2V35.09h13V20.43H243.7V14.27H205.33v-5C205.33,7.86,206.11,7.07,208.86,7.07Z"/><path d="M270.28,7.07c-2.75,0-3.54.92-3.54,2.1v5.1h38.37v6H266.74v5.63c0,1.31.79,2.09,3.54,2.09h34.83V35H267.53c-10.22,0-13.75-1.83-13.75-7.07V7.07c0-5.24,3.53-7.07,13.75-7.07h37.58V6.94H270.28Z"/><path d="M318.07,28.42c0-1.71,1.05-2.36,4.06-2.36h5.11c3,0,4.06.65,4.06,2.36v4.19c0,1.7-1.05,2.35-4.06,2.35h-5.11c-3,0-4.06-.65-4.06-2.35Z" class="cls-1"/><path d="M90.35,13.49a122.79,122.79,0,0,0-20.82,1.7c-3.66.65-5.37,2-5.37,5.11v8.77c0,3.14,1.58,4.58,5.37,5.11a139.31,139.31,0,0,0,20.82,1.7,174.29,174.29,0,0,0,25-1.57V11.65C115.37.79,111.18.13,96.9.13H68.22v6H96.64c5.37,0,5.76,1.45,5.76,4.72v2.75H90.35Zm0,16.5a58.88,58.88,0,0,1-10.6-.79c-1.84-.26-2.62-1.05-2.62-2.49V22.65c0-1.57.78-2.22,2.62-2.48a58.88,58.88,0,0,1,10.6-.79H102.4V29.73c-2.36.13-7.2.26-12.05.26Z" class="cls-2"/></g></g></svg>