<?xml version="1.0" encoding="UTF-8" standalone="no"?>
<!-- Created with Inkscape (http://www.inkscape.org/) -->
<svg
   xmlns:svg="http://www.w3.org/2000/svg"
   xmlns="http://www.w3.org/2000/svg"
   version="1.0"
   width="390.04178"
   height="390.04178"
   id="svg2738">
  <defs
     id="defs2740" />
  <g
     transform="translate(-172.90992,-237.69111)"
     id="layer1">
    <path
       d="M 172.90992,237.69111 L 562.9517,237.69111 L 562.9517,627.73289 L 172.90992,627.73289 L 172.90992,237.69111 z"
       id="path303"
       style="fill:#d9261c;fill-opacity:1;fill-rule:evenodd;stroke:none" />
    <path
       d="M 369.60723,304.81659 C 374.29431,311.17777 377.80671,319.54837 374.96257,327.58367 C 353.36903,370.60546 335.28782,414.96615 317.71188,459.66206 C 311.18311,477.40569 308.17126,496.65684 298.96482,513.39692 C 297.79246,515.23863 295.61537,517.9163 293.43949,517.41451 C 287.58007,516.41217 281.72067,514.40276 278.03945,509.04513 C 266.48711,484.43855 279.043,457.31968 285.73836,433.88323 C 300.47013,392.87076 316.70833,352.52775 337.80131,314.02535 C 342.32078,307.49767 346.33838,300.12951 353.20135,295.27595 C 355.37723,294.10361 358.38908,294.4377 360.73255,294.7753 L 369.60723,304.81659 z"
       id="path305"
       style="fill:#ffffff;fill-opacity:1;fill-rule:evenodd;stroke:none" />
    <path
       d="M 432.04676,308.66771 C 435.39269,312.18364 438.57444,315.86715 439.91557,320.04893 C 440.75153,329.92716 438.24036,337.46189 434.72443,345.3272 C 416.14153,382.32428 400.575,420.4926 385.67554,458.9938 C 378.4796,478.91331 373.12086,499.6721 363.74783,518.75566 C 358.72666,520.93155 353.20135,518.25046 349.01605,515.07213 C 343.82841,510.21858 338.97133,504.19157 337.80131,497.3286 C 340.64546,459.49559 353.03374,425.51263 367.09374,392.36668 C 380.32141,361.399 394.88208,330.76653 415.1391,302.97829 C 422.00204,298.45541 427.0256,305.48828 432.04676,308.66771"
       id="path307"
       style="fill:#ffffff;fill-opacity:1;fill-rule:evenodd;stroke:none" />
    <path
       d="M 309.50778,306.49182 C 314.03068,316.20244 311.18311,328.41952 304.98951,336.28835 C 299.46659,342.48304 293.77366,349.1784 286.91181,354.03195 C 282.39243,355.03782 277.36776,353.86427 273.85415,350.68604 C 267.99473,344.82542 267.82715,335.62009 270.33832,328.08544 C 275.19188,315.36307 287.58007,303.64655 301.3083,301.97244 C 304.65422,302.30653 308.00367,303.31237 309.50778,306.49182"
       id="path309"
       style="fill:#ffffff;fill-opacity:1;fill-rule:evenodd;stroke:none" />
    <path
       d="M 282.72651,376.96664 C 281.21888,392.03259 275.19188,405.59314 271.00658,419.82082 C 260.96529,445.26557 251.92301,471.0445 245.39415,497.99688 C 243.21826,504.35806 241.71413,511.22101 237.19466,516.57978 C 230.49587,516.41217 220.62117,518.75566 216.43588,511.7228 C 203.37933,491.3015 215.9352,468.03266 221.62472,448.28083 C 228.65759,426.85026 235.68703,405.25554 246.56769,385.33612 C 251.75533,376.96664 259.45766,366.25255 270.6724,366.75434 C 276.03124,367.59371 280.71712,372.27956 282.72651,376.96664"
       id="path311"
       style="fill:#ffffff;fill-opacity:1;fill-rule:evenodd;stroke:none" />
    <path
       d="M 473.72749,398.2261 C 476.07448,407.43263 469.37451,414.29789 465.528,421.49494 C 454.81384,435.05327 447.94856,450.28561 438.74212,464.51562 C 436.90032,468.20034 434.89091,471.88387 435.39269,476.56973 C 440.24975,481.25681 445.1033,473.55799 449.62268,471.21209 C 473.22573,448.94909 488.96335,421.66262 504.02921,395.04664 C 506.53929,392.53315 509.21694,389.52142 512.73398,389.52142 C 518.92748,394.37498 525.79044,399.73372 529.64164,406.59667 C 530.644,415.30144 526.29221,423.00257 524.11632,431.03908 C 511.72811,463.1791 495.32103,495.82098 464.52095,518.41806 C 439.41038,539.67752 412.96319,557.92633 384.00142,570.31461 C 379.64963,570.81519 373.96022,571.48345 370.77727,568.13752 L 371.11145,566.96518 C 393.54435,553.23925 414.29971,535.49222 435.22508,517.41451 C 439.24388,512.56096 445.43739,508.04158 447.94856,502.34977 C 443.09389,503.68628 438.07386,506.36746 433.0492,508.04158 C 427.35968,509.04513 419.82505,512.56096 414.63731,507.8751 C 406.93618,500.67453 399.06737,492.80572 398.23141,482.26267 C 403.75675,447.10738 421.66796,417.14317 440.75153,387.51312 C 444.09744,383.99608 446.44325,377.63842 451.96627,376.96664 C 462.17857,379.4767 468.53976,389.8555 473.72749,398.2261"
       id="path313"
       style="fill:#ffffff;fill-opacity:1;fill-rule:evenodd;stroke:none" />
    <path
       d="M 505.24208,534.82396 C 511.59974,534.82396 516.72273,529.67211 516.72273,523.28438 C 516.72273,516.95667 511.59974,511.80484 505.24208,511.80484 C 498.85424,511.80484 493.7024,516.95667 493.7024,523.28438 C 493.7024,529.67211 498.85424,534.82396 505.24208,534.82396 z M 505.24208,533.43776 C 499.63812,533.43776 495.11874,528.91831 495.11874,523.28438 C 495.11874,517.71049 499.63812,513.19111 505.24208,513.19111 C 510.81708,513.19111 515.33875,517.71049 515.33875,523.28438 C 515.33875,528.91831 510.81708,533.43776 505.24208,533.43776 z M 507.08036,523.79652 C 509.37187,523.73759 511.14773,522.80342 511.14773,520.27254 C 511.14773,519.18806 510.66557,518.04115 509.70253,517.50008 C 508.73829,516.92662 507.65381,516.8677 506.56933,516.8677 L 500.9654,516.8677 L 500.9654,529.73455 L 502.53203,529.73455 L 502.53203,523.79652 L 505.42585,523.79652 L 509.09901,529.73455 L 510.96736,529.73455 L 507.08036,523.79652 z M 502.53203,522.56062 L 502.53203,518.01109 L 506.20861,518.01109 C 507.80523,518.01109 509.55102,518.25388 509.55102,520.24017 C 509.55102,522.86234 506.7497,522.56062 504.94026,522.56062 L 502.53203,522.56062 z"
       id="path315"
       style="fill:#ffffff;fill-opacity:1;fill-rule:evenodd;stroke:none" />
  </g>
</svg>
