<svg xmlns="http://www.w3.org/2000/svg" viewBox="0 0 2426.5 260.01"><defs><style>.cls-1{fill-rule:evenodd}</style></defs><title>Recurso 1</title><g id="Capa_2" data-name="Capa 2"><g id="Capa_1-2" data-name="Capa 1"><path d="M40.3,155.27C38.6,203.81,69.82,187.35,69.82,199c0,1.11,1.12,4.53-6.79,4.53-10.23,0-16.17-1.14-29.23-1.14-13.93,0-23.87,1.14-28.11,1.14s-5.4-2.28-5.4-3.95c0-10.23,23.28-3.17,24.4-33l4-114.09C30.39,5.71,0,19.05,0,6.58c0-1.7,1.44-4,3.41-4,3.71,0,8,1.12,17,1.12,6.53,0,17-1.12,26.41-1.12,3.11,0,5.94-.28,9.91,8.25l62.45,136.21c1.13,2.56,2,4.54,3.67,4.54s4.27-5.1,4.56-6L193.29,8.29c.83-2,1.71-5.68,7.11-5.68,6.78,0,12.19,1.11,16.44,1.11,5.11,0,10.52-1.11,18.46-1.11,7.66,0,8.23,1.11,8.23,3.41,0,10.22-27.82-.83-26.69,31.77l4.85,125.75c1.42,37.18,27.5,24.66,27.5,35.18,0,4.84-3.67,4.84-13.61,4.84-8.23,0-16.17-1.14-24.41-1.14-18.45,0-25.24,1.14-31.77,1.14-6,0-13.06.83-13.06-4.25,0-9.65,22.12-.28,20.42-31.77l-4.25-86c-.28-8.49-.57-12.76-2.28-12.76-1.13,0-4.54,5.69-8.81,15.06L117.8,195.92c-1.71,3.7-2.86,7.93-7.39,7.93-4.24,0-5.67-4.82-7.07-7.93L48.25,73.59c-.83-1.71-2-4.85-3.12-4.85-2,0-2,5.11-2,7.11L40.3,155.27Z" class="cls-1"/><path d="M314.3,80.63c9.65,0,35.75,4.83,35.75,21.3,0,5.11-16.17,17.3-21,17.3-2.55,0-3.12-2.26-3.67-4.24-3.42-13.63-8.27-23.28-23.57-23.28-21.84,0-26.69,20.45-26.69,38,0,27.29,15.06,57.94,41.73,57.94,16.74,0,30.65-15.07,35.19-15.07,1.13,0,2.84.3,2.84,3.42,0,7.1-23.84,29.51-53.07,29.51-32.36,0-55.06-24.4-55.06-56.74C246.76,110.71,276,80.63,314.3,80.63Z" class="cls-1"/><path d="M461.33,77.81c-1.69,1.41-6.23,5.66-6.23,8.23s2.54,5.95,6.82,11.62l54.19,73c22.15,30.06,34.63,22.11,34.63,29.23,0,2-.29,3.67-3.66,3.67-6.28,0-13.65-1.14-21.3-1.14-5.41,0-11.07,1.14-19,1.14-5.37,0-8.21-.55-13.9-8.23l-56.47-77.48c-3.7-4.83-5.41-7.95-7.1-7.95-2.27,0-7.12,4.83-13.36,11.93-4.24,4.8-3.69,7.35-3.69,13.89v37.18c0,26.13,27.84,17,27.84,27.24,0,2.58-1.15,3.42-8,3.42-7.65,0-15.32-1.14-31.49-1.14-13.63,0-28.39,1.14-37.17,1.14-5.41,0-8.82-.29-8.82-2.28,0-14.19,22.71,4.26,22.71-38.61V39.17c0-34.32-29.82-19.85-29.82-32.36,0-3.13,2.28-4.24,5.69-4.24,5.41,0,14.76,1.11,34.06,1.11,15.89,0,33.77-1.11,39.46-1.11,2.55,0,6,0,6,3.41,0,11.35-20.45-4-20.45,27.24v65c0,2.83-.28,6.82,1.43,6.52,1.72.29,3.42-1.12,7.09-4.82l37.47-36.6c7.93-8,35.47-30.93,35.47-43.74,0-8.76-17.3-5.07-17.3-11.62,0-5.12,2.82-5.41,6.52-5.41,2.83,0,22.41,1.12,30.93,1.12,7.11,0,14.48-1.12,26.69-1.12,2.26,0,7.37-.28,7.37,4.83,0,7.65-9.1-.83-36.6,24.12L461.33,77.81Z" class="cls-1"/><path d="M558.22,111.58c0-13.63-18.17-5.67-18.17-13.63,0-4.53,4.25-4.83,14.19-7.37,23.82-5.41,27.23-12.22,30.64-12.22s3.42,2,3.42,5.7v95.65c0,18.16,20.71,10.49,20.71,20.17,0,4.51-8.21,3.67-11.62,3.67-9.11,0-17.91-1.14-27-1.14-6.81,0-13.89,1.14-21,1.14-4.82,0-7.93.83-7.93-4,0-7.12,16.76-2.31,16.76-15.35Zm15.32-54.77c-4.54,0-18.72-18.17-18.72-22.43S569,11.69,573.54,11.69c4.81,0,18.71,18.41,18.71,22.69S578.35,56.81,573.54,56.81Z" class="cls-1"/><path d="M1093.62,83.75c-3.41,0-7.65,1.11-15.6,1.11-8.23,0-12.8-1.11-15.91-1.11-6.25,0-10.21-.29-10.21,4.54,0,7.4,19,2.84,19,20.16,0,2.83-1.13,9.37-4.54,18.15l-13.92,35.79c-1.12,3.14-2.54,7.07-4,7.07-2.3,0-3.13-3.11-5.12-7.07l-23.29-46.86c-2.54-5.36-5.08-11-5.08-13.89,0-8.53,15.6-6.53,15.6-14.22,0-4-3.11-3.66-7.95-3.66-5.39,0-10.5,1.11-24.69,1.11-13.06,0-17.59-1.11-22.13-1.11-5.39,0-9.93.28-9.93,4.24,0,5.69,9.34,4.86,15,16.48h0l44,86.8c5.12,9.95,7.11,13.93,7.11,17,0,2.28-1.7,7.12-6.53,14.77l-17.58,28.12c-1.42,2.26-2.55,4.51-2.55,6.51,0,1.45.55,2.26,2.55,2.26h13.34c2.84,0,3.41-2.26,4.53-5.37l60.48-152.15c3.69-9.06,14.47-10.19,14.47-15.6C1100.73,83.75,1097.32,83.75,1093.62,83.75Z"/><path d="M961.63,172.59c-4.57,0-18.46,15.07-35.19,15.07-24.73,0-42-22.11-42-46.56,0-9.07,1.11-7.1,6.26-7.1h69.81c1.69,0,3.41,0,3.41-6.23,0-14.76-15.31-47.12-53.36-47.12-36.6,0-55.06,35.47-55.06,68.13,0,38.88,27.82,56.74,55.93,56.74,29.23,0,53.06-22.41,53.06-29.51C964.46,172.89,962.76,172.59,961.63,172.59ZM907.39,88.87c17.89,0,25.82,16.73,25.82,27.53,0,7.94-1.7,7.66-6.52,7.66H885.51c-.83,0-1.37-.85-1.37-5.4C884.14,105.6,890.37,88.87,907.39,88.87Z"/><path d="M816.27,127.75c-23-9.08-34.35-10.52-34.35-23.82,0-10.22,8.51-14.5,17.87-14.5,26.7,0,29.52,24.69,35.22,24.69,2.82,0,3.67-.58,3.67-2.84h0l-1.95-23.53c-.3-4.81-27-7.1-29.23-7.1-23.85,0-46.28,9.93-46.28,36.88,0,17.3,6.53,24.71,22.13,31.52,25.28,11.06,41.16,17.57,41.16,28.95,0,11.93-8.53,19.85-20.42,19.85-30.66,0-33.8-38.32-38.6-38.32-2.85,0-4.85.85-5.11,4.84l-.87,29.26c0,4,.87,4.51,2.85,5.65,7.37,4.25,25.83,6.23,35.48,6.23,21.82,0,48.53-9.63,48.53-40C846.37,144,834.72,135.13,816.27,127.75Z"/><path d="M736.19,179.41v-46c0-27.49-12.52-52.77-43.16-52.77-16.76,0-30.94,7.11-38.6,19.58h-.57V84.06c0-3.7,0-5.7-3.41-5.7s-6.79,6.81-30.65,12.22c-9.91,2.54-14.19,2.84-14.19,7.37,0,8,18.17,0,18.17,13.63h0V176.3c0,23.58-15,15.9-15,24.13,0,1.42.28,3.12,3.11,3.12,8.52,0,18.45-1.14,28.39-1.14,14.47,0,24.71,1.14,27.82,1.14,6.82,0,8.78-1.7,8.78-4.26,0-6.81-23-4.28-23-20.44V126.36c0-16.47,5.7-27.25,24.41-27.25,21.3,0,27.82,16.18,27.82,34.6V182c0,10.51-13.06,13-13.06,17.91,0,5.08,4,3.67,9.37,3.67,3.42,0,13.64-1.14,20.75-1.14,5.94,0,15,1.14,24.1,1.14,4.83,0,6.55-.83,6.55-4.26C753.78,193.07,736.19,197.3,736.19,179.41Z"/><path d="M1355.38,183.11c-3.94,0-3.65,2-14.44,2-7.4,0-38-15-38-26.37,0-2,12.18-14.47,17.6-55.65,1.41-9.92,11.09-5.68,11.09-12.18,0-2.87-1.75-3.7-4.59-3.7-4.53,0-9.65,1.13-23.53,1.13-17.88,0-24.42-1.13-29.23-1.13-4,0-5.4,1.7-5.4,4,0,11.35,32.35-3.39,32.35,32.09,0,17-9.94,28.94-11.08,28.94-7.09,0-101.33-79.76-101.33-120.34,0-12.76,6.52-21,19.87-21,25.28,0,40.61,20.7,47.42,43.13,1.38,4.54,2.81,6.79,5.37,6.79,3.39,0,4.55-2.25,4.28-5.11-1.73-14.47-4-29.23-4-43.7,0-4.26-.27-5.67-3.11-5.67-4.26,0-5.37,4.24-9.36,4.24C1245,10.52,1227.35,0,1208.64,0,1182.82,0,1161,17.33,1161,44.29c0,17.06,6,22.17,6,27.55h0c0,3.1-43.71,14.8-43.67,64.74,0,25,20.71,68.95,84.83,68.95,22.74,0,52.53-6.51,69.83-22.11,9.37,7.9,28.93,22.11,46.28,22.11,20.7,0,35.19-14.46,35.19-19C1359.39,183.69,1357.66,183.11,1355.38,183.11Zm-122.92,5.67c-43.7,0-83.42-46.54-83.42-77.77,0-21,15.88-29.53,21.29-29.53,2.24,0,5.11,4,7.65,8.52,23.28,42.59,89.11,81.75,89.11,88.26C1267.09,183.39,1243.84,188.76,1232.46,188.78Z"/><path d="M1989.21,80.65c-15.06,0-28.38,8.5-38,19.58V86c0-1.74.58-7.69-2.53-7.69-2,0-3.42,1.15-4.84,2-26.69,16.17-40.3,11.63-40.3,19.28,0,10,17.6-2.53,17.6,18.47V242.43c0,10.79-11.9,7.1-11.9,13.32,0,4.55,2.81,4.25,6.48,4.25,4.84,0,9.38-1.11,27.27-1.11,11.1,0,15,1.11,25.53,1.11,5.13,0,6-1.94,6-3.67,0-8.79-23.28-.84-23.28-21.28h0V200.12c6.22,3.12,15,5.4,21.58,5.4,45.39,0,61.87-37.76,61.87-72.66C2034.61,106.47,2020.44,80.65,1989.21,80.65Zm-8.8,114.65c-19,0-29.24-16.47-29.24-17.3h0V110.71c5.11-5.66,13.35-10.23,21-10.23,26.7,0,37.47,34.35,37.47,54C2009.64,173.46,2003.4,195.3,1980.41,195.3Z"/><path d="M1551.34,148.22c-7.39,0-26.69,37.13-70.7,37.13-54.19,0-76.91-56.2-76.91-96.2,0-38.05,23-77.76,64.72-77.76,32.93,0,57.88,24.68,72.1,51.94,2,3.67,4,9.65,8.51,9.65,4.81,0,3.69-6.52,3.39-9.36h0l-5.09-53.93c0-1.42-2-1.7-3.4-1.7-4,0-4.25,9.35-9.65,9.35-8.48,0-30.37-17.33-64.72-17.33-71.51,0-100.75,62.75-100.75,110.41,0,22.44,12.76,95.1,95.93,95.1,60.46,0,90.53-42.87,90.53-54.19C1555.3,149.61,1552.75,148.22,1551.34,148.22Z"/><path d="M2157.33,187.35c-2,0-5.7,1.41-9.07,1.41-7.41,0-7.7-3.41-7.7-17.57h0V122.34c0-28.66-13.87-41.72-43.11-41.72-19.88,0-51.95,7.95-51.95,32.64,0,5.4,5.11,6,7.36,6,2,0,20.17,0,20.17-13.32,0-13.06,2.28-15.92,13-15.92,22.42,0,24.42,17.32,24.42,41.73-29.23,7.4-67,12.24-67,47.12,0,15.63,11.05,26.68,26.66,26.68s32.37-7.66,44.27-17.33c1.15,6,5.13,17.33,18.47,17.33,10.24,0,27.54-9.93,27.54-15.58C2160.44,188.49,2159.3,187.35,2157.33,187.35Zm-46.84-35.77v27.53c0,6.54-14.21,9.65-20.44,9.65-14.75,0-15-14.17-15-18.71,0-19,22.41-28.65,33.46-28.65C2111.08,141.4,2110.49,144,2110.49,151.58Z"/><path d="M1627.19,80.63c-38,0-64.42,29-64.42,66.14,0,34.92,26.7,58.74,61,58.74,39.17,0,66.12-26.93,66.12-65.57C1689.91,104.17,1662.67,80.63,1627.19,80.63Zm5.41,115c-31.53,0-40.6-46.26-39.77-65,.89-20.41,4.85-40.84,29.53-40.84,30.65,0,38.89,47.38,38.89,70.07C1661.25,179.11,1654.71,195.58,1632.6,195.58Z"/><path d="M1887.83,179.7v-48c0-30.36-6.54-51.07-39.17-51.07-18.16,0-31.49,10.48-38.3,19.58-7.95-11.35-18.77-19.58-33.23-19.58-15.6,0-27,7.93-36.3,17.58V84c0-3.69,0-5.69-3.45-5.69s-6.79,6.81-30.62,12.22c-9.94,2.54-14.22,2.84-14.22,7.36,0,8,18.16,0,18.16,13.64v72.65c0,13.05-13.88,8.24-13.88,15.36,0,4.78,1.7,3.95,6.54,3.95,5.65,0,12.77-1.14,19.58-1.14,9.07,0,17.89,1.14,27,1.14,3.4,0,9.94.85,9.94-3.67,0-9.67-19-2-19-20.16V115.28c0-3.7,4-16.76,21-16.76,12.77,0,22.39,5.41,22.39,32.64V181.4c0,15-11,11.9-11,18.46,0,2.53,1.43,3.67,5.13,3.67,3.94,0,9.92-1.14,25.81-1.14,12.77,0,19,1.14,24.42,1.14,3.64,0,4.23-2.56,4.23-4.53,0-8-18.42-1.15-18.42-19.89h0V126.58c0-3.38-2.58-29.23,20.67-29.23,22.43,0,22.72,20.47,22.72,37.22v51.08c0,8-11.34,8.82-11.34,13.63,0,3.7,2,4.25,6.53,4.25s17-1.14,27.26-1.14c5.66,0,11.35,1.14,17,1.14,4,0,8.53.59,8.53-4.83C1905.71,190.77,1887.83,196.17,1887.83,179.7Z"/><path d="M2287.06,179.41v-46c0-27.49-12.46-52.77-43.11-52.77-16.77,0-31,7.11-38.64,19.58h-.55V84.06c0-3.7,0-5.7-3.4-5.7s-6.81,6.81-30.65,12.22c-10,2.54-14.21,2.84-14.21,7.37,0,8,18.15,0,18.15,13.63h0V176.3c0,23.58-15,15.9-15,24.13,0,1.42.27,3.12,3.11,3.12,8.53,0,18.45-1.14,28.39-1.14,14.47,0,24.71,1.14,27.82,1.14,6.82,0,8.82-1.7,8.82-4.26,0-6.81-23-4.28-23-20.44V126.36c0-16.47,5.68-27.25,24.43-27.25,21.25,0,27.82,16.18,27.82,34.6V182c0,10.51-13,13-13,17.91,0,5.08,3.95,3.67,9.35,3.67,3.4,0,13.6-1.14,20.72-1.14,6,0,15,1.14,24.12,1.14,4.81,0,6.53-.83,6.53-4.26C2304.66,193.07,2287.06,197.3,2287.06,179.41Z"/><path d="M2419.38,83.75c-3.4,0-7.65,1.11-15.58,1.11-8.26,0-12.8-1.11-15.91-1.11-6.25,0-10.21-.29-10.21,4.54,0,7.4,19,2.84,19,20.16,0,2.83-1.14,9.37-4.54,18.15l-13.9,35.79c-1.14,3.14-2.57,7.07-4,7.07-2.26,0-3.13-3.11-5.12-7.07l-23.26-46.86c-2.57-5.36-5.12-11-5.12-13.89,0-8.53,15.6-6.53,15.6-14.22,0-4-3.11-3.66-8-3.66-5.4,0-10.51,1.11-24.69,1.11-13,0-17.58-1.11-22.12-1.11-5.39,0-9.93.28-9.93,4.24,0,5.69,9.35,4.86,15,16.48h0l44,86.8c5.1,9.95,7.07,13.93,7.07,17,0,2.28-1.7,7.12-6.54,14.77l-17.57,28.12c-1.41,2.26-2.58,4.51-2.58,6.51,0,1.45.58,2.26,2.58,2.26H2347c2.81,0,3.37-2.26,4.53-5.37L2412,102.46c3.69-9.06,14.51-10.19,14.51-15.6C2426.5,83.75,2423.08,83.75,2419.38,83.75Z"/></g></g></svg>