<?xml version="1.0" encoding="utf-8"?>
<!-- Generator: Adobe Illustrator 23.0.0, SVG Export Plug-In . SVG Version: 6.00 Build 0)  -->
<svg version="1.1" id="Capa_1" xmlns="http://www.w3.org/2000/svg" xmlns:xlink="http://www.w3.org/1999/xlink" x="0px" y="0px"
	 viewBox="0 0 1000 487.3" style="enable-background:new 0 0 1000 487.3;" xml:space="preserve">
<style type="text/css">
	.st0{fill:#0770E3;}
</style>
<title>skyscanner</title>
<g>
	<g id="Layer_1">
		<path class="st0" d="M500,280.6c4.6,0,9.2-1.3,13.2-3.6l48.6-28c9.8-5.7,21.2-8,32.5-6.8c59,6.8,100.5,18,112.7,21.5
			c2.5,0.7,5.3-0.1,6.9-2.2c2.9-3.6,5-7.8,6.4-12.2c1.5-4.3,2.1-8.9,1.9-13.5c-0.1-2.8-2-5.1-4.7-5.9
			c-19.2-5.6-103.8-28.6-217.5-28.6S301.6,224.4,282.5,230c-2.6,0.8-4.5,3.1-4.7,5.9c-0.2,4.6,0.4,9.1,1.9,13.5
			c1.4,4.4,3.5,8.5,6.4,12.2c1.7,2.1,4.4,2.9,6.9,2.2c12.2-3.6,53.7-14.7,112.7-21.5c11.3-1.3,22.6,1.1,32.5,6.8l48.6,28
			C490.8,279.3,495.4,280.6,500,280.6z"/>
		<path class="st0" d="M418.9,123c5.3,9.2,17.2,12.4,26.4,7.1s12.4-17.2,7.1-26.4L408.6,28c-1.4-2.4-4.1-3.4-6.9-3.2
			c-3.5,0.3-8.4,2.1-14.1,5.4s-9.8,6.7-11.7,9.5c-1.6,2.3-2.1,5.2-0.7,7.6L418.9,123z"/>
		<path class="st0" d="M378.8,177.2c9.2,5.3,21.1,2.2,26.4-7.1c5.3-9.2,2.2-21.1-7.1-26.4l0,0L322.4,100c-2.4-1.4-5.3-0.9-7.6,0.7
			c-2.9,2-6.2,6-9.5,11.7s-5.1,10.7-5.4,14.1c-0.2,2.8,0.8,5.5,3.2,6.9L378.8,177.2z"/>
		<path class="st0" d="M519.3,96.1c0,10.7-8.7,19.3-19.3,19.3c-10.7,0-19.3-8.7-19.3-19.3V8.6c0-2.8,1.9-5,4.4-6.2
			C488.2,0.9,493.4,0,500,0s11.8,0.9,14.9,2.4c2.5,1.2,4.4,3.4,4.4,6.2V96.1z"/>
		<path class="st0" d="M581.1,123c-5.3,9.2-17.2,12.4-26.4,7.1s-12.4-17.2-7.1-26.4L591.4,28c1.4-2.4,4.1-3.4,6.9-3.2
			c3.5,0.3,8.4,2.1,14.1,5.4s9.8,6.7,11.7,9.5c1.6,2.3,2.1,5.2,0.7,7.6L581.1,123z"/>
		<path class="st0" d="M621.2,177.2c-9.2,5.3-21.1,2.2-26.4-7.1c-5.3-9.2-2.2-21.1,7.1-26.4l0,0l75.7-43.7c2.4-1.4,5.3-0.9,7.6,0.7
			c2.8,2,6.2,6,9.5,11.7s5.1,10.7,5.4,14.1c0.2,2.8-0.8,5.5-3.2,6.9L621.2,177.2z"/>
		<path class="st0" d="M203.2,346.8h24.3c0.9,0,1.7,0.5,2,1.4l24.2,62l23.5-62c0.3-0.8,1.1-1.4,2-1.4H303c1.2,0,2.2,1,2.2,2.1
			c0,0.3-0.1,0.6-0.2,0.9l-59.3,136c-0.3,0.8-1.1,1.3-2,1.3l-21,0.1c-1.2,0-2.2-1-2.2-2.1c0-0.3,0.1-0.6,0.2-0.9l20.2-47.5
			l-39.6-86.9c-0.5-1.1,0-2.4,1.1-2.8C202.6,346.9,202.9,346.8,203.2,346.8z"/>
		<path class="st0" d="M562,360.6V349c0-1.2,1-2.2,2.2-2.2h21.5c1.2,0,2.2,1,2.2,2.2v92.3c0,1.2-1,2.2-2.2,2.2h-21.5
			c-1.2,0-2.2-1-2.2-2.2v-12.2c-6.9,10.4-18.6,16.6-31.1,16.4c-31.4,0-47.8-24-47.8-50.8c0-34.9,24.3-50,47-50
			C545.1,344.7,555.5,351.8,562,360.6z M509,394.9c0,16.6,10.3,29.4,26.6,29.4s27-11,27-28.1S552.3,366,535,366
			C518.5,366,509,378.8,509,394.9z"/>
		<path class="st0" d="M607.2,441.2V349c0-1.2,1-2.2,2.2-2.2h21.5c1.2,0,2.2,0.9,2.2,2.1c0,0,0,0,0,0v12.5
			c5.1-8.8,14.5-16.8,30.6-16.8c16.6,0,35.1,8.2,35.1,45.7v50.8c0,1.2-1,2.2-2.2,2.2H675c-1.2,0-2.2-1-2.2-2.2v-50.5
			c0-9-2.2-24.5-18.3-24.5S633,380.3,633,393.4v47.9c0,1.2-1,2.2-2.2,2.2h-21.5C608.2,443.4,607.2,442.4,607.2,441.2z"/>
		<path class="st0" d="M717.4,441.2V349c0-1.2,1-2.2,2.2-2.2H741c1.2,0,2.2,1,2.2,2.2v12.5c5.1-8.8,14.5-16.8,30.6-16.8
			c16.6,0,35.1,8.2,35.1,45.7v50.8c0,1.2-1,2.2-2.2,2.2h-21.5c-1.2,0-2.2-1-2.2-2.2v-50.5c0-9-2.2-24.5-18.3-24.5
			s-21.6,14.1-21.6,27.1v47.9c0,1.2-1,2.1-2.1,2.2h-21.5C718.3,443.4,717.4,442.4,717.4,441.2L717.4,441.2z"/>
		<path class="st0" d="M942.9,346.8h20.9c1.2,0,2.2,0.9,2.2,2.1c0,0,0,0,0,0v19.1c4.2-19,20.4-25.4,32.3-22.7c1,0.2,1.7,1.1,1.7,2.1
			v21c0,1.2-1,2.2-2.1,2.2c-0.1,0-0.3,0-0.4,0c-22-4.3-30.9,7.5-30.9,24.2v46.5c0,1.2-1,2.2-2.2,2.2h-21.5c-1.2,0-2.2-1-2.2-2.2V349
			C940.8,347.8,941.7,346.8,942.9,346.8C942.9,346.8,942.9,346.8,942.9,346.8z"/>
		<path class="st0" d="M60.9,367.8l-15.6-5.4c-5.4-1.9-14.8-7.3-14.8-15.9s6-14,17.9-14c11,0,17.1,5.4,21,13.9
			c0.5,1.1,1.8,1.6,2.9,1.1c0,0,0.1,0,0.1-0.1l17.6-10.2c1-0.6,1.3-1.7,0.9-2.8c-5.3-11.7-17.7-25.8-42.4-25.8
			C21.2,308.7,4,325,4,346.4s14.1,32.5,33.2,39l15.8,5.3c11.2,3.8,16.4,8.9,16.4,15.9s-4.4,15.2-21.9,15.2c-16,0-21.7-8.5-24.9-16.5
			c-0.4-1.1-1.7-1.6-2.8-1.2c-0.1,0-0.2,0.1-0.3,0.1L1.1,414.9c-0.9,0.5-1.3,1.7-0.9,2.7c7,17.5,26.5,27.9,48.4,27.9
			c25.6,0,47.2-13.1,47.2-39.4S67.5,370,60.9,367.8z"/>
		<path class="st0" d="M202.4,418.2c-0.6-1-1.9-1.4-2.9-0.8c-0.1,0-0.1,0.1-0.2,0.1c-8.3,6.1-18.1,6.2-25.4-5.2l-13.7-21.4
			l32.5-40.5c0.7-0.9,0.6-2.3-0.3-3c-0.4-0.3-0.9-0.5-1.4-0.5h-25.4c-0.7,0-1.3,0.3-1.8,0.9l-28.1,38.7v-77.9c0-1.2-1-2.2-2.2-2.2
			l0,0H112c-1.2,0-2.2,1-2.2,2.2l0,0v132.7c0,1.2,1,2.2,2.2,2.2h0h21.5c1.2,0,2.2-1,2.2-2.2l0,0v-43.1l19.8,31.1
			c7.3,11.6,17.8,16.2,29,16.2c10.6,0,17.5-2.9,25.6-10.8c0.7-0.7,0.9-1.8,0.4-2.6L202.4,418.2z"/>
		<path class="st0" d="M356.5,387.6l-14.4-5.3c-5.2-1.9-9.7-4.7-9.7-8.9s3.8-8.8,11.7-8.8c6.9,0,11,2.7,13.3,7.4
			c0.5,1.1,1.8,1.5,2.9,1c0,0,0.1,0,0.1-0.1l15.1-8.7c1-0.6,1.4-1.9,0.8-2.9c0,0,0,0,0-0.1c-4.1-7.2-12.3-16.5-32-16.5
			c-24.2,0-36.6,14-36.6,29.4s12.6,22.7,24.2,27.3l15.5,6.3c4,1.6,8.8,4.1,8.8,8.8s-5.3,8.7-13.6,8.7c-7.6,0-16.1-3.1-19.7-11.8
			c-0.4-1.1-1.7-1.7-2.8-1.2c-0.1,0-0.2,0.1-0.3,0.1l-15.2,8.8c-0.9,0.5-1.3,1.7-0.9,2.6c4.5,11.5,17.7,21.7,38.9,21.7
			c23.1,0,38.5-12.3,38.5-29.7S369.5,392.4,356.5,387.6z"/>
		<path class="st0" d="M443.4,367.9c8.4-0.1,16.7,2.6,23.4,7.7c1,0.7,2.3,0.5,3-0.5c0-0.1,0.1-0.1,0.1-0.2l8.9-15.3
			c0.6-1,0.3-2.2-0.7-2.9c-9.2-6.2-20.5-12-36-12c-15.2,0-29.4,4.2-39.5,14.3S388,381.1,388,395.4c0,17.2,7.1,28.1,14.8,35.9
			s21.6,14.2,39.4,14.2c16,0,27.9-6.6,35.9-12c0.9-0.6,1.2-1.9,0.6-2.9l-8.8-15.3c-0.6-1-1.9-1.4-2.9-0.8c-0.1,0-0.1,0.1-0.2,0.1
			c-6.8,5-15,7.7-23.4,7.7c-10.5,0-29.6-6-29.6-27.2S432.9,367.9,443.4,367.9z"/>
		<path class="st0" d="M879.3,424.1c-8.6,0-16.8-2-22.7-6.8s-8.7-9.6-8.7-15.4h76.8c1.2,0,2.2-1,2.2-2.2c0,0,0,0,0-0.1
			c-0.5-22.8-7.8-33.5-15-40.7c-7.4-7.4-20-14.2-36.5-14.2s-29.4,6.1-38,14.7s-15.1,19.5-15.1,36.1s6.7,27.5,14.9,35.7
			s21.5,14.3,40.5,14.3c18.1,0,33.3-6.4,44.3-18.9c0.8-0.9,0.7-2.3-0.2-3c-0.1-0.1-0.2-0.2-0.4-0.3l-15.3-8.8
			c-0.8-0.5-1.8-0.4-2.5,0.3C896.9,420.7,888.2,424,879.3,424.1z M875.1,365.5c12.3,0,23.6,7.4,25.3,20.8h-51.6
			C852.1,371.8,862.8,365.5,875.1,365.5z"/>
	</g>
</g>
</svg>
