<svg xmlns="http://www.w3.org/2000/svg" viewBox="0 0 768.03 249.01"><defs><style>.cls-1{fill:#757575;}.cls-2{fill:#fbe666;}</style></defs><title>Recurso 1</title><g id="Capa_2" data-name="Capa 2"><g id="Capa_1-2" data-name="Capa 1"><path class="cls-1" d="M381.48.74a17,17,0,0,1,16,3.27c3.62,3.37,5.16,8.41,5.18,13.26q0,71.51,0,143c-.26,7.14,1.25,15.15-3.17,21.36-4.4,6.41-13.64,8.1-20.42,4.72-5.53-2.75-8.49-9.09-8.42-15.08q0-74,0-147.94c.06-4.4-.46-9,1.1-13.18A15.1,15.1,0,0,1,381.48.74Z"/><path class="cls-1" d="M254.47,90.65c8.12-11.58,21.65-18.72,35.61-20.07,14.83-1.64,31.19.88,42.68,11.07,10.67,9.38,15.43,23.75,16.4,37.58.3,5.44,1.1,11.41-1.74,16.35-2.21,3.9-7.08,4.93-11.22,5-20.6,0-41.21,0-61.81,0,1.31,7.66,4.9,15.87,12.51,19.09,10.62,4.52,22.6,1.86,33.22-1.32,4.21-1.25,8.56-2.8,13-2.18,6.22,1.34,10.64,8,9.93,14.25-.6,4.75-4.52,8.17-8.43,10.43-7.18,4-15.39,5.57-23.46,6.52-15.28,1.78-31.83.59-44.94-8.19-13-8.4-20.43-23.35-22.26-38.41-2.11-17.16.27-35.75,10.49-50.11m30.28,7.13c-7.68,4-9.58,13.39-10.35,21.27,15,0,30.05,0,45.07,0-.57-8-3.25-17.13-10.9-21.16A28.19,28.19,0,0,0,284.75,97.78Z"/><path class="cls-1" d="M130.4,71.43c5.51-1.55,12-.62,16.16,3.57,3.5,3.44,4.9,8.45,4.88,13.24,0,17.7,0,35.39,0,53.08,0,6.38,2.57,13.18,8.14,16.7,4.9,3.18,11,3.47,16.66,2.81,4.85-.61,9.69-2.88,12.51-7,3.18-4.5,3.63-10.2,3.69-15.54q0-26,0-52c.05-6,3.69-12.1,9.42-14.32,6.23-2.51,14.27-1.32,18.63,4.09,3.4,3.91,4.06,9.3,4,14.3-.11,16,.12,31.93-.11,47.9-.33,13.66-4,28.27-14.43,37.81-11.15,10.28-27.14,12.77-41.77,12.2-13.48-.46-27.81-4.51-37-14.95-8.42-9.52-11.58-22.58-11.72-35,0-17.34,0-34.68,0-52C119.55,79.71,124,73.27,130.4,71.43Z"/><path class="cls-1" d="M523.38,71.6c15-1.89,31.39-1.2,44.63,6.93,9.11,5.46,15.31,14.89,18,25.06a79,79,0,0,1,2.46,20.71q0,23,0,46c.09,5.07-1.56,10.41-5.44,13.85a16.75,16.75,0,0,1-21,.44,16.56,16.56,0,0,1-5.79-13.26c.05-15.34,0-30.68,0-46,0-6.76.28-14.18-3.83-20-3.36-5-9.45-7.25-15.26-7.46s-12,.93-16.31,5c-4,4-5.39,9.85-5.37,15.35,0,17.38,0,34.76,0,52.13,0,4.14-.89,8.43-3.48,11.76-5.5,7.35-17.72,8-24,1.33a17.06,17.06,0,0,1-4.52-12.14c0-11.67,0-23.33,0-35,.11-10.66-.72-21.52,2.16-31.93,2.4-9.91,8.14-19.11,16.6-24.94A51,51,0,0,1,523.38,71.6Z"/><path class="cls-1" d="M627.06,84.19c10.92-9.6,25.79-13.77,40.14-13.42,14.06,0,28.4,2.9,40.72,9.87,5.67,3.08,9.92,9,9.78,15.67q0,49.51,0,99.05c-.21,14.94-5,30.79-16.68,40.78S673.23,249.2,658.17,249c-11.58-.49-23.25-3.41-33.22-9.44-3.6-2.31-7-5.19-9.09-9-3.82-7.05.62-17.11,8.48-18.88,5.78-.9,11.2,1.93,16.4,4a51.49,51.49,0,0,0,22.5,4.59c6.6,0,13.68-1.66,18.47-6.48,4.45-4.63,5.81-11.31,5.76-17.53,0-5.76-.05-11.51,0-17.27-9,7.95-21.73,9.86-33.37,9.11-12.19-.75-24.15-6.19-32.13-15.55-11.23-12.87-14.55-30.78-13.64-47.4.78-15.35,6.88-30.9,18.74-41m33.68,13.92a23.53,23.53,0,0,0-13.1,6.62c-6.31,6.84-7.74,16.61-7.73,25.56.13,8.05.76,16.8,5.75,23.48,4.73,6.15,13.13,7.55,20.43,7,7-.34,13.87-4.14,17.08-10.5,6-11.38,3.87-24.64,4.29-37-.22-3.67,1.1-8.41-2.57-10.79C678.05,97.44,668.87,96.9,660.74,98.11Z"/><path class="cls-1" d="M1.63,79.92C5,73.35,13.38,70.79,20.29,72.2c5.49,1,9.4,5.89,10.77,11.08q9.48,32,18.94,64a13.57,13.57,0,0,0,1.61,3.53c6.62-21.85,13-43.76,19.52-65.66,1.22-4.69,3.48-9.62,8.08-11.82,7.39-3.37,17.56-1,21.75,6.24,2.67,4.79,2,10.65.06,15.57-9,25-17.81,50.12-26.77,75.16-1.88,4.82-3.68,9.95-7.43,13.69s-9.56,4.06-14.64,4.1c-5.64,0-11.92-.49-16.25-4.55-4-3.81-6.05-9.08-7.93-14.13-8.89-25.12-17.71-50.26-26.64-75.35C-.3,89.54-.7,84.28,1.63,79.92Z"/><path class="cls-1" d="M437.61,73c6.73-2.67,15.28-.64,19.38,5.52,2.44,3.41,3,7.74,3,11.83q-.06,40,0,80c0,4.46-1.12,9.12-4.16,12.51-5.76,6.8-17.54,7-23.54.42a17.76,17.76,0,0,1-4.32-11.88q0-41.53,0-83.08C427.77,81.9,431.48,75.27,437.61,73Z"/><path class="cls-2" d="M739.65,12.05a26.12,26.12,0,0,1,15.7,0,18.46,18.46,0,0,1,12.37,14.18c.69,5.61.44,11.81-3,16.56-6.7,9.38-21.25,10.66-30.39,4.27C722.58,38.33,725,16.35,739.65,12.05Z"/></g></g></svg>