<svg xmlns="http://www.w3.org/2000/svg" xmlns:xlink="http://www.w3.org/1999/xlink" id="Capa_1" x="0" y="0" enable-background="new 0 0 159.8 54.5" version="1.1" viewBox="0 0 159.8 54.5" xml:space="preserve"><style type="text/css">.st0{fill:#cf0a2c}.st1{fill:#fff}</style><title>Recurso 1</title><path d="M54.5,27.3c0-14.9-12-27.1-26.9-27.3h105c15.1,0,27.3,12.2,27.3,27.3s-12.2,27.3-27.3,27.3H27.3  C42.3,54.5,54.5,42.3,54.5,27.3z"/><path d="M27.3,0h0.3c15.1,0.1,27.2,12.3,27.1,27.4S42.4,54.6,27.3,54.5l0,0c-15.1-0.4-26.9-12.9-26.5-28  C1.1,12.1,12.8,0.4,27.3,0z" class="st0"/><path d="M27.1,44.3L41.4,30L27.1,15.7L12.8,30L27.1,44.3z M41.6,30c0,0-1.6,2.8-6.5,7.8s-8,6.7-8,6.7s-2.9-1.6-7.8-6.5  s-6.7-8-6.7-8s1.6-2.9,6.5-7.8s8-6.7,8-6.7s2.9,1.6,7.8,6.6S41.6,30,41.6,30 M27.1,44.3L41.4,30L27.1,15.7L12.8,30L27.1,44.3z M41.6,30c0,0-1.6,2.8-6.5,7.8s-8,6.7-8,6.7s-2.9-1.6-7.8-6.5s-6.7-8-6.7-8s1.6-2.9,6.5-7.8s8-6.7,8-6.7s2.9,1.6,7.8,6.6  S41.6,30,41.6,30 M40.2,29.8h-1.3v-1.3L40.2,29.8z M37.5,27v2.8H36v-4.2L37.5,27z M34.6,24.1v5.6h-1.5v-7.1L34.6,24.1z M31.7,21.2  v8.6h-1.4v-10L31.7,21.2z M28.8,18.3v11.5h-1.5V16.9L28.8,18.3z M14,30.2h1.3v1.3L14,30.2z M16.8,33v-2.8h1.5v4.2L16.8,33z M19.7,35.9v-5.7h1.5v7.1L19.7,35.9z M22.6,38.8v-8.6H24v10L22.6,38.8z M25.5,41.7V30.2h1.5v12.9L25.5,41.7z M27.3,30.2h2.9v3.6  h-2.9V30.2z M30.2,40.2l-2.9,2.9v-7.9h2.9V40.2z M24,19.8l2.9-2.9v7.8H24V19.8z M26.9,29.8H24v-3.6h2.9V29.8z M42.3,30  c0-0.3,0.3-0.6,0.6-0.6l0,0c0.3,0,0.6,0.3,0.6,0.6c0,0.3-0.3,0.6-0.6,0.6C42.6,30.6,42.3,30.3,42.3,30L42.3,30 M10.7,30  c0-0.3,0.3-0.6,0.6-0.6l0,0c0.3,0,0.6,0.2,0.6,0.6c0,0,0,0,0,0c0,0.3-0.3,0.6-0.6,0.6l0,0C11,30.6,10.7,30.3,10.7,30 M26.5,45.8  c0-0.3,0.3-0.6,0.6-0.6c0.3,0,0.6,0.3,0.6,0.6l0,0c0,0.3-0.2,0.6-0.6,0.6c0,0,0,0,0,0C26.8,46.4,26.5,46.1,26.5,45.8L26.5,45.8 M23.5,9.2c-0.2-0.1-0.4-0.1-0.5-0.1c-0.7-0.1-1.3,0.4-1.5,1.1c0,0.3,0.2,0.6,0.4,0.7l-0.6,0.6c-0.4-0.3-0.6-0.8-0.6-1.4  c0.1-1.2,1.2-2.1,2.4-2c0.3,0,0.7,0.1,1,0.2c0.8-0.9,2.2-1.1,3.2-0.5c0.4-0.2,0.9-0.3,1.3-0.3c0.7,0,1.4,0.3,1.9,0.8  c0.3-0.1,0.7-0.2,1-0.2c1.2-0.1,2.3,0.8,2.4,2c0,0.6-0.3,1.1-0.8,1.4l-0.6-0.6c0.2-0.2,0.4-0.4,0.4-0.7c0-0.6-0.7-1.1-1.5-1.1  c-0.2,0-0.4,0-0.5,0.1c0,0.1,0,0.2,0,0.4c0,0.4-0.1,0.8-0.4,1.1L29.8,10c0.1-0.1,0.1-0.3,0.1-0.4c-0.1-0.7-0.7-1.2-1.5-1.1  c-0.3,0-0.6,0.1-0.8,0.2V10h-0.9V8.7c-0.3-0.2-0.6-0.2-0.9-0.2c-0.7-0.1-1.3,0.4-1.5,1.1c0,0.1,0,0.3,0.1,0.4l-0.6,0.7  c-0.2-0.3-0.4-0.7-0.4-1.1C23.4,9.4,23.4,9.3,23.5,9.2 M22.7,14l0.5,0.8c2.5-1.2,5.4-1.2,7.9,0l0.5-0.8c-1.4-0.7-2.9-1-4.4-1  C25.6,13,24.1,13.3,22.7,14 M26.5,6.3c0-0.3,0.3-0.6,0.6-0.6c0.3,0,0.6,0.3,0.6,0.6c0,0.3-0.3,0.6-0.6,0.6c0,0,0,0,0,0  C26.8,6.9,26.5,6.7,26.5,6.3C26.5,6.3,26.5,6.3,26.5,6.3 M22.7,13.3c-0.2,0-0.4-0.2-0.5-0.4c0.1-0.2,0.4-0.3,0.6-0.3  c0.2,0,0.5,0.2,0.5,0.4C23.2,13.1,22.9,13.3,22.7,13.3 M22.3,12.1c-0.1-0.2-0.3-0.4-0.6-0.4c-0.2,0.3-0.2,0.7,0.1,0.9  c0.1,0.1,0.3,0.2,0.4,0.2C22.3,12.6,22.3,12.4,22.3,12.1 M25,12.6c-0.2-0.1-0.4-0.3-0.4-0.5c0.2-0.2,0.4-0.2,0.7-0.2  c0.2,0.1,0.4,0.3,0.4,0.5C25.5,12.6,25.2,12.6,25,12.6 M24.4,12.7c0.2-0.2,0.2-0.4,0.2-0.7c-0.2-0.1-0.5,0-0.7,0.1  c-0.2,0.2-0.2,0.4-0.2,0.7C23.9,12.9,24.2,12.9,24.4,12.7 M24.8,11.4c-0.1-0.2-0.2-0.4-0.5-0.5c-0.2,0.2-0.3,0.4-0.3,0.6  c0.1,0.2,0.3,0.4,0.5,0.5C24.8,11.9,24.8,11.6,24.8,11.4 M31.5,13.3c0.2,0,0.4-0.2,0.5-0.4c-0.1-0.2-0.4-0.3-0.6-0.3  c-0.2,0-0.4,0.2-0.5,0.4C31.1,13.1,31.3,13.3,31.5,13.3 M32,12.1c0.1-0.2,0.3-0.3,0.6-0.4c0.2,0.3,0.2,0.7,0,0.9  c-0.1,0.1-0.3,0.2-0.4,0.2C32,12.6,31.9,12.4,32,12.1 M29.3,12.6c0.2-0.1,0.4-0.3,0.4-0.5c-0.2-0.2-0.4-0.2-0.7-0.2  c-0.2,0.1-0.4,0.3-0.4,0.5C28.8,12.6,29,12.6,29.3,12.6 M29.9,12.7c-0.2-0.2-0.2-0.4-0.2-0.7c0.2-0.1,0.5,0,0.7,0.1  c0.2,0.2,0.2,0.4,0.2,0.7C30.3,12.9,30.1,12.9,29.9,12.7 M29.4,11.4c0.1-0.2,0.3-0.4,0.5-0.5c0.3,0.2,0.3,0.6,0.1,0.9  c-0.1,0.1-0.2,0.2-0.3,0.2C29.5,11.8,29.4,11.6,29.4,11.4 M26.8,12.4c0.2-0.1,0.3-0.4,0.3-0.6c-0.3-0.2-0.7-0.1-0.9,0.2  c-0.1,0.1-0.1,0.3-0.1,0.4C26.4,12.4,26.6,12.4,26.8,12.4 M27.5,12.3c-0.2-0.1-0.3-0.4-0.3-0.6c0.2-0.1,0.5-0.1,0.7,0  c0.2,0.1,0.3,0.4,0.3,0.6C27.9,12.5,27.7,12.5,27.5,12.3 M26.8,11.1c0-0.2,0.2-0.5,0.4-0.6c0.2,0.1,0.4,0.3,0.4,0.6  c0,0.2-0.2,0.5-0.4,0.6C26.9,11.6,26.8,11.4,26.8,11.1" class="st1"/><polygon points="31.7 38.7 31.7 38.7 31.7 35.2 35.2 35.2" class="st1"/><polygon points="19.1 24.7 22.6 21.2 22.6 24.7" class="st1"/><polygon points="31.7 30.2 31.7 32 31.7 33.8 34.2 33.8 36.6 33.8 40.2 30.2" class="st1"/><polygon points="17.6 26.2 14 29.8 22.6 29.8 22.6 26.2" class="st1"/><path d="M137.1,34.2c0,1-0.8,1.9-1.9,1.9c-0.1,0-0.2,0-0.3,0c-0.6,0.1-1.2-0.4-1.2-1c0-0.6,0.6-1.2,1.2-1.1l2.1-0.2  L137.1,34.2L137.1,34.2z M139.8,37.5V36c-0.1,0-0.2,0-0.3,0c-0.3,0-0.5-0.1-0.5-0.5v-3.1c0-0.6-0.1-1.2-0.3-1.7  c-0.5-1.3-1.7-1.7-3.1-1.7c-1.9,0-3.4,0.8-3.5,2.7h1.9c0.1-0.8,0.6-1.2,1.6-1.2c1.1,0,1.4,0.5,1.4,1.3v0.5l-2.5,0.2  c-1.6,0.1-2.9,1-2.9,2.6c0,1.4,1,2.6,3.1,2.6c1,0,2-0.4,2.6-1.3c0.1,0.7,0.7,1.2,1.4,1.2C139.2,37.7,139.5,37.6,139.8,37.5z M130.1,37.6v-5.6c0.1-1.5-1-2.9-2.5-3c-0.1,0-0.2,0-0.4,0c-1,0-1.9,0.5-2.5,1.3l-0.2-1.1h-1.7v8.4h2v-3.4c-0.1-0.8,0-1.5,0.3-2.3  c0.2-0.6,0.8-1.1,1.5-1.1c1.1,0,1.4,0.6,1.4,1.6v5.2L130.1,37.6z M118.9,33.3c0.1,0.8-0.1,1.5-0.6,2.1c-0.7,0.7-1.9,0.7-2.6,0  c0,0,0,0,0,0c-0.5-0.6-0.7-1.4-0.6-2.1c-0.1-0.8,0.1-1.5,0.6-2.1c0.3-0.3,0.8-0.5,1.3-0.5c0.5,0,0.9,0.2,1.3,0.5  C118.7,31.8,118.9,32.6,118.9,33.3 M120.9,33.4c0.1-1.1-0.3-2.2-1-3.1c-1.5-1.6-4-1.7-5.7-0.2c-0.1,0.1-0.2,0.2-0.2,0.2  c-0.7,0.9-1.1,2-1,3.1c-0.1,1.1,0.3,2.2,1,3.1c1.5,1.6,4,1.7,5.7,0.2c0.1-0.1,0.2-0.2,0.2-0.2C120.6,35.6,120.9,34.5,120.9,33.4 M111.9,37.6v-1.7h-0.3c-0.7,0-0.8-0.3-0.8-0.8v-9.2h-2v9.6c-0.2,1.1,0.6,2.1,1.7,2.3c0.2,0,0.4,0,0.6,0  C111.3,37.7,111.6,37.6,111.9,37.6 M104.9,32.5h-3.6c0-0.5,0.1-0.9,0.4-1.3c0.3-0.4,0.9-0.7,1.4-0.6c0.5,0,0.9,0.1,1.3,0.5  C104.7,31.5,104.9,32,104.9,32.5 M106.9,33.5c0.1-1-0.2-2.1-0.7-2.9c-0.7-1-1.9-1.6-3.1-1.6c-1,0-1.9,0.4-2.6,1  c-0.8,0.9-1.3,2.1-1.2,3.4c-0.1,1.3,0.4,2.5,1.3,3.4c0.7,0.7,1.7,1,2.7,1c1.1,0,2.1-0.4,2.8-1.1c0.4-0.4,0.6-1,0.7-1.5h-2  c-0.2,0.7-0.9,1.2-1.6,1.1c-0.5,0-0.9-0.2-1.3-0.5c-0.4-0.5-0.6-1-0.5-1.6h5.6C106.9,33.8,106.9,33.4,106.9,33.5 M98,34.6h-2  c0,0.3-0.1,0.5-0.3,0.8C95.5,35.8,95,36,94.5,36c-0.5,0-0.9-0.2-1.2-0.5c-0.4-0.6-0.6-1.4-0.6-2.1c-0.1-0.8,0.1-1.5,0.6-2.1  c0.3-0.3,0.8-0.5,1.2-0.5c0.5,0,1,0.2,1.3,0.6c0.1,0.2,0.2,0.5,0.3,0.8h2c0-0.7-0.3-1.3-0.7-1.8c-0.7-0.9-1.8-1.3-2.9-1.3  c-1.1,0-2.2,0.5-2.9,1.3c-0.7,0.9-1,2-0.9,3.1c-0.1,1.1,0.3,2.2,0.9,3.1c0.7,0.8,1.8,1.3,2.9,1.3c1.1,0,2.2-0.5,2.9-1.3  C97.8,35.9,98,35.2,98,34.6 M90,31v-1.9c-0.2,0-0.4,0-0.6,0c-1-0.1-1.9,0.4-2.4,1.3l-0.2-1.3h-1.7v8.4h2v-4.2  C87,32.2,87.8,31.1,89,31c0.1,0,0.2,0,0.3,0C89.5,30.9,89.8,31,90,31 M80.6,34.2c0,1.1-0.8,1.9-1.9,1.9c-0.1,0-0.2,0-0.3,0  c-0.6,0.1-1.1-0.4-1.2-1c0-0.7,0.6-1.2,1.2-1.1c0,0,0,0,0,0l2.1-0.2L80.6,34.2L80.6,34.2z M83.3,37.4V36c-0.1,0-0.2,0-0.3,0  c-0.3,0-0.5-0.1-0.5-0.5v-3.1c0-0.6-0.1-1.2-0.2-1.7c-0.5-1.3-1.7-1.7-3.2-1.7c-1.9,0-3.4,0.8-3.5,2.7h2c0-0.8,0.6-1.2,1.5-1.2  c1.2,0,1.4,0.5,1.4,1.3v0.5l-2.5,0.2c-1.6,0.1-2.8,1-2.8,2.6c0,1.4,1,2.6,3,2.6c1,0,2-0.4,2.6-1.3c0.1,0.7,0.7,1.2,1.4,1.2  C82.7,37.7,83,37.6,83.3,37.4L83.3,37.4z M72,34.2c0,1.2-1.1,1.5-2,1.5h-2.6v-3.2h2.6C71.2,32.5,72.1,32.9,72,34.2 M71.8,29.3  c0,1.1-0.8,1.4-1.7,1.4h-2.7v-2.9H70C70.9,27.9,71.8,28.2,71.8,29.3 M74.2,34.2c0-1.1-0.6-2.1-1.7-2.6c0.9-0.5,1.5-1.4,1.4-2.4  c0-1-0.5-1.9-1.3-2.5c-0.8-0.5-1.7-0.7-2.7-0.6h-4.6v11.5h4.6c1.1,0.1,2.2-0.2,3.1-0.8C73.8,36.2,74.2,35.2,74.2,34.2" class="st1"/><path d="M138.2,18h-2.6c0-0.3,0.1-0.7,0.3-0.9c0.5-0.6,1.4-0.6,1.9-0.1C138.1,17.2,138.2,17.6,138.2,18 M139.7,18.6  c0.1-0.7-0.1-1.5-0.5-2.1c-0.5-0.7-1.3-1.1-2.2-1.1c-0.7,0-1.4,0.3-1.9,0.8c-0.6,0.7-0.9,1.5-0.9,2.4c0,0.9,0.3,1.8,0.9,2.4  c0.5,0.5,1.2,0.8,1.9,0.7c0.8,0,1.5-0.3,2-0.9c0.3-0.3,0.4-0.7,0.5-1.1h-1.4c-0.1,0.2-0.2,0.4-0.3,0.5c-0.2,0.2-0.6,0.3-0.9,0.3  c-0.3,0-0.7-0.1-0.9-0.4c-0.3-0.3-0.5-0.7-0.4-1.2h4C139.7,18.9,139.7,18.6,139.7,18.6 M132,18.6c0,0.9-0.2,2-1.4,2  c-0.4,0-0.8-0.2-1-0.5c-0.3-0.4-0.4-1-0.4-1.5c0-0.5,0.1-1,0.4-1.5c0.2-0.3,0.6-0.5,1-0.5C131.8,16.6,132,17.7,132,18.6 M133.4,21.6  v-8.4h-1.4V16c-0.4-0.4-1-0.6-1.6-0.6c-0.5,0-1.1,0.2-1.5,0.5c-0.8,0.7-1.2,1.7-1.1,2.7c-0.1,1,0.3,2,1.1,2.6  c0.4,0.3,0.9,0.5,1.5,0.5c0.6,0,1.3-0.3,1.7-0.8l0.1,0.7L133.4,21.6z M124.8,21.5v-1.2c-0.3,0-0.6,0.1-0.9,0.1  c-0.5,0-0.7-0.2-0.7-0.7v-2.9h1.5v-1.2h-1.5v-1.9l-1.4,0.4v1.5h-1.1v1.2h1.1v3.1c-0.1,0.9,0.5,1.7,1.4,1.9c0.1,0,0.3,0,0.4,0  C123.9,21.7,124.3,21.6,124.8,21.5 M120.1,21.6v-4c0-1.2-0.9-2.1-2-2.1c-0.7,0-1.4,0.3-1.8,0.9l-0.1-0.8h-1.2v6.1h1.4v-2.5  c0-0.5,0-1.1,0.2-1.6c0.1-0.4,0.5-0.7,1-0.8c0.8,0,1,0.4,1,1.1v3.7L120.1,21.6z M112.5,18h-2.6c0-0.3,0.1-0.7,0.3-0.9  c0.5-0.6,1.4-0.6,1.9-0.1C112.4,17.2,112.5,17.6,112.5,18 M114,18.6c0.1-0.7-0.1-1.5-0.5-2.1c-0.5-0.7-1.3-1.2-2.2-1.1  c-0.7,0-1.4,0.3-1.9,0.8c-0.6,0.7-0.9,1.5-0.9,2.4c0,0.9,0.3,1.8,0.9,2.4c0.5,0.5,1.2,0.8,1.9,0.7c0.8,0,1.5-0.3,2-0.9  c0.3-0.3,0.4-0.7,0.5-1.1h-1.4c0,0.2-0.1,0.4-0.3,0.5c-0.2,0.2-0.6,0.3-0.9,0.3c-0.3,0-0.7-0.1-0.9-0.4c-0.3-0.3-0.5-0.7-0.4-1.2h4  C113.9,18.9,113.9,18.6,114,18.6 M107.5,21.6v-4.1c0.1-1-0.6-2-1.6-2.1c-0.1,0-0.3,0-0.4,0c-0.7,0-1.5,0.3-1.8,1  c-0.3-0.7-1-1.1-1.7-1c-0.7,0-1.4,0.4-1.7,1l-0.1-0.8h-1.2v6.1h1.4v-3.3c0-0.8,0.4-1.6,1.2-1.6s0.9,0.4,0.9,1.2v3.8h1.4v-3.3  c0-0.8,0.4-1.6,1.2-1.6s0.9,0.4,0.9,1.2v3.8L107.5,21.6z M96.2,19.2c0,0.8-0.6,1.4-1.3,1.4c-0.1,0-0.1,0-0.2,0  c-0.4,0-0.8-0.3-0.9-0.7c0,0,0,0,0,0c0-0.5,0.4-0.8,0.9-0.8l1.5-0.1V19.2z M98.2,21.6v-1.1c-0.1,0-0.1,0-0.2,0  c-0.3,0-0.3-0.1-0.3-0.4v-2.2c0-0.4,0-0.8-0.2-1.2c-0.4-0.9-1.3-1.4-2.3-1.2c-1.3,0-2.4,0.6-2.5,2h1.4c0-0.6,0.4-0.9,1.1-0.9  s1,0.4,1,1v0.4L94.5,18c-1.1-0.1-2,0.7-2.1,1.7c-0.1,1.1,0.7,2,1.7,2.1c0.2,0,0.3,0,0.5,0c0.7,0,1.4-0.3,1.8-0.9  c0.1,0.5,0.5,0.8,1,0.8C97.8,21.7,98,21.7,98.2,21.6L98.2,21.6z M92.2,21.6v-1.3c-0.3,0-0.6,0.1-0.9,0.1c-0.5,0-0.7-0.2-0.7-0.7  v-2.9h1.5v-1.2h-1.4v-1.9L89.2,14v1.5h-1.1v1.2h1.1v3.1c-0.1,0.9,0.5,1.7,1.4,1.9c0.2,0,0.3,0,0.5,0C91.4,21.7,91.8,21.6,92.2,21.6 M87.6,21.6v-4c0-1.2-0.9-2.1-2-2.1c-0.7,0-1.4,0.3-1.8,0.9l-0.1-0.8h-1.2v6.1h1.5v-2.5c0-0.5,0-1.1,0.2-1.6c0.2-0.4,0.5-0.7,1-0.8  c0.8,0,1,0.4,1,1.1v3.7L87.6,21.6z M81.1,21.6v-6.1h-1.5v3.2c0,0.5-0.1,1-0.4,1.4c-0.2,0.2-0.5,0.3-0.7,0.3c-0.8,0-1-0.4-1-1.1v-3.7  h-1.5v4c-0.1,1.1,0.7,2.1,1.8,2.2c0.1,0,0.2,0,0.3,0c0.7,0,1.4-0.3,1.7-0.9l0.1,0.8H81.1z M74.7,22.5v-6.9h-1.5v6.6  c0,0.3-0.2,0.6-0.6,0.7c0,0-0.1,0-0.1,0c-0.2,0-0.5,0-0.7-0.1V24c0.2,0.1,0.4,0.1,0.7,0.1c0.2,0,0.3,0,0.5,0  c0.9,0.1,1.6-0.5,1.7-1.4C74.7,22.6,74.7,22.5,74.7,22.5 M74.7,13.2h-1.5v1.5h1.6L74.7,13.2z M70,18.7h-2.4l1.2-3.5L70,18.7z M72.6,21.6l-2.9-8.3H68l-2.9,8.3h1.5l0.5-1.6h3.3l0.6,1.6H72.6z" class="st1"/></svg>