<svg width="2012" height="342" viewBox="0 0 2012 342" fill="none" xmlns="http://www.w3.org/2000/svg">
<path d="M0 76.0247C0 87.4572 6.09914 98.0212 16 103.737L132.5 170.999V94.5L265 170.999V112.975C265 101.543 258.901 90.9786 249 85.2624L132.5 18.001V94.5L0 18.001V76.0247Z" fill="#0F0F14"/>
<path d="M265 171.001L132.5 247.5V171.001L16 238.262C6.09917 243.979 0 254.543 0 265.975V323.999L132.5 247.5V323.999L249 256.737C258.901 251.021 265 240.457 265 229.025V171.001Z" fill="#0F0F14"/>
<path d="M446.54 260.292C461.917 269.015 479.372 273.169 498.49 273.169C522.594 273.169 542.959 266.523 559.998 253.23C577.037 239.938 587.843 222.491 592.414 200.891H547.946C543.374 211.691 536.725 219.583 528.413 225.399C520.101 231.214 510.126 234.122 498.905 234.122C482.282 234.122 468.151 228.307 457.346 216.676C446.54 205.045 441.138 190.09 441.138 171.813C441.138 153.536 446.54 138.582 457.346 126.951C468.151 115.32 482.282 109.504 498.905 109.504C510.542 109.504 520.516 112.412 528.828 118.228C537.14 124.043 543.79 132.351 547.946 142.32H592.414C587.843 121.551 577.037 104.104 559.998 90.3963C542.959 77.1038 522.594 70.0421 498.49 70.0421C479.372 70.0421 461.917 74.6114 446.54 83.3347C431.163 92.0579 419.111 104.104 410.383 119.474C401.656 135.259 397.5 152.705 397.5 171.813C397.5 191.337 401.656 208.783 410.383 224.153C419.111 239.938 431.163 251.984 446.54 260.292Z" fill="#0F0F14"/>
<path d="M750.686 82.5039C735.725 74.196 719.101 70.0421 700.815 70.0421C681.697 70.0421 664.658 74.6114 649.696 83.3347C634.319 92.4733 622.267 104.52 613.54 119.889C604.812 135.674 600.656 152.705 600.656 171.813C600.656 191.752 604.812 209.199 613.124 224.568C621.436 239.938 632.657 251.984 646.787 260.292C660.917 269.015 676.71 273.169 694.165 273.169C707.049 273.169 719.101 270.261 730.738 264.446C741.959 258.63 751.102 249.907 758.167 239.107L761.492 269.015H800.142V171.813C800.142 151.044 795.571 133.182 786.843 117.812C777.7 102.443 765.648 90.8117 750.686 82.5039ZM728.244 227.06C719.517 232.045 710.373 234.122 700.815 234.122C684.191 234.122 670.476 228.722 660.086 217.091C649.281 205.46 644.294 190.506 644.294 171.813C644.294 159.767 646.787 148.967 651.774 139.413C656.762 129.859 663.411 122.382 672.139 116.981C680.45 111.997 690.009 109.089 700.815 109.089C710.789 109.089 719.932 111.581 728.66 116.566C736.971 121.551 744.037 129.028 749.024 138.582C754.011 148.136 756.92 159.351 756.92 171.813C756.92 184.69 754.011 195.906 749.024 205.46C743.621 215.014 736.556 222.076 728.244 227.06Z" fill="#0F0F14"/>
<path d="M970.62 83.3347C955.658 74.6114 938.619 70.0421 920.333 70.0421C902.046 70.0421 885.838 74.196 870.877 82.5039C855.915 90.8117 843.863 102.858 834.72 118.228C825.577 134.013 821.421 151.874 821.421 172.644V341.5H865.474V243.261C872.955 252.815 882.098 260.292 893.734 265.277C904.956 270.677 916.592 273.169 929.06 273.169C945.684 273.169 960.645 269.015 974.776 260.292C988.49 251.984 999.296 239.938 1007.61 224.153C1015.5 208.783 1019.66 191.337 1019.66 171.398C1019.66 152.29 1015.09 135.259 1006.36 119.889C997.633 104.52 985.581 92.4733 970.62 83.3347ZM960.645 216.676C950.255 228.307 937.372 234.122 921.579 234.122C911.605 234.122 902.462 231.63 893.734 226.645C885.007 221.66 877.942 214.599 872.955 205.045C867.552 195.906 865.058 184.69 865.058 171.398C865.058 158.936 867.552 147.72 872.539 138.166C877.526 129.028 884.591 121.551 892.903 116.566C901.215 111.581 910.358 109.089 920.333 109.089C936.125 109.089 949.009 114.904 959.814 126.535C970.62 138.166 976.022 153.121 976.022 171.398C976.022 190.09 970.62 205.045 960.645 216.676Z" fill="#0F0F14"/>
<path d="M1085.65 260.292C1101.03 269.015 1118.48 273.169 1137.6 273.169C1161.71 273.169 1182.07 266.523 1199.11 253.23C1216.15 239.938 1226.95 222.491 1231.53 200.891H1187.06C1182.49 211.691 1175.84 219.583 1167.52 225.399C1159.21 231.214 1149.24 234.122 1138.02 234.122C1121.39 234.122 1107.26 228.307 1096.46 216.676C1085.65 205.045 1080.25 190.09 1080.25 171.813C1080.25 153.536 1085.65 138.582 1096.46 126.951C1107.26 115.32 1121.39 109.504 1138.02 109.504C1149.65 109.504 1159.63 112.412 1167.94 118.228C1176.25 124.043 1182.9 132.351 1187.06 142.32H1231.53C1226.95 121.551 1216.15 104.104 1199.11 90.3963C1182.07 77.1038 1161.71 70.0421 1137.6 70.0421C1118.48 70.0421 1101.03 74.6114 1085.65 83.3347C1070.27 92.0579 1058.22 104.104 1049.49 119.474C1040.77 135.259 1036.61 152.705 1036.61 171.813C1036.61 191.337 1040.77 208.783 1049.49 224.153C1058.22 239.938 1070.27 251.984 1085.65 260.292Z" fill="#0F0F14"/>
<path d="M1390.06 79.5961C1378.84 73.3652 1366.37 70.0421 1353.07 70.0421C1340.61 70.0421 1329.39 72.9498 1318.58 78.3499C1307.77 83.7501 1299.05 91.6425 1292.4 102.443V0.5H1248.76V269.015H1292.4V164.752C1292.4 153.951 1294.48 144.397 1299.05 136.089C1303.62 127.782 1309.44 121.135 1316.92 116.566C1324.4 111.997 1331.88 109.504 1340.19 109.504C1351.83 109.504 1361.8 114.074 1370.11 122.382C1378.43 131.105 1382.58 143.982 1382.58 161.428V269.015H1426.63V153.536C1426.63 135.674 1423.31 120.305 1416.66 107.843C1410.01 95.381 1400.87 85.827 1390.06 79.5961Z" fill="#0F0F14"/>
<path d="M1596.57 82.5039C1581.61 74.196 1564.98 70.0421 1546.7 70.0421C1527.58 70.0421 1510.54 74.6114 1495.58 83.3347C1480.2 92.4733 1468.15 104.52 1459.42 119.889C1450.7 135.674 1446.54 152.705 1446.54 171.813C1446.54 191.752 1450.7 209.199 1459.01 224.568C1467.32 239.938 1478.54 251.984 1492.67 260.292C1506.8 269.015 1522.59 273.169 1540.05 273.169C1552.93 273.169 1564.98 270.261 1576.62 264.446C1587.84 258.63 1596.99 249.907 1604.05 239.107L1607.38 269.015H1646.03V171.813C1646.03 151.044 1641.45 133.182 1632.73 117.812C1623.58 102.443 1611.53 90.8117 1596.57 82.5039ZM1574.13 227.06C1565.4 232.045 1556.26 234.122 1546.7 234.122C1530.07 234.122 1516.36 228.722 1505.97 217.091C1495.16 205.46 1490.18 190.506 1490.18 171.813C1490.18 159.767 1492.67 148.967 1497.66 139.413C1502.64 129.859 1509.29 122.382 1518.02 116.981C1526.33 111.997 1535.89 109.089 1546.7 109.089C1556.67 109.089 1565.82 111.581 1574.54 116.566C1582.86 121.551 1589.92 129.028 1594.91 138.582C1599.89 148.136 1602.8 159.351 1602.8 171.813C1602.8 184.69 1599.89 195.906 1594.91 205.46C1589.5 215.014 1582.44 222.076 1574.13 227.06Z" fill="#0F0F14"/>
<path d="M1683.1 255.722C1697.23 267.353 1715.51 273.169 1737.54 273.169C1757.49 273.169 1774.53 268.184 1788.66 257.799C1802.37 247.415 1809.44 233.707 1809.44 217.091C1809.44 203.798 1806.11 193.414 1799.88 185.106C1793.65 176.798 1786.16 170.567 1777.44 166.413C1768.71 162.259 1757.9 158.521 1744.61 154.367C1731.31 151.044 1721.75 147.305 1715.51 143.567C1709.28 140.243 1706.37 134.843 1706.37 127.782C1706.37 121.551 1708.86 116.151 1713.85 111.997C1718.84 107.843 1725.07 105.766 1732.97 105.766C1741.28 105.766 1747.93 108.258 1752.92 112.828C1757.9 117.397 1761.23 123.628 1762.89 131.52H1805.7C1803.62 112.412 1796.14 97.0426 1783.26 86.2424C1769.96 75.4422 1753.33 70.0421 1732.97 70.0421C1718.84 70.0421 1706.37 72.9498 1695.98 78.3499C1685.17 83.7501 1677.28 90.8117 1671.88 99.535C1666.47 108.674 1663.98 117.812 1663.98 127.782C1663.98 141.074 1666.89 151.874 1673.12 159.767C1678.94 168.075 1686.42 173.89 1695.15 178.044C1703.46 182.198 1714.68 186.352 1727.98 190.09C1741.28 194.244 1750.84 197.983 1757.07 201.306C1763.31 205.045 1766.63 210.445 1766.63 217.091C1766.63 222.906 1764.14 227.891 1759.15 231.63C1754.16 235.784 1746.68 237.445 1737.54 237.445C1728.4 237.445 1720.5 234.953 1713.85 229.968C1707.2 224.983 1703.46 218.337 1702.63 209.199H1659.82C1660.65 228.307 1668.55 244.091 1683.1 255.722Z" fill="#0F0F14"/>
<path d="M2011.08 187.598C2011.08 183.444 2011.5 178.46 2011.5 171.813C2011.5 152.705 2007.34 135.674 1999.03 119.889C1990.72 104.52 1979.08 92.4733 1964.54 83.3347C1949.99 74.6114 1934.2 70.0421 1916.74 70.0421C1897.63 70.0421 1880.59 74.6114 1865.63 83.3347C1850.66 92.0579 1838.61 104.104 1830.3 119.474C1821.99 134.843 1817.83 152.29 1817.83 171.813C1817.83 191.752 1821.99 209.199 1830.3 224.568C1838.61 239.938 1850.66 251.984 1865.63 260.292C1880.59 269.015 1898.04 273.169 1917.16 273.169C1937.94 273.169 1956.64 267.769 1973.27 256.553C1989.47 245.338 2000.69 229.968 2006.51 210.445H1963.71C1955.39 227.06 1939.6 234.953 1916.74 234.953C1902.61 234.953 1890.56 230.799 1880.59 222.491C1870.61 214.183 1863.96 202.552 1861.47 187.598H2011.08ZM1880.59 120.72C1890.56 112.412 1902.61 108.258 1916.74 108.258C1930.04 108.258 1941.68 112.828 1951.65 121.966C1961.21 131.105 1966.62 141.905 1968.28 154.367H1861.47C1864.38 140.243 1870.61 129.028 1880.59 120.72Z" fill="#0F0F14"/>
</svg>
