<svg xmlns="http://www.w3.org/2000/svg" viewBox="0 0 591.95 357"><defs><style>.cls-1{fill:#4295c0}</style></defs><title>Recurso 2</title><g id="Capa_2"><g id="Capa_1-2"><g id="Capa_1-2-2"><path d="M310.26,142.38c.09-4.76-1.64-5.75-6-5.67-14.58.24-29.17-.2-43.76.23-6.08.18-7.5-2-7.29-7.64.38-13.76,0-27.53.19-41.33,0-3.88-1.21-5.46-5.21-5.42q-22.17.23-44.35,0c-4.23,0-5.65,1.42-5.59,5.65.2,14-.17,28,.2,41.92.14,5.5-1.77,6.87-7,6.77-15.39-.31-30.78-.11-46.19-.11H100.92a54.76,54.76,0,0,1-14.42-1.69c-18.43-5-32.11-24.18-30-42C59,71.84,75.29,56.18,96,55.71c14-.33,28-.27,41.93,0,4.86.1,6.82-1.21,6.66-6.41-.34-11.13-.11-22.28-.11-33.41,0-15.91,0-16.11-15.72-15.81C111,.35,93.19-1.22,75.52,2.81,5.34,18.63-22.79,104.37,24.55,158.7c7.6,8.7,7.6,8.7.48,17.71-1,1.21-2,2.55-3,3.83C-23.23,238.82,4.53,327.77,75.27,349.75c26.9,8.37,54.48,8.88,82.3,4.66,56.65-8.6,95.61-53.56,95.72-110.89,0-15.18.2-30.39-.09-45.56-.09-4.86,1.58-6.22,6.29-6.08,15,.27,30-.06,45,.21,4.63.08,5.87-1.44,5.8-5.91Q309.84,164.24,310.26,142.38ZM197.39,252.59c-3.65,26.27-22.31,43.41-49,47.14a156.88,156.88,0,0,1-49.5-.91c-22.26-3.95-45.17-25.47-43.13-57a53.57,53.57,0,0,1,47.2-49.13c16.14-1.79,32.35-.17,45.23-.78h44.57c2.64,0,5.61-.38,5.55,3.65-.32,19,1.77,38.19-.87,57Z" class="cls-1"/></g><path d="M420.47,215.68q-7.91,4.09-19.68,4.1-15.23,0-24.41-9.62t-9.18-25.24q0-16.8,10.33-27.15t26.09-10.35q10.17,0,16.85,2.88v11.52a30.06,30.06,0,0,0-15.62-4.2q-11.39,0-18.44,7.28t-7.05,19.43q0,11.58,6.59,18.43t17.33,6.87a31.08,31.08,0,0,0,17.19-4.69Z" class="cls-1"/><path d="M484,158.45H457.77V179.5h24.12v9.81H457.77v29.3H446.15v-70H484Z" class="cls-1"/><path d="M520.71,218.61h-12v-70h12Z" class="cls-1"/><path d="M547.12,215.83v-12A18.54,18.54,0,0,0,551,206.5a30,30,0,0,0,4.71,2,37.74,37.74,0,0,0,5,1.24,25.88,25.88,0,0,0,4.59.44q7.32,0,10.91-2.44a8,8,0,0,0,3.59-7.08,7.7,7.7,0,0,0-1.2-4.32A12.49,12.49,0,0,0,575.2,193a36.46,36.46,0,0,0-5.05-2.9q-2.91-1.4-6.23-2.91-3.57-1.91-6.64-3.85a29.53,29.53,0,0,1-5.35-4.32,18.06,18.06,0,0,1-3.56-5.35,17.46,17.46,0,0,1-1.29-7,16.11,16.11,0,0,1,2.22-8.57,18.68,18.68,0,0,1,5.86-6,26.64,26.64,0,0,1,8.27-3.51,39.05,39.05,0,0,1,9.48-1.15q11,0,16,2.49v11.47q-6-4.29-15.33-4.29a27.89,27.89,0,0,0-5.15.48,15.39,15.39,0,0,0-4.59,1.62,9.81,9.81,0,0,0-3.3,2.88,7.08,7.08,0,0,0-1.27,4.24,8.06,8.06,0,0,0,1,4.06,10.3,10.3,0,0,0,2.86,3.12,28.08,28.08,0,0,0,4.59,2.76q2.7,1.35,6.27,2.91,3.66,1.91,6.91,4a32.72,32.72,0,0,1,5.71,4.64,20.18,20.18,0,0,1,3.91,5.64,16.57,16.57,0,0,1,1.44,7.05,17.52,17.52,0,0,1-2.15,9,17.28,17.28,0,0,1-5.79,6,25.82,25.82,0,0,1-8.37,3.32,47.44,47.44,0,0,1-10,1,42.42,42.42,0,0,1-4.32-.27q-2.56-.27-5.25-.78a50.35,50.35,0,0,1-5.08-1.24A16.26,16.26,0,0,1,547.12,215.83Z" class="cls-1"/></g></g></svg>