<?xml version="1.0" encoding="UTF-8" standalone="no"?>
<!-- Created with Inkscape (http://www.inkscape.org/) -->

<svg
   version="1.1"
   id="svg2"
   width="289.84"
   height="94.293335"
   viewBox="0 0 289.84 94.293335"
   sodipodi:docname="Coca-Cola.eps"
   xmlns:inkscape="http://www.inkscape.org/namespaces/inkscape"
   xmlns:sodipodi="http://sodipodi.sourceforge.net/DTD/sodipodi-0.dtd"
   xmlns="http://www.w3.org/2000/svg"
   xmlns:svg="http://www.w3.org/2000/svg">
  <defs
     id="defs6" />
  <sodipodi:namedview
     id="namedview4"
     pagecolor="#ffffff"
     bordercolor="#000000"
     borderopacity="0.25"
     inkscape:showpageshadow="2"
     inkscape:pageopacity="0.0"
     inkscape:pagecheckerboard="0"
     inkscape:deskcolor="#d1d1d1" />
  <g
     id="g8"
     inkscape:groupmode="layer"
     inkscape:label="ink_ext_XXXXXX"
     transform="matrix(1.3333333,0,0,-1.3333333,0,94.293333)">
    <g
       id="g10"
       transform="scale(0.1)">
      <path
         d="m 63.4102,414.492 c 62.4028,115.457 170.2028,241.403 297.5158,283.446 26.148,6.519 60.91,13.859 84.101,-4.02 20.618,-15.285 23.399,-41.418 18.723,-64.949 -6.121,-27.821 -25.191,-63.063 -57.074,-67.543 -5.738,0.012 -10.613,2.043 -14.328,6.078 -8.305,8.066 -7.688,19.836 -5.926,30.453 5.246,22.082 25.707,45.547 49.254,48.625 4.035,2.574 2.328,7.453 1.187,10.895 -3.136,4.898 -6.859,8.64 -12.597,9.808 -25.532,2.965 -44.825,-13.047 -64.391,-26.461 C 285.598,581.078 231.652,504.328 186.32,427.84 149.336,359.066 117.805,287.988 108.625,207.641 104.113,149.379 122.578,92.1914 174.438,64.1563 c 56.164,-29.7618 128.863,-9.625 185.179,5.6835 l 51.727,15.8946 99.429,29.5116 c 94.254,27.516 212.258,33.703 304.282,-2.777 C 870.672,89.3086 927.977,57.5313 964.246,2.85938 964.238,1.42969 964.234,-0.296875 962.512,0 883.641,21.5156 780.945,42.8242 702.73,5.5 L 699,6.36328 C 675.305,44.3438 635.191,65.4375 594.164,73.6172 461.586,86.4258 352.57,23.6445 227.926,7.99609 164.75,2.19141 97.0117,4.14453 52.9688,52.5156 -16.5508,121.945 -8.37109,244.5 24.6445,328.211 c 10.7227,29.527 24.0274,58.187 38.7657,86.281"
         style="fill:#ed1639;fill-opacity:1;fill-rule:nonzero;stroke:none"
         id="path12" />
      <path
         d="m 246.418,373.082 c 32.934,60.461 83.426,134.352 153.258,156.5 18.676,4.242 38.762,2.453 53.074,-9.949 30.043,-29.953 18.375,-81.301 8.207,-116.567 -0.004,-2.019 1.711,-4.312 3.715,-4.613 26.699,0.77 48.273,13.32 67.574,31.633 41.496,46.359 85.918,107.059 153.352,99.941 12.629,-2.054 24.949,-9.273 31.5,-21.07 17.109,-33.93 0.336,-71.477 -23.004,-97.516 -8.938,-8.586 -20.149,-15.148 -33.055,-11.082 -5.168,1.743 -9.453,6.918 -11.445,12.094 -4.801,23.84 9.066,45.906 28.332,58.461 5.48,5.434 22.113,1.652 17.566,14.008 -3.429,4.894 -8.597,5.484 -14.051,5.508 -32.765,-13.668 -54.128,-47.184 -73.175,-75.246 -23.957,-37.532 -43.332,-77.36 -56.102,-119.512 -3.496,-15.215 -7.871,-34.996 0.981,-49.098 6.562,-8.914 17.464,-12.687 28.671,-9.859 32.481,12.808 61,38.836 85.77,65.73 56.793,68.118 86.934,152.422 162.918,207.848 23.594,16.281 56.937,28.797 85.309,13.77 4.582,-1.739 8.292,-7.778 14.046,-5.504 4.602,4.578 7.793,14.328 16.973,12 20.957,-0.364 45.078,0.703 66.598,-1.383 l 1.43,-2.012 -6.08,-14.613 -117.956,-239.586 c -1.148,-2.574 -1.453,-6.024 -0.886,-8.902 1.996,-3.45 6.3,-3.168 9.457,-2.036 16.98,9.703 30.238,27.743 42.07,42.914 10.379,14.321 19.617,29.211 27.14,44.977 3.168,4.586 6.922,10.305 13.235,9.422 6.601,-0.879 14.93,1.961 19.8,-2.649 -7.535,-20.07 -19.37,-38.394 -29.773,-57.312 -32.035,-49.258 -73.851,-106.539 -132.758,-121.25 -9.761,-1.121 -21.82,-1.938 -29.257,5.266 -11.457,8.648 -11.977,22.425 -15.098,34.781 -1.145,1.449 -3.149,1.738 -4.871,1.176 -25.055,-22.602 -50.969,-45.184 -86.266,-40.758 -10.894,2.336 -21.199,10.691 -26.051,21.047 -9.125,17.547 -4.742,40.203 -5.253,59.73 -0.844,2.297 -3.715,1.442 -4.872,0.582 -38.308,-37.762 -79.765,-71.769 -130.609,-81.359 -23.555,-2.789 -43.906,4.176 -59.641,20.871 -38.007,49.801 -7.921,115.144 12.051,163.594 0.867,2.285 0.586,5.457 -2.277,6.035 -13.781,-1.098 -26.996,-3.344 -40.207,-5.309 l -4.613,-5.16 C 411.23,301.324 377.719,240.582 322.172,198 299.148,181.43 264.945,170.063 238.02,185.371 c -28.075,19.324 -30.536,53.785 -26.981,85.641 6.727,36.144 19.766,69.687 35.379,102.07 z m 87.848,2.856 c -16.188,-32.668 -32.661,-65.625 -33.375,-104.375 1.699,-7.176 5.976,-15.524 14.007,-17.563 8.606,-2.324 15.801,2.25 22.415,6.523 31.667,26.594 53.617,62.969 71.535,97.938 1.445,3.43 4.047,7.73 2.047,11.473 -18.922,7.523 -37.25,20.515 -51.832,36.921 l -3.157,0.583 c -2.871,-0.559 -4.035,-3.426 -6.043,-5.434 z m 49.324,66.433 c 1.086,-17.23 17.105,-32.219 32.305,-38.008 3.726,-1.16 9.746,-4.054 12.921,0.532 5.778,10.882 9.266,22.933 12.176,34.98 2.926,15.777 5.293,37.012 -9.887,47.398 -5.16,2.891 -12.902,3.207 -18.367,0.641 -17.254,-8.559 -29.656,-26.023 -29.148,-45.543 z M 772.391,308.684 c -4.36,-14.344 -11.012,-29.817 -6.469,-45.621 1.418,-3.165 4.855,-5.473 8.008,-6.344 12.922,-0.328 21.574,11.406 29.925,20.57 37.793,52.399 66.692,108.848 92.731,166.176 4.34,12.035 11.269,23.211 11.031,36.707 -0.273,2.871 -3.14,4.887 -5.433,6.336 -5.731,2.601 -11.2,-1.403 -15.797,-3.68 C 835.441,443.676 807.969,387.504 782.52,334.203 l -10.129,-25.519"
         style="fill:#ed1639;fill-opacity:1;fill-rule:nonzero;stroke:none"
         id="path14" />
      <path
         d="m 1017.77,455.965 c 11.28,22.348 20.82,45.57 34.97,66.758 5.76,6.297 14.66,5.988 22.41,6.816 l 56.55,-0.769 2.29,-2.305 c -9.55,-22.641 -19.96,-44.992 -31.81,-66.774 -2.89,-5.726 -8.93,-11.168 -15.54,-12.007 -22.97,-0.489 -47.37,-1.84 -69.19,0.246 -2.29,2.297 -0.26,5.449 0.32,8.035"
         style="fill:#ed1639;fill-opacity:1;fill-rule:nonzero;stroke:none"
         id="path16" />
      <path
         d="m 1074.5,341.227 c 39.33,81.39 86.67,159.878 153.8,229.125 65.11,64.937 135.61,117.511 220.93,133.582 23.26,3.363 49.38,1.261 67.13,-14.59 3.43,-2.879 7.44,-5.762 12.33,-4.059 61.22,24.477 146.23,33.086 207.56,2.442 35.53,-17.352 69.33,-39.567 103.42,-60.934 4.3,-2.309 2.27,-6.891 -0.03,-9.477 -19.6,-21.742 -36.05,-44.082 -53.63,-66.695 -2.02,-2.004 -5.17,-1.133 -7.17,0.024 l -90.22,62.031 c -42.1,28.562 -90.55,48.543 -145.41,39.547 -6.03,-3.137 -3.19,-10.614 -4.08,-16.352 1.25,-56.269 -18.73,-105.289 -45.86,-149.98 -21.65,-31.215 -46.73,-63.852 -83.51,-74.344 -16.1,-3.395 -31.58,1.543 -41.3,14.496 -26.84,40.859 -3.13,90.727 16.52,127.117 22.53,39.528 57.4,76.731 95.1,105.309 0.87,1.433 2.59,2.859 1.45,4.586 -3.72,3.742 -10.05,1.472 -14.64,0.625 -61.22,-20.457 -110.21,-74.539 -155.45,-125.77 -80.73,-99.328 -141.95,-207.062 -176.81,-325.504 -10.78,-44.453 -25.37,-112.7302 19.88,-143.8865 39.83,-21.3867 78.11,6.0508 108.05,31.7735 45.51,46.359 76.13,99.93 88.68,160.461 2.08,18.07 7.04,42.738 -9.57,55.141 -14.9,6.66 -27.29,-5.641 -37.37,-15.942 -23.35,-28.051 -33.22,-61.605 -37.37,-97.758 -10.36,-8.578 -22.73,-13.988 -33.66,-22.281 -20.72,-14.285 -41.17,-33.441 -57.6,-52.625 -2.01,-0.559 -2.3,1.742 -2.87,2.887 -2.35,66.609 21.39,123.656 58.03,174.914 29.11,33.769 66.53,62.637 111.84,51.855 19.79,-5.23 32.93,-26.234 36.6,-44.902 7.25,-62.609 -19.07,-117.355 -47.38,-168.348 C 1286.28,72.0781 1214.27,-0.292969 1123.01,8.34766 1088,10.4727 1055.35,34.6992 1040.54,66.8984 c -34.5,68.7306 -10.65,157.0706 12.54,223.5896 z m 310.44,118.632 c 0.84,-7.754 3.96,-16.086 12,-18.992 15.48,-4.359 27.87,7.086 39.38,15.942 41.49,43.773 66.64,94.504 73.16,152.757 0.02,8.61 2.94,19.508 -1.92,26.993 -3.44,0.582 -7.18,-0.84 -10.06,-2.836 -27.91,-18.563 -54.12,-45.746 -73.17,-73.239 -19.91,-30.652 -38.1,-62.168 -39.39,-100.625"
         style="fill:#ed1639;fill-opacity:1;fill-rule:nonzero;stroke:none"
         id="path18" />
      <path
         d="m 1443.12,265.027 c 33.16,43.805 77.25,91.59 132.96,95.137 14.06,-0.348 26.38,-6.125 34.96,-17.926 23.71,-35.105 3.74,-80.105 -5,-115.668 -0.86,-3.156 1.42,-5.457 3.71,-6.328 11.48,-1.765 24.69,-0.094 34.76,5.043 l 4.32,5.445 c 40.02,114.11 99.51,220.118 170.19,321.208 44.14,58.41 100.6,118.789 166.15,146.984 15.53,5.398 37.94,11.926 52.83,0.387 16.6,-13.547 11.93,-37.071 7.55,-55.137 -1.77,-16.074 -19.58,-17.731 -31.35,-21.434 -0.58,0.297 -1.16,0.012 -1.73,0.59 0.33,10.336 5.81,19.496 7.85,29.539 0.59,5.457 1.48,10.043 -0.81,15.223 -2.85,5.168 -9.16,3.473 -13.47,2.047 -22.15,-10.824 -40.02,-30.571 -57.02,-49.754 -63.41,-73.551 -109.34,-155.207 -151.54,-237.738 -13.87,-28.661 -28.33,-57.032 -39.62,-86.84 -0.31,-1.723 0.27,-2.879 1.7,-4.028 9.76,0.25 15.55,10.274 23.02,15.414 55.87,50.625 101.15,108.743 142.96,167.727 8.93,4.285 19.26,4.242 29.6,5.07 l 2,-0.578 c -0.6,-8.039 -7.51,-14.332 -11.26,-21.492 -46.75,-67.305 -99.79,-131.703 -164.29,-190.332 l -46.64,-38.313 c -9.79,-8.578 -10.12,-21.777 -15.04,-32.668 -9,-29.539 -18.01,-59.64 -19.27,-92.082 0.27,-5.4527 2.26,-10.6285 6.84,-13.5152 12.33,-5.5 22.13,6.2344 30.77,14.2422 63.13,72.984 90.99,162.453 168.15,227.93 25.33,20 58.69,37.117 91.37,22.074 5.73,-2.031 10,-9.508 16.91,-6.086 4.89,3.43 5.21,11.172 12.1,10.863 22.68,0.207 46.79,0.989 68.6,-0.808 2,-1.735 0.56,-4.602 -0.02,-6.602 l -15.61,-31.523 -96.55,-194.879 c -4.34,-8.875 -10.12,-18.336 -9.58,-28.387 1.42,-4.3047 6.01,-4.6093 9.74,-3.7656 18.13,9.9926 31.39,26.5856 43.21,43.4926 11.84,16.609 21.37,34.086 32.63,50.98 6.03,2.848 14.35,1.668 20.95,0.789 4.01,-3.742 -1.18,-8.601 -2.05,-12.91 -28.34,-58.754 -67.88,-122.9219 -129.72,-155.4297 -14.38,-7.1328 -34.21,-13.66017 -49.97,-4.9922 -12.6,8.6562 -11.4,24.4414 -17.09,36.5156 -1.14,1.7266 -4.02,1.4453 -5.46,0.5938 -25.63,-22.8789 -53.27,-48.62112 -89.12,-38.7305 -22.36,10.4063 -24.85,36.2539 -26.51,58.3594 -1.14,0.8711 -0.56,2.5859 -1.98,3.457 l -2.87,-1.1367 C 1730.3,45 1698.58,7.49609 1656.39,11.0938 c -16.07,1.2031 -30.08,16.75 -34.91,31.1171 -14.77,46.8477 0.91,98.1801 11.41,143.2071 0,2.586 -2.86,5.184 -5.15,5.48 l -35.31,-0.453 -5.77,-6.586 c -26.02,-51.004 -54.6,-100.2809 -99.53,-142.9059 -23.61,-20.8711 -52.67,-38.28513 -85.08,-28.6914 -26.94,11.5742 -34.01,40.875 -33.92,68.4336 5.7,69.4457 36.9,128.1957 74.99,184.3317 z m 9.22,-155.918 c 0.54,-9.7574 5.39,-19.8238 15.42,-23.0192 6.6,-2.3164 13.78,0.5313 19.54,3.3868 33.09,24.5664 52.75,62.3904 70.66,96.7774 1.74,3.441 3.19,8.887 -1.39,11.496 -17.2,8.66 -33.8,22.215 -47.52,37.477 -1.72,1.734 -4.88,2.031 -6.89,0.886 -12.41,-16.609 -20.51,-34.957 -29.18,-53.293 -9.85,-23.226 -20.54,-46.148 -20.64,-73.711 z m 83.23,161.047 c 1.09,-17.511 15.1,-33.922 31.16,-39.718 3.15,-1.165 8.88,-2.618 11.2,1.39 9.84,22.36 19.11,47.879 14.03,73.731 -1.99,6.043 -7.14,12.082 -13.44,14.121 -6.31,1.738 -12.93,-0.25 -18.38,-2.813 -16.12,-10.566 -23.93,-28.051 -24.57,-46.711 z m 316.4,-153.238 c -0.6,-8.32 -2.65,-18.6524 3.65,-24.9883 3.43,-3.457 8.88,-3.7656 13.19,-2.3477 16.97,8.8399 27.94,26.891 38.33,41.781 34.63,53.852 60.09,111.465 83.84,169.946 0.88,5.164 2.34,12.336 -2.53,15.796 -14.05,6.653 -25.01,-8.816 -35.38,-16.246 -45.79,-45.48 -70.1,-100.511 -92.97,-155.836 l -8.13,-28.105"
         style="fill:#ed1639;fill-opacity:1;fill-rule:nonzero;stroke:none"
         id="path20" />
      <path
         d="m 1918.91,544.992 30.56,39.512 4.61,4.004 c 88.42,1.699 157.5,54.281 219.72,116.367 -0.31,-8.332 -4.08,-16.062 -6.97,-23.52 -40.81,-96.027 -139.85,-180.367 -246.94,-181.726 l -25.26,0.375 c -4.58,1.16 -1.41,5.75 -0.25,8.035 l 24.53,36.953"
         style="fill:#ed1639;fill-opacity:1;fill-rule:nonzero;stroke:none"
         id="path22" />
      <path
         d="m 2030.42,38.1484 c 0,12.0157 9.06,21.0782 20.67,21.0782 11.48,0 20.53,-9.0625 20.53,-21.0782 0,-12.2109 -9.05,-21.1992 -20.53,-21.1992 -11.61,0 -20.67,8.9883 -20.67,21.1992 z m 20.67,-25.4218 c 13.82,0 25.63,10.7343 25.63,25.4218 0,14.5664 -11.81,25.3008 -25.63,25.3008 -13.95,0 -25.77,-10.7344 -25.77,-25.3008 0,-14.6875 11.82,-25.4218 25.77,-25.4218 z m -5.37,23.4101 h 5.1 l 7.72,-12.6758 h 4.97 l -8.33,12.8789 c 4.3,0.5352 7.59,2.8243 7.59,8.0508 0,5.7735 -3.43,8.3242 -10.34,8.3242 h -11.14 V 23.4609 h 4.43 z m 0,3.7656 v 9.0508 h 6.04 c 3.09,0 6.38,-0.664 6.38,-4.2929 0,-4.5 -3.36,-4.7579 -7.12,-4.7579 h -5.3"
         style="fill:#ed1639;fill-opacity:1;fill-rule:nonzero;stroke:none"
         id="path24" />
    </g>
  </g>
</svg>
