<svg xmlns="http://www.w3.org/2000/svg" xmlns:xlink="http://www.w3.org/1999/xlink" width="820" height="160" version="1.1" viewBox="0 0 820 160"><title>facebook-logo</title><desc>Created with Sketch.</desc><g id="Page-1" fill="none" fill-rule="evenodd" stroke="none" stroke-width="1"><g id="facebook-logo" fill="#4267B2" fill-rule="nonzero"><path id="Path" d="M64.43,25.68 C54.78,25.68 51.99,29.96 51.99,39.4 L51.99,55.06 L77.73,55.06 L75.15,80.36 L52,80.36 L52,157.14 L21.11,157.14 L21.11,80.36 L0.3,80.36 L0.3,55.06 L21.11,55.06 L21.11,39.83 C21.11,14.31 31.4,0.829597954 60.11,0.829597954 C66.1263028,0.815889114 72.1377381,1.17323555 78.11,1.9 L78.11,25.71 L64.43,25.68 Z"/><path id="Shape" d="M79.87,102.88 C79.87,74.36 93.38,52.88 121.69,52.88 C137.13,52.88 146.56,60.82 151.07,70.68 L151.07,55.06 L180.66,55.06 L180.66,157.14 L151.07,157.14 L151.07,141.7 C146.78,151.57 137.13,159.29 121.69,159.29 C93.38,159.29 79.87,137.84 79.87,109.29 L79.87,102.88 Z M110.75,109.75 C110.75,124.97 116.32,135.05 130.69,135.05 C143.35,135.05 149.78,125.83 149.78,111.25 L149.78,101 C149.78,86.42 143.35,77.2 130.69,77.2 C116.32,77.2 110.75,87.28 110.75,102.5 L110.75,109.75 Z"/><path id="Path" d="M245,52.91 C257,52.91 268.37,55.49 274.59,59.77 L267.73,81.65 C261.29574,78.5860756 254.266383,76.9746834 247.14,76.93 C230.41,76.93 223.14,86.58 223.14,103.1 L223.14,109.1 C223.14,125.62 230.43,135.27 247.14,135.27 C254.266383,135.225317 261.29574,133.613924 267.73,130.55 L274.59,152.42 C268.37,156.71 257.01,159.29 245,159.29 C208.75,159.29 192.24,139.77 192.24,108.46 L192.24,103.74 C192.24,72.43 208.75,52.91 245,52.91 Z"/><path id="Shape" d="M278.66,110 L278.66,101 C278.66,72.05 295.17,53 328.85,53 C360.59,53 374.53,72.3 374.53,100.61 L374.53,116.91 L309.53,116.91 C310.18,130.85 316.4,137.07 333.53,137.07 C345.12,137.07 357.34,134.71 366.35,130.85 L372,152 C363.85,156.3 347.12,159.51 332.33,159.51 C293.24,159.5 278.66,140 278.66,110 Z M309.54,96.7 L346.86,96.7 L346.86,94.13 C346.86,82.98 342.36,74.13 328.86,74.13 C314.91,74.14 309.54,82.94 309.54,96.66 L309.54,96.7 Z"/><path id="Shape" d="M489,109.32 C489,137.84 475.28,159.32 447,159.32 C431.56,159.32 420.84,151.6 416.55,141.73 L416.55,157.17 L387.39,157.17 L387.39,3.8 L418.27,1 L418.27,69.2 C422.77,60.2 432.64,52.9 447.01,52.9 C475.32,52.9 489.01,74.35 489.01,102.9 L489,109.32 Z M458.12,102.24 C458.12,87.87 452.55,77.15 437.75,77.15 C425.09,77.15 418.23,86.15 418.23,100.74 L418.23,111.46 C418.23,126.04 425.09,135.05 437.75,135.05 C452.55,135.05 458.12,124.33 458.12,109.96 L458.12,102.24 Z"/><path id="Shape" d="M499.33,108.67 L499.33,103.53 C499.33,74.14 516.06,52.91 550.16,52.91 C584.26,52.91 601,74.14 601,103.53 L601,108.67 C601,138.05 584.27,159.29 550.17,159.29 C516.07,159.29 499.33,138.05 499.33,108.67 Z M570.11,101.38 C570.11,87.87 564.53,77.15 550.11,77.15 C535.69,77.15 530.16,87.87 530.16,101.38 L530.16,110.82 C530.16,124.33 535.74,135.05 550.11,135.05 C564.48,135.05 570.11,124.33 570.11,110.82 L570.11,101.38 Z"/><path id="Shape" d="M611.27,108.67 L611.27,103.53 C611.27,74.14 628,52.91 662.1,52.91 C696.2,52.91 712.93,74.14 712.93,103.53 L712.93,108.67 C712.93,138.05 696.2,159.29 662.1,159.29 C628,159.29 611.27,138.05 611.27,108.67 Z M682.05,101.38 C682.05,87.87 676.47,77.15 662.1,77.15 C647.73,77.15 642.16,87.87 642.16,101.38 L642.16,110.82 C642.16,124.33 647.73,135.05 662.1,135.05 C676.47,135.05 682.05,124.33 682.05,110.82 L682.05,101.38 Z"/><polygon id="Path" points="755.39 103.74 785.84 55.06 818.65 55.06 786.7 105.46 819.94 157.14 787.13 157.14 755.39 107.14 755.39 157.14 724.5 157.14 724.5 3.8 755.39 1"/></g></g></svg>