<svg width="120" height="20" viewBox="0 0 120 20" fill="none" xmlns="http://www.w3.org/2000/svg">
<path fill-rule="evenodd" clip-rule="evenodd" d="M0 0.374512V19.0927H3.81386V12.1669H10.5335V8.79768H3.81386V3.74378H13.9841V0.374512H0Z" fill="#1A1B23"/>
<path fill-rule="evenodd" clip-rule="evenodd" d="M115.902 0.374512L110.793 8.50043L105.698 0.374512H101.521L108.722 11.836L104.063 19.0927H108.24L109.555 17.0494L112.599 11.9734V11.9556L118.092 3.34845L120 0.374512H119.989H120H115.902Z" fill="#1A1B23"/>
<path fill-rule="evenodd" clip-rule="evenodd" d="M89.353 19.0927V0.374512H104.064V3.74378H93.1669V8.79768H99.8866V12.1669H93.1669V19.0927H89.353Z" fill="#1A1B23"/>
<path fill-rule="evenodd" clip-rule="evenodd" d="M20.3407 0.374512V15.7234H30.1478V19.0927H16.5269V0.374512H20.3407Z" fill="#1A1B23"/>
<path fill-rule="evenodd" clip-rule="evenodd" d="M75.3691 3.74355H80.4543C82.6336 3.74355 82.9968 5.61537 82.9968 6.36409C82.9968 7.11282 82.6336 8.98464 80.4543 8.98464H75.3691V3.74355ZM86.9917 19.0927L83.1116 11.7142C84.8671 10.9048 86.4469 9.25534 86.4469 6.36432C86.4469 1.87196 82.633 0.374512 80.2721 0.374512H71.5547V19.0927H75.1869V12.3541H79.4145L82.8147 19.0927H86.9917Z" fill="#1A1B23"/>
<path fill-rule="evenodd" clip-rule="evenodd" d="M39.9417 19.4669C38.6077 19.4669 37.3521 19.2149 36.1745 18.712C34.9965 18.2088 33.9791 17.5213 33.1219 16.6492C32.2645 15.7777 31.5846 14.7443 31.0824 13.5486C30.5799 12.3534 30.3291 11.0815 30.3291 9.73344C30.3291 8.38536 30.5799 7.11384 31.0824 5.91831C31.5846 4.72315 32.2645 3.68972 33.1219 2.81765C33.9791 1.94594 34.9965 1.25842 36.1745 0.754903C37.31 0.269909 38.5181 0.0183163 39.799 0.000964038L39.9546 0C44.8676 0 47.5092 2.84265 49.5802 6.12484L49.7051 5.92845C51.7365 2.76272 54.3371 0.0557647 59.0588 0.000850392L59.2184 0C60.5523 0 61.808 0.251946 62.9856 0.754903C64.1635 1.25842 65.1809 1.94594 66.0381 2.81765C66.8955 3.68972 67.5755 4.72315 68.0776 5.91831C68.5802 7.11384 68.831 8.38536 68.831 9.73344C68.831 11.0815 68.5802 12.3534 68.0776 13.5486C67.5755 14.7443 66.8955 15.7777 66.0381 16.6492C65.1809 17.5213 64.1635 18.2088 62.9856 18.712C61.8501 19.197 60.6419 19.4486 59.361 19.4659L59.2057 19.4665L59.2055 19.4669C54.2925 19.4669 51.6509 16.6242 49.5799 13.3421L49.4549 13.5384C47.4236 16.7042 44.823 19.4111 40.1013 19.466L39.9546 19.4669L39.9544 19.4665L39.9417 19.4669ZM39.9536 3.55664H39.9405C39.1182 3.55664 38.3532 3.715 37.6448 4.03077C36.9363 4.34692 36.3239 4.78043 35.8081 5.33112C35.292 5.88237 34.8853 6.53245 34.588 7.28174C34.2904 8.03159 34.142 8.84883 34.142 9.73363C34.142 10.6005 34.2904 11.4134 34.588 12.1719C34.8853 12.9305 35.292 13.5855 35.8081 14.1361C36.3239 14.6872 36.9363 15.1207 37.6448 15.4365C38.3195 15.7376 39.0454 15.8952 39.8234 15.9096L39.9405 15.9106L39.9536 15.9103C43.6577 15.9106 45.5912 13.038 47.4817 9.73397L47.3114 9.43779C45.4737 6.2596 43.5467 3.55664 39.9536 3.55664ZM59.2048 3.55664C55.5007 3.55664 53.5672 6.42927 51.6768 9.7333L51.8471 10.0295C53.6848 13.2077 55.6117 15.9106 59.2048 15.9106V15.9103L59.2179 15.9106C60.0402 15.9106 60.8052 15.7526 61.5137 15.4365C62.2221 15.1207 62.8345 14.6872 63.3503 14.1361C63.8665 13.5855 64.2731 12.9305 64.5704 12.1719C64.868 11.4134 65.0164 10.6005 65.0164 9.73363C65.0164 8.84883 64.868 8.03159 64.5704 7.28174C64.2731 6.53245 63.8665 5.88237 63.3503 5.33112C62.8345 4.78043 62.2221 4.34692 61.5137 4.03077C60.8389 3.73003 60.113 3.57208 59.335 3.55772L59.2048 3.55664Z" fill="#F26D07"/>
<path fill-rule="evenodd" clip-rule="evenodd" d="M39.9412 19.4668C38.6073 19.4668 37.3516 19.2149 36.174 18.7119C34.9961 18.2088 33.9787 17.5212 33.1215 16.6492C32.2641 15.7776 31.5841 14.7442 31.082 13.5485C30.5794 12.3533 30.3286 11.0814 30.3286 9.73337C30.3286 8.38528 34.1425 8.84856 34.1425 9.73337C34.1425 10.6002 34.2909 11.4131 34.5885 12.1716C34.8858 12.9302 35.2925 13.5852 35.8086 14.1359C36.3244 14.6869 36.9368 15.1205 37.6453 15.4362C38.32 15.7373 39.046 15.895 39.8239 15.9093L39.941 15.9104L39.9541 15.91C43.5788 15.9104 45.508 13.1596 47.3605 9.94563L47.4823 9.73322C48.1602 10.9181 48.8327 12.1585 49.5793 13.3418L49.4544 13.5382C47.4232 16.704 44.8226 19.411 40.1008 19.466L39.9541 19.4668H39.9412ZM62.9855 0.754903C64.1634 1.25842 65.1808 1.94594 66.038 2.81764C66.8954 3.68972 67.5754 4.72315 68.0775 5.91831C68.5801 7.11384 68.8309 8.38536 68.8309 9.73344C68.8309 11.0815 65.017 10.6003 65.017 9.73344C65.017 8.84864 64.8686 8.0314 64.571 7.28155C64.2737 6.53226 63.867 5.88218 63.3509 5.33093C62.8351 4.78024 62.2227 4.34673 61.5142 4.03058C60.8395 3.72984 60.1135 3.57189 59.3356 3.55753L59.2054 3.55645C55.5013 3.55645 53.5678 6.42908 51.6773 9.73311C50.9992 8.54868 50.3268 7.30829 49.5802 6.12502L49.7051 5.92863C51.7363 2.76282 54.3369 0.0557668 59.0587 0.000850424L59.2183 0C60.5522 0 61.8079 0.251946 62.9855 0.754903Z" fill="url(#paint0_linear)"/>
<defs>
<linearGradient id="paint0_linear" x1="46.9824" y1="-1.31035" x2="40.1" y2="15.9779" gradientUnits="userSpaceOnUse">
<stop stop-color="#1F1F1F" stop-opacity="0.01"/>
<stop offset="0.321614" stop-color="#1F1F1F" stop-opacity="0.01"/>
<stop offset="0.424049" stop-color="#1F1F1F" stop-opacity="0.5"/>
<stop offset="0.50015" stop-color="#1F1F1F" stop-opacity="0.6"/>
<stop offset="0.575662" stop-color="#1F1F1F" stop-opacity="0.5"/>
<stop offset="0.676362" stop-color="#181818" stop-opacity="0.01"/>
<stop offset="1" stop-color="#1F1F1F" stop-opacity="0.01"/>
</linearGradient>
</defs>
</svg>
