<svg xmlns="http://www.w3.org/2000/svg" viewBox="0 0 2132.35 414.23"><defs><style>.cls-1{fill:#33348e;fill-rule:evenodd}</style></defs><title>gallina_blanca</title><g id="Capa_2"><g id="Capa_1-2"><path d="M212.63,0H147.38C124.64,0,104.12,9.91,88,24.19,78.45,33.71,72.23,48,72.23,64.13c0,1.86,2.93,6.23,2.93,8.08-2.93,0-7.7-3.29-9.53-3.29-15.76,0-30.43,6.59-40,16.11A78.26,78.26,0,0,0,0,142.59V272a78.19,78.19,0,0,0,25.67,57.56c9.53,9.52,24.19,15.76,40,15.76,1.83,0,6.6-3.29,9.53-3.29,0,1.83-2.93,6.58-2.93,8,0,16.14,6.22,30.43,15.76,40,16.13,14.67,36.65,24.19,59.39,24.19H1985c22.72,0,43.26-9.52,59.37-24.19,9.55-9.52,15.79-23.81,15.79-40,0-1.47-2.95-6.22-2.95-8,2.95,0,7.71,3.29,9.52,3.29,15.76,0,30.43-6.22,39.95-15.76A78.19,78.19,0,0,0,2132.35,272V142.59A78.19,78.19,0,0,0,2106.68,85c-9.52-9.52-24.19-16.11-39.95-16.11-1.83,0-6.59,3.29-9.52,3.29,0-1.85,2.95-6.22,2.95-8.08,0-16.11-6.23-30.42-15.79-39.94C2028.26,9.89,2007.72,0,1985,0Zm0,16.48H147.38c-35.2,0-65.63,28.6-59.39,59C89.82,81.7,89.82,85,91.28,89.8L78.45,86.48C48,78.42,17.6,108.85,17.6,142.56V272c0,33.33,30.43,63.79,60.85,56.08l12.83-3.32c-1.46,4.79-1.46,7.71-3.29,14.32-6.23,30,24.19,59.38,59.39,59.38H1985c35.18,0,65.61-29.34,59.37-59.38-1.83-6.61-1.83-9.52-3.29-14.32l12.84,3.32c30.43,7.71,60.84-22.75,60.84-56.08V142.59c0-33.72-30.43-64.14-60.84-56.08l-12.84,3.32c1.46-4.79,1.46-8.08,3.29-14.32,6.23-30.43-24.19-59-59.37-59Zm0,15.79H147.38c-27.14,0-49.86,22.34-48,48,0,11,8.07,20.54,9.53,25.3-4.76,0-15.76-9.52-27.12-11-25.67-1.46-48,22.35-48,48V272c0,25.67,22.36,49.47,48,48,11.36-1.83,22.36-11.35,27.12-11.35-1.46,4.76-9.53,14.29-9.53,25.67-1.83,25.28,20.89,48,48,48H1985c27.13,0,49.85-22.72,48-48,0-11.38-8.08-20.9-9.52-25.67,4.76,0,15.76,9.52,27.11,11.35,25.67,1.47,48-22.35,48-48V142.57c0-25.66-22.38-49.46-48-48-11.35,1.47-22.35,11-27.11,11,1.44-4.76,9.52-14.32,9.52-25.3,1.83-25.67-20.89-48-48-48Zm76.61,118.4L283,85C265.42,72.21,241.58,66,221.06,66c-57.92,0-99.34,60.5-99.34,141.87,0,86.51,38.49,139.29,102.27,139.29,20.9,0,43.25-5.12,68.56-14.67V268.68c0-33.72,0-36.65,17.59-41.41v-20.9h-97.5v20.87c18,1.46,19.05,7.7,19.05,41.41V320c-1.09,2.94-7.69,6.23-12.46,6.23-14.29,0-25.66-14.3-30.43-40-3.29-22.37-4.76-48-4.76-86.16a560.82,560.82,0,0,1,3.3-64.13c4.39-31.9,15.75-49.5,33.72-49.5,19.06,0,33.35,22.38,41.06,62.32l1.83,1.86ZM466.67,305.34c-4.4,5.14-7.71,6.62-11,6.62-6.23,0-8.07-3.3-8.07-27.13V217.75c0-25.67-1.47-35.19-12.46-44.74-11.37-8.4-27.5-14.64-48-14.64-40,0-65.62,17.57-65.62,46.54,0,6.22,1.47,12.84,3.3,20.54l44.36-14.32c0-3.29-1.47-4.76-1.47-8,0-17.6,6.6-25.28,17.59-25.28,11.36,0,14.3,7.68,14.3,31.87v15.78l-44.35,25.67c-27.14,16.13-37,30.42-37,50.94,0,27.51,14.29,45.1,37,45.1,15.75,0,33.35-11.35,44.35-30.43,3.3,20.9,12.83,30.43,30.43,30.43,11.36,0,25.67-8.06,36.65-19.05V305.34Zm-67.08-57.56v46.57c-4.4,7.7-15.78,16.13-20.54,16.13-8.06,0-12.82-8.43-12.82-19.43,0-12.81,6.22-22.37,20.89-31.89Zm89.8-138.91V280.05c0,36.66-1.84,44.71-12.83,44.71h-3.29V342h81.37V324.76h-2.93c-11.36,0-14.66-8-14.66-44.71V66h-11L475.1,88V99.37l14.29,9.52Zm86.14,0V280.05c0,36.66-2.93,44.71-14.3,44.71h-1.47V342h79.91V324.76h-1.83c-11,0-14.31-8-14.31-44.71V66H612.17l-51,22V99.37l14.32,9.52Zm88,89.45v81.75c0,36.65-3.29,44.7-14.31,44.7H647.4V342h78.44V324.77h-1.47c-11.36,0-14.67-8-14.67-44.7V158.37h-11L649.22,177.8v11Zm0-100.83c0,17.6,11,32.27,25.67,32.27,14.29,0,27.12-14.67,27.12-32.27,0-15.76-12.83-30-27.12-30-14.69,0-25.68,14.26-25.68,30Zm132.69,117c1.47-12.84,14.3-23.84,23.83-23.84,11.36,0,14.67,9.52,14.67,30.43v59c0,35.18-1.84,41.41-13.21,44.7V342H900V324.78h-3.3c-11,0-12.46-8-12.46-44.7V227.24c0-29-3.3-40-9.54-52.79-8.43-8-19.42-16.11-33.72-16.11-19.43,0-35.18,11.35-44.72,30.43V158.34H783.39l-51.32,19.43v11l14.66,9.52V280c0,36.65-1.84,44.71-12.82,44.71h-1.84V342h78.44V324.75c-12.83-1.83-14.3-8.06-14.3-44.71V214.49ZM1055,305.34c-2.94,5.14-6.22,6.62-9.53,6.62-6.23,0-8.07-3.3-8.07-27.13V217.75c0-25.67-3.29-35.19-12.82-44.74-11.37-8.4-27.12-14.64-48-14.64-41.42,0-65.25,17.57-65.25,46.54,0,6.22,1.45,12.84,3.29,20.54L959,211.13c-1.46-3.29-1.46-4.76-1.46-8,0-17.6,6.6-25.28,16.13-25.28,12.46,0,15.76,7.68,15.76,31.87v15.78l-44.72,25.67C917.56,267.24,908,281.54,908,302.06c0,27.51,14.31,45.1,36.67,45.1,16.13,0,31.89-11.35,44.72-30.43,3.31,20.9,12.83,30.43,29,30.43,12.83,0,27.13-8.06,36.67-19.05V305.34Zm-65.61-57.56v46.57c-6.23,7.7-15.76,16.13-22.36,16.13-6.23,0-11.36-8.43-11.36-19.43,0-12.81,5.13-22.37,19.43-31.89ZM1119.16,68.92V89.81h1.09c14.67,0,19.43,9.52,19.43,41.42V280.05c0,33.36-4.76,42.89-19.43,42.89h-1.09V342H1194c48,0,65.61-2.94,79.89-11,17.6-9.52,32.27-35.19,32.27-59,0-37-22.37-62.35-62.32-73.7,38.12-12.84,55.71-31.89,55.71-60.84,0-28.59-17.58-52.43-42.9-60.49-16.1-4.76-38.48-8-68.89-8Zm79.55,119.88V91.24h1.83c27.13,0,41.41,17.6,41.41,52.78,0,31.89-11.35,44.74-40,44.74h-3.29Zm0,20.87H1202c20.9,0,28.6,2.94,35.19,17.6,4.76,9.52,6.61,22.37,6.61,43.26,0,33.36-8.08,51-25.66,51-16.14,0-19.43-8.06-19.43-43.24V209.67Zm125-100.8V280.05c0,36.66-3.29,44.71-14.64,44.71h-2.94V342h81.36V324.76h-1.83c-12.47,0-14.29-8-14.29-44.71V66h-12.84l-51,22V99.37l16.13,9.52Zm217,196.47c-3,5.14-6.23,6.62-9.52,6.62-6.23,0-8.06-3.3-8.06-27.13V217.75c0-25.67-2.94-35.19-12.46-44.74-11.38-8.4-27.51-14.64-48.4-14.64-41,0-65.23,17.57-65.23,46.54,0,6.22,1.44,12.84,3.3,20.54l44.7-14.32c-1.83-3.29-1.83-4.76-1.83-8,0-17.6,6.59-25.28,16.14-25.28,12.81,0,16.11,7.68,16.11,31.87v15.78l-44.71,25.67c-27.13,16.13-36.65,30.42-36.65,50.94,0,27.51,13.93,45.1,36.65,45.1,15.76,0,31.52-11.35,44.71-30.43,2.94,20.9,12.84,30.43,28.59,30.43,12.84,0,27.14-8.06,36.66-19.05V305.34Zm-65.25-57.56v46.57c-4.76,7.7-16.11,16.13-22.73,16.13-6.22,0-11-8.43-11-19.43,0-12.81,4.76-22.37,19.43-31.89Zm132.7-33.33c2.95-12.84,15.76-23.84,25.28-23.84s14.67,9.52,14.67,30.43v59c0,35.18-1.83,41.41-12.81,44.7V342h78.07V324.74h-3.29c-11,0-13.93-8-13.93-44.7v-52.8c0-29-1.83-40-9.91-52.79-6.22-8-19-16.11-33.36-16.11-17.57,0-33.72,11.35-43.24,30.43h-1.46V158.34h-12.84l-49.86,19.43v11l14.67,9.52V280c0,36.65-3.3,44.71-14.67,44.71H1544V342h78.46V324.75c-12.82-1.83-14.29-8.06-14.29-44.71V214.45Zm214.08,73.67v1.47c-9.52,14.31-17.6,20.89-29,20.89-20.54,0-33.35-35.56-33.35-85,0-34.84,4.76-51,17.22-51,9.91,0,9.91,3.32,13.2,22.37,3,19.05,11,28.6,23.84,28.6s22.35-11,22.35-25.31c0-25.66-20.9-39.94-51.32-39.94-42.89,0-73.31,36.65-73.31,92.38,0,57.91,27.13,94.56,70.4,94.56,23.81,0,42.89-16.13,55.71-45.09l-15.79-13.92Zm172.66,17.22c-3.3,5.14-6.62,6.62-9.91,6.62-6.23,0-7.71-3.3-7.71-27.13V217.75c0-25.67-3.29-35.19-12.81-44.74-11.38-8.4-27.13-14.64-48-14.64-41.8,0-65.61,17.57-65.61,46.54,0,6.22,1.83,12.84,3.29,20.54l44.71-14.32c0-3.29-1.47-4.76-1.47-8,0-17.6,6.23-25.28,17.25-25.28,11.35,0,14.67,7.68,14.67,31.87v15.78l-44.73,25.67c-27.13,16.13-37,30.42-37,50.94,0,27.51,14.67,45.1,37,45.1,16.13,0,33.36-11.35,44.73-30.43,2.92,20.9,12.46,30.43,30.43,30.43,11,0,25.28-8.06,35.18-19.05V305.34Zm-65.61-57.56v46.57c-4.78,7.7-16.13,16.13-20.89,16.13-7.7,0-12.84-8.43-12.84-19.43,0-12.81,6.61-22.37,20.89-31.89Z" class="cls-1"/></g></g></svg>