<svg xmlns="http://www.w3.org/2000/svg" viewBox="0 0 508.62 510.24">
  <g fill="#c8cbce">
    <path d="M268.99 217.66l-29.47-.03-4.76-2-.59-.6-86.52-86.72-1.93-4.78-.02-29.31 2.02-4.97 16.3-16.37 6.07 6.04L155 94.07l-.74 1.82.01 25.97.67 1.64 84.69 84.89 1.62.68 26.13.03 1.44-.57 84.81-85 .59-1.46-.02-26.17-.67-1.62-84.48-84.8-2.24-.91-25.43-.01-2.05.86-46.99 47.15-6.06-6.04 48.17-48.34 5.2-2.19 28.85.01 5.39 2.2 86.9 87.23 1.97 4.75.02 29.55-1.86 4.6-87.31 87.51-4.62 1.81z"/>
    <path d="M184.08 72.49a13.69 13.69 0 1113.66-13.69 13.69 13.69 0 01-13.66 13.69zm0-18.82a5.13 5.13 0 105.1 5.13 5.12 5.12 0 00-5.1-5.13zm-90.29 310l-4.62-1.82-87.3-87.5-1.87-4.6.02-29.55L2 235.44l86.89-87.22 5.4-2.2 28.84-.01 5.2 2.18 48.18 48.34-6.07 6.05-46.98-47.15-2.05-.86-25.44.01-2.24.91-84.48 84.8-.67 1.62-.02 26.17.59 1.45 84.82 85.01 1.44.57 26.12-.03 1.62-.68 84.7-84.89.66-1.64.01-25.98-.74-1.82-15.08-15.15 6.06-6.04 16.31 16.38 2.02 4.96-.02 29.31-1.94 4.79-.61.62-86.5 86.69-4.76 2-29.47.04z"/>
    <path d="M178.71 218.49a13.69 13.69 0 1113.66-13.68 13.69 13.69 0 01-13.66 13.68zm0-18.81a5.13 5.13 0 105.1 5.13 5.12 5.12 0 00-5.1-5.13zm206.44 163.94l-4.6-1.87-87.31-87.51-1.8-4.62.03-29.53 1.99-4.76 87.12-87.31 4.78-1.94 29.25-.02 4.97 2.03 16.33 16.34-6.05 6.05-15.11-15.12-1.81-.74-25.91.02-1.62.66-84.7 84.89-.68 1.62-.03 26.2.57 1.45 84.81 85.01 1.44.59 26.1-.02 1.61-.67 84.61-84.67.91-2.25.01-25.51-.86-2.06-47.04-47.1 6.05-6.04 48.23 48.28 2.18 5.2-.01 28.91-2.19 5.4-87.03 87.09-4.75 1.98-29.49.02z"/>
    <path d="M450 198.2a13.69 13.69 0 1113.66-13.68A13.69 13.69 0 01450 198.2zm0-18.81a5.13 5.13 0 105.1 5.13 5.12 5.12 0 00-5.1-5.13zM269.67 510.24l-29.5-.03-4.75-1.98-87.02-87.09-2.2-5.4-.01-28.9 2.18-5.2 48.23-48.29 6.06 6.05-47.04 47.1-.87 2.06.01 25.5.92 2.26 84.6 84.67 1.61.67 26.1.02 1.44-.59 84.82-85.01.56-1.45-.02-26.2-.69-1.63-84.69-84.89-1.63-.66-25.91-.01-1.8.73-15.12 15.12-6.05-6.05 16.34-16.34 4.96-2.02 29.25.01 4.79 1.94 87.11 87.31 1.99 4.77.03 29.53-1.8 4.62-87.3 87.5-4.6 1.88z"/>
    <path d="M204.87 344.82a13.69 13.69 0 1113.66-13.69 13.69 13.69 0 01-13.66 13.69zm0-18.82a5.13 5.13 0 105.1 5.13 5.12 5.12 0 00-5.1-5.13zm69.32-245.78a13.69 13.69 0 1113.66-13.69 13.69 13.69 0 01-13.66 13.69zm0-18.82a5.13 5.13 0 105.1 5.13 5.13 5.13 0 00-5.1-5.13zm39.99 58.91a13.69 13.69 0 1113.67-13.69 13.69 13.69 0 01-13.67 13.69zm0-18.82a5.13 5.13 0 105.11 5.13 5.13 5.13 0 00-5.11-5.13z"/>
    <path d="M277.777 76.188l6.06-6.047 26.721 26.778-6.059 6.047zM82 312.47a13.69 13.69 0 1113.67-13.68A13.69 13.69 0 0182 312.47zm0-18.81a5.13 5.13 0 105.11 5.13 5.12 5.12 0 00-5.11-5.13zm39.94 18.84a13.69 13.69 0 1113.67-13.68 13.69 13.69 0 01-13.67 13.68zm0-18.81a5.13 5.13 0 105.11 5.13 5.12 5.12 0 00-5.11-5.13z"/>
    <path d="M101.54 325.42l-16.48-16.48 6.05-6.05 10.43 10.43 10.81-10.81 6.05 6.05-16.86 16.86zm77.17-106.93a13.69 13.69 0 1113.66-13.68 13.69 13.69 0 01-13.66 13.68zm0-18.81a5.13 5.13 0 105.1 5.13 5.12 5.12 0 00-5.1-5.13zm29.14 240.4a13.69 13.69 0 1113.67-13.69 13.7 13.7 0 01-13.67 13.69zm0-18.82a5.13 5.13 0 105.11 5.13 5.13 5.13 0 00-5.11-5.13zm40 58.9a13.69 13.69 0 1113.66-13.68 13.69 13.69 0 01-13.66 13.68zm0-18.81a5.13 5.13 0 105.1 5.13 5.12 5.12 0 00-5.1-5.13z"/>
    <path d="M211.453 436.097l6.06-6.045 26.718 26.782-6.06 6.046zM359.25 247.88a13.67 13.67 0 1113.69-13.67 13.69 13.69 0 01-13.69 13.67zm0-18.77a5.11 5.11 0 105.13 5.1 5.12 5.12 0 00-5.13-5.1zm-.03 58.74a13.67 13.67 0 1113.69-13.67 13.69 13.69 0 01-13.69 13.67zm0-18.78a5.11 5.11 0 105.13 5.11 5.12 5.12 0 00-5.13-5.11z"/>
    <path d="M349.47 270.64l-16.86-16.86 16.49-16.48 6.05 6.05-10.43 10.43 10.81 10.81-6.06 6.05z"/>
  </g>
</svg>
