<?xml version="1.0" encoding="UTF-8"?>
<svg width="703px" height="145px" viewBox="0 0 703 145" version="1.1" xmlns="http://www.w3.org/2000/svg" xmlns:xlink="http://www.w3.org/1999/xlink">
    <!-- Generator: Sketch 42 (36781) - http://www.bohemiancoding.com/sketch -->
    <title>Group</title>
    <desc>Created with Sketch.</desc>
    <defs></defs>
    <g id="Page-1" stroke="none" stroke-width="1" fill="none" fill-rule="evenodd">
        <g id="Group" transform="translate(0.000000, -1.000000)" fill-rule="nonzero">
            <path d="M112.17,60.87 C100.061582,48.1285223 79.9187945,47.609286 67.17,59.71 L67.17,59.71 L58.99,67.55 L58.99,67.55 L58.99,67.55 L58.99,67.55 C58.464417,68.0536192 57.8417602,68.4449062 57.16,68.7 C56.159426,69.0723146 55.0728171,69.1486896 54.03,68.92 C52.9698594,68.6869592 52.0045555,68.1398375 51.26,67.35 C49.9956056,66.0174867 49.4814229,64.1409075 49.89,62.35 C50.0970485,61.4761402 50.5199486,60.6681604 51.12,60 L28.69,81.25 C29.6963526,82.7730867 30.834023,84.205213 32.09,85.53 C37.9021301,91.6537045 45.9096644,95.2165398 54.3496453,95.4341038 C62.7896263,95.6516677 70.9700877,92.506123 77.09,86.69 L77.09,86.69 L85.27,78.85 L85.27,78.85 L85.27,78.85 L85.27,78.85 C85.7971104,78.3483419 86.4193442,77.9573206 87.1,77.7 C88.100574,77.3276854 89.1871829,77.2513104 90.23,77.48 C91.2853038,77.6962402 92.2507506,78.2260161 93,79 C93.5070378,79.5229077 93.8987997,80.1463201 94.15,80.83 C94.5435034,81.8388044 94.6338682,82.9405595 94.41,84 C94.1769592,85.0601406 93.6298375,86.0254445 92.84,86.77 L115.58,65.18 C114.570536,63.6471173 113.429563,62.2050084 112.17,60.87 L112.17,60.87 Z" id="Shape" fill="#269EF7"></path>
            <path d="M122.42,58.68 L115.58,65.18 C124.17458,78.0537497 122.240205,95.2477246 111,105.89 L140.58,77.8 C143.116776,75.3973007 144.593926,72.084415 144.685842,68.5916011 C144.777759,65.0987872 143.476895,61.7127959 141.07,59.18 L141.07,59.18 C138.667593,56.6327285 135.349105,55.1478754 131.848913,55.0540364 C128.348721,54.9601975 124.955441,56.2651105 122.42,58.68 L122.42,58.68 Z" id="Shape" fill="#FF8388"></path>
            <path d="M26,50.86 C27.5255729,47.3644622 29.669999,44.173231 32.33,41.44 L4.11,68.22 C-1.17105118,73.2366659 -1.39033677,81.5829438 3.62,86.87 L3.62,86.87 C6.02923158,89.4072569 9.34785977,90.8833105 12.8455684,90.9733319 C16.343277,91.0633534 19.7334404,89.7599658 22.27,87.35 L28.69,81.25 C22.6716587,72.2408162 21.6577478,60.7862617 26,50.86 L26,50.86 Z" id="Shape" fill="#FF8388"></path>
            <polygon id="Shape" fill="#1300A8" points="58.94 67.57 58.94 67.57 58.9 67.61"></polygon>
            <path d="M51.41,59.63 L89.24,23.72 C91.7729872,21.3145822 93.2466002,18.0014032 93.3366191,14.5094188 C93.426638,11.0174343 92.125688,7.6327306 89.72,5.1 L89.72,5.1 C87.3145822,2.56701283 84.0014032,1.09339982 80.5094188,1.00338089 C77.0174343,0.913361954 73.6327306,2.21431203 71.1,4.62 L32.32,41.44 C21.8705783,52.1922652 20.3575874,68.7851486 28.69,81.25 L51.12,60 C51.2098152,59.871447 51.3066279,59.7479274 51.41,59.63 L51.41,59.63 Z" id="Shape" fill="#022494"></path>
            <path d="M120.48,77.54 C119.740827,73.1193658 118.070599,68.9062987 115.58,65.18 L92.84,86.77 L55.43,122.28 C50.1660944,127.313472 49.9736711,135.659273 55,140.93 L55,140.93 C57.4092316,143.467257 60.7278598,144.94331 64.2255684,145.033332 C67.723277,145.123353 71.1134404,143.819966 73.65,141.41 L92.23,123.77 L111,105.89 C118.689253,98.6117427 122.244572,87.9795363 120.48,77.54 L120.48,77.54 Z" id="Shape" fill="#022494"></path>
            <path d="M316.88,49.32 C312.114541,49.2680781 307.508504,51.0346792 304,54.26 L304,52.26 C303.989232,51.4471206 303.332879,50.790768 302.52,50.78 L290.12,50.78 C289.726663,50.777315 289.348657,50.9323808 289.070519,51.2105188 C288.792381,51.4886568 288.637315,51.8666626 288.64,52.26 L288.64,120 C288.651096,120.375855 288.804838,120.733394 289.07,121 C289.34835,121.278076 289.726558,121.432962 290.12,121.43 L302.48,121.43 C302.856755,121.423028 303.215767,121.268653 303.48,121 C303.74799,120.7344 303.905237,120.37702 303.92,120 L303.92,94.24 C307.493289,97.5443498 312.183063,99.3766835 317.05,99.37 C323.336477,99.4684959 329.356374,96.8343349 333.55,92.15 C337.983077,87.319977 340.361087,80.9535108 340.18,74.4 C340.374633,67.8131651 338.000744,61.4086829 333.56,56.54 C329.308323,51.8308118 323.223347,49.1969073 316.88,49.32 L316.88,49.32 Z M321.3,82.08 C317.013111,86.3251163 310.106889,86.3251163 305.82,82.08 C303.731792,80.0771463 302.575327,77.2929305 302.63,74.4 C302.610304,69.9678287 305.266776,65.9617241 309.357208,64.2550039 C313.447641,62.5482836 318.163667,63.4782357 321.3,66.61 L321.3,66.61 C323.401163,68.649532 324.55718,71.4725327 324.49,74.4 C324.544673,77.2929305 323.388208,80.0771463 321.3,82.08 L321.3,82.08 Z" id="Shape" fill="#302A26"></path>
            <path d="M278.37,50.75 L266,50.75 C265.606663,50.747315 265.228657,50.9023808 264.950519,51.1805188 C264.672381,51.4586568 264.517315,51.8366626 264.52,52.23 L264.52,54.38 C260.925119,51.1188068 256.243712,49.3147002 251.39,49.32 C245.098718,49.2119264 239.07194,51.8475008 234.88,56.54 C230.461235,61.3380924 228.086513,67.6694877 228.26,74.19 C228.26,81.3 230.46,87.38 234.88,92.19 C239.138586,96.9071863 245.23626,99.5418484 251.59,99.41 C256.377548,99.4402394 260.998355,97.6533846 264.52,94.41 L264.52,96.47 C264.526972,96.8467552 264.681347,97.2057673 264.95,97.47 C265.227333,97.7508003 265.605333,97.9092003 266,97.91 L278.36,97.91 C278.737481,97.8972479 279.095571,97.7396886 279.36,97.47 C279.628653,97.2057673 279.783028,96.8467552 279.79,96.47 L279.79,52.23 C279.783028,51.8532448 279.628653,51.4942327 279.36,51.23 C279.104575,50.9478814 278.749692,50.775817 278.37,50.75 L278.37,50.75 Z M262.71,82.13 C258.354947,85.9668536 251.768179,85.7597924 247.662718,81.6569745 C243.557256,77.5541566 243.345952,70.967523 247.18,66.61 C249.219201,64.5072141 252.041487,63.3478666 254.97,63.41 C257.87397,63.4178864 260.654968,64.583195 262.6971,66.6478502 C264.739232,68.7125054 265.873967,71.5061184 265.85,74.41 C265.926488,77.3087587 264.788103,80.1075907 262.71,82.13 Z" id="Shape" fill="#302A26"></path>
            <path d="M372.36,49.32 C367.580777,49.2578504 362.958606,51.0251513 359.44,54.26 L359.44,52.26 C359.446043,51.4505799 358.808796,50.7823551 358,50.75 L345.6,50.75 C345.206663,50.747315 344.828657,50.9023808 344.550519,51.1805188 C344.272381,51.4586568 344.117315,51.8366626 344.12,52.23 L344.12,120 C344.131096,120.375855 344.284838,120.733394 344.55,121 C344.82835,121.278076 345.206558,121.432962 345.6,121.43 L358,121.43 C358.376755,121.423028 358.735767,121.268653 359,121 C359.26799,120.7344 359.425237,120.37702 359.44,120 L359.44,94.24 C363.010756,97.5420017 367.696514,99.3741619 372.56,99.37 C378.849947,99.4714106 384.874074,96.8369951 389.07,92.15 C393.503077,87.319977 395.881087,80.9535108 395.7,74.4 C395.895089,67.8112649 393.517119,61.405452 389.07,56.54 C384.813791,51.8195006 378.714524,49.1841501 372.36,49.32 L372.36,49.32 Z M376.78,82.08 C372.493111,86.3251163 365.586889,86.3251163 361.3,82.08 C359.211792,80.0771463 358.055327,77.2929305 358.11,74.4 C358.090304,69.9678287 360.746776,65.9617241 364.837208,64.2550039 C368.927641,62.5482836 373.643667,63.4782357 376.78,66.61 L376.78,66.61 C378.892193,68.6443584 380.059359,71.4680295 380,74.4 C380.046879,77.2974569 378.879253,80.0823534 376.78,82.08 L376.78,82.08 Z" id="Shape" fill="#302A26"></path>
            <path d="M216.61,53.62 C214.03,50.62 209.74,49.32 204.1,49.32 C201.150172,49.2264201 198.221113,49.843786 195.56,51.12 C194.088736,51.9215054 192.741399,52.9320081 191.56,54.12 L191.56,28.21 C191.562664,27.818402 191.408966,27.4419276 191.132999,27.1640825 C190.857031,26.8862375 190.481607,26.7299909 190.09,26.73 L177.75,26.73 C177.357409,26.7313856 176.980793,26.8856191 176.7,27.16 C176.422868,27.4389769 176.268151,27.8167736 176.27,28.21 L176.27,96.46 C176.276972,96.8367552 176.431347,97.1957673 176.7,97.46 C176.977333,97.7408003 177.355333,97.8992003 177.75,97.9 L190.11,97.9 C190.487481,97.8872479 190.845571,97.7296886 191.11,97.46 C191.378653,97.1957673 191.533028,96.8367552 191.54,96.46 L191.54,73.78 C191.54,69.78 192.31,67.01 193.54,65.33 C194.77,63.65 196.59,62.83 199.41,62.8 C202.23,62.77 203.84,63.56 204.77,64.8 C205.7,66.04 206.42,68.56 206.41,72.28 L206.41,96.46 C206.411833,96.8713854 206.583672,97.263707 206.884798,97.5440005 C207.185924,97.8242939 207.589538,97.9676141 208,97.94 L220.36,97.94 C221.175112,97.9345476 221.834548,97.2751123 221.84,96.46 L221.84,68.68 C221.897919,66.0495917 221.605349,63.4231812 220.97,60.87 C220.040596,58.1745872 218.555169,55.7045527 216.61,53.62 L216.61,53.62 Z" id="Shape" fill="#302A26"></path>
            <path d="M702.37,77.38 C702.636882,77.1145598 702.790933,76.7563007 702.8,76.38 L702.8,74.5 C702.8,66.95 700.68,60.73 696.32,56.17 C691.96,51.61 686,49.31 678.65,49.32 C671.3,49.33 665.17,51.58 660.65,56.15 C656.13,60.72 654,66.9 654,74.4 C654,81.9 656.28,88.01 660.92,92.56 C665.56,97.11 671.81,99.38 679.37,99.37 C690.37,99.44 698.37,94.37 702.3,84.66 C702.469457,84.2399744 702.440055,83.7658699 702.22,83.37 C701.996504,82.9777274 701.606182,82.7089202 701.16,82.64 L689.71,80.8 C689.14733,80.707986 688.582201,80.9496275 688.26,81.42 C685.71,85.06 682.77,86.67 678.96,86.7 C675.83,86.7 673.67,85.81 672.07,84.11 C670.587208,82.3409873 669.754408,80.1178357 669.71,77.81 L701.33,77.81 C701.720199,77.8114016 702.094723,77.6565504 702.37,77.38 L702.37,77.38 Z M670.48,67 C671.83,63 674.36,61.29 679.06,61.18 C681.153178,61.0803931 683.210048,61.7529682 684.84,63.07 C686.045328,64.1294121 686.954996,65.4835763 687.48,67 L670.48,67 Z" id="Shape" fill="#302A26"></path>
            <path d="M582.11,24.6 C579.736831,24.5836111 577.459029,25.5329958 575.8,27.23 L576.85,28.28 L575.8,27.23 C572.757345,30.2670062 572.287349,35.031834 574.678008,38.6047747 C577.068668,42.1777154 581.652422,43.5610717 585.620518,41.9071745 C589.588614,40.2532773 591.833011,36.0239559 590.978428,31.8107806 C590.123844,27.5976053 586.408911,24.5770507 582.11,24.6 L582.11,24.6 Z" id="Shape" fill="#302A26"></path>
            <path d="M626.76,49.32 C621.905573,49.3108429 617.222822,51.1154675 613.63,54.38 L613.63,28.21 C613.628614,27.8174093 613.474381,27.4407927 613.2,27.16 C612.921023,26.8828677 612.543226,26.728151 612.15,26.73 L599.79,26.73 C599.396663,26.727315 599.018657,26.8823808 598.740519,27.1605188 C598.462381,27.4386568 598.307315,27.8166626 598.31,28.21 L598.31,96.46 C598.315452,97.2751123 598.974888,97.9345476 599.79,97.94 L612.15,97.94 C612.965112,97.9345476 613.624548,97.2751123 613.63,96.46 L613.63,94.34 C617.1399,97.5957963 621.762767,99.3848314 626.55,99.34 C632.90374,99.4718484 639.001414,96.8371863 643.26,92.12 C647.68,87.35 649.9,81.27 649.89,74.12 C650.078519,67.5911945 647.722745,61.2445906 643.32,56.42 C639.091411,51.7629967 633.048624,49.1721885 626.76,49.32 Z M631,82.08 C627.867251,85.2221463 623.145796,86.1586305 619.050924,84.4500578 C614.956052,82.741485 612.300404,78.7269272 612.33,74.29 C612.286403,71.3912993 613.41868,68.5985258 615.468603,66.548603 C617.518526,64.4986803 620.311299,63.3664031 623.21,63.41 C626.130608,63.3372084 628.950867,64.4776212 631,66.56 L631,66.56 C635.218838,70.8771081 635.218838,77.7728919 631,82.09 L631,82.08 Z" id="Shape" fill="#302A26"></path>
            <path d="M588.24,50.75 L575.88,50.75 C575.486663,50.747315 575.108657,50.9023808 574.830519,51.1805188 C574.552381,51.4586568 574.397315,51.8366626 574.4,52.23 L574.4,96.46 C574.406972,96.8367552 574.561347,97.1957673 574.83,97.46 C575.09502,97.7288332 575.45275,97.8862348 575.83,97.9 L588.19,97.9 C589.005112,97.8945476 589.664548,97.2351123 589.67,96.42 L589.67,52.23 C589.664548,51.4148877 589.005112,50.7554524 588.19,50.75 L588.24,50.75 Z" id="Shape" fill="#302A26"></path>
            <path d="M474.31,67.48 C471.894606,66.7413599 469.551577,65.7840652 467.31,64.62 C466.857612,64.3216804 466.604431,63.7999753 466.65,63.26 C466.625937,62.6698789 466.909884,62.1095572 467.4,61.78 C468.152388,61.2600838 469.057008,61.0066496 469.97,61.06 C471.85,61.06 473.97,61.87 476.43,63.72 C477.051665,64.1807959 477.923363,64.0849092 478.43,63.5 L484.55,56.25 C484.815286,55.9389718 484.939073,55.5315218 484.891639,55.1254861 C484.844205,54.7194503 484.629834,54.3515049 484.3,54.11 C479.798984,50.7730988 474.322243,49.0154797 468.72,49.11 C464.29992,48.979814 459.992155,50.5144776 456.65,53.41 C453.442916,56.1547012 451.630919,60.1895117 451.71,64.41 C451.71,68.21 452.54,71.27 454.52,73.35 C456.5,75.43 459.45,76.93 463.71,78.51 C466.150579,79.2821138 468.511406,80.2867211 470.76,81.51 C471.256005,81.9481964 471.503108,82.6033952 471.42,83.26 C471.454419,84.1854229 471.059518,85.0748728 470.35,85.67 C469.457263,86.3911894 468.324968,86.7483802 467.18,86.67 C464.23,86.67 461.13,85.21 457.81,81.9 C457.52026,81.6081382 457.120864,81.4520105 456.71,81.47 C456.294738,81.4797042 455.904216,81.6694905 455.64,81.99 L449.2,89.55 C448.681406,90.1158143 448.681406,90.9841857 449.2,91.55 C453.716658,96.6428553 460.233848,99.5069117 467.04,99.39 C472.81,99.39 477.7,97.81 481.44,94.59 C485.128881,91.4952804 487.21437,86.8939629 487.11,82.08 C487.11,78.29 486.11,75.08 483.82,72.86 C481.53,70.64 478.52,69 474.31,67.48 Z" id="Shape" fill="#302A26"></path>
            <path d="M449.7,50.75 L435.5,50.75 C434.939,50.7470259 434.425913,51.0657615 434.18,51.57 L422.9,74.12 L411,51.54 C410.743834,51.0539105 410.239458,50.7497449 409.69,50.75 L395.29,50.75 C394.747568,50.7335989 394.240223,51.0173829 393.970303,51.4881739 C393.700383,51.9589648 393.7118,52.5401722 394,53 L414.54,89.73 L398.68,119.3 C398.42523,119.753324 398.42523,120.306676 398.68,120.76 C398.944339,121.209617 399.428451,121.484074 399.95,121.48 L413.95,121.48 C414.498225,121.475852 415.000515,121.172944 415.26,120.69 L451,52.92 C451.249127,52.4687689 451.249127,51.9212311 451,51.47 C450.727299,51.0140717 450.231151,50.7392818 449.7,50.75 Z" id="Shape" fill="#302A26"></path>
            <path d="M568.07,50.56 C566.191351,49.692636 564.138569,49.2683945 562.07,49.32 C557.724857,49.2409595 553.562874,51.0679933 550.68,54.32 L550.68,52.23 C550.673028,51.8532448 550.518653,51.4942327 550.25,51.23 C549.98498,50.9611668 549.62725,50.8037652 549.25,50.79 L536.86,50.79 C536.044888,50.7954524 535.385452,51.4548877 535.38,52.27 L535.38,96.46 C535.390677,96.8379513 535.548563,97.1967831 535.82,97.46 C536.084429,97.7296886 536.442519,97.8872479 536.82,97.9 L549.18,97.9 C549.55725,97.8862348 549.91498,97.7288332 550.18,97.46 C550.448653,97.1957673 550.603028,96.8367552 550.61,96.46 L550.61,75.21 C550.61,70.97 551.48,68 552.96,66.21 C554.44,64.42 556.57,63.46 559.86,63.44 C561.658714,63.4756895 563.422139,63.9457073 565,64.81 C565.422979,65.0305406 565.927021,65.0305406 566.35,64.81 C566.777409,64.5996952 567.073159,64.1916339 567.14,63.72 L569,52.14 C569.096635,51.4608514 568.710687,50.8051555 568.07,50.56 L568.07,50.56 Z" id="Shape" fill="#302A26"></path>
            <path d="M528.25,52.15 C524.671259,50.2577133 520.678077,49.2851915 516.63,49.32 C509.703771,49.1241353 502.98987,51.7224836 498,56.53 C493.090189,61.2397157 490.389674,67.7986286 490.56,74.6 C490.438383,81.2478318 493.120754,87.6397875 497.95,92.21 C502.743912,96.9187577 509.231575,99.4994059 515.95,99.37 C520.222516,99.3769357 524.43649,98.3765452 528.25,96.45 C528.750922,96.2004288 529.068226,95.6896479 529.07,95.13 L529.07,83.13 C529.071081,82.5639162 528.749163,82.0468039 528.240732,81.7979067 C527.732301,81.5490094 527.126432,81.6119333 526.68,81.96 C524.186339,84.0686181 521.044881,85.2581362 517.78,85.33 C514.719144,85.4690799 511.727755,84.3904537 509.46,82.33 C507.315587,80.2922546 506.159324,77.4253067 506.29,74.47 C506.185999,71.5114787 507.341699,68.6476688 509.47,66.59 C511.640562,64.4977413 514.567033,63.3755065 517.58,63.48 C520.920003,63.581686 524.12872,64.8038867 526.69,66.95 C527.131676,67.3000065 527.73614,67.3624028 528.24,67.11 C528.749712,66.8635029 529.072552,66.3461806 529.07,65.78 L529.07,53.46 C529.064467,52.9039619 528.747726,52.3979477 528.25,52.15 L528.25,52.15 Z" id="Shape" fill="#302A26"></path>
        </g>
    </g>
</svg>