<?xml version="1.0" encoding="utf-8"?>
<!-- Generator: Adobe Illustrator 21.0.0, SVG Export Plug-In . SVG Version: 6.00 Build 0)  -->
<svg version="1.1" id="Capa_1" xmlns="http://www.w3.org/2000/svg" xmlns:xlink="http://www.w3.org/1999/xlink" x="0px" y="0px"
	 viewBox="0 0 138 34.9" style="enable-background:new 0 0 138 34.9;" xml:space="preserve">
<style type="text/css">
	.st0{fill:#167DB7;}
</style>
<g id="Logo_3_">
	<g id="InfoJobs_3_">
		<path class="st0" d="M0,26.8c0,0.3,0.3,0.5,0.6,0.5h5c0.3,0,0.6-0.2,0.7-0.6L9.4,0.6V0.5C9.4,0.2,9.2,0,9,0H8.9H3.6
			C3.3,0,3.2,0.2,3.2,0.5L0,26.8z"/>
		<path class="st0" d="M29.6,11.7c0,0.8-0.1,1.6-0.2,2.4l-1.6,12.6c0,0.3-0.3,0.6-0.6,0.6h-4.6c-0.3,0-0.6-0.2-0.6-0.5v-0.1
			l1.5-12.2c0.1-0.5,0.1-1.1,0.1-1.5l0,0c0-0.6-0.1-1.1-0.4-1.4c-0.4-0.4-1-0.6-1.9-0.6c-1.8,0-3.9,0.5-3.9,0.5l-1.9,15.3
			c0,0.3-0.3,0.6-0.7,0.6h-4.6c-0.3,0-0.6-0.2-0.6-0.5v-0.1l2-16.4C12.1,8.9,13,8.5,15.3,8c2-0.4,5-0.9,7.3-0.9
			c2.7,0,4.7,0.4,5.9,1.5C29.1,9.3,29.6,10.3,29.6,11.7L29.6,11.7z"/>
		<path class="st0" d="M77.1,0.5c0-0.3-0.1-0.4-0.4-0.4h-0.1h-5.3c-0.3,0-0.5,0.2-0.5,0.5L67.5,28c-0.5,2.8-1.7,2.8-3.6,2.9
			c-0.8,0-1.5,0-2,0.1c-0.6,0-0.8,0.2-0.9,0.8L60.7,34v0.2c0,0.5,0.3,0.6,0.7,0.6c0.7,0.1,1,0.2,3.6,0.2c4.4,0,8-1.3,8.7-7.2
			L77.1,0.5z"/>
		<path class="st0" d="M64.1,21.9c-1.2,3.4-3.8,5.7-9.8,5.7c-3.4,0-5.5-0.7-6.8-2s-1.7-3.2-1.7-5.3c0-2.4,0.5-6,1.4-8.1
			c1.3-3.2,3.9-5.3,9.6-5.3c3.4,0,5.6,0.8,6.8,2c1.3,1.3,1.7,3,1.7,5.2C65.3,16.5,64.9,19.8,64.1,21.9 M58.8,11.6
			c-0.5-0.5-1.2-0.8-2.5-0.8c-2.7,0-3.6,1.2-4.1,3.9c-0.3,1.8-0.6,3.9-0.6,5.8c0,1.2,0.2,2,0.7,2.5s1.2,0.7,2.4,0.7
			c2.8,0,3.6-1.3,4.1-4.1c0.3-1.8,0.6-3.7,0.6-5.5C59.4,12.9,59.3,12.1,58.8,11.6"/>
		<path class="st0" d="M96.4,21.9c-1.2,3.4-3.8,5.7-9.8,5.7c-3.4,0-5.5-0.7-6.8-2s-1.7-3.2-1.7-5.3c0-2.4,0.5-6,1.4-8.1
			c1.3-3.2,3.9-5.3,9.7-5.3c3.4,0,5.6,0.8,6.8,2c1.3,1.3,1.7,3,1.7,5.2C97.6,16.5,97.2,19.8,96.4,21.9 M91.1,11.6
			c-0.5-0.5-1.2-0.8-2.5-0.8c-2.7,0-3.6,1.2-4.1,3.9c-0.3,1.8-0.6,3.9-0.6,5.8c0,1.2,0.1,2,0.7,2.5c0.5,0.5,1.2,0.7,2.4,0.7
			c2.8,0,3.6-1.3,4.1-4.1c0.3-1.8,0.6-3.7,0.6-5.5C91.8,12.9,91.6,12.1,91.1,11.6"/>
		<path class="st0" d="M118.4,21.3c-1.3,4.2-3.9,6.3-9.9,6.3c-2.9,0-5.5-0.4-6.9-0.9c-1.5-0.5-1.8-1.1-1.8-2.1
			c0-0.5,0.1-1.1,0.2-1.8l2.6-21.9c0-0.5,0.3-0.8,0.8-0.9h4.4h0.2c0.3,0,0.6,0.2,0.6,0.5v0.1L108,5.4l-0.3,2.2c0,0,2.3-0.7,4.7-0.7
			c2.5,0,4.3,0.5,5.4,1.6s1.7,2.8,1.7,5.4C119.5,16.3,119.1,19,118.4,21.3 M113.1,11.7c-0.5-0.6-1.3-0.8-2.5-0.8
			c-1.5,0-3.5,0.5-3.5,0.5l-1.5,12c0,0,1.3,0.3,2.9,0.3c2.7,0,3.8-0.8,4.5-4.7c0.3-1.6,0.5-3.3,0.5-5
			C113.6,12.9,113.4,12.1,113.1,11.7"/>
		<path class="st0" d="M137.2,11c-0.1,0.3-0.3,0.4-0.6,0.4c0,0-0.1,0-0.2,0c-0.4,0-2.5-0.5-4.5-0.5c-0.9,0-2.1,0.1-2.8,0.7
			c-0.5,0.4-0.7,1-0.7,1.6l0,0c0,1.6,1.7,1.6,3.5,2c1.5,0.2,3,0.6,4,1.6c0.8,0.7,1.2,1.8,1.2,3.5c0,1.8-0.6,3.7-1.9,5.1
			c-1.7,1.7-4.3,2.4-7.2,2.4c-3.2,0-6.2-0.8-6.8-1.1c-0.1-0.1-0.3-0.1-0.3-0.4c0-0.1,0-0.2,0-0.3l0.8-2.4c0.1-0.3,0.3-0.5,0.5-0.5
			c0.1,0,0.1,0,0.2,0c0.5,0.1,3.1,0.9,5.4,0.9c1.1,0,2-0.2,2.7-0.8c0.6-0.5,0.8-1.1,0.8-1.7c0-0.8-0.3-1.2-0.8-1.5s-1.2-0.4-2.1-0.5
			c-1.4-0.3-3.3-0.5-4.5-1.7c-0.7-0.8-1.2-1.8-1.2-3.3c0-1.7,0.4-3.4,1.5-4.7c1.9-2.3,5.1-2.6,7.5-2.6c3,0,5.3,0.6,6,0.9
			c0.3,0.1,0.3,0.3,0.3,0.5v0.2L137.2,11z"/>
		<path class="st0" d="M46.4,0.7c-0.6-0.2-2.3-0.6-5-0.6c-4.4,0-6.7,2-7.2,6L34,8.5l-0.5,4.1l-1.8,13.2l0,0v0.3l-0.1,0.7l0,0l0,0
			l0,0l0,0c0,0.3,0.3,0.4,0.6,0.4h4.4c0.3,0,0.7-0.1,0.8-0.5v-0.3l0,0l2-13.8H44c0.3,0,0.6-0.2,0.6-0.6L45,9v0
			c0-0.3-0.2-0.5-0.5-0.5h-4.8L40,6.1c0.2-1.6,0.9-2,2.7-2c1,0,2.2,0.2,2.6,0.3h0.2c0.3,0,0.4-0.2,0.5-0.5l0.7-2.6
			c0-0.1,0-0.1,0-0.2C46.7,0.9,46.6,0.7,46.4,0.7z"/>
	</g>
</g>
</svg>
