<svg width="637" height="140" viewBox="0 0 637 140" fill="none" xmlns="http://www.w3.org/2000/svg">
  <path d="M73.24 25.77L60.6 24.94L60.27 45.82H64.98L74.92 32.46H98.16V128.72L82.16 131.89V136.74H137.23V131.89L121.4 128.72V32.46H144.64L154.57 45.82H159.29L158.95 24.94L146.32 25.77H73.24Z" fill="white"/>
  <path d="M491.18 139.11C495.846 139.017 500.394 137.632 504.32 135.11L465.25 85.65L490.18 64.26L502.18 60.08V56.08H465.75V60.42L478.38 65.42L447.56 94.49L472.66 129.59C477.04 135.59 482.43 139.12 491.18 139.12V139.11ZM425 129.25L414.73 132.09V136.76H456.16V132.09L446.39 129.25V11.93L415.07 21.79V24.63L425 30.48V129.25Z" fill="white"/>
  <path d="M584 45.94H582.8V52.7H584C586.57 52.7 589.11 52.7 589.11 49.39C589.11 46.08 586.72 45.94 584 45.94Z" fill="white"/>
  <path d="M0.970215 136.76H50.1402V131.92L37.1802 128.74V33.99L50.1402 30.64V25.8H0.970215V30.64L13.9402 33.99V128.74L0.970215 131.92V136.76Z" fill="white"/>
  <path d="M219.89 136.76H261.32V132.25L250.71 129.25V80.61C250.71 61.06 242.45 53.71 227.64 53.71C215.01 53.71 203.89 63.4 199.01 68.41V11.93L167.68 21.79V24.63L177.62 30.48V129.25L167.35 132.09V136.76H208.77V132.09L199 129.25V73.43C202.2 70.92 208.26 67.08 214.66 67.08C224.76 66.91 228.97 73.76 229.48 83.45V129.25L219.88 132.09L219.89 136.76Z" fill="white"/>
  <path d="M287.08 37.5C293.65 37.5 299.54 31.98 299.54 25.3C299.54 18.78 293.65 13.1 287.08 13.1C285.478 13.1 283.891 13.4155 282.411 14.0286C280.931 14.6417 279.586 15.5404 278.453 16.6733C277.32 17.8061 276.422 19.1511 275.809 20.6312C275.195 22.1114 274.88 23.6978 274.88 25.3C274.88 26.9021 275.195 28.4885 275.809 29.9687C276.422 31.4489 277.32 32.7938 278.453 33.9267C279.586 35.0595 280.931 35.9582 282.411 36.5713C283.891 37.1844 285.478 37.5 287.08 37.5" fill="white"/>
  <path d="M266.37 136.76H309.48V132.09L298.36 129.25V53.71L266.7 62.23V64.9L276.98 71.59V129.25L266.37 132.09V136.76Z" fill="white"/>
  <path d="M314.87 136.76H356.29V132.09L346.53 129.25V73.43C349.72 70.92 355.79 67.08 362.18 67.08C372.29 66.91 376.5 73.76 377.01 83.45V129.25L367.41 132.09V136.76H408.84V132.25L398.4 129.25V80.61C398.4 61.06 389.98 53.71 375.32 53.71C362.02 53.71 350.23 64.4 345.69 69.08H345.35L344.17 53.54H343.32L314.87 62.73V65.24L325.14 71.59V129.25L314.87 132.09V136.76Z" fill="white"/>
  <path d="M584 45.94H582.8V52.7H584C586.57 52.7 589.11 52.7 589.11 49.39C589.11 46.08 586.72 45.94 584 45.94Z" fill="white"/>
  <path d="M583 0.169983C553.22 0.169983 529.07 24.17 529.07 53.68C528.987 64.3638 532.079 74.8316 537.954 83.7554C543.829 92.6793 552.222 99.657 562.069 103.803C571.916 107.95 582.772 109.078 593.261 107.044C603.75 105.011 613.399 99.9083 620.983 92.383C628.568 84.8578 633.746 75.2493 635.861 64.7766C637.976 54.3039 636.933 43.439 632.864 33.56C628.795 23.6811 621.883 15.2335 613.005 9.28882C604.127 3.34413 593.684 0.170307 583 0.169983ZM572.44 55.37C572.44 58.86 572.28 62.31 569.57 64.94C567.28 67.16 563.7 67.94 560.52 67.94C557.34 67.94 553.75 67.15 551.46 64.94C548.75 62.31 548.6 58.86 548.6 55.37V40.13H555.7V54.4C555.7 57.92 555.96 61.77 560.52 61.77C565.08 61.77 565.33 57.92 565.33 54.4V40.13H572.44V55.37ZM586.8 58.25H582.8V67.25H575.7V40.15H586.57C592.44 40.15 596.49 42.85 596.49 49.07C596.46 55.44 593 58.25 586.8 58.25V58.25ZM618.88 49.25C618.146 48.3 617.201 47.5342 616.12 47.0135C615.038 46.4927 613.85 46.2313 612.65 46.25C611.669 46.2337 610.696 46.419 609.79 46.7944C608.884 47.1698 608.065 47.7273 607.383 48.4324C606.702 49.1375 606.172 49.9751 605.827 50.8932C605.483 51.8114 605.331 52.7905 605.38 53.77C605.336 54.7509 605.497 55.7302 605.853 56.6452C606.209 57.5603 606.752 58.3909 607.448 59.0838C608.144 59.7767 608.976 60.3166 609.893 60.6689C610.809 61.0213 611.789 61.1783 612.77 61.13C613.934 61.1146 615.081 60.8505 616.135 60.3555C617.189 59.8606 618.125 59.1461 618.88 58.26V66.71C616.872 67.4524 614.759 67.8742 612.62 67.96C608.824 67.9505 605.169 66.524 602.37 63.96C600.939 62.6754 599.806 61.093 599.051 59.3241C598.296 57.5551 597.937 55.6423 598 53.72C597.981 50.0167 599.417 46.4541 602 43.8C604.752 41.029 608.485 39.4551 612.39 39.42C614.619 39.4379 616.822 39.9003 618.87 40.78L618.88 49.25Z" fill="white"/>
</svg>
