<?xml version="1.0" encoding="UTF-8"?>
<svg id="svg2" xmlns="http://www.w3.org/2000/svg" xmlns:xlink="http://www.w3.org/1999/xlink" viewBox="0 0 1267.5 324.79">
  <defs>
    <style>
      .cls-1 {
        fill: none;
      }

      .cls-2 {
        clip-path: url(#clippath);
      }

      .cls-3 {
        fill: #ced2d5;
      }

      .cls-4 {
        fill: #bfd500;
      }

      .cls-5 {
        fill: #727272;
      }

      .cls-6 {
        fill: #33bae4;
      }

      .cls-7 {
        clip-path: url(#clippath-1);
      }

      .cls-8 {
        clip-path: url(#clippath-3);
      }

      .cls-9 {
        clip-path: url(#clippath-2);
      }
    </style>
    <clipPath id="clippath">
      <rect class="cls-1" x="-1180.92" y="-1254.77" width="3622.68" height="2822.68"/>
    </clipPath>
    <clipPath id="clippath-1">
      <path class="cls-1" d="m38.84,39.39c-51.78,51.78-51.78,135.75,0,187.53h0c51.79,51.8,135.75,51.8,187.54,0h0c51.78-51.78,51.78-135.75,0-187.53h0C200.48,13.49,166.54.54,132.61.54h0c-33.94,0-67.88,12.95-93.77,38.85"/>
    </clipPath>
    <clipPath id="clippath-2">
      <path class="cls-1" d="m39.21,38.84c-51.79,51.78-51.79,135.75,0,187.53h0c51.79,51.78,135.75,51.78,187.54,0h0c51.78-51.79,51.78-135.75,0-187.53h0C200.85,12.94,166.91,0,132.97,0h0C99.03,0,65.1,12.94,39.21,38.84"/>
    </clipPath>
    <clipPath id="clippath-3">
      <rect class="cls-1" x="-1180.92" y="-1254.77" width="3622.68" height="2822.68"/>
    </clipPath>
  </defs>
  <g id="g8">
    <g id="g10">
      <g class="cls-2">
        <g id="g12">
          <g id="g18">
            <path id="path20" class="cls-4" d="m485.52,203.08h-18.05c-2.74,0-3.88-1.14-3.88-3.89v-81.08c0-14.17-7.54-22.16-21.02-22.16s-19.65,8.45-19.65,21.7v81.55c0,2.74-1.37,3.89-4.11,3.89h-18.04c-2.74,0-3.89-1.14-3.89-3.89v-81.08c0-14.17-7.53-22.16-21.01-22.16s-19.64,4.11-19.64,15.77v87.48c0,2.74-1.15,3.89-3.89,3.89h-18.05c-2.74,0-4.11-1.14-4.11-3.89v-96.39c0-7.99,2.74-11.19,9.14-14.16,7.31-3.43,20.34-6.85,35.87-6.85,17.82,0,28.56,5.25,36.09,13.71,7.53-8.22,18.95-13.71,37.69-13.71,17.13,0,40.43,7.77,40.43,35.18v82.23c0,2.74-1.14,3.89-3.88,3.89"/>
          </g>
          <g id="g22">
            <path id="path24" class="cls-4" d="m544.44,203.08h-18.28c-2.74,0-3.88-1.14-3.88-3.89v-110.55c0-2.74,1.14-3.88,3.88-3.88h18.28c2.74,0,3.88,1.14,3.88,3.88v110.55c0,2.74-1.14,3.89-3.88,3.89m-9.14-138.2c-8.91,0-15.07-5.48-15.07-12.33s6.16-12.33,15.07-12.33,15.08,5.48,15.08,12.33-6.18,12.33-15.08,12.33"/>
          </g>
          <g id="g26">
            <path id="path28" class="cls-4" d="m650.41,101.66c-3.65-2.97-8.68-5.71-17.59-5.71-19.19,0-31.74,19.42-31.74,48.2,0,31.29,16.66,45.91,32.43,45.91,11.42,0,16.9-4.34,16.9-12.57v-75.84Zm17.59,96.62c-6.18,4.11-20.79,7.77-35.18,7.77-42.26,0-58.01-26.96-58.01-58.93s17.59-65.1,53.44-65.1c11.43,0,19.2,4.11,22.16,6.16v-55.96c0-2.74,1.38-3.88,4.11-3.88h18.03c2.74,0,3.89,1.14,3.89,3.88v149.39c0,8.23-2.05,12.34-8.45,16.67"/>
          </g>
          <g id="g30">
            <path id="path32" class="cls-4" d="m752.05,96.41c-18.73,0-26.5,20.33-26.5,45s7.99,48.42,27.18,48.42,26.95-20.79,26.95-45.69-8.23-47.74-27.64-47.74m.46,109.64c-34.5,0-53.69-27.64-53.69-62.59s19.88-61.67,53.69-61.67,53.9,26.72,53.9,61.67-19.42,62.59-53.9,62.59"/>
          </g>
          <g id="g34">
            <path id="path36" class="cls-3" d="m928.85,203.08h-20.11c-2.96,0-4.11-1.37-5.94-3.66l-36.09-46.14c-3.65-4.57-6.39-10.28-6.39-10.28h-.46v56.19c0,2.74-1.38,3.89-4.11,3.89h-17.59c-2.74,0-4.11-1.14-4.11-3.89V32.22c0-2.74,1.37-3.89,4.11-3.89h17.59c2.74,0,4.11,1.14,4.11,3.89v103.71h.46l41.57-47.51c1.83-2.06,2.97-3.65,6.17-3.65h16.44c2.74,0,4.11,1.14,4.11,3.88,0,.91-.68,2.28-1.6,3.2l-43.18,45.46,47.97,58.7c.91.92,1.15,2.29,1.15,3.19,0,2.74-1.37,3.89-4.11,3.89"/>
          </g>
          <g id="g38">
            <path id="path40" class="cls-3" d="m1040.07,198.51c-5.93,3.42-20.55,7.31-39.29,7.31-15.53,0-46.59-3.2-46.59-35.64v-81.55c0-2.74,1.14-3.88,3.88-3.88h18.28c2.74,0,3.88,1.14,3.88,3.88v80.64c0,13.7,8.22,20.56,21.02,20.56,18.04,0,21.01-6.17,21.01-14.62v-86.57c0-2.74,1.14-3.88,3.89-3.88h18.27c2.74,0,3.88,1.14,3.88,3.88v93.89c0,8.68-2.96,13.02-8.22,15.99"/>
          </g>
          <g id="g42">
            <path id="path44" class="cls-3" d="m1141.93,109.88c-12.34,0-9.82-13.71-22.85-13.71-8.68,0-14.16,4.34-14.16,11.65v91.37c0,2.74-1.37,3.89-4.11,3.89h-18.05c-2.74,0-4.11-1.14-4.11-3.89v-96.39c0-7.53,2.51-11.19,9.36-14.39,7.09-3.2,20.33-6.62,34.96-6.62,21.24,0,29.91,7.53,29.91,16.67,0,6.86-3.88,11.43-10.96,11.43"/>
          </g>
          <g id="g46">
            <path id="path48" class="cls-3" d="m1229.19,141.41c-21.26,4.34-40.89,10.51-40.89,30.37,0,10.97,7.99,20.1,22.85,20.1,8.67,0,18.05-2.97,18.05-12.79v-37.69Zm16.43,57.56c-5.02,3.43-19.63,7.08-34.03,7.08-26.5,0-48.43-10.05-48.43-32.2,0-30.84,37.69-38.61,66.02-44.09v-15.53c0-11.42-6.86-18.51-16.68-18.51-12.79,0-18.96,10.51-21.01,17.82-1.38,4.8-5.94,7.77-11.65,7.77-6.16,0-11.64-3.43-11.64-10.51,0-10.05,13.47-29.01,47.96-29.01,20.79,0,38.15,11.19,38.15,34.49v64.42c0,9.82-2.29,13.93-8.69,18.27"/>
          </g>
        </g>
      </g>
    </g>
    <g id="g50">
      <g class="cls-7">
        <g id="g52">
          <g id="g58">
            <path id="path60" class="cls-6" d="m229.52,184.46c0,3.55,2.88,6.42,6.43,6.42s6.42-2.87,6.42-6.42-2.86-6.42-6.42-6.42c-3.85-.01-6.43,3.04-6.43,6.42m-51.56,51.57c0,3.54,2.88,6.42,6.43,6.42s6.41-2.88,6.41-6.42-2.87-6.43-6.43-6.43c-3.85,0-6.42,3.05-6.42,6.43m-103.15,0c0,3.54,2.87,6.42,6.43,6.42s6.43-2.88,6.43-6.42c0-3.55-2.88-6.43-6.43-6.43-3.85,0-6.43,3.05-6.43,6.43m-51.57-51.59c0,3.55,2.88,6.43,6.42,6.43,3.55,0,6.43-2.88,6.43-6.43s-2.88-6.42-6.43-6.42c-3.84,0-6.42,3.05-6.42,6.42m51.57,51.59c0,3.54,2.87,6.42,6.43,6.42s6.43-2.88,6.43-6.42c0-3.55-2.88-6.43-6.43-6.43-3.85,0-6.43,3.05-6.43,6.43m51.58,0c0,3.54,2.88,6.42,6.43,6.42s6.41-2.88,6.41-6.42c0-3.55-2.87-6.43-6.42-6.43-3.85,0-6.43,3.05-6.43,6.43m48.82-51.57c0,5.07,4.11,9.18,9.19,9.19,5.07,0,9.17-4.11,9.17-9.18,0-5.07-4.1-9.18-9.17-9.18-5.51,0-9.19,4.35-9.19,9.17M74.81,29.74c0,3.55,2.87,6.44,6.43,6.44s6.43-2.88,6.43-6.43c0-3.55-2.88-6.42-6.43-6.43-3.85,0-6.43,3.05-6.43,6.42m-51.57,51.58c0,3.55,2.87,6.42,6.42,6.42s6.43-2.87,6.43-6.42-2.88-6.43-6.43-6.43c-3.84,0-6.42,3.06-6.42,6.43m0,103.13c0,3.55,2.88,6.43,6.42,6.43,3.55,0,6.43-2.88,6.43-6.43s-2.88-6.42-6.43-6.42c-3.84,0-6.42,3.05-6.42,6.42m0-51.56c0,3.55,2.88,6.42,6.42,6.42s6.43-2.87,6.43-6.42-2.88-6.42-6.43-6.42c-3.84,0-6.42,3.05-6.42,6.42m48.83-51.56c0,5.07,4.11,9.17,9.18,9.17,5.07,0,9.18-4.11,9.18-9.17,0-5.08-4.11-9.18-9.19-9.18-5.49,0-9.17,4.35-9.17,9.18m0,51.56c0,5.08,4.11,9.19,9.18,9.19,5.07,0,9.18-4.11,9.18-9.19,0-5.07-4.11-9.18-9.19-9.18-5.49,0-9.17,4.36-9.17,9.18m0,51.58c0,5.07,4.11,9.18,9.18,9.18,5.07,0,9.18-4.11,9.18-9.18s-4.11-9.19-9.19-9.18c-5.49,0-9.17,4.35-9.17,9.18m51.57,0c0,5.07,4.12,9.19,9.19,9.19s9.17-4.11,9.17-9.18c0-5.08-4.11-9.18-9.17-9.18-5.5,0-9.19,4.35-9.19,9.17m105.89,0c0,3.55,2.88,6.42,6.43,6.42s6.42-2.87,6.42-6.42-2.86-6.42-6.42-6.42c-3.85-.01-6.43,3.04-6.43,6.42m-51.56,51.57c0,3.54,2.88,6.42,6.43,6.42s6.41-2.88,6.41-6.42-2.87-6.43-6.43-6.43c-3.85,0-6.42,3.05-6.42,6.43m-51.57,0c0,3.54,2.88,6.42,6.43,6.42s6.41-2.88,6.41-6.42c0-3.55-2.87-6.43-6.42-6.43-3.85,0-6.43,3.05-6.43,6.43m48.82-51.57c0,5.07,4.11,9.18,9.19,9.19,5.07,0,9.17-4.11,9.17-9.18,0-5.07-4.1-9.18-9.17-9.18-5.51,0-9.19,4.35-9.19,9.17M74.81,29.74c0,3.55,2.87,6.44,6.43,6.44s6.43-2.88,6.43-6.43c0-3.55-2.88-6.42-6.43-6.43-3.85,0-6.43,3.05-6.43,6.42m-51.57,51.58c0,3.55,2.87,6.42,6.42,6.42s6.43-2.87,6.43-6.42-2.88-6.43-6.43-6.43c-3.84,0-6.42,3.06-6.42,6.43m0,51.57c0,3.55,2.88,6.42,6.42,6.42s6.43-2.87,6.43-6.42-2.88-6.42-6.43-6.42c-3.84,0-6.42,3.05-6.42,6.42m48.83-51.56c0,5.07,4.11,9.17,9.18,9.17,5.07,0,9.18-4.11,9.18-9.17,0-5.08-4.11-9.18-9.19-9.18-5.49,0-9.17,4.35-9.17,9.18m0,51.56c0,5.08,4.11,9.19,9.18,9.19,5.07,0,9.18-4.11,9.18-9.19,0-5.07-4.11-9.18-9.19-9.18-5.49,0-9.17,4.36-9.17,9.18m0,51.58c0,5.07,4.11,9.18,9.18,9.18,5.07,0,9.18-4.11,9.18-9.18s-4.11-9.19-9.19-9.18c-5.49,0-9.17,4.35-9.17,9.18m51.57,0c0,5.07,4.12,9.19,9.19,9.19s9.17-4.11,9.17-9.18c0-5.08-4.11-9.18-9.17-9.18-5.5,0-9.19,4.35-9.19,9.17m58.13-230.24c0,12.81-10.39,23.2-23.21,23.2-6.69,0-12.68-2.84-16.93-7.36v.23c-2.25-2.07-5.26-3.34-8.57-3.33-7.04,0-12.75,5.7-12.75,12.75,0,7.04,5.7,12.75,12.75,12.75,3.31,0,6.32-1.26,8.58-3.33v.24c4.23-4.53,10.23-7.36,16.92-7.36,12.81,0,23.2,10.39,23.2,23.21s-10.39,23.2-23.21,23.2c-6.69,0-12.68-2.85-16.93-7.36v.24c-2.25-2.06-5.26-3.34-8.57-3.34-7.04,0-12.75,5.71-12.75,12.74,0,7.05,5.7,12.75,12.75,12.75,3.31,0,6.32-1.27,8.58-3.35v.25c4.23-4.52,10.23-7.35,16.92-7.35,12.81,0,23.2,10.38,23.2,23.19s-10.39,23.21-23.21,23.21c-6.69,0-12.68-2.84-16.91-7.36v.24c-2.26-2.06-5.28-3.35-8.58-3.35-7.04,0-12.75,5.71-12.75,12.76,0,7.03,5.7,12.74,12.75,12.74,3.31,0,6.32-1.27,8.58-3.34v.25c4.23-4.52,10.23-7.36,16.91-7.36,12.81,0,23.21,10.39,23.21,23.2,0,6.69-2.85,12.69-7.35,16.93h.23c-2.06,2.27-3.34,5.27-3.34,8.57,0,7.05,5.71,12.75,12.75,12.75s12.74-5.7,12.74-12.75c0-3.3-1.26-6.31-3.34-8.57h.25c-4.53-4.23-7.37-10.24-7.36-16.92,0-12.82,10.39-23.21,23.21-23.21s23.2,10.39,23.2,23.22c0,6.67-2.84,12.68-7.35,16.91h.24c-2.07,2.27-3.33,5.27-3.34,8.57,0,7.05,5.71,12.75,12.76,12.75s12.74-5.71,12.74-12.75c0-3.3-1.27-6.3-3.34-8.57h.24c-4.52-4.23-7.36-10.24-7.36-16.92,0-12.82,10.39-23.21,23.2-23.21s23.21,10.39,23.21,23.2c0,6.69-2.83,12.69-7.35,16.92h.23c-2.07,2.27-3.33,5.28-3.33,8.58,0,7.05,5.7,12.75,12.74,12.75s12.74-5.7,12.74-12.75c0-3.3-1.26-6.31-3.33-8.57h.24c-4.52-4.23-7.36-10.25-7.36-16.92,0-12.82,10.38-23.21,23.2-23.21L181.76-45.78Zm-48.94,165.93c7.04,0,12.75,5.71,12.75,12.75s-5.71,12.74-12.75,12.75c-7.05,0-12.75-5.71-12.75-12.76,0-6.69,5.11-12.74,12.75-12.74"/>
          </g>
        </g>
      </g>
    </g>
    <g id="g62">
      <g class="cls-9">
        <g id="g64">
          <g id="g70">
            <path id="path72" class="cls-4" d="m141.94,132.86c0-5.07-4.11-9.18-9.19-9.18-5.07,0-9.18,4.11-9.18,9.18s4.11,9.18,9.18,9.18c5.5,0,9.18-4.36,9.18-9.18"/>
          </g>
          <g id="g74">
            <path id="path76" class="cls-4" d="m83.82,311.53c0-12.82,10.38-23.21,23.2-23.21,6.68,0,12.68,2.85,16.92,7.37v-.23c2.26,2.07,5.27,3.34,8.57,3.33,7.04,0,12.75-5.7,12.75-12.75s-5.71-12.75-12.75-12.75c-3.3,0-6.32,1.27-8.57,3.34v-.24c-4.24,4.52-10.24,7.35-16.92,7.35-12.82,0-23.2-10.39-23.2-23.2,0-12.81,10.38-23.21,23.2-23.21,6.68,0,12.68,2.84,16.92,7.36v-.24c2.26,2.07,5.27,3.34,8.57,3.34,7.04,0,12.75-5.71,12.75-12.75s-5.71-12.76-12.75-12.76c-3.3,0-6.32,1.28-8.57,3.34v-.24c-4.23,4.53-10.23,7.36-16.92,7.36-12.82,0-23.2-10.39-23.2-23.2s10.38-23.19,23.2-23.19c6.68,0,12.68,2.83,16.92,7.35v-.25c2.26,2.08,5.27,3.35,8.57,3.35,7.04,0,12.75-5.72,12.75-12.76s-5.71-12.75-12.75-12.75c-3.3,0-6.32,1.27-8.57,3.35v-.25c-4.23,4.52-10.23,7.36-16.91,7.36-12.83,0-23.21-10.39-23.21-23.21,0-6.68,2.84-12.69,7.36-16.91h-.24c2.07-2.27,3.34-5.28,3.34-8.57,0-7.05-5.7-12.75-12.75-12.75s-12.75,5.7-12.75,12.75c0,3.29,1.26,6.3,3.34,8.57h-.25c4.52,4.23,7.36,10.23,7.35,16.91,0,12.82-10.38,23.21-23.19,23.21s-23.21-10.39-23.2-23.21c0-6.68,2.84-12.69,7.35-16.91h-.23c2.06-2.27,3.33-5.26,3.33-8.57,0-7.05-5.71-12.76-12.75-12.75-7.05,0-12.74,5.71-12.75,12.75,0,3.28,1.27,6.3,3.34,8.57h-.24c4.52,4.23,7.36,10.23,7.36,16.91,0,12.82-10.39,23.21-23.21,23.21s-23.2-10.39-23.2-23.21c0-6.68,2.84-12.69,7.36-16.91h-.24c2.07-2.27,3.34-5.28,3.34-8.57,0-7.05-5.7-12.76-12.75-12.75-7.04,0-12.75,5.7-12.75,12.75,0,3.29,1.26,6.3,3.33,8.57h-.23c4.51,4.23,7.35,10.24,7.36,16.91,0,12.82-10.39,23.21-23.21,23.21l129.79,129.79Z"/>
          </g>
          <g id="g78">
            <path id="path80" class="cls-4" d="m141.94,81.3c0-5.08-4.11-9.19-9.19-9.19s-9.18,4.11-9.18,9.18c.01,5.07,4.11,9.18,9.19,9.18,5.5.01,9.18-4.35,9.18-9.16"/>
          </g>
          <g id="g82">
            <path id="path84" class="cls-4" d="m193.52,81.29c0-5.06-4.1-9.18-9.19-9.18-5.07,0-9.18,4.11-9.17,9.18,0,5.08,4.1,9.19,9.18,9.18,5.49.01,9.18-4.35,9.18-9.18"/>
          </g>
          <g id="g86">
            <path id="path88" class="cls-4" d="m193.52,132.87c0-5.07-4.1-9.18-9.19-9.19-5.07,0-9.18,4.11-9.18,9.19,0,5.06,4.11,9.17,9.19,9.17,5.49,0,9.18-4.36,9.18-9.17"/>
          </g>
          <g id="g90">
            <path id="path92" class="cls-4" d="m188.92,184.43c0-2.53-2.05-4.59-4.59-4.59s-4.59,2.05-4.59,4.59,2.05,4.59,4.59,4.59c2.74,0,4.58-2.18,4.58-4.59"/>
          </g>
          <g id="g94">
            <path id="path96" class="cls-4" d="m241.97,132.87c0-3.55-2.87-6.42-6.43-6.42s-6.42,2.87-6.42,6.42c0,3.54,2.88,6.41,6.42,6.41,3.85,0,6.43-3.05,6.43-6.41"/>
          </g>
          <g id="g98">
            <path id="path100" class="cls-4" d="m242.33,184.43c0-3.54-2.87-6.42-6.42-6.42-3.55,0-6.42,2.88-6.42,6.42s2.87,6.43,6.42,6.43c3.84,0,6.42-3.04,6.42-6.43"/>
          </g>
          <g id="g102">
            <path id="path104" class="cls-4" d="m190.77,236c0-3.55-2.87-6.43-6.43-6.42-3.55,0-6.42,2.88-6.42,6.42s2.88,6.41,6.42,6.42c3.84,0,6.43-3.06,6.43-6.42"/>
          </g>
          <g id="g106">
            <path id="path108" class="cls-4" d="m85.78,81.3c0-2.54-2.05-4.59-4.59-4.59s-4.58,2.05-4.59,4.58c0,2.53,2.06,4.59,4.59,4.59,2.74,0,4.58-2.17,4.58-4.58"/>
          </g>
          <g id="g110">
            <path id="path112" class="cls-4" d="m139.21,30.46c0-3.55-2.88-6.43-6.44-6.43s-6.42,2.88-6.41,6.43c0,3.55,2.87,6.42,6.42,6.42,3.85,0,6.43-3.05,6.43-6.42"/>
          </g>
          <g id="g114">
            <path id="path116" class="cls-4" d="m87.63,29.73c0-3.56-2.88-6.43-6.43-6.43s-6.42,2.87-6.42,6.43,2.87,6.42,6.42,6.42c3.85,0,6.43-3.05,6.43-6.42"/>
          </g>
          <g id="g118">
            <path id="path120" class="cls-4" d="m36.05,81.3c0-3.55-2.87-6.43-6.43-6.43s-6.42,2.88-6.42,6.43c0,3.55,2.88,6.42,6.43,6.42,3.85,0,6.42-3.05,6.42-6.42"/>
          </g>
        </g>
      </g>
    </g>
    <g id="g122">
      <g class="cls-8">
        <g id="g124">
          <g id="g130">
            <path id="path132" class="cls-4" d="m1112.44,36c-7.96-2.37-16.82-3.33-23-3.61l.61-2.85c7.77.31,15.49,1.27,23.02,3.23l-.63,3.22Zm-2.29,10.33c-7.11-2.44-13.39-3.4-20.89-3.87l.73-3c8.82.72,14.25,1.51,21.01,3.74l-.85,3.13Zm3.67,12.37c-8.51-3.19-17.58-4.57-26.68-4.91l.65-3.02c10.81.37,18.13,1.89,26.82,4.6l-.79,3.33Z"/>
          </g>
          <g id="g134">
            <path id="path136" class="cls-4" d="m1156.54,34.42c-.76-1.65-1.55-3.13-2.82-5.09l2.1-1.07c1.26,1.72,2.23,3.4,2.95,4.88l-2.23,1.27Zm-4.5,1.78c-.39-.89-1.13-2.61-2.85-5.25l2.2-1.06c.41.58,1.85,2.68,2.92,5.15l-2.26,1.16Zm-11.4-7.51v9.1c7.11,2.13,13.94,5.6,17.37,7.52l-1.47,3.27c-4.47-2.75-10.23-5.67-15.9-7.59v17.99h-3.3v-30.28h3.3Z"/>
          </g>
          <g id="g138">
            <path id="path140" class="cls-4" d="m1207.27,33.53c-2.47,14.25-9.82,22.66-24.28,25.1l-1.31-2.82c13.84-2.33,18.96-9.2,21.6-19.41h-13.12c-2.82,3.54-5.54,6.39-8.38,8.15l-2-2.37c5.98-3.81,9.31-8.72,11.23-13.67l3.39.62c-.51,1.24-.89,2.23-2.22,4.4h15.07Z"/>
          </g>
          <path id="path142" class="cls-4" d="m1254.08,33.05h-23.32v-2.92h23.32v2.92Zm1.92,5.32c-1.1,9.38-4.02,18.27-22.36,20.09l-1.27-2.82c8.43-.82,18.11-2.51,19.96-14.39h-24l-.04-2.89h27.71Z"/>
          <g id="g144">
            <path id="path146" class="cls-5" d="m671.97,287.56h11.89l-5.92-16.9-5.97,16.9Zm-5.06,14.67h-6.32l13.41-36.12h8.04l13.35,36.12h-6.37l-3.69-9.81h-14.82l-3.59,9.81Z"/>
          </g>
          <g id="g148">
            <path id="path150" class="cls-5" d="m734.05,271.73c-2.53-.96-5.26-1.42-7.84-1.42-3.19,0-6.53,1.11-6.53,4.7,0,2.83,1.97,4.25,7.18,6.38,6.37,2.58,10.17,5.16,10.17,11.13,0,7.18-6.22,10.32-12.75,10.32-3.24,0-7.34-.61-10.83-2.02l1.21-4.91c3.29,1.47,6.83,2.13,9.51,2.13,4.2,0,6.98-1.67,6.98-5.11,0-3.14-2.73-4.75-7.89-6.83-5.97-2.43-9.51-5.41-9.51-10.57,0-7.08,6.43-10.02,12.24-10.02,3.34,0,6.57.45,9.21,1.42l-1.16,4.81Z"/>
          </g>
          <g id="g152">
            <path id="path154" class="cls-5" d="m756.11,279.31c-4.96,0-7.23,3.95-7.23,9.51s2.38,9.61,7.23,9.61,7.23-3.9,7.23-9.61-2.28-9.51-7.23-9.51m0,23.52c-7.94,0-13-5.31-13-14.01s5.06-13.91,13-13.91,13,5.21,13,13.91-5.06,14.01-13,14.01"/>
          </g>
          <g id="g156">
            <path id="path158" class="cls-5" d="m782.42,275.52v3.74h.1c1.47-2.78,4.65-4.35,8.25-4.35,6.02,0,9.71,3.84,9.71,9.71v17.6h-5.77v-15.43c0-4.65-1.21-7.49-5.61-7.49-3.19,0-6.53,2.28-6.53,8.14v14.77h-5.77v-26.71h5.61Z"/>
          </g>
          <g id="g160">
            <path id="path162" class="cls-5" d="m819.05,295.2h.1l7.13-19.68h6.07l-14.52,36.57h-6.07l4.3-10.42-10.47-26.15h6.27l7.18,19.68Z"/>
          </g>
          <g id="g164">
            <path id="path166" class="cls-5" d="m878.55,272.48c-2.17-1.27-5.31-2.17-8.4-2.17-8.14,0-13.2,5.67-13.2,14.06,0,7.49,4.81,13.66,12.9,13.66,2.07,0,3.9-.3,5.41-1.11v-10.07h-6.88v-4.86h12.8v18.21c-3.9,1.97-7.94,2.63-11.74,2.63-11.08,0-18.41-7.64-18.41-18.57s6.93-18.77,19.07-18.77c3.64,0,7.23.71,10.12,2.07l-1.67,4.91Z"/>
          </g>
          <g id="g168">
            <path id="path170" class="cls-5" d="m904.5,279.52c-.66-.15-1.37-.2-2.17-.2-3.54,0-6.43,2.17-6.43,8.65v14.27h-5.77v-26.71h5.61v3.54h.1c1.32-2.83,3.59-4.15,6.98-4.15.56,0,1.27.05,1.92.1l-.25,4.5Z"/>
          </g>
          <g id="g172">
            <path id="path174" class="cls-5" d="m922.11,279.31c-4.96,0-7.23,3.95-7.23,9.51s2.38,9.61,7.23,9.61,7.23-3.9,7.23-9.61-2.28-9.51-7.23-9.51m0,23.52c-7.94,0-13-5.31-13-14.01s5.06-13.91,13-13.91,13,5.21,13,13.91-5.06,14.01-13,14.01"/>
          </g>
          <g id="g176">
            <path id="path178" class="cls-5" d="m960.61,302.23v-3.74h-.1c-1.47,2.78-4.65,4.35-8.19,4.35-6.02,0-9.76-3.84-9.76-9.71v-17.6h5.77v15.43c0,4.6,1.26,7.49,5.67,7.49,3.19,0,6.47-2.28,6.47-8.14v-14.77h5.77v26.71h-5.61Z"/>
          </g>
          <g id="g180">
            <path id="path182" class="cls-5" d="m987.99,279.31c-4.7,0-7.34,4.15-7.34,9.56s2.63,9.56,7.34,9.56,6.78-4.25,6.78-9.56-2.23-9.56-6.78-9.56m-7.03,32.78h-5.77v-36.57h5.61v3.74h.1c1.97-2.99,5.21-4.35,8.35-4.35,7.18,0,11.28,6.17,11.28,13.96s-4.25,13.96-11.43,13.96c-3.14,0-6.02-1.06-8.04-3.9h-.1v13.15Z"/>
          </g>
          <g id="g184">
            <path id="path186" class="cls-5" d="m1046.62,271.73c-1.87-.91-4.25-1.42-6.68-1.42-8.45,0-12.49,6.32-12.49,14.01,0,7.29,4.2,13.71,12.45,13.71,2.88,0,5.11-.56,7.13-1.57l1.26,4.6c-2.58,1.27-5.77,1.77-8.95,1.77-10.98,0-17.81-7.69-17.81-18.57s6.53-18.77,18.06-18.77c3.14,0,6.17.51,8.4,1.57l-1.37,4.65Z"/>
          </g>
          <g id="g188">
            <path id="path190" class="cls-5" d="m1066.71,279.31c-4.96,0-7.23,3.95-7.23,9.51s2.38,9.61,7.23,9.61,7.23-3.9,7.23-9.61-2.28-9.51-7.23-9.51m0,23.52c-7.94,0-13-5.31-13-14.01s5.06-13.91,13-13.91,13,5.21,13,13.91-5.06,14.01-13,14.01"/>
          </g>
          <g id="g192">
            <path id="path194" class="cls-5" d="m1093.02,275.52v3.84h.1c1.32-2.78,4.35-4.45,7.84-4.45,3.95,0,6.63,1.52,7.89,4.35h.15c1.77-3.09,4.96-4.35,8.35-4.35,6.53,0,9.61,3.94,9.61,9.71v17.6h-5.77v-15.43c0-4.5-.86-7.49-5.21-7.49-2.88,0-5.82,1.87-5.82,6.63v16.29h-5.77v-15.73c0-4.5-.86-7.18-5.16-7.18-3.14,0-6.07,2.28-6.07,7.84v15.07h-5.77v-26.71h5.61Z"/>
          </g>
          <g id="g196">
            <path id="path198" class="cls-5" d="m1148.47,279.31c-4.7,0-7.34,4.15-7.34,9.56s2.63,9.56,7.34,9.56,6.78-4.25,6.78-9.56-2.23-9.56-6.78-9.56m-7.03,32.78h-5.77v-36.57h5.61v3.74h.1c1.97-2.99,5.21-4.35,8.35-4.35,7.18,0,11.28,6.17,11.28,13.96s-4.25,13.96-11.43,13.96c-3.14,0-6.02-1.06-8.04-3.9h-.1v13.15Z"/>
          </g>
          <g id="g200">
            <path id="path202" class="cls-5" d="m1182.98,289.28c-5.41,0-10.27.91-10.27,5.11,0,2.58,1.52,4.2,4.45,4.2,4.76,0,6.93-3.49,6.93-7.23v-2.07h-1.11Zm1.11-4.45c0-3.54-1.97-5.51-6.22-5.51-1.97,0-4.55.51-6.83,1.47l-1.17-4.3c2.28-.91,5.67-1.57,8.4-1.57,7.74,0,11.59,3.44,11.59,9.91v11.33c0,1.87.1,4.35.45,6.07h-5.11c-.3-.96-.5-2.43-.61-3.64h-.1c-1.37,2.48-4.2,4.25-8.09,4.25-4.55,0-9.26-2.23-9.26-8.19,0-7.74,7.79-9.21,16.95-9.21v-.61Z"/>
          </g>
          <g id="g204">
            <path id="path206" class="cls-5" d="m1204.38,275.52v3.74h.1c1.47-2.78,4.65-4.35,8.25-4.35,6.02,0,9.71,3.84,9.71,9.71v17.6h-5.77v-15.43c0-4.65-1.21-7.49-5.61-7.49-3.19,0-6.53,2.28-6.53,8.14v14.77h-5.77v-26.71h5.61Z"/>
          </g>
          <g id="g208">
            <path id="path210" class="cls-5" d="m1241.01,295.2h.1l7.13-19.68h6.07l-14.52,36.57h-6.07l4.3-10.42-10.47-26.15h6.27l7.19,19.68Z"/>
          </g>
        </g>
      </g>
    </g>
  </g>
</svg>