<?xml version="1.0" encoding="utf-8"?>
<!-- Generator: Adobe Illustrator 26.0.3, SVG Export Plug-In . SVG Version: 6.00 Build 0)  -->
<svg version="1.1" id="Capa_1" xmlns="http://www.w3.org/2000/svg" xmlns:xlink="http://www.w3.org/1999/xlink" x="0px" y="0px"
	 viewBox="0 0 841.9 595.3" style="enable-background:new 0 0 841.9 595.3;" xml:space="preserve">
<style type="text/css">
	.st0{fill:#C1271E;}
</style>
<g>
	<path class="st0" d="M712.5,237.4h-16.7c0-0.1-0.1-0.1-0.1-0.2c-1.8-3.1-4.3-5.5-7.4-7.3c-3.1-1.8-6.5-2.7-10.1-2.7
		c-4.9,0-9.4,1.7-13.2,5.2c-1.7,1.5-3,3.2-4,5h-16.7c-4.6,0-5.7,3.2-5.7,7c0,3.9,1.2,7,5.7,7h14.6c0.1,0.7,0.3,1.3,0.5,2
		c0.7,2.1,1.7,4.1,3.1,5.9c-0.4,1-0.6,2-0.6,3.1v46.3c0,4.6,3.7,8.3,8.3,8.3v5.2c0,4.6,3.7,6.6,8.3,6.6c4.6,0,8.3-2,8.3-6.6V317
		c0,0,0,0,0,0c4.6,0,8.3-3.7,8.3-8.3v-46.3c0-1.1-0.2-2.2-0.7-3.2c0.5-0.7,1-1.3,1.4-2.1c0.7-1.2,1.2-2.5,1.6-3.8
		c0.2-0.7,0.4-1.3,0.5-2h14.7c4.6,0,5.7-3.2,5.7-7C718.2,240.5,717,237.4,712.5,237.4z M685.4,254.8c-0.5,0.5-1,1-1.6,1.3
		c-1.6,1.1-3.4,1.6-5.5,1.6c-2.1,0-4-0.6-5.5-1.6c-0.5-0.4-1.1-0.8-1.5-1.3c-0.4-0.4-0.8-0.9-1.1-1.4c-1.1-1.7-1.7-3.8-1.7-6.3
		c0-3.1,1-5.6,2.8-7.6c0.1-0.1,0.2-0.1,0.2-0.2c1.8-1.8,4.1-2.8,6.8-2.8c2.8,0,5.1,0.9,7,2.8c0.1,0.1,0.1,0.1,0.2,0.2
		c1.9,1.9,2.8,4.5,2.8,7.6c0,2.4-0.6,4.5-1.7,6.3C686.1,253.9,685.8,254.4,685.4,254.8z"/>
	<path class="st0" d="M457.9,256.7h7.9c2.6,0,4.7,2.1,4.7,4.7v3.2c3-3.3,6.3-5.7,9.9-7.3c3.6-1.6,7.6-2.4,11.9-2.4
		c4.3,0,8.2,1.1,11.7,3.2c3.5,2.1,6.3,5.2,8.4,9.3c2.8-4.1,6.1-7.2,10.2-9.3c4-2.1,8.4-3.2,13.1-3.2c4.9,0,9.3,1.1,13,3.4
		s6.4,5.3,8.1,9c1.6,3.7,2.5,9.7,2.5,18v35.8c0,2.6-2.1,4.7-4.7,4.7h-8c-2.6,0-4.7-2.1-4.7-4.7v-30.4c0-7.8-1-13.2-2.9-15.9
		c-2-2.8-4.9-4.2-8.8-4.2c-3,0-5.6,0.8-8,2.5c-2.4,1.7-4.1,4-5.2,7c-1.1,3-1.7,7.8-1.7,14.4v26.5c0,2.6-2.1,4.7-4.7,4.7h-8
		c-2.6,0-4.7-2.1-4.7-4.7v-28.8c0-6.2-0.5-10.7-1.4-13.5c-0.9-2.8-2.3-4.8-4.1-6.2c-1.8-1.4-4-2-6.6-2c-2.9,0-5.5,0.9-7.9,2.6
		c-2.4,1.7-4.1,4.1-5.3,7.2s-1.8,8-1.8,14.6v26c0,2.6-2.1,4.7-4.7,4.7h-7.9c-2.6,0-4.7-2.1-4.7-4.7v-59.7
		C453.2,258.8,455.3,256.7,457.9,256.7z"/>
	<path class="st0" d="M609.3,254.9c6.5,0,12.7,1.6,18.4,4.9c5.7,3.3,10.2,7.7,13.5,13.3c3.2,5.6,4.8,11.6,4.8,18.1
		c0,6.5-1.6,12.6-4.9,18.3c-3.2,5.7-7.7,10.1-13.3,13.3c-5.6,3.2-11.8,4.8-18.5,4.8c-9.9,0-18.4-3.5-25.4-10.6
		c-7-7.1-10.5-15.6-10.5-25.7c0-10.8,4-19.8,11.9-27C592.3,258.1,600.3,254.9,609.3,254.9z M609.6,271.3c-5.4,0-9.9,1.9-13.5,5.6
		c-3.6,3.8-5.4,8.6-5.4,14.4c0,6,1.8,10.9,5.3,14.6c3.5,3.7,8,5.6,13.5,5.6c5.4,0,10-1.9,13.6-5.7c3.6-3.8,5.4-8.6,5.4-14.6
		c0-5.9-1.8-10.8-5.3-14.5C619.6,273.1,615.1,271.3,609.6,271.3z"/>
	<path class="st0" d="M746.6,254.9c6.5,0,12.7,1.6,18.4,4.9c5.7,3.3,10.2,7.7,13.5,13.3c3.2,5.6,4.8,11.6,4.8,18.1
		c0,6.5-1.6,12.6-4.9,18.3c-3.2,5.7-7.7,10.1-13.3,13.3c-5.6,3.2-11.8,4.8-18.5,4.8c-9.9,0-18.4-3.5-25.4-10.6
		c-7-7.1-10.5-15.6-10.5-25.7c0-10.8,4-19.8,11.9-27C729.6,258.1,737.6,254.9,746.6,254.9z M746.9,271.3c-5.4,0-9.9,1.9-13.5,5.6
		c-3.6,3.8-5.4,8.6-5.4,14.4c0,6,1.8,10.9,5.3,14.6c3.5,3.7,8,5.6,13.5,5.6c5.4,0,10-1.9,13.6-5.7c3.6-3.8,5.4-8.6,5.4-14.6
		c0-5.9-1.8-10.8-5.3-14.5C757,273.1,752.4,271.3,746.9,271.3z"/>
	<path class="st0" d="M67.6,256.7h7.8c2.6,0,4.7,2.1,4.7,4.7v3.2c2.9-3.3,6.2-5.7,9.8-7.3c3.6-1.6,7.5-2.4,11.7-2.4
		c4.3,0,8.1,1.1,11.6,3.2c3.4,2.1,6.2,5.2,8.3,9.3c2.7-4.1,6.1-7.2,10-9.3c4-2.1,8.3-3.2,13-3.2c4.9,0,9.1,1.1,12.8,3.4s6.4,5.3,8,9
		c1.6,3.7,2.4,9.7,2.4,18v35.8c0,2.6-2.1,4.7-4.7,4.7h-7.9c-2.6,0-4.7-2.1-4.7-4.7v-30.4c0-7.8-1-13.2-2.9-15.9
		c-1.9-2.8-4.8-4.2-8.7-4.2c-2.9,0-5.6,0.8-7.9,2.5c-2.3,1.7-4.1,4-5.2,7c-1.1,3-1.7,7.8-1.7,14.4v26.5c0,2.6-2.1,4.7-4.7,4.7h-7.9
		c-2.6,0-4.7-2.1-4.7-4.7v-28.8c0-6.2-0.5-10.7-1.4-13.5c-0.9-2.8-2.3-4.8-4.1-6.2c-1.8-1.4-4-2-6.6-2c-2.9,0-5.5,0.9-7.8,2.6
		c-2.3,1.7-4.1,4.1-5.2,7.2c-1.2,3.1-1.7,8-1.7,14.6v26c0,2.6-2.1,4.7-4.7,4.7h-7.8c-2.6,0-4.7-2.1-4.7-4.7v-59.7
		C62.9,258.8,65,256.7,67.6,256.7z"/>
	<path class="st0" d="M186.3,256.7h8.1c2.6,0,4.7,2.1,4.7,4.7V290c0,6.5,0.4,11,1.3,13.5c0.9,2.5,2.3,4.5,4.3,5.9
		c2,1.4,4.4,2.1,7.3,2.1c2.9,0,5.3-0.7,7.4-2.1c2-1.4,3.5-3.4,4.5-6.1c0.7-2,1.1-6.3,1.1-12.8v-29.2c0-2.6,2.1-4.7,4.7-4.7h7.9
		c2.6,0,4.7,2.1,4.7,4.7V286c0,12.1-1,20.4-2.9,24.8c-2.3,5.4-5.8,9.6-10.3,12.5c-4.5,2.9-10.3,4.4-17.3,4.4
		c-7.6,0-13.7-1.7-18.4-5.1c-4.7-3.4-8-8.1-9.9-14.2c-1.4-4.2-2-11.8-2-22.9v-24.1C181.6,258.8,183.7,256.7,186.3,256.7z"/>
	<path class="st0" d="M260.9,256.7h7.9c2.6,0,4.7,2.1,4.7,4.7v2.4c3.9-3.3,7.5-5.6,10.7-6.9c3.2-1.3,6.5-1.9,9.8-1.9
		c6.9,0,12.7,2.4,17.5,7.2c4,4.1,6,10.1,6,18.1v41c0,2.6-2.1,4.7-4.7,4.7h-7.7c-2.6,0-4.7-2.1-4.7-4.7v-25.6
		c0-8.3-0.4-13.7-1.1-16.5c-0.7-2.7-2-4.8-3.9-6.2c-1.8-1.4-4.1-2.1-6.8-2.1c-3.5,0-6.5,1.2-9,3.5c-2.5,2.4-4.3,5.6-5.2,9.8
		c-0.5,2.2-0.8,6.8-0.8,14v23c0,2.6-2.1,4.7-4.7,4.7h-7.9c-2.6,0-4.7-2.1-4.7-4.7v-59.7C256.2,258.8,258.3,256.7,260.9,256.7z"/>
	<path class="st0" d="M390,230h7.9c2.6,0,4.7,2.1,4.7,4.7v86.4c0,2.6-2.1,4.7-4.7,4.7H390c-2.6,0-4.7-2.1-4.7-4.7v-2.6
		c-3.4,3.2-6.8,5.5-10.2,7c-3.4,1.4-7.1,2.1-11.1,2.1c-8.9,0-16.7-3.5-23.2-10.4c-6.5-6.9-9.8-15.5-9.8-25.9
		c0-10.7,3.2-19.4,9.5-26.3c6.3-6.8,14-10.2,23-10.2c4.2,0,8,0.8,11.7,2.4c3.6,1.6,7,3.9,10.1,7.1v-29.6
		C385.3,232.1,387.4,230,390,230z M367,270.9c-5.4,0-9.8,1.9-13.4,5.7c-3.6,3.8-5.3,8.7-5.3,14.6c0,6,1.8,10.9,5.4,14.8
		c3.6,3.9,8.1,5.8,13.3,5.8c5.5,0,10-1.9,13.6-5.7c3.6-3.8,5.4-8.8,5.4-14.9c0-6-1.8-10.9-5.4-14.6
		C377.1,272.8,372.5,270.9,367,270.9z"/>
	<path class="st0" d="M427.9,228.2c3,0,5.7,1.1,7.8,3.3c2.2,2.2,3.3,4.9,3.3,8c0,3.1-1.1,5.7-3.2,7.9c-2.2,2.2-4.7,3.3-7.7,3.3
		c-3.1,0-5.7-1.1-7.9-3.3c-2.2-2.2-3.3-4.9-3.3-8.1c0-3.1,1.1-5.7,3.2-7.8C422.3,229.3,424.9,228.2,427.9,228.2z M424,256.7h7.9
		c2.6,0,4.7,2.1,4.7,4.7v59.7c0,2.6-2.1,4.7-4.7,4.7H424c-2.6,0-4.7-2.1-4.7-4.7v-59.7C419.2,258.8,421.4,256.7,424,256.7z"/>
</g>
</svg>
