<?xml version="1.0" encoding="UTF-8" standalone="no"?>
<!-- Created with Inkscape (http://www.inkscape.org/) -->

<svg
   version="1.1"
   id="svg2"
   width="636.06531"
   height="246.66667"
   viewBox="0 0 636.06531 246.66667"
   sodipodi:docname="Mainlogo-Black_RGB (2).ai"
   xmlns:inkscape="http://www.inkscape.org/namespaces/inkscape"
   xmlns:sodipodi="http://sodipodi.sourceforge.net/DTD/sodipodi-0.dtd"
   xmlns="http://www.w3.org/2000/svg"
   xmlns:svg="http://www.w3.org/2000/svg">
  <defs
     id="defs6">
    <clipPath
       clipPathUnits="userSpaceOnUse"
       id="clipPath16">
      <path
         d="M 0,185 H 477.049 V 0 H 0 Z"
         id="path14" />
    </clipPath>
  </defs>
  <sodipodi:namedview
     id="namedview4"
     pagecolor="#ffffff"
     bordercolor="#000000"
     borderopacity="0.25"
     inkscape:showpageshadow="2"
     inkscape:pageopacity="0.0"
     inkscape:pagecheckerboard="0"
     inkscape:deskcolor="#d1d1d1" />
  <g
     id="g8"
     inkscape:groupmode="layer"
     inkscape:label="Mainlogo-Black_RGB (2)"
     transform="matrix(1.3333333,0,0,-1.3333333,0,246.66667)">
    <g
       id="g10">
      <g
         id="g12"
         clip-path="url(#clipPath16)">
        <g
           id="g18"
           transform="translate(91.4005,68.6299)">
          <path
             d="m 0,0 c -6.328,0 -12.18,2.391 -16.477,6.733 -4.288,4.332 -6.649,10.214 -6.649,16.564 0,6.388 2.361,12.298 6.649,16.641 4.293,4.348 10.145,6.743 16.477,6.743 6.332,0 12.184,-2.395 16.477,-6.743 4.288,-4.343 6.649,-10.253 6.649,-16.641 0,-6.35 -2.361,-12.232 -6.649,-16.564 C 12.18,2.391 6.328,0 0,0 m 0,54.687 c -8.474,0 -16.371,-3.248 -22.234,-9.145 -5.848,-5.882 -9.068,-13.781 -9.068,-22.245 0,-8.43 3.22,-16.318 9.068,-22.211 5.873,-5.918 13.769,-9.178 22.234,-9.178 8.47,0 16.382,3.26 22.277,9.178 5.875,5.898 9.112,13.786 9.112,22.211 0,8.458 -3.237,16.358 -9.112,22.245 C 16.391,51.439 8.48,54.687 0,54.687"
             style="fill:#000000;fill-opacity:1;fill-rule:nonzero;stroke:none"
             id="path20" />
        </g>
        <g
           id="g22"
           transform="translate(151.9487,98.6038)">
          <path
             d="m 0,0 c 8.618,0 15.117,-6.572 15.117,-15.288 0,-8.716 -6.499,-15.288 -15.117,-15.288 -8.667,0 -15.202,6.572 -15.202,15.288 C -15.202,-6.572 -8.667,0 0,0 m 0.948,7.489 c -6.889,0 -12.464,-2.846 -16.15,-8.236 v 7.116 h -7.747 V -54.17 h 7.747 v 24.34 c 3.686,-5.389 9.261,-8.235 16.15,-8.235 5.856,0 11.352,2.338 15.474,6.584 4.153,4.278 6.441,10.029 6.441,16.193 0,6.164 -2.288,11.915 -6.441,16.193 C 12.3,5.15 6.804,7.489 0.948,7.489"
             style="fill:#000000;fill-opacity:1;fill-rule:nonzero;stroke:none"
             id="path24" />
        </g>
        <g
           id="g26"
           transform="translate(193.0691,117.0732)">
          <path
             d="M 0,0 -7.746,-2.315 V -12.1 h -8.526 v -7.488 h 8.526 V -42.8 c 0,-4.758 1.172,-8.096 3.583,-10.207 2.173,-1.903 5.327,-2.833 9.732,-2.833 1.727,0 3.647,0.142 5.775,0.427 l 0.11,0.014 v 6.961 l -0.979,-0.044 C 5.937,-48.692 2.939,-48.83 1.349,-47.312 0.428,-46.434 0,-45 0,-42.8 v 23.212 H 11.454 V -12.1 L 0,-12.1 Z"
             style="fill:#000000;fill-opacity:1;fill-rule:nonzero;stroke:none"
             id="path28" />
        </g>
        <path
           d="m 213.14,61.658 h 7.746 v 43.315 h -7.746 z"
           style="fill:#000000;fill-opacity:1;fill-rule:nonzero;stroke:none"
           id="path30" />
        <g
           id="g32"
           transform="translate(217.0562,122.8861)">
          <path
             d="m 0,0 c -2.872,0 -5.208,-2.336 -5.208,-5.208 0,-2.824 2.336,-5.122 5.208,-5.122 2.824,0 5.121,2.298 5.121,5.122 C 5.121,-2.336 2.824,0 0,0"
             style="fill:#000000;fill-opacity:1;fill-rule:nonzero;stroke:none"
             id="path34" />
        </g>
        <g
           id="g36"
           transform="translate(248.8332,70.1468)">
          <path
             d="m 0,0 -13.434,34.826 h -8.37 l 17.294,-43.235 0.032,-0.08 h 8.956 l 17.256,43.141 0.07,0.174 h -8.37 z"
             style="fill:#000000;fill-opacity:1;fill-rule:nonzero;stroke:none"
             id="path38" />
        </g>
        <g
           id="g40"
           transform="translate(294.1593,98.776)">
          <path
             d="M 0,0 C 5.704,0 12.286,-3.218 13.717,-12.233 H -14.749 C -13.472,-4.683 -7.834,0 0,0 m 0,7.317 c -13.148,0 -22.691,-9.58 -22.691,-22.777 0,-6.361 2.265,-12.135 6.378,-16.259 4.253,-4.265 10.072,-6.519 16.83,-6.519 8.201,0 14.967,3.478 19.053,9.791 l 0.073,0.113 -6.49,3.683 -0.107,0.061 -0.065,-0.105 c -2.376,-3.899 -6.972,-6.226 -12.292,-6.226 -8.081,0 -13.981,4.551 -15.434,11.888 h 36.039 l 0.017,0.108 c 0.172,1.122 0.26,2.257 0.26,3.378 0,6.063 -2.088,11.736 -5.878,15.975 C 11.72,4.87 6.147,7.317 0,7.317"
             style="fill:#000000;fill-opacity:1;fill-rule:nonzero;stroke:none"
             id="path42" />
        </g>
        <g
           id="g44"
           transform="translate(344.0482,105.7478)">
          <path
             d="m 0,0 c -6.238,0 -10.827,-2.617 -13.308,-7.577 v 6.802 h -7.746 V -44.09 h 7.746 v 22.95 c 0,4.226 1.201,7.524 3.571,9.8 2.344,2.252 5.799,3.405 9.732,3.25 L 0.127,-8.096 V 0 Z"
             style="fill:#000000;fill-opacity:1;fill-rule:nonzero;stroke:none"
             id="path46" />
        </g>
        <g
           id="g48"
           transform="translate(381.8857,97.8458)">
          <path
             d="m 0,0 11.568,-24.662 c 0.587,-1.25 -0.326,-2.686 -1.706,-2.686 H -11.69 c -1.337,0 -2.249,1.354 -1.747,2.593 l 9.983,24.662 C -2.837,1.432 -0.699,1.49 0,0 M 33.316,-33.5 6.079,24.396 c -0.311,0.661 -0.976,1.083 -1.706,1.083 h -5.049 c -0.768,0 -1.459,-0.466 -1.747,-1.178 l -23.434,-57.896 c -0.502,-1.24 0.41,-2.593 1.747,-2.593 h 55.72 c 1.381,0 2.294,1.438 1.706,2.688"
             style="fill:#ff3300;fill-opacity:1;fill-rule:nonzero;stroke:none"
             id="path50" />
        </g>
      </g>
    </g>
  </g>
</svg>
