<svg xmlns="http://www.w3.org/2000/svg" viewBox="0 0 2697.14 342.88"><defs><style>.cls-1{fill:#1a1d1d}.cls-2{fill:#ef7d00}.cls-3{fill:#cf022b}</style></defs><title>logo</title><g id="Capa_2"><g id="Layer_1"><path d="M1881.69,109.17h-40.58v-34h40.58V24.81H1921V75.2h64.7v34H1921v102.3c0,25.58,7.12,39,39.9,39,12.55,0,26.63-3.61,26.63-3.61v35.41c-13.66,1.85-23.61,3-39.11,3-62,0-66.76-44.64-66.76-69.11v-107ZM2404.17,75h40.27V285.73h-40.28Zm111.44,103.83c0,57.4,47.26,71.7,69.71,71.7,42.77,0,73-24.19,73-72.53s-34.33-70.52-73.39-70.52c-22.15,0-69.28,13.05-69.28,71.36Zm-41-.43c0-79.25,64-106.16,108.56-106.16,50.51,0,75.05,29,75.05,29L2660.34,75h36.8V286.13h-36.87l-2-27.88s-25.21,27.95-75.5,27.95c-50.5,0-108.11-29.32-108.11-107.82Z" class="cls-1"/><path d="M2424.3,0A26.35,26.35,0,1,1,2398,26.34,26.34,26.34,0,0,1,2424.3,0Z" class="cls-1"/><path d="M2374.76,111.21V75.54c-39.77-3.65-67.68,5.87-89.44,28.61l-2.11-29.08H2245V286h40.32V176.7c0-30.46,24.55-69.13,89.45-65.5Zm-379.33,68c0-65.92,48.68-108.26,113.78-108.26,64.65,0,109.07,47.24,109.07,104.62,0,0,0,9-.84,17.09l-180.12.79c1.72,32.54,39.29,57,78.08,57,41.78,0,66.54-25.81,66.54-25.81L2210.77,250c-29.25,28.07-61.16,36.61-95.34,36.61-71,0-120-41.47-120-105.77v-1.64ZM2174,161.08c0-28.65-28.85-52.53-64.28-52.53-37.91,0-69.28,23.4-71.8,52.53H2174Zm-419.14-.88c-40.54-7.25-80.42-12.3-80.42-31.22,0-12.32,12.22-23.15,47.72-23.15,26.37,0,56.81,6.09,65,24.78l37.39-15.69c-14.32-28.75-56.62-42.56-105.26-42.56-42.5,0-88.14,16.1-88.14,59.13,0,37.26,33.94,48.85,89.86,59.39,37.38,7.05,71.84,10.6,71.84,30.75,0,12.73-17,29-59.34,29-30.12,0-60.5-6.33-69.77-27.78l-36.28,15.23c14.85,33.11,54.31,50.27,100,50.27,91.24,0,108.88-43.43,108.88-68.06,0-41.06-40.84-52.81-81.57-60.09Z" class="cls-1"/><path d="M594.16,107.45c-39.09,0-73.39,22.16-73.39,70.53s30.17,72.52,73,72.52c22.39,0,69.69-9.1,69.69-71.71s-47.16-71.36-69.28-71.36Zm2.09,178.74c-50.46,0-75.47-32.08-75.47-32.08v88.77H481.89V75h36.82l2.09,26.19s24.5-29,75-29c44.5,0,108.57,22.68,108.57,106.16s-57.68,107.8-108.14,107.8ZM896.84,178.81c0,57.4,47.3,71.7,69.72,71.7,42.79,0,72.94-24.19,72.94-72.53s-34.27-70.52-73.36-70.52c-22.14,0-69.29,13.05-69.29,71.36Zm-40.92-.43c0-79.25,64-106.16,108.57-106.16,50.5,0,75,29,75,29L1041.58,75h36.82V286.13h-36.73l-2.17-27.88S1014.29,286.2,964,286.2c-50.48,0-108.11-29.32-108.11-107.82Zm2.93-67.17V75.54c-39.77-3.65-67.71,5.87-89.47,28.61l-2.06-29.08H729.1V286h40.28V176.7c0-30.46,24.59-69.13,89.46-65.5Zm-731.52,49C86.77,153,46.92,147.9,46.92,129c0-12.32,12.17-23.15,47.68-23.15,26.38,0,56.82,6.09,65.08,24.78l37.39-15.69C182.75,86.17,140.43,72.36,91.82,72.36c-42.5,0-88.16,16.1-88.16,59.13,0,37.26,33.94,48.85,89.89,59.39,37.34,7.05,71.84,10.6,71.84,30.75,0,12.73-17,29-59.33,29-30.15,0-60.54-6.33-69.82-27.78L0,238.1c14.83,33.11,54.3,50.27,100,50.27,91.26,0,108.9-43.43,108.9-68.06,0-41.06-40.83-52.81-81.57-60.09Zm215.35-88C288.79,72.23,225,99.15,225,178.39c0,78.49,57.43,109,117.69,109s117.67-30.5,117.67-109c0-79.25-63.75-106.16-117.65-106.16Zm0,178.27c-33.12,0-76.72-14.32-76.72-71.71,0-58.3,48.36-70.16,76.72-70.16s76.73,11.86,76.73,70.16c0,57.42-43.63,71.71-76.74,71.71Z" class="cls-1"/><path d="M1466.63,279.25c-2.23,1.47-4.92,3.16-7.36,4.56l-.77.45.75.08c48.14,13.23,95.77,12.74,105-17.32,11.83-38.78-64.75-80.38-100.9-100.22-7.74-4.24-11.11-1.6-6.17,4.1,22.83,26.29,55.33,78,9.47,108.38Z" class="cls-2"/><path d="M1458.55,284.21s-60.61,38.11-167.61,38.11c-41.45,0-76.35-6.34-91.09-20.85-15.56-15.28-24-41.07-24-64.71,0-20.31,8.42-37.36,26-37.36,45.09,0,185.62,71.47,256.69,84.83Z" class="cls-3"/><path d="M1256.52,63.29c2.22-1.47,4.93-3.16,7.36-4.56l.75-.45-.75-.09c-48.14-13.21-95.82-12.71-105,17.33-11.83,38.78,64.77,80.38,100.9,100.22,7.78,4.22,11.12,1.58,6.2-4.09-22.83-26.31-55.35-78-9.47-108.39Z" class="cls-2"/><path d="M1264.58,58.32s60.65-38.11,167.64-38.11c41.44,0,76.32,6.35,91.09,20.86,15.55,15.31,24,41,24,64.73,0,20.29-8.42,37.35-26,37.35-45.09,0-185.6-71.47-256.7-84.83Z" class="cls-3"/></g></g></svg>