<?xml version="1.0" encoding="UTF-8"?>
<svg id="Layer_1" data-name="Layer 1" xmlns="http://www.w3.org/2000/svg" viewBox="0 0 359.46 211.02">
  <defs>
    <style>
      .cls-1 {
        fill: #f26922;
      }

      .cls-2, .cls-3 {
        fill: #4e2817;
      }

      .cls-3 {
        fill-rule: evenodd;
      }
    </style>
  </defs>
  <path class="cls-2" d="m19.61,207.13c-6,0-11.3-.7-16.1-5.4l6.2-6.2c3.1,3.1,7.2,3.6,10.1,3.6,3.3,0,6.7-1.1,6.7-3.9,0-1.9-1-3.2-4-3.5l-6-.6c-6.8-.7-11-3.6-11-10.6,0-7.8,6.9-12.1,14.6-12.1,5.9,0,10.8,1,14.5,4.4l-5.8,5.9c-2.2-2-5.5-2.5-8.8-2.5-3.8,0-5.4,1.7-5.4,3.6,0,1.4.6,3,3.9,3.3l6,.6c7.5.7,11.3,4.7,11.3,11.1-.2,8.3-7.3,12.3-16.2,12.3Z"/>
  <path class="cls-2" d="m52.11,206.73c-7.7,0-11-5.4-11-10.8v-18.7h-4v-7.3h4v-11.2h9.4v11.2h6.7v7.2h-6.7v18.2c0,2.2,1,3.4,3.3,3.4h3.4v8h-5.1Z"/>
  <path class="cls-2" d="m61.41,162.43v-7.7h9.7v7.7h-9.7Zm.2,44.3v-37.8h9.4v37.8h-9.4Z"/>
  <path class="cls-2" d="m92.41,207.13c-7.6,0-16.9-4.1-16.9-19.4s9.4-19.3,16.9-19.3c5.2,0,9.2,1.6,12.5,5.1l-6.4,6.4c-2-2.1-3.6-3-6.1-3-2.3,0-4,.8-5.4,2.5-1.5,1.8-2.1,4.4-2.1,8.4s.7,6.6,2.1,8.4c1.4,1.7,3.1,2.5,5.4,2.5,2.5,0,4.1-.9,6.1-3l6.4,6.3c-3.4,3.5-7.3,5.1-12.5,5.1Z"/>
  <path class="cls-2" d="m130.91,206.73l-9.3-15.8-4,4.5v11.3h-9.4v-51.7h9.4v29.3l12.6-15.5h11.4l-13.5,15.3,14.5,22.6h-11.7Z"/>
  <path class="cls-2" d="m150.51,190.73c0,4.9,3,8.4,8.3,8.4,4.1,0,6.2-1.2,8.6-3.6l5.7,5.6c-3.8,3.8-7.6,6-14.4,6-8.9,0-17.5-4.1-17.5-19.4,0-12.3,6.7-19.3,16.5-19.3,10.5,0,16.5,7.7,16.5,18.1v4.2h-23.7Zm13.5-10.5c-1-2.3-3.1-3.9-6.3-3.9s-5.3,1.7-6.3,3.9c-.6,1.4-.8,2.4-.9,4.1h14.4c-.1-1.7-.3-2.7-.9-4.1Z"/>
  <path class="cls-2" d="m199.21,179.23c-1.5-1.5-2.7-2.3-5-2.3-2.9,0-6.1,2.2-6.1,7v22.8h-9.4v-37.8h9.2v3.6c1.8-2.2,5.5-4.1,9.5-4.1,3.7,0,6.3.9,8.9,3.6l-7.1,7.2Z"/>
  <path class="cls-1" d="m248.81,168.43c-4.7,0-8.1,1.5-11.3,4.8-2.4-3.3-5.8-4.8-10-4.8-3.5,0-7,1.4-9.4,3.9v-3.4h-9.2v37.8h9.4v-22.9c0-5.2,3.3-6.9,6.3-6.9s6.2,1.7,6.2,6.9v22.9h9.4v-23.1c0-4.9,3.4-6.7,6.3-6.7s6.2,1.7,6.2,6.9v22.9h9.4v-24.2c0-4.1-1.1-7.7-4.1-10.8-2-2-5.4-3.3-9.2-3.3Z"/>
  <path class="cls-1" d="m289.81,191.73c0,5.2-3.3,6.9-6.3,6.9s-6.2-1.7-6.2-6.9v-22.8h-9.4v24.2c0,4.1.8,7.7,3.8,10.7,2.1,2.1,5.2,3.3,8.9,3.3,3.5,0,7-1.3,9.4-3.9v3.5h9.2v-37.8h-9.4v22.8Z"/>
  <path class="cls-1" d="m314.71,195.33v-40.3h-9.4v40.9c0,5.4,3.3,10.8,11,10.8h5.4v-8h-3.6c-2.4,0-3.4-1.1-3.4-3.4Z"/>
  <path class="cls-1" d="m356.41,186.53c0-10.4-6-18.1-16.5-18.1-9.8,0-16.5,7-16.5,19.3,0,15.3,8.6,19.4,17.5,19.4,6.8,0,10.5-2.1,14.4-6l-5.7-5.6c-2.4,2.4-4.4,3.6-8.6,3.6-5.3,0-8.3-3.6-8.3-8.4h23.7v-4.2Zm-23.7-2.2c.1-1.7.3-2.7.9-4.1,1-2.3,3.1-3.9,6.3-3.9s5.3,1.7,6.3,3.9c.6,1.4.8,2.4.9,4.1h-14.4Z"/>
  <path class="cls-3" d="m197.41,143.93c-1.3.6-3.1.5-5,.6-1.6,0-3.9.1-4.8-.8-.5-.5-.7-1.4-.7-2,0-.7.1-1.5.3-2.3.2-.9.4-2.1,0-2.5-.4-.6-1.9-.3-2.6-.8-.8-.5-1-1.5-1.3-2.8-.1-.4-.3-.7-.4-1-.2-1.9.4-4.4.8-6.3.5-2,1-3.9,1.4-5.8.5-2.8.7-6,.5-9-.1-1.5-.3-2.7-.1-4,.2-1.2.7-2.2,1-3.4.1-.4,0-.8.1-1.2,0-.4.3-.7.3-1,0-.8-.2-1.8-.3-2.8-.2-2.7,0-6.4.2-8.7.1-.8.4-1.7-.1-2.1-2.8,0-5.3.5-7.9.8-6.9.9-15.6,1-22.3-.3-.6-.1-1.3-.1-1.9-.3-4.7-1.1-9.1-3.1-12.5-5.8-.5-.4-1.1-.9-1.7-1.3-.6-.4-1.2-1.1-1.7-1.3-2.7-1.3-6.3.2-7.4,1.9-.4.7-.8,1.6-1.2,2.4-.4.8-.8,1.6-1.1,2.4-1.8,4.1-3.8,8-5.6,12.1-1,2.4-2.2,5-3,7.6-1.6,5.6-.1,13.2,1.2,18.5.1.5.4,1,.6,1.5.4,1.3,1.3,3,2.3,3.9.5.5,1.4.7,2,1.2.7.6,1.3,1.9,1.9,3,.2.4.6,1,.9,1.5.7,1.2.9,2.3-.4,3-1,.5-2.5.7-3.9.8-.6.2-.4,1-.8,1.4-.2.2-1.2.6-1.7.8-1.8.5-5,.5-6.4,0-.7-.3-1.5-.8-1.7-1.4-.4-1.1.5-2.6-.3-3.4-.4-.4-1.1-.3-1.8-.6-1-.4-1.9-1.3-2.3-2.5-1.1-2.8-.4-7.1-.5-10.5,0-1-.2-2.1-.2-3.2-.1-2-.5-4-.8-6-.1-1-.4-1.8-.6-2.7-.3-1.4-.6-3-1-4.4-.5-1.6-.5-3.1.1-4.5.1-.4.5-.7.8-1.2.3-.8.4-1.7.4-2.4-.2-.4-1.2-.1-1.4-.5-.6-4.4-1.2-8.7-1.6-13.3-.1-1.5-.1-3.1-.3-4.7-.3-3.1,0-6.3-.3-9.3-.1-1.5-.5-2.9-.7-4.3-.5-4-1.6-9.1-.8-13.3.5-2.7,1.5-4.8,3-6.8,1.1-1.4,2.2-2.7,3.5-3.9,1.2-1.2,2.6-2.3,4.1-3.4.9-.7,1.9-1.5,3-1.9,2.3-1.1,5.3-2,8.5-2.1s6.8-.2,9.9.4c3,.5,6,1.1,9,1.7,2.9.6,5.7,1.4,8.5,2.1.4.1.7.3,1,.4.9.2,1.9.3,2.8.6,2.6.7,5.9,1,9,1,3.4,0,6.4-.1,9.2-.8.4-.1.7-.3,1.2-.5.4-.2,1-.1,1.4-.3.3-.1.6-.4.9-.5,1.6-.8,3-1.5,4.4-2.5,1.1-.8,2.1-1.5,3.6-2.1.7-.3,1.3-.6,2-.8,1.4-.5,3-.9,4.1-1.6,1.7-1.1,3-2.7,4.4-3.9,1.5-1.3,3-2.5,4.6-3.8,3.2-2.5,6.4-4.8,9.4-7.2,1.5-1.2,3.2-2.4,5-3.4,3.5-2,7-4.3,12-4.7,2-.1,4-.2,6,.1.5.1,1.3.4,1.8.3.5-.1.9-.9,1.3-1.6.7-1.3,1.3-2.2,1.9-3.8.4-1,.2-2,1.2-1.9,1,0,.9,2.7.9,3.7.1,1.2-.1,2.8.1,3.6.1.6.9,1.4,1.7,1.4.6,0,.9-.4,1.4-.8.5-.3,1-.5,1.4-.8.8-.6,1.8-1.6,2.6-2.5.7-.7,1.8-2.3,2.9-2.2,2,.2,0,3.1-.4,4.1-1,2.3-2,3.9-3.2,6.1-.5.9-1.6,2.1-1.6,3,0,.6.5,1.1.8,1.7.1.3.2.7.3,1,.7,1.6,1.2,3.8,1.7,5.6.5,1.5.8,3.2,1.4,4.7.5,1.5,1.3,2.9,1.9,4.3.2.4.2.9.3,1.2,1.3,3.2,2.5,6.9,4,10,.6,1.3,1.5,2.8,1.5,4.7,0,2-1.1,3-2,4.5-.5.8-1.2,2-1.9,2.3-.5.2-1.2,0-1.7.1-.8.1-1.3.6-2,.7-1.9.2-3.6-1.2-4.1-2.6-.2-.5-.1-1.1-.2-1.7-.4-2.2-1.5-3.3-3.1-4.8-1-.9-1.8-1.6-3-2.3-1.8-.9-3.7-1.5-5.6-2.5-.7-.4-1.5-.7-2.1-.6-1,.2-2,1.8-2.8,2.8-4.9,6.4-9.2,13-13.9,19.3-3.1,4.2-6.5,8.4-9,13.2-.6,1.2-1,2.6-1.5,4s-.7,2.9-1.2,4.3c-1.8,5.2-2.4,11.6-4.1,17.1-.2.6-.2,1.2-.4,1.9-.8,2.8-1.5,6-2.4,9-.7,2.2-.9,5.2-1,8.1-.1,2.7-.2,6.6.8,8.3.5.9,2.4,1.3,3.1,2.2.5.7.8,2,1.3,2.8.3.6,1.3,1.9,1.2,2.8-.1.7-.7,1.2-1.2,1.4-.6.3-1.4.1-2,.4-.9.5-.6,1.3-1.3,1.7Z"/>
</svg>