<?xml version="1.0" encoding="UTF-8"?>
<svg xmlns="http://www.w3.org/2000/svg" xmlns:xlink="http://www.w3.org/1999/xlink" width="800px" height="272px" viewBox="0 0 800 272" version="1.1"><title>atoms/logos/strands/color+crif+clearspace</title><g id="atoms/logos/strands/color+crif+clearspace" stroke="none" stroke-width="1" fill="none" fill-rule="evenodd"><g id="Strands+Crif_L_full-color-horizontal" transform="translate(72.130591, 72.087060)"><g id="Group" transform="translate(331.917717, 90.194559)"><path d="M24.3769078,11.4919708 L28.6428666,38.3065693 L22.3745189,38.3065693 L21.5909754,31.9076311 L9.96841407,31.9076311 L5.92010617,38.3065693 L0,38.3065693 L18.4568016,11.4919708 L24.3769078,11.4919708 Z M13.0590577,27.1193099 L21.0250829,27.1193099 L19.7191772,16.8026543 L13.0590577,27.1193099 Z" id="Shape" fill-opacity="0.6" fill="#023642"/><g transform="translate(54.293033, 11.448441)" fill="#023642" id="Combined-Shape"><path d="M64.3702721,0.0435301924 L57.1877903,26.8581287 L51.3112143,26.8581287 L58.4936961,0.0435301924 L64.3702721,0.0435301924 Z M26.3684141,0.17412077 L25.1495687,4.74479098 L15.8776377,4.74479098 C14.4411413,4.65773059 13.2658261,4.87538155 12.2646317,5.35421367 C11.2634373,5.78951559 10.4798938,6.44246848 9.82694094,7.31307233 C9.17398806,8.22720637 8.60809555,9.1848706 8.12926344,10.186065 C7.65043132,11.1872595 7.2151294,12.3190445 6.86688786,13.4508295 C6.82335766,13.5378898 6.82335766,13.6684804 6.77982747,13.7555408 C6.73629728,13.8426012 6.73629728,13.9731918 6.69276709,14.0602522 C6.64923689,14.1908427 6.64923689,14.2779031 6.6057067,14.4084937 C6.56217651,14.4955541 6.56217651,14.6261447 6.51864632,14.713205 C6.47511612,14.930856 6.43158593,15.1049768 6.38805574,15.3226277 C6.34452555,15.5402787 6.30099536,15.7579297 6.25746516,15.9320504 C6.17040478,16.3673524 6.08334439,16.8026543 6.0398142,17.2379562 C5.99628401,17.6732581 5.99628401,18.0650299 6.0398142,18.5003318 C6.0398142,18.8921035 6.08334439,19.2838752 6.21393497,19.675647 C6.34452555,20.0674187 6.47511612,20.4156603 6.69276709,20.7203716 C6.91041805,21.0250829 7.1715992,21.3297943 7.43278036,21.5474453 C7.69396151,21.7650962 8.04220305,21.939217 8.39044459,21.9827472 C8.78221632,22.0698076 9.17398806,22.1133378 9.56575979,22.1568679 C9.95753152,22.2003981 10.3928334,22.2003981 10.7846052,22.2003981 L11.1328467,22.2003981 L11.1328467,22.2003981 L20.4047777,22.1568679 L19.1859323,26.8145985 L9.65282017,26.8145985 C8.86927671,26.8145985 8.12926344,26.7710683 7.43278036,26.7275382 C6.69276709,26.684008 5.99628401,26.5534174 5.34333112,26.4228268 C4.69037823,26.2922362 4.03742535,26.0745853 3.51506304,25.7698739 C2.94917054,25.4651626 2.42680823,25.0298607 1.94797611,24.5510285 C1.38208361,23.9416058 0.903251493,23.288653 0.598540146,22.5486397 C0.250298607,21.8086264 0.0761778368,20.9815528 0.0326476443,20.1109489 C-0.0108825481,19.2403451 -0.0108825481,18.3697412 0.0326476443,17.4556072 C0.0761778368,16.5414731 0.250298607,15.6273391 0.511479761,14.713205 C0.555009954,14.6261447 0.555009954,14.4955541 0.555009954,14.4084937 C0.555009954,14.3214333 0.598540146,14.1908427 0.598540146,14.1037823 C0.642070338,14.016722 0.642070338,13.9296616 0.685600531,13.8426012 C0.729130723,13.7555408 0.729130723,13.6249502 0.772660916,13.5378898 C0.816191108,13.4508295 0.816191108,13.3637691 0.859721301,13.2767087 C0.903251493,13.1896483 0.946781685,13.1025879 0.946781685,13.0155275 C0.990311878,12.9284672 0.990311878,12.8414068 1.03384207,12.7543464 C1.07737226,12.667286 1.12090246,12.5802256 1.12090246,12.4931652 C1.81738553,10.3601858 2.64445919,8.53191772 3.64565362,7.00836098 C4.64684804,5.44127405 5.77863305,4.17889847 7.04100863,3.17770405 C8.30338421,2.17650962 9.78341075,1.43649635 11.4375581,0.957664234 C13.0917054,0.478832117 14.9635036,0.217650962 17.0094227,0.217650962 L26.3684141,0.17412077 Z M44.3463835,0 L44.3463835,0.0435301924 C44.4769741,0.0870603849 44.6075647,0.0870603849 44.7381553,0.0870603849 L45.4781685,0.0870603849 L45.4781685,0.0870603849 C45.5652289,0.130590577 45.6087591,0.130590577 45.6958195,0.130590577 L45.9134705,0.130590577 L45.9134705,0.130590577 C46.3923026,0.17412077 46.9146649,0.217650962 47.393497,0.304711347 C47.8723291,0.391771732 48.3511612,0.478832117 48.7864632,0.609422694 C49.2217651,0.740013271 49.657067,0.957664234 50.0053086,1.21884539 C50.3970803,1.48002654 50.7017916,1.78473789 50.9629728,2.13297943 C51.2241539,2.43769078 51.3982747,2.82946251 51.5723955,3.17770405 C51.7029861,3.56947578 51.8335766,3.96124751 51.8771068,4.39654944 C51.920637,4.83185136 51.9641672,5.31068348 51.920637,5.7459854 C51.920637,6.18128733 51.8335766,6.66011944 51.7465163,7.09542137 C51.7029861,7.18248175 51.7029861,7.26954214 51.7029861,7.35660252 C51.7029861,7.44366291 51.6594559,7.53072329 51.6159257,7.61778368 L51.6159257,8.14014599 L51.6159257,8.14014599 C51.3547445,9.05428003 51.0500332,9.92488388 50.6147313,10.7519575 C50.1794293,11.5790312 49.657067,12.3190445 49.0041141,12.9719973 C48.3946914,13.6249502 47.6546782,14.1908427 46.8711347,14.6696749 C46.0875912,15.1049768 45.1734572,15.4532183 44.1722628,15.6708693 L47.8723291,26.8145985 L41.516921,26.8145985 L38.4262774,16.280292 L31.7661579,16.280292 L28.9802256,26.8145985 L23.2777704,26.8145985 L30.4602522,0 L44.3463835,0 Z M91.489582,0.0435301924 L90.2272064,4.70126078 L81.1729263,4.70126078 C79.9976111,4.74479098 78.9093563,4.87538155 77.9952223,5.09303251 C77.0810883,5.35421367 76.2540146,5.70245521 75.5575315,6.22481752 C74.8610484,6.70364964 74.2516257,7.35660252 73.7292634,8.18367618 C73.2069011,9.01074983 72.7715992,10.0554745 72.3798275,11.2307896 L88.5295289,11.1872595 L87.2671533,15.8014599 L71.1609821,15.8014599 L68.2444592,26.7710683 L62.6290644,26.7710683 L65.8938288,14.4520239 C66.5467817,11.9272727 67.3738553,9.70723291 68.2444592,7.87896483 C69.115063,6.05069675 70.1597877,4.57067021 71.2915727,3.4388852 C72.4233577,2.3071002 73.9469144,1.48002654 75.8622429,0.914134041 C77.8211015,0.348241539 80.1717319,0.0870603849 82.914134,0.0870603849 L91.489582,0.0435301924 Z M41.8216324,4.83185136 L34.8132714,4.83185136 L32.9850033,11.5790312 L39.9063039,11.5790312 C39.9498341,11.6225614 39.9498341,11.6225614 39.9933643,11.6225614 L40.2545455,11.6225614 L40.2545455,11.6225614 C40.8639681,11.6225614 41.4298607,11.5790312 41.9957532,11.4919708 C42.5616457,11.4049104 43.1275382,11.2743198 43.6499005,11.1001991 C44.1722628,10.8825481 44.6075647,10.5778368 44.9993364,10.0990046 C45.3911082,9.62017253 45.6522893,9.01074983 45.8699403,8.22720637 C46.0875912,7.44366291 46.0875912,6.79071002 46.0005309,6.3118779 C45.8699403,5.83304579 45.5652289,5.52833444 45.0863968,5.35421367 C44.6075647,5.22362309 44.0852024,5.09303251 43.5628401,5.00597213 C42.9969476,4.91891175 42.4310551,4.87538155 41.7781022,4.87538155 L41.8216324,4.83185136 Z"/><path d="M192.436098,7.13895156 L192.436098,7.18248175 C193.872595,7.22601194 195.13497,7.44366291 196.136165,7.83543464 C197.180889,8.27073656 197.964433,8.88015926 198.573855,9.70723291 C199.183278,10.5343066 199.53152,11.535501 199.70564,12.667286 C199.836231,13.799071 199.749171,15.1049768 199.444459,16.5414731 C199.313869,17.194426 199.139748,17.8473789 198.922097,18.5003318 C198.704446,19.1532847 198.399735,19.7627074 198.095023,20.4156603 C197.746782,21.0250829 197.35501,21.6345056 196.919708,22.2439283 C196.484406,22.8098208 196.005574,23.3757133 195.439681,23.8545455 C194.786729,24.5074983 194.090246,25.0298607 193.393762,25.4216324 C192.697279,25.8134041 192.000796,26.1181155 191.260783,26.2922362 C190.5643,26.466357 189.824287,26.5969476 189.084273,26.684008 C188.34426,26.7710683 187.604247,26.8145985 186.864234,26.8145985 L182.380624,26.8145985 L180.465295,33.9100199 L175.285202,33.9100199 L182.467684,7.13895156 L192.436098,7.13895156 Z M256.1643,7.13895156 L253.030126,18.8485733 C252.812475,19.5885866 252.725415,20.1544791 252.681885,20.6768414 C252.638354,21.1556735 252.725415,21.5474453 252.899536,21.7650962 C253.030126,22.0262774 253.334837,22.2003981 253.770139,22.3309887 C254.205441,22.4615793 254.771334,22.5051095 255.467817,22.5051095 L255.511347,22.4615793 L259.777306,22.4615793 L259.777306,22.5051095 L263.869144,7.18248175 L269.049237,7.18248175 L263.912674,26.3357664 C263.607963,27.5546118 263.172661,28.6428666 262.606768,29.6005309 C262.040876,30.5581951 261.431453,31.3417386 260.64791,31.9511612 C259.864366,32.6041141 258.993762,33.0829463 257.949038,33.3876576 C256.947843,33.6923689 255.772528,33.8664897 254.466622,33.8664897 L244.280557,33.9100199 L245.325282,29.9052422 L254.597213,29.9052422 C255.163106,29.861712 255.641938,29.7746516 256.033709,29.644061 C256.469011,29.5134705 256.817253,29.3393497 257.165494,29.0781685 C257.513736,28.8169874 257.774917,28.512276 257.992568,28.1205043 C258.210219,27.7287326 258.38434,27.2934307 258.51493,26.8145985 L253.94426,26.8145985 C252.594824,26.8145985 251.463039,26.684008 250.505375,26.4228268 C249.547711,26.1616457 248.807697,25.7698739 248.285335,25.2039814 C247.719443,24.6816191 247.414731,23.9416058 247.327671,22.9404114 C247.24061,21.939217 247.371201,20.7639018 247.762973,19.2838752 L251.027737,7.13895156 L256.1643,7.13895156 Z M136.108029,6.83424021 C136.804512,6.83424021 137.457465,6.8777704 138.110418,7.00836098 C138.763371,7.13895156 139.372794,7.31307233 139.982216,7.53072329 C140.591639,7.74837425 141.157532,8.0530856 141.636364,8.40132714 C142.115196,8.74956868 142.506967,9.14134041 142.855209,9.57664234 C143.203451,10.0554745 143.464632,10.5778368 143.682283,11.1437293 C143.899934,11.7096218 144.030524,12.3190445 144.117585,12.9719973 C144.161115,13.6249502 144.161115,14.3214333 144.117585,14.9743862 C144.074054,15.6273391 143.943464,16.3238222 143.769343,17.0203052 C143.595222,17.7167883 143.334041,18.4132714 143.02933,19.1097545 C142.724618,19.8062376 142.332847,20.4591904 141.897545,21.1121433 C141.505773,21.7650962 141.026941,22.4180491 140.548109,22.9404114 C140.069277,23.4627737 139.459854,24.0286662 138.850431,24.5074983 L138.850431,24.4639681 C138.284539,24.9428003 137.631586,25.3781022 136.978633,25.7263437 C136.32568,26.0745853 135.629197,26.3792966 134.889184,26.5969476 C134.410352,26.7275382 133.93152,26.8581287 133.452687,26.9451891 C132.973855,27.0322495 132.495023,27.1193099 132.016191,27.1628401 C131.75501,27.2063703 131.537359,27.2063703 131.319708,27.2063703 L130.623225,27.2063703 L130.623225,27.2063703 C129.926742,27.2063703 129.230259,27.1628401 128.577306,27.0322495 C127.924353,26.9016589 127.2714,26.7710683 126.661977,26.5534174 C126.052555,26.3357664 125.530192,26.0310551 125.05136,25.7263437 C124.572528,25.3781022 124.180756,24.9863305 123.832515,24.5074983 C123.484273,24.0286662 123.179562,23.5063039 122.961911,22.9404114 C122.74426,22.3745189 122.570139,21.7650962 122.526609,21.1121433 C122.483079,20.4591904 122.483079,19.8062376 122.570139,19.1097545 C122.6572,18.4132714 122.78779,17.7167883 122.961911,17.0203052 C123.179562,16.3238222 123.397213,15.6273391 123.701924,14.9743862 C124.006636,14.3214333 124.354877,13.6249502 124.746649,12.9719973 C125.181951,12.3190445 125.617253,11.7096218 126.139615,11.1437293 C126.661977,10.5778368 127.22787,10.0554745 127.837293,9.57664234 C128.446715,9.14134041 129.056138,8.74956868 129.709091,8.40132714 C130.362044,8.0530856 131.058527,7.74837425 131.79854,7.53072329 C132.538553,7.31307233 133.235036,7.13895156 133.97505,7.00836098 C134.715063,6.8777704 135.411546,6.83424021 136.108029,6.83424021 Z M169.582747,7.18248175 C170.845123,7.22601194 171.889847,7.35660252 172.847512,7.61778368 C173.761646,7.87896483 174.545189,8.27073656 175.111082,8.74956868 C175.676974,9.2284008 176.025216,9.96841407 176.155806,10.9260783 C176.286397,11.8837425 176.155806,13.0590577 175.807565,14.4520239 L172.49927,26.8581287 L167.275647,26.8581287 L170.409821,15.0614466 C170.671002,14.1473125 170.758062,13.4072993 170.671002,12.884937 C170.627472,12.3625747 170.409821,12.0143331 170.061579,11.8837425 C169.713338,11.753152 169.278036,11.6225614 168.712143,11.5790312 C168.146251,11.535501 167.493298,11.4919708 166.666224,11.535501 C166.568281,11.5681486 166.445853,11.5763106 166.335667,11.578351 L165.055607,11.5790312 L165.055607,11.5790312 L161.007299,26.9016589 L155.696616,26.9016589 L159.788454,11.5790312 L153.694227,11.5790312 L149.602389,26.9016589 L144.378766,26.9016589 L149.645919,7.22601194 L169.582747,7.22601194 L169.582747,7.18248175 Z M123.440743,7.26954214 L122.265428,11.535501 L116.737094,11.535501 C116.693563,11.535501 116.693563,11.535501 116.606503,11.5790312 L114.647644,11.5790312 L114.647644,11.5790312 C114.386463,11.5790312 114.168812,11.6225614 113.907631,11.6660916 C113.820571,11.6660916 113.73351,11.6660916 113.64645,11.7096218 C113.55939,11.753152 113.472329,11.753152 113.385269,11.7966821 C113.211148,11.8402123 113.037027,11.8837425 112.862906,11.9708029 C112.688786,12.0143331 112.558195,12.1013935 112.384074,12.1884539 C111.818182,12.449635 111.33935,12.7978766 110.947578,13.1461181 C110.555806,13.5378898 110.207565,13.9296616 109.902853,14.3649635 C109.641672,14.8437956 109.380491,15.3226277 109.16284,15.8014599 C108.945189,16.280292 108.771068,16.7591241 108.640478,17.2379562 C108.509887,17.7167883 108.422827,18.1956204 108.422827,18.6744526 C108.379297,19.1532847 108.379297,19.5885866 108.422827,20.0674187 C108.466357,20.5027206 108.596948,20.8944924 108.814599,21.2427339 C109.03225,21.5909754 109.293431,21.8956868 109.685202,22.1568679 C109.859323,22.2874585 110.033444,22.3745189 110.251095,22.4615793 C110.468746,22.5486397 110.686397,22.5921699 110.904048,22.6357001 C111.121699,22.6792303 111.33935,22.6792303 111.557001,22.7227605 C111.818182,22.7662906 112.035833,22.7662906 112.297014,22.7662906 L113.60292,22.7662906 L113.60292,22.7662906 L113.60292,22.7227605 L119.325613,22.7222402 L118.21712,26.8581287 L111.165229,26.8581287 C110.512276,26.8581287 109.815793,26.8145985 109.16284,26.7710683 C108.509887,26.7275382 107.856934,26.5969476 107.291042,26.466357 C106.725149,26.3357664 106.202787,26.0745853 105.680425,25.7698739 C105.201593,25.4651626 104.766291,25.0298607 104.374519,24.5945587 C104.069808,24.1592568 103.808626,23.7239549 103.590975,23.2451228 C103.373324,22.7662906 103.242734,22.2439283 103.199204,21.721566 C103.112143,21.1556735 103.068613,20.589781 103.068613,20.0238885 C103.068613,19.457996 103.112143,18.8921035 103.199204,18.2826808 C103.242734,18.1956204 103.242734,18.1085601 103.242734,18.0214997 C103.242734,17.9344393 103.286264,17.8473789 103.286264,17.7603185 L103.286264,17.6297279 L103.286264,17.6297279 C103.286264,17.5861977 103.329794,17.5426676 103.329794,17.4991374 C103.362442,17.4664897 103.370604,17.4583278 103.372644,17.4195587 L103.373324,17.2379562 L103.373324,17.2379562 C103.416855,17.194426 103.416855,17.1508958 103.416855,17.0638354 C103.416855,17.0203052 103.460385,16.9332449 103.460385,16.8897147 L103.460385,16.7155939 L103.460385,16.7155939 C103.460385,16.6720637 103.503915,16.5850033 103.503915,16.5414731 C103.547445,16.4108825 103.590975,16.280292 103.634506,16.1932316 C103.678036,16.062641 103.721566,15.9755806 103.765096,15.8885202 C103.982747,15.3226277 104.200398,14.7567352 104.505109,14.1908427 C104.809821,13.6249502 105.114532,13.0590577 105.549834,12.5366954 C105.941606,11.9708029 106.333378,11.4919708 106.81221,10.9696085 C107.291042,10.4907764 107.769874,10.0554745 108.335766,9.66370272 C108.988719,9.1848706 109.641672,8.74956868 110.294625,8.44485733 C110.947578,8.14014599 111.600531,7.92249502 112.253484,7.74837425 C112.601725,7.66131387 112.949967,7.61778368 113.298208,7.53072329 C113.64645,7.4871931 113.994691,7.44366291 114.342933,7.40013271 C114.647644,7.35660252 114.995886,7.31307233 115.344127,7.31307233 L116.345322,7.31307233 L116.345322,7.31307233 L123.440743,7.26954214 Z M216.247113,7.18248175 C216.813006,7.22601194 217.335368,7.26954214 217.857731,7.31307233 C218.380093,7.35660252 218.902455,7.4871931 219.424818,7.57425348 C219.90365,7.66131387 220.382482,7.87896483 220.774253,8.14014599 C221.166025,8.40132714 221.514267,8.74956868 221.862508,9.1848706 C222.123689,9.53311214 222.34134,9.92488388 222.471931,10.3166556 C222.602522,10.7084273 222.689582,11.1872595 222.733112,11.6225614 C222.776642,12.1013935 222.733112,12.5802256 222.689582,13.0590577 C222.646052,13.5378898 222.515461,14.016722 222.428401,14.5390843 L219.163636,26.8145985 L205.190445,26.8145985 C204.18925,26.8145985 203.318646,26.684008 202.622163,26.4228268 C201.88215,26.1616457 201.359788,25.7263437 200.968016,25.2039814 C200.576244,24.6380889 200.358593,23.985136 200.315063,23.2015926 C200.271533,22.4615793 200.445654,21.5474453 200.750365,20.589781 C201.142137,19.4144658 201.620969,18.4568016 202.230392,17.6732581 C202.839814,16.8897147 203.579827,16.3238222 204.450431,15.9755806 C205.277505,15.6273391 206.191639,15.3661579 207.105773,15.1920372 C208.019907,15.0179164 209.021102,14.930856 210.065826,14.930856 L216.900066,14.8873258 C217.161248,14.1037823 217.248308,13.4508295 217.161248,12.9284672 C217.074187,12.4061048 216.813006,12.0578633 216.421234,11.8837425 C216.029463,11.6660916 215.55063,11.535501 214.984738,11.4484406 C214.418845,11.3613802 213.809423,11.31785 213.11294,11.31785 L204.493962,11.2743198 L205.582216,7.22601194 L216.247113,7.22601194 L216.247113,7.18248175 Z M238.665163,7.13895156 L238.665163,7.18248175 C239.927538,7.22601194 241.059323,7.35660252 241.973457,7.57425348 C242.931121,7.83543464 243.671135,8.18367618 244.280557,8.70603849 C244.84645,9.1848706 245.194691,9.92488388 245.325282,10.8825481 C245.455873,11.8402123 245.325282,13.0155275 244.93351,14.4084937 L241.625216,26.8145985 L236.445123,26.8145985 L239.579297,14.9743862 C239.796948,14.3214333 239.884008,13.7555408 239.884008,13.2767087 C239.884008,12.7978766 239.796948,12.449635 239.622827,12.2319841 C239.448706,12.0143331 239.143995,11.8402123 238.708693,11.7096218 C238.273391,11.5790312 237.707498,11.535501 237.011015,11.535501 L232.875647,11.4919708 L228.783809,26.8145985 L223.603716,26.8145985 L228.870869,7.13895156 L238.665163,7.13895156 Z M134.628003,11.2307896 C134.323291,11.2743198 134.06211,11.31785 133.800929,11.3613802 C133.496218,11.4049104 133.191506,11.4919708 132.930325,11.6225614 C132.625614,11.753152 132.364433,11.8837425 132.103251,12.0143331 C131.493829,12.3190445 130.971466,12.7108162 130.536165,13.1461181 C130.100863,13.58142 129.709091,14.0602522 129.360849,14.6261447 C129.230259,14.8437956 129.099668,15.0614466 129.012608,15.2790975 C128.882017,15.4967485 128.794957,15.7143995 128.707896,15.9320504 C128.620836,16.1497014 128.533776,16.3673524 128.490246,16.5850033 C128.446715,16.8026543 128.403185,17.0203052 128.359655,17.2379562 C128.185534,17.8473789 128.098474,18.4132714 128.098474,18.9356337 C128.098474,19.5015262 128.142004,20.0238885 128.272595,20.5462508 C128.403185,21.0686131 128.620836,21.5039151 128.925547,21.8521566 C129.230259,22.2003981 129.622031,22.5051095 130.144393,22.6792303 L130.187923,22.6357001 C130.187923,22.6792303 130.231453,22.7227605 130.318514,22.7662906 C130.405574,22.8098208 130.449104,22.853351 130.536165,22.853351 C130.623225,22.8968812 130.666755,22.8968812 130.753816,22.9404114 C130.840876,22.9839416 130.884406,22.9839416 130.971466,22.9839416 C131.537359,23.071002 132.146782,23.071002 132.712674,22.9839416 C133.322097,22.853351 133.887989,22.6357001 134.497412,22.3309887 C135.106835,22.0262774 135.629197,21.6345056 136.108029,21.1992037 C136.586861,20.7203716 136.978633,20.1980093 137.326875,19.6321168 C137.457465,19.4144658 137.544526,19.2403451 137.631586,18.9791639 C137.718646,18.7615129 137.805707,18.5003318 137.892767,18.2826808 C138.023358,18.0214997 138.110418,17.8038487 138.197478,17.5426676 C138.284539,17.2814864 138.328069,17.0638354 138.415129,16.8026543 C138.54572,16.2367618 138.58925,15.7143995 138.58925,15.1920372 C138.58925,14.6696749 138.54572,14.1908427 138.45866,13.7120106 C138.371599,13.2331785 138.153948,12.7978766 137.892767,12.4061048 C137.631586,12.0578633 137.239814,11.753152 136.760982,11.535501 C136.673922,11.4919708 136.543331,11.4484406 136.456271,11.4049104 C136.32568,11.3613802 136.23862,11.31785 136.151559,11.31785 C136.020969,11.2743198 135.890378,11.2743198 135.803318,11.2743198 C135.672727,11.2743198 135.585667,11.2307896 135.455076,11.2307896 C135.193895,11.1872595 134.889184,11.1872595 134.628003,11.2307896 Z M215.855342,18.8485733 L209.717585,18.8485733 C209.684937,18.881221 209.676775,18.8893829 209.65637,18.8914234 L209.369343,18.8921035 L209.369343,18.8921035 C209.021102,18.9356337 208.67286,18.9791639 208.324618,19.0226941 C207.976377,19.0662243 207.628135,19.1968149 207.279894,19.2838752 C206.975182,19.3709356 206.670471,19.5885866 206.45282,19.8497678 C206.235169,20.1544791 206.017518,20.5027206 205.930458,20.8944924 C205.756337,21.3733245 205.712807,21.7650962 205.756337,22.0698076 C205.799867,22.3745189 205.973988,22.5486397 206.278699,22.6357001 C206.539881,22.7227605 206.844592,22.8098208 207.192833,22.853351 C207.497545,22.8968812 207.845786,22.9404114 208.237558,22.9404114 L208.237558,22.8968812 L214.767087,22.8968812 L215.855342,18.8485733 Z M188.083079,11.4049104 C187.952488,11.4484406 187.778368,11.4484406 187.647777,11.4484406 L186.472462,11.4484406 L186.472462,11.4484406 L186.472462,11.4049104 L183.468879,22.6357001 L184.513603,22.6357001 L184.513603,22.6357001 C185.688918,22.6792303 186.777173,22.5921699 187.778368,22.5051095 C188.779562,22.3745189 189.693696,22.2003981 190.52077,21.939217 C191.304313,21.6780358 192.000796,21.0686131 192.610219,20.1980093 C193.219642,19.3274054 193.698474,18.0650299 194.090246,16.4979429 C194.394957,15.1920372 194.438487,14.1473125 194.264366,13.4072993 C194.090246,12.667286 193.698474,12.1884539 193.045521,11.9708029 C192.392568,11.753152 191.652555,11.6225614 190.825481,11.535501 C189.998407,11.4484406 189.084273,11.4049104 188.083079,11.4049104 Z" fill-opacity="0.6"/></g><g transform="translate(35.215926, 0.000000)" fill="#EE7D11" fill-rule="nonzero" id="Path"><path d="M12.5802256,7.00836098 C14.7567352,6.26834771 15.6708693,5.87657598 16.8897147,7.13895156 C18.1085601,8.40132714 18.7179827,10.0990046 18.7179827,10.0990046 C18.7179827,10.0990046 17.6732581,11.1437293 16.0191108,11.753152 C14.930856,12.1449237 13.5378898,12.3625747 13.5378898,12.3625747 C13.5378898,12.3625747 13.8861314,11.1872595 14.1908427,10.2295952 C14.5390843,9.27193099 15.5838089,7.05189117 15.5838089,7.05189117 L14.5390843,6.9213006 C14.5390843,6.9213006 13.3202389,8.57544791 12.3190445,10.8825481 C11.5790312,12.6237558 11.1437293,14.6261447 11.1437293,14.6261447 C11.1437293,14.6261447 15.0179164,14.1908427 17.2379562,13.4508295 C19.457996,12.7108162 21.1556735,12.0578633 21.5474453,11.5790312 C21.9827472,11.1001991 22.7662906,9.96841407 23.288653,7.05189117 C23.7239549,4.57067021 22.9404114,2.82946251 22.9404114,2.82946251 C22.9404114,2.82946251 22.6792303,2.69887193 21.5039151,3.22123424 C21.2862641,3.30829463 21.0686131,3.4388852 20.8944924,3.52594559 C20.5027206,3.74359655 20.0238885,4.22242867 19.7627074,4.57067021 C20.1109489,5.35421367 20.5027206,6.57305906 20.1980093,7.66131387 C18.8921035,5.70245521 17.7603185,4.65773059 16.7155939,4.30948905 C15.1920372,3.78712674 14.3649635,4.0483079 11.2743198,5.44127405 C8.57544791,6.66011944 3.61300597,9.57664234 1.08825481,11.1001991 C0.435301924,11.4919708 0,11.753152 0,11.753152 C0,11.753152 10.2295952,7.83543464 12.5802256,7.00836098"/><path d="M17.5861977,4.0047777 C17.5861977,4.0047777 18.5003318,3.09064366 20.1980093,2.13297943 C22.1568679,1.04472462 25.116921,0 25.116921,0 C25.116921,0 22.7662906,0.435301924 19.5885866,1.91532847 C18.4132714,2.48122097 16.8897147,3.74359655 16.8897147,3.74359655 L17.5861977,4.0047777 Z"/></g></g><g id="Group"><path d="M634.409025,3.52594559 C636.716125,3.52594559 638.849104,3.78712674 640.851493,4.30948905 C642.853882,4.83185136 644.68215,5.39774386 646.249237,6.09422694 C647.816324,6.74717983 649.12223,7.44366291 650.210484,8.09661579 C651.298739,8.74956868 652.038752,9.27193099 652.474054,9.62017253 C652.952887,9.92488388 653.257598,10.3601858 653.344658,10.9696085 C653.431719,11.5790312 653.344658,12.1013935 653.039947,12.5802256 L649.601062,17.7603185 C649.25282,18.2826808 648.773988,18.7179827 648.164565,18.9791639 C647.555143,19.2403451 646.98925,19.1968149 646.466888,18.8485733 C646.292767,18.7179827 645.770405,18.4132714 644.899801,17.8473789 C644.029197,17.3250166 642.984472,16.7591241 641.765627,16.1497014 C640.546782,15.5838089 639.284406,15.0614466 637.89144,14.5826145 C636.498474,14.1037823 635.192568,13.8426012 633.930192,13.8426012 C631.318381,13.8426012 629.359522,14.5390843 628.010086,15.9320504 C626.66065,17.3250166 625.964167,18.7615129 625.964167,20.1980093 C625.964167,22.3309887 626.834771,24.1592568 628.532449,25.7263437 C630.230126,27.2934307 632.928998,28.8169874 636.629064,30.3405441 C638.805574,31.2546782 641.025614,32.2558726 643.289184,33.4311878 C645.552754,34.5629728 647.598673,35.955939 649.383411,37.5665561 C651.211679,39.1771732 652.648175,41.0489715 653.82349,43.2254811 C654.955275,45.4019907 655.521168,47.9267419 655.521168,50.8432648 C655.521168,53.1938952 655.042336,55.4574652 654.084672,57.5904446 C653.127007,59.723424 651.734041,61.6387525 649.905773,63.2928998 C648.077505,64.9470471 645.900995,66.2964831 643.332714,67.2976775 C640.764433,68.2988719 637.89144,68.777704 634.713736,68.777704 C631.884273,68.777704 629.315992,68.4729927 627.095952,67.9071002 C624.832382,67.3412077 622.873524,66.6447246 621.219376,65.8611812 C619.565229,65.0776377 618.215793,64.2940942 617.171068,63.5105508 C616.039283,62.6399469 615.29927,62.0305242 614.776908,61.5952223 C614.341606,61.1599204 614.080425,60.8116788 613.906304,60.4634373 C613.775713,60.1151958 613.906304,59.5928334 614.298076,58.8963504 L617.56284,53.2809555 C617.911082,52.6280027 618.433444,52.2797611 619.042867,52.2362309 C619.69582,52.1927007 620.218182,52.3232913 620.609954,52.6280027 C620.740544,52.6715328 621.219376,53.0197744 622.08998,53.6291971 C622.960584,54.2386198 624.048839,54.8480425 625.398275,55.5445255 C626.70418,56.1974784 628.184207,56.8504313 629.751294,57.4163238 C631.318381,57.9822163 632.841938,58.2869277 634.278434,58.2869277 C636.629064,58.2869277 638.587923,57.5904446 640.15501,56.2410086 C641.722097,54.8915727 642.50564,53.2374253 642.50564,51.3220969 C642.50564,49.0149967 641.547976,47.056138 639.632648,45.3584605 C637.717319,43.660783 634.844326,42.0501659 631.0572,40.483079 C628.96775,39.6560053 626.878301,38.6548109 624.832382,37.4794957 C622.786463,36.3477107 620.958195,34.9547445 619.347578,33.3876576 C617.736961,31.8205707 616.474585,29.9923026 615.516921,27.9463835 C614.559257,25.9004645 614.080425,23.5498341 614.080425,20.8944924 C614.080425,18.8921035 614.472196,16.8461845 615.25574,14.8002654 C616.039283,12.7543464 617.258129,10.8390179 618.868746,9.1848706 C620.479363,7.53072329 622.568812,6.18128733 625.137094,5.09303251 C627.705375,4.0483079 630.796019,3.52594559 634.409025,3.52594559 Z M237.283079,3.52594559 C239.590179,3.52594559 241.723159,3.78712674 243.725547,4.30948905 C245.727936,4.83185136 247.556204,5.39774386 249.123291,6.09422694 C250.690378,6.74717983 251.996284,7.44366291 253.084539,8.09661579 C254.172794,8.74956868 254.912807,9.27193099 255.348109,9.62017253 C255.826941,9.92488388 256.131652,10.3601858 256.218713,10.9696085 C256.305773,11.5790312 256.218713,12.1013935 255.914001,12.5802256 L252.475116,17.7603185 C252.126875,18.2826808 251.648042,18.7179827 251.03862,18.9791639 C250.429197,19.2403451 249.863305,19.1968149 249.340942,18.8485733 C249.166821,18.7179827 248.644459,18.4132714 247.773855,17.8473789 C246.903251,17.3250166 245.858527,16.7591241 244.639681,16.1497014 C243.420836,15.5838089 242.158461,15.0614466 240.765494,14.5826145 C239.372528,14.1037823 238.066622,13.8426012 236.804247,13.8426012 C234.192435,13.8426012 232.233577,14.5390843 230.884141,15.9320504 C229.534705,17.3250166 228.838222,18.7615129 228.838222,20.1980093 C228.838222,22.3309887 229.708825,24.1592568 231.406503,25.7263437 C233.10418,27.2934307 235.803052,28.8169874 239.503119,30.3405441 C241.679628,31.2546782 243.899668,32.2558726 246.163238,33.4311878 C248.426808,34.5629728 250.472727,35.955939 252.257465,37.5665561 C254.085733,39.1771732 255.52223,41.0489715 256.697545,43.2254811 C257.82933,45.4019907 258.395222,47.9267419 258.395222,50.8432648 C258.395222,53.1938952 257.91639,55.4574652 256.958726,57.5904446 C256.001062,59.723424 254.608096,61.6387525 252.779827,63.2928998 C250.951559,64.9470471 248.77505,66.2964831 246.206768,67.2976775 C243.638487,68.2988719 240.721964,68.6906437 237.54426,68.6906437 C234.714798,68.6906437 232.146516,68.3859323 229.926476,67.8200398 C227.662906,67.2541473 225.704048,66.5576642 224.0499,65.7741208 C222.395753,64.9905773 221.046317,64.2070338 220.001593,63.4234904 C218.869808,62.6399469 218.129794,62.0305242 217.650962,61.5952223 C217.21566,61.1599204 216.954479,60.8116788 216.780358,60.4634373 C216.649768,60.1151958 216.780358,59.5928334 217.17213,58.8963504 L220.436894,53.2809555 C220.785136,52.6280027 221.307498,52.2797611 221.916921,52.2362309 C222.569874,52.1927007 223.092236,52.3232913 223.484008,52.6280027 C223.614599,52.6715328 224.093431,53.0197744 224.964035,53.6291971 C225.834638,54.2386198 226.922893,54.8480425 228.272329,55.5445255 C229.578235,56.1974784 231.058261,56.8504313 232.625348,57.4163238 C234.192435,57.9822163 235.715992,58.2869277 237.152488,58.2869277 C239.503119,58.2869277 241.461977,57.5904446 243.029064,56.2410086 C244.596151,54.8915727 245.379695,53.2374253 245.379695,51.3220969 C245.379695,49.0149967 244.422031,47.056138 242.506702,45.3584605 C240.591374,43.660783 237.718381,42.0501659 233.931254,40.483079 C231.841805,39.6560053 229.752356,38.6548109 227.706437,37.4794957 C225.660518,36.3477107 223.83225,34.9547445 222.221632,33.3876576 C220.611015,31.8205707 219.34864,29.9923026 218.390975,27.9463835 C217.433311,25.9004645 216.954479,23.5498341 216.954479,20.8944924 C216.954479,18.8921035 217.346251,16.8461845 218.129794,14.8002654 C218.913338,12.7108162 220.132183,10.8390179 221.7428,9.1848706 C223.353417,7.53072329 225.442867,6.18128733 228.011148,5.09303251 C230.579429,4.0483079 233.670073,3.52594559 237.283079,3.52594559 Z M470.039018,3.48241539 L507.649104,43.5301924 L507.736165,43.5301924 L507.736165,6.13775713 C507.736165,5.65892502 507.910285,5.26715328 508.214997,4.91891175 C508.563238,4.57067021 508.95501,4.44007963 509.433842,4.44007963 L517.748109,4.44007963 C518.226941,4.44007963 518.618713,4.6142004 518.966954,4.91891175 C519.315196,5.26715328 519.445786,5.65892502 519.445786,6.13775713 L519.445786,67.0800265 C519.445786,67.5588587 519.271666,67.9506304 518.966954,68.2553417 C518.618713,68.5600531 518.226941,68.6906437 517.748109,68.6906437 L515.571599,68.6906437 L477.787392,27.1193099 L477.700332,27.1193099 L477.700332,66.0788321 C477.700332,66.5576642 477.526211,66.949436 477.2215,67.2976775 C476.873258,67.645919 476.481486,67.7765096 476.002654,67.7765096 L467.775448,67.7765096 C467.296616,67.7765096 466.904844,67.6023889 466.556603,67.2976775 C466.208361,66.949436 466.07777,66.5576642 466.07777,66.0788321 L466.07777,5.09303251 C466.07777,4.6142004 466.251891,4.22242867 466.556603,3.91771732 C466.904844,3.61300597 467.296616,3.48241539 467.775448,3.48241539 L470.039018,3.48241539 Z M358.122893,4.39654944 C360.821765,4.39654944 363.390046,4.91891175 365.784207,5.92010617 C368.178368,6.96483079 370.267817,8.35779695 372.052555,10.0990046 C373.880823,11.8402123 375.273789,13.8861314 376.318514,16.280292 C377.363238,18.6309224 377.84207,21.1556735 377.84207,23.8980756 C377.84207,25.9439947 377.493829,27.9028534 376.840876,29.7746516 C376.187923,31.6464499 375.273789,33.3876576 374.098474,34.9547445 C372.923159,36.5218315 371.530192,37.9147976 369.876045,39.1771732 C368.265428,40.3960186 366.43716,41.4407432 364.434771,42.2242867 L376.840876,65.2517585 C377.145587,65.8611812 377.145587,66.4270737 376.884406,67.0364964 C376.623225,67.6023889 376.100863,67.9071002 375.317319,67.9071002 L365.827737,67.9071002 C365.392435,67.9071002 365.087724,67.8200398 364.870073,67.645919 C364.652422,67.4717983 364.478301,67.2976775 364.391241,67.1235567 L352.376908,43.1384207 L342.321433,43.1384207 L342.321433,66.2529529 C342.321433,66.731785 342.147313,67.1235567 341.842601,67.4717983 C341.49436,67.8200398 341.102588,67.9506304 340.623756,67.9506304 L332.309489,67.9506304 C331.830657,67.9506304 331.438885,67.7765096 331.090644,67.4717983 C330.742402,67.1235567 330.611812,66.731785 330.611812,66.2529529 L330.611812,6.09422694 L330.568281,6.09422694 C330.568281,5.61539482 330.742402,5.22362309 331.047113,4.87538155 C331.395355,4.52714001 331.787127,4.39654944 332.265959,4.39654944 L358.122893,4.39654944 Z M420.80637,3.48241539 C421.285202,3.48241539 421.633444,3.56947578 421.851095,3.74359655 C422.068746,3.91771732 422.242867,4.17889847 422.329927,4.48360982 L450.18925,65.4258792 C450.493962,66.0353019 450.493962,66.5576642 450.14572,67.0364964 C449.797478,67.5153285 449.318646,67.7765096 448.665693,67.7765096 L440.786729,67.7765096 C440.133776,67.7765096 439.611413,67.645919 439.219642,67.3847379 C438.82787,67.1235567 438.479628,66.6447246 438.174917,65.9917717 L433.734837,56.1974784 L406.702588,56.1974784 L402.262508,65.9917717 C402.088388,66.4706038 401.783676,66.9059058 401.348374,67.2541473 C400.913072,67.6023889 400.34718,67.7765096 399.650697,67.7765096 L391.771732,67.7765096 C391.118779,67.7765096 390.596417,67.5153285 390.291705,67.0364964 C389.943464,66.5576642 389.943464,65.9917717 390.248175,65.4258792 L418.368679,4.48360982 C418.716921,3.83065693 419.239283,3.48241539 419.892236,3.48241539 L420.80637,3.48241539 Z M566.676045,4.39654944 C571.029064,4.39654944 575.120902,5.22362309 578.951559,6.8777704 C582.825747,8.53191772 586.177571,10.7954877 589.094094,13.6684804 C591.967087,16.5414731 594.274187,19.8932979 595.928334,23.7239549 C597.582482,27.5546118 598.409555,31.6464499 598.409555,35.9994691 C598.409555,40.3960186 597.582482,44.5313869 595.928334,48.405574 C594.274187,52.2797611 592.010617,55.6315859 589.094094,58.5045786 C586.221102,61.3775713 582.825747,63.6411413 578.951559,65.2952887 C575.077372,66.949436 570.985534,67.7765096 566.676045,67.7765096 L545.25919,67.7765096 C544.780358,67.7765096 544.388587,67.6023889 544.083875,67.2976775 C543.779164,66.949436 543.648573,66.5576642 543.648573,66.0788321 L543.648573,6.09422694 C543.648573,5.61539482 543.779164,5.22362309 544.083875,4.87538155 C544.388587,4.52714001 544.780358,4.39654944 545.25919,4.39654944 L566.676045,4.39654944 Z M311.763238,4.39654944 C312.24207,4.39654944 312.633842,4.57067021 312.982084,4.87538155 C313.330325,5.22362309 313.460916,5.61539482 313.460916,6.09422694 L313.460916,13.5378898 C313.460916,14.016722 313.286795,14.4084937 312.982084,14.7567352 C312.633842,15.1049768 312.24207,15.2355674 311.763238,15.2355674 L297.920637,15.2355674 L297.920637,66.0353019 C297.920637,66.514134 297.746516,66.9059058 297.441805,67.2541473 C297.093563,67.6023889 296.701792,67.7329794 296.22296,67.7329794 L287.821632,67.7329794 C287.3428,67.7329794 286.951029,67.5588587 286.602787,67.2541473 C286.254545,66.9059058 286.123955,66.514134 286.123955,66.0353019 L286.123955,15.2355674 L272.237823,15.2355674 C271.758991,15.2355674 271.36722,15.0614466 271.018978,14.7567352 C270.670737,14.4084937 270.540146,14.016722 270.540146,13.5378898 L270.540146,6.09422694 C270.540146,5.61539482 270.714267,5.22362309 271.018978,4.87538155 C271.36722,4.52714001 271.758991,4.39654944 272.237823,4.39654944 L311.763238,4.39654944 Z M565.631321,15.3661579 L555.314665,15.3661579 L555.314665,56.7633709 L565.631321,56.7198407 C568.591374,56.7198407 571.290246,56.1974784 573.771466,55.1527538 C576.252687,54.1080292 578.385667,52.6280027 580.170405,50.7997346 C581.998673,48.9714665 583.391639,46.7514267 584.436364,44.2266755 C585.481088,41.7019244 585.95992,38.9595222 585.95992,35.9994691 C585.95992,33.0394161 585.437558,30.2970139 584.436364,27.815793 C583.391639,25.2910418 581.998673,23.1580624 580.170405,21.2862641 C578.342137,19.457996 576.209157,17.9779695 573.771466,16.9332449 C571.290246,15.8885202 568.591374,15.3661579 565.631321,15.3661579 Z M420.240478,26.2051758 L419.979297,26.2051758 L411.099137,46.142004 L429.294758,46.142004 L420.240478,26.2051758 Z M357.121699,15.148507 L342.364964,15.148507 L342.364964,33.1700066 L357.121699,33.1700066 L357.121699,33.257067 C358.340544,33.257067 359.472329,32.9958859 360.560584,32.5170537 C361.648839,32.0382216 362.606503,31.3852687 363.390046,30.5146649 C364.21712,29.6875912 364.870073,28.6863968 365.348905,27.5546118 C365.827737,26.4228268 366.088918,25.2475116 366.088918,23.985136 C366.088918,22.7662906 365.827737,21.6345056 365.348905,20.589781 C364.870073,19.5450564 364.21712,18.5873922 363.390046,17.7603185 C362.562973,16.9332449 361.648839,16.3238222 360.560584,15.84499 C359.472329,15.4096881 358.340544,15.148507 357.121699,15.148507 Z" id="Combined-Shape" fill="#023642"/><g fill="#00AAA1" id="Path"><path d="M169.506569,9.7942933 C169.506569,15.84499 164.848839,19.9368281 157.971068,19.9368281 L119.055076,19.8932979 C115.877372,19.8932979 113.483212,20.4591904 111.785534,22.2874585 L71.4330458,65.382349 C67.1670869,69.9094891 60.5940279,72.4777704 53.5421367,72.4777704 C53.4986065,72.4777704 11.5790312,72.4777704 11.5790312,72.4777704 C4.65773059,72.4777704 0.0435301924,68.6471135 0.0435301924,62.6834771 C0.0435301924,56.6327804 4.70126078,52.5844725 11.5790312,52.5844725 L50.3209025,52.5844725 C53.5421367,52.5844725 55.5009954,51.800929 57.2857332,49.9291307 L97.4641009,7.05189117 C101.86065,2.39416058 107.345455,0.0431630556 115.920902,0.0431630556 C115.964433,0.0431630556 158.014599,0.0431630556 158.014599,0.0431630556 C164.848839,-1.45716772e-14 169.506569,3.83065693 169.506569,9.7942933"/><g fill-opacity="0.6"><path d="M66.4706038,32.1688122 C61.07286,26.4228268 57.1551427,22.2874585 57.1551427,22.2874585 C55.413935,20.4591904 53.4550763,19.8932979 50.2338421,19.8932979 L11.535501,19.9368281 C4.6142004,19.9368281 0,15.84499 0,9.7942933 C0,3.83065693 4.65773059,0 11.535501,0 L53.4986065,0 C60.5504977,0 67.1670869,2.39416058 71.5201062,7.05189117 C71.5201062,7.05189117 75.3942933,11.2307896 80.748507,16.9332449 L66.4706038,32.1688122 Z"/><path d="M102.383013,40.1348374 C107.693696,45.7937624 111.524353,49.9291307 111.524353,49.9291307 C113.265561,51.800929 115.877372,52.5844725 118.880956,52.5844725 L157.971068,52.5409423 C164.892369,52.5409423 169.506569,56.5892502 169.506569,62.6834771 C169.506569,68.6471135 164.892369,72.4777704 157.971068,72.4777704 L115.529131,72.4777704 C107.258394,72.4777704 101.77359,69.9094891 97.7688122,65.4694094 C97.7688122,65.4694094 93.7205043,61.1599204 88.1921699,55.2833444 L102.383013,40.1348374 Z"/></g></g></g></g></g></svg>