<svg xmlns="http://www.w3.org/2000/svg" xmlns:xlink="http://www.w3.org/1999/xlink" viewBox="0 0 518 90.05"><defs><style>.cls-1,.cls-2{fill:#fff;fill-rule:evenodd}.cls-2{fill:#1d1d1b}.cls-3{mask:url(#mask)}</style><mask id="mask" width="518" height="90.05" x="0" y="0" maskUnits="userSpaceOnUse"><g id="mask-2"><polygon id="path-1" points="0 0 518 0 518 90.05 0 90.05 0 0" class="cls-1"/></g></mask></defs><title>logo</title><g id="Capa_2"><g id="Capa_1-2"><polygon id="Fill-1" points="0 11.83 0 22.53 16.4 22.53 16.4 74.89 29.08 74.89 29.08 22.53 45.48 22.53 45.48 11.83 0 11.83" class="cls-2"/><path id="Fill-2" d="M62.31,34.2c3.81-3.16,8.52-5.68,13.56-5.68s11.94,3,11.94,14.19V74.89h-12V47.57c0-3.64.25-9.4-5-9.4-3.49,0-6.26,2.51-8.52,4.95V74.89h-12V11.83h12V34.2Z" class="cls-2"/><path id="Fill-4" d="M120.38,52.19c0-5.67-1.13-14.83-7.64-14.83s-7.63,9.16-7.63,14.83S106.25,67,112.74,67s7.64-9.17,7.64-14.84m-27.62,0c0-12.08,6.67-23.67,20-23.67s20,11.59,20,23.67-6.75,23.67-20,23.67-20-11.67-20-23.67" class="cls-2"/><path id="Fill-6" d="M163.52,70.19C159.7,73.35,155,75.86,150,75.86S138,72.86,138,61.68V29.49h12V56.81c0,3.65-.24,9.41,5,9.41,3.49,0,6.25-2.51,8.53-4.95V29.49h12v45.4h-12v-4.7Z" class="cls-2"/><g class="cls-3"><path id="Fill-8" d="M199.66,52.36c5.05,0,6.5-4.14,6.5-8.43s-1.94-7.63-6.5-7.63c-5,0-6.57,4.22-6.57,8.52,0,4.13,1.95,7.54,6.57,7.54ZM191.38,75c-1.14.73-1.86,1.38-1.86,2.84,0,4.21,8.52,4.46,11.36,4.46,2,0,12.6-.25,12.6-3.89,0-2.36-1.62-2.11-8.77-2.52L191.38,75Zm3.82-15c-1.39,0-3.41.73-3.41,2.83,0,5.92,31.52-4.37,31.52,13.38,0,6.73-4.56,13.86-22.58,13.86-15.68,0-21-5.52-21-11.43,0-3.49,2.19-5.27,5-6.9-2-1.45-3.57-3.15-3.57-5.74,0-4.47,2.43-6.82,5.92-9.09-3.33-3.24-5.68-7.29-5.68-12.47,0-10.06,8.53-15.9,18.35-15.9a22,22,0,0,1,11.22,3.16c2.43-2.27,4.62-3.72,8.2-3.72a17.27,17.27,0,0,1,3.5.32v8.43a10.56,10.56,0,0,0-3.83-1,6.79,6.79,0,0,0-3.25,1,17.9,17.9,0,0,1,2.44,7.71c0,10-8.45,15.88-18.28,15.88L195.2,60Z" class="cls-2"/></g><path id="Fill-11" d="M239.79,34.2c3.82-3.16,8.54-5.68,13.57-5.68s11.95,3,11.95,14.19V74.89h-12V47.57c0-3.64.25-9.4-4.95-9.4-3.5,0-6.26,2.51-8.54,4.95V74.89h-12V11.83h12V34.2Z" class="cls-2"/><path id="Fill-13" d="M287.16,29.5h9.34v10h-9.34v23.1c0,2.19.64,4.45,4.55,4.45a8.57,8.57,0,0,0,4.79-1.69v9.16a28,28,0,0,1-7.72,1.37c-7.47,0-13.64-4.21-13.64-14.1V39.47h-5.61v-10h5.61V18.15h12V29.5Z" class="cls-2"/><polygon id="Fill-15" points="346.53 74.89 340.04 74.89 329.31 23.33 329.16 23.33 317.86 74.89 311.36 74.89 298.13 11.83 304.45 11.83 314.86 62.73 315.02 62.73 326.4 11.83 332.65 11.83 343.45 62.73 343.62 62.73 354.75 11.83 361 11.83 346.53 74.89" class="cls-2"/><path id="Fill-17" d="M387.8,52.51c0-7.61-1.85-18.31-11.61-18.31s-11.62,10.7-11.62,18.31,1.87,18.33,11.62,18.33S387.8,60.13,387.8,52.51m-29.57,0c0-16.77,8-23.66,18-23.66s17.95,6.89,17.95,23.66-8,23.68-17.95,23.68-18-6.89-18-23.68" class="cls-2"/><path id="Fill-19" d="M405.43,39.79h.17c2.51-5.35,5.76-10.29,12.42-10.29h2.44v5.76c-8.28-1.15-12.58,7.78-15,14.25V74.89H399.1V30.15h6.33v9.64Z" class="cls-2"/><polygon id="Fill-21" points="431.91 50.9 448.56 30.15 455.64 30.15 443.29 45.47 457.5 74.89 450.68 74.89 439.23 50.58 431.91 59.57 431.91 74.89 425.59 74.89 425.59 11.82 431.91 11.82 431.91 50.9" class="cls-2"/><path id="Fill-23" d="M485,40.11c-2.51-3.73-5.52-5.91-10.24-5.91-4.15,0-8,2.1-8,6.64,0,10.95,23.63,6.16,23.63,21.24,0,8.76-6.26,14.11-14.7,14.11-7.23,0-13.08-3.16-16.74-9.41l5-3.16c2.44,4.62,6.34,7.22,11.7,7.22,4.63,0,8.78-2.52,8.78-7.62,0-11.27-23.65-5.92-23.65-22,0-7.7,6.35-12.4,13.73-12.4a17.17,17.17,0,0,1,14.94,7.78L485,40.11Z" class="cls-2"/><g class="cls-3"><path id="Fill-25" d="M508.12,10.7a2.27,2.27,0,0,0,1.32-.42,1.66,1.66,0,0,0,.61-1.48,1.81,1.81,0,0,0-.51-1.47,2.2,2.2,0,0,0-1.42-.42h-3.65V10.7Zm1.62,6.47-2.25-4.32h-3v4.29h-2.34V4.76h6a4.32,4.32,0,0,1,3.11,1.09,3.86,3.86,0,0,1,1.16,3,4,4,0,0,1-.7,2.34,3.93,3.93,0,0,1-1.89,1.43l2.65,4.6Zm5.3-9.5a9.54,9.54,0,0,0-1.93-2.91,9.09,9.09,0,0,0-2.87-2,9,9,0,0,0-7.05,0,9,9,0,0,0-2.87,2,9.54,9.54,0,0,0-1.93,2.91,8.88,8.88,0,0,0-.72,3.56,9,9,0,0,0,.72,3.58,9.46,9.46,0,0,0,1.93,2.92,9,9,0,0,0,2.87,2,9,9,0,0,0,7.05,0,9.09,9.09,0,0,0,2.87-2A9.46,9.46,0,0,0,515,14.81a9,9,0,0,0,.72-3.58A8.88,8.88,0,0,0,515,7.67Zm2.07,8a11.36,11.36,0,0,1-2.41,3.57,11.59,11.59,0,0,1-3.59,2.42,11.42,11.42,0,0,1-8.79,0,11.59,11.59,0,0,1-3.59-2.42,11.19,11.19,0,0,1-2.41-3.57,10.8,10.8,0,0,1-.89-4.39,10.71,10.71,0,0,1,.89-4.37,11.26,11.26,0,0,1,2.41-3.56A11.39,11.39,0,0,1,502.32.89a11.3,11.3,0,0,1,8.79,0,11.28,11.28,0,0,1,6,6,10.71,10.71,0,0,1,.89,4.37,10.8,10.8,0,0,1-.89,4.39Z" class="cls-2"/></g></g></g></svg>