<svg width="709" height="111" viewBox="0 0 709 111" fill="none" xmlns="http://www.w3.org/2000/svg">
<path d="M688.94 35.73C688.94 30.26 693.37 25.82 698.88 25.82C704.35 25.82 708.83 30.27 708.83 35.73C708.83 41.26 704.35 45.71 698.88 45.71C693.36 45.71 688.94 41.25 688.94 35.73ZM706.21 35.73C706.21 31.31 703.14 28.15 698.88 28.15C694.54 28.15 691.55 31.31 691.55 35.73C691.55 40.21 694.54 43.34 698.88 43.34C703.14 43.34 706.21 40.21 706.21 35.73ZM703.81 41.17H701.22L698.82 36.63H697.04V41.17H694.78V30.4H699.96C702.78 30.4 704.13 31.16 704.13 33.7C704.13 35.67 703.09 36.49 701.2 36.63L703.81 41.17ZM700.01 35C701.22 35.03 702.06 34.75 702.06 33.42C702.06 31.95 700.51 32.07 699.47 32.07H697.05V35H700.01Z" fill="#EA5297"/>
<path d="M64.2101 15.98H41.2701V89.34H23.5601V15.98H0.620117V0.990005H64.2201V15.98H64.2101Z" fill="#EA5297"/>
<path d="M87.7202 32.34C93.0602 27.91 99.6502 24.39 106.69 24.39C113.62 24.39 123.38 28.59 123.38 44.26V89.35H106.57V51.08C106.57 45.97 106.91 37.91 99.6402 37.91C94.7602 37.91 90.9002 41.43 87.7102 44.84V89.36H70.9102V1.00999H87.7102V32.34H87.7202Z" fill="#EA5297"/>
<path d="M130.31 57.55C130.31 40.63 139.62 24.39 158.25 24.39C176.88 24.39 186.19 40.63 186.19 57.55C186.19 74.36 176.76 90.71 158.25 90.71C139.74 90.71 130.31 74.35 130.31 57.55ZM168.93 57.55C168.93 49.6 167.34 36.77 158.25 36.77C149.17 36.77 147.58 49.6 147.58 57.55C147.58 65.5 149.17 78.33 158.25 78.33C167.33 78.33 168.93 65.5 168.93 57.55Z" fill="#EA5297"/>
<path d="M229.23 82.76C223.89 87.19 217.3 90.71 210.26 90.71C203.33 90.71 193.56 86.51 193.56 70.84V25.75H210.37V64.03C210.37 69.14 210.03 77.2 217.3 77.2C222.18 77.2 226.04 73.68 229.23 70.27V25.75H246.04V89.35H229.23V82.76Z" fill="#EA5297"/>
<path d="M273.52 68.45C271.59 68.45 268.75 69.47 268.75 72.43C268.75 80.72 312.81 66.3 312.81 91.17C312.81 100.6 306.45 110.59 281.24 110.59C259.32 110.59 251.83 102.87 251.83 94.58C251.83 89.69 254.9 87.2 258.76 84.93C256.03 82.89 253.77 80.5 253.77 76.87C253.77 70.62 257.18 67.33 262.06 64.15C257.4 59.61 254.11 53.93 254.11 46.66C254.11 32.58 266.04 24.4 279.78 24.4C285.34 24.4 290.68 25.99 295.45 28.83C298.86 25.65 301.92 23.61 306.92 23.61C308.51 23.61 310.21 23.72 311.8 24.06V35.87C310.09 35.19 308.28 34.51 306.46 34.51C304.65 34.51 303.51 35.08 301.92 35.87C303.74 39.28 305.22 43.03 305.33 46.66C305.33 60.74 293.52 68.92 279.78 68.92L273.52 68.45ZM268.18 89.46C266.59 90.48 265.57 91.39 265.57 93.43C265.57 99.34 277.5 99.68 281.47 99.68C284.31 99.68 299.07 99.34 299.07 94.23C299.07 90.94 296.8 91.28 286.8 90.71L268.18 89.46ZM279.76 57.78C286.8 57.78 288.85 51.99 288.85 45.97C288.85 40.18 286.12 35.29 279.76 35.29C272.72 35.29 270.56 41.2 270.56 47.22C270.56 53.01 273.29 57.78 279.76 57.78Z" fill="#EA5297"/>
<path d="M335.87 32.34C341.21 27.91 347.79 24.39 354.83 24.39C361.76 24.39 371.53 28.59 371.53 44.26V89.35H354.72V51.08C354.72 45.97 355.06 37.91 347.79 37.91C342.91 37.91 339.05 41.43 335.87 44.84V89.36H319.06V1.00999H335.87V32.34V32.34Z" fill="#EA5297"/>
<path d="M402.08 25.75H415.14V39.72H402.08V72.09C402.08 75.16 402.99 78.34 408.44 78.34C411.28 78.34 413.1 77.2 415.14 75.95V88.78C411.61 89.8 407.98 90.71 404.35 90.71C393.9 90.71 385.27 84.81 385.27 70.95V39.72H377.43V25.75H385.27V9.85001H402.08V25.75Z" fill="#EA5297"/>
<path d="M485.09 89.35H476L461.01 17.12H460.79L445 89.35H435.92L417.41 1H426.27L440.81 72.32H441.04L456.94 1H465.69L480.79 72.32H481.02L496.58 1H505.32L485.09 89.35Z" fill="#EA5297"/>
<path d="M501.44 58C501.44 34.49 512.57 24.84 526.54 24.84C540.51 24.84 551.64 34.49 551.64 58C551.64 81.51 540.51 91.16 526.54 91.16C512.58 91.17 501.44 81.51 501.44 58ZM542.78 58C542.78 47.33 540.18 32.34 526.54 32.34C512.92 32.34 510.3 47.33 510.3 58C510.3 68.68 512.92 83.67 526.54 83.67C540.18 83.67 542.78 68.68 542.78 58Z" fill="#EA5297"/>
<path d="M567.43 40.17H567.66C571.18 32.68 575.73 25.75 585.04 25.75H588.45V33.82C576.87 32.23 570.85 44.72 567.44 53.81V89.36H558.59V26.67H567.44V40.17H567.43Z" fill="#EA5297"/>
<path d="M604.45 55.73L627.73 26.66H637.61L620.35 48.12L640.22 89.34H630.68L614.66 55.27L604.44 67.88V89.34H595.58V0.990005H604.44V55.73H604.45Z" fill="#EA5297"/>
<path d="M678.61 40.63C675.09 35.41 670.89 32.34 664.3 32.34C658.51 32.34 653.06 35.29 653.06 41.65C653.06 56.98 686.11 50.28 686.11 71.41C686.11 83.68 677.36 91.17 665.55 91.17C655.44 91.17 647.26 86.74 642.16 77.99L649.2 73.56C652.61 80.03 658.06 83.67 665.55 83.67C672.02 83.67 677.81 80.15 677.81 72.99C677.81 57.21 644.77 64.7 644.77 42.21C644.77 31.42 653.63 24.84 663.96 24.84C672.7 24.84 679.97 28.47 684.85 35.74L678.61 40.63Z" fill="#EA5297"/>
</svg>
