<svg id="Camera" xmlns="http://www.w3.org/2000/svg" viewBox="0 0 50.57 45.55"><defs><style>.cls-1{fill:#1cae86;}</style></defs><title>camera</title><path class="cls-1" d="M273.63,238.32h-9.21l-2.55-6.22a1.41,1.41,0,0,0-1.27-.92H247.31a1.39,1.39,0,0,0-1.27.92l-2.55,6.22h-6.24v-.56a1.41,1.41,0,1,0-2.81,0v.56h-.16c-3.1,0-5.62,2.81-5.62,6.26v25.89c0,3.45,2.52,6.26,5.62,6.26h39.34c3.1,0,5.62-2.81,5.62-6.26V244.58C279.25,241.13,276.73,238.32,273.63,238.32Zm-25.41-4h11.47l1.64,4H246.58Zm25.41,39.3H234.28a3,3,0,0,1-2.81-3.13V244.58a3,3,0,0,1,2.81-3.13h39.34a3,3,0,0,1,2.81,3.13v25.89h0A3,3,0,0,1,273.63,273.6Z" transform="translate(-228.66 -231.18)"/><path class="cls-1" d="M239.85,244.58h-4.47a1.57,1.57,0,0,0,0,3.12h4.47a1.57,1.57,0,0,0,0-3.12Z" transform="translate(-228.66 -231.18)"/><path class="cls-1" d="M254,244.58c-6.41,0-11.62,5.8-11.62,12.94s5.2,13,11.62,13,11.61-5.8,11.61-13S260.36,244.58,254,244.58Zm0,22.76c-4.86,0-8.82-4.4-8.82-9.82s4-9.82,8.82-9.82,8.81,4.41,8.81,9.82S258.81,267.34,254,267.34Z" transform="translate(-228.66 -231.18)"/><path class="cls-1" d="M254,250.84a1.57,1.57,0,0,0,0,3.13,3.38,3.38,0,0,1,3.18,3.55,1.41,1.41,0,1,0,2.81,0C260,253.84,257.26,250.84,254,250.84Z" transform="translate(-228.66 -231.18)"/></svg>