<svg id="patitos" xmlns="http://www.w3.org/2000/svg" viewBox="0 0 50.61 45.58"><defs><style>.cls-1{fill:#1cae86;}</style></defs><title>duck</title><path class="cls-1" d="M565.15,546.28a31,31,0,0,0-1.33-6.39,2.64,2.64,0,0,0-2.07-1.77,2.72,2.72,0,0,0-2.6,1c-.14.17-.28.34-.45.52a9.74,9.74,0,0,1-1.4,1.27c-1.61,1.18-3.61,1.42-6.12,1.42h0c-.16,0-.26,0-.27-.08a.15.15,0,0,1,0-.18,14.59,14.59,0,0,0,2.11-7.44v-.26a14.75,14.75,0,0,0-14.42-14.52c-.36,0-.71,0-1,0h-.16a14.68,14.68,0,0,0-13.55,12.48c-.34.14-.69.26-1,.37a14.19,14.19,0,0,1-5.19.87,2.62,2.62,0,0,0-1.34.24,2.43,2.43,0,0,0-.67.44,1.39,1.39,0,0,0-.21.21,1.73,1.73,0,0,0-.27.35,2.87,2.87,0,0,0-.2.39,1.87,1.87,0,0,0-.13.42,2.6,2.6,0,0,0,.1,1.6c.86,2.18,3.67,7,11.1,5.13a15.14,15.14,0,0,0,.9,1.25.17.17,0,0,1,0,.23,12.2,12.2,0,0,0-3.38,9.52,13,13,0,0,0,4.57,9.51,12.36,12.36,0,0,0,7.17,2.33c3.42.18,6.84.21,10,.21h5.08c4.08,0,7.32-.83,9.64-2.43.15-.11.37-.27.54-.41a8.4,8.4,0,0,0,1.42-1.38C565.92,556.4,565.51,549.17,565.15,546.28Zm-5.31,13.12a5.47,5.47,0,0,1-1,1,3.14,3.14,0,0,1-.38.29c-1.84,1.28-4.55,1.93-8.05,1.94h-2.57c-4.06,0-8.25,0-12.4-.2a9.62,9.62,0,0,1-5.59-1.74,10.12,10.12,0,0,1-3.49-7.45,9.43,9.43,0,0,1,2.52-7.36,3,3,0,0,0,.26-4,11.59,11.59,0,0,1-1.2-1.81l-.55-1-1.12.36c-4.3,1.4-7.2.39-8.62-3a17.33,17.33,0,0,0,6.07-1c.67-.21,1.37-.47,2-.74l.78-.33.07-.85a11.84,11.84,0,0,1,10.95-10.79h.15l.89,0a11.91,11.91,0,0,1,11.64,11.74v.22a11.48,11.48,0,0,1-.28,2.47,11.92,11.92,0,0,1-1.43,3.54,2.93,2.93,0,0,0,0,3,2.9,2.9,0,0,0,2.57,1.51h.16c2.64,0,5.42-.23,7.77-2a11.86,11.86,0,0,0,1.79-1.62l.11-.12.39-.39a29.17,29.17,0,0,1,1.12,5.61C563,551.89,562.08,556.67,559.84,559.4Z" transform="translate(-514.76 -519.83)"/><path class="cls-1" d="M556.06,550.41l-.08-.31a2.29,2.29,0,0,0-.7-1,2,2,0,0,0-.3-.22l-.32-.16a2.37,2.37,0,0,0-.45-.15,11.87,11.87,0,0,1-3.86-1.22c-.56-.32-1.12-.71-1.71-1.11a18.35,18.35,0,0,0-2.87-1.75,8.38,8.38,0,0,0-9.16,1.61,8,8,0,0,0-2.42,4.71l0,.23h0v0c0,.07,0,.14,0,.2,0,.21,0,.43,0,.66a7.46,7.46,0,0,0,.32,2.27,6.86,6.86,0,0,0,1.44,2.65,8.83,8.83,0,0,0,6.83,3.08c.32,0,.65,0,1,0,5.13-.46,10.06-4.37,12.1-7.8a2.3,2.3,0,0,0,.35-1.22A2.69,2.69,0,0,0,556.06,550.41Zm-12.65,6.67A6.14,6.14,0,0,1,538,555a4.3,4.3,0,0,1-.87-1.6,5,5,0,0,1-.2-1.46c0-.15,0-.26,0-.37l0-.23,0-.14a5.3,5.3,0,0,1,1.58-3.11,5.56,5.56,0,0,1,6.06-1.1,17.72,17.72,0,0,1,2.45,1.51c.61.42,1.23.85,1.9,1.24a13.23,13.23,0,0,0,4.08,1.41C551.2,553.8,547.28,556.73,543.41,557.08Zm10.21-6.29-.13-.08.14.06Z" transform="translate(-514.76 -519.83)"/><path class="cls-1" d="M532.91,528.45a1.56,1.56,0,0,0-1.56,1.55v2a1.55,1.55,0,1,0,3.09,0v-2A1.55,1.55,0,0,0,532.91,528.45Zm-.17,3.58h0Zm.61-2h0Z" transform="translate(-514.76 -519.83)"/></svg>