<svg xmlns="http://www.w3.org/2000/svg" viewBox="0 0 34.43 50"><path d="M30.28 21.63L18.8 15a3.2 3.2 0 00-3.17 0L4.15 21.63a3.22 3.22 0 00-1.57 2.46 2.71 2.71 0 000 .29v3.82l3.58 2.06h.24c.24 0 .45.11.65.17h.07l.53.18h.05a7.17 7.17 0 01.69.3 8.47 8.47 0 012.3 1.64 6 6 0 01.48.53l4.41 2.61a3.72 3.72 0 003.71 0l12.63-7.3v-4a3.19 3.19 0 00-1.64-2.76zM10.5 28.69c-.86 0-1.56-.43-1.56-1s.7-1 1.56-1 1.56.43 1.56 1-.7 1-1.56 1zm3-4.28c-1.05 0-1.91-1.19-1.91-2.66s.86-2.67 1.91-2.67 1.91 1.19 1.91 2.67-.83 2.66-1.89 2.66zm7.39 0c-1.06 0-1.91-1.19-1.91-2.66s.85-2.67 1.91-2.67 1.91 1.19 1.91 2.67-.84 2.66-1.89 2.66zm2.84 4.28c-.86 0-1.56-.43-1.56-1s.7-1 1.56-1 1.56.43 1.56 1-.71 1-1.54 1zM6.11 39.09l-.06-.03-3.48-3.72-.01-.02v-.09l.01.01.05.05 3.49 3.8zM13.11 42.93L3.88 32.85l6.06 3.5.11.24 3.06 6.34zM13.51 43.37l-.26-.15-.14-.29.4.44zM31.87 33.41v3.81l-12.13 7a4.71 4.71 0 01-2.35.63h-.28l-2.93-6.08.2.12a6.11 6.11 0 006 0l11.46-6.62v1.12z" fill="none"/><path d="M31.58 19.41l-9.13-5.27a48.81 48.81 0 01.38-5.39 7.94 7.94 0 012.22-3.58 2.68 2.68 0 001.2.28 2.73 2.73 0 10-2.72-2.72 2.48 2.48 0 00.07.61 10.26 10.26 0 00-3 4.85 34.35 34.35 0 00-.4 4.63h-.08a5.85 5.85 0 00-5.73 0l-1.19.69a39.38 39.38 0 00-.37-4.46c-.52-2.37-2.72-3.38-4.26-3.8a2.71 2.71 0 10-.64 2.23c1 .27 2.37.85 2.64 2.07.15.71.29 3.37.36 5.27l-8 4.63-.3.18a5.79 5.79 0 00-2.57 4.79v8.05l.1.11 2.46 2.68v.05l3.48 3.8 2.06 2.23 7.93 8.49.06.08a6.2 6.2 0 001 .09 5.78 5.78 0 001.65-.24l.38-.13a6.94 6.94 0 00.83-.39l11.57-6.63a5.77 5.77 0 002.81-4.15c0-.17 0-.34.06-.57V24.38a5.76 5.76 0 00-2.87-4.97zm-18.31 23.8l-.14-.28L3.9 32.85h-.07l1.25.09.72.09c.15 0 .29.08.47.13l.42.14.47.2a5.78 5.78 0 012.66 2.67l.1.21.11.24 3.06 6.34.4.44zm18.6-7.12v1.13l-12.13 7a4.71 4.71 0 01-2.35.63h-.28l-2.93-6.08.2.12a6.11 6.11 0 006 0l11.46-6.62v1.12zm0-7.73l-12.63 7.3a3.72 3.72 0 01-3.71 0l-4.37-2.52a6 6 0 00-.48-.53 8.47 8.47 0 00-2.3-1.64 7.17 7.17 0 00-.69-.3h-.05l-.53-.18h-.07c-.2-.06-.41-.12-.65-.17h-.24l-.77-.1-2.81-.21v-5.57a2.71 2.71 0 010-.29 3.22 3.22 0 011.58-2.46l11.48-6.63a3.2 3.2 0 013.17 0l11.48 6.63a3.19 3.19 0 011.59 2.75z" fill="#ec6164"/><ellipse cx="20.91" cy="21.75" rx="1.91" ry="2.67" fill="#ec6164"/><ellipse cx="23.75" cy="27.74" rx="1.56" ry=".95" fill="#ec6164"/><ellipse cx="13.52" cy="21.75" rx="1.91" ry="2.67" fill="#ec6164"/><ellipse cx="10.5" cy="27.74" rx="1.56" ry=".95" fill="#ec6164"/></svg>