<svg xmlns="http://www.w3.org/2000/svg" viewBox="0 0 512 512"><path d="M235.1 274.5c11.6 11.6 30.4 11.6 42.1 0L474.1 77.6c-9.6-5-20.4-7.8-31.9-7.8H69.7c-11.5 0-22.3 2.8-31.8 7.8l197.2 196.9zM153.2 256l-35.5-35.5L6.8 109.6c-4.3 9.1-6.8 19.2-6.8 30v232.7c0 10.8 2.4 21 6.8 30.1L153.2 256zm205.6 0l146.4 146.4c4.4-9.1 6.8-19.3 6.8-30V139.6c0-10.7-2.5-20.9-6.8-30L358.8 256zm78.5 141.7l-110-109.8-20.2 20.2c-28.2 28.2-74 28.2-102.3 0l-20.2-20.2L74.7 397.7l-36.8 36.8c9.6 4.9 20.4 7.7 31.9 7.7h372.4c11.5 0 22.3-2.9 31.9-7.8l-36.8-36.7z" fill="#fff"/></svg>