<svg xmlns="http://www.w3.org/2000/svg"><path fill-rule="evenodd" clip-rule="evenodd" d="M150 300C232.843 300 300 232.843 300 150C300 67.1573 232.843 0 150 0C67.1573 0 0 67.1573 0 150C0 232.843 67.1573 300 150 300ZM68 99.9286L101.958 66H231V161L169.875 222.071H142.708L108.75 256V222.071H68V99.9286ZM190.25 181.357L217.417 154.214V79.5714H108.75V181.357H139.312V205.107L163.083 181.357H190.25ZM197.042 103.321H183.458V144.036H197.042V103.321ZM146.104 103.321H159.688V144.036H146.104V103.321Z" fill="white"/></svg>
