<svg xmlns="http://www.w3.org/2000/svg" viewBox="0 0 50.5 50.5"><path d="M49.09 8.19l-6.82-6.83a4.89 4.89 0 00-6.78 0L4.95 32.2a1.44 1.44 0 00-.35.6L.05 48.72a1.38 1.38 0 00.36 1.36 1.33 1.33 0 001 .41 2 2 0 00.39 0l15.91-4.55a1.47 1.47 0 00.59-.35l30.82-30.58a4.78 4.78 0 000-6.78zm-18.37 2l3.83 3.83-.09.09-21.33 21.33-1.41-2.86a1.37 1.37 0 00-1.24-.77H9.26zM3.4 47.12l1.24-4.34 3.1 3.1zm12.51-3.57h-.1l-5 1.43h-.05l-5.23-5.22v-.07l1.45-5.11h2.6l1.89 3.78a1.38 1.38 0 00.61.63l3.79 1.89zM40.25 19.9L18.68 41.24v-1.22a1.37 1.37 0 00-.77-1.24l-2.82-1.42.12-.12L36.5 15.95l.09.09 3.75 3.74zm6.89-6.83l-4.84 4.79-.09-.09-9.55-9.55 4.79-4.83a2.11 2.11 0 012.87 0l6.81 6.82a2 2 0 010 2.86z" fill="#ec6164"/></svg>