<svg xmlns="http://www.w3.org/2000/svg" viewBox="0 0 43.99 46.52"><path d="M31.05 5.24a4.46 4.46 0 00-.59-.67 7.5 7.5 0 00-1.71-1.31 11.83 11.83 0 00-2.2-1c-.33-.11-.7-.21-1.13-.31L22-.05l-3.45 2c-.38.08-.74.18-1.12.3a11.29 11.29 0 00-2.17.95 7.63 7.63 0 00-1.7 1.3 6 6 0 00-.59.68L.05 12.7v1.81L0 33.75l22 12.74 21.89-12.73.06-21.06-1.56-.92zM15.21 7.87l.06-.23a1.54 1.54 0 01.17-.34 3.1 3.1 0 01.7-.77c.2-.14.43-.31.69-.46a7.59 7.59 0 01.75-.38 11.25 11.25 0 012.74-.71l.66-.07a13.9 13.9 0 011.94 0h.13a4.09 4.09 0 01.53.07 9.61 9.61 0 011.34.24 9.42 9.42 0 011.42.48 7.92 7.92 0 01.77.38 6.54 6.54 0 01.67.45 3.13 3.13 0 01.73.79l.16.3.11.39v.14a1.12 1.12 0 010 .32.64.64 0 000 .07.31.31 0 010 .12l-.05.11a3 3 0 01-.78.92l-.32.24a3.13 3.13 0 01-.37.23 2.59 2.59 0 01-.33.17 2.23 2.23 0 01-.35.17l-.53.22a7.93 7.93 0 01-1.18.34c-.21.05-.41.09-.62.12a11.38 11.38 0 01-2 .18h-.77a10.14 10.14 0 01-1.35-.15 9.21 9.21 0 01-1.33-.3 3.82 3.82 0 01-.48-.15 7.36 7.36 0 01-1.29-.59 2.31 2.31 0 01-.37-.24 4.25 4.25 0 01-.86-.75 2.79 2.79 0 01-.46-.48 1.55 1.55 0 01-.12-.54.7.7 0 01-.01-.29zm5.51 18.63v16.1l-.18-.11L2.76 32.23V15.87l18 10.37zm1.31-3l-17.31-10 7.2-4.19v2c0 1.89 1.2 3.67 3.3 4.89a13.72 13.72 0 006.8 1.66 13.55 13.55 0 006.77-1.66 6.06 6.06 0 003.2-4.09 4.49 4.49 0 00.06-.73V9.32l7.26 4.2-17.23 10zm19.23-7.39v16.12h-.07L23.44 42.54V26.21l.2-.13 17.61-10.23z" fill="#1cae86"/></svg>