<svg id="cups" xmlns="http://www.w3.org/2000/svg" viewBox="0 0 41.31 55"><defs><style>.cls-1{fill:#008c50;}</style></defs><title>cups</title><path class="cls-1" d="M561.82,563.21c-.34-.2-.21-.57-.23-.88-.24-4.81-.49-9.61-.71-14.42,0-.64-.06-1.29-.89-1.28s-.83.7-.81,1.33c0,.24,0,.48,0,.72.22,4.48.42,9,.69,13.45.05.83-.12,1.09-1,1.08-4.13-.05-8.27-.06-12.4,0-1,0-1.09-.35-1-1.17q.52-9.78,1-19.58c0-.73.23-1,1-.94,3.09,0,6.18,0,9.27,0,2.11,0,2.11,0,2.31,2,0,.08,0,.16,0,.24.07.52.27.95.89.93s.81-.42.79-1,0-1.36-.08-2c-.07-1.59-.39-1.9-1.94-1.91h-6.23c-.29-1.73,1-3.63-1-5-.15-.1-.12-.52-.13-.8-.06-1.12-.09-2.24-.15-3.36,0-.59-.13-1.21-.91-1.15s-.73.62-.71,1.18c0,1.16,0,2.33.1,3.49,0,.6,0,.85-.73.85q-6.43,0-12.88,0c-.67,0-.81-.26-.78-.86q.46-9.18.86-18.38c0-.61.19-.83.82-.82q5.55,0,11.08,0c.63,0,.81.19.82.82.05,2.21.17,4.41.27,6.61.07,1.4.14,2.8.25,4.2,0,.55.25,1.06.95,1s.69-.57.72-1.07c0-.2,0-.4,0-.6-.19-4-.4-7.93-.54-11.9,0-.8-.43-.78-1-.77-4.66,0-9.32,0-14,0-.84,0-1,.3-1,1-.29,6.41-.62,12.82-.94,19.23,0,.72,0,1.41-.82,1.84a1.25,1.25,0,0,0-.46,1.18,7.14,7.14,0,0,0,.39,3.28h-6.86c-1.59,0-1.88.27-2,1.87q-.49,9.91-1,19.82c0,.81.16,1.71-.91,2.1-.27.09-.32.44-.32.74,0,.92,0,1.84,0,2.77a1,1,0,0,0,.85,1,16.5,16.5,0,0,0,2.63,0c.46,0,.67-.4.64-.87a.7.7,0,0,0-.78-.73h-.72c-.5,0-1,.15-1-.72s.24-1,1-1q7.53,0,15,0c.8,0,.89.37.92,1s-.46.67-.93.67H528.41a.76.76,0,0,0-.84.81c0,.56.33.78.83.82.32,0,.64,0,1,0l19.38,0c4.14,0,8.27,0,12.41,0,.69,0,1.55-.12,1.54-.8C562.65,566,563.61,564.31,561.82,563.21Zm-23.84,0c-4.17,0-8.34,0-12.51,0-.74,0-1.05-.1-1-1,.37-6.68.68-13.36,1-20,0-.51.16-.69.69-.69,3.69,0,7.37,0,11.06,0,.71,0,.74.37.76.91.14,3.36.31,6.71.47,10.07s.3,6.48.51,9.72C539,563,538.77,563.18,538,563.17Zm-3.06-24.82c-.65,0-1-.06-1-.88s.56-.78,1.09-.78h7.33c2.53,0,5.05,0,7.57,0,.63,0,1.06,0,1,.85s-.37.82-1,.82Q542.42,538.32,534.92,538.35Zm8.69,24.75c-1.22.58-1.06,1.65-1.06,2.7,0,.27.16.73-.37.7s-.33-.47-.33-.74c0-1,.19-2.12-1.09-2.66-.14-.06-.15-.52-.16-.79q-.48-9.84-1-19.69a10,10,0,0,0-.35-2.53h5.61q-.33,6.31-.65,12.62c-.17,3.25-.32,6.49-.49,9.73C543.75,562.67,543.74,563,543.61,563.1Zm16.53,3.36h-7.45c-2.52,0-5,0-7.56,0-.65,0-.91-.14-.91-.86s.32-.74.86-.74h15.13c.63,0,.93.1.93.84S560.67,566.46,560.14,566.46Z" transform="translate(-521.6 -513.26)"/></svg>