<svg xmlns="http://www.w3.org/2000/svg" viewBox="0 0 37.08 50.26"><path d="M28.52 18.54c1.76 1.11 4.1 2.28 5.92 2.06a3 3 0 001.39-.52c2.05-1.44 1-4.73.71-5.81a5.27 5.27 0 01.15-3.13 9.42 9.42 0 00.36-2v-.3a5.34 5.34 0 00-4.21-5.29 6.89 6.89 0 00-5 .52 11.26 11.26 0 00-17.07-.29 5.74 5.74 0 00-.53-.76 3.93 3.93 0 00-1-1 4.24 4.24 0 00-3.45-.4c-2.3.79-2.88 3.9-2.91 5v.21c-.08 3.42-.26 10.55 2.46 15 .19 1.53.87 6.53 1.87 8.87a55 55 0 01-2.57 4.87c-.31.44-.87 1.08-1.41 1.7a18 18 0 00-2.6 3.43 6.82 6.82 0 00-.35 4.28c.14.4 1.14 2.52 2.51 2.95a5 5 0 002 .12 5.94 5.94 0 002-.56 8.21 8.21 0 002.62-3.05l.26-.4c.42-.64 1-1.43 1.59-2.25s1.27-1.75 1.68-2.4 1.28-2.35 1.77-3.32a7.63 7.63 0 00.94 0c.63 1.09 2 3.55 2.47 4.51a27.78 27.78 0 011.33 4.23l.09.42v.05a6.93 6.93 0 00.88 2.64 6 6 0 004.07 2.31h.33a5.44 5.44 0 003.69-2.44c.63-1.25.19-2.82-.16-4.09-.06-.24-.12-.46-.17-.64a39.25 39.25 0 00-2.12-6.08c-.54-1.16-2.05-3.82-2.72-5a19.63 19.63 0 001.75-4.68c.74 1 1.92 2.65 2.46 3.46.73 1.09 2.21 3 3.89 3.38a3.5 3.5 0 001.27 0c1.35-.16 3-.89 3.6-2.14.23-.54.93-2.16-1.63-7.1-.85-1.43-4.08-4.43-6.16-6.36zM32.1 6.35a2.48 2.48 0 012 2.64 7.66 7.66 0 01-.27 1.39 8 8 0 00-.11 4.7 4.77 4.77 0 01.35 2.6c-.41.09-2.05-.34-4.41-1.89a13.75 13.75 0 00.79-5.7v-.16c0-.2-.05-.36-.05-.36a10.56 10.56 0 00-1-3.12 4.16 4.16 0 012.7-.1zM5.4 44.99a3.71 3.71 0 01-1.64.25A4.91 4.91 0 013 44.08a4.49 4.49 0 01.24-2.05 5.79 5.79 0 01.59-.9l2.72 2.4a5.77 5.77 0 01-1.15 1.46zm12.79-42a8.87 8.87 0 018.43 4.39.75.75 0 00.07.12 4.2 4.2 0 00-1.3-.69 20.94 20.94 0 00-4.51-.2c-.88-1-2.59-2.55-4.41-2.65a9 9 0 00-1.36 0 8.24 8.24 0 013.03-.99zm-12.41 4v-.2c0-.94.53-2.21.94-2.35a1.32 1.32 0 011 .12 1 1 0 01.3.3 4.74 4.74 0 01.86 1.79c-.19.41-.37.83-.52 1.26l-2.58.13c-.07-.42-.06-.78-.05-1.09zm.23 7.36l2-.24a11.74 11.74 0 001.39 3.36l-.8 1.71-1.27.43a17 17 0 01-1.37-5.3zm1.67 21.91c.51-.92 1.09-2.06 1.51-2.9a15.4 15.4 0 002.67 1.92c-.71 1.39-1.2 2.3-1.44 2.68-.07.12-.15.25-.24.38zm6.73-3a10.07 10.07 0 01-4.44-3.34c-.61-1.11-1.27-4.69-1.65-7.46l2.46-.84.76-1.6a11.68 11.68 0 009 2.86 11.31 11.31 0 002-.43l.38 1.27a38.57 38.57 0 01-1.09 4.39 9.49 9.49 0 01-1.3 2.92c-1.19 1.16-4.78 2.44-6.13 2.16zm11.06 11.21a6.72 6.72 0 01.36 2 2.9 2.9 0 01-1.41.87 3.81 3.81 0 01-1.68-1 4.18 4.18 0 01-.36-1.22l3.06-.71zm-2.07-6.25a.54.54 0 000 .11l-2.82.84c-.37-.76-1.06-2-2.07-3.78a13.73 13.73 0 002.61-1.26c.81 1.42 1.83 3.25 2.28 4.09zm1.46-20.47a8.29 8.29 0 01-4.68 2.16 8.66 8.66 0 01-7.61-3.07 8.85 8.85 0 01-1.86-4.4 8.24 8.24 0 01.77-4.56 11.41 11.41 0 014.89-1.25c.79 0 2.2 1.29 2.91 2.17l.42.53h.68a30.64 30.64 0 014.26.06c1.22.38 2.33 2.91 2.75 4.22a7.66 7.66 0 01-.35 1.18 8.69 8.69 0 01-2.23 2.96zm1.81 6.85l-.78-1.07v-.06l-.71-2.31a12.61 12.61 0 001.08-.77c.94.85 1.87 1.71 2.69 2.51zm6.95 6.25a2.83 2.83 0 01-1.55.49 5.82 5.82 0 01-2.13-2.17l-.54-.7 2.75-1.87c1.25 2.52 1.49 3.87 1.42 4.25z" fill="#1cae86"/><path d="M19.98 17.2a3.28 3.28 0 01-1.25.4 3 3 0 01-.43 0 4.55 4.55 0 01-2-.47 2.55 2.55 0 01-1.57-1.85 1 1 0 01.88-1.12 1 1 0 011.12.81 1.9 1.9 0 00.85.5 1.71 1.71 0 001.35-.06 1.012 1.012 0 111 1.76zM16.65 11.36a1 1 0 01-.88.86h-.26a1 1 0 01-.86-1.15c.08-.58 0-.81-.07-.84a.87.87 0 00-.61.41 1 1 0 11-1.57-1.17 2.57 2.57 0 013-1.08c.34.13 1.57.81 1.25 2.97zM25.77 14.76a1 1 0 01-.89.86h-.26a1 1 0 01-.67-.39 1 1 0 01-.19-.75c.09-.59 0-.82-.07-.85s-.33.05-.6.42a1.015 1.015 0 11-1.63-1.21 2.6 2.6 0 013-1.08c.4.15 1.62.84 1.31 3z" fill="#1cae86"/></svg>