<svg xmlns="http://www.w3.org/2000/svg" viewBox="0 0 50.61 45.58"><path d="M50.39 26.45a31 31 0 00-1.33-6.39 2.64 2.64 0 00-2.07-1.77 2.72 2.72 0 00-2.6 1c-.14.17-.28.34-.45.52a9.74 9.74 0 01-1.4 1.27c-1.61 1.18-3.61 1.42-6.12 1.42-.16 0-.26 0-.27-.08a.15.15 0 010-.18 14.59 14.59 0 002.11-7.44v-.26A14.75 14.75 0 0023.84.02h-1.16A14.68 14.68 0 009.13 12.5c-.34.14-.69.26-1 .37a14.19 14.19 0 01-5.19.87 2.62 2.62 0 00-1.34.24 2.43 2.43 0 00-.67.44 1.39 1.39 0 00-.21.21 1.73 1.73 0 00-.27.35 2.87 2.87 0 00-.2.39 1.87 1.87 0 00-.13.42 2.6 2.6 0 00.1 1.6c.86 2.18 3.67 7 11.1 5.13a15.14 15.14 0 00.9 1.25.17.17 0 010 .23 12.2 12.2 0 00-3.38 9.52 13 13 0 004.57 9.51 12.36 12.36 0 007.17 2.33c3.42.18 6.84.21 10 .21h5.08c4.08 0 7.32-.83 9.64-2.43.15-.11.37-.27.54-.41a8.4 8.4 0 001.42-1.38c3.9-4.78 3.49-12.01 3.13-14.9zm-5.31 13.12a5.47 5.47 0 01-1 1 3.14 3.14 0 01-.38.29c-1.84 1.28-4.55 1.93-8.05 1.94h-2.57c-4.06 0-8.25 0-12.4-.2a9.62 9.62 0 01-5.59-1.74 10.12 10.12 0 01-3.49-7.45 9.43 9.43 0 012.52-7.36 3 3 0 00.26-4 11.59 11.59 0 01-1.2-1.81l-.55-1-1.12.36c-4.3 1.4-7.2.39-8.62-3a17.33 17.33 0 006.07-1c.67-.21 1.37-.47 2-.74l.78-.33.07-.85A11.84 11.84 0 0122.76 2.89h1.04a11.91 11.91 0 0111.64 11.74v.22a11.48 11.48 0 01-.28 2.47 11.92 11.92 0 01-1.43 3.54 2.93 2.93 0 000 3 2.9 2.9 0 002.57 1.51h.16c2.64 0 5.42-.23 7.77-2a11.86 11.86 0 001.79-1.62l.11-.12.39-.39a29.17 29.17 0 011.12 5.61c.6 5.21-.32 9.99-2.56 12.72z" fill="#ec6164"/><path d="M41.3 30.58l-.08-.31a2.29 2.29 0 00-.7-1 2 2 0 00-.3-.22l-.32-.16a2.37 2.37 0 00-.45-.15 11.87 11.87 0 01-3.86-1.22c-.56-.32-1.12-.71-1.71-1.11a18.35 18.35 0 00-2.87-1.75 8.38 8.38 0 00-9.16 1.61 8 8 0 00-2.42 4.71v1.09a7.46 7.46 0 00.32 2.27 6.86 6.86 0 001.44 2.65 8.83 8.83 0 006.83 3.08h1c5.13-.46 10.06-4.37 12.1-7.8a2.3 2.3 0 00.35-1.22 2.69 2.69 0 00-.17-.47zm-12.65 6.67a6.14 6.14 0 01-5.41-2.08 4.3 4.3 0 01-.87-1.6 5 5 0 01-.2-1.46v-.74a5.3 5.3 0 011.58-3.11 5.56 5.56 0 016.06-1.1 17.72 17.72 0 012.45 1.51c.61.42 1.23.85 1.9 1.24a13.23 13.23 0 004.08 1.41c-1.8 2.65-5.72 5.58-9.59 5.93zm10.21-6.29l-.13-.08.14.06zM18.15 8.62a1.56 1.56 0 00-1.56 1.55v2a1.55 1.55 0 103.09 0v-2a1.55 1.55 0 00-1.53-1.55zm-.17 3.58zm.61-2z" fill="#ec6164"/></svg>