<svg id="nerf" xmlns="http://www.w3.org/2000/svg" viewBox="0 0 48.84 48.84"><defs><style>.cls-1{fill:#178c54;}</style></defs><title>nerf</title><path class="cls-1" d="M563.89,539.47H558l-.06-.52a17.07,17.07,0,0,0-15-14.86l-.52-.06V518a1.46,1.46,0,1,0-2.92,0v6l-.52.06A17.25,17.25,0,0,0,523.79,539l-.08.52H518a1.46,1.46,0,0,0,0,2.92h5.73l.06.52A17.24,17.24,0,0,0,539,558l.52.06v5.82a1.46,1.46,0,0,0,2.92,0v-5.84l.52-.06A17.26,17.26,0,0,0,558,542.91l.06-.52h5.87a1.46,1.46,0,1,0,0-2.92ZM555,543.05a14.31,14.31,0,0,1-11.92,12l-.67.09v-7.39a1.46,1.46,0,1,0-2.92,0v7.41l-.66-.09a14.28,14.28,0,0,1-12.07-12l-.09-.67h7.51a1.46,1.46,0,1,0,0-2.92h-7.49l.1-.67a14.35,14.35,0,0,1,12-11.75l.66-.09v7.2a1.46,1.46,0,1,0,2.92,0V527l.67.09A14.18,14.18,0,0,1,555,538.8l.1.67H547.7a1.46,1.46,0,0,0,0,2.92h7.37Z" transform="translate(-516.51 -516.51)"/></svg>