<svg xmlns="http://www.w3.org/2000/svg" viewBox="0 0 45.49 45.5"><path d="M45.5 10.85a10.79 10.79 0 00-.82-4.16 11.17 11.17 0 00-2.35-3.51A10.74 10.74 0 0037.49.37a9.35 9.35 0 00-3.2-.36 11 11 0 00-3.8.83 2.25 2.25 0 00-2.68.34l-1.6 1.6a2.17 2.17 0 00-.58 2.08 10.67 10.67 0 00-1.8 5.55l-2.7 4.18L6.04 32.73.69 38.85a2.74 2.74 0 00.13 3.76l2.07 2.08a2.76 2.76 0 003.78.12l1.42-1.27a4.71 4.71 0 00.49-.43l4.18-3.63 18.08-15 4.27-2.76a10.88 10.88 0 005.54-1.8 2.22 2.22 0 002.08-.58l1.6-1.6a2.16 2.16 0 00.48-.72 2.24 2.24 0 00.16-.84 2.14 2.14 0 00-.31-1.1 10.74 10.74 0 00.84-4.23zM9.72 38.31l-4.88 4.26-1.9-1.91 4.26-4.87zm2.2-1.88l-2.84-2.84L22.6 17.32l5.59 5.59zM30.5 21.19l-6.22-6.23 1.22-1.82 6.87 6.88zm4.69-2.41l-8.5-8.5a7.81 7.81 0 01.83-3l10.7 10.69a7.77 7.77 0 01-3 .81zm7.18-6.11l-9.54-9.53a7.9 7.9 0 011.83-.21 9.68 9.68 0 012.18.31l.33.17h.13a9 9 0 013 1.82 7.52 7.52 0 011.72 2.57 8 8 0 01.39 4.86z" fill="#1cae86"/></svg>