<svg xmlns="http://www.w3.org/2000/svg" viewBox="0 0 47.58 44.83"><path d="M42.14 29.62l.18-.14a9.32 9.32 0 10-11.22 0l.18.14-.22.08a16.06 16.06 0 00-9.4 9.5 16.1 16.1 0 00-1 5.52v.1h2.69v-.1a12.77 12.77 0 01.25-2.47 13.31 13.31 0 0122.76-6.71c.17-.29.32-.57.47-.86.27-.56.52-1.14.74-1.74a15.87 15.87 0 00-5.21-3.24zm-5.43-.94a6.63 6.63 0 116.63-6.62 6.62 6.62 0 01-6.63 6.62zM25.78 23.86l-2.23-2.22a3.81 3.81 0 01-1-1.92 10.37 10.37 0 003.75-4.62 9.52 9.52 0 00.28-6.09 11.8 11.8 0 00-4.52-6.31 15.85 15.85 0 00-18.61.77A10.43 10.43 0 00.87 15.36a10.58 10.58 0 002.59 3.6 14.43 14.43 0 0010 3.43 18.42 18.42 0 004.16-.48 7.37 7.37 0 005 2zm-5.32-6l-.65.4v.75a6.87 6.87 0 00.15 1.26v.12l-.11-.07a4.54 4.54 0 01-.89-.82l-.55-.65-.82.24a15 15 0 01-4.22.6c-7.44 0-10.83-4.45-10.83-8.59a7.81 7.81 0 012.61-5.81 11.93 11.93 0 018.22-2.73c6 0 9.66 3.54 10.64 7 .96 3.36-.39 6.44-3.55 8.35z" fill="#1cae86"/></svg>