<svg xmlns="http://www.w3.org/2000/svg" viewBox="0 0 43.05 49.72"><path d="M0 12.43v24.86l21.53 12.43 21.52-12.43V12.43L21.53 0zm10.09 27.58l-7.4-4.27v-8.55l7.4 4.27zm0-11.65l-7.4-4.28v-8.54l7.4 4.27zM4.03 13.21l7.41-4.28 7.4 4.28-7.4 4.27zm16.16 32.65l-7.41-4.28v-8.55l7.41 4.28zm0-11.65l-7.41-4.28v-8.57l7.41 4.28zm-6.06-15.16l7.4-4.27 7.4 4.27-7.4 4.28zm16.15 22.53l-7.41 4.28v-8.55l7.41-4.28zm0-11.65l-7.41 4.28v-8.55l7.41-4.28zm10.09 5.83l-7.41 4.27v-8.57l7.41-4.27zm0-11.66l-7.41 4.28v-8.52l7.41-4.27zm-1.35-10.87l-7.4 4.27-7.4-4.27 7.4-4.28zm-17.49-1.57l-7.4-4.28 7.4-4.27 7.4 4.27z" fill="#ec6164"/></svg>