<svg id="lego" xmlns="http://www.w3.org/2000/svg" viewBox="0 0 43.99 46.52"><defs><style>.cls-1{fill:#178c54;}</style></defs><title>lego</title><path class="cls-1" d="M549.71,522.54a4.46,4.46,0,0,0-.59-.67,7.5,7.5,0,0,0-1.71-1.31,11.83,11.83,0,0,0-2.2-1h0c-.33-.11-.7-.21-1.13-.31h0l-3.42-2-3.45,2c-.38.08-.74.18-1.12.3a11.29,11.29,0,0,0-2.17.95,7.63,7.63,0,0,0-1.7,1.3,6,6,0,0,0-.59.68l0,0L518.71,530v1.81l-.05,19.24,22,12.74,21.89-12.73.06-21.06-1.56-.92Zm-15.84,2.63.06-.23a1.54,1.54,0,0,1,.17-.34,3.1,3.1,0,0,1,.7-.77c.2-.14.43-.31.69-.46a7.59,7.59,0,0,1,.75-.38,11.25,11.25,0,0,1,2.74-.71l.66-.07a13.9,13.9,0,0,1,1.94,0h.13a4.09,4.09,0,0,1,.53.07,9.61,9.61,0,0,1,1.34.24A9.42,9.42,0,0,1,545,523h0l0,0a7.92,7.92,0,0,1,.77.38,6.54,6.54,0,0,1,.67.45,3.13,3.13,0,0,1,.73.79l.16.3.11.39v.14a1.12,1.12,0,0,1,0,.32.64.64,0,0,0,0,.07v0a.31.31,0,0,1,0,.12l-.05.11a3,3,0,0,1-.78.92l-.32.24a3.13,3.13,0,0,1-.37.23,2.59,2.59,0,0,1-.33.17,2.23,2.23,0,0,1-.35.17h0l-.53.22a7.93,7.93,0,0,1-1.18.34c-.21.05-.41.09-.62.12a11.38,11.38,0,0,1-2,.18c-.26,0-.51,0-.77,0a10.14,10.14,0,0,1-1.35-.15,9.21,9.21,0,0,1-1.33-.3,3.82,3.82,0,0,1-.48-.15,7.36,7.36,0,0,1-1.29-.59,2.31,2.31,0,0,1-.37-.24,4.25,4.25,0,0,1-.86-.75A2.79,2.79,0,0,1,534,526a1.55,1.55,0,0,1-.12-.54A.7.7,0,0,1,533.87,525.17Zm5.51,18.63,0,16.1-.18-.11-17.78-10.26v-.07l0-16.29,18,10.37Zm1.31-3-17.31-10,7.2-4.19v2c0,1.89,1.2,3.67,3.3,4.89a13.72,13.72,0,0,0,6.8,1.66,13.55,13.55,0,0,0,6.77-1.66,6.06,6.06,0,0,0,3.2-4.09,4.49,4.49,0,0,0,.06-.73v-2.06l7.26,4.2-17.23,10Zm19.23-7.39,0,16.12-.07,0-17.75,10.31v-.22l0-16.11.2-.13,17.61-10.23Z" transform="translate(-518.66 -517.3)"/></svg>