<svg xmlns="http://www.w3.org/2000/svg" viewBox="0 0 48.84 48.84"><path d="M47.38 22.96h-5.89l-.06-.52a17.07 17.07 0 00-15-14.86l-.52-.06V1.49a1.46 1.46 0 10-2.92 0v6l-.52.06A17.25 17.25 0 007.28 22.49l-.08.52H1.49a1.46 1.46 0 000 2.92h5.73l.06.52a17.24 17.24 0 0015.21 15.04l.52.06v5.82a1.46 1.46 0 002.92 0v-5.84l.52-.06A17.26 17.26 0 0041.49 26.4l.06-.52h5.87a1.46 1.46 0 100-2.92zm-8.89 3.58a14.31 14.31 0 01-11.92 12l-.67.09v-7.39a1.46 1.46 0 10-2.92 0v7.41l-.66-.09a14.28 14.28 0 01-12.07-12l-.09-.67h7.51a1.46 1.46 0 100-2.92h-7.49l.1-.67a14.35 14.35 0 0112-11.75l.66-.09v7.2a1.46 1.46 0 102.92 0v-7.17l.67.09a14.18 14.18 0 0111.96 11.71l.1.67h-7.4a1.46 1.46 0 000 2.92h7.37z" fill="#ec6164"/></svg>