<svg xmlns="http://www.w3.org/2000/svg" viewBox="0 0 43.12 45"><path d="M41.72 18.8h-6.13v-1.15a1.4 1.4 0 00-1.41-1.4H1.41A1.4 1.4 0 000 17.65v7.1a17.76 17.76 0 005.5 12.86H1.41A1.41 1.41 0 000 39.01a6 6 0 006 6h25.56a6 6 0 006-6 1.4 1.4 0 00-1.4-1.4H30.1a17.46 17.46 0 002.56-3.07h2a8.49 8.49 0 008.48-8.48V20.2a1.41 1.41 0 00-1.42-1.4zM31.56 42.2H6a3.22 3.22 0 01-2.87-1.79h31.29a3.21 3.21 0 01-2.86 1.79zm1.22-17.45a15.06 15.06 0 01-7.28 12.86H10.09a15.06 15.06 0 01-7.28-12.86v-5.7h30zm7.54 1.31a5.67 5.67 0 01-5.67 5.67h-.49l.15-.35c.08-.22.16-.46.24-.7l.18-.59c0-.15.09-.31.13-.48s.08-.27.11-.41a1.21 1.21 0 00.05-.18 21.49 21.49 0 00.46-2.36c0-.37.07-.75.09-1.12V21.6h4.75zM19.08 11.01l-.43.55a1.39 1.39 0 01-1.1.53 1.41 1.41 0 01-.87-.3 1.41 1.41 0 01-.23-2l.44-.55a2.24 2.24 0 000-2.77l-.43-.53a4.35 4.35 0 010-5.44 1.4 1.4 0 012-.23 1.43 1.43 0 01.53.94 1.42 1.42 0 01-.3 1 1.58 1.58 0 000 2l.43.53a5 5 0 01-.04 6.27zM24.52 13.66l-.44.55a1.39 1.39 0 01-2 .22 1.41 1.41 0 01-.52-.93 1.4 1.4 0 01.3-1l.43-.55a2.2 2.2 0 000-2.76l-.42-.54a4.33 4.33 0 010-5.43 1.41 1.41 0 012-.23 1.4 1.4 0 01.23 2 1.55 1.55 0 000 1.95l.43.53a5 5 0 01-.01 6.19zM14.01 13.66l-.44.55a1.41 1.41 0 01-2 .23 1.42 1.42 0 01-.23-2l.44-.55a2.22 2.22 0 000-2.76l-.43-.54a4.35 4.35 0 010-5.43 1.402 1.402 0 112.2 1.74 1.58 1.58 0 000 1.95l.43.53a5 5 0 01.03 6.28z" fill="#1cae86"/></svg>