<svg id="voley" xmlns="http://www.w3.org/2000/svg" viewBox="0 0 54 54.03"><defs><style>.cls-1{fill:#178c54;stroke:#178c54;stroke-miterlimit:10;stroke-width:2px;}</style></defs><title>voley</title><path class="cls-1" d="M542.42,567h-3a2.74,2.74,0,0,0-.39-.09,23.65,23.65,0,0,1-5.47-1,26.13,26.13,0,0,1-18.38-27.63,24.21,24.21,0,0,1,2.84-9.35,25.47,25.47,0,0,1,19.76-13.71,24.94,24.94,0,0,1,17,3.71c6.75,4.2,10.5,10.4,11.86,18.14.18,1,.27,2.07.41,3.11v2.34c-.1.81-.19,1.63-.31,2.45a26.07,26.07,0,0,1-13.22,18.83,24.44,24.44,0,0,1-8,2.8C544.43,566.76,543.42,566.87,542.42,567Zm6.19-35a20.5,20.5,0,0,0-6.17,7.93,1.29,1.29,0,0,0,.11,1.42,22.17,22.17,0,0,1,.74,23.2l-.32.58h.32a23.86,23.86,0,0,0,8.61-2.5,1.18,1.18,0,0,0,.41-.36,21.75,21.75,0,0,0,3.67-8.23,22.46,22.46,0,0,0-2.69-16.52A21.66,21.66,0,0,0,548.61,532Zm-4.3,19.19a.76.76,0,0,0,0-.2,20.58,20.58,0,0,0-3.18-8.69c-.29-.45-.57-.69-1.13-.56a5.19,5.19,0,0,1-1.12.06,21.84,21.84,0,0,1-17.9-8.26c-.73-.87-1.34-1.85-2-2.79a23.91,23.91,0,0,0-2.21,9.1.8.8,0,0,0,.13.42,24.2,24.2,0,0,0,27.42,10.92Zm15.61-25.35a.16.16,0,0,0,0-.1,24,24,0,0,0-6.44-5.6,1.25,1.25,0,0,0-.58-.11,23.22,23.22,0,0,0-9.37,2.37,23.74,23.74,0,0,0-11.77,12.49c-.49,1.18-.84,2.42-1.26,3.64l.52.21a21.14,21.14,0,0,0,8.45,1.33,1.53,1.53,0,0,0,1.56-1.05,21.75,21.75,0,0,1,15-12.49C557.28,526.23,558.61,526.09,559.92,525.87Zm-43,17.67c.07.55.11,1.05.2,1.55a23.66,23.66,0,0,0,3.52,9,10.17,10.17,0,0,0,1.92,2.46,27.21,27.21,0,0,0,4.37,2.83,23.65,23.65,0,0,0,15.64,2.12.67.67,0,0,0,.57-.48,20,20,0,0,0,1.25-5.15c.09-.94.12-1.88.17-2.81C533.34,555.44,524.18,552.29,516.87,543.54Zm12-5.73c3.23-10.65,10.28-17.07,21.28-19.31-.73-.25-1.32-.48-1.93-.67a23.84,23.84,0,0,0-9.38-1,11.72,11.72,0,0,0-6.05,1.9,24.43,24.43,0,0,0-9.81,14,.73.73,0,0,0,.13.59A19.87,19.87,0,0,0,528.85,537.81Zm26.87,22.45.17-.12a23.37,23.37,0,0,0,6.07-6.95,15.87,15.87,0,0,0,1.65-3.58,20,20,0,0,0,.24-8.51,22.56,22.56,0,0,0-6.7-12.64.75.75,0,0,0-.8-.23,20.71,20.71,0,0,0-6,2.52c-.11.06-.2.15-.24.17C558.62,539.49,560.4,549.24,555.72,560.26Zm-28-39.46h-.15a24,24,0,0,0-7.42,7.8.42.42,0,0,0-.06.32c.44.8.9,1.6,1.36,2.4A27.81,27.81,0,0,1,527.69,520.8ZM530,562.57a23.12,23.12,0,0,0,10.57,2.68.44.44,0,0,0,.35-.12c.37-.54.71-1.1,1.14-1.77A26.75,26.75,0,0,1,530,562.57Zm29.12-34.9-.05.19a26.34,26.34,0,0,1,6,10,35.79,35.79,0,0,0-1.25-4.84c-.63-1.71-1.48-3.33-2.25-5a.64.64,0,0,0-.43-.33C560.4,527.64,559.74,527.67,559.08,527.67Z" transform="translate(-514 -513.97)"/></svg>