<svg id="slideshare" xmlns="http://www.w3.org/2000/svg" viewBox="0 0 45.49 45.5"><defs><style>.cls-1{fill:#178c54;}</style></defs><title>slideshare</title><path class="cls-1" d="M564,527.71a10.79,10.79,0,0,0-.82-4.16,11.17,11.17,0,0,0-2.35-3.51,10.74,10.74,0,0,0-4.84-2.81,9.35,9.35,0,0,0-3.2-.36,11,11,0,0,0-3.8.83,2.25,2.25,0,0,0-2.68.34l-1.6,1.6a2.17,2.17,0,0,0-.58,2.08,10.67,10.67,0,0,0-1.8,5.55l-2.7,4.18-15.09,18.14-5.35,6.12a2.74,2.74,0,0,0,.13,3.76l2.07,2.08a2.76,2.76,0,0,0,3.78.12l1.42-1.27a4.71,4.71,0,0,0,.49-.43l4.18-3.63,18.08-15,4.27-2.76a10.88,10.88,0,0,0,5.54-1.8,2.22,2.22,0,0,0,2.08-.58l1.6-1.6a2.16,2.16,0,0,0,.48-.72,2.24,2.24,0,0,0,.16-.84,2.14,2.14,0,0,0-.31-1.1A10.74,10.74,0,0,0,564,527.71Zm-35.78,27.46-4.88,4.26-1.9-1.91,4.26-4.87Zm2.2-1.88-2.84-2.84,13.52-16.27,5.59,5.59ZM549,538.05l-6.22-6.23L544,530l6.87,6.88Zm4.69-2.41-8.5-8.5a7.81,7.81,0,0,1,.83-3l10.7,10.69A7.77,7.77,0,0,1,553.72,535.64Zm7.18-6.11L551.33,520a7.9,7.9,0,0,1,1.83-.21,9.68,9.68,0,0,1,2.18.31l.33.17.13,0a9,9,0,0,1,3,1.82,7.52,7.52,0,0,1,1.72,2.57,8,8,0,0,1,.39,4.86Z" transform="translate(-518.5 -516.86)"/></svg>