<svg id="talks" xmlns="http://www.w3.org/2000/svg" viewBox="0 0 47.58 44.83"><defs><style>.cls-1{fill:#178c54;}</style></defs><title>talks</title><path class="cls-1" d="M559.17,549.22l.18-.14a9.32,9.32,0,1,0-11.22,0l.18.14-.22.08a16.06,16.06,0,0,0-9.4,9.5,16.1,16.1,0,0,0-1,5.52v.1h2.69v-.1a12.77,12.77,0,0,1,.25-2.47,13.31,13.31,0,0,1,22.76-6.71c.17-.29.32-.57.47-.86.27-.56.52-1.14.74-1.74a15.87,15.87,0,0,0-5.21-3.24Zm-5.43-.94a6.63,6.63,0,1,1,6.63-6.62A6.62,6.62,0,0,1,553.74,548.28Z" transform="translate(-517.03 -519.6)"/><path class="cls-1" d="M542.81,543.46l-2.23-2.22a3.81,3.81,0,0,1-1-1.92v0l0,0a10.37,10.37,0,0,0,3.75-4.62h0a9.52,9.52,0,0,0,.28-6.09,11.8,11.8,0,0,0-4.52-6.31,15.85,15.85,0,0,0-18.61.77,10.43,10.43,0,0,0-2.58,11.89,10.58,10.58,0,0,0,2.59,3.6,14.43,14.43,0,0,0,10,3.43,18.42,18.42,0,0,0,4.16-.48h0v0a7.37,7.37,0,0,0,5,2Zm-5.32-6-.65.4,0,.75a6.87,6.87,0,0,0,.15,1.26l0,.12-.11-.07a4.54,4.54,0,0,1-.89-.82l-.55-.65-.82.24a15,15,0,0,1-4.22.6c-7.44,0-10.83-4.45-10.83-8.59a7.81,7.81,0,0,1,2.61-5.81,11.93,11.93,0,0,1,8.22-2.73c6,0,9.66,3.54,10.64,7C542,532.52,540.65,535.6,537.49,537.51Z" transform="translate(-517.03 -519.6)"/></svg>