<svg viewBox="0 0 300 300" xmlns="http://www.w3.org/2000/svg"><path fill-rule="evenodd" clip-rule="evenodd" d="M150 300C232.843 300 300 232.843 300 150C300 67.1573 232.843 0 150 0C67.1573 0 0 67.1573 0 150C0 232.843 67.1573 300 150 300ZM84.0923 70H215.489C223.503 70 230 76.497 230 84.5112V215.907C230 223.922 223.503 230.419 215.488 230.419H84.0923C76.0781 230.419 69.5812 223.922 69.5812 215.907V84.5112C69.5812 76.497 76.0781 70 84.0923 70ZM114.999 212.739C117.331 212.739 119.222 210.849 119.222 208.516V133.161C119.222 130.829 117.331 128.938 114.999 128.938H97.0224C94.6901 128.938 92.7995 130.829 92.7995 133.161V208.516C92.7995 210.849 94.6901 212.739 97.0224 212.739H114.999ZM88.933 104.757C88.933 114.189 96.579 121.835 106.011 121.835C115.442 121.835 123.088 114.189 123.088 104.757C123.088 95.3256 115.442 87.6797 106.011 87.6797C96.579 87.6797 88.933 95.3256 88.933 104.757ZM209.282 212.739C211.426 212.739 213.164 211.001 213.164 208.856V172.386V172.117C213.165 156.206 213.167 127.674 182.453 127.674C168.505 127.674 161.954 132.78 157.546 139.395V132.821C157.546 130.677 155.807 128.938 153.663 128.938H135.006C132.862 128.938 131.124 130.677 131.124 132.821V208.856C131.124 211.001 132.862 212.739 135.006 212.739H153.663C155.808 212.739 157.546 211.001 157.546 208.856V168.089C158.03 162.611 160.441 150.405 172.329 150.405C186.527 150.405 186.245 165.707 186.127 172.153C186.117 172.665 186.109 173.122 186.109 173.51V208.856C186.109 211.001 187.848 212.739 189.992 212.739H209.282Z" fill="white"/></svg>
