<svg xmlns="http://www.w3.org/2000/svg" viewBox="0 0 17.06 19.33"><g fill="#34256b"><path d="M5 5.38A3.11 3.11 0 015.74 5a8.69 8.69 0 01.85-.23A5.06 5.06 0 008.49 4a1.93 1.93 0 00.67-.87 1 1 0 00-.12-1 1.07 1.07 0 01-.28.81 1.63 1.63 0 01-.66.47 8.76 8.76 0 01-1.72.47 4.92 4.92 0 00-1 .33 2.67 2.67 0 00-1.52 2.6A4.39 4.39 0 015 5.38z"/><path d="M10.54 1.13a2.42 2.42 0 01.18 1.47 2.11 2.11 0 01-.67 1.19 2.72 2.72 0 01-.6.4 4.64 4.64 0 01-.72.32c-.51.18-1.06.31-1.63.46a5.3 5.3 0 00-1.8.77 2.25 2.25 0 00-.69.86 1.7 1.7 0 00-.13.56 1.67 1.67 0 00.08.55A2 2 0 006 9a2.12 2.12 0 01-.8-1.39.89.89 0 010-.33.81.81 0 01.13-.28 1.43 1.43 0 01.51-.43 5.36 5.36 0 011.51-.43 11.55 11.55 0 001.8-.45 5.46 5.46 0 00.85-.43 3.64 3.64 0 00.83-.63 2.85 2.85 0 00.81-1.94A2.86 2.86 0 0011 .79 2.2 2.2 0 009.35 0a2.43 2.43 0 011.19 1.13z"/><path d="M6.82 7.49a3.63 3.63 0 01.8-.14 5.54 5.54 0 00.8-.21 4.81 4.81 0 001.47-.77 3.1 3.1 0 001-1.3A4.75 4.75 0 019.65 6a6.25 6.25 0 01-1.32.52c-.39.12-.79.18-1.18.28a1.34 1.34 0 00-.82.45c-.24.33-.34 1 .12 1.21a.73.73 0 01.37-.97zm8.45 2.87h-.79a.58.58 0 01-.55-.36 1.17 1.17 0 00-1-.84H1.2a1.25 1.25 0 00-1.14 1.21A10.37 10.37 0 000 11.49C0 14.86 1.58 17 3.89 18a.19.19 0 010 .35 7.5 7.5 0 00-1.1.34.35.35 0 00.14.67h8.3a.35.35 0 00.14-.67 7.65 7.65 0 00-1.11-.34.19.19 0 010-.35 6.1 6.1 0 002.24-1.7.58.58 0 01.44-.21h.18a4 4 0 003.94-3.93 1.8 1.8 0 00-1.79-1.8zm-7.45 6.82a.12.12 0 010-.24c1.63-.46 3.57-1.72 3.57-5.17v-.9a.31.31 0 01.3-.36h1.34c.06 0 .19.13.21.36a6.79 6.79 0 010 .9c-.04 5.02-4.16 5.41-5.42 5.41zM14 14.49a.25.25 0 01-.31-.31 8.15 8.15 0 00.37-2.18.23.23 0 01.24-.23h1a.34.34 0 01.34.33A2.47 2.47 0 0114 14.49z"/></g></svg>