<?xml version="1.0" encoding="utf-8"?>
<!-- Generator: Adobe Illustrator 19.0.0, SVG Export Plug-In . SVG Version: 6.00 Build 0)  -->
<svg version="1.1" id="Layer_1" xmlns="http://www.w3.org/2000/svg" xmlns:xlink="http://www.w3.org/1999/xlink" x="0px" y="0px"
	 viewBox="894 -684 2400 2160" st3yle="enable-background:new 894 -684 2400 2160;" xml:space="preserve">
<style type="text/css">
	.st30{fill:#202326;}
	.st31{fill:#2C3033;}
	.st32{fill:none;}
	.st33{fill:none;stroke:#2C3033;stroke-width:0.5;stroke-miterlimit:10;}
</style>
<g id="skyline">
	<rect id="terra" x="894" y="0.7" class="st30" width="2400" height="1475.3"/>
	<g id="skyline-2">
		<path id="muntanya-2_4_" class="st31" d="M2054.3-14.1c-12.3,4.8-32.9,0.6-32.9,0.6s-40-14.4-62.8-15.8s-50.4,6.4-50.4,6.4
			l-35.2,2.3v4.9c-8.1,0.5-69,3.8-92.1-0.9c-24.8-5-81.8-12.1-81.8-12.1s-30.5-2.8-47-0.7s-29.5,6.3-40.8,7.2
			c-11.4,0.9-36,4.2-36,4.2s-24.9,0.9-42-0.2c-17.1-1.1-58.8-0.8-82.2,1.5s-95.4,5.6-95.4,5.6l-69.9,3.3l84.9,2.5h188.9L1873-6v0.4
			l213.4,2.1v-14.9C2086.4-18.4,2066.7-18.9,2054.3-14.1z"/>
		<path id="muntanya-2_1_" class="st31" d="M3014.9,0.1c0,0-78-17.3-117-16.7s-66-4.6-71.4-7c-5.4-2.4-21.9-9.6-31.4-13
			s-26.1-6.8-40.6-13.9c0,0-29.5-13.8-40.4-22.3s-29.9-16.3-49.1-18.5c-19.2-2.1-42.9-3.7-51.3-3.6c-8.4,0.1-23.8-0.5-46.7,21.8
			c-22.9,22.3-57.5,39.5-73.1,40.1s-104.6,8.8-104.6,8.8s-34.7,3.1-48.4,1.1c-13.7-2-24.4-1.9-24.4-1.9s-2.8-6.2-22.2-5.6
			C2275-30,2260-19.2,2260-19.2s-2.6,2.7-18,5.1c-15.4,2.3-48.6-0.5-56.2-2.1c-7.6-1.6-36.8-6.3-36.8-6.3V0h865.9V0.1z"/>
		<g id="collserola">
			<g id="XMLID_44_">
				<polygon id="XMLID_80_" class="st31" points="2625.3,-154.5 2624,-154.5 2624,-136.9 2623.5,-136.9 2623.5,-89 2626.2,-89 
					2626.2,-136.9 2625.3,-136.9 				"/>
				<path id="XMLID_79_" class="st31" d="M2625.4-170.8L2625.4-170.8L2625.4-170.8z"/>
				<polygon id="XMLID_78_" class="st31" points="2623.5,-140.4 2624,-140.4 2625.3,-140.4 2626.2,-140.4 2626.2,-141.2 
					2623.5,-141.2 				"/>
				<path id="XMLID_77_" class="st31" d="M2625.8-146.3c-0.2-0.2-0.5-0.1-0.3-0.5c0.2-0.3,0.2-0.3,0.3-0.5s0-0.4-0.1-0.6
					c-0.1-0.2-0.4-0.2-0.2-0.6c0.2-0.4,0.2-0.4,0.2-0.6s0.2-1,0-1.1c-0.2-0.1,0-0.5,0-0.7s0-0.3,0-0.5s-0.3,0-0.2-0.3
					s0.1-0.1,0.2-0.4c0.1-0.3,0-0.6,0-0.8s-0.1-0.3,0-0.5c0.1-0.2,0.3-0.3,0.1-0.6s-0.3-0.5-0.4-0.7c0-0.2,0-1.1,0-1.1
					s0.1-0.4-0.2-0.7c-0.3-0.3-1.1,1.6-1.1,1.6s-0.5,0.2-0.5,0.6c-0.1,0.4-0.2,0.7-0.2,0.9s-0.2,0.6,0,0.8s0.4,0.4,0.3,0.5
					s-0.1,0-0.1,0.3s-0.2,0.2-0.2,0.5s0.2,0.5,0.2,0.5c0-0.1,0,0,0,0l0,0c0,0,0,0.1,0,0.2c0,0.4-0.2,0.5-0.2,0.7s0.3,1.4,0.1,1.3
					s-0.3,0.3-0.2,0.4c0.1,0.1,0.3,0.2,0.2,0.5c-0.1,0.3-0.2,0.5-0.2,0.5c-0.1,0-0.2,0.3,0,0.5s0.3,0.1,0.2,0.3
					c-0.1,0.2-0.1,0.6,0,1c0.1,0.3,0.1,0.4,0.1,0.8c0,0.4-0.5,0.9-0.4,1.2s-0.1,0.6,0.2,0.7c0.3,0.1,0.5,0.8,0.5,0.8l0.5,0.6
					l0.9-0.9c0,0,0.3-0.1,0.4-0.4s-0.4-0.4-0.4-0.4l-0.3-0.4c0,0,0.2,0.1,0.5,0c0.3-0.1,0.2-0.5,0.2-0.7s0-0.5,0.1-0.8
					s0.3-0.3,0.2-0.5S2626-146.1,2625.8-146.3z"/>
				<path id="XMLID_76_" class="st31" d="M2623.7-150.9L2623.7-150.9C2623.7-150.9,2623.7-151,2623.7-150.9z"/>
				<path id="XMLID_75_" class="st31" d="M2629.7-122.5v-2.7l0,0c0.1,0,0.3,0.1,0.3-0.4s-0.4-0.3-0.4-0.3v-1.4c0,0,0.3,0.1,0.4-0.6
					c0.1-0.7-0.4-0.7-0.4-0.7v-4.5h0.2h0.1c0.4,0,0.4-0.6,0.4-1.1c0-0.4-0.6-0.5-0.6-0.5v-2.2h-3.5v20.4h3.3v-0.8
					c0,0,0.5,0.1,0.6-0.2c0-0.2-0.4-0.3-0.4-0.3v-0.1c0,0,0.4-0.1,0.5-0.4c0.1-0.3-0.6-0.3-0.6-0.3v-2.6c0.6,0,0.8-0.3,0.8-0.8
					C2630.5-122.5,2629.7-122.5,2629.7-122.5z"/>
				<path id="XMLID_74_" class="st31" d="M2618.6-136.4c0,0-0.3,0.1-0.3,0.2c0.1,0.1,0.3,0.2,0.3,0.2v0.3c0,0-0.1-0.1-0.1,0.2
					s0.1,1.3,0.1,1.4c0,0.1,0.5,0.3,0.5,0.3v0.8c0,0-0.4-0.1-0.6,0.1c-0.2,0.3-0.2,0.9-0.2,0.9v1.2c0,0,0,0.2,0.2,0.2s0.6,0,0.6,0
					v1.9c0,0-0.2,0.2,0,0.2c0.2,0,0.1,1.1,0.1,1.1v1c0,0-0.5,0-0.5,0.3s0.5,0.3,0.5,0.3v0.2c0,0-0.6,0.1-0.5,0.3s0.5,0.2,0.5,0.2
					v1.8c0,0-0.5,0-0.4,0.1c0.1,0.2,0.4,0.1,0.4,0.1v0.3c0,0-0.9,0.2-0.8,0.5c0,0.3,0.8,0.4,0.8,0.5v0.9c0,0-0.4,0.1-0.4,0.3
					s0.6,0.3,0.6,0.3l0.1,1.8c0,0-0.5,0-0.5,0.2c0,0.1,0.2,0.2,0.2,0.2v1.3c0,0-0.3,0.1-0.2,0.2c0,0.2,0.5,0.2,0.5,0.2h4.1v-20.4
					h-4.8v0.4H2618.6z"/>
				<polygon id="XMLID_73_" class="st31" points="2625.8,-153.9 2629.5,-136.9 2629.7,-136.9 2625.9,-154 				"/>
				<polygon id="XMLID_72_" class="st31" points="2618.7,-136.9 2619,-136.9 2624.2,-157.1 2624,-156.9 				"/>
				<rect id="XMLID_71_" x="2626.2" y="-139.7" class="st31" width="0" height="2.9"/>
				<polygon id="XMLID_70_" class="st31" points="2626.2,-138.7 2626.2,-138.4 2629.6,-137.3 2629.5,-137.5 				"/>
				<polygon id="XMLID_69_" class="st31" points="2625.8,-140.5 2626.1,-139.8 2626.2,-139.8 2625.9,-140.9 				"/>
				<polygon id="XMLID_68_" class="st31" points="2626.1,-140 2626.2,-139.9 2628.8,-141.1 2628.7,-141.2 				"/>
				<polygon id="XMLID_67_" class="st31" points="2620.4,-116.4 2596.3,-86.6 2596.6,-86.6 2620.7,-116.5 2620.5,-116.6 				"/>
				<polygon id="XMLID_66_" class="st31" points="2599.2,-86.6 2599.5,-86.6 2620.8,-116.6 2620.6,-116.6 				"/>
				<polygon id="XMLID_65_" class="st31" points="2627.2,-117 2647.4,-86.6 2647.8,-86.6 2627.5,-117 				"/>
				<polygon id="XMLID_64_" class="st31" points="2617.7,-112.2 2622.2,-89 2622.6,-89 2617.9,-112.5 				"/>
				<polygon id="XMLID_63_" class="st31" points="2626.4,-89 2626.7,-89 2630.1,-112.9 2629.8,-113.3 				"/>
				<polygon id="XMLID_62_" class="st31" points="2626.2,-113 2637.2,-86.6 2637.6,-86.6 2626.2,-113.7 				"/>
				<polygon id="XMLID_61_" class="st31" points="2629.2,-112.8 2618,-112.7 2617.8,-136.6 2619.2,-136.6 2618.7,-136.9 
					2617.6,-136.9 2617.7,-112.2 2629.4,-112.2 2629.6,-116.5 2629.2,-116.5 				"/>
				<polygon id="XMLID_60_" class="st31" points="2629.2,-112.5 2629.7,-112.2 2629.8,-112.5 2629.3,-112.7 				"/>
				<polygon id="XMLID_59_" class="st31" points="2617.7,-114.6 2629.1,-114.6 2629.1,-114.6 				"/>
				<polygon id="XMLID_58_" class="st31" points="2617.8,-116.5 2620.1,-116.5 2620.1,-117 2617.8,-117 				"/>
				<polygon id="XMLID_57_" class="st31" points="2617.7,-118.4 2620.1,-118.4 2620.1,-118.4 				"/>
				<rect id="XMLID_56_" x="2617.8" y="-120.8" class="st31" width="2.4" height="0.5"/>
				<polygon id="XMLID_55_" class="st31" points="2617.7,-122.7 2619.4,-122.7 2619.4,-122.7 				"/>
				<rect id="XMLID_54_" x="2617.8" y="-125.1" class="st31" width="1.4" height="0.5"/>
				<path id="XMLID_53_" class="st31" d="M2617.8-126.6"/>
				<path id="XMLID_52_" class="st31" d="M2619.2-126.7v0.2C2619.2-126.5,2620.2-126.7,2619.2-126.7z"/>
				<rect id="XMLID_51_" x="2617.8" y="-128.9" class="st31" width="1.4" height="0.5"/>
				<polygon id="XMLID_50_" class="st31" points="2617.7,-128.4 2618,-128.4 2619.3,-130.5 2619.2,-130.6 				"/>
				<polygon id="XMLID_49_" class="st31" points="2617.8,-130.8 2619,-130.8 2619,-130.8 2617.8,-130.8 2617.7,-130.8 				"/>
				<rect id="XMLID_48_" x="2617.8" y="-132.8" class="st31" width="1.4" height="0.5"/>
				<polygon id="XMLID_47_" class="st31" points="2617.7,-134.1 2617.8,-134.1 2619.2,-134.1 2619.2,-134.7 2617.8,-134.7 				"/>
				<g>
					<path id="XMLID_46_" class="st31" d="M2625.8-171.2c0-0.3-0.4-0.4-0.4-0.4l0,0c0,0,0.4,0,0.3-0.1c-0.1-0.1-0.3-0.1-0.3-0.1v-0.2
						c0,0,0.5,0,0.5-0.1s-0.5-0.1-0.5-0.1v-7.5c0,0,0.3-0.1,0.2-0.4s-0.5-0.5-0.5-0.5l-0.3-2.6l-0.3,2.7v8.9v17.3h1v-7.4
						c0,0-0.1-0.6-0.2-0.8c-0.1-0.2,0-0.9,0-0.9s0.2-0.6,0.1-1.1c0-0.5,0-1.6,0-1.6s-0.1-0.3-0.2-0.3s-0.2-0.4,0-0.5
						c0.2,0,0.3,0,0.4-0.2c0.1-0.1-0.1-0.2-0.1-0.2s-0.2-0.1-0.2-0.4s0-2.4,0-2.4s0.4,0,0.4-0.2s-0.1-0.4-0.3-0.4h-0.1l0,0l0,0l0,0
						C2625.4-170.8,2625.8-170.9,2625.8-171.2z"/>
					<path id="XMLID_45_" class="st31" d="M2623.6-171.2c0-0.3,0.4-0.4,0.4-0.4l0,0c0,0-0.4,0-0.3-0.1c0-0.1,0.3-0.1,0.3-0.1v-0.2
						c0,0-0.5,0-0.5-0.1s0.5-0.1,0.5-0.1v-7.5c0,0-0.3-0.1-0.2-0.4s0.5-0.5,0.5-0.5l0.4-2.6l0.3,2.7v8.9v17.3h-1v-7.4
						c0,0,0.1-0.6,0.1-0.8c0.1-0.2,0-0.9,0-0.9s-0.2-0.6-0.1-1.1c0-0.5,0-1.6,0-1.6s0.1-0.3,0.2-0.3c0.1,0,0.2-0.4,0-0.5
						c-0.2,0-0.3,0-0.4-0.2c-0.1-0.1,0.1-0.2,0.1-0.2s0.2-0.1,0.2-0.4s0-2.4,0-2.4s-0.4,0-0.4-0.2s0.1-0.4,0.3-0.4h0.1l0,0l0,0l0,0
						C2624-170.8,2623.6-170.9,2623.6-171.2z"/>
				</g>
			</g>
			<polygon id="XMLID_43_" class="st31" points="2625.7,-136.6 2626.2,-136.8 2626.2,-136.9 2626.2,-140 2626.1,-140 			"/>
		</g>
		<g id="_x34_columnes">
			<path class="st31" d="M1697.4-72.5v-1h-2.9h-1.1h-2.9v1c-0.7,0-1.2,0.6-1.2,1.3s0.6,1.3,1.3,1.3c0.4,0,0.7-0.2,0.9-0.4
				c-1.7,44,0,51.9,0,51.9h4.9c0,0,1.7-7.9,0-51.8c0.2,0.2,0.5,0.3,0.9,0.3c0.7,0,1.3-0.6,1.3-1.3
				C1698.6-71.9,1698.1-72.5,1697.4-72.5z"/>
			<path class="st31" d="M1716.3-72.5v-1h-2.9h-1.1h-2.9v1c-0.7,0-1.2,0.6-1.2,1.3s0.6,1.3,1.3,1.3c0.4,0,0.7-0.2,0.9-0.4
				c-1.7,44,0,51.9,0,51.9h4.9c0,0,1.7-7.9,0-51.8c0.2,0.2,0.5,0.3,0.9,0.3c0.7,0,1.3-0.6,1.3-1.3S1716.9-72.5,1716.3-72.5z"/>
			<path class="st31" d="M1735.2-72.5v-1h-2.9h-1.1h-2.9v1c-0.7,0-1.2,0.6-1.2,1.3s0.6,1.3,1.3,1.3c0.4,0,0.7-0.2,0.9-0.4
				c-1.7,44,0,51.9,0,51.9h4.9c0,0,1.7-7.9,0-51.8c0.2,0.2,0.5,0.3,0.9,0.3c0.7,0,1.3-0.6,1.3-1.3
				C1736.3-71.9,1735.8-72.5,1735.2-72.5z"/>
			<path class="st31" d="M1753.9-72.5v-1h-2.9h-1.1h-2.9v1c-0.7,0-1.2,0.6-1.2,1.3s0.6,1.3,1.3,1.3c0.4,0,0.7-0.2,0.9-0.4
				c-1.7,44,0,51.9,0,51.9h4.9c0,0,1.7-7.9,0-51.8c0.2,0.2,0.5,0.3,0.9,0.3c0.7,0,1.3-0.6,1.3-1.3
				C1755.1-71.9,1754.6-72.5,1753.9-72.5z"/>
		</g>
		<g id="mafre2">
			<path class="st32" d="M1625.3-48.9h13.2c1.3,0,1.7-0.6,2.8-1.4h-19.2C1624.5-48.9,1625.3-48.9,1625.3-48.9z"/>
			<rect x="1617.6" y="-104.7" class="st31" width="39.1" height="1.4"/>
			<rect x="1617.6" y="-109.5" class="st31" width="39.1" height="1.4"/>
			<path class="st31" d="M1631-121.7c0.1-0.1,0.1-0.1,0.1-0.3l0,0c0-0.1,0-0.2-0.1-0.3s-0.2-0.1-0.4-0.1h-0.7v0.7h0.7
				C1630.8-121.6,1630.9-121.6,1631-121.7z"/>
			<path class="st31" d="M1656.7-117.1h-7.7v-9h-22.9v9h-8.5v4.1h39.1V-117.1L1656.7-117.1z M1632.4-120.3c0,0.3-0.1,0.6-0.4,0.8
				s-0.6,0.3-1.1,0.3h-2v-4h2c0.2,0,0.5,0,0.6,0.1s0.3,0.1,0.4,0.3c0.1,0.1,0.1,0.2,0.2,0.3c0,0.1,0.1,0.2,0.1,0.4l0,0
				c0,0.2-0.1,0.4-0.2,0.6c-0.1,0.1-0.3,0.3-0.4,0.3c0.2,0.1,0.4,0.2,0.6,0.3C1632.3-120.8,1632.4-120.6,1632.4-120.3L1632.4-120.3z
				 M1634-119.2h-1.1v-4h1.1V-119.2z M1638-119.2h-3.2v-4h3.2v0.9h-2.1v0.6h1.9v0.9h-1.9v0.6h2.1V-119.2z M1642.3-119.2h-1l-1.7-2.2
				v2.2h-1.1v-4h1l1.6,2.1v-2.1h1.1v4H1642.3z M1646.2-119.2h-3.2v-4h3.2v0.9h-2.1v0.6h1.9v0.9h-1.9v0.6h2.1V-119.2z"/>
			<path class="st31" d="M1630.8-120.8h-0.8v0.7h0.9c0.2,0,0.3,0,0.4-0.1c0.1-0.1,0.1-0.2,0.1-0.3l0,0c0-0.1,0-0.2-0.1-0.3
				C1631.1-120.8,1630.9-120.8,1630.8-120.8z"/>
			<rect x="1617.6" y="-99.9" class="st31" width="39.1" height="1.4"/>
			<rect x="1617.6" y="-95" class="st31" width="39.1" height="1.4"/>
			<rect x="1617.6" y="-90.2" class="st31" width="39.1" height="1.4"/>
			<rect x="1617.6" y="-85.4" class="st31" width="39.1" height="1.4"/>
			<rect x="1617.6" y="-80.6" class="st31" width="39.1" height="1.4"/>
			<rect x="1617.6" y="-75.7" class="st31" width="39.1" height="1.4"/>
			<rect x="1617.6" y="-70.9" class="st31" width="39.1" height="1.4"/>
			<rect x="1617.6" y="-66.1" class="st31" width="39.1" height="1.4"/>
			<rect x="1617.6" y="-61.3" class="st31" width="39.1" height="1.4"/>
			<path class="st31" d="M1666.6-50.4c-1.1-0.2-3.1-0.2-4-0.4c-1-0.2-0.9-0.6-1.8-0.7c-0.3,0-2,0-4.2,0v-0.1H1620
				c-0.3-0.2-0.7-0.5-1-0.7c-4.7-3.5-5.7-4.4-5.7-4.4s-0.6,3.8-0.2,11.4c0,0,11.6,8.7,19.9,11.5c8.3,2.7,16.5,1.3,24.9-3.2
				s6.7-2.7,9.5-5.2c0,0,0.8-0.6,0.8-4.3C1668.3-50.3,1667.7-50.2,1666.6-50.4z M1638.6-48.9h-13.2c0,0-0.9,0-3.2-1.4h19.2
				C1640.2-49.5,1639.9-48.9,1638.6-48.9z"/>
			<rect x="1617.6" y="-56.5" class="st31" width="39.1" height="1.4"/>
			<path class="st31" d="M1636.3-31.9c-7.4-1.9-11.3-4-17.1-7.6c-0.6-0.4-1.1-0.7-1.5-1v11.6v7.9h39.1v-7.9V-35
				C1646.9-29.6,1636.3-31.9,1636.3-31.9z"/>
		</g>
		<g id="teleferic">
			<g id="teleferic-2">
				<path id="teleferic-2-cabina" class="st31" d="M1926.7-116.9v-2.3h-4.2l-0.2-0.9l0.8-3.2h0.1c0.8,0,0.7-1.3,0.7-1.3h-2.2
					c0,0,0-1.5-0.8-1.4s-0.8,1.4-0.8,1.4h-2.4c0.2,1.2,0.9,1.3,0.9,1.3s0.6,0,1.3,0l-0.6,4.1h-4.4v2.3c0,0-1.9,5,0,10.5h11.7
					C1926.7-106.3,1928.6-109.8,1926.7-116.9z M1922.3-120.4l-0.4-2.8c0.4,0,0.8,0,1.1,0L1922.3-120.4z M1922.3-119.1h-0.2
					c0,0,0-0.1-0.1-0.2l0.2-0.4L1922.3-119.1z M1921.6-123.2l0.5,3.1l-0.3,0.5c-0.1-0.2-0.3-0.3-0.5-0.4v-3.2
					C1921.5-123.2,1921.6-123.2,1921.6-123.2z M1920.5-112.7h-4.7c0,0,0-1.9,0.6-3.1h4.1V-112.7z M1919.8-119.1h-0.2l0.7-4.1
					c0.1,0,0.2,0,0.3,0v3.2C1919.9-119.8,1919.8-119.1,1919.8-119.1z M1921.4-112.7v-3.1h4c0,0,0.4,0.8,0.6,3.1H1921.4z"/>
				<rect x="1915.6" y="-110.8" class="st32" width="10.5" height="1.9"/>
			</g>
			<path id="teleferic-cable" class="st33" d="M1920.5-123.9c13.8,0.4,27.6,0.6,41.3,0.7c46.5,0.3,134.3-3.1,134.3-3.1
				s95-5.1,131.9-8.6c59.5-5.6,97.2-12,97.2-12"/>
			<g id="teleferic-1">
				<path id="teleferic-1-cabina" class="st31" d="M1926.7-116.9v-2.3h-4.4l-0.6-4.1c0.8,0,1.4,0,1.5,0c0.8,0,0.7-1.3,0.7-1.3
					h-2.2c0,0,0-1.5-0.8-1.4s-0.8,1.4-0.8,1.4h-2.4c0.2,1,0.7,1.2,0.9,1.2l0.8,3.2l-0.2,1h-4.2v2.3c-1.9,7,0,10.6,0,10.6h11.7
					C1928.6-111.9,1926.7-116.9,1926.7-116.9z M1921.4-123.3l0.7,4.1h-0.2c0,0-0.1-0.7-0.7-0.9v-3.2
					C1921.2-123.3,1921.3-123.3,1921.4-123.3z M1918.7-123.3c0.2,0,0.6,0,1.1,0l-0.4,2.8L1918.7-123.3z M1919.5-119.8l0.2,0.4
					c-0.1,0.1-0.1,0.3-0.1,0.3h-0.2L1919.5-119.8z M1920.3-112.7h-4.6c0.3-2.3,0.6-3.1,0.6-3.1h4V-112.7z M1919.8-119.6l-0.3-0.5
					l0.5-3.1c0.1,0,0.2,0,0.3,0v3.2C1920.1-119.9,1919.9-119.8,1919.8-119.6z M1921.1-112.7v-3.1h4.1c0.6,1.3,0.6,3.1,0.6,3.1
					H1921.1z"/>
				<rect x="1915.5" y="-110.8" class="st32" width="10.5" height="1.9"/>
			</g>
			<path id="teleferic-torre-1" class="st31" d="M1931.1-57.9l2.2-5.1h-2.4l-1.8-43.4l2.8-4.9l-2.6-0.9l-0.8-19.9l-3.2-4.8
				l-4.2-10l-0.5-19.9l-0.5,19.9l-4.1,10l-3.4,4.8l-0.9,19.9l-3,1.2l3,4.6L1910-63h-2.9l2.7,5.1l-5,46.1h3.3l12.4-24.9l12.8,24.9
				h3.1L1931.1-57.9z M1919-141.1l1.6-4.1l1.6,4.1H1919l-0.5,1.2h4.1l1.1,2.9h-6.3L1919-141.1z M1914.8-126.5h3.9c0,0,0.7,3,1.9,2.9
				s1.7-2.9,1.7-2.9h4.1l0.6,12.1h-12.8L1914.8-126.5z M1914-101h12.9l1.6,37.8h-15.8L1914-101z M1908.7-18.5L1912-53l7.1,13.8
				L1908.7-18.5z M1914-54.6h12.9l-6.4,12.8L1914-54.6z M1921.7-39.3l6.9-13.9l4,35.4L1921.7-39.3z"/>
			<path id="teleferic-torre-2_1_" class="st31" d="M2340.1-75.1l3-5.6h-3.4l-2.6-47.2l3.9-5.3l-3.6-1l-1.2-21.6l-4.5-5.3L2326-172
				l-0.7-21.6l-0.7,21.6l-5.7,10.9l-4.9,5.3l-1.2,21.6l-4.3,1.3l4.3,5l-2.6,47.2h-4.1l3.7,5.6l-7,50.1h4.7l17.5-27.1l18.1,27.1h4.5
				L2340.1-75.1z M2323-165.6l2.2-4.5l2.2,4.5H2323l-0.7,1.3h5.8l1.6,3.1h-8.9L2323-165.6z M2317.1-149.7h5.5c0,0,1,3.2,2.7,3.1
				c1.7-0.1,2.4-3.1,2.4-3.1h5.7l0.9,13.1h-18.1L2317.1-149.7z M2315.9-122h18.2l2.2,41.1h-22.4L2315.9-122z M2308.5-32.3l4.7-37.5
				l10,15L2308.5-32.3z M2315.9-71.5h18.2l-9.1,13.9L2315.9-71.5z M2326.8-54.9l9.8-15.1l5.6,38.5L2326.8-54.9z"/>
		</g>
		<g id="abella">
			<g id="abella-abella">
				<path class="st31" d="M1804.8-89.5c-0.1,0-0.2,0.1-0.1,0.2l0.1,0.3c0,0.1,0.1,0.2,0.2,0.1c0.1,0,0.2-0.1,0.1-0.2l-0.1-0.3
					C1805-89.5,1804.9-89.6,1804.8-89.5z"/>
				<path class="st31" d="M1808.4-90.7c-0.1,0-0.2,0.1-0.1,0.2l0.1,0.3c0,0.1,0.1,0.2,0.2,0.1c0.1,0,0.2-0.1,0.1-0.2l-0.1-0.3
					C1808.6-90.7,1808.5-90.7,1808.4-90.7z"/>
				<path class="st31" d="M1807.3-89.9c-0.1,0-0.2,0-0.3,0.1c0,0.1-0.1,0.2-0.3,0.2c-0.2,0-0.2,0-0.3,0c-0.1-0.1-0.2,0-0.3,0.1
					c-0.1,0.1,0,0.2,0.1,0.3c0.2,0.1,0.4,0.1,0.7,0.1c0.2-0.1,0.4-0.2,0.5-0.4C1807.4-89.8,1807.4-89.9,1807.3-89.9z"/>
				<path class="st31" d="M1808-92.9c-0.3-0.2-0.7-0.4-1-0.5c-0.2-0.1-0.3-0.1-0.5-0.1c-0.1-0.3-0.1-0.8-0.1-1.3c0.1,0,0.1,0,0.2,0
					c0.4-0.1,0.6-0.6,0.4-0.9c-0.1-0.3-0.5-0.5-0.8-0.4c-0.4,0.1-0.6,0.6-0.4,0.9c0.1,0.1,0.1,0.2,0.3,0.3c-0.1,0.5,0,1,0,1.3
					c-0.4-0.1-0.8-0.1-1.3-0.1c0-0.3-0.1-0.6,0-1c0.1,0,0.1,0,0.2,0c0.2-0.1,0.4-0.2,0.4-0.4c0.1-0.2,0.1-0.3,0-0.5
					c-0.1-0.3-0.5-0.5-0.8-0.4c-0.4,0.1-0.6,0.6-0.4,0.9c0.1,0.1,0.1,0.2,0.3,0.3c-0.1,0.4,0,0.8,0,1.1c-0.3,0-0.5,0.1-0.8,0.1
					c0,0,0,0,0-0.1c0-0.5-0.2-1-0.5-1.3s-0.8-0.5-1.2-0.5c-0.8,0-1.5,0.7-1.7,1.5c-0.5-0.3-1.1-0.4-1.7-0.2
					c-0.2,0.1-0.3,0.1-0.5,0.2c-0.9,0.6-1.1,1.9-0.4,2.8c0.3,0.4,0.7,0.7,1.1,0.8c-0.2,0.3-0.4,0.7-0.5,1c-0.2,0.5-0.2,1.1-0.2,1.6
					L1797-87c-0.1,0.1-0.2,0.2-0.1,0.3c0,0.1,0.2,0.2,0.3,0.2h1.3c0.3,0.4,0.6,0.8,1,1.2c0.6,0.5,1.4,0.8,2.2,0.9
					c0.7,0.1,1.5,0.2,2.3,0.1c0.5-0.1,1-0.2,1.5-0.3c0.7-0.2,1.3-0.5,1.9-0.9c1.2-0.8,2.1-1.9,2.4-3.1l0,0
					C1810.2-90.3,1809.4-92,1808-92.9z M1809.3-88.7c-0.3,1.1-1.2,2-2.3,2.4c-1.3,0.4-2.7,0.1-3.6-0.9c-0.9-0.9-1.2-2.3-0.8-3.5
					c0.4-1.3,2-2,3.2-1.4c0.1,0,0.1,0.1,0.2,0c0.1,0,0.1-0.1,0.2-0.2c0.1-0.3,0.4-0.5,0.7-0.6c0.3-0.1,0.6,0,0.9,0.1
					c0.7,0.5,1.3,1.1,1.5,1.9C1809.5-90,1809.5-89.3,1809.3-88.7z M1800.5-93.7c0-0.6,0.4-1.1,1-1.3c0.1,0,0.2-0.1,0.4-0.1
					c0.4,0,0.7,0.1,1,0.4c0.3,0.3,0.4,0.6,0.4,1v0.1c0,0-0.2,0.1-0.3,0.1c-0.3,0.1-0.5,0.2-0.8,0.3c-0.1,0-0.4,0.2-0.4,0.2
					c0-0.4,0.1-0.9,0.3-1.3c0.1-0.1,0-0.2-0.1-0.3c-0.1-0.1-0.2,0-0.3,0.1c-0.1,0.3-0.4,0.8-0.3,1.7c-0.1,0-0.2,0.1-0.2,0.1
					c0-0.2-0.1-0.3-0.2-0.5C1800.8-93.4,1800.7-93.6,1800.5-93.7z M1798.8-90.7c-0.4-0.1-0.7-0.4-1-0.7c-0.5-0.8-0.4-1.8,0.3-2.3
					c0.6-0.4,1.5-0.3,2,0.2c0.3,0.3,0.5,0.6,0.6,1l0,0c-0.2,0.1-0.5,0.3-0.7,0.5c-0.3-0.4-0.7-0.9-1.3-1.2c-0.1,0-0.2,0-0.3,0.1
					c-0.1,0.1,0,0.2,0.1,0.3c0.5,0.3,1,0.8,1.2,1.1c-0.2,0.2-0.4,0.4-0.5,0.6C1799.1-91.1,1798.9-90.7,1798.8-90.7z M1801.8-84.7
					L1801.8-84.7c-0.3-0.2-0.5-0.5-0.7-0.7c-0.6-0.6-1-1.4-1.3-2.2c-0.3-1-0.4-2.2-0.1-3.3c0-0.1,0.1-0.3,0.1-0.3l0,0
					c0.3-0.3,0.7-0.7,1.1-0.9l0,0c-0.1,0.2-0.1,0.3-0.1,0.5c-0.3,1.2-0.3,2.5,0.1,3.7c0.4,1.3,1.2,2.4,2.3,3.2c0,0,0.2,0.1,0.2,0.2
					C1802.8-84.6,1802.3-84.6,1801.8-84.7z"/>
			</g>
			<rect x="1798.6" y="-90.1" class="st32" width="10.5" height="1.8"/>
		</g>
	</g>
	<g id="skyline-1">
		<path id="muntanya-1" class="st30" d="M894,4.1h2400v-12h-312.4c0,0-23.9,0-32.9-0.4c-18.7-0.9-33.4-2-38.3-3.3
			c-17.9-4.8-74.2-2.3-74.2-2.3s-22.1-0.4-29.8-2s-32.9,1-46.6,0.5c-13.7-0.5-18.5-2.3-18.5-2.3l-60.4-6.7c0,0-10.1-0.4-17.8,2.4
			c-7.7,2.8-13.1,7.3-26.5,6.9c-13.3-0.4-35-4.8-35-4.8s-26-2.3-45.5-1.6s-71.7,5.7-71.7,5.7l-14.6,2.8l-3.1,2.1l-3.7,1h-63.4
			l-8.8-3l-38.4,1.5c0,0,0.2-3.7-11.1-4.7c-11.3-1-57.7,3.2-57.7,3.2l-11.5-1.2l-9.4,1.2h-21.6h-20.3c0,0-13.2-0.8-20.6,1.1
			c-7.4,1.9-14.6,3.9-21.7,4h-153.8c0,0-34.7-12.2-51.1-12.1c-16.4,0.2-64.4,2.9-64.4,2.9l-21.6-2.4c0,0-8.1,4.6-17.8,5.9
			c-9.7,1.2-31.1-0.8-31.1-0.8l-48.5,1.3c0,0-16.1-0.5-23.8,0.5c-7.7,1.1-23.8,2.3-41.2-1c-17.4-3.3-38.7-9.1-49.9-8.8
			c-11.2,0.4-23.6,4.5-39.1,5.7s-46.4,1-60.4-0.1s-38.7-13.5-38.7-13.5l-12.7,5.8l-52.2,7.6l-50.4-0.9l25.4-12.5l-1.5-2.4
			c0,0-54.2,23.3-144.6,24.7c-6.3,0.1-12.6,0.2-18.9,0.3c-0.1,0-0.2,0-0.2,0L894-7.9V4.1z"/>
		<path id="telefonica" class="st30" d="M1511.1-40.5l-1.7-2.9l-48.1-127.1l19.9,8.6c0,0,1.4-2,1.7-13c13,0.1,31.4-12.2,29.1-22.8
			c-2.4-10.8-7.3-14.1-17.2-20.8c-2.7-1.9-6.5-3-10.8-3.6c-0.2-34-2.9-41.8-2.9-41.8c-2.3,19.7-2.7,35.6-2.8,41.3
			c-9.9-0.5-20.5,0.8-24.5,1.2c-6.6,0.7-4.6,5.7-3.9,7.6c0.7,1.9,7.2,1.2,7.2,1.2s16.3,1.2,18.8,1.7s1.3,1.8,1.3,1.8l-36.1,23.7
			l41,111.4c6.9,19.4-14.1,29.7-14.1,29.7l-68.9,32l92.5-0.3v-0.2h46.4v-17.8L1511.1-40.5z M1484.5-194.6c0.6-4.5,3-9.6,3-9.6
			s2.7-5.3,8.6,0c0,0,7.3,4,1.7,9.6c-5.6,5.6-8.4,5.7-9.9,5.8S1483.8-190.1,1484.5-194.6z M1463-189.8c1.5-1.6,13.9-11,13.9-11
			s1.2-1.4,1.2,0v12.8h-14.6C1463.5-188,1461.5-188.2,1463-189.8z M1479.7-175.1c0,2.3,0.2,6.3,0.8,10.4l-20-8l-1.2-3.2
			C1459.3-175.9,1468-175.5,1479.7-175.1z M1504.9-34.9v4.5l-13.2,5v1.8c-5.4,0-22.6,0-25.3,0c-3.2,0-4.4,0.4-4.4,0.4
			s-11.8,1-15.8,1.3s-0.3-1.9-0.3-1.9l61.9-18.4l2.1,2.7l0.1,4.6L1504.9-34.9L1504.9-34.9z"/>
		<g id="vela">
			<path id="vela-1" class="st30" d="M1858.5-119.7c0,0,2.6-0.1,2.6-1.1c0-0.9-2.6-1.2-2.6-1.2v-4.5c0,0,2.6-0.3,2.6-1.1
				s-2.6-1.1-2.6-1.1v-14.8c-22.8,0.2-52,10.4-65.7,43c0,0-9.9-0.1-10.1,0.8c-0.2,0.8,6.3,10.5,6.4,10.6c-3.5,14-3.9,29.7-3.2,43.2
				l-0.2-0.7c0,0-0.7,0.5-1.6,0.5c-0.9,0-2.4-1.3-3.6-0.5s0.1,1.9-0.9,2.1s-2.5,2.1-1.8,2.5s1.2,1.9,2.7,2.2s2,0.8,1.2,1.7
				s-1,2.4-1.9,2.1c-0.9-0.3-0.8,0.4-1.1,0.8c-0.2,0.3-0.1,0.5-1.2,1.3c-1,0.8-1.3,2.1,0,2.2c1.3,0.1,1.8,1,1.9,1.4
				c0.1,0.4,0.6,0.7,1.2,0.6s1.1,0.8,1.4,1.3s2.2,1,2.5,1.2c0.2,0.2,1.2,1.2,0.4,2s-2.1,2.7-3,1.6c-0.8-1.1-0.9-2.2-2-2
				s-1.2,1.8-1.8,0.6c-0.6-1.2-0.3-1.4-1-2c-0.7-0.6-0.4-0.5-1.7-0.4s-1.2,0.2-2.5-0.4c-1.2-0.6-3.1-0.7-3.3,0.5
				c-0.2,1.2-0.6,2.6,0,3c0.6,0.3-0.3,1.6-0.3,2.1s-1.7,2.8-0.4,3.1c1.2,0.3,1.1,2.1,2.2,1.7c1.2-0.4,1-0.6,1.4,0.1
				c0.4,0.7,0.1,1.4,0.7,1.9c0.6,0.4,1.7,3,1.7,3h20.3l0,0h32.9v-37.8h30.4L1858.5-119.7L1858.5-119.7z M1853.4-133l-1.8-3.5
				l-1.3,3.6l-3.7-6.5h1.5l2,3.8l1.5-4.1l1.8,4.3l2-4h1.3L1853.4-133z"/>
			<rect id="vela-2" x="1830.2" y="-48.2" class="st30" width="62.6" height="35.6"/>
		</g>
		<path id="mnac" class="st30" d="M2168.5-38.3c-0.5-0.2-5.2-0.1-5.2-0.1s-0.9,0.5-1-4.2s-1.1-7.3-2.9-7.8c0,0-0.5,0.1-0.5-2.2
			s-0.5-2.8-0.5-2.8s-0.5-0.8-0.9,0s-0.3,1.7-0.3,2.7s0,2-0.5,2.4s-3,0.8-3.1,7.3c0,0,0,3.9-0.5,4.4s-1.5,0.5-1.5,0.5l-14.2-0.1
			c0,0-0.7,0.1-0.7-1.3c0-1.4,0-13.3,0-13.3s-0.1-6.4-2.9-7.6c0,0-0.4-0.1-0.6-0.2v-3.1c0,0,0-0.5-0.3-0.9c-0.3-0.4-1,0-1,1
			l-0.2,3.2c0,0-3.9,0.5-3.9,7.5v14.2l-1.3-0.9c0,0-5.8-3.2-12.5-3.6V-47h-9.9v-9.8c0,0,0.2-9.8-5.6-11.5l-0.9-0.2v-4.7
			c0,0,0.1-2.2-0.5-2.4c-0.1,0-0.2-0.1-0.3-0.1c0-1.2,0-3.7-0.4-5.1c0,0-0.3,2.3-0.4,5.1c-0.1,0-0.2,0.1-0.2,0.1s-0.6,0.2-0.6,2.4
			s0,5,0,5s-6.2,0.5-6.6,10.9v10.4h-9.9v3.8c-6.6,0.4-12.6,3.6-12.6,3.6l-1.4,0.9v-14.2c0-7-3.7-7.5-3.7-7.5v-3.2c0-0.9-0.7-1.3-1-1
			s-0.3,0.9-0.3,0.9v3.1c-0.1,0-0.6,0.2-0.6,0.2c-2.8,1.1-2.9,7.6-2.9,7.6s0,11.8,0,13.3c0,1.4-0.7,1.3-0.7,1.3l-14.2,0.1
			c0,0-1,0.1-1.5-0.5s-0.5-4.4-0.5-4.4c-0.1-6.5-2.7-7-3.1-7.3s-0.4-1.4-0.5-2.4c0-1,0.1-1.9-0.3-2.7s-0.9,0-0.9,0s-0.4,0.5-0.5,2.8
			c0,2.3-0.5,2.2-0.5,2.2c-1.8,0.5-2.8,3.1-2.9,7.8s-1,4.2-1,4.2s-4.7-0.1-5.2,0.1c-0.5,0.2-0.5,0.4-0.5,0.4h-0.2v31.3h145.6v-31.3
			h0.1C2169-37.9,2168.9-38.1,2168.5-38.3z"/>
		<path id="triomf" class="st30" d="M2239-11.2h19.4c0-4.7-1.5-4.7-1.5-4.7v-38.9h0.1c0,0,1.4-1.4,1.3-4.1s-0.8-3.3-1.9-3.9
			c0,0,0.1-1.1-0.3-1.5c-0.4-0.4-0.9,0.3-0.9,0.3s-0.9-1-1.3-0.1c0,0-0.2,0.6-0.1,1.3c0,0-1.6,0.6-1.6,3.6c0,0-0.9,1.8-1.8,0
			c0,0,0.1-1.8-0.8-2.9c-0.8-1.1-1.3-1.1-1.3-1.1s0.1-0.8-0.4-1.1c0,0-0.3-0.2-0.6,0.3c0,0-0.4-0.5-0.6-0.3
			c-0.2,0.2-0.4,0.5-0.4,1.1c0,0-1.1,0.5-1.5,2.1s-0.5,2.8-1.4,2.8h-11.2c0,0,0.2-0.9-0.4-1.4c0,0-0.4-0.1-0.7-0.1s-0.7-0.5-0.8-0.8
			s-0.4-0.4-0.4-0.4h-0.3l0,0h-0.5h-0.6l0,0h-0.1c0,0,0,0.1-0.1,0.4c-0.1,0.3-0.4,0.8-0.8,0.8s-0.7,0.1-0.7,0.1
			c-0.6,0.5-0.4,1.4-0.4,1.4h-11.2c-0.9,0-1-1.2-1.4-2.8s-1.5-2.1-1.5-2.1c0-0.6-0.2-0.9-0.4-1.1c-0.2-0.2-0.6,0.3-0.6,0.3
			c-0.3-0.5-0.6-0.3-0.6-0.3c-0.5,0.3-0.4,1.1-0.4,1.1s-0.5,0-1.3,1.1s-0.8,2.9-0.8,2.9c-1,1.8-1.8,0-1.8,0c-0.1-3-1.6-3.6-1.6-3.6
			c0.1-0.6-0.1-1.3-0.1-1.3c-0.3-0.9-1.3,0.1-1.3,0.1s-0.5-0.8-0.9-0.3c-0.4,0.4-0.3,1.5-0.3,1.5c-1.1,0.6-1.8,1.2-1.9,3.9
			s1.3,4.1,1.3,4.1l0,0v38.9l0,0c-1.2,0-1.3,4.7-1.3,4.7h18.8v-24.1c0,0-0.4-8.4,10.2-8.4s9.8,8.9,9.8,8.9L2239-11.2z"/>
		<path id="familia" class="st30" d="M2492.6-14.1v-47.1c0,0,0-9-1.3-10.9V-79c0,0,0.6-0.2,0.6-1s-0.5-0.8-1-0.8
			c-0.4,0-0.7,0.4-0.7,0.8s0.2,1,0.6,1v7c0,0-2.3,3.8-2.3,22.9c0,0,0,1.7-0.8,1.7c-0.8,0-0.7-1.6-0.7-1.6s-0.8-25.5-2.2-28.3v-6.3
			c0,0,0.6,0,0.7-0.8c0.1-0.8-0.7-1.5-1.3-1.6c0,0-1.4,0.2-1.4,1.5c0,0,0,1,0.8,1v6.2c0,0-3.3,4.4-4.1,15.6c0,0-0.3,3.2-1.8,3.2
			c-1.5-0.1-1.8-3.2-1.8-3.2c-0.8-11.2-4.1-15.6-4.1-15.6v-6.2c0.8,0,0.8-1,0.8-1c0-1.3-1.4-1.5-1.4-1.5c-0.5,0-1.4,0.8-1.3,1.6
			c0.1,0.8,0.7,0.8,0.7,0.8v6.3c-1.3,2.7-2.2,28.3-2.2,28.3s0.1,1.6-0.7,1.6c-0.8,0-0.8-1.7-0.8-1.7c0-19.1-2.3-22.9-2.3-22.9v-7
			c0.4,0,0.6-0.7,0.6-1s-0.3-0.8-0.8-0.8c-0.4,0-1,0.1-1,0.8s0.4,1,0.4,1v6.9c-0.9,1.4-1.2,6.5-1.3,9.2c0.2-10.7,0.7-68.4-4.8-81
			v-12.3c0,0,1.8-0.4,1.9-2.4c0-1.9-1.2-2.6-2.2-2.6s-2.5,1.1-2.5,2.5s0.8,2.3,1.6,2.5v12.3c0,0-5.5,9.3-5.5,57.8c0,0,0,1-0.6,1
			s-0.9-0.8-0.9-1s-1.1-58.3-4.8-68.5v-11.1c0,0,0.2-0.4-0.3-0.8c0,0-0.4-0.1-0.4-0.5c0-0.3,0-0.7,0-0.7s2-0.6,2-2.5
			s-1.2-3.3-2.7-3.3s-2.8,1.5-2.8,3s0.7,2.8,1.8,2.8v0.7c0,0,0.2,0.4-0.3,0.4s-0.5,0.2-0.5,0.5s-0.1,11.6-0.1,11.6s-4,1.6-4.8,49.4
			c-1,0.1-3.1,0.3-7.4,0.3c-0.2-2.2-0.5-5.4-1.2-9.5c-0.6,4.1-0.9,7.3-1.1,9.5c-4.1,0-6.2-0.2-7.3-0.3c-0.8-47.8-4.8-49.4-4.8-49.4
			s-0.1-11.3-0.1-11.6s-0.1-0.5-0.6-0.5s-0.4-0.4-0.4-0.4v-0.7c1.3,0,1.9-1.3,1.9-2.8s-1.1-3-2.7-3c-1.5,0-2.7,1.5-2.7,3.3
			s1.9,2.5,1.9,2.5s0.1,0.3,0,0.7c0,0.3-0.5,0.5-0.5,0.5c-0.5,0.4-0.4,0.8-0.4,0.8v11.1c-3.5,10.2-4.7,68.3-4.7,68.5s-0.2,1-0.8,1
			s-0.6-1-0.6-1c0-48.5-5.5-57.8-5.5-57.8v-12.3c0.7-0.1,1.5-1.1,1.5-2.5s-1.5-2.5-2.5-2.5s-2.3,0.6-2.2,2.6c0,1.9,1.8,2.4,1.8,2.4
			v12.3c-3.9,8.9-4.7,61.6-4.9,98.1h-2.4l-6.2-11.9h-3.3l-5.8,11.9l-6.2-11.9h-3.1l-6.1,11.9l-5.8-11.9h-3.4l-5.4,11.9h-3.2v35.6
			h53.7c2.2-25.3,8.3-30.3,8.3-30.3c7.9,13.5,8.1,30.3,8.1,30.3h4c0.8-32.4,12.5-47.5,12.5-47.5c12.1,23,10.9,47.5,10.9,47.5h4.5
			c0.6-22.9,8.2-30.3,8.2-30.3c8.5,11.7,7.5,30.3,7.5,30.3h1.2h1h29.9h1.3L2492.6-14.1z M2357.4-32.2c-0.4,0.7-1.6,2.5-3.7,2.7
			c0.2-2.3,2.1-3.4,2.7-3.7C2356.8-32.9,2357.1-32.5,2357.4-32.2z M2353.3-34.2c1,0,1.8,0.3,2.6,0.7c-0.6,0.3-2,1-2.6,2.6
			c-0.6-1.6-2-2.4-2.6-2.6C2351.5-33.9,2352.4-34.2,2353.3-34.2z M2350.3-33.2c0.6,0.3,2.5,1.4,2.7,3.7c-2.3-0.2-3.4-2.1-3.7-2.7
			C2349.6-32.6,2349.9-32.9,2350.3-33.2z M2348.3-29.1c0-1,0.3-1.9,0.7-2.6c0.2,0.6,1,2,2.6,2.6c-1.6,0.6-2.4,2.1-2.6,2.6
			C2348.6-27.3,2348.3-28.2,2348.3-29.1z M2349.3-26.1c0.3-0.6,1.3-2.5,3.7-2.8c-0.2,2.2-2.1,3.4-2.7,3.7
			C2349.9-25.4,2349.6-25.7,2349.3-26.1z M2353.3-24.1c-0.9,0-1.8-0.3-2.6-0.7c0.5-0.2,2-1.1,2.6-2.7c0.6,1.6,2,2.5,2.6,2.7
			C2355.2-24.4,2354.3-24.1,2353.3-24.1z M2356.4-25.1c-0.7-0.4-2.6-1.6-2.7-3.7c2.1,0.1,3.3,2,3.7,2.7
			C2357.1-25.8,2356.8-25.4,2356.4-25.1z M2357.7-26.6c-0.3-0.6-1.1-2-2.7-2.6c1.6-0.6,2.4-2,2.7-2.6c0.4,0.8,0.7,1.6,0.7,2.6
			C2358.4-28.2,2358.1-27.3,2357.7-26.6z M2372.9-32.2c-0.4,0.7-1.6,2.5-3.7,2.7c0.2-2.3,2.1-3.4,2.7-3.7
			C2372.3-32.9,2372.6-32.5,2372.9-32.2z M2368.8-34.2c1,0,1.8,0.3,2.6,0.7c-0.6,0.3-2,1-2.6,2.6c-0.6-1.6-2-2.4-2.6-2.6
			C2367-33.9,2367.9-34.2,2368.8-34.2z M2365.8-33.2c0.6,0.3,2.5,1.4,2.7,3.7c-2.3-0.2-3.4-2.1-3.7-2.7
			C2365.1-32.6,2365.4-32.9,2365.8-33.2z M2363.8-29.1c0-1,0.3-1.9,0.7-2.6c0.2,0.6,1,2,2.6,2.6c-1.6,0.6-2.4,2.1-2.6,2.6
			C2364-27.3,2363.8-28.2,2363.8-29.1z M2364.8-26.1c0.3-0.6,1.3-2.5,3.7-2.8c-0.2,2.2-2.1,3.4-2.7,3.7
			C2365.4-25.4,2365.1-25.7,2364.8-26.1z M2368.8-24.1c-0.9,0-1.8-0.3-2.6-0.7c0.5-0.2,2-1.1,2.6-2.7c0.6,1.6,2,2.5,2.6,2.7
			C2370.7-24.4,2369.8-24.1,2368.8-24.1z M2371.9-25.1c-0.7-0.4-2.6-1.6-2.7-3.7c2.1,0.1,3.3,2,3.7,2.7
			C2372.6-25.8,2372.2-25.4,2371.9-25.1z M2373.2-26.6c-0.3-0.6-1.1-2-2.7-2.6c1.6-0.6,2.4-2,2.7-2.6c0.4,0.8,0.7,1.6,0.7,2.6
			C2373.9-28.2,2373.6-27.3,2373.2-26.6z M2388.3-32.2c-0.4,0.7-1.6,2.5-3.7,2.7c0.2-2.3,2.1-3.4,2.7-3.7
			C2387.7-32.9,2388.1-32.5,2388.3-32.2z M2384.3-34.2c1,0,1.8,0.3,2.6,0.7c-0.6,0.3-2,1-2.6,2.6c-0.6-1.6-2-2.4-2.6-2.6
			C2382.4-33.9,2383.3-34.2,2384.3-34.2z M2381.2-33.2c0.6,0.3,2.5,1.4,2.7,3.7c-2.3-0.2-3.4-2.1-3.7-2.7
			C2380.6-32.6,2380.9-32.9,2381.2-33.2z M2379.2-29.1c0-1,0.3-1.9,0.7-2.6c0.2,0.6,1,2,2.6,2.6c-1.6,0.6-2.4,2.1-2.6,2.6
			C2379.5-27.3,2379.2-28.2,2379.2-29.1z M2380.3-26.1c0.3-0.6,1.3-2.5,3.7-2.8c-0.2,2.2-2.1,3.4-2.7,3.7
			C2380.9-25.4,2380.6-25.7,2380.3-26.1z M2384.3-24.1c-0.9,0-1.8-0.3-2.6-0.7c0.5-0.2,2-1.1,2.6-2.7c0.6,1.6,2,2.5,2.6,2.7
			C2386.1-24.4,2385.2-24.1,2384.3-24.1z M2387.3-25.1c-0.7-0.4-2.6-1.6-2.7-3.7c2.1,0.1,3.3,2,3.7,2.7
			C2388.1-25.8,2387.7-25.4,2387.3-25.1z M2388.6-26.6c-0.3-0.6-1.1-2-2.7-2.6c1.6-0.6,2.4-2,2.7-2.6c0.4,0.8,0.7,1.6,0.7,2.6
			C2389.3-28.2,2389.1-27.3,2388.6-26.6z M2427-88.2c-1.5,0-2.4,2.1-2.4,2.1s-1,1.4-2.7,1.4c-1,0-1.5-0.5-1.7-0.8v-1.1
			c0-5.2,0-9.9-0.1-14.3c0.9-0.6,2.9-1.2,7.1-1.3c0,0.5,0,0.9,0,1.1c0,1-0.1,1.1-0.1,1.1s-1.4,0.8-1.4,2.9c0,2.2,1.2,3.1,1.2,3.1
			s0.9,0.7,1,3.4C2428-87.9,2427-88.2,2427-88.2z M2436.8-86.7v1.2c-0.3,0.4-0.7,0.8-1.7,0.8c-1.7,0-2.7-1.4-2.7-1.4
			s-0.9-2.1-2.4-2.1c0,0-0.8,0.2-0.7-2.5s1-3.4,1-3.4s1.2-0.9,1.2-3.1c0-2.2-1.4-2.9-1.4-2.9s-0.2-0.1-0.3-1.1c0-0.2,0-0.6,0-1.1
			c4.1,0.1,6.1,0.6,7.2,1.1C2436.8-96.8,2436.8-92,2436.8-86.7z"/>
		<path id="supositori" class="st30" d="M2580-200.2c-7.5-16.7-17.4-17.1-25.3-0.1s-17.8,59.7-17.1,112.6c0.4,28.1,2.7,47.4,4.9,59.3
			c-0.4,0-0.8,0.1-0.9,0.3c-0.4,0.6-0.6,0.8-1.3,0.5c-0.7-0.3-1.1-0.4-1.3,0.1c-0.3,0.5,0.9,1,0,1.2c-0.9,0.2-2.5,0.4-1.4,0.6
			c1.1,0.2,2.9,0.1,2.6,0.7c-0.3,0.6-0.3,1.5-0.5,1.2c-0.2-0.3-0.8,0-0.5,0.4c0.3,0.4,1.3,0.1,0.3,0.4c-1,0.4-2.2-0.4-1.9,0.6
			c0.3,0.9,1.1,1.5,1.5,1.5s0.2,0.3,1,0.8s0.7,1.2,1.3,1.8s0.3,0.9-0.3,0.7c-0.5-0.1-1.1-0.2-1.2,0s-0.9-0.5-1.2-0.7
			s-0.7-0.2-1.3-0.7s-0.5-0.7-1.2-0.7c-0.6-0.1-1.9-1-1.6,0.1c0.3,1,0.6,1.9,0.4,2.1c-0.2,0.2,0.2,0.2-0.4,0.9
			c-0.6,0.7-0.7,1.6-0.7,1.6h-1.2c0,0-0.3,0.8-0.3,1.2c-0.1,0.4-0.2-0.1-0.3-0.5c-0.1-0.5,0.8-1,0-1c-0.8,0-1,0.4-1.4,0.3
			c-0.4-0.1-0.7,2-0.7,2h16.1h3.1h41c0,0,6.6-21.1,7.2-73.8C2597.9-139.6,2587.5-183.6,2580-200.2z"/>
		<path id="colom" class="st30" d="M2712.5-36.2c-2.4-1.2-6.5-1.6-6.9-6.4c-0.4-4.8-5.7-6-5.7-6v-4c0,0,3.6-1,4-3.2
			c0.4-2.2,0.1-6,0.1-6s3.3,0.1,3.9-0.4c0.6-0.5,1-1.4,1.2-1.7c0.1-0.3-0.8-0.7-1.3,0s-0.5,0.9-1.5,1s-2.4,0.1-2.4,0.1
			s-0.9-0.9-1-1.8c-0.1-0.9,0.1-3.1-0.1-3.5c-0.2-0.5,0.2-1.5-0.6-1.5s-0.9,0.4-1.2,1.1c-0.3,0.7-0.9,1.5-1.1,1.5
			c-0.2,0-0.7-0.3-0.5,1.1c0.2,1.1,0.2,2,0.4,2.5h-2.9c0,0,0.1-1.9-0.9-2.6c-1-0.7-0.7-4.3-0.7-4.3l-0.7-94.8c0,0,2.8,0.7,5.8-1.7
			c3.1-2.4,2.5-2.9,4.4-3.1v-2.7c0,0-4.4-0.9-6-0.9c-1.5,0.1-3.5-1.7-4-2.5c-0.5-0.9-0.3-3.4-0.3-3.4s4.1-4.7,4.4-11
			s-3.5-11.1-6.2-12.8h-0.8v-6.3c0,0,1.6-0.5,2-2.2s-0.7-2.3-0.1-3.6c0.5-1.3,3.1-1.9,3.5-2.2c0.4-0.3,1.1,0.2,0.8-3.2
			c-0.3-3.4,0.6-3.8-1.4-5.2s-1.2-0.8-2.5,0c-1.4,0.8-3.5,0.7-3.5,0.4c0-0.3,0-0.8,0.6-0.9c0.6-0.2,1.2-1.8,0.9-2.6s-0.8-1.5-2-1.6
			c-1.2,0-1.7,0.3-1.9,1.2c-0.2,0.8-0.1,2.7,0.4,3s0.5,0.5,0.2,0.9c-0.3,0.3-2,0.4-2.8,0.3s-4.9-0.2-7.5-1.6s-4.9-2.3-5.4-2.4
			s-1.3-0.3-0.9,0c0.3,0.3,0.7,0.2,0.7,0.5c-0.1,0.3-0.3,0.3-0.2,0.4c0.1,0.2,0.4,0.6,0.7,0.6c0.3,0,0.7-0.2,0.9-0.1
			c0.2,0.1,2.5,1.4,3.1,1.7c0.6,0.3,2.2,1.3,2.4,1.3c0.1,0-0.5,1.6,0.2,3c0.6,1.4,1.5,2.4,2.3,2.5c0.7,0.1,1.9,0.1,1.9,0.1
			s1.5,2,0.6,4.6c-0.9,2.6-1.3,4-1.2,5.2c0.1,1.2,1.2,1.4,1.2,1.4l-0.1,5h-1.2c-2.7,1.7-6.5,6.5-6.2,12.8s4.4,11,4.4,11
			s0.2,2.5-0.3,3.4s-2.5,2.6-4.1,2.5c-1.5-0.1-6.1,0.9-6.1,0.9v2.7c1.7,0.2,1.4,0.7,4.5,3.1c3.1,2.4,6,1.7,6,1.7l-0.7,94.8
			c0,0,0.3,3.7-0.7,4.3c-1,0.7-0.9,2.6-0.9,2.6h-2.9c0,0.1-0.1,0.2-0.2,0.3c0.1-0.1,0.1-0.2,0.2-0.3c0.2-0.5,0.3-1.4,0.4-2.5
			c0.2-1.4-0.3-1.1-0.5-1.1s-0.8-0.8-1.1-1.5c-0.3-0.7-0.4-1.1-1.2-1.1c-0.8,0-0.4,1.1-0.6,1.5c-0.2,0.5,0,2.7-0.1,3.5
			c-0.1,0.9-1,1.8-1,1.8s-1.4-0.1-2.4-0.1c-1-0.1-1.1-0.3-1.5-1c-0.5-0.7-1.4-0.3-1.3,0s0.5,1.3,1.1,1.7c0.6,0.5,3.9,0.4,3.9,0.4
			s-0.4,3.8,0,6s3.7,3.2,3.7,3.2v4c0,0-5.2,1.2-5.6,6c-0.4,4.8-4.4,5.2-6.8,6.4c-2.4,1.2-5.3,9.2-5.3,9.2V-14h28.9h1.7h28.8v-13
			C2717.6-27,2714.9-35,2712.5-36.2z M2680.6-57.3c0,0-2.3,0.5-3.4,1.5s-1.2,1.9-1.2,1.9c-0.7-0.1-2.3-1.7-2.6-2.5
			c-0.3-0.7-0.2-2.9-0.2-3.9s1.1-1.7,1.1-1.7s0.3,0,0.7-0.4c1.6,0,3.8,0,4.4,0c1.1,0,1.2,1.7,1.2,1.7V-57.3z M2701.5-63.6
			L2701.5-63.6L2701.5-63.6L2701.5-63.6z M2698.8-55.8c-1.1-1-3.6-1.5-3.6-1.5v-3.3c0,0,0.6-1.7,1.7-1.7c0.7,0,2.8,0,4.4,0
			c-0.5-0.2-1.1-0.6-1.3-0.8c-0.1-0.1-0.1-0.2-0.2-0.3l0,0c0,0.1,0.1,0.2,0.2,0.3c0.2,0.3,0.9,0.7,1.3,0.8c0.4,0.4,0.7,0.4,0.7,0.4
			s1.1,0.7,1.1,1.7s0.1,3.2-0.2,4c-0.3,0.7-1.9,2.3-2.6,2.5C2700.2-53.9,2699.9-54.8,2698.8-55.8z"/>
		<path id="placa" class="st30" d="M2746.8-12.4v-7.5h-1.6v-4.5c0,0,0.4-1.6-0.4-1.6l-0.1-4.8c0,0,0.7,0,0.9-0.9
			c0.2-0.9,1.1-1.2,1.1-1.2v-0.6h-1.3c0,0,0.1,1.7-1.1,1.7c0,0-0.6,0.1-0.6,0.8v5.1h-4.3l-0.2-26.5c0,0-0.1-2.4,3.1-2.5
			c0,0-0.2-0.8,0.9-0.7v-0.6h-3.9c0,0,0.5-1.7,0.5-3.3s-0.2-2.9,0.6-3.2c0.8-0.2,1.1-0.9,1-2.2h-0.6c0,0,0.4,1.6-1.1,1.5
			c0,0-0.8,0.1-0.9,1.2c0,0,0.2,1.6-0.8,6.1h-3.4v-4.3c0,0,2-1.2,2-1.9s-1.3-1.2-1.3-1.2v-2.2c0,0-0.4-4.1-0.7,0.4h-2.4l-0.1-1.1
			l-1.3-0.1l-0.1-2.9h2.6l-0.1-3.1h-1.4h-6h-1.4l-0.1,3.1h2.6l-0.1,2.9l-1.3,0.2l-0.1,1.1h-2.4c-0.4-4.5-0.8-0.4-0.8-0.4l-0.1,2.2
			c0,0-1.4,0.6-1.4,1.2c0,0.7,1.7,1.9,1.7,1.9v4.3h-3c-1-4.5-0.8-6.1-0.8-6.1c-0.1-1-0.9-1.2-0.9-1.2c-1.5,0.1-1.1-1.4-1.1-1.4h-0.6
			c-0.1,1.3,0.1,2,1,2.2c0.8,0.2,0.6,1.6,0.6,3.2s0.5,3.3,0.5,3.3h-3.9v0.6c1.1-0.1,0.9,0.7,0.9,0.7c3.2,0.1,3.1,2.5,3.1,2.5
			l-0.2,26.5h-4.7v-5.1c0-0.7-0.4-0.8-0.4-0.8c-1.2,0-0.9-1.7-0.9-1.7h-1.6v0.6c0,0,1,0.3,1.2,1.2c0.2,0.9,1,0.9,1,0.9l-0.2,4.8
			c-0.8,0-0.6,1.6-0.6,1.6v4.5h-1.3v7.6h0.1h18.1L2746.8-12.4h0.2H2746.8z"/>
		<g id="mafre1">
			<rect x="1578.7" y="-23.9" class="st30" width="13.8" height="11.9"/>
			<rect x="1564.9" y="-23.9" class="st30" width="10.1" height="11.9"/>
			<rect x="1595.3" y="-23.9" class="st30" width="10.1" height="11.9"/>
			<rect x="1578.7" y="-38.5" class="st30" width="13.8" height="11.9"/>
			<polygon class="st30" points="1565.7,-38.5 1570.2,-33.2 1574.7,-38.5 			"/>
			<polygon class="st30" points="1564.9,-27.2 1569.4,-32.4 1564.9,-37.7 			"/>
			<path class="st30" d="M1575-27.3v-10.3c-0.8,1.1-2.6,3.1-4.3,5.1L1575-27.3z"/>
			<path class="st30" d="M1574.5-26.6l-4.4-5.1c-1.7,2-3.4,4.1-4.3,5.1H1574.5z"/>
			<polygon class="st30" points="1596.1,-38.5 1600.6,-33.2 1605.1,-38.5 			"/>
			<polygon class="st30" points="1595.3,-27.2 1599.8,-32.4 1595.3,-37.7 			"/>
			<path class="st30" d="M1605.4-27.3v-10.3c-0.8,1.1-2.6,3.1-4.3,5.1L1605.4-27.3z"/>
			<path class="st30" d="M1604.9-26.6l-4.4-5.1c-1.7,2-3.4,4.1-4.3,5.1H1604.9z"/>
			<rect x="1578.7" y="-53.4" class="st30" width="13.8" height="11.9"/>
			<polygon class="st30" points="1565.9,-53.4 1570.3,-48.1 1574.9,-53.4 			"/>
			<polygon class="st30" points="1565.2,-42 1569.7,-47.2 1565.2,-52.5 			"/>
			<path class="st30" d="M1575.3-42.1v-10.3c-0.8,1.1-2.6,3.1-4.3,5.1L1575.3-42.1z"/>
			<path class="st30" d="M1566-41.4h8.7l-4.4-5.1C1568.6-44.5,1566.9-42.4,1566-41.4z"/>
			<polygon class="st30" points="1596.2,-53.4 1600.7,-48.1 1605.2,-53.4 			"/>
			<polygon class="st30" points="1595.6,-42 1600.1,-47.2 1595.6,-52.5 			"/>
			<path class="st30" d="M1605.7-42.1v-10.3c-0.8,1.1-2.6,3.1-4.3,5.1L1605.7-42.1z"/>
			<path class="st30" d="M1596.3-41.4h8.7l-4.4-5.1C1598.9-44.5,1597.3-42.4,1596.3-41.4z"/>
			<rect x="1579" y="-68" class="st30" width="13.8" height="11.9"/>
			<polygon class="st30" points="1566,-68 1570.5,-62.7 1575,-68 			"/>
			<polygon class="st30" points="1565.2,-56.6 1569.7,-61.8 1565.2,-67.1 			"/>
			<path class="st30" d="M1575.3-56.7V-67c-0.8,1.1-2.6,3.1-4.3,5.1L1575.3-56.7z"/>
			<path class="st30" d="M1566.1-56h8.7l-4.4-5.1C1568.7-59.1,1567-57,1566.1-56z"/>
			<polygon class="st30" points="1596.4,-68 1600.8,-62.7 1605.4,-68 			"/>
			<polygon class="st30" points="1595.6,-56.6 1600.1,-61.8 1595.6,-67.1 			"/>
			<path class="st30" d="M1605.7-56.7V-67c-0.8,1.1-2.6,3.1-4.3,5.1L1605.7-56.7z"/>
			<path class="st30" d="M1596.5-56h8.7l-4.4-5.1C1599.1-59.1,1597.4-57,1596.5-56z"/>
			<rect x="1579" y="-82.8" class="st30" width="13.8" height="11.9"/>
			<polygon class="st30" points="1566.2,-82.8 1570.6,-77.5 1575.2,-82.8 			"/>
			<polygon class="st30" points="1565.5,-71.4 1570,-76.6 1565.5,-81.9 			"/>
			<path class="st30" d="M1575.6-71.5v-10.3c-0.8,1.1-2.6,3.1-4.3,5.1L1575.6-71.5z"/>
			<path class="st30" d="M1566.2-70.9h8.7l-4.4-5.1C1568.9-73.9,1567.2-71.8,1566.2-70.9z"/>
			<polygon class="st30" points="1596.5,-82.8 1601,-77.5 1605.5,-82.8 			"/>
			<polygon class="st30" points="1595.8,-71.4 1600.3,-76.6 1595.8,-81.9 			"/>
			<path class="st30" d="M1606-71.5v-10.3c-0.8,1.1-2.6,3.1-4.3,5.1L1606-71.5z"/>
			<path class="st30" d="M1596.6-70.9h8.7l-4.4-5.1C1599.2-73.9,1597.5-71.8,1596.6-70.9z"/>
			<rect x="1579.3" y="-97.4" class="st30" width="13.8" height="11.9"/>
			<polygon class="st30" points="1566.3,-97.4 1570.8,-92.1 1575.3,-97.4 			"/>
			<polygon class="st30" points="1565.5,-86.1 1570,-91.4 1565.5,-96.7 			"/>
			<path class="st30" d="M1575.6-86.3v-10.3c-0.8,1.1-2.6,3.1-4.3,5.1L1575.6-86.3z"/>
			<path class="st30" d="M1566.4-85.5h8.7l-4.4-5.1C1569-88.5,1567.3-86.7,1566.4-85.5z"/>
			<polygon class="st30" points="1596.7,-97.4 1601.1,-92.1 1605.7,-97.4 			"/>
			<polygon class="st30" points="1595.8,-86.1 1600.3,-91.4 1595.8,-96.7 			"/>
			<path class="st30" d="M1606-86.3v-10.3c-0.8,1.1-2.6,3.1-4.3,5.1L1606-86.3z"/>
			<path class="st30" d="M1596.7-85.5h8.7l-4.4-5.1C1599.4-88.5,1597.7-86.7,1596.7-85.5z"/>
			<rect x="1579.3" y="-112.2" class="st30" width="13.8" height="11.9"/>
			<polygon class="st30" points="1566.4,-112.2 1570.9,-106.9 1575.4,-112.2 			"/>
			<polygon class="st30" points="1565.8,-100.8 1570.3,-106 1565.8,-111.3 			"/>
			<path class="st30" d="M1575.9-100.9v-10.3c-0.8,1.1-2.6,3.1-4.3,5.1L1575.9-100.9z"/>
			<path class="st30" d="M1566.5-100.3h8.7l-4.4-5.1C1569.1-103.4,1567.5-101.3,1566.5-100.3z"/>
			<polygon class="st30" points="1596.8,-112.2 1601.3,-106.9 1605.8,-112.2 			"/>
			<polygon class="st30" points="1596.1,-100.8 1600.6,-106 1596.1,-111.3 			"/>
			<path class="st30" d="M1606.2-100.9v-10.3c-0.8,1.1-2.6,3.1-4.3,5.1L1606.2-100.9z"/>
			<path class="st30" d="M1596.9-100.3h8.7l-4.4-5.1C1599.5-103.4,1597.8-101.3,1596.9-100.3z"/>
			<rect x="1579.5" y="-126.8" class="st30" width="13.8" height="11.9"/>
			<polygon class="st30" points="1566.6,-126.8 1571,-121.5 1575.6,-126.8 			"/>
			<polygon class="st30" points="1565.8,-115.6 1570.3,-120.8 1565.8,-126.1 			"/>
			<path class="st30" d="M1575.9-115.7V-126c-0.8,1.1-2.6,3.1-4.3,5.1L1575.9-115.7z"/>
			<path class="st30" d="M1566.7-114.9h8.7l-4.4-5.1C1569.3-118,1567.6-116.1,1566.7-114.9z"/>
			<polygon class="st30" points="1596.9,-126.8 1601.4,-121.5 1605.9,-126.8 			"/>
			<polygon class="st30" points="1596.1,-115.6 1600.6,-120.8 1596.1,-126.1 			"/>
			<path class="st30" d="M1606.2-115.7V-126c-0.8,1.1-2.6,3.1-4.3,5.1L1606.2-115.7z"/>
			<path class="st30" d="M1597-114.9h8.7l-4.4-5.1C1599.6-118,1598-116.1,1597-114.9z"/>
			<rect x="1579.5" y="-141.6" class="st30" width="13.8" height="11.9"/>
			<polygon class="st30" points="1566.7,-141.6 1571.2,-136.3 1575.7,-141.6 			"/>
			<polygon class="st30" points="1566,-130.3 1570.5,-135.6 1566,-140.9 			"/>
			<path class="st30" d="M1576.2-130.5v-10.3c-0.8,1.1-2.6,3.1-4.3,5.1L1576.2-130.5z"/>
			<path class="st30" d="M1566.8-129.7h8.7l-4.4-5.1C1569.4-132.8,1567.7-130.9,1566.8-129.7z"/>
			<polygon class="st30" points="1597.1,-141.6 1601.5,-136.3 1606.1,-141.6 			"/>
			<polygon class="st30" points="1596.4,-130.3 1600.9,-135.6 1596.4,-140.9 			"/>
			<path class="st30" d="M1606.5-130.5v-10.3c-0.8,1.1-2.6,3.1-4.3,5.1L1606.5-130.5z"/>
			<path class="st30" d="M1597.2-129.7h8.7l-4.4-5.1C1599.8-132.8,1598.1-130.9,1597.2-129.7z"/>
			<polygon class="st30" points="1609.1,-147 1561.6,-147 1560.1,-147 1560.1,-145.8 1560.1,-12 1560.5,-12 1560.5,-12 1560.5,-12 
				1561.6,-12 1561.6,-145.8 1609.1,-145.8 1609.1,-12 1610.5,-12 1610.5,-145.8 1610.5,-147 			"/>
		</g>
	</g>
</g>
</svg>
