<?xml version="1.0" encoding="utf-8"?>
<!-- Generator: Adobe Illustrator 19.0.0, SVG Export Plug-In . SVG Version: 6.00 Build 0)  -->
<svg version="1.1" id="Layer_1" xmlns="http://www.w3.org/2000/svg" xmlns:xlink="http://www.w3.org/1999/xlink" x="0px" y="0px"
	 viewBox="894 -684 2400 2160" style="enable-background:new 894 -684 2400 2160;" xml:space="preserve">
<style type="text/css" title="bg">
	.st0{fill:#0E8C99;}
	.st1{fill:#1595A3;}
	.st2{fill:#1D9FAD;}
	.st3{fill:#26A9B7;}
	.st4{fill:#E22B57;}
	.st5{fill:#FFFFFF;}
	.st6{font-family:'Gotham-Light';}
	.st7{font-size:114.633px;}
	.st8{font-family:'Gotham-Bold';}
	.st9{fill:none;}
	.st10{enable-background:new    ;}
	.st11{font-size:36.8504px;}
	.st12{letter-spacing:4;}
	.st13{letter-spacing:14;}
</style>
<g id="cel">
	<rect id="cel-1" x="894" y="-684" class="st0" width="2400" height="681"/>
	<circle id="cel-2" class="st1" cx="2095.5" cy="-350" r="717"/>
	<circle id="cel-3" class="st2" cx="2095.5" cy="-351.8" r="503.3"/>
	<circle id="cel-4" class="st3" cx="2095.5" cy="-351.8" r="332.2"/>
	<g id="lluna">
		<g id="lluna-lluna">
			<path id="lluna-lluna-1" class="st4" d="M2295.7-349.5c0-110.3-89.5-199.8-199.8-199.8c-110.3,0-199.8,89.5-199.8,199.8
				c0,35.5,9.3,68.8,25.5,97.7l348.7,0C2286.4-280.7,2295.7-314,2295.7-349.5z"/>
			<path id="lluna-lluna-4" class="st4" d="M2095.9-149.7c21.7,0,42.6-3.5,62.2-9.9l-124.4,0
				C2053.3-153.2,2074.2-149.7,2095.9-149.7z"/>
			<path id="lluna-lluna-2" class="st4" d="M1932.8-234.1c5.3,7.4,11,14.5,17.2,21.1l291.8,0c6.2-6.6,12-13.7,17.2-21.1
				L1932.8-234.1z"/>
			<path id="lluna-lluna-3" class="st4" d="M1990.2-179.9l211.4,0c7.5-4.7,14.6-9.8,21.3-15.4l-254.1,0
				C1975.6-189.7,1982.8-184.6,1990.2-179.9z"/>
		</g>
		<text transform="matrix(1 0 0 1 1799.4457 -319.4307)" class="st5 st6 st7">HACK</text>
		<text transform="matrix(1 0 0 1 2143.6458 -319.4307)" class="st5 st8 st7">UPC</text>
		<rect x="1882.1" y="-296.4" class="st9" width="420" height="42.3"/>
		<text id="lluna-lloc_2_" transform="matrix(1 0 0 1 1882.1279 -265.1221)" class="st10" textLength="420"><tspan x="0" y="0" class="st5 st8 st11 st12">BARCELONA</tspan><tspan x="291.4" y="0" class="st5 st8 st11 st13"> </tspan><tspan x="316.5" y="0" class="st5 st8 st11 st12">2018</tspan></text>
	</g>
</g>
</svg>
