<?xml version="1.0" encoding="utf-8"?>
<!-- Generator: Adobe Illustrator 19.0.0, SVG Export Plug-In . SVG Version: 6.00 Build 0)  -->
<svg version="1.1" id="Layer_1" xmlns="http://www.w3.org/2000/svg" xmlns:xlink="http://www.w3.org/1999/xlink" x="0px" y="0px"
	 viewBox="894 -684 2400 2160" style="enable-background:new 894 -684 2400 2160;" xml:space="preserve">
<style type="text/css">
	.st0{fill:#0E8C99;}
	.st1{fill:#1595A3;}
	.st2{fill:#1D9FAD;}
	.st3{fill:#26A9B7;}
	.st4{fill:#E22B57;}
	.st5{fill:#FFFFFF;}
	.st6{font-family:'Gotham-Light';}
	.st7{font-size:114.633px;}
	.st8{font-family:'Gotham-Bold';}
	.st9{fill:none;}
	.st10{enable-background:new    ;}
	.st11{font-size:36.8504px;}
	.st12{letter-spacing:4;}
	.st13{letter-spacing:14;}
</style>
<g id="fons">
	<g id="cel">
		<rect id="cel-1" x="894" y="-684" class="st0" width="2400" height="681"/>
		<circle id="cel-2" class="st1" cx="2095.5" cy="-350" r="717"/>
		<circle id="cel-3" class="st2" cx="2095.5" cy="-351.8" r="503.3"/>
		<circle id="cel-4" class="st3" cx="2095.5" cy="-351.8" r="332.2"/>
	</g>
	<g id="lluna">
		<g id="lluna-lluna_2_">
			<path id="lluna-lluna-4_2_" class="st4" d="M2095.5-150.7c41.4,0,79.9-13,111.8-34.2h-223.5
				C2015.6-163.7,2054.1-150.7,2095.5-150.7z"/>
			<path id="lluna-lluna-3_2_" class="st4" d="M1957.7-206.1h275.6c7.5-7.1,14.5-14.9,20.8-23.6h-317.2
				C1943.2-221,1950.2-213.1,1957.7-206.1z"/>
			<path id="lluna-lluna-1_2_" class="st4" d="M2294.9-350.1c0-110-89.3-199.2-199.4-199.2c-110.2,0-199.4,89.1-199.4,199.1
				c0,25,4.6,49.1,13.1,71.1H2282C2290.3-301.1,2294.9-325.1,2294.9-350.1z"/>
			<path id="lluna-lluna-2_2_" class="st4" d="M1924.8-246.9h341.3c4.2-6.3,7.9-14.1,11.2-21.2h-363.7
				C1916.9-261.1,1920.7-253.2,1924.8-246.9z"/>
		</g>
		<text transform="matrix(1 0 0 1 1799.4457 -319.4307)" class="st5 st6 st7">HACK</text>
		<text transform="matrix(1 0 0 1 2143.6458 -319.4307)" class="st5 st8 st7">UPC</text>
		<rect x="1882.1" y="-296.4" class="st9" width="420" height="42.3"/>
		<text id="lluna-lloc_2_" transform="matrix(1 0 0 1 1882.1279 -265.1221)" class="st10"><tspan x="0" y="0" class="st5 st8 st11 st12">BARCELONA</tspan><tspan x="291.4" y="0" class="st5 st8 st11 st13"> </tspan><tspan x="316.5" y="0" class="st5 st8 st11 st12">2018</tspan></text>
	</g>
</g>
</svg>
