<?xml version="1.0" encoding="utf-8"?>
<!-- Generator: Adobe Illustrator 23.0.0, SVG Export Plug-In . SVG Version: 6.00 Build 0)  -->
<svg version="1.1" id="Capa_1" xmlns="http://www.w3.org/2000/svg" xmlns:xlink="http://www.w3.org/1999/xlink" x="0px" y="0px"
	 viewBox="0 0 980 980" style="enable-background:new 0 0 980 980;" xml:space="preserve">
<style type="text/css">
	.st0{fill:#B4C959;}
</style>
<g transform="translate(0.000000,980.000000) scale(0.100000,-0.100000)">
	<path class="st0" d="M4570,9779c-34-15-145-120-471-446l-427-426l-32,12c-133,46-295-37-335-173c-19-62-19-90,0-152
		c57-193,312-248,445-96c40,45,70,119,70,172c0,15-6,48-14,74l-14,46l406,412c241,243,420,417,439,425c48,19,493,19,531-1
		c15-8,393-381,840-828l812-813v-275v-275l-828-827l-827-828h-260h-260l-830,830l-830,830v270v270l148,147c81,82,147,153,147,158
		c0,6-25,35-55,65l-54,54l-158-163c-87-90-166-180-175-200c-14-31-17-77-17-328c-1-263,1-296,18-335c14-33,207-233,847-877
		c714-719,836-837,882-858c51-22,60-23,337-23c279,0,285,0,337,24c45,21,174,146,883,861c519,523,836,851,847,874
		c14,31,17,77,17,323c1,267,0,290-19,335c-18,40-159,186-853,882c-708,709-840,837-885,857c-52,24-58,24-335,23
		C4639,9799,4611,9797,4570,9779z M3628,8735c26-30,30-90,7-121c-52-76-175-38-175,53c0,43,21,80,54,94
		C3549,8775,3603,8763,3628,8735z"/>
	<path class="st0" d="M5175,8758c-162-83-198-294-73-420c68-67,160-92,258-68l52,13l204-204l204-204l-16-50c-43-138,49-293,192-326
		c145-33,284,60,316,211c31,152-96,303-255,302c-34,0-75-6-91-12c-30-11-32-9-237,196l-206,206l14,47c37,118-27,260-142,312
		C5338,8787,5228,8786,5175,8758z M5351,8591c73-74,1-193-97-161c-101,34-75,190,31,190C5312,8620,5329,8612,5351,8591z M6121,7821
		c53-53,33-138-37-161c-67-22-124,21-124,93c0,53,43,97,95,97C6082,7850,6099,7842,6121,7821z"/>
	<path class="st0" d="M1784,6979c-46-18-147-116-887-857c-693-695-839-845-856-885c-20-45-21-67-21-335c0-282,1-288,24-337
		c19-40,190-215,857-882c586-584,845-837,871-848c31-12,90-15,332-15c268,0,298,2,338,19c33,15,240,216,875,853
		c694,695,835,841,853,881c19,45,20,69,20,333c0,360,11,331-199,539l-151,150l-57-58l-58-57l142-142c77-79,146-153,152-165
		c7-14,11-108,11-271v-249l-29-39c-16-21-388-398-828-836l-798-798h-270h-270l-813,813c-447,446-820,824-828,839
		c-11,21-14,79-14,279v252l148,151c81,84,452,458,824,832l678,679h275h275l419-419l418-418l-13-46c-18-58-18-86,2-151
		c32-108,131-181,245-181c106,1,187,50,233,142c61,122,14,278-103,342c-65,35-143,44-204,23l-44-15l-424,425
		c-352,353-433,429-477,449c-51,23-58,24-325,23C1859,6999,1831,6997,1784,6979z M3521,5931c21-22,29-39,29-66c0-50-44-95-94-95
		c-85,0-131,106-71,165C3421,5972,3482,5970,3521,5931z"/>
	<path class="st0" d="M7370,6974c-23-9-330-309-869-847c-667-667-838-842-857-882c-23-49-24-55-24-337c0-242,3-294,16-330
		c23-60,1666-1710,1732-1739c40-17,70-19,330-19c246,0,294,2,335,17c43,15,143,113,878,850c693,696,834,841,854,885
		c24,52,25,57,25,334c0,264-1,285-21,330c-17,40-101,129-446,475l-426,427l12,32c47,135-38,296-177,336c-179,52-356-108-326-295
		c24-149,186-251,329-207l50,16l408-408c230-228,415-421,423-439c20-47,20-492,0-531c-8-15-383-395-833-844l-818-818h-265h-265
		l-825,825l-825,825v275v275l826,826l825,825l272-3l272-3l150-150l150-150l57,58l58,57l-155,156c-105,106-169,162-198,175
		c-40,17-70,19-340,19C7461,6989,7398,6986,7370,6974z M8731,6321c21-22,29-39,29-66c0-84-105-128-162-67c-63,65-25,162,62,162
		C8693,6350,8708,6344,8731,6321z"/>
	<path class="st0" d="M6822,5543c-57-20-126-91-146-150c-18-53-21-129-6-169c11-27,6-33-124-163l-136-136l136-136l137-137l-12-32
		c-41-118,19-262,134-323c57-30,173-30,231,0c177,94,194,340,31,450c-67,45-136,57-211,38l-60-16l-73,73c-40,40-73,77-73,83
		s31,41,68,78l69,68l52-17c257-84,456,239,265,430C7033,5556,6922,5579,6822,5543z M6982,5371c27-24,33-36,33-70
		c0-91-105-131-166-63c-40,45-39,84,5,128S6937,5411,6982,5371z M6985,4606c32-32,40-69,25-107c-17-39-46-59-90-59s-73,20-90,59
		c-26,64,20,131,90,131C6950,4630,6967,4624,6985,4606z"/>
	<path class="st0" d="M1506,4306c-52-20-84-44-123-94c-102-133-36-342,126-397c53-18,115-19,161-4l32,12l134-134l134-134l57,55
		c32,30,94,90,139,133l81,79l39-11c173-48,334,72,334,250c0,180-166,300-342,247c-50-15-123-79-150-131c-27-54-34-140-15-194l14-41
		l-78-78l-79-79l-74,74l-74,73l16,37c8,20,15,63,15,96c-1,99-55,184-147,232C1663,4319,1555,4324,1506,4306z M1640,4145
		c108-56,29-218-83-171c-41,17-57,41-57,88C1500,4138,1571,4181,1640,4145z M2409,4146c56-29,66-99,22-148c-61-68-166-28-166,63
		c0,34,6,46,33,70C2334,4163,2367,4167,2409,4146z"/>
	<path class="st0" d="M4580,4159c-31-14-92-67-197-172c-84-83-153-156-153-162s25-35,55-65l55-54l153,152l153,152h269h270l823-823
		l822-822v-275v-275l-828-828l-827-827h-260h-260l-830,830l-830,830v270v270l420,420c344,345,424,420,440,414c11-3,48-8,83-11
		c236-20,371,259,210,433c-111,121-303,110-404-23c-47-62-62-139-43-214l16-59l-423-425c-328-329-427-435-443-471
		c-20-43-21-66-21-330c0-238,3-290,16-326c14-35,177-204,858-886c641-643,851-847,885-862c40-18,67-20,327-20c276,0,285,1,336,23
		c46,21,167,138,883,861c533,538,836,850,847,874c25,55,26,590,2,654c-23,60-1676,1720-1742,1749c-40,17-69,19-330,18
		C4649,4179,4621,4177,4580,4159z M4000,3525c36-19,50-43,50-88c0-72-74-116-138-83c-37,19-52,44-52,86c0,41,14,66,48,84
		C3943,3543,3964,3544,4000,3525z"/>
	<path class="st0" d="M3910,1849c-55-25-105-71-133-124c-17-31-22-58-22-115s5-84,22-115c61-115,190-169,317-134l39,11l204-204
		c180-179,203-206,198-228c-28-117-13-198,51-269c104-116,270-122,377-14c20,19,44,51,53,72c26,52,30,152,10,206
		c-21,55-84,121-139,146c-48,21-146,25-197,8l-32-12l-205,206l-206,205l12,32c6,18,11,61,11,95C4270,1799,4077,1925,3910,1849z
		 M4059,1696c56-29,66-99,22-148c-24-27-36-33-70-33c-91,0-131,105-63,166C3984,1713,4017,1717,4059,1696z M4846,906
		c47-47,46-86-1-133c-31-31-40-35-72-30c-87,15-119,111-55,168C4763,951,4802,950,4846,906z"/>
</g>
</svg>
