<?xml version="1.0" encoding="utf-8"?>
<!-- Generator: Adobe Illustrator 17.1.0, SVG Export Plug-In . SVG Version: 6.00 Build 0)  -->
<!DOCTYPE svg PUBLIC "-//W3C//DTD SVG 1.1//EN" "http://www.w3.org/Graphics/SVG/1.1/DTD/svg11.dtd">
<svg version="1.1" id="Ebene_1" xmlns="http://www.w3.org/2000/svg" xmlns:xlink="http://www.w3.org/1999/xlink" x="0px" y="0px"
	 viewBox="0 0 348.7 55.4" style="enable-background:new 0 0 348.7 55.4;" xml:space="preserve">
<style type="text/css">
	.st0{fill:#443081;}
</style>
<g>
	<path class="st0" d="M347.2,30.5c-0.1-4.1-1.7-7.4-4.6-9.8c-2.9-2.4-7-3.6-12.1-3.6c-2.7,0-5.2,0.4-7.5,1.1
		c-2.3,0.7-4.2,1.8-5.9,3.3c-1.6,1.5-3,3.3-4,5.6c-1,2.3-1.6,5-1.7,8.1c-0.2,3.1,0.1,5.9,0.8,8.2c0.7,2.4,1.8,4.3,3.4,5.9
		c1.5,1.6,3.3,2.7,5.4,3.5c2.1,0.8,4.5,1.2,7.1,1.2c2.3,0,4.5-0.3,6.6-1c2.1-0.6,3.9-1.6,5.5-2.8c1.6-1.2,3-2.6,4.1-4.3
		c1.1-1.7,1.8-3.5,2.2-5.6h-10.2c-0.3,1.9-1.2,3.3-2.7,4.3c-1.5,1-3.2,1.5-5.1,1.5c-2,0-3.7-0.9-5.1-2.8c-1.4-1.8-2-4.7-1.8-8.5
		c0.1-1.9,0.4-3.5,0.9-4.8c0.5-1.3,1.1-2.4,1.9-3.1c0.7-0.8,1.6-1.4,2.6-1.7c1-0.3,2-0.5,3.1-0.5c1.9,0,3.5,0.5,4.8,1.5
		c1.3,1,2,2.4,2.2,4.2H347.2L347.2,30.5z M310.7,8c0-3.6-3-6.6-6.6-6.6c-3.6,0-6.6,3-6.6,6.6c0,3.6,3,6.6,6.6,6.6
		C307.8,14.6,310.7,11.7,310.7,8L310.7,8z M298.3,18l-1.8,35h10.1l1.8-35H298.3L298.3,18z M294.6,26.6l0.5-9.4h-1.3c-1,0-2,0-3,0.1
		c-1,0.1-2,0.3-3,0.7c-1,0.4-1.9,0.9-2.9,1.5c-0.9,0.7-1.9,1.6-2.8,2.8l0.2-4.2h-9.5l-1.8,35h10.1l1-18.2c0.3-5.6,3.6-8.4,9.8-8.4
		C292.7,26.4,293.7,26.5,294.6,26.6L294.6,26.6z M267.9,18h-21.1l0.6-6.6h-10.1L235.5,40c-0.1,1.9,0.1,3.7,0.6,5.4
		c0.5,1.7,1.4,3.2,2.6,4.5c1.2,1.3,2.8,2.3,4.7,3.1c1.9,0.8,4.3,1.2,7.1,1.2c2.7,0,5.1-0.4,7.1-1.2c2-0.8,3.7-1.8,5-3.1
		c1.3-1.3,2.3-2.8,3-4.5c0.7-1.7,1.1-3.5,1.2-5.3l0.5-10.1h-9.5l-0.5,9.1c-0.1,2.2-0.7,3.9-1.7,5.1c-1,1.2-2.5,1.8-4.5,1.8
		c-2.1,0-3.5-0.6-4.3-1.8c-0.8-1.2-1.2-2.9-1.1-5.1l0.8-14.4h21.1L267.9,18L267.9,18z M231.1,28.8c0.1-1.9-0.1-3.6-0.7-5
		c-0.6-1.5-1.4-2.7-2.5-3.6c-1.1-1-2.4-1.7-3.9-2.2c-1.5-0.5-3.2-0.8-5.1-0.8c-3.1,0-5.7,0.5-7.7,1.6c-2,1-3.7,2.5-5,4.5l0.3-5.1
		h-9.7L195,53h10.1l1.1-20c0.3-5.4,3.1-8.1,8.4-8.1c2.4,0,4.1,0.5,5,1.4c0.9,0.9,1.3,2.8,1.2,5.5L219.7,53h10.1L231.1,28.8
		L231.1,28.8z M191.8,38c0.7-13.9-4.9-20.9-17-20.9c-6,0-10.6,1.6-14,4.8c-3.4,3.2-5.2,7.5-5.5,13c-0.7,12.7,5.4,19,18.2,19
		c4.1,0,7.7-1,10.8-2.9c3.1-1.9,5.3-4.7,6.7-8.3h-10.5c-0.5,1.2-1.3,2.1-2.7,2.8c-1.3,0.7-2.8,1.1-4.4,1.1c-2.5,0-4.5-0.8-6-2.4
		c-1.4-1.6-2.2-3.7-2.2-6.2H191.8L191.8,38z M181.7,32.2H166c0.4-2.5,1.3-4.3,2.8-5.7c1.5-1.3,3.3-2,5.4-2c2,0,3.8,0.6,5.3,1.9
		C181,27.6,181.7,29.5,181.7,32.2L181.7,32.2z M142.9,30.5h10.2c-0.1-4.1-1.7-7.4-4.6-9.8c-2.9-2.4-7-3.6-12.1-3.6
		c-2.7,0-5.2,0.4-7.5,1.1c-2.3,0.7-4.2,1.8-5.9,3.3c-1.6,1.5-3,3.3-4,5.6c-1,2.3-1.6,5-1.7,8.1c-0.2,3.1,0.1,5.9,0.8,8.2
		c0.7,2.4,1.8,4.3,3.4,5.9c1.5,1.6,3.3,2.7,5.4,3.5c2.1,0.8,4.5,1.2,7.1,1.2c2.3,0,4.5-0.3,6.6-1c2.1-0.6,3.9-1.6,5.5-2.8
		c1.6-1.2,3-2.6,4.1-4.3c1.1-1.7,1.8-3.5,2.2-5.6h-10.2c-0.3,1.9-1.2,3.3-2.7,4.3c-1.5,1-3.2,1.5-5.1,1.5c-2,0-3.7-0.9-5.1-2.8
		c-1.4-1.8-2-4.7-1.8-8.5c0.1-1.9,0.4-3.5,0.9-4.8c0.5-1.3,1.1-2.4,1.9-3.1c0.7-0.8,1.6-1.4,2.6-1.7c1-0.3,2-0.5,3.1-0.5
		c1.9,0,3.5,0.5,4.8,1.5C142,27.3,142.7,28.7,142.9,30.5L142.9,30.5z M114.1,18H93l0.6-6.6H83.5L81.7,40c-0.1,1.9,0.1,3.7,0.6,5.4
		c0.5,1.7,1.4,3.2,2.6,4.5c1.2,1.3,2.8,2.3,4.7,3.1c1.9,0.8,4.3,1.2,7.1,1.2c2.7,0,5.1-0.4,7.1-1.2c2-0.8,3.7-1.8,5-3.1
		c1.3-1.3,2.3-2.8,3-4.5c0.7-1.7,1.1-3.5,1.2-5.3l0.5-10.1H104l-0.5,9.1c-0.1,2.2-0.7,3.9-1.7,5.1c-1,1.2-2.5,1.8-4.5,1.8
		c-2.1,0-3.5-0.6-4.3-1.8c-0.8-1.2-1.2-2.9-1.1-5.1l0.8-14.4h21.1L114.1,18L114.1,18z M77.9,38c0.7-13.9-4.9-20.9-17-20.9
		c-6,0-10.6,1.6-14,4.8c-3.4,3.2-5.2,7.5-5.5,13c-0.7,12.7,5.4,19,18.2,19c4.1,0,7.7-1,10.8-2.9c3.1-1.9,5.3-4.7,6.7-8.3H66.6
		c-0.5,1.2-1.3,2.1-2.7,2.8c-1.3,0.7-2.8,1.1-4.4,1.1c-2.5,0-4.5-0.8-6-2.4c-1.4-1.6-2.2-3.7-2.2-6.2H77.9L77.9,38z M67.7,32.2H52
		c0.4-2.5,1.3-4.3,2.8-5.7c1.5-1.3,3.3-2,5.4-2c2,0,3.8,0.6,5.3,1.9C67,27.6,67.7,29.5,67.7,32.2L67.7,32.2z M37.6,28.8
		c0.1-1.9-0.1-3.6-0.7-5c-0.6-1.5-1.4-2.7-2.5-3.6c-1.1-1-2.4-1.7-3.9-2.2c-1.5-0.5-3.2-0.8-5.1-0.8c-3.1,0-5.7,0.5-7.7,1.6
		c-2,1-3.7,2.5-5,4.5L13,18H3.3L1.5,53h10.1l1.1-20c0.3-5.4,3.1-8.1,8.4-8.1c2.4,0,4.1,0.5,5,1.4c0.9,0.9,1.3,2.8,1.2,5.5L26.1,53
		h10.1L37.6,28.8L37.6,28.8z"/>
</g>
</svg>
