<?xml version="1.0" encoding="utf-8"?>
<!-- Generator: Adobe Illustrator 16.0.4, SVG Export Plug-In . SVG Version: 6.00 Build 0)  -->
<!DOCTYPE svg PUBLIC "-//W3C//DTD SVG 1.1//EN" "http://www.w3.org/Graphics/SVG/1.1/DTD/svg11.dtd">
<svg version="1.1" id="Capa_5" xmlns="http://www.w3.org/2000/svg" xmlns:xlink="http://www.w3.org/1999/xlink" x="0px" y="0px"
	 width="862px" height="277px" viewBox="0 0 862 277" enable-background="new 0 0 862 277" xml:space="preserve">
<g>
	<g>
		<path fill="#5CA8DD" d="M486.891,95.524c-4.387-6.099-10.222-10.676-17.346-13.595c-6.946-2.845-15.397-4.287-25.122-4.287
			c-18.696,0-32.588,5.447-41.282,16.19c-8.526,10.53-12.851,27.371-12.851,50.057c0,11.219,1.291,21.018,3.834,29.131
			c2.58,8.254,6.288,15.135,11.014,20.446c4.767,5.366,10.597,9.384,17.327,11.937c6.602,2.511,13.989,3.779,21.958,3.779
			c7.883,0,14.956-0.927,21.024-2.752c5.982-1.804,11.15-3.891,15.359-6.207c4.235-2.322,7.684-4.67,10.241-6.972
			c3.332-2.997,4.358-4.132,4.882-4.785l1.785-2.235l-1.952-2.086c-2.217-2.377-4.515-4.83-6.89-7.365
			c-2.369-2.528-4.711-4.949-6.961-7.202l-2.335-2.336l-2.339,2.332c-0.518,0.517-1.596,1.517-3.822,3.364
			c-1.733,1.446-4.008,2.972-6.753,4.528c-2.707,1.536-5.953,2.874-9.649,3.986c-3.64,1.09-7.875,1.644-12.59,1.644
			c-3.101,0-6.333-0.58-9.601-1.719c-3.202-1.111-6.169-2.918-8.824-5.363c-2.64-2.43-4.845-5.721-6.552-9.777
			c-1.402-3.323-2.242-7.409-2.506-12.154h82.087v-3.307c0-12.5-0.94-23.396-2.801-32.375
			C494.321,109.192,491.179,101.499,486.891,95.524z M444.423,103.73c3.822,0,7.504,0.446,10.937,1.324
			c3.227,0.822,6.104,2.279,8.56,4.325c2.437,2.03,4.447,4.819,5.979,8.292c1.23,2.804,1.985,6.351,2.234,10.561H417.42
			c0.234-4.109,0.922-7.616,2.049-10.43c1.379-3.451,3.239-6.225,5.529-8.248c2.298-2.027,5.094-3.506,8.313-4.396
			C436.73,104.21,440.467,103.73,444.423,103.73z"/>
		<path fill="#5CA8DD" d="M628.313,105.478c2.76-0.87,5.722-1.465,8.812-1.762c3.223-0.305,5.994-0.458,8.239-0.458
			c4.021,0,7.56,0.297,10.514,0.881c2.97,0.599,5.625,1.342,7.89,2.216c2.212,0.859,4.284,1.912,6.149,3.131
			c2.017,1.321,3.952,2.678,5.764,4.035l2.48,1.859L695.3,95.386l-2.82-2.12c-2.562-1.919-5.297-3.834-8.13-5.696
			c-2.939-1.934-6.283-3.67-9.942-5.169c-3.673-1.502-7.896-2.685-12.549-3.521c-4.615-0.822-10.004-1.238-16.017-1.238
			c-11.28,0-20.475,1.357-27.33,4.027c-6.903,2.695-12.261,6.001-15.911,9.824c-3.712,3.886-6.144,8.062-7.231,12.408
			c-1.013,4.05-1.521,7.541-1.521,10.401c0.166,5.276,1.171,10.181,2.979,14.576c1.861,4.518,4.812,8.5,8.765,11.836
			c3.837,3.243,8.838,6.027,14.864,8.289c5.891,2.209,13.15,3.986,21.575,5.28c7.117,1.062,12.587,2.42,16.254,4.029
			c3.587,1.584,6.184,3.127,7.712,4.586c1.219,1.17,1.988,2.297,2.107,3.09c0.212,1.424,0.319,2.617,0.319,3.552
			c0,3.858-1.926,6.896-5.882,9.28c-4.44,2.678-11.256,4.037-20.266,4.037c-4.854,0-9.343-0.666-13.339-1.975
			c-4.116-1.346-7.785-2.934-10.906-4.715c-3.094-1.77-5.647-3.577-7.589-5.376c-2.022-1.871-3.592-3.362-4.541-4.308l-2.456-2.449
			l-18.095,19.968l1.971,2.216c1.392,1.573,3.562,3.586,6.638,6.157c3.078,2.581,6.935,5.144,11.467,7.612
			c4.545,2.479,9.959,4.65,16.09,6.447c6.219,1.822,13.2,2.744,20.762,2.744c9.659,0,17.892-1.138,24.467-3.38
			c6.663-2.284,12.13-5.353,16.244-9.126c4.17-3.818,7.182-8.169,8.944-12.929c1.709-4.634,2.58-9.336,2.58-13.97
			c0-5.444-0.833-10.395-2.474-14.715c-1.695-4.459-4.567-8.459-8.525-11.892c-3.823-3.313-8.81-6.221-14.826-8.645
			c-5.893-2.373-13.229-4.313-21.794-5.768c-6.846-1.216-12.203-2.625-15.921-4.187c-3.61-1.517-6.266-3.008-7.891-4.429
			c-1.895-1.655-2.444-2.707-2.604-3.187c-0.519-1.554-0.544-2.172-0.544-2.279c0-2.41,0.678-4.232,2.074-5.574
			C623.688,107.486,625.808,106.266,628.313,105.478z"/>
		<path fill="#5CA8DD" d="M815.067,150.775c0-12.512-0.941-23.408-2.803-32.376c-1.902-9.203-5.045-16.896-9.336-22.875
			c-4.388-6.099-10.222-10.672-17.348-13.595c-6.944-2.845-15.396-4.287-25.12-4.287c-18.699,0-32.588,5.447-41.282,16.19
			c-8.525,10.53-12.851,27.375-12.851,50.057c0,11.223,1.29,21.024,3.834,29.131c2.577,8.246,6.284,15.127,11.014,20.446
			c4.769,5.366,10.597,9.384,17.329,11.937c6.599,2.511,13.982,3.779,21.956,3.779c7.882,0,14.955-0.927,21.021-2.752
			c5.985-1.804,11.155-3.891,15.364-6.207c4.235-2.322,7.679-4.666,10.24-6.972c3.34-3.004,4.361-4.135,4.882-4.785l1.785-2.235
			l-1.952-2.086c-2.221-2.377-4.515-4.83-6.89-7.365c-2.384-2.54-4.727-4.965-6.961-7.202l-2.34-2.341l-2.34,2.341
			c-0.513,0.509-1.587,1.509-3.817,3.36c-1.737,1.451-4.008,2.972-6.756,4.528c-2.7,1.531-5.95,2.874-9.646,3.986
			c-3.637,1.09-7.872,1.644-12.591,1.644c-3.102,0-6.332-0.58-9.602-1.719c-3.201-1.111-6.173-2.918-8.822-5.363
			c-2.642-2.43-4.847-5.721-6.558-9.777c-1.397-3.323-2.236-7.409-2.499-12.154h82.085v-3.307H815.067z M760.462,103.73
			c3.823,0,7.504,0.446,10.938,1.324c3.223,0.822,6.104,2.279,8.559,4.325c2.438,2.026,4.446,4.815,5.979,8.288
			c1.231,2.811,1.982,6.358,2.235,10.564H733.46c0.234-4.109,0.922-7.612,2.048-10.43c1.38-3.451,3.239-6.225,5.529-8.248
			c2.295-2.027,5.091-3.506,8.314-4.396C752.768,104.21,756.505,103.73,760.462,103.73z"/>
		<path fill="#5CA8DD" d="M361.804,80.494l-38.857,78.708l-38.062-78.708h-28.561l39.761,88.581
			c0.483,1.151,11.965,28.354,17.581,36.78c1.844,2.769,4.867,4.113,9.236,4.113h0.003c4.392,0,7.411-1.346,9.24-4.115
			c3.648-5.52,11.936-23.735,12.29-24.51l45.941-100.85H361.804L361.804,80.494z"/>
		<path fill="#5CA8DD" d="M558.449,79.932c-6.195,1.324-12.134,3.343-17.683,6.013v-5.451h-26.563v125.838h26.563v-89.896
			c2.168-2.012,6.5-5.489,12.95-8.251c3.153-1.23,6.705-2.276,10.562-3.101c4.179-0.896,8.819-1.354,13.79-1.354h3.306V77.769
			l-3.175-0.123C571.328,77.381,564.665,78.151,558.449,79.932z"/>
	</g>
	<path fill="#5CA8DD" d="M123.307,241.711l-81.973-61.488V45.853l81.979,61.488l81.978-61.488v134.372L123.307,241.711z
		 M71.717,174.525l51.591,38.699l51.6-38.699l-51.595-38.699L71.717,174.525z M64.122,91.431v60.307l40.201-30.154L64.122,91.431z
		 M142.301,121.583l40.201,30.153V91.431L142.301,121.583z"/>
</g>
</svg>
