<svg xmlns="http://www.w3.org/2000/svg" xmlns:xlink="http://www.w3.org/1999/xlink" viewBox="0 0 107.72 113.62"><defs><style>.cls-1{fill:url(#Безымянный_градиент_8);}.cls-2{fill:url(#Безымянный_градиент_12);}.cls-3{fill:url(#Безымянный_градиент_26);}.cls-4{fill:url(#Безымянный_градиент_26-2);}</style><linearGradient id="Безымянный_градиент_8" x1="-376.26" y1="-2405.75" x2="-376.26" y2="-2528.48" gradientTransform="matrix(0.61, -0.24, 0.3, 0.78, 1042.08, 1896.72)" gradientUnits="userSpaceOnUse"><stop offset="0" stop-color="#534741"/><stop offset="0.53" stop-color="#544941"/><stop offset="0.72" stop-color="#565041"/><stop offset="0.86" stop-color="#595b40"/><stop offset="0.97" stop-color="#5e6c3f"/><stop offset="1" stop-color="#60723f"/></linearGradient><linearGradient id="Безымянный_градиент_12" x1="-349.51" y1="-2454.26" x2="-349.51" y2="-2498.21" gradientTransform="matrix(0.61, -0.24, 0.3, 0.78, 1042.08, 1896.72)" gradientUnits="userSpaceOnUse"><stop offset="0" stop-color="#534741"/><stop offset="0.49" stop-color="#544941"/><stop offset="0.7" stop-color="#565041"/><stop offset="0.85" stop-color="#595c40"/><stop offset="0.98" stop-color="#5f6e3f"/><stop offset="1" stop-color="#60723f"/></linearGradient><linearGradient id="Безымянный_градиент_26" x1="-306.11" y1="-2502.27" x2="-340.14" y2="-2521.92" gradientTransform="matrix(0.61, -0.24, 0.3, 0.78, 1042.08, 1896.72)" gradientUnits="userSpaceOnUse"><stop offset="0" stop-color="#95ab5c"/><stop offset="1" stop-color="#60723f"/></linearGradient><linearGradient id="Безымянный_градиент_26-2" x1="-461.7" y1="-2528.97" x2="-391.38" y2="-2528.97" xlink:href="#Безымянный_градиент_26"/></defs><title>plant_wall_small_left</title><g id="Capa_2" data-name="Capa 2"><g id="Capa_1-2" data-name="Capa 1"><path class="cls-1" d="M41.94,33.49a32.81,32.81,0,0,1,15.68,5.8c7.3,5.33,12,20.53,17,26S92.51,79.85,95.92,94.8s4.91,18.82,4.91,18.82S101.4,106,104,105s-3.71-11.14-6-15.45S89,73.8,87.25,72.26A83.51,83.51,0,0,1,69.7,49.43C63,36.5,53.74,33,51.34,32.1c-1.76-.68-11.63-4.4-11.63-4.4Z"/><path class="cls-2" d="M82.34,67.86a26,26,0,0,1,1.4-14.59c3.11-7.11,5-17.44,5-17.44l1.5,2.38s-6.58,20.31-4.56,27.64a46.51,46.51,0,0,0,3.47,9Z"/><path class="cls-3" d="M88.18,39s-1.59,8-7.37,2.1.46-23.1,8.37-28.36,17.08-10.27,17.6-12,1.53-.59.48,2.77-2.93,16.66-2.49,23.88-1.7,19.88-6,20.81a7.51,7.51,0,0,1-8.84-4.74Z"/><path class="cls-4" d="M42.1,30.11s6.3,9.42-4.93,13c-10.94,3.47-18.23-3.34-21.77-4.94S4.27,35.05,1.23,34.74s.52-1.68.52-1.68S8.63,29.68,12,26.18,23.19,17.42,30.05,17,43.72,19.13,46,24.93,42.1,30.11,42.1,30.11Z"/></g></g></svg>