<svg width="320" height="321" viewBox="0 0 320 321" fill="none" xmlns="http://www.w3.org/2000/svg">
<path d="M236.8 20.2L231.8 18.9L228.8 15.8L225.6 12.8V9.2L226.3 9.1L227 8.9L231.4 8.4L235.7 7.9L237 8L238.5 7.8L238.9 8.6L239.4 9.4L238.4 11.9L237.3 14.4L238.3 15.2L239.4 16.2L242.4 18.5L245.4 20.8V21.2L244.4 21.4L243.4 21.6H241.7L236.8 20.2Z" fill="#5467B0"/>
<path d="M186.9 18.4L176.5 15.8V15.4L176.6 14.9L177 13.1L177.3 11.3L178.5 11L179.7 10.6L191 7.8L202.5 4.9V5.5L199.9 13.3L197.3 21.2H197.2L186.9 18.4Z" fill="#5467B0"/>
<path d="M91.2 18L75.7 16.7H73.7L73.3 15.7L73 14.7H73.4L73.8 14.5L92 11.3L110.2 8L110.4 8.1L110.5 8.3L110 12.8L109.4 17.4L109.2 18.3L109.1 19.2H107.9L106.7 19.1L91.2 18Z" fill="#3A3266"/>
<path d="M164.3 17.7L158.3 17.2L155.8 9L153.3 0.9V0H176.3V0.8L174.1 9.2L171.8 17.7L171.7 17.9L171.5 18.2H170.9L170.4 18.1L164.3 17.7Z" fill="#7994FD"/>
<path d="M262.4 12.2L258.8 6.2V5.7L261.7 4.5L264.7 3.3L268.6 5.6L272.5 7.8L275.5 9.6L278.5 11.3L273.5 14.2L268.3 17.1L267.3 17.6L266.1 18.2L262.4 12.2Z" fill="#5467B0"/>
<path d="M146.6 16.3L139 15.7L138.9 15.5L138.7 15.3L137 8.3L135.3 1.2L135.2 0.6L135 0L142.6 0.1L150.1 0.2L152.8 8.5L155.5 16.9V17H154.1L146.6 16.3Z" fill="#5467B0"/>
<path d="M56.6 8L51.6 0.6V0.3L51.5 0.1H78.4L80.9 4.6L83.4 9.2V10.1L72.8 12.7L62.2 15.4H61.6L56.6 8Z" fill="#5467B0"/>
<path d="M114.7 14.7V14.3L114.1 11.3L113.6 8.3V7.5L118.9 3.8L124 0L127.6 0.1L131.3 0.2L132.5 5.8L133.7 11.3L133.5 11.5L133.4 11.7L124.6 13.4L116 15H115L114.7 14.7Z" fill="#5467B0"/>
<path d="M211.2 13L209.4 11.4L208.2 10.4L207 9.4L207.5 6.1L208 2.8L208.2 2L208.4 1.3L212.4 1.5L216.4 1.7L219.3 1.9L222 2L222.9 3.2L223.7 4.4V12.5H222.4L218.2 13.3L213.9 14.2H213.4L213 14.4L211.2 13Z" fill="#7E62D9"/>
<path d="M3.8 12L0 11.9V0L0.3 0.1L0.6 0.2L4.2 6.2L7.7 12V12.2L7.5 12.4L3.8 12Z" fill="#3A3266"/>
<path d="M8 5.9L4 0.2H18.5L33.1 0L33.2 0.2L33.4 0.3L33.1 1.3L32.9 2.2L30.8 3.2L28.6 4.2L20.6 7.9L12.5 11.6H12L8 5.9Z" fill="#3A3266"/>
<path d="M313.8 10.7L309.3 9.9L309.1 9.7L308.9 9.5L308.4 4.8L308 0H320V11.5H318.2L313.8 10.7Z" fill="#343864"/>
<path d="M276.2 7L268.6 4.7L268.2 4.5L267.7 4.3L269.2 2.2L270.8 0.1H289.9L288.6 2.4L287.3 4.7L286 7L284.8 9.3H283.7L276.2 7Z" fill="#5467B0"/>
<path d="M291.6 4.7L294 0H306V7.6H305.5L298.1 8.4L290.6 9.2H289.4L291.6 4.7Z" fill="#5467B0"/>
<path d="M86.8999 8.3L86.6999 7.6L86.1999 4.6L85.7999 1.5L85.5999 0.8L85.3999 0.1H116.3L114.1 2.3L111.8 4.5L99.9999 6.8L87.9999 9H86.9999L86.8999 8.3Z" fill="#5467B0"/>
<path d="M178 7.5L178.2 6.9L178.9 3.7L179.5 0.4V0.1H204.2L204 1.1L203.8 2.1L203.6 2.4L203.3 2.6L190.7 5.3L178.1 8.1H177.9L178 7.5Z" fill="#5467B0"/>
<path d="M225.9 6.9L225.7 6.6L226.5 3.3L227.3 0.1H240.3L240.6 1.3L241 2.5L241.4 4L241.9 5.6L241.8 5.7L235 6.3L228.3 6.8L227.2 7L226 7.1L225.9 6.9Z" fill="#5467B0"/>
<path d="M252.2 2.4L246.9 0.4L246.8 0.2L246.6 0.1H264.1L261 2.3L257.7 4.5H257.5L252.2 2.4Z" fill="#7E62D9"/>
<path d="M199.4 43.8L197.4 39.5V39L203.7 34.2L210 29.4L210.7 28.9L211.4 28.4L214.9 31.4L218.5 34.4L218.9 37L219.3 39.7V40.5L214.3 42.4L209.3 44.3L205.7 46.2L202 48.2H201.4L199.4 43.9V43.8Z" fill="#5467B0"/>
<path d="M222.4 47L221.4 42L220.4 37.1V36.5L223 35.7L225.5 35H230.8L230.6 35.5L230.4 36L226.7 41.3L223 46.7L222.7 47L222.4 47.3V47.2V47Z" fill="#5467B0"/>
<path d="M82.7001 45.8L78.6001 45.3V41.8L78.8001 38.3L79.1001 34L79.4001 29.7L79.5001 29L79.7001 28.3L80.6001 27.9L81.4001 27.5L89.9001 27.3L98.4001 27.2L99.1001 29.9L99.9001 32.7L94.5001 39.6L89.1001 46.4H87.0001L82.7001 45.8Z" fill="#5467B0"/>
<path d="M168.3 46.2V46L169.6 41L170.8 36.2L171 36L171.1 35.9L175.2 35.4L179.4 35L184.1 34.6L188.8 34.3H195.2L195 36.5L194.8 38.6L194.6 39.4L194.4 40.2L181.7 43.3L169.1 46.4H168.3V46.2Z" fill="#7994FD"/>
<path d="M162.2 44.8L160.8 43.4L151 34.4L141.1 25.3L140.8 24.1L140.5 22.9L140 20.6L139.5 18.3V18H139.7L146.2 18.8L152.6 19.8L158.4 20.8L164.2 21.8L168.2 22.6L172.3 23.4H172.4L172.5 23.6L171.5 26.1L170.5 28.6L167.3 36.9L164.1 45.2L163.9 45.6L163.7 46L162.2 44.8Z" fill="#5467B0"/>
<path d="M68.6001 44.1L63.5001 43.5L60.1001 36.6L56.6001 29.8L57.4001 28.7L58.2001 27.6L59.1001 26.5L59.9001 25.3L62.5001 26.6L65.0001 28L70.0001 30.8L75.0001 33.5L75.8001 34.1L76.6001 34.7L76.5001 39.1L76.4001 43.5L76.2001 44.2L76.1001 45H75.0001L73.8001 44.9L68.6001 44.1Z" fill="#5467B0"/>
<path d="M292.8 38.4L290.8 32.2V31.7L296.5 30L302.2 28.3L302.4 28.4L302.5 28.5L303.1 34.1L303.7 39.6V41L299.9 42.5L296.2 44.1L295.5 44.3L294.8 44.6L292.8 38.4Z" fill="#5467B0"/>
<path d="M272.1 39.5L272.3 38.6L273 34.6L273.6 30.4V29.5H270.5L267.4 29.3L266 26.1L264.7 22.9V22.5L269.5 19.5L274.5 16.5L277.9 14.4L281.4 12.2L281.5 12.4L282.5 19L283.5 25.7V30.4L278.1 35.4L272.6 40.2L272.3 40.3L271.9 40.4L272.1 39.5Z" fill="#343864"/>
<path d="M306.2 37V35H311.6L312.5 36.2L313.3 37.6L313.1 37.8L310.1 38.4L307.2 39.1H306.2V37Z" fill="#5467B0"/>
<path d="M23.3001 34.7L21.6001 30.9V11.4L24.1001 10.5L26.6001 9.7L30.4001 12.4L34.0001 15L39.8001 22.6L45.7001 30.2V30.6L36.7001 34L27.9001 37.3L26.4001 37.8L24.9001 38.4L23.3001 34.7Z" fill="#5467B0"/>
<path d="M43.0999 37.7L38.3999 37V36.6L39.7999 35.8L40.9999 35L44.4999 32.9L47.9999 30.8L50.0999 31.4L52.1999 32.1L52.4999 32.3L52.6999 32.4L51.1999 34.4L49.6999 36.2L48.6999 37.3L47.6999 38.3L43.0999 37.7Z" fill="#5467B0"/>
<path d="M16.3 34.5L11.3 32.5L10.2 28.2L9 23.9L7.6 19.3L6 14.6H6.1L11 14L15.8 13.5L17 13.3L18.1 13.1L18.8 17.4L19.5 21.7L19 25L18.4 28.4L20 32.3L21.6 36.2H21.5L21.4 36.4L16.3 34.5Z" fill="#5467B0"/>
<path d="M0 25V14.7L1.8 14.8L3.6 14.9L6.1 23.2L8.6 31.5L8.5 31.6L5.5 32.9L2.5 34.3L1.2 34.8L0 35.3V25Z" fill="#3A3266"/>
<path d="M246.9 34.6L247.1 34L248.3 29.5L249.6 25L249.7 24.8L249.9 24.6L254.8 24.2L259.7 23.8L261 23.6L262.3 23.5L263.5 27.5L264.7 31.5L264.5 31.6L264.4 31.8L255.7 33.5L247 35.3H246.7L246.9 34.6Z" fill="#5467B0"/>
<path d="M312.2 33L304.8 31L304.7 30.9L307.1 22.5L309.6 14.2L313.1 14.3L316.6 14.5L318.3 14.6L320 14.8V35.3H319.8L319.5 35.2L312.2 33Z" fill="#343864"/>
<path d="M105.7 34L102.4 33.4L102.3 33.3L102.2 33.2L101 27.5L99.8 21.8L99.9 21.4L100 21L105 21.8L110 22.6V34.6H109L105.7 34Z" fill="#5467B0"/>
<path d="M137.4 32.4L133 31L129.3 30.2L125.6 29.4L119.6 28.6L113.8 27.7H112.3V25.7L112.8 22.5L113.1 19.3H114.1L115.1 19.1L117.9 18.4L120.9 17.6L126.2 16.6L131.7 15.6L133.1 15.3L134.6 15V15.1L134.7 15.2L135.7 20.2L136.7 25.3L137.6 26.3L138.5 27.3L140.5 30.3L142.5 33.3V33.6H141.9L137.4 32.3V32.4Z" fill="#7E62D9"/>
<path d="M171.6 33.1L171.8 32.5L173.6 25.3L175.4 18L177.6 18.6L179.6 19.2L187.8 21.5L195.9 23.8H196.2L196.4 24L195.9 27.6L195.5 31.3L195.4 31.6L195.3 32L189.6 32.2L183.8 32.4L178.8 32.8L173.6 33.3L172.6 33.5L171.5 33.7L171.6 33.1Z" fill="#5467B0"/>
<path d="M198 28.8L198.6 24.5L201.1 18.5L203.6 12.4V12.3L203.8 12.2L207 13.2L210.2 14.2V23.6L203.9 28.3L197.5 33H197.2L198 28.8Z" fill="#5467B0"/>
<path d="M217.7 30L212.9 27L213.5 22.2L214.1 17.5V16.5L215 16.3L215.8 16.1L220.2 15.1L224.6 14.2L228.4 18.5L232.2 22.7L233.3 25.5L234.5 28.3L233.3 30.7L232.2 33H222.6L217.7 30Z" fill="#5467B0"/>
<path d="M72.5999 29.6L69 27.5L65 25.5L61.2 23.5L63.2 20.5L65.4 17.5V17.4L65.5999 17.2L71.5999 17.8L77.5999 18.3H78.6999V19.9L77.9 24.8L77.0999 29.6V31.7H76.3L72.5999 29.6Z" fill="#5467B0"/>
<path d="M49.2001 29L47.2001 28.7L44.3001 23.6L41.3001 18.5L36.5001 13.8L31.6001 9L35.0001 4.6L38.0001 0H41.7001L44.8001 1L48.0001 2L54.0001 10L59.8001 17.8L59.2001 19L58.6001 20.2L55.8001 24.8L53.0001 29.4H52.0001L51.0001 29.5L49.2001 29Z" fill="#5467B0"/>
<path d="M286.4 27L284.8 24.6V19L285 13.3L291.3 12.8L297.7 12.2L298.1 12.3L298.5 12.5L299.8 19.2L301.2 26L301 26.2L300.8 26.4L295 27.9L289.1 29.5H288L286.4 27Z" fill="#7994FD"/>
<path d="M80.2 25.4L80.5 23L80.9 20.7V18.7H81.4L88.8 19.3L96.2 19.9L96.4 20.2L96.6 20.4L97.1 22.4L97.6 24.3V25H84.6L82.5 25.3L80.3 25.5L80.2 25.4Z" fill="#3A3266"/>
<path d="M302.3 18.8L301.1 14.2L302.7 11.8L304.4 9.3L305.5 10.3L306.7 11.2L307.3 11.8L307.8 12.4L305.8 17.9L303.8 23.4H303.6L302.3 18.8Z" fill="#7994FD"/>
<path d="M251.4 22.2L250.9 21.6L245.5 17.6L240 13.6V13L241.6 8.8L243.2 4.7L244.6 3.3L246 1.9L252 5.1L258 8.3L259 10L260 11.7L262 15.5L264 19.3V19.8L262.8 21.3L261.7 22.8H251.9L251.4 22.2Z" fill="#5467B0"/>
<path d="M210.8 97L208.6 96.6V96.2L206.8 81.5L204.8 66.8L205.8 66L206.7 65.2L208.5 63.6L210.3 62L210.9 62.8L211.4 63.6L213.2 66L215 68.4L217.7 71.6L220.3 74.8L224.6 79L228.8 83.3V83.7L222.4 89.3L216 95L214.5 96.3L213 97.6L210.8 97.2V97Z" fill="#343864"/>
<path d="M100.6 95.2L101.5 93.3L104.4 86.6L107.3 79.9L107.4 79.7L113 82.2L118.7 84.7L118.8 86.6L119 88.6L119.2 92.6L119.5 96.6H111.5L105.6 96.9L99.8 97.1L100.6 95.2Z" fill="#5467B0"/>
<path d="M95.6 94.6L95 94.2L97.1 88.2L99.3 82.2L99.6 81.6L99.8 81.1L101.8 81.4L103.8 81.7L103.9 81.8L104 81.9L100.4 88.5L96.8 95.1H96.2L95.6 94.6Z" fill="#5467B0"/>
<path d="M147.1 92.5L141.4 90.7L141.3 90.5L141.1 90.4L146 78.6L150.8 66.8L150.9 66.7V66.6L156.3 68.6L161.6 70.6L160.9 72.2L160.3 73.8L157.7 81L155.2 88.2L154 91.2L153 94.2L152.9 94.3L147.1 92.5Z" fill="#3A3266"/>
<path d="M240.5 94L240.3 93.7L238.4 87.4L236.5 81.2L237.1 80.5L237.7 79.7L242.7 74.7L247.7 69.5L253 71.5L258.4 73.5L258.5 74.4L258.6 75.2L257.6 83.6L256.6 92.1L256.5 93.3L256.3 94.5H240.6L240.5 94Z" fill="#5467B0"/>
<path d="M75 93L74 92.4L69.5 89L65 85.7V85.3L65.8 84.9L66.6 84.4L67.9 84.8L69.3 85.2L73.8 86.6L78.4 88.1V88.6L77.2 91.2L76 93.8L75 93Z" fill="#5467B0"/>
<path d="M34.8999 91.9L33.3999 91.6L25.3999 90.2L17.1999 88.7L16.9999 88.5L16.8999 88.4L21.2999 81.7L25.6999 75.1L26.0999 74.5L26.4999 74L30.1999 73L33.9999 72H35.4999L35.6999 72.8L35.8999 73.5L36.7999 81L37.7999 88.5L37.9999 90L38.1999 91.4L37.2999 91.8L36.4999 92.2H36.3999L34.8999 91.9Z" fill="#5467B0"/>
<path d="M257.6 90.8V90.5L260.2 78.5L262.7 66.5L265.5 58.9L268.3 51.2L268.5 51.3L268.7 51.4L272.4 56.4L276.2 61.4L274.4 74.3L272.7 87.2H272.6L272.5 87.3L267.8 88.5L263.2 89.7L260.4 90.5L257.6 91.2V90.8Z" fill="#3A3266"/>
<path d="M40.7999 88.8L40.5999 87.3L39.5999 79.9L38.7 72.5V71.5L41.7 71.1L44.7 70.8L47 70L49.0999 69.2L49.4 69.4L49.5999 69.7L54.7 75.9L59.7999 82.1L59.5999 82.3L59.4 82.5L50.4 86.5L41.5 90.3H41.0999L40.7999 88.8Z" fill="#5467B0"/>
<path d="M86.2999 89.4H80.7999L80.5999 89.1L80.3999 88.9L80.9999 82.5L81.5999 76.1L81.7999 76L89.4999 77.8L97.2999 79.6L97.4999 79.8L97.5999 80L95.6999 84.7L93.7999 89.5H86.2999V89.4Z" fill="#343864"/>
<path d="M132 86.8L126.4 85V84.6L129.1 83.7L131.7 82.9L136.4 82L141.1 81.1V81.7L139.5 85.2L137.8 88.7H137.5L131.9 86.8H132Z" fill="#5467B0"/>
<path d="M0 77.3L0.2 67.1L0.8 67L1.4 66.8L11 71.6L20.5 76.4V76.9L17.6 81.9L14.7 86.7L10 86.9L5.3 87.1L2.6 87.3L0 87.5V77.3Z" fill="#5467B0"/>
<path d="M276 85.9L276.1 85L277.1 73.6L278.2 62.1L278.4 61.8L278.6 61.6L285 61.4L291.4 61.3L294.8 71.9L298.2 82.5H298.1L287.2 84.7L276.4 86.7H275.8L276 85.9Z" fill="#3A3266"/>
<path d="M317.2 78L314.5 69.5L314.8 69.2L315.1 68.9L317.4 68.1L319.8 67.3H319.9L320 67.5V77L319.8 86.6L317.2 78Z" fill="#5467B0"/>
<path d="M176.6 85.5L176.4 84.8L178.1 80.8L179.8 76.7L182.2 71.7L184.6 66.7H185.2L193.8 69.2L202.4 71.8L202.7 72L202.9 72.3L203.4 75L203.8 77.7V78.8H202.6L199 79.8L195.3 81L191.3 82.5L187.3 83.9L184.1 84.9L180.7 85.8L178.7 86L176.7 86.2L176.6 85.5Z" fill="#5467B0"/>
<path d="M71.5 82.9L65.5 81.3L64.6 80.4L63.8 79.4L60.8 76.3L58 73L62.7 69.2L67.3 65.5L73.3 69.7L79 74V75.7L78.6 79.7L78.1 83.7V84.5H77.6L71.6 82.9H71.5Z" fill="#343864"/>
<path d="M115.4 81.3L108.6 79L108.4 78.8L109.6 77.3L110.9 75.7L113.1 73.2L115.3 70.6L121.3 64.3L127 58H130.9L130.7 58.7L130.5 59.4L130 62.1L129.5 64.9L129.2 70.5L128.8 76.1L128.4 78.7L128 81.4L127.8 81.5L127.7 81.7L125.1 82.7L122.6 83.6H122L115.3 81.3H115.4Z" fill="#5467B0"/>
<path d="M228.2 79.4L225.7 77.2L223.9 75.2L222.1 73.1L224.1 71.5L226.1 69.9L231 66L235.9 62.1H236.1L238.4 67.5L240.7 72.8L240.4 73.2L240.2 73.6L235.6 77.6L231.1 81.6H230.6L228.2 79.4Z" fill="#5467B0"/>
<path d="M299.7 81L299.6 80.9L297.3 71.5L295 62V61.2L297 59.9L299 58.6L299.4 59.1L299.7 59.6L304.7 67.8L309.7 76.1V76.6L307.9 77.5L306.1 78.3L303 79.7L299.9 81.2L299.7 81Z" fill="#5467B0"/>
<path d="M132.7 72L133.1 63.6V58.2L135.4 58.4L137.8 58.6L143.5 60.9L149.3 63.2L149.5 63.4L149.8 63.6L146.5 70.5L143.2 77.4L141.3 77.8L139.5 78.2L136.3 79.2L133 80.4H132.3L132.7 72Z" fill="#5467B0"/>
<path d="M100.2 78.2L97.8001 77.8L97.6001 77.6V77.5L100.2 68.9L102.8 60.3L104.4 60.1L106.1 59.9V60.1L105.2 68.7L104.3 77.3L104.2 78.1L104 78.8H102.6L100.2 78.2Z" fill="#5467B0"/>
<path d="M107.3 67.3L108.5 56.9L108.7 56.7L116.4 57.1L123.9 57.6L124.1 57.8L120.7 61.5L117.3 65.2L114 68.8L110.8 72.3L108.6 75.1L106.4 77.8H106.1L107.3 67.3Z" fill="#5467B0"/>
<path d="M88.2999 74.3L80.7999 72.5L78.5999 70.2L76.3999 68L76.8999 67.3L77.2999 66.6L81.3999 63.3L85.5999 60L89.9999 56.7L94.3999 53.5H94.7999L97.7999 55.8L100.8 58V58.5L99.7999 62.1L98.6999 65.8L97.4999 70.8L96.2999 75.8L96.0999 75.9L95.7999 76.1L88.2999 74.3Z" fill="#5467B0"/>
<path d="M13.7 70L5.20005 65.8L5.00005 65.6L4.80005 65.5L12.3 62.8L19.7 60.2L23.9 62.8L28.2001 65.5V66L25.5 70L22.8 74.2H22.2001L13.7 70Z" fill="#7994FD"/>
<path d="M168.3 70.5L158.6 67.4L158 67.2L157.5 67L160.9 62L164.3 56.9L164.6 56.5L165 56.1L169 57.1L173 58L175.5 58.8L178.1 59.6L181.1 61.1L184.1 62.6L183.9 62.8V63L181.3 68.3L178.8 73.7H178.4L178.1 73.6L168.3 70.5Z" fill="#5467B0"/>
<path d="M53.1001 69.4L51.1001 66.4L49.8001 65.1L48.6001 63.7L49.2001 63.2L49.8001 62.8L51.2001 62L52.6001 61.3L57.0001 59.4L61.3001 57.5L62.3001 56.8L63.3001 56.1L64.0001 59.7L64.7001 63.3L64.8001 63.9L65.0001 64.6L60.7001 68L56.4001 71.5L56.0001 71.9L55.6001 72.4H55.2001L53.1001 69.4Z" fill="#5467B0"/>
<path d="M219.5 70.2L218.7 69.3L216.7 66.9L214.8 64.5L213.4 62.5L212 60.5L212.5 60.1L213 59.6L221 52.7L228.9 45.7V45.9H229L231 50.5L233 54.9L234 57.5L235.2 60.2L227.9 65.6L220.6 71.1H220.3L219.5 70.2Z" fill="#5467B0"/>
<path d="M28.2001 70.2L28.3001 69.9L33.3001 62.9L38.2001 56L38.4001 56.1L38.7001 56.2L43.0001 61.3L47.3001 66.3L47.2001 66.7L47.0001 66.9L45.4001 67.4L43.7001 67.9L39.5001 68.4L35.4001 68.9L32.2001 69.5L29.1001 70.2L28.6001 70.4L28.1001 70.6L28.2001 70.2Z" fill="#5467B0"/>
<path d="M252 67.9L244.6 65.9L242.6 65.5L240.6 64.9L237.4 58.5L234.3 52.1L235 52L235.7 51.9L249 51L262.2 50.2L262.4 50.4L261 60L259.6 69.5V69.6L259.4 69.7L252 67.9Z" fill="#5467B0"/>
<path d="M307.3 67.8L306.3 66.1L301.2 56.6L296 47V46.8L299.4 45.6L302.8 44.3L303 44.6L303.3 44.9L308.9 55.1L314.6 65.2L314.8 65.7L314.9 66.2L311.9 67.7L308.9 69.2L308.6 69.3L308.2 69.4L307.3 67.8Z" fill="#5467B0"/>
<path d="M193.6 66.4L186.1 64.6L186 64.5L185.8 64.4L186.7 62.5L187.5 60.7L191.7 52.1L195.8 43.6V42.9H196.3L198.5 50.2L200.6 57.5L201.3 61.8L201.9 66.1L202.1 67.1L202.3 68.2H201.1L193.6 66.4Z" fill="#7994FD"/>
<path d="M70.2999 64L67.2999 62.2L67.1999 61.6L66.8999 61L65.3999 53.4L63.8999 45.8L64.0999 45.7L64.1999 45.5L76.6999 47.3L88.9999 49L90.8999 50.4L92.6999 51.8L87.7999 55.4L82.8999 59L79.6999 61.5L76.4999 64L75.1999 64.6L73.8999 65.2L73.6999 65.5L73.4999 65.9H72.9999L70.1999 63.9L70.2999 64Z" fill="#706BCC"/>
<path d="M147.5 60.5L139.4 56.1V55.8L139.5 55.4L141.5 52.4L143.5 49.4L145.2 45.9L146.9 42.3L148.2 40L149.5 37.8H149.8L156.8 44.5L163.7 51.1V51.5L159.8 58.2L156 65H155.7L147.5 60.5Z" fill="#5467B0"/>
<path d="M25.7 60.2L22 56.9V56.5L24.3 52.7L26.7 48.9L30 43.5L33.3 38.1L34 38.2L34.6 38.4L40.1 39.4L45.7 40.5V40.9L37.6 52L29.5 63.2L29.3 63.3V63.4L25.7 60.2Z" fill="#5467B0"/>
<path d="M43.2 58.1L40.2 54.1L42 51.8L43.7 49.4L49 42L54.5 34.6H54.9L57.9 40.3L61 46L61.7 49.3L62.4 52.5L61.5 53.3L60.5999 54.2L56.0999 56.4L51.5 58.6L49 60.3L46.4 62.1H46.2999L43.2999 58.1H43.2Z" fill="#343864"/>
<path d="M1 61.3L0 60.7V49.1L0.2 37.4L4.4 36L8.6 34.6L9.7 35.1L10.9 35.7V36.4L6.7 49.1L2.5 61.8H2.1L1 61.3Z" fill="#5467B0"/>
<path d="M6.40005 60.8V60.7L6.70005 58.7L7.10005 56.9L7.90005 53.9L8.70005 51.1L11.3 44.1L13.9 37.1V36.9H14L20 39.4L25.9 41.9L26.7001 42.4L27.5 42.8L24.1 48.1L20.7 53.3L19.6 55.2L18.4 57.1L18.1 57.5L17.8 57.9L12.5 59.4L7.00005 60.9H6.30005L6.40005 60.8Z" fill="#5467B0"/>
<path d="M183 59.5L181 58.5L178.3 57.5L175.5 56.5L170.7 55.3L166 54L165.6 53.8H165.2L166.4 52L167.6 50.2H167.7L180.7 46.2L193.5 42.2L193.6 42.3L193.8 42.5L191.7 46.9L189.6 51.3L187.4 55.9L185.2 60.4H184.8L182.9 59.4L183 59.5Z" fill="#5467B0"/>
<path d="M316.9 58.4L313.9 56.2L310.4 50.1L306.8 43.9L306.9 43.7L307.1 43.6L311.4 41.6L315.8 39.4L317.9 38.4L320 37.5V60.5H319.8L316.9 58.4Z" fill="#5467B0"/>
<path d="M204.2 59.8L203.4 54.9L202.6 50.1H202.7L211 46.5L219.2 42.9H219.5V48.3L214.7 52.6L209.9 56.9L207.3 58.4L204.6 59.9H204.2V59.8Z" fill="#5467B0"/>
<path d="M274.8 54.7L271.8 51.1L270.8 49.7L269.6 48.3L272.3 45.7L275 43.1L280.3 38.1L285.5 33L285.7 33.1L285.9 33.3L287.8 36L289.6 38.7L292.8 47.6L296 56.5V57.2L288.6 57.6L281.1 58L279.5 58.2L277.8 58.4L274.8 54.7Z" fill="#5467B0"/>
<path d="M97.9 51.4L92 47.1V46.8L92.2 46.5L96.2 41.2L100.3 35.8L100.7 35.7L101.1 35.5L105.1 36.2L109 36.9L109.2 37.1L109.4 37.3L108.3 45.3L107.2 53.3L106.4 54L105.6 54.6L104.7 55.2L103.7 55.7L97.9 51.4Z" fill="#5467B0"/>
<path d="M127 55L121.8 54.7L119.5 52.4L117.3 50.1L114.8 47.1L112.3 44.1L111.7 42.1L111 40V38L111.4 34.7L111.8 31.4L112.6 31.6L113.4 31.8L118.8 32.6L124.1 33.3L130.1 34.4L136.1 35.5L140.7 36.2L145.3 37V37.1L145.1 37.3L142.5 42.6L139.8 47.9L137.4 51.6L134.9 55.4H132.3L127 55Z" fill="#7E62D9"/>
<path d="M112.2 54.2L109.2 54L109.3 53.3V52.7L109.8 48.9L110.2 45.2H110.7V45.7L112.9 48.3L115 50.8L116.4 52.4L117.8 54.1V54.5L116.4 54.4H115L112.2 54.2Z" fill="#5467B0"/>
<path d="M232.5 45L230.7 40.7V40.4L234.4 31.6L238.1 22.9L238.4 22.7L238.6 22.6L242.6 23.6L246.6 24.6L246.8 24.7L247 24.9L246 32.4L244.8 39.9V49.3H234.3L232.5 45Z" fill="#706BCC"/>
<path d="M246.8 44.2V39L258.8 36L270.8 33L271 33.1L271.1 33.3L268.6 40.5L266.1 47.7L266 48L265.8 48.3L258.4 48.7L251 49L248.9 49.2L246.7 49.4L246.8 44.2Z" fill="#5467B0"/>
<path d="M0 110.8V108.2L0.6 108.5L1.2 108.9L2.1 109.2L2.9 109.5L2.2 110.8L1.5 112.2L1 112.8L0.5 113.3H0V110.8Z" fill="#7E62D9"/>
<path d="M125.3 111.4L124.3 110.1H124.5L124.6 109.9L128 107.3L131.4 104.8L135.7 102.1L140 99.4L143.6 97.4L147.2 95.4L150.8 96.4L154.4 97.4L154.6 97.6L154.8 97.8L152.1 104.9L149.3 112L149.1 112.1L149 112.3L137.6 112.5L126.2 112.7L125.3 111.4Z" fill="#5467B0"/>
<path d="M215.1 106.3L213.1 102.1V101.6L223.2 93L233.3 84.5L233.5 84.7L233.7 84.9L236.4 91.5L239 98L238.9 98.2L238.7 98.4L228.1 104.4L217.5 110.2H217.3L217.1 110.4L215.1 106.3Z" fill="#7E62D9"/>
<path d="M40.2 103.7L34 97.3V96.7L38.6 94.6L43.2 92.6H43.9L47.6 95.3L51.3 98.1L54.6 101L57.8 103.9L57.6 104.1L57.3 104.3L52.1 107.3L46.8 110.1H46.1L40.1 103.7H40.2Z" fill="#5467B0"/>
<path d="M254.7 103.7L251.5 98.5L251.7 98.3L252 98L254.9 97.2L257.8 96.4L258.4 97.1L259 97.9L261.9 101.1L264.7 104.4V104.5L264.5 104.6L261.6 106.6L258.7 108.4L258.4 108.6L258 108.8L254.7 103.7Z" fill="#5467B0"/>
<path d="M122 106.3L122.2 104.5L122.4 96.9L122.6 89.2L122.8 88.8L123 88.5L131.2 90.8L139.4 93.1L141.1 93.7L142.8 94.2L141.9 94.8L140.9 95.3L135.9 98.3L130.9 101.3L126.7 104.4L122.7 107.4L122.2 107.7L121.9 108L122 106.3Z" fill="#5467B0"/>
<path d="M1.7 106L0 105V89.6L6.8 89.7L13.6 89.8L21.4 92.5L29.1 95.2V95.7L24.6 98.9L20.1 102.2L19.4 102.5L18.7 102.8L11.1 104.8L3.5 106.9H3.4L1.7 106Z" fill="#7E62D9"/>
<path d="M266.6 100.7L262.1 94.4L261.9 94L261.7 93.5L263.9 92.9L266.1 92.2L272.8 90.2L279.5 88.1L279.9 88.5L280.3 88.9L284.6 96L289 103.2H288.9L288.8 103.4L280.4 105.2L271.9 106.9H271.1L266.6 100.7Z" fill="#5467B0"/>
<path d="M203.6 105.5L197.4 104.5V104.3L203.4 102.3L209.4 100.2L209.6 100.1L209.9 100L210.1 100.5L210.2 101.1L210.8 103.9L211.5 106.7H209.8L203.6 105.5Z" fill="#5467B0"/>
<path d="M318.2 104L316.6 103L317 100.7L317.5 98.5L318.3 94.1L319.1 89.7H320V105H319.8L318.2 104Z" fill="#7E62D9"/>
<path d="M84.8 100.2L78.9 96.2L78.5 94.3L78.2 92.5L78.4 92.4L85.1 92.7L91.9 93.1L92.1 93.4L92.4 93.7L93 95.1L93.5 96.6L94.8 97L96 97.4V98L93.7 101.2L91.4 104.4H90.7L84.8 100.2Z" fill="#5467B0"/>
<path d="M182.3 102.9L182.2 102.6L179.9 95.6L177.6 88.6L177.8 88.5L180.6 87.9L183.6 87.4L190.1 85.1L196.6 82.9L199.8 81.9L203 81H204.4L205.4 87.3L206.4 93.7L206.8 96.1L207.2 98.6L207 98.7L206.9 98.9L195.5 100.9L184.2 102.9H183.3L182.5 103.2L182.3 102.9Z" fill="#5467B0"/>
<path d="M57.7999 99.8L54.7999 97.2L51.7999 94.8L48.7 92.3L47.7 91.7L46.7 91.1V90.8L53.2 88.1L59.5999 85.4L60.2999 85.8L61 86.2L66.5 90.7L72 95.2V95.6L71.3 96L70.5999 96.5L67 98.6L63.5 100.7L62.0999 101.6L60.5999 102.4L57.7999 99.8Z" fill="#706BCC"/>
<path d="M288.6 98L286.2 94L284.6 91.3L283.1 88.7L283.2 88.6L283.4 88.4L295.4 85.7L307.4 83V83.1L307.6 83.2L306.1 91.8L304.6 100.4L304.2 100.7L303.7 101.1L298.3 101.5L293 101.8L292 102L291 102.2L288.6 98Z" fill="#5467B0"/>
<path d="M167.4 97.6L156.7 93.8L156.6 93.7L156.4 93.5L159.2 85.6L161.9 77.6L162.9 74.9L163.9 72.2L164.2 71.9L164.4 71.7L166.9 72.6L169.4 73.5L172.7 75.2L176 76.9L175.4 78.5L174.8 80L174 81.9L173.2 83.8L176 92.5L178.9 101.2V101.5H178.1L167.4 97.6Z" fill="#3A3266"/>
<path d="M60.9001 124.5L57.3 120.8V120.3L58.5 120.5L59.7001 120.7H64.7L69.7 120.8L70.7 121L71.7 121.2L68.1 124.8L64.5 128.4L60.9001 124.6V124.5Z" fill="#5467B0"/>
<path d="M319.4 127.3L319 126.9L319.5 125.8L320 124.7V127.7H319.8L319.4 127.3Z" fill="#5467B0"/>
<path d="M17.1 126.8L17 126.7L20.5 124.8L24.1 122.9H24.6L25.9 124.9L27.2 126.7L22.2 126.8L17.2 126.9L17.1 126.8Z" fill="#5467B0"/>
<path d="M172.8 125.1L170.4 123.1L167.8 120.8L165.1 118.4V117.7L170.3 111.6L175.4 105.5L176.2 104.6L176.9 103.8L180.4 104.9L183.8 106.1L184.1 106.3L184.4 106.6L179.8 116.7L175.3 126.9V127L175.2 127.1L172.8 125.1Z" fill="#343864"/>
<path d="M28.9999 123.8L25.1999 120.8L25.0999 120.5L24.8999 120L26.1999 116.2L27.5999 112.3L26.7999 111.5L26.0999 110.6L23.6999 108L21.3999 105.3L21.5999 105L21.8999 104.8L26.3999 101.8L30.7999 98.8L32.2999 100.4L33.9999 102L41.7999 110.2L49.7999 118.5V119L41.5999 122.9L33.3999 126.8H32.8999L28.9999 123.8Z" fill="#5467B0"/>
<path d="M178.9 125.7V125.6L182.9 115.8L186.9 105.9L187 105.7L187.2 105.6L192.4 106.3L197.6 107H198L198.4 107.2L197.8 109.9L197.2 112.5L196 118.3L194.8 124.1L194.6 124.3L194.4 124.5L187.1 125.2L179.8 125.8H178.9V125.7Z" fill="#5467B0"/>
<path d="M138 124.4L133.3 124L133.2 123.9L130.6 119.9L128 115.9L128.2 115.6L128.3 115.5L138.4 115.3L148.5 115.2L147.9 116.7L147.3 118.3L146.1 121.6L144.9 124.9H143.9L142.9 124.8L138.1 124.4H138Z" fill="#5467B0"/>
<path d="M199.5 115.9L199.8 107.4L207 108.4L214.1 109.4L214.4 109.7L214.7 110L217.1 116.3L219.5 122.7V122.9L218.2 123.1L216.8 123.2L209.8 123.6L202.8 123.9L201 124.1L199.3 124.3L199.5 115.9Z" fill="#5467B0"/>
<path d="M293.8 122.2L292.9 120.5L291.8 118.5L290.7 116.4L289 113.2L287.3 110L286.8 109.1L286.3 108.3L286.4 108.1L286.6 107.9L294.6 106.1L302.6 104.4H303L303.2 105.6L303.3 106.8L303.5 109.1L303.7 111.4L306.3 114.2L308.8 117V117.5L307.1 118.3L305.4 119L300.4 121.5L295.3 123.9H294.8L293.8 122.2Z" fill="#5467B0"/>
<path d="M63.4 117.2L56.4 116.9L55.5999 116.6L54.7 116.2L51.7 113.9L48.7 111.6L49.2 111.3L49.7999 110.9L53 109.2L56.2 107.5L61 104.8L65.8 102L70.6999 99L75.5999 96L80.0999 99.7L84.5999 103.4L85.9 104.4L87.1999 105.5L83.8 108.7L80.5 111.9L77.5 114.7L74.5999 117.5H72.4L70.1999 117.4L63.4 117.2Z" fill="#5467B0"/>
<path d="M236.2 110.9L232 104.9L232.2 104.7L232.5 104.5L238.8 100.5L245.1 96.7H245.5L245.8 96.5L251.8 104.5L257.8 112.5L257.3 112.8L256.8 113L248.8 115L240.9 116.9H240.4L236.2 110.9Z" fill="#5467B0"/>
<path d="M161.4 114.4L159.8 112.5L158.2 110.6L156.6 108.6L155.6 107.3L154.6 105.8V105.1L156.2 101.5L157.8 97.8H157.9L158 97.6L166 100.2L174.1 102.8V103.1L173.9 103.4L168.6 109.8L163.4 116.2H163L161.4 114.4Z" fill="#5467B0"/>
<path d="M101.6 115L100.6 114.3L96.5001 111L92.3001 107.8L92.1001 107.6L95.0001 104L97.8001 100.4L98.0001 100.2L98.2001 99.9L108.8 99.4L119.5 98.8L119.6 99L119.8 99.1L120 102.9L120.2 106.8L117.8 108L115.5 109.2L109.1 112.5L102.7 115.8L101.6 115Z" fill="#5467B0"/>
<path d="M310 113.5L307 111L306.7 110.7L306.3 110.3L308 95L309.6 79.7L311.2 77.7L312.7 75.5H312.9L313.9 78.5L314.9 81.7L315.9 85.1L316.9 88.4L315.7 94.6L314.6 100.8L314.8 103.4L315 106.1L317.5 107.1L320 108.1V110.7L319.8 113.3L316.3 114.5L312.8 115.8L309.9 113.4L310 113.5Z" fill="#7E62D9"/>
<path d="M168 204L161.1 202.8L160.9 200.2L160.7 197.7L160.5 194.7L160.4 191.7L163.6 188.2L166.9 184.7L167.7 185.6L168.4 186.5L172.4 190.8L176.5 195.1L179.1 197.9L181.8 200.7V201.3L178.5 203.3L175.2 205.2H175L174.9 205.1L168 204Z" fill="#5467B0"/>
<path d="M112.6 203.3L110.6 202.8H110.4V202.6L114.4 197.2L118.4 191.7H119L120 192.1L121 192.4L120.8 192.9L120.6 193.4L118.3 198.6L116 203.9H114.7L112.6 203.3Z" fill="#5467B0"/>
<path d="M69.8001 198.5L68.1001 194.4L70.8001 190.4L73.4001 186.4L73.6001 186.3H73.8001L76.4001 191.7L79.0001 197.2L75.7001 199.7L72.3001 202.3L71.9001 202.5L71.5001 202.6L69.8001 198.5Z" fill="#5467B0"/>
<path d="M201.5 199.3L199.7 195.9V195.4L207.9 186.6L216.1 177.8H216.7L220.7 187L224.7 196.3H224.6L224.5 196.5L214.3 199.5L204.2 202.6H203.4L201.5 199.3Z" fill="#5467B0"/>
<path d="M91.1001 199.3L81.9001 197.3L81.7001 197.1L81.6001 196.9L78.6001 190.9L75.6001 184.9L77.1001 182.9L78.6001 180.9H79.1001L89.4001 190L99.7001 199.2L100.4 199.9L101.1 200.7V201.3H100.3L91.1001 199.3Z" fill="#5467B0"/>
<path d="M37.8 196.7L33 192.7V185.7L36.2 183.5L39.5 181.4H40.3L46.4 185.8L52.4 190.2V190.6L47.6 195.6L42.7 200.7L37.8 196.7Z" fill="#5467B0"/>
<path d="M99.5 194.9L93 189L92.6 188.7L92.2 188.3L91.2 185.6L90.2 183L96.1 178.4L101.9 173.7H102.4L109.2 178.2L116 182.8L118.5 184.4L120.9 186L120.8 186.2L120.7 186.4L113.4 193.4L106.1 200.5L99.5 194.8V194.9Z" fill="#5467B0"/>
<path d="M13.3 199.3L13.1 198.9V194.5L13 190L9.5 188L6 186.1L8 184.3L10 182.4L10.7 182L11.4 181.5L19.2 183.2L27 185L28.9 185.4L30.7 185.8V193L22.1 196.4L13.4 199.8L13.3 199.3Z" fill="#5467B0"/>
<path d="M0 192.7V186L0.9 186.5L1.8 187.1L5 189.2L8.3 191.4L9.3 193.1L10.3 194.8L10 195L9.8 195.2L5.2 197.3L0.6 199.4H0V192.7Z" fill="#7E62D9"/>
<path d="M182.2 197L180.1 194.8L174.3 189L168.6 183.2L168.9 182.7L169.1 182.2L171.8 179.3L174.6 176.4L178.6 175.3L182.5 174.1L182.6 174.3L186.9 180.9L191.1 187.4L193.1 190.2L194.9 193L194.8 193.3L194.6 193.6L189.6 196.5L184.8 199.5H184.4L182.2 197Z" fill="#706BCC"/>
<path d="M291 196.8L280.6 195.3L280.5 195.2L280.3 195L282.3 186.8L284.1 178.5L290.1 178.4H296.3L296.6 179.4L296.9 180.4L299.2 189.1L301.5 197.9L301.4 198.1L301.3 198.3L291 196.8Z" fill="#5467B0"/>
<path d="M252.6 196L251 194.8L247.8 192.4L244.6 190L240.8 186.8L237 183.6L235.8 182.6L234.6 181.6L240.3 176L245.9 170.4L255 174.1L264.1 177.9L264.2 178.2L264.3 178.5L259.5 187.8L254.7 197.2H254.2L252.6 196Z" fill="#7E62D9"/>
<path d="M276.3 194.7H275.7L271.4 194.1L267 193.6L264.2 193L261.3 192.4V192.3L261.1 192.1L264.5 185.2L267.8 178.3H273.4L279.1 178.4L279.2 178.6L279.4 178.9L278.9 186L278.4 193.2V194.9H277L276.3 194.7Z" fill="#5467B0"/>
<path d="M195.3 188L192.1 182.3L189.9 178.3L187.8 174.4L188 174.2L188.3 173.9L200.4 171.4L212.5 168.9L212.8 169.2L213 169.5L214 171.8L215 174.2L214.8 174.6L214.6 174.9L206.9 183.9L199.3 192.9L198.9 193.3L198.5 193.7L195.3 188Z" fill="#5467B0"/>
<path d="M52.6 184.8L41.1 176.8L40.8 176.6L40.5 176.5L40.8 176.1L41.1 175.8L51.1 171.1L60.9 166.4L61.3 166.6L61.8 166.7L68.2 172.6L74.6 178.4L74 179.3L73.4 180.1L69 186.6L64.6 193H64.2L52.6 184.8Z" fill="#3A3266"/>
<path d="M144 189.6L141.3 189.1L141.2 189H141.1L141.6 185.8L142.2 182.6L142.4 182.1L142.6 181.5L145.6 184.5L148.5 187.5L148.1 188.8L147.8 190.1H146.7L144 189.6Z" fill="#5467B0"/>
<path d="M153 187.7L150 185.2L146.9 182.5L143.9 179.8L143.1 179.1L142.4 178.4L144.6 173.7L146.8 169H159L165.4 171.6L171.8 174.1L172.1 174.4L172.4 174.7L166.5 181.1L160.6 187.4L159.8 187.9L159 188.4L157.5 189.3L156 190.1L153 187.7Z" fill="#5467B0"/>
<path d="M221.1 180.3L217.8 172.7L216.8 170.2L215.8 167.7L221.6 164.9L227.5 162L235.4 165.4L243.3 168.7L243.4 168.8L243.6 169L239.3 173L235 177.2L232.7 179.4L230.4 181.7L227.6 184.7L224.8 187.9H224.4L221.1 180.3Z" fill="#5467B0"/>
<path d="M300.7 183L298.6 178.1V177.6L303.6 170.8L308.8 164L309.4 163.5L310 162.9L312.3 162.5L314.7 162L315.1 162.6L315.6 163.1L316.7 165.2L317.9 167.4L318.9 167.6L319.9 167.9V175.9L320 183.9L318 182.1L316 180.3L315 180.9L314.2 181.6L308.6 184.7L303 187.9H302.8L300.7 183Z" fill="#5467B0"/>
<path d="M130.7 186L124 184.8V179.5L132.5 176.8L140.9 174.2L141.1 174.3L141.2 174.4L140.7 178.5L140.1 182.6L139.8 184.9L139.5 187.3H138.5L137.5 187.2L130.7 186Z" fill="#7994FD"/>
<path d="M2.2 184.2L1.4 184L0.7 183.9L0 183.7V168.1L4.7 165.1L9.4 162.3L9.5 162.5L9.9 170.6L10.3 178.8L9.1 179.8L7.8 180.8L5.8 182.6L3.6 184.4H3.3L3 184.3L2.2 184.2Z" fill="#5467B0"/>
<path d="M21.8 181.1L13.8 179.3L13.6 179.2V179.1L12.8 172.4L12.1 165.7L11.9 164.3L11.8 162.9H17.8L26.3 170.5L34.7001 178L35.1 178.4L35.6 178.8L33.7001 180.2L31.8 181.6L30.8 182.3L29.9 183L21.8 181.1Z" fill="#5467B0"/>
<path d="M80.6001 177.2L74.6001 172.1V171.5L77.4001 166.3L80.2001 161.2L81.8001 158L83.4001 154.8L84.2001 153L84.9001 151.1L88.1001 152.7L91.3001 154.3L91.1001 155L90.9001 155.7L89.9001 159.4L88.9001 163.1L88.5001 166L88.0001 168.9L87.7001 171.7L87.4001 174.7L87.2001 178.5L87.0001 182.5H86.6001L80.6001 177.2Z" fill="#5467B0"/>
<path d="M112.4 174.8L105.6 168.2V167.8L109.6 163.8L113.7 159.7L113.9 160L114.2 160.2L119 168.8L124 177.4L121.9 179.4L119.9 181.4H119.2L112.4 174.8Z" fill="#5467B0"/>
<path d="M91.8001 167.3L93.8001 155.7H93.9001L94.0001 155.5L100.6 158.8L107.2 162.1V162.3L107 162.6L98.6001 170.7L90.0001 179H89.6001L91.8001 167.3Z" fill="#7E62D9"/>
<path d="M121.8 167L116.4 157.7L116.8 157.5L117.1 157.3L121.1 156.3L125.1 155.2L125.4 155.4L125.7 155.7L129.1 161.8L132.5 167.8L133.6 170L134.7 172.2V173.1L131.3 174.7L127.9 176.4H127.1L121.8 167Z" fill="#7994FD"/>
<path d="M280 174.8L269.2 174.3L269 174.1L268.9 174L267.4 171.7L265.9 169.3V168.3L267.2 164.1L268.6 159.9V159.8L268.7 159.7L276.4 161.1L284 162.6L293.4 164.6L302.8 166.8H302.9L303 167L300.1 171.2L297.1 175.4H290.7L280 174.8Z" fill="#3A3266"/>
<path d="M33.3999 172.3L31.3999 170.5V170L40.6999 163L50.0999 156L50.3999 155.8L50.7999 155.6L54.5999 160.2L58.3999 164.9L58.4999 165.1L58.5999 165.4L57.9999 165.6L57.3999 165.7L46.6999 169.9L35.9999 174.1H35.3999L33.3999 172.3Z" fill="#5467B0"/>
<path d="M187 171.2L182.6 170.6H180L179.9 170.2L179.7 169.7L181.8 163.2L184 156.7L184.2 156.4L184.5 156.2L190.8 157.5L197.2 158.8L197.4 159L197.5 159.3L200.2 162.3L202.9 165.2L202.8 165.3L202.6 165.4L198.6 168.7L194.5 171.9H191.4L187 171.2Z" fill="#706BCC"/>
<path d="M253.4 168.8L245.5 165.8L244.6 163.6L243.7 161.5L241.2 156.1L238.7 150.6L237.2 147.2L235.8 143.7L237.4 140.7L239 137.5H244.7L250.4 137.3L250.7 137.8L250.9 138.3L253.7 142.1L256.5 145.8L260.9 152.3L265.3 158.7V159.3L263.6 165.6L261.9 171.9H261.3L253.4 168.8Z" fill="#5467B0"/>
<path d="M136 168.5L134.5 165.3L131.4 159.9L128.4 154.5V154.1L137.4 151.3L146.6 148.5L147 148.6L147.4 148.8L147.9 151L148.5 153.2L150 159.2L151.6 165.1L145 168.2L138.4 171.3L138 171.5L137.6 171.6L136 168.5Z" fill="#5467B0"/>
<path d="M66.2 167L62.2 163.2V162.9L62 162.6L69.3 154.8L76.5 146.9H76.7L79.3 148.1L81.8 149.3L82 149.4L80.2 153.2L78.4 157L74.5 163.8L70.6 170.6H70.2L66.2 167Z" fill="#5467B0"/>
<path d="M173.1 169.7L171.1 169.1L162.5 166.8L154 164.5L151.9 156.2L149.8 148V147.4L153.3 146.4L156.8 145.6L157.7 146.3L158.6 147.1L161.4 149.7L164.4 152.3L168 155.3L171.7 158.3L174.5 160.3L177.3 162.5V163.4L176.5 166.8L175.8 170.1H175.5L175.2 170.3L173.2 169.7H173.1Z" fill="#5467B0"/>
<path d="M205.8 168.3L205.5 167.6L203.7 163L201.9 158.5V147.3L202.2 147.1L202.5 147L213.3 153L224 158.9L223.8 159L215.1 164L206.3 169H206.1L205.8 168.3Z" fill="#706BCC"/>
<path d="M25.2999 165.3L22.9 163.2L22.7999 162.7L22.7 162.2L23.2 157.2L23.7999 152.3L27.7 150.2L31.5 148L36 145.5L40.4 143L40.7999 143.5L41.2 143.9L44.7 148.2L48.2 152.4L48.5999 153L49 153.6L46.7999 155L44.5999 156.4L40.7999 159L37 161.6L32.4 164.6L27.7999 167.4H27.7L25.2999 165.3Z" fill="#3A3266"/>
<path d="M234 161.2L226 157.9L226.2 157.5V157.2L230.3 151.9L234.3 146.6L234.6 146.8L234.8 147.1L235.9 149.8L237.1 152.5L239.8 158.5L242.6 164.3V164.5H242.1L234 161.2Z" fill="#5467B0"/>
<path d="M0.9 163.3L0 162.4V153.1L2.8 147.1L5.5 141.1L5.8 140.7L6 140.5L13.3 146.5L20.5 152.4L19.5 155.2L18.5 158L18.2 158.2L18 158.5L14.7 158L11.5 157.5H10.3L6.1 160.9L1.9 164.2H1.7L0.9 163.3Z" fill="#5467B0"/>
<path d="M296 162L288.8 160.4H288.6V143.2L290.6 143L292.6 142.8L297.3 142.4L301.9 142.1H302.7L303.5 142.3L306 150.3L308.5 158.3L306.5 160.8L304.7 163.4H304L303.2 163.5L296 162Z" fill="#3A3266"/>
<path d="M318.8 161L317.8 159.7L318.8 156.4L320 153.2V162.3H319.8L318.8 161Z" fill="#5467B0"/>
<path d="M53.1999 153.6L47.3999 147.2V146.9L47.4999 146.7L51.7999 143.1L56.1999 139.4L60.3999 135.8L64.5999 132.2L68.0999 135.3L71.4999 138.5L73.5999 140.5L75.5999 142.5L74.6999 143.5L73.6999 144.5L66.5999 152.2L59.3999 159.9H59.1999L58.9999 160.1L53.1999 153.6Z" fill="#5467B0"/>
<path d="M174.8 156.6L170.3 153.2L166.3 149.7L162.4 146.3L161.4 145.5L160.6 144.7V144.5H160.8L171.5 141.5L182.1 138.5L182.3 138.7L182.5 138.9L181.3 148.6L180.1 158.3L180 159.2L179.8 160.1H179.4L174.8 156.6Z" fill="#5467B0"/>
<path d="M283.4 159.7L282.5 159.5L276.1 158.3L269.6 157.1L269.5 157L269.4 156.9L271.2 150.9L273.1 144.9L273.3 144.6L273.5 144.3L278.6 143.9L283.6 143.4H285.7V160.1H285L284.3 160L283.4 159.7Z" fill="#3A3266"/>
<path d="M312.3 158.8L311.5 158.6L308.5 149.6L305.6 140.6V139.7L312.4 136.5L319.2 133.2L319.6 133.6L320 133.9V147L317.9 153L315.7 159H313.1L312.3 158.7V158.8Z" fill="#5467B0"/>
<path d="M106.2 157.7L104.5 156.9L104.3 153.6L104.1 150.3V143.3L107.1 135.9L110.3 128.5H111L120.5 137.7L130.1 146.8L131.4 148L132.6 149.1L132.5 149.3H132.3L126 150.7L119.6 152.1L114 155.3L108.4 158.5H108.2L108 158.4L106.2 157.7Z" fill="#3A3266"/>
<path d="M192.8 156.2L186.8 155L185.5 154.8L184.3 154.6V139.9H197.4L197.6 140.8L197.8 141.7L198.8 148.7L199.7 155.7L199.8 156.7L200 157.5H198.9L192.8 156.2Z" fill="#5467B0"/>
<path d="M262.6 150.7L259.1 145.5L256.4 141.9L253.7 138.2L253.6 137.8L253.4 137.3H271L270.9 138.3L270.7 139.1L268.6 147.1L266.4 155.1L266.2 155.5L265.9 155.9L262.6 150.7Z" fill="#5467B0"/>
<path d="M91.4 151.2L82.2 146.9L82 146.8L81.8 146.6L85.1 142.6L88.4 138.5L89.7 136.5L91 134.5H91.5L96.7 137.7L101.9 141H102.1V141.2L101.8 148.4L101.3 155.6H100.6L91.4 151.2Z" fill="#3A3266"/>
<path d="M213 149.5L202 144.5V141.3L205.6 140.6L209.1 139.9L214.2 134.8L219.4 129.7L227.7 132.7L236 135.7L236.3 136L236.5 136.3L230.4 145.3L224.2 154.1L224 154.3L223.8 154.5L213 149.5Z" fill="#5467B0"/>
<path d="M12.3999 141.1L2.8999 132.8V132.2L6.9999 130.2L11.1999 128.1L20.3999 128.7L29.5999 129.3L29.9999 129.4H30.3999L34.6999 135.2L39.0999 141L30.7999 145.2L22.5999 149.5H21.7999L12.3999 141.1Z" fill="#343864"/>
<path d="M131 142.8L126 137.3L129.8 132.1L133.6 126.8H143.4V128.2L142.9 132.1L142.4 135.9L142.2 141.4L142 146.8L139.2 147.5L136.5 148.2H135.8L131 142.8Z" fill="#5467B0"/>
<path d="M0 140.6V134L1.8 135.5L3.5 137.1V137.5L1.8 142.2L0 147V140.6Z" fill="#5467B0"/>
<path d="M145.3 142V138.2L145.7 134.5L146 130.9L146.4 130.7L146.8 130.6L156.5 134.6L166.2 138.6L166.3 138.8H166.4L164.1 139.7L161.8 140.5L153.8 143.2L145.7 146H145.3V142Z" fill="#343864"/>
<path d="M74.9 136.7L69.9 128L69.6 127.4L69.3 126.8L73 123.3L76.6 119.9L78.1 118.5L79.6 117.1L82.6 120.9L85.6 124.7L88.2 128L90.7 131.3L88.7 134L86.9 136.8L83.6 141L80.3 145.2H80L79.7 145.3L74.9 136.7Z" fill="#7E62D9"/>
<path d="M41.8001 139.2L37.3001 134L35.7001 132.1L34.1001 130.3L34.3001 130.1L34.5001 130L43.2001 125.2L51.9001 120.4L56.9001 124.7L61.8001 129.1V129.6L54.2001 136.9L46.7001 144.2L46.4001 144.3L46.2001 144.4L41.8001 139.2Z" fill="#3A3266"/>
<path d="M273.6 140.1V139.1L274.7 123.9L275.9 108.7L276 108.3L276.1 108L278.9 107.4L281.7 106.9L281.8 107L281.9 107.2L282.7 111.2L283.5 115.2L283.8 127.8L284.1 140.4L283.9 140.6L283.7 140.8L278.7 140.9L273.7 141.1L273.6 140.1Z" fill="#5467B0"/>
<path d="M287 139L286.7 137.5L286.6 128.2L286.4 118.9L286.2 117.7L286 116.5H286.6L289.6 121.7L292.6 126.9L294.8 132.7L296.9 138.4V138.5L292.2 139.5L287.5 140.5H287.1L286.9 139H287Z" fill="#5467B0"/>
<path d="M99.2 134.8L95.2 130.8L88.2 123.2L81.3 115.6L83.9 113.1L86.6 110.5L87.6 109.7L88.6 108.8L89 109.1L89.4 109.3L99.2 117.1L109 125L109.2 125.2L109.5 125.4L106.4 132.1L103.4 138.8H103.2V138.9L99.2 134.8Z" fill="#7E62D9"/>
<path d="M181.5 136.7L175.6 134.8L175.5 134.7L175.3 134.5L176.5 131.5L177.7 128.4L178.7 128.2L179.7 128L186.7 127.4L193.7 126.8L201.1 126.3L208.5 125.8L212.5 125.6L216.6 125.4V125.9L211.5 131.7L206.3 137.5V137.6L197.9 138.1L189.6 138.6H187.4L181.5 136.7Z" fill="#5467B0"/>
<path d="M300.3 137.6L299.8 136.6L297.9 132.3L296 128V127.7L307.4 122L318.9 116.3L319.1 116.4L318 124L316.9 131.7L316.6 131.9L316.3 132.2L308.6 135.4L300.8 138.5L300.3 137.6Z" fill="#5467B0"/>
<path d="M167.8 136.3L165 135.1L155.7 131.1L146.4 127L146.3 126.9L146.2 126.8L149.6 118.2L153.1 109.7L153.3 109.4L153.5 109.2L156.4 112.8L159.3 116.4L163.6 120.6L167.8 124.8L170.1 126.7L172.3 128.5L173.3 129.2L174.1 129.9V130.5L172.6 133.8L171.2 137.2L170.9 137.4L170.7 137.6L167.8 136.3Z" fill="#343864"/>
<path d="M120.3 132.7L116.3 130.6L111.3 124.4L106.3 118.2V117.7L111.6 114.7L116.9 111.6L118.7 110.6L120.6 109.5L125.8 117.5L131 125.6V125.8L127.9 130.3L124.7 134.8H124.3L120.3 132.7Z" fill="#5467B0"/>
<path d="M241.1 133L235.7 131.2L235.6 131.1L235.5 131L237.8 125L240.1 119L240.3 118.7L240.5 118.5L248.8 117.3L257 116.2H257.2V116.4L252.2 125.6L247 134.8H246.6L241 133H241.1Z" fill="#5467B0"/>
<path d="M252.9 132.8L252.3 130.8L257.3 121.5L262.2 112.2L267.2 111.7L272.1 111.2V111.4L272.3 111.5V134.8H253.5L252.9 132.8Z" fill="#5467B0"/>
<path d="M228.2 128.7L222.6 126.9V110.6L226.6 108.1L230.6 105.7H231.1L234.2 112.2L237.4 118.7L235.7 124.5L234 130.3L233.9 130.4L233.8 130.5L228.2 128.7Z" fill="#5467B0"/>
<path d="M0.8 128.7L0 128V124.5L3 117L6 109.5L12.2 107.6L18.4 105.8H19.4L21.6 109.5L23.7 113.2L22.2 117.3L20.7 121.4L20.4 121.9L20 122.3L16 123.5L12 124.7L10.1 125.7L8.2 126.7L5 128L1.7 129.6L0.8 128.7Z" fill="#5467B0"/>
<path d="M317.1 249.8L314.4 246.3L314.2 246L313.9 245.6L316.9 243L320 240.3V253.2H319.8L317.1 249.8Z" fill="#5467B0"/>
<path d="M241 250.7L238 248.5L233.2 245.2L228.5 242L231.3 236.4L234.1 230.8H234.6L242.2 235.1L249.8 239.5L249.9 239.6L247.2 246.1L244.5 252.7H244.3L244 252.8L241 250.7Z" fill="#5467B0"/>
<path d="M34.8 246L30.8 242.7L24.2 242.3L17.8 242L16.5 241.8L15.3 241.6L15.5 234.2L15.7 226.8L15.9 226.7V226.5L25.4 229.5L34.7001 232.5L35.4001 232.8L36 233.3L40.8 237.7L45.6 242.1V242.3L45.8 242.5L42.3 245.9L38.9001 249.3L34.8 246Z" fill="#5467B0"/>
<path d="M136 248.2L134 247.4L133.8 247.2L133.7 247.1L138.9 241.7L144.2 236.4L148.6 231.4L153.1 226.6H153.4L157 229.5L160.5 232.4L163 237.6L165.4 242.7V242.8H165.3L151.9 245.9L138.6 249H138.1L136.1 248.2H136Z" fill="#5467B0"/>
<path d="M185 246.3L182.3 243.6L183.6 242.8L185 242L186.3 241.1L187.6 240.3L187.8 240.7L188.1 241.1L188.6 243.4L189.2 245.7L188.5 247.4L187.7 249L185 246.3Z" fill="#5467B0"/>
<path d="M261.8 246.5V246.3L262.8 242.5L263.8 238.8H265.5L267 239L268.5 239.2L272.6 242.7L276.8 246.2V246.8H261.8V246.5Z" fill="#5467B0"/>
<path d="M124 244.5L119 243L118.8 242.8L118.6 242.6L119.8 239.8L120.8 237L122.4 233.5L123.9 229.9L126.9 230.8L129.8 231.6L135.3 233.3L140.8 235.1V235.5L135.3 240.8L129.8 246.1H128.8L123.9 244.5H124Z" fill="#5467B0"/>
<path d="M303.7 244.2V243.7L306 226.5L308.2 209.2L308.5 209L308.7 208.9L311.7 206.9L314.6 204.9V207.6L313.6 225.4L312.7 243.3L312.5 243.5L308.1 244.1L303.7 244.7V244.2Z" fill="#5467B0"/>
<path d="M48.9999 241.4L46.3999 238.9V237.3L47.1999 231.9L47.9999 226.5L49.4999 224.8L50.9999 223.1H51.3999L52.7999 226.7L54.1999 230.3L54.6999 231.7L55.1999 233L58.5999 237.3L61.9999 241.5V241.6L61.7999 241.7L56.8999 242.8L52.0999 243.8H51.6999L48.9999 241.4Z" fill="#5467B0"/>
<path d="M187.8 230.7L184.3 217.6L184.4 217.4L184.6 217.3L194.8 220.1L205 222.8L205.2 223L205.4 223.3L205.1 233L204.9 242.7H204.7V242.9L199.7 243.2L194.7 243.6L193 243.7L191.2 243.9L187.8 230.7Z" fill="#7E62D9"/>
<path d="M289 241.1L279.3 238.8L279.1 238.6L279 238.5L280 229.6L281 220.8L281.2 220.5L281.4 220.3L287.8 219L294.2 217.6L299.3 216.6L304.4 215.4L304.6 215.6H304.8L302.8 228.3L300.8 240.9L300.7 242.2L300.4 243.6H299.6L298.7 243.5L289 241.1Z" fill="#7994FD"/>
<path d="M167.7 241.6L167.1 240.2L164.1 233.5L161.2 226.8V226.2L166.7 225.3L172.3 224.5L172.9 224.3H173.4L176.8 221.3L180.2 218.3L180.5 219L180.8 219.7L184.1 227.7L187.4 235.7L187.1 236.2L186.7 236.7L184.3 239.3L181.9 241.9L176.2 242.4L170.5 242.9H168.3L167.7 241.6Z" fill="#5467B0"/>
<path d="M206.4 242.3V241.8L207.3 237L208.1 232.2L207.4 228L206.7 223.7V223.6L206.9 223.4L215.5 225.8L224.2 228.1L227 228.9L229.8 229.6L230 230L230.1 230.4L227.8 235.9L225.4 241.5L222.4 241.7L219.4 242L212.9 242.4L206.4 242.8V242.3Z" fill="#5467B0"/>
<path d="M63.1 240L62.1 238.3L60.3 235L58.5 231.6L59.1 231.2L59.7 230.7L63.4 228.7L67 226.7L71 224.8L74.9 223L75 223.1L75.1 223.3L76.6 229L78.1 234.8V235.6H71.1L69.6 236.8L68 238L67.6 238.6L67.1 239.1L65.6 240.4L64.1 241.7L63.1 240Z" fill="#5467B0"/>
<path d="M0 227.6V216.3L6.3 220.6L12.6 224.9L12.7 231.6L12.8 238.4L8.4 238.6L4.1 238.8H0V227.6Z" fill="#7E62D9"/>
<path d="M271.9 237.6L268.7 236.6V236.4H268.5L270.5 227.6L272.3 218.8H272.4L272.5 218.6L275.4 219.6L278.2 220.5V221.7L277.2 230.2L276.1 238.8H275L271.9 237.6Z" fill="#7994FD"/>
<path d="M316.8 238.5L316.1 238.4L316.3 228.7L316.5 219.1L316.7 217.1L316.9 215.1L318.4 215.7L319.8 216.3L319.9 227.5L320 238.8H318.8L317.6 238.7L316.8 238.5Z" fill="#7E62D9"/>
<path d="M37.4 228.5L31.7999 221.1V220.7L31.7 220.3L33.2999 217.3L34.9 214.2L35.2999 213.9L35.7 213.6L39.2999 213L42.9 212.3L43.2999 212.8L43.5999 213.2L45.7999 217.1L48 221V221.7L45.7 228.5L43.4 235.5L43.2 235.6L43 235.9L37.4 228.5Z" fill="#5467B0"/>
<path d="M255 234.5L247.4 233.8L247.2 233.6L247.1 233.5L246.3 230.4L245.5 227.3L249.2 217.3L253 207.4L253.4 207.6L253.9 207.8L261.9 212.8L269.8 217.7V218.6L268.2 225.7L266.5 232.9L266.2 234.1L265.9 235.3H264.2L262.6 235.2L255 234.5Z" fill="#5467B0"/>
<path d="M91 231.4L89 228.1L91.6 224.7L94.1 221.2L94.4 221L94.7 220.8L97.3 223.1L99.8 225.4V226L96.6 230.3L93.4 234.6H93L91 231.4Z" fill="#5467B0"/>
<path d="M134 230.6L125.6 228L125.2 227.9L124.7 227.7L126 224.7L127.3 221.7L128.3 219.2L129.3 216.7L129.6 216.6L129.8 216.4L136.8 216.7L143.8 217L146.1 217.2L148.4 217.4L149.7 221.1L151 224.8L147 229.1L143 233.3H142.6L134 230.6Z" fill="#5467B0"/>
<path d="M232.6 226.8L223.8 224.2L224 223.1V222L225 215.1L225.9 208.3L226 208.2L226.2 208L232 208.4L238 208.7L243.8 208.9L249.6 209.1L249.7 209.3L249.8 209.5L245.9 219.4L242 229.3H241.7L241.4 229.5L232.6 226.8Z" fill="#5467B0"/>
<path d="M52.7999 220.7L48.2999 212.2V211.8L48.2 211.5L57.2 209L66.4 206.5H66.9L70.3 213.4L73.5999 220.4L73.5 220.7L73.4 221L65.5 225.1L57.7 229.1H57.2999L52.7999 220.7Z" fill="#5467B0"/>
<path d="M111.8 226.6L103.5 224.1H103.1L100.5 220.7L97.9 217.3V217L97.8 216.8L103 211L108.2 205.2H108.6L116.6 207.8L124.6 210.3L127.1 211.1L129.6 211.9V212.5L125.2 220.8L120.9 229.2H120.2L111.8 226.6Z" fill="#706BCC"/>
<path d="M24.8001 226.2L18.4001 224.5L15.1001 222L11.9001 219.5L11.7001 219.3L11.6001 219.1L16.3001 214.3L21.0001 209.6L22.8001 211.9L24.5001 214.3L27.8001 218.8L31.1001 223.2L31.4001 224.4L31.7001 225.4V227.9H31.2001L24.8001 226.2Z" fill="#7994FD"/>
<path d="M78.7001 225.8L78.1001 224.3L74.4001 215L70.6001 205.8L70.8001 205.7L75.6001 203.7L80.4001 201.7H81.0001L89.7001 206.5L98.4001 211.3L98.5001 211.4L98.6001 211.5L92.8001 219.1L86.8001 226.6L85.9001 226.7L84.9001 226.9L82.2001 227.1L79.4001 227.3L78.7001 225.8Z" fill="#7E62D9"/>
<path d="M154 222.5L152.3 219.5L154.3 211.7L156.3 203.9L164.8 205.8L173.3 207.7L173.8 208.4L174.2 209.1L176.4 213.2L178.6 217.3L177.9 217.6L177.1 217.9L166.5 221.8L156 225.7H155.6L154 222.5Z" fill="#343864"/>
<path d="M214.2 223.1L207.2 221V213L207 204.9H207.3L215.6 202.3L223.8 199.7H224.7L224.5 200.9L224.4 202.1L223 213.1L221.7 224.2L221.5 224.7L221.3 225.3L214.2 223.1Z" fill="#7E62D9"/>
<path d="M198.2 217.8L193.2 216.8L187.6 215.8L182 214.7L181.7 214.2L181.4 213.7L180 210.7L178.6 207.6L178.8 207.4V207.2L185.2 202.5L191.6 197.8H192L197.4 200.9L202.7 204L203.7 204.5L204.5 205V219L203.9 218.9H203.4L198.2 217.9V217.8Z" fill="#5467B0"/>
<path d="M4.7 216.1L0 214.4V203.7L3.6 201.6L7.3 199.4L12.7 201.6L18.2 203.7L19.3 205.7L20.5 207.6L15.1 212.8L9.8 217.9H9.4L4.7 216.1Z" fill="#5467B0"/>
<path d="M144.8 214.6L139.8 212.6L141.8 211.6L143.8 210.6L148.1 208.8L152.4 207.1L152.6 207.2L152.7 207.4L151.4 212L150 216.5V216.6L144.8 214.6Z" fill="#5467B0"/>
<path d="M273.8 214.4L269.4 212.2V211.8L274.4 205.1L279.4 198.5H280.3L291.3 200.1L302.2 201.6V201.7L302.3 201.8L303.6 206.3L304.9 210.8L304.7 211L304.5 211.2L292 213.8L279.4 216.4L278.8 216.5L278.2 216.7L273.8 214.4Z" fill="#5467B0"/>
<path d="M319.6 214.2L319.4 214L318.6 210.4L317.7 206.8L318.2 206L318.7 205.3L319.3 204.5L320 203.7V214.5H319.7L319.6 214.2Z" fill="#5467B0"/>
<path d="M23.9999 208.7L19.3999 203.2V202.4L25.3999 198.2L31.3999 194H31.7999L37.5999 201L43.2999 208V208.5L36.5999 211.2L29.8999 213.8L29.2999 214L28.5999 214.1L23.9999 208.7Z" fill="#7994FD"/>
<path d="M133.4 209.8L130.4 208.7L130 208.5L129.5 208.4L133.1 204.6L136.7 200.9L140.6 196.3L144.5 191.7H145.6L151.1 192.6L156.6 193.4H156.7L156.8 193.6L155 198.6L153.1 203.6L152.1 204L151.2 204.3L147.6 205.7L143.9 207.1L140.2 209L136.4 210.8L133.4 209.8Z" fill="#5467B0"/>
<path d="M260.6 207.9L255.2 205.2V204.5L257.6 199.9L260 195.3L260.6 195.5L261.2 195.6L264.2 196.2L267 196.8L271.6 197.4L276.2 197.9L276.1 198.2L276 198.5L271.2 204.5L266.4 210.5H266.1L260.6 207.9Z" fill="#5467B0"/>
<path d="M95.4 206.3L90.2 203.7L89.9 203.3L89.5 203L89.9 202.4L90.2 201.8L97.8 203L105.4 204.2L105.6 204.4L105.7 204.6L103.5 206.8L101.3 209H100.6L95.4 206.3Z" fill="#5467B0"/>
<path d="M45.7001 207.8L45.5 207.3L45.1 205.6L44.8 203.9L50.2001 197.5L55.7001 191.1H56.1L61.6 194L67.2 197L67.5 197.4L67.8001 198L68 200.1L68.2 202.3H67.8001L57.3 205.2L47 208L46.5 208.1L45.9001 208.3L45.7001 207.8Z" fill="#5467B0"/>
<path d="M121.4 205.4L118.7 204.4V203.8L121.7 197L124.6 190.3L125 189.5L125.4 188.7L133.1 189.8L140.7 191L141.1 191.1L141.5 191.3L139.8 192.7L138.1 194.1L135.4 196.5L132.6 198.9L128.6 202.7L124.6 206.5H124L121.4 205.4Z" fill="#5467B0"/>
<path d="M231 204.2L230.2 202.5L228 197.3L225.8 192.1L227.2 190.4L228.5 188.7L230.7 186.4L232.8 184L238.6 188.9L244.3 193.7L247.9 196.2L251.4 198.6L250.1 201.3L248.8 203.9L248.2 204.1H247.5L240.5 204.9L233.5 205.5L232.5 205.7L231.7 205.9L231 204.2Z" fill="#5467B0"/>
<path d="M306.3 198V190L311.3 187L316.3 184L318 185L319.8 186L319.9 192.8L320 199.6L313.5 202.6L307 205.6L306.6 205.7L306.2 205.9V197.9L306.3 198Z" fill="#7E62D9"/>
<path d="M43.2 262.7L35.7 260.7L35.2999 260.4L35 260.2L34.5999 256.5L34.2 252.8L34.4 252.6L44.5999 249.2L54.7 245.7L55 245.9L55.2 246.1L53.5999 253.3L52.0999 260.3L51.5999 262.5L51.0999 264.7H50.7L43.2 262.7Z" fill="#5467B0"/>
<path d="M253.2 256.6L248.9 248.9L250.9 243.5L252.9 238.2L253.1 237.8L253.4 237.4L257.1 237.8L260.8 238.3V238.8L259 244.9L257.3 251.1L257.5 256.8L257.6 262.6L257.8 263.5L257.9 264.4H257.4L253.2 256.6Z" fill="#5467B0"/>
<path d="M207.6 263L203.2 262L199.4 255.2L195.5 248.4V247.8L199.6 247.3L203.6 246.7L210.4 245.7L217.1 244.7L217.9 245.5L218.6 246.3L219.4 247.4L220.1 248.5L220.4 253.5L220.6 258.5L217 261.3L213.5 264.1H212.7L212 264L207.6 263Z" fill="#7994FD"/>
<path d="M149 255.8L141.4 251.4V251L149 249.2L156.6 247.4L160.3 246.4L164 245.5L164.1 245.6L164.2 245.8L161.9 250.4L159.6 254.9L158.2 257.6L156.8 260.2H156.7L149 255.8Z" fill="#5467B0"/>
<path d="M107 256.8L104.4 255.6L99.8001 246.1L95.1001 236.6L98.3001 231.8L101.6 227.1V227L110.4 229.5L119.2 232V232.9L114.6 245.2L110 257.5L109.8 257.7L109.6 257.9L107 256.8Z" fill="#5467B0"/>
<path d="M224.9 256.5L223.3 256.1L223.2 256L223.1 255.9V246.5H226.8L227 248.1L227.2 249.8L227.4 253.4L227.6 257H226.4L224.9 256.5Z" fill="#5467B0"/>
<path d="M86.0001 256.5L83.0001 244.3L80.1001 232L80.5001 231.9L80.8001 231.7L84.5001 231.3L88.2001 230.9L88.4001 231.1L88.6001 231.3L94.9001 243.2L101.2 255.2H101.1L101 255.3L94.6001 255.9L88.2001 256.4H87.2001L86.1001 256.6L86.0001 256.5Z" fill="#5467B0"/>
<path d="M286 249.5L279.2 243H279.7L289.7 245.2L299.7 247.4H299.8V256.1H292.6L285.9 249.5H286Z" fill="#5467B0"/>
<path d="M0.6 254L0 253.2V240.4H0.8L4.5 241.4L8.2 242.4L9.2 242.8L10.1 243.2L11.2 243.7L12.4 244.3L13 244.7L13.6 245.2H13.4L13.3 245.4L9.3 248.4L5.3 251.4L3.3 253.1L1.3 254.8H1.2L0.6 254Z" fill="#5467B0"/>
<path d="M78.5001 251.6L75.5001 250L72.3001 251L69.0001 252H68.6001L68.2001 252.2L66.9001 250.2L65.6001 248.2V247.6L69.0001 242.4L72.4001 237.1L75.7001 237.3L78.9001 237.5L79.3001 237.9L79.6001 238.3L80.6001 245.6L81.6001 252.9V253L81.4001 253.1L78.5001 251.6Z" fill="#3A3266"/>
<path d="M101.3 288.1L97.8999 282.7V281.9L100.1 279.2L102.2 276.4L102.6 276L103 275.5L106.7 279.9L110.4 284.2V284.6L107.8 289L105.2 293.5H104.8L101.3 288.1Z" fill="#5467B0"/>
<path d="M145.8 288.6L143.3 284.6L139.9 279.5L136.5 274.3L138.5 272.3L140.3 270.5H141.2L142.8 271.3L144.5 272.1L147.8 274.1L151.1 275.9L154.7 277.6L158.2 279.2L162.7 281L167.2 282.9V283.6L164.2 286.9L161.2 290.2L155 291.4L148.6 292.5H148.3L145.8 288.6Z" fill="#3A3266"/>
<path d="M25.2 291.4L25 290.8L24.7999 289.5L24.6 288.2L23.6 286.4L22.7999 284.7L21 279.5L19.2 274.2L19.2999 273.8L19.5 273.4L26.5 267.4L33.5999 261.4L34.0999 261.7L34.5 262L36.7999 263.7L39 265.5V266L35.7 276.1L32.4 286.3L32.2 287.6L32 288.9L29 290.3L26 291.6L25.7 291.8L25.2999 291.9L25.2 291.4Z" fill="#706BCC"/>
<path d="M318.3 285L318.7 278.6V277L319.4 276.9L320 276.7V290.3L319 291L318.2 291.7H318L318.3 285.2V285Z" fill="#5467B0"/>
<path d="M251.7 289.3L250.2 287.7L250.4 287.3L250.5 286.9L255.2 280.1L259.9 273.3H260.4L265.2 278.3L269.9 283.3L270 283.5L270.1 283.8L268.9 284.3L267.7 284.8L260.6 287.8L253.5 290.9H253.3L251.7 289.3Z" fill="#5467B0"/>
<path d="M0 283.5V276.6L5.2 275.3L10.4 274L13.4 273.2L16.4 272.4L16.7 272.6L16.9 272.9L18.1 279.9L19.2 286.9L19 287L15.4 286.4L11.7 285.9H4.2L2.2 288.1L0 290.3V283.5Z" fill="#5467B0"/>
<path d="M300 285.6L300.1 284.1L300.5 278.8L300.9 273.6L307.5 270L314.1 266.4L314.8 266L315.5 265.7L316.5 270L317.5 274.3L316.9 278.7L316.1 283.1L315.8 285.1L315.5 287.1H299.8L300 285.6Z" fill="#5467B0"/>
<path d="M209.8 284.3L204 281.8L203.8 277L203.6 272.2L203.4 269.2L203.2 266.2L210.2 266.4H217L219 271.6L220.8 276.6V277.3L218.6 282L216.3 286.7H215.9L215.5 286.9L209.8 284.4V284.3Z" fill="#7994FD"/>
<path d="M244.1 281L240.1 276.7L239.7 276L239.3 275.4L243.3 265.8L247.5 256.2L247.7 256L247.9 255.7L248.6 256.7L249.2 257.8L252.6 263.3L256.1 268.7L256.9 269.5L257.7 270.4L257.4 270.8L257.2 271.3L253 278L248.9 284.7L248.5 285.1L248.2 285.5L244.1 281Z" fill="#7E62D9"/>
<path d="M74.7001 280.2L69.9001 276.5L67.8001 274.9L65.6001 273.2V273L65.8001 272.8L68.1001 270.3L70.4001 267.8L72.6001 268.7L74.9001 269.5L77.6001 268.9L80.4001 268.2L80.8001 268.3L81.2001 268.5L84.9001 274.1L88.6001 279.8V280.3L84.3001 282.1L79.9001 283.9H79.5001L74.7001 280.2Z" fill="#5467B0"/>
<path d="M267.9 277.6L262.7 272L262.8 271.9V271.8L268.2 272.2L273.4 272.7H274.5L277.2 276.2L280 279.7V280.2L276.7 281.8L273.4 283.3H273.1L267.9 277.6Z" fill="#5467B0"/>
<path d="M108.4 278.6L104.4 274.3L105.1 272.7L105.9 271.1H106.3L114.3 275.3L122.3 279.6V279.9L117.5 281.4L112.8 282.9H112.5L108.4 278.6Z" fill="#5467B0"/>
<path d="M46.4 280L40.2 278.2L39.3 278L38.5 277.8V277.3L38.7 276.7V270.2L41.4 267.9L44.1 265.7H54.1L58.1 268.4L62.1 271.1L61.1 272.3L60.1 273.6L56.5 277.6L53 281.6H52.6L46.4 280Z" fill="#706BCC"/>
<path d="M177 274.6L170 269.3L169.6 269L169.3 268.7L173.5 264.8L177.7 261L180.3 258.8L182.9 256.7L185.5 254.9L188.2 253.1V253.2L188.4 253.3L187.4 260.5L186.3 267.7L185.4 273.7L184.6 279.6L184.4 279.8L184.2 280L177 274.6Z" fill="#5467B0"/>
<path d="M194.3 277.7L187.8 275.5L187.9 274.2L188.1 272.9L189.9 260.2L191.8 247.6L191.9 247.4L192.1 247.3L192.4 247.9L192.8 248.5L194.7 252.1L196.6 255.6L198.4 259.1L200.4 262.5L200.8 270.1L201.3 277.7V280.1H200.8L194.3 277.7Z" fill="#5467B0"/>
<path d="M280.1 275.6L277 271L280.7 263L284.5 254.8L284.9 254.9H285.2L292.2 257.9L299.4 260.9L299.2 262.2L299 263.5L298.6 268.1L298.3 272.8L291.1 276.4L283.9 280H283.5L280.2 275.5L280.1 275.6Z" fill="#343864"/>
<path d="M165.8 278.3L162.4 277L157.8 274.9L153.1 272.9L148.5 270.2L143.9 267.6L143.6 267.4L143.2 267.3L144.8 265.8L146.5 264.2L148.7 262.2L150.9 260.2L161.5 267L172 273.7L172.2 273.9L170.9 276.9L169.5 279.7H169.1L165.8 278.3Z" fill="#5467B0"/>
<path d="M231.4 278.2V277.6L230.6 265.1L229.8 252.7L229.6 250.7L229.4 248.8L231.3 247.9L233.1 247L238.1 252.3L243.1 257.5L243.2 257.9V258.3L238.8 267.9L234.4 277.6L233 278.2L231.6 278.8H231.4V278.2Z" fill="#5467B0"/>
<path d="M120.2 275.6L116 273.1V272.2L119 268.3L121.7 264.5L124.6 260.1L127.4 255.6L128.9 253.8L130.3 252.1H130.8L138.7 255.7L146.6 259.4L146.5 259.6V259.9L141.7 263.8L137.1 267.8L130.9 272.9L124.9 278.1H124.3L120.2 275.6Z" fill="#5467B0"/>
<path d="M93.1999 276.7L89.5999 276.4L89.2999 276L88.9999 275.7L85.4999 269.3L81.8999 262.9V262.3L86.8999 260.5L91.9999 258.7L100.2 259.4L108.3 260H108.4L108.5 260.1L104.9 266.1L101.2 272.2L99.7999 274.6L98.2999 277H97.5999L96.7999 277.1L93.1999 276.7Z" fill="#343864"/>
<path d="M222.8 274.8L222.7 274.3L220.7 268.9L218.9 263.6L219 263.5L222.7 261.5L226.3 259.5V259.6L226.5 259.7L227.5 265L228.5 270.4V271.6L226 273.4L223.5 275.3H223L222.8 274.8Z" fill="#5467B0"/>
<path d="M1.6 273.4L1.3 272.8L0.7 271.1L0 269.3V260.3L2 258.7L4 257.1L7.4 254L10.7 250.9L14.2 248.9L17.6 246.7L22.8 246.1L28 245.5L28.2 245.8L28.4 246L30.5 250.6L32.7 255.1L27 262.1L21.3 269.1L15.8 270.1L10.4 271.1L6.8 272.6L3.3 274H2L1.6 273.4Z" fill="#5467B0"/>
<path d="M109.5 269.7L107.2 268.3L107 268.1L106.8 267.9L111.2 258.7L115.6 249.5L116.6 247.7L117.4 245.8L120.9 247.5L124.3 249.1L125.7 249.7L127.1 250.3L125.8 251.8L124.6 253.3L121.6 258L118.6 262.6L115.6 266.9L112.5 271.1H111.8L109.5 269.7Z" fill="#343864"/>
<path d="M267 268.2L261 267.2L260.8 267L260.3 260L259.8 253L260.1 251.7L260.5 250.4L270.5 249.9L280.4 249.3L281.8 250.4L283.2 251.6V252.3L278.8 260.7L274.4 269.2H273.1L267.1 268.2H267Z" fill="#7E62D9"/>
<path d="M302.6 261L302.7 253L302.9 250L303.1 247L303.3 247.1H303.5L309.9 249.6L316.3 252.1L317.1 254.8L317.8 257.5L317.7 258V258.6L310.3 263.7L303 268.9H302.5L302.6 261Z" fill="#5467B0"/>
<path d="M318.8 266L317.8 263L318.8 261.7L319.8 260.4L319.9 262.5L320 264.7V266.9L319.8 269L318.8 266Z" fill="#5467B0"/>
<path d="M59.6001 266.5L57.6001 264.5L56.6001 260.5L55.6001 256.6L55.7001 252.7V249L58.1001 247L60.5001 245L65.5001 254.9L70.5001 264.8V265.4L66.5001 267L62.6001 268.6H61.7001L59.6001 266.5Z" fill="#5467B0"/>
<path d="M163.1 264.3L159.1 261.3L163 253.4L166.8 245.4H180.6L183.6 248.3L186.6 251V251.5L184.7 252.7L182.9 253.9L180.3 255.9L177.8 257.9L172.7 262.6L167.5 267.3H167.1L163.1 264.3Z" fill="#5467B0"/>
<path d="M71.1999 261L69.3999 255.4L69.6999 255.1L69.8999 254.9L73.4999 253.9L77.0999 252.8L79.8999 254.6L82.5999 256.6L82.8999 256.8L83.1999 257.2L80.5999 261.9L77.9999 266.6H73.0999L71.1999 261Z" fill="#5467B0"/>
<path d="M108.5 306.6L104.8 303.7L104.5 303.4L104.3 303.2L108.2 295.2L112 287.2L113.7 286.3L115.3 285.4L115.7 285.9L116 286.4L117.4 288.9L118.7 291.4L120.8 294.2L122.9 297.1L122.5 297.6L122.1 298.1L117.6 303.3L113.2 308.3L112.7 308.9L112.2 309.5L108.5 306.6Z" fill="#5467B0"/>
<path d="M11.4 305.4L11 303L10.1 300.3L9.30005 297.6L10.3 296.6L11.3 295.6L16.6 291.4L22 287.2L22.1 287.4L23.5 293.8L24.8 300.2L24.9 300.7L25.1 301.2L18.8 304.6L12.6 308H12L11.4 305.4Z" fill="#5467B0"/>
<path d="M135.6 304.3L132.6 302L129.1 298.5L125.6 294.9L123.7 292.5L121.9 290.1L120.5 287.5L119 285V284.6L125.4 281.2L131.7 277.9L132.7 277.4L133.7 276.9L140.7 286.4L147.5 296V296.5L144 301.2L140.4 306L139.8 306.3L139.3 306.6H138.6L135.6 304.3Z" fill="#5467B0"/>
<path d="M43 303.4L38.6 300.6L38.3 300.4H38L39.4 291.1L40.8 281.8L40.9 281.6L41.1 281.4L45.6 282.6L50.1 283.7L50.4 284L50.8 284.2L51.2 286L51.6 287.9L54.6 293.9L57.6 299.9V300.3L57.4 300.7L53.7 302.7L50.1 304.8L48.8 305.5L47.5 306.2L43 303.4Z" fill="#706BCC"/>
<path d="M145 305.5V305.3L147.8 300.3L150.5 295.5L153.4 294.9L156.2 294.2V294.4L156.4 294.5L154.8 299.3L153.2 304L152.7 304.2L152.2 304.3L149.2 304.8L146.4 305.3L145.7 305.5L145 305.7V305.5Z" fill="#5467B0"/>
<path d="M87 302.3L78.2 301.9L79.9 293.9L81.7 285.9L82 285.8L82.4 285.6L87.3 283.7L92.3 281.9L92.5 282L92.7 282.1L95 285L97.2 287.7L100.7 292L104.2 296.3L104.5 296.7L104.8 297.1L102.7 300L100.5 302.9H98.2L95.9 302.8L87 302.3Z" fill="#7E62D9"/>
<path d="M58 293.2L54 285.5L58.6 280.2L63.2 274.9L63.7 275.4L64.2 275.8L71 281.2L78 286.6L78.1 286.7L77.4 292.9L76.7 299.1L76.5 299.3L76.3 299.5L69.3 300L62.3 300.6L62 300.7L61.8 300.9L58 293.2Z" fill="#7E62D9"/>
<path d="M230.7 298.2L228 297.2L222.8 294L217.7 291L219.3 287.3L220.9 283.7L221.9 281.4L222.9 279.1H227.6L230.8 281.5L233.9 284V299.3H233.7L233.4 299.2L230.7 298.2Z" fill="#5467B0"/>
<path d="M279.3 293L270 288L270.9 287.6L271.7 287.2L278.7 284.5L285.8 281.7L291.2 279.7L296.6 277.5L296.7 277.7H296.9L296.5 284.2L296.2 290.6L292.2 294.5L288.4 298.4L279.3 293Z" fill="#706BCC"/>
<path d="M189.4 291L184.4 284.1V283.9L184.3 283.6L187.4 281.3L190.6 279L190.9 278.7L191.2 278.5L200.7 283.5L210.1 288.5L210.3 288.6L210.5 288.9L202.7 293.4L194.9 298H194.4L189.4 291Z" fill="#5467B0"/>
<path d="M310.7 296.8L309.7 295.9H309.5L310.2 292.3L310.9 288.9L312.7 288.8L314.5 288.7L315 289.7L315.4 290.7L315.9 292L316.3 293.2L314.3 295.2L312.5 297.2L312.1 297.4L311.7 297.6L310.7 296.8Z" fill="#5467B0"/>
<path d="M8.2001 292.8L8.1001 292.1L7.8001 289.7L7.6001 287.3L8.2001 287.5L8.8001 287.7L11.3001 288.6L13.8001 289.4V289.9L12.2001 291.2L10.7001 292.4L9.7001 293L8.7001 293.5H8.4001L8.2001 292.8Z" fill="#5467B0"/>
<path d="M179.8 319L180 318L186.9 317.8L193.8 317.7H199.4L205.1 317.9L204.7 318.9L204.4 320.1H179.6L179.8 319Z" fill="#5467B0"/>
<path d="M227.8 318L228.3 316L228.6 315.9L228.8 315.7L233.6 314.7L238.4 313.9L238.5 314L238.6 314.1L239.4 317.1L240.2 320.1H227.3L227.8 318Z" fill="#5467B0"/>
<path d="M244.2 319.3L242.5 318.6L242.3 318.1L242 317.7L241.1 314.5L240.3 311.3L240.5 311.1L240.8 310.9L249.2 305.2L257.6 299.5L260.6 302.7L263.6 305.8L267.8 310.3L272 314.7L271.4 315.1L270.9 315.5L267.6 317.8L264.2 320.1H255.1L245.9 320L244.2 319.3Z" fill="#706BCC"/>
<path d="M272 318.3L273.1 316.5H275.1L283 317.1L290.9 317.6V318.2L290.4 319.2L289.9 320.1H270.7L271.9 318.3H272Z" fill="#5467B0"/>
<path d="M294 319.8V319.5L294.5 319L294.9 318.5L300.3 316.5L305.7 314.6H305.9V317.3L306.1 320.1H294.1V319.8H294Z" fill="#5467B0"/>
<path d="M307.8 318.4L307.6 316.7L307.7 316.5L307.9 316.4L313.2 317.3L318.5 318.2L319.3 318.8L320 319.5V320.1H308L307.8 318.4Z" fill="#343864"/>
<path d="M210.2 309.6L206.4 300.1L205.8 298.4L205.2 296.8L208.7 294.6L212.3 292.4L214.4 293.5L216.4 294.7L222.4 297.8L228.4 301V301.7L226.4 310L224.2 318.4L220.2 318.6L216.2 318.8L215 319L214 319.1L210.2 309.6Z" fill="#5467B0"/>
<path d="M35.4001 318L34.8 317.4L34.9001 315.8L35.1 314.1L38.1 313.9L41.1 313.7L42.7001 313.1L44.3 312.4L46 315L47.7001 317.5L47.3 317.7L47 317.9L42.6 317.7L38.2001 317.5L38 318L37.8 318.5H35.8L35.4001 318Z" fill="#5467B0"/>
<path d="M118.1 314.3L114.5 311.3L114.6 311.1L114.7 310.8L119.8 305L124.8 299.3L128 302.3L131 305.2L133 306.6L135 308.1V308.4L128.7 312.8L122.3 317.2H121.8L118.1 314.2V314.3Z" fill="#5467B0"/>
<path d="M319.6 316.3L319.4 316.1L317.9 311.3L316.4 306.5L315.2 302.5L313.9 298.5L316.9 295.5L320 292.4V316.5H319.7L319.6 316.3Z" fill="#5467B0"/>
<path d="M0 304.3V292.3L2 291L3.9 289.6H4L4.2 289.5L4.8 291.1L5.4 292.7L7.7 300L9.9 307.2V308.2L7.3 310.2L4.6 312.2L2.3 314.2L0 316.2L0 304.3Z" fill="#5467B0"/>
<path d="M286.2 314.6L278.5 314.1L278.3 314L278.1 313.8L289.1 302.8L300.1 291.8L303.7 292.4L307.4 292.9L307.6 293.1L307.8 293.3L306.2 303.1L304.7 312.8H304.6L304.5 312.9L300.1 314.1L295.8 315.3H294.8L293.9 315.2L286.2 314.6Z" fill="#343864"/>
<path d="M311.6 314.2L307.8 313.1L307.6 312.9L307.5 312.7L308.7 306.9L310 301.1L310.2 301L310.4 300.8L311.4 301.4L312.3 301.9L312.7 303.7L313.2 305.5L314.5 310.2L315.8 314.9V315.3H315.6L315.4 315.2L311.6 314.2Z" fill="#5467B0"/>
<path d="M200.2 314.6L194.4 314.4H192L189.5 314.3V306.5L195.8 302.6L202.1 298.8H202.3L202.4 298.9L206.2 306.8L210 314.6V315H206L200.3 314.7L200.2 314.6Z" fill="#7994FD"/>
<path d="M47.3999 313.2L46.3999 311.8V311.3L52.3999 306.9L58.2999 302.6L60.7999 302.8L63.1999 303.1L63.9999 303.3L64.6999 303.4L62.4999 305L60.2999 306.5L54.6999 310.3L49.0999 314.2L48.7999 314.4L48.3999 314.6L47.3999 313.2Z" fill="#5467B0"/>
<path d="M160.2 309.6L160.4 305.6L158.6 302.8L156.8 299.8V299.5L157 299.2L166.9 288.5L176.9 277.9H177.1L178.4 279.9L179.7 281.9L185.7 290.9L191.7 299.9V300.5L191.3 300.6L190.9 300.8L175.9 306.9L160.9 313.1L160.4 313.2L160 313.4L160.2 309.6Z" fill="#343864"/>
<path d="M229.1 312V311.6L230 307.3L230.8 302.9L231 302.7L231.2 302.5L234.5 301.6L237.7 300.8L237.6 299.9L237.4 299.1L236.4 289.7L235.3 280.2L235.9 279.5L236.6 278.8H237.1L245.6 287.8L254.1 296.8V297.2L250.6 300.1L247.2 302.9L242.7 306.6L238.2 310.3L237.8 310.7L237.3 311L233.5 311.7L229.8 312.4H229.1V312Z" fill="#5467B0"/>
<path d="M265.5 302.7L257.2 293.1L257.5 292.9L257.8 292.6L262.4 290.8L267 289L276.1 294.5L285.3 300L285.6 300.3L285.9 300.5L280 306.5L274.1 312.4H273.8L265.5 302.7Z" fill="#706BCC"/>
<path d="M34 308.3L31.2001 304.5L29 303L26.7001 301.5L26.5 298.8L26.3 296.2L26.4 295.2L26.5 294.3L29.8 293L33 291.8L34.5 287L36 282.3H36.5L37.3 283.2L38.2001 284.1L37 293L35.8 301.9V302.3L37.5 303.4L39.2001 304.6L42.5 306.5L45.8 308.4V308.8L41.8 310.2L37.9001 311.7L37.4001 311.9L37 312.1L34 308.3Z" fill="#5467B0"/>
<path d="M152.6 318.5L152.2 317V316.7L154.2 316.8H156.3L159.7 317.1L163.1 317.2L163.7 315.9L164.3 314.6L168.7 313.2L173.2 311.7L179.5 309.2L185.8 306.7V310.4L186 314.1L185.8 314.5L185.6 314.9H178L177.3 317.5L176.6 320.1H153L152.5 318.5H152.6Z" fill="#7994FD"/>
<path d="M3.2 318.7L2.5 317.4H2.6L2.7 317.3L7 314.7L11.4 312.1L15.6 309.7L19.8 307.3L23 305.9L26.2 304.4L29.8 308.2L33.4 311.9V315.9L33.3 320.1H3.9L3.2 318.7Z" fill="#343864"/>
<path d="M38.5 319.5L39 319L40.4 319.5L41.8 320H38L38.5 319.5Z" fill="#5467B0"/>
<path d="M50.4001 318.5L49.6001 316.9L49.7001 316.6L49.9001 316.3L54.0001 313.7L58.2001 311.1H59.1001L65.0001 313.8L70.9001 316.6L72.9001 317.6L75.0001 318.5L76.6001 319.2L78.2001 320H51.3001L50.4001 318.5Z" fill="#5467B0"/>
<path d="M71.8001 314.2L62.8 308.4V308L66.2 305.7L69.6 303.4L83.3001 304L97 304.6H98L99 304.8L90.9001 312.4L82.9001 320H80.8001L71.8001 314.1V314.2Z" fill="#7E62D9"/>
<path d="M85.9 319.8L86 319.6L92.4 314L98.7 308.5L101.3 307.5L103.8 306.4L110.8 312.4L117.9 318.5L118 318.7L118.1 319L117.1 319.5L116.2 320.1H85.7L85.9 319.8Z" fill="#5467B0"/>
<path d="M127.4 317.7L130.7 315.3L131 315.7L131.2 316.1V320.1H124.1L127.4 317.7Z" fill="#5467B0"/>
<path d="M134.7 318.9L134.4 317.7L134.2 315.3L134 312.9L134.6 312.2L135.2 311.5L145.6 308.5L156 305.5H156.4L156.8 305.3V308.7L156.6 311.4L156.4 314H152.9L149.5 313.8L149.3 314.4L149.1 315.1V317.1L149.6 318.5L150.1 319.8V320.1H135.1L134.7 318.9Z" fill="#5467B0"/>
</svg>
