<?xml version="1.0" encoding="UTF-8" standalone="no"?>
<svg
  viewBox="0 0 320 320"
  version="1.1"
  xmlns="http://www.w3.org/2000/svg"
  xmlns:svg="http://www.w3.org/2000/svg"
>
  <path fill="#cfcfcf" d="m 236.8,20.2 -5,-1.3 -3,-3.1 -3.2,-3 V 9.2 l 0.7,-0.1 0.7,-0.2 4.4,-0.5 4.3,-0.5 1.3,0.1 1.5,-0.2 0.4,0.8 0.5,0.8 -1,2.5 -1.1,2.5 1,0.8 1.1,1 3,2.3 3,2.3 v 0.4 l -1,0.2 -1,0.2 h -1.7 z" />
  <path fill="#cfcfcf" d="m 186.9,18.4 -10.4,-2.6 v -0.4 l 0.1,-0.5 0.4,-1.8 0.3,-1.8 1.2,-0.3 1.2,-0.4 11.3,-2.8 11.5,-2.9 v 0.6 l -2.6,7.8 -2.6,7.9 h -0.1 z" />
  <path fill="#cfcfcf" d="M 91.2,18 75.7,16.7 h -2 l -0.4,-1 -0.3,-1 h 0.4 L 73.8,14.5 92,11.3 110.2,8 l 0.2,0.1 0.1,0.2 -0.5,4.5 -0.6,4.6 -0.2,0.9 -0.1,0.9 h -1.2 l -1.2,-0.1 z" />
  <path fill="#cfcfcf" d="m 164.3,17.7 -6,-0.5 L 155.8,9 153.3,0.9 V 0 h 23 v 0.8 l -2.2,8.4 -2.3,8.5 -0.1,0.2 -0.2,0.3 h -0.6 l -0.5,-0.1 z" />
  <path fill="#cfcfcf" d="m 262.4,12.2 -3.6,-6 V 5.7 l 2.9,-1.2 3,-1.2 3.9,2.3 3.9,2.2 3,1.8 3,1.7 -5,2.9 -5.2,2.9 -1,0.5 -1.2,0.6 z" />
  <path fill="#cfcfcf" d="M 146.6,16.3 139,15.7 138.9,15.5 138.7,15.3 137,8.3 135.3,1.2 135.2,0.6 135,0 l 7.6,0.1 7.5,0.1 2.7,8.3 2.7,8.4 V 17 h -1.4 z" />
  <path fill="#cfcfcf" d="m 56.6,8 -5,-7.4 V 0.3 L 51.5,0.1 h 26.9 l 2.5,4.5 2.5,4.6 v 0.9 l -10.6,2.6 -10.6,2.7 h -0.6 z" />
  <path fill="#cfcfcf" d="m 114.7,14.7 v -0.4 l -0.6,-3 -0.5,-3 V 7.5 l 5.3,-3.7 5.1,-3.8 3.6,0.1 3.7,0.1 1.2,5.6 1.2,5.5 -0.2,0.2 -0.1,0.2 -8.8,1.7 -8.6,1.6 h -1 z" />
  <path fill="#cfcfcf" d="m 211.2,13 -1.8,-1.6 -1.2,-1 -1.2,-1 0.5,-3.3 0.5,-3.3 0.2,-0.8 0.2,-0.7 4,0.2 4,0.2 2.9,0.2 2.7,0.1 0.9,1.2 0.8,1.2 v 8.1 h -1.3 l -4.2,0.8 -4.3,0.9 h -0.5 l -0.4,0.2 z" />
  <path fill="#cfcfcf" d="M 3.8,12 0,11.9 V 0 l 0.3,0.1 0.3,0.1 3.6,6 3.5,5.8 v 0.2 l -0.2,0.2 z" />
  <path fill="#cfcfcf" d="M 8,5.9 4,0.2 H 18.5 L 33.1,0 l 0.1,0.2 0.2,0.1 -0.3,1 -0.2,0.9 -2.1,1 -2.2,1 -8,3.7 -8.1,3.7 H 12 Z" />
  <path fill="#cfcfcf" d="M 313.8,10.7 309.3,9.9 309.1,9.7 308.9,9.5 308.4,4.8 308,0 h 12 v 11.5 h -1.8 z" />
  <path fill="#cfcfcf" d="m 276.2,7 -7.6,-2.3 -0.4,-0.2 -0.5,-0.2 1.5,-2.1 1.6,-2.1 h 19.1 l -1.3,2.3 -1.3,2.3 -1.3,2.3 -1.2,2.3 h -1.1 z" />
  <path fill="#cfcfcf" d="M 291.6,4.7 294,0 h 12 v 7.6 h -0.5 l -7.4,0.8 -7.5,0.8 h -1.2 z" />
  <path fill="#cfcfcf" d="M 86.9,8.3 86.7,7.6 86.2,4.6 85.8,1.5 85.6,0.8 85.4,0.1 h 30.9 L 114.1,2.3 111.8,4.5 100,6.8 88,9 h -1 z" />
  <path fill="#cfcfcf" d="m 178,7.5 0.2,-0.6 0.7,-3.2 0.6,-3.3 V 0.1 h 24.7 l -0.2,1 -0.2,1 -0.2,0.3 -0.3,0.2 -12.6,2.7 -12.6,2.8 h -0.2 z" />
  <path fill="#cfcfcf" d="m 225.9,6.9 -0.2,-0.3 0.8,-3.3 0.8,-3.2 h 13 l 0.3,1.2 0.4,1.2 0.4,1.5 0.5,1.6 -0.1,0.1 -6.8,0.6 -6.7,0.5 -1.1,0.2 -1.2,0.1 z" />
  <path fill="#cfcfcf" d="m 252.2,2.4 -5.3,-2 -0.1,-0.2 -0.2,-0.1 h 17.5 l -3.1,2.2 -3.3,2.2 h -0.2 z" />
  <path fill="#cfcfcf" d="m 199.4,43.8 -2,-4.3 V 39 l 6.3,-4.8 6.3,-4.8 0.7,-0.5 0.7,-0.5 3.5,3 3.6,3 0.4,2.6 0.4,2.7 v 0.8 l -5,1.9 -5,1.9 -3.6,1.9 -3.7,2 h -0.6 l -2,-4.3 z" />
  <path fill="#cfcfcf" d="m 222.4,47 v 0 l -1,-5 -1,-4.9 v -0.6 l 2.6,-0.8 2.5,-0.7 h 5.3 l -0.2,0.5 -0.2,0.5 -3.7,5.3 -3.7,5.4 -0.3,0.3 -0.3,0.3 v -0.1 z" />
  <path fill="#cfcfcf" d="m 82.7,45.8 -4.1,-0.5 v -3.5 l 0.2,-3.5 0.3,-4.3 0.3,-4.3 0.1,-0.7 0.2,-0.7 0.9,-0.4 0.8,-0.4 8.5,-0.2 8.5,-0.1 0.7,2.7 0.8,2.8 -5.4,6.9 -5.4,6.8 H 87 Z" />
  <path fill="#cfcfcf" d="M 168.3,46.2 V 46 l 1.3,-5 1.2,-4.8 0.2,-0.2 0.1,-0.1 4.1,-0.5 4.2,-0.4 4.7,-0.4 4.7,-0.3 h 6.4 l -0.2,2.2 -0.2,2.1 -0.2,0.8 -0.2,0.8 -12.7,3.1 -12.6,3.1 h -0.8 z" />
  <path fill="#cfcfcf" d="m 162.2,44.8 -1.4,-1.4 -9.8,-9 -9.9,-9.1 -0.3,-1.2 -0.3,-1.2 -0.5,-2.3 -0.5,-2.3 V 18 h 0.2 l 6.5,0.8 6.4,1 5.8,1 5.8,1 4,0.8 4.1,0.8 h 0.1 l 0.1,0.2 -1,2.5 -1,2.5 -3.2,8.3 -3.2,8.3 -0.2,0.4 -0.2,0.4 z" />
  <path fill="#cfcfcf" d="m 68.6,44.1 -5.1,-0.6 -3.4,-6.9 -3.5,-6.8 0.8,-1.1 0.8,-1.1 0.9,-1.1 0.8,-1.2 2.6,1.3 2.5,1.4 5,2.8 5,2.7 0.8,0.6 0.8,0.6 -0.1,4.4 -0.1,4.4 -0.2,0.7 -0.1,0.8 H 75 l -1.2,-0.1 z" />
  <path fill="#cfcfcf" d="m 292.8,38.4 -2,-6.2 v -0.5 l 5.7,-1.7 5.7,-1.7 0.2,0.1 0.1,0.1 0.6,5.6 0.6,5.5 V 41 l -3.8,1.5 -3.7,1.6 -0.7,0.2 -0.7,0.3 z" />
  <path fill="#cfcfcf" d="m 272.1,39.5 0.2,-0.9 0.7,-4 0.6,-4.2 v -0.9 h -3.1 l -3.1,-0.2 -1.4,-3.2 -1.3,-3.2 v -0.4 l 4.8,-3 5,-3 3.4,-2.1 3.5,-2.2 0.1,0.2 1,6.6 1,6.7 v 4.7 l -5.4,5 -5.5,4.8 -0.3,0.1 -0.4,0.1 z" />
  <path fill="#cfcfcf" d="m 306.2,37 v -2 h 5.4 l 0.9,1.2 0.8,1.4 -0.2,0.2 -3,0.6 -2.9,0.7 h -1 z" />
  <path fill="#cfcfcf" d="M 23.3,34.7 21.6,30.9 V 11.4 l 2.5,-0.9 2.5,-0.8 3.8,2.7 3.6,2.6 5.8,7.6 5.9,7.6 v 0.4 l -9,3.4 -8.8,3.3 -1.5,0.5 -1.5,0.6 z" />
  <path fill="#cfcfcf" d="M 43.1,37.7 38.4,37 v -0.4 l 1.4,-0.8 1.2,-0.8 3.5,-2.1 3.5,-2.1 2.1,0.6 2.1,0.7 0.3,0.2 0.2,0.1 -1.5,2 -1.5,1.8 -1,1.1 -1,1 z" />
  <path fill="#cfcfcf" d="m 16.3,34.5 -5,-2 L 10.2,28.2 9,23.9 7.6,19.3 6,14.6 H 6.1 L 11,14 l 4.8,-0.5 1.2,-0.2 1.1,-0.2 0.7,4.3 0.7,4.3 -0.5,3.3 -0.6,3.4 1.6,3.9 1.6,3.9 h -0.1 l -0.1,0.2 z" />
  <path fill="#cfcfcf" d="M 0,25 V 14.7 l 1.8,0.1 1.8,0.1 2.5,8.3 2.5,8.3 -0.1,0.1 -3,1.3 -3,1.4 -1.3,0.5 -1.2,0.5 z" />
  <path fill="#cfcfcf" d="m 246.9,34.6 0.2,-0.6 1.2,-4.5 1.3,-4.5 0.1,-0.2 0.2,-0.2 4.9,-0.4 4.9,-0.4 1.3,-0.2 1.3,-0.1 1.2,4 1.2,4 -0.2,0.1 -0.1,0.2 -8.7,1.7 -8.7,1.8 h -0.3 z" />
  <path fill="#cfcfcf" d="m 312.2,33 -7.4,-2 -0.1,-0.1 2.4,-8.4 2.5,-8.3 3.5,0.1 3.5,0.2 1.7,0.1 1.7,0.2 v 20.5 h -0.2 l -0.3,-0.1 z" />
  <path fill="#cfcfcf" d="m 105.7,34 -3.3,-0.6 -0.1,-0.1 -0.1,-0.1 -1.2,-5.7 -1.2,-5.7 0.1,-0.4 0.1,-0.4 5,0.8 5,0.8 v 12 h -1 z" />
  <path fill="#cfcfcf" d="M 137.4,32.4 133,31 l -3.7,-0.8 -3.7,-0.8 -6,-0.8 -5.8,-0.9 h -1.5 v -2 l 0.5,-3.2 0.3,-3.2 h 1 l 1,-0.2 2.8,-0.7 3,-0.8 5.3,-1 5.5,-1 1.4,-0.3 1.5,-0.3 v 0.1 l 0.1,0.1 1,5 1,5.1 0.9,1 0.9,1 2,3 2,3 v 0.3 h -0.6 l -4.5,-1.3 z" />
  <path fill="#cfcfcf" d="m 171.6,33.1 0.2,-0.6 1.8,-7.2 1.8,-7.3 2.2,0.6 2,0.6 8.2,2.3 8.1,2.3 h 0.3 l 0.2,0.2 -0.5,3.6 -0.4,3.7 -0.1,0.3 -0.1,0.4 -5.7,0.2 -5.8,0.2 -5,0.4 -5.2,0.5 -1,0.2 -1.1,0.2 z" />
  <path fill="#cfcfcf" d="m 198,28.8 0.6,-4.3 2.5,-6 2.5,-6.1 v -0.1 l 0.2,-0.1 3.2,1 3.2,1 v 9.4 l -6.3,4.7 -6.4,4.7 h -0.3 z" />
  <path fill="#cfcfcf" d="m 217.7,30 -4.8,-3 0.6,-4.8 0.6,-4.7 v -1 l 0.9,-0.2 0.8,-0.2 4.4,-1 4.4,-0.9 3.8,4.3 3.8,4.2 1.1,2.8 1.2,2.8 -1.2,2.4 -1.1,2.3 h -9.6 z" />
  <path fill="#cfcfcf" d="m 72.6,29.6 -3.6,-2.1 -4,-2 -3.8,-2 2,-3 2.2,-3 v -0.1 l 0.2,-0.2 6,0.6 6,0.5 h 1.1 v 1.6 l -0.8,4.9 -0.8,4.8 v 2.1 h -0.8 z" />
  <path fill="#cfcfcf" d="m 49.2,29 -2,-0.3 -2.9,-5.1 -3,-5.1 L 36.5,13.8 31.6,9 35,4.6 38,0 h 3.7 l 3.1,1 3.2,1 6,8 5.8,7.8 -0.6,1.2 -0.6,1.2 -2.8,4.6 -2.8,4.6 h -1 l -1,0.1 z" />
  <path fill="#cfcfcf" d="m 286.4,27 -1.6,-2.4 V 19 l 0.2,-5.7 6.3,-0.5 6.4,-0.6 0.4,0.1 0.4,0.2 1.3,6.7 1.4,6.8 -0.2,0.2 -0.2,0.2 -5.8,1.5 -5.9,1.6 H 288 Z" />
  <path fill="#cfcfcf" d="m 80.2,25.4 0.3,-2.4 0.4,-2.3 v -2 h 0.5 l 7.4,0.6 7.4,0.6 0.2,0.3 0.2,0.2 0.5,2 0.5,1.9 V 25 h -13 l -2.1,0.3 -2.2,0.2 z" />
  <path fill="#cfcfcf" d="m 302.3,18.8 -1.2,-4.6 1.6,-2.4 1.7,-2.5 1.1,1 1.2,0.9 0.6,0.6 0.5,0.6 -2,5.5 -2,5.5 h -0.2 z" />
  <path fill="#cfcfcf" d="m 251.4,22.2 -0.5,-0.6 -5.4,-4 -5.5,-4 V 13 l 1.6,-4.2 1.6,-4.1 1.4,-1.4 1.4,-1.4 6,3.2 6,3.2 1,1.7 1,1.7 2,3.8 2,3.8 v 0.5 l -1.2,1.5 -1.1,1.5 h -9.8 z" />
  <path fill="#cfcfcf" d="m 210.8,97 -2.2,-0.4 v -0.4 l -1.8,-14.7 -2,-14.7 1,-0.8 0.9,-0.8 1.8,-1.6 1.8,-1.6 0.6,0.8 0.5,0.8 1.8,2.4 1.8,2.4 2.7,3.2 2.6,3.2 4.3,4.2 4.2,4.3 v 0.4 l -6.4,5.6 -6.4,5.7 -1.5,1.3 -1.5,1.3 -2.2,-0.4 z" />
  <path fill="#cfcfcf" d="m 100.6,95.2 0.9,-1.9 2.9,-6.7 2.9,-6.7 0.1,-0.2 5.6,2.5 5.7,2.5 0.1,1.9 0.2,2 0.2,4 0.3,4 h -8 l -5.9,0.3 -5.8,0.2 z" />
  <path fill="#cfcfcf" d="m 95.6,94.6 -0.6,-0.4 2.1,-6 2.2,-6 0.3,-0.6 0.2,-0.5 2,0.3 2,0.3 0.1,0.1 0.1,0.1 -3.6,6.6 -3.6,6.6 h -0.6 z" />
  <path fill="#cfcfcf" d="m 147.1,92.5 -5.7,-1.8 -0.1,-0.2 -0.2,-0.1 4.9,-11.8 4.8,-11.8 0.1,-0.1 v -0.1 l 5.4,2 5.3,2 -0.7,1.6 -0.6,1.6 -2.6,7.2 -2.5,7.2 -1.2,3 -1,3 -0.1,0.1 z" />
  <path fill="#cfcfcf" d="m 240.5,94 -0.2,-0.3 -1.9,-6.3 -1.9,-6.2 0.6,-0.7 0.6,-0.8 5,-5 5,-5.2 5.3,2 5.4,2 0.1,0.9 0.1,0.8 -1,8.4 -1,8.5 -0.1,1.2 -0.2,1.2 h -15.7 z" />
  <path fill="#cfcfcf" d="M 75,93 74,92.4 69.5,89 65,85.7 v -0.4 l 0.8,-0.4 0.8,-0.5 1.3,0.4 1.4,0.4 4.5,1.4 4.6,1.5 v 0.5 l -1.2,2.6 -1.2,2.6 z" />
  <path fill="#cfcfcf" d="m 34.9,91.9 -1.5,-0.3 -8,-1.4 -8.2,-1.5 -0.2,-0.2 -0.1,-0.1 4.4,-6.7 4.4,-6.6 0.4,-0.6 0.4,-0.5 3.7,-1 3.8,-1 h 1.5 l 0.2,0.8 0.2,0.7 0.9,7.5 1,7.5 0.2,1.5 0.2,1.4 -0.9,0.4 -0.8,0.4 h -0.1 z" />
  <path fill="#cfcfcf" d="m 257.6,90.8 v -0.3 l 2.6,-12 2.5,-12 2.8,-7.6 2.8,-7.7 0.2,0.1 0.2,0.1 3.7,5 3.8,5 -1.8,12.9 -1.7,12.9 h -0.1 l -0.1,0.1 -4.7,1.2 -4.6,1.2 -2.8,0.8 -2.8,0.7 z" />
  <path fill="#cfcfcf" d="m 40.8,88.8 -0.2,-1.5 -1,-7.4 -0.9,-7.4 v -1 l 3,-0.4 3,-0.3 2.3,-0.8 2.1,-0.8 0.3,0.2 0.2,0.3 5.1,6.2 5.1,6.2 -0.2,0.2 -0.2,0.2 -9,4 -8.9,3.8 h -0.4 z" />
  <path fill="#cfcfcf" d="m 86.3,89.4 h -5.5 l -0.2,-0.3 -0.2,-0.2 0.6,-6.4 0.6,-6.4 0.2,-0.1 7.7,1.8 7.8,1.8 0.2,0.2 0.1,0.2 -1.9,4.7 -1.9,4.8 h -7.5 z" />
  <path fill="#cfcfcf" d="M 132,86.8 126.4,85 v -0.4 l 2.7,-0.9 2.6,-0.8 4.7,-0.9 4.7,-0.9 v 0.6 l -1.6,3.5 -1.7,3.5 h -0.3 l -5.6,-1.9 z" />
  <path fill="#cfcfcf" d="M 0,77.3 0.2,67.1 0.8,67 l 0.6,-0.2 9.6,4.8 9.5,4.8 v 0.5 l -2.9,5 -2.9,4.8 L 10,86.9 5.3,87.1 2.6,87.3 0,87.5 Z" />
  <path fill="#cfcfcf" d="m 276,85.9 0.1,-0.9 1,-11.4 1.1,-11.5 0.2,-0.3 0.2,-0.2 6.4,-0.2 6.4,-0.1 3.4,10.6 3.4,10.6 h -0.1 l -10.9,2.2 -10.8,2 h -0.6 z" />
  <path fill="#cfcfcf" d="m 317.2,78 -2.7,-8.5 0.3,-0.3 0.3,-0.3 2.3,-0.8 2.4,-0.8 h 0.1 l 0.1,0.2 V 77 l -0.2,9.6 z" />
  <path fill="#cfcfcf" d="m 176.6,85.5 -0.2,-0.7 1.7,-4 1.7,-4.1 2.4,-5 2.4,-5 h 0.6 l 8.6,2.5 8.6,2.6 0.3,0.2 0.2,0.3 0.5,2.7 0.4,2.7 v 1.1 h -1.2 l -3.6,1 -3.7,1.2 -4,1.5 -4,1.4 -3.2,1 -3.4,0.9 -2,0.2 -2,0.2 z" />
  <path fill="#cfcfcf" d="m 71.5,82.9 -6,-1.6 -0.9,-0.9 -0.8,-1 -3,-3.1 -2.8,-3.3 4.7,-3.8 4.6,-3.7 6,4.2 5.7,4.3 v 1.7 l -0.4,4 -0.5,4 v 0.8 h -0.5 l -6,-1.6 z" />
  <path fill="#cfcfcf" d="m 115.4,81.3 -6.8,-2.3 -0.2,-0.2 1.2,-1.5 1.3,-1.6 2.2,-2.5 2.2,-2.6 6,-6.3 5.7,-6.3 h 3.9 l -0.2,0.7 -0.2,0.7 -0.5,2.7 -0.5,2.8 -0.3,5.6 -0.4,5.6 -0.4,2.6 -0.4,2.7 -0.2,0.1 -0.1,0.2 -2.6,1 -2.5,0.9 H 122 l -6.7,-2.3 z" />
  <path fill="#cfcfcf" d="m 228.2,79.4 -2.5,-2.2 -1.8,-2 -1.8,-2.1 2,-1.6 2,-1.6 4.9,-3.9 4.9,-3.9 h 0.2 l 2.3,5.4 2.3,5.3 -0.3,0.4 -0.2,0.4 -4.6,4 -4.5,4 h -0.5 z" />
  <path fill="#cfcfcf" d="M 299.7,81 299.6,80.9 297.3,71.5 295,62 v -0.8 l 2,-1.3 2,-1.3 0.4,0.5 0.3,0.5 5,8.2 5,8.3 v 0.5 l -1.8,0.9 -1.8,0.8 -3.1,1.4 -3.1,1.5 z" />
  <path fill="#cfcfcf" d="m 132.7,72 0.4,-8.4 v -5.4 l 2.3,0.2 2.4,0.2 5.7,2.3 5.8,2.3 0.2,0.2 0.3,0.2 -3.3,6.9 -3.3,6.9 -1.9,0.4 -1.8,0.4 -3.2,1 -3.3,1.2 h -0.7 z" />
  <path fill="#cfcfcf" d="m 100.2,78.2 -2.4,-0.4 -0.2,-0.2 v -0.1 l 2.6,-8.6 2.6,-8.6 1.6,-0.2 1.7,-0.2 v 0.2 l -0.9,8.6 -0.9,8.6 -0.1,0.8 -0.2,0.7 h -1.4 z" />
  <path fill="#cfcfcf" d="m 107.3,67.3 1.2,-10.4 0.2,-0.2 7.7,0.4 7.5,0.5 0.2,0.2 -3.4,3.7 -3.4,3.7 -3.3,3.6 -3.2,3.5 -2.2,2.8 -2.2,2.7 h -0.3 z" />
  <path fill="#cfcfcf" d="m 88.3,74.3 -7.5,-1.8 -2.2,-2.3 -2.2,-2.2 0.5,-0.7 0.4,-0.7 4.1,-3.3 4.2,-3.3 4.4,-3.3 4.4,-3.2 h 0.4 l 3,2.3 3,2.2 v 0.5 l -1,3.6 -1.1,3.7 -1.2,5 -1.2,5 -0.2,0.1 -0.3,0.2 z" />
  <path fill="#cfcfcf" d="M 13.7,70 5.2,65.8 5,65.6 4.8,65.5 l 7.5,-2.7 7.4,-2.6 4.2,2.6 4.3,2.7 V 66 l -2.7,4 -2.7,4.2 h -0.6 z" />
  <path fill="#cfcfcf" d="m 168.3,70.5 -9.7,-3.1 -0.6,-0.2 -0.5,-0.2 3.4,-5 3.4,-5.1 0.3,-0.4 0.4,-0.4 4,1 4,0.9 2.5,0.8 2.6,0.8 3,1.5 3,1.5 -0.2,0.2 V 63 l -2.6,5.3 -2.5,5.4 h -0.4 l -0.3,-0.1 z" />
  <path fill="#cfcfcf" d="m 53.1,69.4 -2,-3 -1.3,-1.3 -1.2,-1.4 0.6,-0.5 0.6,-0.4 1.4,-0.8 1.4,-0.7 4.4,-1.9 4.3,-1.9 1,-0.7 1,-0.7 0.7,3.6 0.7,3.6 0.1,0.6 0.2,0.7 -4.3,3.4 -4.3,3.5 -0.4,0.4 -0.4,0.5 h -0.4 z" />
  <path fill="#cfcfcf" d="m 219.5,70.2 -0.8,-0.9 -2,-2.4 -1.9,-2.4 -1.4,-2 -1.4,-2 0.5,-0.4 0.5,-0.5 8,-6.9 7.9,-7 v 0.2 h 0.1 l 2,4.6 2,4.4 1,2.6 1.2,2.7 -7.3,5.4 -7.3,5.5 h -0.3 z" />
  <path fill="#cfcfcf" d="m 28.2,70.2 0.1,-0.3 5,-7 4.9,-6.9 0.2,0.1 0.3,0.1 4.3,5.1 4.3,5 -0.1,0.4 -0.2,0.2 -1.6,0.5 -1.7,0.5 -4.2,0.5 -4.1,0.5 -3.2,0.6 -3.1,0.7 -0.5,0.2 -0.5,0.2 z" />
  <path fill="#cfcfcf" d="m 252,67.9 -7.4,-2 -2,-0.4 -2,-0.6 -3.2,-6.4 -3.1,-6.4 0.7,-0.1 0.7,-0.1 13.3,-0.9 13.2,-0.8 0.2,0.2 -1.4,9.6 -1.4,9.5 v 0.1 l -0.2,0.1 z" />
  <path fill="#cfcfcf" d="m 307.3,67.8 -1,-1.7 -5.1,-9.5 L 296,47 v -0.2 l 3.4,-1.2 3.4,-1.3 0.2,0.3 0.3,0.3 5.6,10.2 5.7,10.1 0.2,0.5 0.1,0.5 -3,1.5 -3,1.5 -0.3,0.1 -0.4,0.1 z" />
  <path fill="#cfcfcf" d="m 193.6,66.4 -7.5,-1.8 -0.1,-0.1 -0.2,-0.1 0.9,-1.9 0.8,-1.8 4.2,-8.6 4.1,-8.5 v -0.7 h 0.5 l 2.2,7.3 2.1,7.3 0.7,4.3 0.6,4.3 0.2,1 0.2,1.1 h -1.2 z" />
  <path fill="#cfcfcf" d="m 70.3,64 -3,-1.8 -0.1,-0.6 -0.3,-0.6 -1.5,-7.6 -1.5,-7.6 0.2,-0.1 0.1,-0.2 12.5,1.8 12.3,1.7 1.9,1.4 1.8,1.4 -4.9,3.6 -4.9,3.6 -3.2,2.5 -3.2,2.5 -1.3,0.6 -1.3,0.6 -0.2,0.3 -0.2,0.4 H 73 l -2.8,-2 z" />
  <path fill="#cfcfcf" d="m 147.5,60.5 -8.1,-4.4 v -0.3 l 0.1,-0.4 2,-3 2,-3 1.7,-3.5 1.7,-3.6 1.3,-2.3 1.3,-2.2 h 0.3 l 7,6.7 6.9,6.6 v 0.4 l -3.9,6.7 -3.8,6.8 h -0.3 z" />
  <path fill="#cfcfcf" d="M 25.7,60.2 22,56.9 v -0.4 l 2.3,-3.8 2.4,-3.8 3.3,-5.4 3.3,-5.4 0.7,0.1 0.6,0.2 5.5,1 5.6,1.1 v 0.4 L 37.6,52 29.5,63.2 29.3,63.3 v 0.1 z" />
  <path fill="#cfcfcf" d="m 43.2,58.1 -3,-4 1.8,-2.3 1.7,-2.4 5.3,-7.4 5.5,-7.4 h 0.4 l 3,5.7 3.1,5.7 0.7,3.3 0.7,3.2 -0.9,0.8 -0.9,0.9 -4.5,2.2 -4.6,2.2 -2.5,1.7 -2.6,1.8 h -0.1 l -3,-4 z" />
  <path fill="#cfcfcf" d="M 1,61.3 0,60.7 V 49.1 L 0.2,37.4 4.4,36 l 4.2,-1.4 1.1,0.5 1.2,0.6 v 0.7 L 6.7,49.1 2.5,61.8 H 2.1 Z" />
  <path fill="#cfcfcf" d="m 6.4,60.8 v -0.1 l 0.3,-2 0.4,-1.8 0.8,-3 0.8,-2.8 2.6,-7 2.6,-7 V 36.9 H 14 l 6,2.5 5.9,2.5 0.8,0.5 0.8,0.4 -3.4,5.3 -3.4,5.2 -1.1,1.9 -1.2,1.9 -0.3,0.4 -0.3,0.4 -5.3,1.5 L 7,60.9 H 6.3 Z" />
  <path fill="#cfcfcf" d="m 183,59.5 -2,-1 -2.7,-1 -2.8,-1 -4.8,-1.2 -4.7,-1.3 -0.4,-0.2 h -0.4 l 1.2,-1.8 1.2,-1.8 h 0.1 l 13,-4 12.8,-4 0.1,0.1 0.2,0.2 -2.1,4.4 -2.1,4.4 -2.2,4.6 -2.2,4.5 h -0.4 l -1.9,-1 z" />
  <path fill="#cfcfcf" d="m 316.9,58.4 -3,-2.2 -3.5,-6.1 -3.6,-6.2 0.1,-0.2 0.2,-0.1 4.3,-2 4.4,-2.2 2.1,-1 2.1,-0.9 v 23 h -0.2 z" />
  <path fill="#cfcfcf" d="m 204.2,59.8 -0.8,-4.9 -0.8,-4.8 h 0.1 l 8.3,-3.6 8.2,-3.6 h 0.3 v 5.4 l -4.8,4.3 -4.8,4.3 -2.6,1.5 -2.7,1.5 h -0.4 z" />
  <path fill="#cfcfcf" d="m 274.8,54.7 -3,-3.6 -1,-1.4 -1.2,-1.4 2.7,-2.6 2.7,-2.6 5.3,-5 5.2,-5.1 0.2,0.1 0.2,0.2 1.9,2.7 1.8,2.7 3.2,8.9 3.2,8.9 v 0.7 l -7.4,0.4 -7.5,0.4 -1.6,0.2 -1.7,0.2 z" />
  <path fill="#cfcfcf" d="M 97.9,51.4 92,47.1 v -0.3 l 0.2,-0.3 4,-5.3 4.1,-5.4 0.4,-0.1 0.4,-0.2 4,0.7 3.9,0.7 0.2,0.2 0.2,0.2 -1.1,8 -1.1,8 -0.8,0.7 -0.8,0.6 -0.9,0.6 -1,0.5 z" />
  <path fill="#cfcfcf" d="m 127,55 -5.2,-0.3 -2.3,-2.3 -2.2,-2.3 -2.5,-3 -2.5,-3 -0.6,-2 L 111,40 v -2 l 0.4,-3.3 0.4,-3.3 0.8,0.2 0.8,0.2 5.4,0.8 5.3,0.7 6,1.1 6,1.1 4.6,0.7 4.6,0.8 v 0.1 l -0.2,0.2 -2.6,5.3 -2.7,5.3 -2.4,3.7 -2.5,3.8 h -2.6 z" />
  <path fill="#cfcfcf" d="m 112.2,54.2 -3,-0.2 0.1,-0.7 v -0.6 l 0.5,-3.8 0.4,-3.7 h 0.5 v 0.5 l 2.2,2.6 2.1,2.5 1.4,1.6 1.4,1.7 v 0.4 l -1.4,-0.1 H 115 Z" />
  <path fill="#cfcfcf" d="m 232.5,45 -1.8,-4.3 v -0.3 l 3.7,-8.8 3.7,-8.7 0.3,-0.2 0.2,-0.1 4,1 4,1 0.2,0.1 0.2,0.2 -1,7.5 -1.2,7.5 v 9.4 h -10.5 z" />
  <path fill="#cfcfcf" d="M 246.8,44.2 V 39 l 12,-3 12,-3 0.2,0.1 0.1,0.2 -2.5,7.2 -2.5,7.2 -0.1,0.3 -0.2,0.3 -7.4,0.4 -7.4,0.3 -2.1,0.2 -2.2,0.2 z" />
  <path fill="#cfcfcf" d="m 0,110.8 v -2.6 l 0.6,0.3 0.6,0.4 0.9,0.3 0.8,0.3 -0.7,1.3 -0.7,1.4 -0.5,0.6 -0.5,0.5 H 0 Z" />
  <path fill="#cfcfcf" d="m 125.3,111.4 -1,-1.3 h 0.2 l 0.1,-0.2 3.4,-2.6 3.4,-2.5 4.3,-2.7 4.3,-2.7 3.6,-2 3.6,-2 3.6,1 3.6,1 0.2,0.2 0.2,0.2 -2.7,7.1 -2.8,7.1 -0.2,0.1 -0.1,0.2 -11.4,0.2 -11.4,0.2 z" />
  <path fill="#cfcfcf" d="m 215.1,106.3 -2,-4.2 v -0.5 l 10.1,-8.6 10.1,-8.5 0.2,0.2 0.2,0.2 2.7,6.6 2.6,6.5 -0.1,0.2 -0.2,0.2 -10.6,6 -10.6,5.8 h -0.2 l -0.2,0.2 z" />
  <path fill="#cfcfcf" d="M 40.2,103.7 34,97.3 v -0.6 l 4.6,-2.1 4.6,-2 h 0.7 l 3.7,2.7 3.7,2.8 3.3,2.9 3.2,2.9 -0.2,0.2 -0.3,0.2 -5.2,3 -5.3,2.8 h -0.7 l -6,-6.4 z" />
  <path fill="#cfcfcf" d="m 254.7,103.7 -3.2,-5.2 0.2,-0.2 0.3,-0.3 2.9,-0.8 2.9,-0.8 0.6,0.7 0.6,0.8 2.9,3.2 2.8,3.3 v 0.1 l -0.2,0.1 -2.9,2 -2.9,1.8 -0.3,0.2 -0.4,0.2 z" />
  <path fill="#cfcfcf" d="m 122,106.3 0.2,-1.8 0.2,-7.6 0.2,-7.7 0.2,-0.4 0.2,-0.3 8.2,2.3 8.2,2.3 1.7,0.6 1.7,0.5 -0.9,0.6 -1,0.5 -5,3 -5,3 -4.2,3.1 -4,3 -0.5,0.3 -0.3,0.3 z" />
  <path fill="#cfcfcf" d="M 1.7,106 0,105 V 89.6 l 6.8,0.1 6.8,0.1 7.8,2.7 7.7,2.7 v 0.5 l -4.5,3.2 -4.5,3.3 -0.7,0.3 -0.7,0.3 -7.6,2 -7.6,2.1 H 3.4 Z" />
  <path fill="#cfcfcf" d="m 266.6,100.7 -4.5,-6.3 -0.2,-0.4 -0.2,-0.5 2.2,-0.6 2.2,-0.7 6.7,-2 6.7,-2.1 0.4,0.4 0.4,0.4 4.3,7.1 4.4,7.2 h -0.1 l -0.1,0.2 -8.4,1.8 -8.5,1.7 h -0.8 z" />
  <path fill="#cfcfcf" d="m 203.6,105.5 -6.2,-1 v -0.2 l 6,-2 6,-2.1 0.2,-0.1 0.3,-0.1 0.2,0.5 0.1,0.6 0.6,2.8 0.7,2.8 h -1.7 z" />
  <path fill="#cfcfcf" d="m 318.2,104 -1.6,-1 0.4,-2.3 0.5,-2.2 0.8,-4.4 0.8,-4.4 H 320 V 105 h -0.2 z" />
  <path fill="#cfcfcf" d="m 84.8,100.2 -5.9,-4 -0.4,-1.9 -0.3,-1.8 0.2,-0.1 6.7,0.3 6.8,0.4 0.2,0.3 0.3,0.3 0.6,1.4 0.5,1.5 1.3,0.4 1.2,0.4 V 98 l -2.3,3.2 -2.3,3.2 h -0.7 z" />
  <path fill="#cfcfcf" d="m 182.3,102.9 -0.1,-0.3 -2.3,-7 -2.3,-7 0.2,-0.1 2.8,-0.6 3,-0.5 6.5,-2.3 6.5,-2.2 3.2,-1 3.2,-0.9 h 1.4 l 1,6.3 1,6.4 0.4,2.4 0.4,2.5 -0.2,0.1 -0.1,0.2 -11.4,2 -11.3,2 h -0.9 l -0.8,0.3 z" />
  <path fill="#cfcfcf" d="m 57.8,99.8 -3,-2.6 -3,-2.4 -3.1,-2.5 -1,-0.6 -1,-0.6 v -0.3 l 6.5,-2.7 6.4,-2.7 0.7,0.4 0.7,0.4 5.5,4.5 5.5,4.5 v 0.4 l -0.7,0.4 -0.7,0.5 -3.6,2.1 -3.5,2.1 -1.4,0.9 -1.5,0.8 z" />
  <path fill="#cfcfcf" d="m 288.6,98 -2.4,-4 -1.6,-2.7 -1.5,-2.6 0.1,-0.1 0.2,-0.2 12,-2.7 12,-2.7 v 0.1 l 0.2,0.1 -1.5,8.6 -1.5,8.6 -0.4,0.3 -0.5,0.4 -5.4,0.4 -5.3,0.3 -1,0.2 -1,0.2 z" />
  <path fill="#cfcfcf" d="m 167.4,97.6 -10.7,-3.8 -0.1,-0.1 -0.2,-0.2 2.8,-7.9 2.7,-8 1,-2.7 1,-2.7 0.3,-0.3 0.2,-0.2 2.5,0.9 2.5,0.9 3.3,1.7 3.3,1.7 -0.6,1.6 -0.6,1.5 -0.8,1.9 -0.8,1.9 2.8,8.7 2.9,8.7 v 0.3 h -0.8 z" />
  <path fill="#cfcfcf" d="m 60.9,124.5 -3.6,-3.7 v -0.5 l 1.2,0.2 1.2,0.2 h 5 l 5,0.1 1,0.2 1,0.2 -3.6,3.6 -3.6,3.6 -3.6,-3.8 z" />
  <path fill="#cfcfcf" d="m 319.4,127.3 -0.4,-0.4 0.5,-1.1 0.5,-1.1 v 3 h -0.2 z" />
  <path fill="#cfcfcf" d="m 17.1,126.8 -0.1,-0.1 3.5,-1.9 3.6,-1.9 h 0.5 l 1.3,2 1.3,1.8 -5,0.1 -5,0.1 z" />
  <path fill="#cfcfcf" d="m 172.8,125.1 -2.4,-2 -2.6,-2.3 -2.7,-2.4 v -0.7 l 5.2,-6.1 5.1,-6.1 0.8,-0.9 0.7,-0.8 3.5,1.1 3.4,1.2 0.3,0.2 0.3,0.3 -4.6,10.1 -4.5,10.2 v 0.1 l -0.1,0.1 z" />
  <path fill="#cfcfcf" d="m 29,123.8 -3.8,-3 -0.1,-0.3 -0.2,-0.5 1.3,-3.8 1.4,-3.9 -0.8,-0.8 -0.7,-0.9 -2.4,-2.6 -2.3,-2.7 0.2,-0.3 0.3,-0.2 4.5,-3 4.4,-3 1.5,1.6 1.7,1.6 7.8,8.2 8,8.3 v 0.5 l -8.2,3.9 -8.2,3.9 h -0.5 z" />
  <path fill="#cfcfcf" d="m 178.9,125.7 v -0.1 l 4,-9.8 4,-9.9 0.1,-0.2 0.2,-0.1 5.2,0.7 5.2,0.7 h 0.4 l 0.4,0.2 -0.6,2.7 -0.6,2.6 -1.2,5.8 -1.2,5.8 -0.2,0.2 -0.2,0.2 -7.3,0.7 -7.3,0.6 h -0.9 z" />
  <path fill="#cfcfcf" d="m 138,124.4 -4.7,-0.4 -0.1,-0.1 -2.6,-4 -2.6,-4 0.2,-0.3 0.1,-0.1 10.1,-0.2 10.1,-0.1 -0.6,1.5 -0.6,1.6 -1.2,3.3 -1.2,3.3 h -1 l -1,-0.1 -4.8,-0.4 z" />
  <path fill="#cfcfcf" d="m 199.5,115.9 0.3,-8.5 7.2,1 7.1,1 0.3,0.3 0.3,0.3 2.4,6.3 2.4,6.4 v 0.2 l -1.3,0.2 -1.4,0.1 -7,0.4 -7,0.3 -1.8,0.2 -1.7,0.2 z" />
  <path fill="#cfcfcf" d="m 293.8,122.2 -0.9,-1.7 -1.1,-2 -1.1,-2.1 -1.7,-3.2 -1.7,-3.2 -0.5,-0.9 -0.5,-0.8 0.1,-0.2 0.2,-0.2 8,-1.8 8,-1.7 h 0.4 l 0.2,1.2 0.1,1.2 0.2,2.3 0.2,2.3 2.6,2.8 2.5,2.8 v 0.5 l -1.7,0.8 -1.7,0.7 -5,2.5 -5.1,2.4 h -0.5 z" />
  <path fill="#cfcfcf" d="m 63.4,117.2 -7,-0.3 -0.8,-0.3 -0.9,-0.4 -3,-2.3 -3,-2.3 0.5,-0.3 0.6,-0.4 3.2,-1.7 3.2,-1.7 4.8,-2.7 4.8,-2.8 4.9,-3 4.9,-3 4.5,3.7 4.5,3.7 1.3,1 1.3,1.1 -3.4,3.2 -3.3,3.2 -3,2.8 -2.9,2.8 h -2.2 l -2.2,-0.1 z" />
  <path fill="#cfcfcf" d="m 236.2,110.9 -4.2,-6 0.2,-0.2 0.3,-0.2 6.3,-4 6.3,-3.8 h 0.4 l 0.3,-0.2 6,8 6,8 -0.5,0.3 -0.5,0.2 -8,2 -7.9,1.9 h -0.5 z" />
  <path fill="#cfcfcf" d="m 161.4,114.4 -1.6,-1.9 -1.6,-1.9 -1.6,-2 -1,-1.3 -1,-1.5 v -0.7 l 1.6,-3.6 1.6,-3.7 h 0.1 l 0.1,-0.2 8,2.6 8.1,2.6 v 0.3 l -0.2,0.3 -5.3,6.4 -5.2,6.4 H 163 Z" />
  <path fill="#cfcfcf" d="m 101.6,115 -1,-0.7 -4.1,-3.3 -4.2,-3.2 -0.2,-0.2 2.9,-3.6 2.8,-3.6 0.2,-0.2 0.2,-0.3 10.6,-0.5 10.7,-0.6 0.1,0.2 0.2,0.1 0.2,3.8 0.2,3.9 -2.4,1.2 -2.3,1.2 -6.4,3.3 -6.4,3.3 z" />
  <path fill="#cfcfcf" d="m 310,113.5 -3,-2.5 -0.3,-0.3 -0.4,-0.4 1.7,-15.3 1.6,-15.3 1.6,-2 1.5,-2.2 h 0.2 l 1,3 1,3.2 1,3.4 1,3.3 -1.2,6.2 -1.1,6.2 0.2,2.6 0.2,2.7 2.5,1 2.5,1 v 2.6 l -0.2,2.6 -3.5,1.2 -3.5,1.3 -2.9,-2.4 z" />
  <path fill="#cfcfcf" d="m 168,204 -6.9,-1.2 -0.2,-2.6 -0.2,-2.5 -0.2,-3 -0.1,-3 3.2,-3.5 3.3,-3.5 0.8,0.9 0.7,0.9 4,4.3 4.1,4.3 2.6,2.8 2.7,2.8 v 0.6 l -3.3,2 -3.3,1.9 H 175 l -0.1,-0.1 z" />
  <path fill="#cfcfcf" d="m 112.6,203.3 -2,-0.5 h -0.2 v -0.2 l 4,-5.4 4,-5.5 h 0.6 l 1,0.4 1,0.3 -0.2,0.5 -0.2,0.5 -2.3,5.2 -2.3,5.3 h -1.3 z" />
  <path fill="#cfcfcf" d="m 69.8,198.5 -1.7,-4.1 2.7,-4 2.6,-4 0.2,-0.1 h 0.2 l 2.6,5.4 2.6,5.5 -3.3,2.5 -3.4,2.6 -0.4,0.2 -0.4,0.1 z" />
  <path fill="#cfcfcf" d="m 201.5,199.3 -1.8,-3.4 v -0.5 l 8.2,-8.8 8.2,-8.8 h 0.6 l 4,9.2 4,9.3 h -0.1 l -0.1,0.2 -10.2,3 -10.1,3.1 h -0.8 z" />
  <path fill="#cfcfcf" d="m 91.1,199.3 -9.2,-2 -0.2,-0.2 -0.1,-0.2 -3,-6 -3,-6 1.5,-2 1.5,-2 h 0.5 l 10.3,9.1 10.3,9.2 0.7,0.7 0.7,0.8 v 0.6 h -0.8 z" />
  <path fill="#cfcfcf" d="m 37.8,196.7 -4.8,-4 v -7 l 3.2,-2.2 3.3,-2.1 h 0.8 l 6.1,4.4 6,4.4 v 0.4 l -4.8,5 -4.9,5.1 z" />
  <path fill="#cfcfcf" d="M 99.5,194.9 93,189 l -0.4,-0.3 -0.4,-0.4 -1,-2.7 -1,-2.6 5.9,-4.6 5.8,-4.7 h 0.5 l 6.8,4.5 6.8,4.6 2.5,1.6 2.4,1.6 -0.1,0.2 -0.1,0.2 -7.3,7 -7.3,7.1 -6.6,-5.7 z" />
  <path fill="#cfcfcf" d="m 13.3,199.3 -0.2,-0.4 v -4.4 L 13,190 9.5,188 6,186.1 l 2,-1.8 2,-1.9 0.7,-0.4 0.7,-0.5 7.8,1.7 7.8,1.8 1.9,0.4 1.8,0.4 v 7.2 l -8.6,3.4 -8.7,3.4 z" />
  <path fill="#cfcfcf" d="M 0,192.7 V 186 l 0.9,0.5 0.9,0.6 3.2,2.1 3.3,2.2 1,1.7 1,1.7 -0.3,0.2 -0.2,0.2 -4.6,2.1 -4.6,2.1 H 0 Z" />
  <path fill="#cfcfcf" d="m 182.2,197 -2.1,-2.2 -5.8,-5.8 -5.7,-5.8 0.3,-0.5 0.2,-0.5 2.7,-2.9 2.8,-2.9 4,-1.1 3.9,-1.2 0.1,0.2 4.3,6.6 4.2,6.5 2,2.8 1.8,2.8 -0.1,0.3 -0.2,0.3 -5,2.9 -4.8,3 h -0.4 z" />
  <path fill="#cfcfcf" d="m 291,196.8 -10.4,-1.5 -0.1,-0.1 -0.2,-0.2 2,-8.2 1.8,-8.3 6,-0.1 h 6.2 l 0.3,1 0.3,1 2.3,8.7 2.3,8.8 -0.1,0.2 -0.1,0.2 z" />
  <path fill="#cfcfcf" d="m 252.6,196 -1.6,-1.2 -3.2,-2.4 -3.2,-2.4 -3.8,-3.2 -3.8,-3.2 -1.2,-1 -1.2,-1 5.7,-5.6 5.6,-5.6 9.1,3.7 9.1,3.8 0.1,0.3 0.1,0.3 -4.8,9.3 -4.8,9.4 h -0.5 z" />
  <path fill="#cfcfcf" d="m 276.3,194.7 h -0.6 l -4.3,-0.6 -4.4,-0.5 -2.8,-0.6 -2.9,-0.6 v -0.1 l -0.2,-0.2 3.4,-6.9 3.3,-6.9 h 5.6 l 5.7,0.1 0.1,0.2 0.2,0.3 -0.5,7.1 -0.5,7.2 v 1.7 H 277 Z" />
  <path fill="#cfcfcf" d="m 195.3,188 -3.2,-5.7 -2.2,-4 -2.1,-3.9 0.2,-0.2 0.3,-0.3 12.1,-2.5 12.1,-2.5 0.3,0.3 0.2,0.3 1,2.3 1,2.4 -0.2,0.4 -0.2,0.3 -7.7,9 -7.6,9 -0.4,0.4 -0.4,0.4 z" />
  <path fill="#cfcfcf" d="m 52.6,184.8 -11.5,-8 -0.3,-0.2 -0.3,-0.1 0.3,-0.4 0.3,-0.3 10,-4.7 9.8,-4.7 0.4,0.2 0.5,0.1 6.4,5.9 6.4,5.8 -0.6,0.9 -0.6,0.8 -4.4,6.5 -4.4,6.4 h -0.4 z" />
  <path fill="#cfcfcf" d="m 144,189.6 -2.7,-0.5 -0.1,-0.1 h -0.1 l 0.5,-3.2 0.6,-3.2 0.2,-0.5 0.2,-0.6 3,3 2.9,3 -0.4,1.3 -0.3,1.3 h -1.1 z" />
  <path fill="#cfcfcf" d="m 153,187.7 -3,-2.5 -3.1,-2.7 -3,-2.7 -0.8,-0.7 -0.7,-0.7 2.2,-4.7 2.2,-4.7 H 159 l 6.4,2.6 6.4,2.5 0.3,0.3 0.3,0.3 -5.9,6.4 -5.9,6.3 -0.8,0.5 -0.8,0.5 -1.5,0.9 -1.5,0.8 z" />
  <path fill="#cfcfcf" d="m 221.1,180.3 -3.3,-7.6 -1,-2.5 -1,-2.5 5.8,-2.8 5.9,-2.9 7.9,3.4 7.9,3.3 0.1,0.1 0.2,0.2 -4.3,4 -4.3,4.2 -2.3,2.2 -2.3,2.3 -2.8,3 -2.8,3.2 h -0.4 z" />
  <path fill="#cfcfcf" d="m 300.7,183 -2.1,-4.9 v -0.5 l 5,-6.8 5.2,-6.8 0.6,-0.5 0.6,-0.6 2.3,-0.4 2.4,-0.5 0.4,0.6 0.5,0.5 1.1,2.1 1.2,2.2 1,0.2 1,0.3 v 8 l 0.1,8 -2,-1.8 -2,-1.8 -1,0.6 -0.8,0.7 -5.6,3.1 -5.6,3.2 h -0.2 z" />
  <path fill="#cfcfcf" d="m 130.7,186 -6.7,-1.2 v -5.3 l 8.5,-2.7 8.4,-2.6 0.2,0.1 0.1,0.1 -0.5,4.1 -0.6,4.1 -0.3,2.3 -0.3,2.4 h -1 l -1,-0.1 z" />
  <path fill="#cfcfcf" d="M 2.2,184.2 1.4,184 0.7,183.9 0,183.7 v -15.6 l 4.7,-3 4.7,-2.8 0.1,0.2 0.4,8.1 0.4,8.2 -1.2,1 -1.3,1 -2,1.8 -2.2,1.8 H 3.3 L 3,184.3 Z" />
  <path fill="#cfcfcf" d="m 21.8,181.1 -8,-1.8 -0.2,-0.1 v -0.1 l -0.8,-6.7 -0.7,-6.7 -0.2,-1.4 -0.1,-1.4 h 6 l 8.5,7.6 8.4,7.5 0.4,0.4 0.5,0.4 -1.9,1.4 -1.9,1.4 -1,0.7 -0.9,0.7 z" />
  <path fill="#cfcfcf" d="m 80.6,177.2 -6,-5.1 v -0.6 l 2.8,-5.2 2.8,-5.1 1.6,-3.2 1.6,-3.2 0.8,-1.8 0.7,-1.9 3.2,1.6 3.2,1.6 -0.2,0.7 -0.2,0.7 -1,3.7 -1,3.7 -0.4,2.9 -0.5,2.9 -0.3,2.8 -0.3,3 -0.2,3.8 -0.2,4 h -0.4 z" />
  <path fill="#cfcfcf" d="m 112.4,174.8 -6.8,-6.6 v -0.4 l 4,-4 4.1,-4.1 0.2,0.3 0.3,0.2 4.8,8.6 5,8.6 -2.1,2 -2,2 h -0.7 z" />
  <path fill="#cfcfcf" d="m 91.8,167.3 2,-11.6 h 0.1 l 0.1,-0.2 6.6,3.3 6.6,3.3 v 0.2 l -0.2,0.3 -8.4,8.1 -8.6,8.3 h -0.4 z" />
  <path fill="#cfcfcf" d="m 121.8,167 -5.4,-9.3 0.4,-0.2 0.3,-0.2 4,-1 4,-1.1 0.3,0.2 0.3,0.3 3.4,6.1 3.4,6 1.1,2.2 1.1,2.2 v 0.9 l -3.4,1.6 -3.4,1.7 h -0.8 z" />
  <path fill="#cfcfcf" d="m 280,174.8 -10.8,-0.5 -0.2,-0.2 -0.1,-0.1 -1.5,-2.3 -1.5,-2.4 v -1 l 1.3,-4.2 1.4,-4.2 v -0.1 l 0.1,-0.1 7.7,1.4 7.6,1.5 9.4,2 9.4,2.2 h 0.1 l 0.1,0.2 -2.9,4.2 -3,4.2 h -6.4 z" />
  <path fill="#cfcfcf" d="m 33.4,172.3 -2,-1.8 V 170 l 9.3,-7 9.4,-7 0.3,-0.2 0.4,-0.2 3.8,4.6 3.8,4.7 0.1,0.2 0.1,0.3 -0.6,0.2 -0.6,0.1 -10.7,4.2 -10.7,4.2 h -0.6 z" />
  <path fill="#cfcfcf" d="m 187,171.2 -4.4,-0.6 H 180 l -0.1,-0.4 -0.2,-0.5 2.1,-6.5 2.2,-6.5 0.2,-0.3 0.3,-0.2 6.3,1.3 6.4,1.3 0.2,0.2 0.1,0.3 2.7,3 2.7,2.9 -0.1,0.1 -0.2,0.1 -4,3.3 -4.1,3.2 h -3.1 z" />
  <path fill="#cfcfcf" d="m 253.4,168.8 -7.9,-3 -0.9,-2.2 -0.9,-2.1 -2.5,-5.4 -2.5,-5.5 -1.5,-3.4 -1.4,-3.5 1.6,-3 1.6,-3.2 h 5.7 l 5.7,-0.2 0.3,0.5 0.2,0.5 2.8,3.8 2.8,3.7 4.4,6.5 4.4,6.4 v 0.6 l -1.7,6.3 -1.7,6.3 h -0.6 z" />
  <path fill="#cfcfcf" d="m 136,168.5 -1.5,-3.2 -3.1,-5.4 -3,-5.4 v -0.4 l 9,-2.8 9.2,-2.8 0.4,0.1 0.4,0.2 0.5,2.2 0.6,2.2 1.5,6 1.6,5.9 -6.6,3.1 -6.6,3.1 -0.4,0.2 -0.4,0.1 z" />
  <path fill="#cfcfcf" d="m 66.2,167 -4,-3.8 v -0.3 l -0.2,-0.3 7.3,-7.8 7.2,-7.9 h 0.2 l 2.6,1.2 2.5,1.2 0.2,0.1 -1.8,3.8 -1.8,3.8 -3.9,6.8 -3.9,6.8 h -0.4 z" />
  <path fill="#cfcfcf" d="m 173.1,169.7 -2,-0.6 -8.6,-2.3 -8.5,-2.3 -2.1,-8.3 -2.1,-8.2 v -0.6 l 3.5,-1 3.5,-0.8 0.9,0.7 0.9,0.8 2.8,2.6 3,2.6 3.6,3 3.7,3 2.8,2 2.8,2.2 v 0.9 l -0.8,3.4 -0.7,3.3 h -0.3 l -0.3,0.2 -2,-0.6 z" />
  <path fill="#cfcfcf" d="m 205.8,168.3 -0.3,-0.7 -1.8,-4.6 -1.8,-4.5 v -11.2 l 0.3,-0.2 0.3,-0.1 10.8,6 10.7,5.9 -0.2,0.1 -8.7,5 -8.8,5 h -0.2 z" />
  <path fill="#cfcfcf" d="m 25.3,165.3 -2.4,-2.1 -0.1,-0.5 -0.1,-0.5 0.5,-5 0.6,-4.9 3.9,-2.1 3.8,-2.2 4.5,-2.5 4.4,-2.5 0.4,0.5 0.4,0.4 3.5,4.3 3.5,4.2 0.4,0.6 0.4,0.6 -2.2,1.4 -2.2,1.4 -3.8,2.6 -3.8,2.6 -4.6,3 -4.6,2.8 h -0.1 z" />
  <path fill="#cfcfcf" d="m 234,161.2 -8,-3.3 0.2,-0.4 v -0.3 l 4.1,-5.3 4,-5.3 0.3,0.2 0.2,0.3 1.1,2.7 1.2,2.7 2.7,6 2.8,5.8 v 0.2 h -0.5 z" />
  <path fill="#cfcfcf" d="M 0.9,163.3 0,162.4 v -9.3 l 2.8,-6 2.7,-6 0.3,-0.4 0.2,-0.2 7.3,6 7.2,5.9 -1,2.8 -1,2.8 -0.3,0.2 -0.2,0.3 -3.3,-0.5 -3.2,-0.5 h -1.2 l -4.2,3.4 -4.2,3.3 H 1.7 Z" />
  <path fill="#cfcfcf" d="m 296,162 -7.2,-1.6 h -0.2 v -17.2 l 2,-0.2 2,-0.2 4.7,-0.4 4.6,-0.3 h 0.8 l 0.8,0.2 2.5,8 2.5,8 -2,2.5 -1.8,2.6 H 304 l -0.8,0.1 z" />
  <path fill="#cfcfcf" d="m 318.8,161 -1,-1.3 1,-3.3 1.2,-3.2 v 9.1 h -0.2 z" />
  <path fill="#cfcfcf" d="m 53.2,153.6 -5.8,-6.4 v -0.3 l 0.1,-0.2 4.3,-3.6 4.4,-3.7 4.2,-3.6 4.2,-3.6 3.5,3.1 3.4,3.2 2.1,2 2,2 -0.9,1 -1,1 -7.1,7.7 -7.2,7.7 h -0.2 l -0.2,0.2 z" />
  <path fill="#cfcfcf" d="m 174.8,156.6 -4.5,-3.4 -4,-3.5 -3.9,-3.4 -1,-0.8 -0.8,-0.8 v -0.2 h 0.2 l 10.7,-3 10.6,-3 0.2,0.2 0.2,0.2 -1.2,9.7 -1.2,9.7 -0.1,0.9 -0.2,0.9 h -0.4 z" />
  <path fill="#cfcfcf" d="m 283.4,159.7 -0.9,-0.2 -6.4,-1.2 -6.5,-1.2 -0.1,-0.1 -0.1,-0.1 1.8,-6 1.9,-6 0.2,-0.3 0.2,-0.3 5.1,-0.4 5,-0.5 h 2.1 v 16.7 H 285 l -0.7,-0.1 z" />
  <path fill="#cfcfcf" d="m 312.3,158.8 -0.8,-0.2 -3,-9 -2.9,-9 v -0.9 l 6.8,-3.2 6.8,-3.3 0.4,0.4 0.4,0.3 V 147 l -2.1,6 -2.2,6 h -2.6 l -0.8,-0.3 z" />
  <path fill="#cfcfcf" d="m 106.2,157.7 -1.7,-0.8 -0.2,-3.3 -0.2,-3.3 v -7 l 3,-7.4 3.2,-7.4 h 0.7 l 9.5,9.2 9.6,9.1 1.3,1.2 1.2,1.1 -0.1,0.2 h -0.2 l -6.3,1.4 -6.4,1.4 -5.6,3.2 -5.6,3.2 h -0.2 l -0.2,-0.1 z" />
  <path fill="#cfcfcf" d="m 192.8,156.2 -6,-1.2 -1.3,-0.2 -1.2,-0.2 v -14.7 h 13.1 l 0.2,0.9 0.2,0.9 1,7 0.9,7 0.1,1 0.2,0.8 h -1.1 z" />
  <path fill="#cfcfcf" d="m 262.6,150.7 -3.5,-5.2 -2.7,-3.6 -2.7,-3.7 -0.1,-0.4 -0.2,-0.5 H 271 l -0.1,1 -0.2,0.8 -2.1,8 -2.2,8 -0.2,0.4 -0.3,0.4 z" />
  <path fill="#cfcfcf" d="m 91.4,151.2 -9.2,-4.3 -0.2,-0.1 -0.2,-0.2 3.3,-4 3.3,-4.1 1.3,-2 1.3,-2 h 0.5 l 5.2,3.2 5.2,3.3 h 0.2 v 0.2 l -0.3,7.2 -0.5,7.2 h -0.7 z" />
  <path fill="#cfcfcf" d="m 213,149.5 -11,-5 v -3.2 l 3.6,-0.7 3.5,-0.7 5.1,-5.1 5.2,-5.1 8.3,3 8.3,3 0.3,0.3 0.2,0.3 -6.1,9 -6.2,8.8 -0.2,0.2 -0.2,0.2 z" />
  <path fill="#cfcfcf" d="m 12.4,141.1 -9.5,-8.3 v -0.6 l 4.1,-2 4.2,-2.1 9.2,0.6 9.2,0.6 0.4,0.1 h 0.4 l 4.3,5.8 4.4,5.8 -8.3,4.2 -8.2,4.3 h -0.8 z" />
  <path fill="#cfcfcf" d="m 131,142.8 -5,-5.5 3.8,-5.2 3.8,-5.3 h 9.8 v 1.4 l -0.5,3.9 -0.5,3.8 -0.2,5.5 -0.2,5.4 -2.8,0.7 -2.7,0.7 h -0.7 z" />
  <path fill="#cfcfcf" d="M 0,140.6 V 134 l 1.8,1.5 1.7,1.6 v 0.4 L 1.8,142.2 0,147 Z" />
  <path fill="#cfcfcf" d="m 145.3,142 v -3.8 l 0.4,-3.7 0.3,-3.6 0.4,-0.2 0.4,-0.1 9.7,4 9.7,4 0.1,0.2 h 0.1 l -2.3,0.9 -2.3,0.8 -8,2.7 -8.1,2.8 h -0.4 z" />
  <path fill="#cfcfcf" d="m 74.9,136.7 -5,-8.7 -0.3,-0.6 -0.3,-0.6 3.7,-3.5 3.6,-3.4 1.5,-1.4 1.5,-1.4 3,3.8 3,3.8 2.6,3.3 2.5,3.3 -2,2.7 -1.8,2.8 -3.3,4.2 -3.3,4.2 H 80 l -0.3,0.1 z" />
  <path fill="#cfcfcf" d="m 41.8,139.2 -4.5,-5.2 -1.6,-1.9 -1.6,-1.8 0.2,-0.2 0.2,-0.1 8.7,-4.8 8.7,-4.8 5,4.3 4.9,4.4 v 0.5 l -7.6,7.3 -7.5,7.3 -0.3,0.1 -0.2,0.1 z" />
  <path fill="#cfcfcf" d="m 273.6,140.1 v -1 l 1.1,-15.2 1.2,-15.2 0.1,-0.4 0.1,-0.3 2.8,-0.6 2.8,-0.5 0.1,0.1 0.1,0.2 0.8,4 0.8,4 0.3,12.6 0.3,12.6 -0.2,0.2 -0.2,0.2 -5,0.1 -5,0.2 z" />
  <path fill="#cfcfcf" d="m 287,139 -0.3,-1.5 -0.1,-9.3 -0.2,-9.3 -0.2,-1.2 -0.2,-1.2 h 0.6 l 3,5.2 3,5.2 2.2,5.8 2.1,5.7 v 0.1 l -4.7,1 -4.7,1 h -0.4 l -0.2,-1.5 z" />
  <path fill="#cfcfcf" d="m 99.2,134.8 -4,-4 -7,-7.6 -6.9,-7.6 2.6,-2.5 2.7,-2.6 1,-0.8 1,-0.9 0.4,0.3 0.4,0.2 9.8,7.8 9.8,7.9 0.2,0.2 0.3,0.2 -3.1,6.7 -3,6.7 h -0.2 v 0.1 z" />
  <path fill="#cfcfcf" d="m 181.5,136.7 -5.9,-1.9 -0.1,-0.1 -0.2,-0.2 1.2,-3 1.2,-3.1 1,-0.2 1,-0.2 7,-0.6 7,-0.6 7.4,-0.5 7.4,-0.5 4,-0.2 4.1,-0.2 v 0.5 l -5.1,5.8 -5.2,5.8 v 0.1 l -8.4,0.5 -8.3,0.5 h -2.2 z" />
  <path fill="#cfcfcf" d="m 300.3,137.6 -0.5,-1 -1.9,-4.3 -1.9,-4.3 v -0.3 l 11.4,-5.7 11.5,-5.7 0.2,0.1 -1.1,7.6 -1.1,7.7 -0.3,0.2 -0.3,0.3 -7.7,3.2 -7.8,3.1 z" />
  <path fill="#cfcfcf" d="m 167.8,136.3 -2.8,-1.2 -9.3,-4 -9.3,-4.1 -0.1,-0.1 -0.1,-0.1 3.4,-8.6 3.5,-8.5 0.2,-0.3 0.2,-0.2 2.9,3.6 2.9,3.6 4.3,4.2 4.2,4.2 2.3,1.9 2.2,1.8 1,0.7 0.8,0.7 v 0.6 l -1.5,3.3 -1.4,3.4 -0.3,0.2 -0.2,0.2 z" />
  <path fill="#cfcfcf" d="m 120.3,132.7 -4,-2.1 -5,-6.2 -5,-6.2 v -0.5 l 5.3,-3 5.3,-3.1 1.8,-1 1.9,-1.1 5.2,8 5.2,8.1 v 0.2 l -3.1,4.5 -3.2,4.5 h -0.4 z" />
  <path fill="#cfcfcf" d="m 241.1,133 -5.4,-1.8 -0.1,-0.1 -0.1,-0.1 2.3,-6 2.3,-6 0.2,-0.3 0.2,-0.2 8.3,-1.2 8.2,-1.1 h 0.2 v 0.2 l -5,9.2 -5.2,9.2 h -0.4 L 241,133 Z" />
  <path fill="#cfcfcf" d="m 252.9,132.8 -0.6,-2 5,-9.3 4.9,-9.3 5,-0.5 4.9,-0.5 v 0.2 l 0.2,0.1 v 23.3 h -18.8 z" />
  <path fill="#cfcfcf" d="m 228.2,128.7 -5.6,-1.8 v -16.3 l 4,-2.5 4,-2.4 h 0.5 l 3.1,6.5 3.2,6.5 -1.7,5.8 -1.7,5.8 -0.1,0.1 -0.1,0.1 z" />
  <path fill="#cfcfcf" d="M 0.8,128.7 0,128 v -3.5 l 3,-7.5 3,-7.5 6.2,-1.9 6.2,-1.8 h 1 l 2.2,3.7 2.1,3.7 -1.5,4.1 -1.5,4.1 -0.3,0.5 -0.4,0.4 -4,1.2 -4,1.2 -1.9,1 -1.9,1 -3.2,1.3 -3.3,1.6 z" />
  <path fill="#cfcfcf" d="m 317.1,249.8 -2.7,-3.5 -0.2,-0.3 -0.3,-0.4 3,-2.6 3.1,-2.7 v 12.9 h -0.2 z" />
  <path fill="#cfcfcf" d="m 241,250.7 -3,-2.2 -4.8,-3.3 -4.7,-3.2 2.8,-5.6 2.8,-5.6 h 0.5 l 7.6,4.3 7.6,4.4 0.1,0.1 -2.7,6.5 -2.7,6.6 h -0.2 l -0.3,0.1 z" />
  <path fill="#cfcfcf" d="m 34.8,246 -4,-3.3 -6.6,-0.4 -6.4,-0.3 -1.3,-0.2 -1.2,-0.2 0.2,-7.4 0.2,-7.4 0.2,-0.1 v -0.2 l 9.5,3 9.3,3 0.7,0.3 0.6,0.5 4.8,4.4 4.8,4.4 v 0.2 l 0.2,0.2 -3.5,3.4 -3.4,3.4 z" />
  <path fill="#cfcfcf" d="m 136,248.2 -2,-0.8 -0.2,-0.2 -0.1,-0.1 5.2,-5.4 5.3,-5.3 4.4,-5 4.5,-4.8 h 0.3 l 3.6,2.9 3.5,2.9 2.5,5.2 2.4,5.1 v 0.1 h -0.1 l -13.4,3.1 -13.3,3.1 h -0.5 l -2,-0.8 z" />
  <path fill="#cfcfcf" d="m 185,246.3 -2.7,-2.7 1.3,-0.8 1.4,-0.8 1.3,-0.9 1.3,-0.8 0.2,0.4 0.3,0.4 0.5,2.3 0.6,2.3 -0.7,1.7 -0.8,1.6 z" />
  <path fill="#cfcfcf" d="m 261.8,246.5 v -0.2 l 1,-3.8 1,-3.7 h 1.7 l 1.5,0.2 1.5,0.2 4.1,3.5 4.2,3.5 v 0.6 h -15 z" />
  <path fill="#cfcfcf" d="m 124,244.5 -5,-1.5 -0.2,-0.2 -0.2,-0.2 1.2,-2.8 1,-2.8 1.6,-3.5 1.5,-3.6 3,0.9 2.9,0.8 5.5,1.7 5.5,1.8 v 0.4 l -5.5,5.3 -5.5,5.3 h -1 l -4.9,-1.6 z" />
  <path fill="#cfcfcf" d="m 303.7,244.2 v -0.5 l 2.3,-17.2 2.2,-17.3 0.3,-0.2 0.2,-0.1 3,-2 2.9,-2 v 2.7 l -1,17.8 -0.9,17.9 -0.2,0.2 -4.4,0.6 -4.4,0.6 z" />
  <path fill="#cfcfcf" d="m 49,241.4 -2.6,-2.5 v -1.6 l 0.8,-5.4 0.8,-5.4 1.5,-1.7 1.5,-1.7 h 0.4 l 1.4,3.6 1.4,3.6 0.5,1.4 0.5,1.3 3.4,4.3 3.4,4.2 v 0.1 l -0.2,0.1 -4.9,1.1 -4.8,1 h -0.4 z" />
  <path fill="#cfcfcf" d="m 187.8,230.7 -3.5,-13.1 0.1,-0.2 0.2,-0.1 10.2,2.8 10.2,2.7 0.2,0.2 0.2,0.3 -0.3,9.7 -0.2,9.7 h -0.2 v 0.2 l -5,0.3 -5,0.4 -1.7,0.1 -1.8,0.2 z" />
  <path fill="#cfcfcf" d="m 289,241.1 -9.7,-2.3 -0.2,-0.2 -0.1,-0.1 1,-8.9 1,-8.8 0.2,-0.3 0.2,-0.2 6.4,-1.3 6.4,-1.4 5.1,-1 5.1,-1.2 0.2,0.2 h 0.2 l -2,12.7 -2,12.6 -0.1,1.3 -0.3,1.4 h -0.8 l -0.9,-0.1 z" />
  <path fill="#cfcfcf" d="m 167.7,241.6 -0.6,-1.4 -3,-6.7 -2.9,-6.7 v -0.6 l 5.5,-0.9 5.6,-0.8 0.6,-0.2 h 0.5 l 3.4,-3 3.4,-3 0.3,0.7 0.3,0.7 3.3,8 3.3,8 -0.3,0.5 -0.4,0.5 -2.4,2.6 -2.4,2.6 -5.7,0.5 -5.7,0.5 h -2.2 z" />
  <path fill="#cfcfcf" d="m 206.4,242.3 v -0.5 l 0.9,-4.8 0.8,-4.8 -0.7,-4.2 -0.7,-4.3 v -0.1 l 0.2,-0.2 8.6,2.4 8.7,2.3 2.8,0.8 2.8,0.7 0.2,0.4 0.1,0.4 -2.3,5.5 -2.4,5.6 -3,0.2 -3,0.3 -6.5,0.4 -6.5,0.4 z" />
  <path fill="#cfcfcf" d="m 63.1,240 -1,-1.7 -1.8,-3.3 -1.8,-3.4 0.6,-0.4 0.6,-0.5 3.7,-2 3.6,-2 4,-1.9 3.9,-1.8 0.1,0.1 0.1,0.2 1.5,5.7 1.5,5.8 v 0.8 h -7 l -1.5,1.2 -1.6,1.2 -0.4,0.6 -0.5,0.5 -1.5,1.3 -1.5,1.3 z" />
  <path fill="#cfcfcf" d="m 0,227.6 v -11.3 l 6.3,4.3 6.3,4.3 0.1,6.7 0.1,6.8 -4.4,0.2 -4.3,0.2 H 0 Z" />
  <path fill="#cfcfcf" d="m 271.9,237.6 -3.2,-1 v -0.2 h -0.2 l 2,-8.8 1.8,-8.8 h 0.1 l 0.1,-0.2 2.9,1 2.8,0.9 v 1.2 l -1,8.5 -1.1,8.6 H 275 Z" />
  <path fill="#cfcfcf" d="m 316.8,238.5 -0.7,-0.1 0.2,-9.7 0.2,-9.6 0.2,-2 0.2,-2 1.5,0.6 1.4,0.6 0.1,11.2 0.1,11.3 h -1.2 l -1.2,-0.1 z" />
  <path fill="#cfcfcf" d="m 37.4,228.5 -5.6,-7.4 v -0.4 l -0.1,-0.4 1.6,-3 1.6,-3.1 0.4,-0.3 0.4,-0.3 3.6,-0.6 3.6,-0.7 0.4,0.5 0.3,0.4 2.2,3.9 2.2,3.9 v 0.7 l -2.3,6.8 -2.3,7 -0.2,0.1 -0.2,0.3 z" />
  <path fill="#cfcfcf" d="m 255,234.5 -7.6,-0.7 -0.2,-0.2 -0.1,-0.1 -0.8,-3.1 -0.8,-3.1 3.7,-10 3.8,-9.9 0.4,0.2 0.5,0.2 8,5 7.9,4.9 v 0.9 l -1.6,7.1 -1.7,7.2 -0.3,1.2 -0.3,1.2 h -1.7 l -1.6,-0.1 z" />
  <path fill="#cfcfcf" d="m 91,231.4 -2,-3.3 2.6,-3.4 2.5,-3.5 0.3,-0.2 0.3,-0.2 2.6,2.3 2.5,2.3 v 0.6 l -3.2,4.3 -3.2,4.3 H 93 Z" />
  <path fill="#cfcfcf" d="m 134,230.6 -8.4,-2.6 -0.4,-0.1 -0.5,-0.2 1.3,-3 1.3,-3 1,-2.5 1,-2.5 0.3,-0.1 0.2,-0.2 7,0.3 7,0.3 2.3,0.2 2.3,0.2 1.3,3.7 1.3,3.7 -4,4.3 -4,4.2 h -0.4 z" />
  <path fill="#cfcfcf" d="m 232.6,226.8 -8.8,-2.6 0.2,-1.1 V 222 l 1,-6.9 0.9,-6.8 0.1,-0.1 0.2,-0.2 5.8,0.4 6,0.3 5.8,0.2 5.8,0.2 0.1,0.2 0.1,0.2 -3.9,9.9 -3.9,9.9 h -0.3 l -0.3,0.2 z" />
  <path fill="#cfcfcf" d="m 52.8,220.7 -4.5,-8.5 v -0.4 l -0.1,-0.3 9,-2.5 9.2,-2.5 h 0.5 l 3.4,6.9 3.3,7 -0.1,0.3 -0.1,0.3 -7.9,4.1 -7.8,4 h -0.4 z" />
  <path fill="#cfcfcf" d="m 111.8,226.6 -8.3,-2.5 h -0.4 l -2.6,-3.4 -2.6,-3.4 V 217 l -0.1,-0.2 5.2,-5.8 5.2,-5.8 h 0.4 l 8,2.6 8,2.5 2.5,0.8 2.5,0.8 v 0.6 l -4.4,8.3 -4.3,8.4 h -0.7 z" />
  <path fill="#cfcfcf" d="m 24.8,226.2 -6.4,-1.7 -3.3,-2.5 -3.2,-2.5 -0.2,-0.2 -0.1,-0.2 4.7,-4.8 4.7,-4.7 1.8,2.3 1.7,2.4 3.3,4.5 3.3,4.4 0.3,1.2 0.3,1 v 2.5 h -0.5 z" />
  <path fill="#cfcfcf" d="m 78.7,225.8 -0.6,-1.5 -3.7,-9.3 -3.8,-9.2 0.2,-0.1 4.8,-2 4.8,-2 H 81 l 8.7,4.8 8.7,4.8 0.1,0.1 0.1,0.1 -5.8,7.6 -6,7.5 -0.9,0.1 -1,0.2 -2.7,0.2 -2.8,0.2 z" />
  <path fill="#cfcfcf" d="m 154,222.5 -1.7,-3 2,-7.8 2,-7.8 8.5,1.9 8.5,1.9 0.5,0.7 0.4,0.7 2.2,4.1 2.2,4.1 -0.7,0.3 -0.8,0.3 -10.6,3.9 -10.5,3.9 h -0.4 z" />
  <path fill="#cfcfcf" d="m 214.2,223.1 -7,-2.1 v -8 l -0.2,-8.1 h 0.3 l 8.3,-2.6 8.2,-2.6 h 0.9 l -0.2,1.2 -0.1,1.2 -1.4,11 -1.3,11.1 -0.2,0.5 -0.2,0.6 z" />
  <path fill="#cfcfcf" d="m 198.2,217.8 -5,-1 -5.6,-1 -5.6,-1.1 -0.3,-0.5 -0.3,-0.5 -1.4,-3 -1.4,-3.1 0.2,-0.2 v -0.2 l 6.4,-4.7 6.4,-4.7 h 0.4 l 5.4,3.1 5.3,3.1 1,0.5 0.8,0.5 v 14 l -0.6,-0.1 h -0.5 l -5.2,-1 z" />
  <path fill="#cfcfcf" d="M 4.7,216.1 0,214.4 v -10.7 l 3.6,-2.1 3.7,-2.2 5.4,2.2 5.5,2.1 1.1,2 1.2,1.9 -5.4,5.2 -5.3,5.1 H 9.4 Z" />
  <path fill="#cfcfcf" d="m 144.8,214.6 -5,-2 2,-1 2,-1 4.3,-1.8 4.3,-1.7 0.2,0.1 0.1,0.2 -1.3,4.6 -1.4,4.5 v 0.1 z" />
  <path fill="#cfcfcf" d="m 273.8,214.4 -4.4,-2.2 v -0.4 l 5,-6.7 5,-6.6 h 0.9 l 11,1.6 10.9,1.5 v 0.1 l 0.1,0.1 1.3,4.5 1.3,4.5 -0.2,0.2 -0.2,0.2 -12.5,2.6 -12.6,2.6 -0.6,0.1 -0.6,0.2 z" />
  <path fill="#cfcfcf" d="m 319.6,214.2 -0.2,-0.2 -0.8,-3.6 -0.9,-3.6 0.5,-0.8 0.5,-0.7 0.6,-0.8 0.7,-0.8 v 10.8 h -0.3 z" />
  <path fill="#cfcfcf" d="m 24,208.7 -4.6,-5.5 v -0.8 l 6,-4.2 6,-4.2 h 0.4 l 5.8,7 5.7,7 v 0.5 l -6.7,2.7 -6.7,2.6 -0.6,0.2 -0.7,0.1 z" />
  <path fill="#cfcfcf" d="m 133.4,209.8 -3,-1.1 -0.4,-0.2 -0.5,-0.1 3.6,-3.8 3.6,-3.7 3.9,-4.6 3.9,-4.6 h 1.1 l 5.5,0.9 5.5,0.8 h 0.1 l 0.1,0.2 -1.8,5 -1.9,5 -1,0.4 -0.9,0.3 -3.6,1.4 -3.7,1.4 -3.7,1.9 -3.8,1.8 z" />
  <path fill="#cfcfcf" d="m 260.6,207.9 -5.4,-2.7 v -0.7 l 2.4,-4.6 2.4,-4.6 0.6,0.2 0.6,0.1 3,0.6 2.8,0.6 4.6,0.6 4.6,0.5 -0.1,0.3 -0.1,0.3 -4.8,6 -4.8,6 h -0.3 z" />
  <path fill="#cfcfcf" d="m 95.4,206.3 -5.2,-2.6 -0.3,-0.4 -0.4,-0.3 0.4,-0.6 0.3,-0.6 7.6,1.2 7.6,1.2 0.2,0.2 0.1,0.2 -2.2,2.2 -2.2,2.2 h -0.7 z" />
  <path fill="#cfcfcf" d="m 45.7,207.8 -0.2,-0.5 -0.4,-1.7 -0.3,-1.7 5.4,-6.4 5.5,-6.4 h 0.4 l 5.5,2.9 5.6,3 0.3,0.4 0.3,0.6 0.2,2.1 0.2,2.2 h -0.4 l -10.5,2.9 -10.3,2.8 -0.5,0.1 -0.6,0.2 z" />
  <path fill="#cfcfcf" d="m 121.4,205.4 -2.7,-1 v -0.6 l 3,-6.8 2.9,-6.7 0.4,-0.8 0.4,-0.8 7.7,1.1 7.6,1.2 0.4,0.1 0.4,0.2 -1.7,1.4 -1.7,1.4 -2.7,2.4 -2.8,2.4 -4,3.8 -4,3.8 H 124 Z" />
  <path fill="#cfcfcf" d="m 231,204.2 -0.8,-1.7 -2.2,-5.2 -2.2,-5.2 1.4,-1.7 1.3,-1.7 2.2,-2.3 2.1,-2.4 5.8,4.9 5.7,4.8 3.6,2.5 3.5,2.4 -1.3,2.7 -1.3,2.6 -0.6,0.2 h -0.7 l -7,0.8 -7,0.6 -1,0.2 -0.8,0.2 z" />
  <path fill="#cfcfcf" d="m 306.3,198 v -8 l 5,-3 5,-3 1.7,1 1.8,1 0.1,6.8 0.1,6.8 -6.5,3 -6.5,3 -0.4,0.1 -0.4,0.2 v -8 z" />
  <path fill="#cfcfcf" d="m 43.2,262.7 -7.5,-2 -0.4,-0.3 -0.3,-0.2 -0.4,-3.7 -0.4,-3.7 0.2,-0.2 10.2,-3.4 10.1,-3.5 0.3,0.2 0.2,0.2 -1.6,7.2 -1.5,7 -0.5,2.2 -0.5,2.2 h -0.4 z" />
  <path fill="#cfcfcf" d="m 253.2,256.6 -4.3,-7.7 2,-5.4 2,-5.3 0.2,-0.4 0.3,-0.4 3.7,0.4 3.7,0.5 v 0.5 l -1.8,6.1 -1.7,6.2 0.2,5.7 0.1,5.8 0.2,0.9 0.1,0.9 h -0.5 z" />
  <path fill="#cfcfcf" d="m 207.6,263 -4.4,-1 -3.8,-6.8 -3.9,-6.8 v -0.6 l 4.1,-0.5 4,-0.6 6.8,-1 6.7,-1 0.8,0.8 0.7,0.8 0.8,1.1 0.7,1.1 0.3,5 0.2,5 -3.6,2.8 -3.5,2.8 h -0.8 L 212,264 Z" />
  <path fill="#cfcfcf" d="m 149,255.8 -7.6,-4.4 V 251 l 7.6,-1.8 7.6,-1.8 3.7,-1 3.7,-0.9 0.1,0.1 0.1,0.2 -2.3,4.6 -2.3,4.5 -1.4,2.7 -1.4,2.6 h -0.1 z" />
  <path fill="#cfcfcf" d="m 107,256.8 -2.6,-1.2 -4.6,-9.5 -4.7,-9.5 3.2,-4.8 3.3,-4.7 V 227 l 8.8,2.5 8.8,2.5 v 0.9 l -4.6,12.3 -4.6,12.3 -0.2,0.2 -0.2,0.2 z" />
  <path fill="#cfcfcf" d="m 224.9,256.5 -1.6,-0.4 -0.1,-0.1 -0.1,-0.1 v -9.4 h 3.7 l 0.2,1.6 0.2,1.7 0.2,3.6 0.2,3.6 h -1.2 z" />
  <path fill="#cfcfcf" d="m 86,256.5 -3,-12.2 -2.9,-12.3 0.4,-0.1 0.3,-0.2 3.7,-0.4 3.7,-0.4 0.2,0.2 0.2,0.2 6.3,11.9 6.3,12 h -0.1 l -0.1,0.1 -6.4,0.6 -6.4,0.5 h -1 l -1.1,0.2 z" />
  <path fill="#cfcfcf" d="m 286,249.5 -6.8,-6.5 h 0.5 l 10,2.2 10,2.2 h 0.1 v 8.7 h -7.2 l -6.7,-6.6 z" />
  <path fill="#cfcfcf" d="M 0.6,254 0,253.2 v -12.8 h 0.8 l 3.7,1 3.7,1 1,0.4 0.9,0.4 1.1,0.5 1.2,0.6 0.6,0.4 0.6,0.5 h -0.2 l -0.1,0.2 -4,3 -4,3 -2,1.7 -2,1.7 H 1.2 Z" />
  <path fill="#cfcfcf" d="m 78.5,251.6 -3,-1.6 -3.2,1 -3.3,1 h -0.4 l -0.4,0.2 -1.3,-2 -1.3,-2 v -0.6 l 3.4,-5.2 3.4,-5.3 3.3,0.2 3.2,0.2 0.4,0.4 0.3,0.4 1,7.3 1,7.3 v 0.1 l -0.2,0.1 z" />
  <path fill="#cfcfcf" d="m 101.3,288.1 -3.4,-5.4 v -0.8 l 2.2,-2.7 2.1,-2.8 0.4,-0.4 0.4,-0.5 3.7,4.4 3.7,4.3 v 0.4 l -2.6,4.4 -2.6,4.5 h -0.4 z" />
  <path fill="#cfcfcf" d="m 145.8,288.6 -2.5,-4 -3.4,-5.1 -3.4,-5.2 2,-2 1.8,-1.8 h 0.9 l 1.6,0.8 1.7,0.8 3.3,2 3.3,1.8 3.6,1.7 3.5,1.6 4.5,1.8 4.5,1.9 v 0.7 l -3,3.3 -3,3.3 -6.2,1.2 -6.4,1.1 h -0.3 z" />
  <path fill="#cfcfcf" d="m 25.2,291.4 -0.2,-0.6 -0.2,-1.3 -0.2,-1.3 -1,-1.8 -0.8,-1.7 -1.8,-5.2 -1.8,-5.3 0.1,-0.4 0.2,-0.4 7,-6 7.1,-6 0.5,0.3 0.4,0.3 2.3,1.7 2.2,1.8 v 0.5 l -3.3,10.1 -3.3,10.2 -0.2,1.3 -0.2,1.3 -3,1.4 -3,1.3 -0.3,0.2 -0.4,0.1 z" />
  <path fill="#cfcfcf" d="m 318.3,285 0.4,-6.4 V 277 l 0.7,-0.1 0.6,-0.2 v 13.6 l -1,0.7 -0.8,0.7 H 318 l 0.3,-6.5 z" />
  <path fill="#cfcfcf" d="m 251.7,289.3 -1.5,-1.6 0.2,-0.4 0.1,-0.4 4.7,-6.8 4.7,-6.8 h 0.5 l 4.8,5 4.7,5 0.1,0.2 0.1,0.3 -1.2,0.5 -1.2,0.5 -7.1,3 -7.1,3.1 h -0.2 z" />
  <path fill="#cfcfcf" d="m 0,283.5 v -6.9 l 5.2,-1.3 5.2,-1.3 3,-0.8 3,-0.8 0.3,0.2 0.2,0.3 1.2,7 1.1,7 -0.2,0.1 -3.6,-0.6 -3.7,-0.5 H 4.2 l -2,2.2 -2.2,2.2 z" />
  <path fill="#cfcfcf" d="m 300,285.6 0.1,-1.5 0.4,-5.3 0.4,-5.2 6.6,-3.6 6.6,-3.6 0.7,-0.4 0.7,-0.3 1,4.3 1,4.3 -0.6,4.4 -0.8,4.4 -0.3,2 -0.3,2 h -15.7 z" />
  <path fill="#cfcfcf" d="m 209.8,284.3 -5.8,-2.5 -0.2,-4.8 -0.2,-4.8 -0.2,-3 -0.2,-3 7,0.2 h 6.8 l 2,5.2 1.8,5 v 0.7 l -2.2,4.7 -2.3,4.7 h -0.4 l -0.4,0.2 -5.7,-2.5 z" />
  <path fill="#cfcfcf" d="m 244.1,281 -4,-4.3 -0.4,-0.7 -0.4,-0.6 4,-9.6 4.2,-9.6 0.2,-0.2 0.2,-0.3 0.7,1 0.6,1.1 3.4,5.5 3.5,5.4 0.8,0.8 0.8,0.9 -0.3,0.4 -0.2,0.5 -4.2,6.7 -4.1,6.7 -0.4,0.4 -0.3,0.4 z" />
  <path fill="#cfcfcf" d="m 74.7,280.2 -4.8,-3.7 -2.1,-1.6 -2.2,-1.7 V 273 l 0.2,-0.2 2.3,-2.5 2.3,-2.5 2.2,0.9 2.3,0.8 2.7,-0.6 2.8,-0.7 0.4,0.1 0.4,0.2 3.7,5.6 3.7,5.7 v 0.5 l -4.3,1.8 -4.4,1.8 h -0.4 z" />
  <path fill="#cfcfcf" d="m 267.9,277.6 -5.2,-5.6 0.1,-0.1 v -0.1 l 5.4,0.4 5.2,0.5 h 1.1 l 2.7,3.5 2.8,3.5 v 0.5 l -3.3,1.6 -3.3,1.5 h -0.3 z" />
  <path fill="#cfcfcf" d="m 108.4,278.6 -4,-4.3 0.7,-1.6 0.8,-1.6 h 0.4 l 8,4.2 8,4.3 v 0.3 l -4.8,1.5 -4.7,1.5 h -0.3 z" />
  <path fill="#cfcfcf" d="m 46.4,280 -6.2,-1.8 -0.9,-0.2 -0.8,-0.2 v -0.5 l 0.2,-0.6 v -6.5 l 2.7,-2.3 2.7,-2.2 h 10 l 4,2.7 4,2.7 -1,1.2 -1,1.3 -3.6,4 -3.5,4 h -0.4 z" />
  <path fill="#cfcfcf" d="m 177,274.6 -7,-5.3 -0.4,-0.3 -0.3,-0.3 4.2,-3.9 4.2,-3.8 2.6,-2.2 2.6,-2.1 2.6,-1.8 2.7,-1.8 v 0.1 l 0.2,0.1 -1,7.2 -1.1,7.2 -0.9,6 -0.8,5.9 -0.2,0.2 -0.2,0.2 z" />
  <path fill="#cfcfcf" d="m 194.3,277.7 -6.5,-2.2 0.1,-1.3 0.2,-1.3 1.8,-12.7 1.9,-12.6 0.1,-0.2 0.2,-0.1 0.3,0.6 0.4,0.6 1.9,3.6 1.9,3.5 1.8,3.5 2,3.4 0.4,7.6 0.5,7.6 v 2.4 h -0.5 z" />
  <path fill="#cfcfcf" d="m 280.1,275.6 -3.1,-4.6 3.7,-8 3.8,-8.2 0.4,0.1 h 0.3 l 7,3 7.2,3 -0.2,1.3 -0.2,1.3 -0.4,4.6 -0.3,4.7 -7.2,3.6 -7.2,3.6 h -0.4 l -3.3,-4.5 z" />
  <path fill="#cfcfcf" d="m 165.8,278.3 -3.4,-1.3 -4.6,-2.1 -4.7,-2 -4.6,-2.7 -4.6,-2.6 -0.3,-0.2 -0.4,-0.1 1.6,-1.5 1.7,-1.6 2.2,-2 2.2,-2 10.6,6.8 10.5,6.7 0.2,0.2 -1.3,3 -1.4,2.8 h -0.4 z" />
  <path fill="#cfcfcf" d="m 231.4,278.2 v -0.6 l -0.8,-12.5 -0.8,-12.4 -0.2,-2 -0.2,-1.9 1.9,-0.9 1.8,-0.9 5,5.3 5,5.2 0.1,0.4 v 0.4 l -4.4,9.6 -4.4,9.7 -1.4,0.6 -1.4,0.6 h -0.2 z" />
  <path fill="#cfcfcf" d="m 120.2,275.6 -4.2,-2.5 v -0.9 l 3,-3.9 2.7,-3.8 2.9,-4.4 2.8,-4.5 1.5,-1.8 1.4,-1.7 h 0.5 l 7.9,3.6 7.9,3.7 -0.1,0.2 v 0.3 l -4.8,3.9 -4.6,4 -6.2,5.1 -6,5.2 h -0.6 z" />
  <path fill="#cfcfcf" d="m 93.2,276.7 -3.6,-0.3 -0.3,-0.4 -0.3,-0.3 -3.5,-6.4 -3.6,-6.4 v -0.6 l 5,-1.8 5.1,-1.8 8.2,0.7 8.1,0.6 h 0.1 l 0.1,0.1 -3.6,6 -3.7,6.1 -1.4,2.4 -1.5,2.4 h -0.7 l -0.8,0.1 z" />
  <path fill="#cfcfcf" d="m 222.8,274.8 -0.1,-0.5 -2,-5.4 -1.8,-5.3 0.1,-0.1 3.7,-2 3.6,-2 v 0.1 l 0.2,0.1 1,5.3 1,5.4 v 1.2 l -2.5,1.8 -2.5,1.9 H 223 Z" />
  <path fill="#cfcfcf" d="M 1.6,273.4 1.3,272.8 0.7,271.1 0,269.3 v -9 l 2,-1.6 2,-1.6 3.4,-3.1 3.3,-3.1 3.5,-2 3.4,-2.2 5.2,-0.6 5.2,-0.6 0.2,0.3 0.2,0.2 2.1,4.6 2.2,4.5 -5.7,7 -5.7,7 -5.5,1 -5.4,1 -3.6,1.5 -3.5,1.4 H 2 Z" />
  <path fill="#cfcfcf" d="m 109.5,269.7 -2.3,-1.4 -0.2,-0.2 -0.2,-0.2 4.4,-9.2 4.4,-9.2 1,-1.8 0.8,-1.9 3.5,1.7 3.4,1.6 1.4,0.6 1.4,0.6 -1.3,1.5 -1.2,1.5 -3,4.7 -3,4.6 -3,4.3 -3.1,4.2 h -0.7 z" />
  <path fill="#cfcfcf" d="m 267,268.2 -6,-1 -0.2,-0.2 -0.5,-7 -0.5,-7 0.3,-1.3 0.4,-1.3 10,-0.5 9.9,-0.6 1.4,1.1 1.4,1.2 v 0.7 l -4.4,8.4 -4.4,8.5 h -1.3 l -6,-1 z" />
  <path fill="#cfcfcf" d="m 302.6,261 0.1,-8 0.2,-3 0.2,-3 0.2,0.1 h 0.2 l 6.4,2.5 6.4,2.5 0.8,2.7 0.7,2.7 -0.1,0.5 v 0.6 l -7.4,5.1 -7.3,5.2 h -0.5 z" />
  <path fill="#cfcfcf" d="m 318.8,266 -1,-3 1,-1.3 1,-1.3 0.1,2.1 0.1,2.2 v 2.2 l -0.2,2.1 z" />
  <path fill="#cfcfcf" d="m 59.6,266.5 -2,-2 -1,-4 -1,-3.9 0.1,-3.9 V 249 l 2.4,-2 2.4,-2 5,9.9 5,9.9 v 0.6 l -4,1.6 -3.9,1.6 h -0.9 z" />
  <path fill="#cfcfcf" d="m 163.1,264.3 -4,-3 3.9,-7.9 3.8,-8 h 13.8 l 3,2.9 3,2.7 v 0.5 l -1.9,1.2 -1.8,1.2 -2.6,2 -2.5,2 -5.1,4.7 -5.2,4.7 h -0.4 z" />
  <path fill="#cfcfcf" d="m 71.2,261 -1.8,-5.6 0.3,-0.3 0.2,-0.2 3.6,-1 3.6,-1.1 2.8,1.8 2.7,2 0.3,0.2 0.3,0.4 -2.6,4.7 -2.6,4.7 h -4.9 z" />
  <path fill="#cfcfcf" d="m 108.5,306.6 -3.7,-2.9 -0.3,-0.3 -0.2,-0.2 3.9,-8 3.8,-8 1.7,-0.9 1.6,-0.9 0.4,0.5 0.3,0.5 1.4,2.5 1.3,2.5 2.1,2.8 2.1,2.9 -0.4,0.5 -0.4,0.5 -4.5,5.2 -4.4,5 -0.5,0.6 -0.5,0.6 z" />
  <path fill="#cfcfcf" d="M 11.4,305.4 11,303 l -0.9,-2.7 -0.8,-2.7 1,-1 1,-1 5.3,-4.2 5.4,-4.2 0.1,0.2 1.4,6.4 1.3,6.4 0.1,0.5 0.2,0.5 -6.3,3.4 -6.2,3.4 H 12 Z" />
  <path fill="#cfcfcf" d="m 135.6,304.3 -3,-2.3 -3.5,-3.5 -3.5,-3.6 -1.9,-2.4 -1.8,-2.4 -1.4,-2.6 -1.5,-2.5 v -0.4 l 6.4,-3.4 6.3,-3.3 1,-0.5 1,-0.5 7,9.5 6.8,9.6 v 0.5 l -3.5,4.7 -3.6,4.8 -0.6,0.3 -0.5,0.3 h -0.7 z" />
  <path fill="#cfcfcf" d="m 43,303.4 -4.4,-2.8 -0.3,-0.2 H 38 l 1.4,-9.3 1.4,-9.3 0.1,-0.2 0.2,-0.2 4.5,1.2 4.5,1.1 0.3,0.3 0.4,0.2 0.4,1.8 0.4,1.9 3,6 3,6 v 0.4 l -0.2,0.4 -3.7,2 -3.6,2.1 -1.3,0.7 -1.3,0.7 z" />
  <path fill="#cfcfcf" d="m 145,305.5 v -0.2 l 2.8,-5 2.7,-4.8 2.9,-0.6 2.8,-0.7 v 0.2 l 0.2,0.1 -1.6,4.8 -1.6,4.7 -0.5,0.2 -0.5,0.1 -3,0.5 -2.8,0.5 -0.7,0.2 -0.7,0.2 z" />
  <path fill="#cfcfcf" d="m 87,302.3 -8.8,-0.4 1.7,-8 1.8,-8 0.3,-0.1 0.4,-0.2 4.9,-1.9 5,-1.8 0.2,0.1 0.2,0.1 2.3,2.9 2.2,2.7 3.5,4.3 3.5,4.3 0.3,0.4 0.3,0.4 -2.1,2.9 -2.2,2.9 h -2.3 l -2.3,-0.1 z" />
  <path fill="#cfcfcf" d="m 58,293.2 -4,-7.7 4.6,-5.3 4.6,-5.3 0.5,0.5 0.5,0.4 6.8,5.4 7,5.4 0.1,0.1 -0.7,6.2 -0.7,6.2 -0.2,0.2 -0.2,0.2 -7,0.5 -7,0.6 -0.3,0.1 -0.2,0.2 z" />
  <path fill="#cfcfcf" d="m 230.7,298.2 -2.7,-1 -5.2,-3.2 -5.1,-3 1.6,-3.7 1.6,-3.6 1,-2.3 1,-2.3 h 4.7 l 3.2,2.4 3.1,2.5 v 15.3 h -0.2 l -0.3,-0.1 z" />
  <path fill="#cfcfcf" d="m 279.3,293 -9.3,-5 0.9,-0.4 0.8,-0.4 7,-2.7 7.1,-2.8 5.4,-2 5.4,-2.2 0.1,0.2 h 0.2 l -0.4,6.5 -0.3,6.4 -4,3.9 -3.8,3.9 z" />
  <path fill="#cfcfcf" d="m 189.4,291 -5,-6.9 v -0.2 l -0.1,-0.3 3.1,-2.3 3.2,-2.3 0.3,-0.3 0.3,-0.2 9.5,5 9.4,5 0.2,0.1 0.2,0.3 -7.8,4.5 -7.8,4.6 h -0.5 z" />
  <path fill="#cfcfcf" d="m 310.7,296.8 -1,-0.9 h -0.2 l 0.7,-3.6 0.7,-3.4 1.8,-0.1 1.8,-0.1 0.5,1 0.4,1 0.5,1.3 0.4,1.2 -2,2 -1.8,2 -0.4,0.2 -0.4,0.2 z" />
  <path fill="#cfcfcf" d="m 8.2,292.8 -0.1,-0.7 -0.3,-2.4 -0.2,-2.4 0.6,0.2 0.6,0.2 2.5,0.9 2.5,0.8 v 0.5 l -1.6,1.3 -1.5,1.2 -1,0.6 -1,0.5 H 8.4 Z" />
  <path fill="#cfcfcf" d="m 179.8,319 0.2,-1 6.9,-0.2 6.9,-0.1 h 5.6 l 5.7,0.2 -0.4,1 -0.3,1.2 h -24.8 z" />
  <path fill="#cfcfcf" d="m 227.8,318 0.5,-2 0.3,-0.1 0.2,-0.2 4.8,-1 4.8,-0.8 0.1,0.1 0.1,0.1 0.8,3 0.8,3 h -12.9 z" />
  <path fill="#cfcfcf" d="m 244.2,319.3 -1.7,-0.7 -0.2,-0.5 -0.3,-0.4 -0.9,-3.2 -0.8,-3.2 0.2,-0.2 0.3,-0.2 8.4,-5.7 8.4,-5.7 3,3.2 3,3.1 4.2,4.5 4.2,4.4 -0.6,0.4 -0.5,0.4 -3.3,2.3 -3.4,2.3 h -9.1 l -9.2,-0.1 z" />
  <path fill="#cfcfcf" d="m 272,318.3 1.1,-1.8 h 2 l 7.9,0.6 7.9,0.5 v 0.6 l -0.5,1 -0.5,0.9 h -19.2 l 1.2,-1.8 z" />
  <path fill="#cfcfcf" d="m 294,319.8 v -0.3 l 0.5,-0.5 0.4,-0.5 5.4,-2 5.4,-1.9 h 0.2 v 2.7 l 0.2,2.8 h -12 v -0.3 z" />
  <path fill="#cfcfcf" d="m 307.8,318.4 -0.2,-1.7 0.1,-0.2 0.2,-0.1 5.3,0.9 5.3,0.9 0.8,0.6 0.7,0.7 v 0.6 h -12 z" />
  <path fill="#cfcfcf" d="m 210.2,309.6 -3.8,-9.5 -0.6,-1.7 -0.6,-1.6 3.5,-2.2 3.6,-2.2 2.1,1.1 2,1.2 6,3.1 6,3.2 v 0.7 l -2,8.3 -2.2,8.4 -4,0.2 -4,0.2 -1.2,0.2 -1,0.1 z" />
  <path fill="#cfcfcf" d="m 35.4,318 -0.6,-0.6 0.1,-1.6 0.2,-1.7 3,-0.2 3,-0.2 1.6,-0.6 1.6,-0.7 1.7,2.6 1.7,2.5 -0.4,0.2 -0.3,0.2 -4.4,-0.2 -4.4,-0.2 -0.2,0.5 -0.2,0.5 h -2 z" />
  <path fill="#cfcfcf" d="m 118.1,314.3 -3.6,-3 0.1,-0.2 0.1,-0.3 5.1,-5.8 5,-5.7 3.2,3 3,2.9 2,1.4 2,1.5 v 0.3 l -6.3,4.4 -6.4,4.4 h -0.5 l -3.7,-3 z" />
  <path fill="#cfcfcf" d="m 319.6,316.3 -0.2,-0.2 -1.5,-4.8 -1.5,-4.8 -1.2,-4 -1.3,-4 3,-3 3.1,-3.1 v 24.1 h -0.3 z" />
  <path fill="#cfcfcf" d="m 0,304.3 v -12 L 2,291 3.9,289.6 H 4 l 0.2,-0.1 0.6,1.6 0.6,1.6 2.3,7.3 2.2,7.2 v 1 l -2.6,2 -2.7,2 -2.3,2 -2.3,2 z" />
  <path fill="#cfcfcf" d="m 286.2,314.6 -7.7,-0.5 -0.2,-0.1 -0.2,-0.2 11,-11 11,-11 3.6,0.6 3.7,0.5 0.2,0.2 0.2,0.2 -1.6,9.8 -1.5,9.7 h -0.1 l -0.1,0.1 -4.4,1.2 -4.3,1.2 h -1 l -0.9,-0.1 z" />
  <path fill="#cfcfcf" d="m 311.6,314.2 -3.8,-1.1 -0.2,-0.2 -0.1,-0.2 1.2,-5.8 1.3,-5.8 0.2,-0.1 0.2,-0.2 1,0.6 0.9,0.5 0.4,1.8 0.5,1.8 1.3,4.7 1.3,4.7 v 0.4 h -0.2 l -0.2,-0.1 z" />
  <path fill="#cfcfcf" d="m 200.2,314.6 -5.8,-0.2 H 192 l -2.5,-0.1 v -7.8 l 6.3,-3.9 6.3,-3.8 h 0.2 l 0.1,0.1 3.8,7.9 3.8,7.8 v 0.4 h -4 l -5.7,-0.3 z" />
  <path fill="#cfcfcf" d="m 47.4,313.2 -1,-1.4 v -0.5 l 6,-4.4 5.9,-4.3 2.5,0.2 2.4,0.3 0.8,0.2 0.7,0.1 -2.2,1.6 -2.2,1.5 -5.6,3.8 -5.6,3.9 -0.3,0.2 -0.4,0.2 z" />
  <path fill="#cfcfcf" d="m 160.2,309.6 0.2,-4 -1.8,-2.8 -1.8,-3 v -0.3 l 0.2,-0.3 9.9,-10.7 10,-10.6 h 0.2 l 1.3,2 1.3,2 6,9 6,9 v 0.6 l -0.4,0.1 -0.4,0.2 -15,6.1 -15,6.2 -0.5,0.1 -0.4,0.2 z" />
  <path fill="#cfcfcf" d="m 229.1,312 v -0.4 l 0.9,-4.3 0.8,-4.4 0.2,-0.2 0.2,-0.2 3.3,-0.9 3.2,-0.8 -0.1,-0.9 -0.2,-0.8 -1,-9.4 -1.1,-9.5 0.6,-0.7 0.7,-0.7 h 0.5 l 8.5,9 8.5,9 v 0.4 l -3.5,2.9 -3.4,2.8 -4.5,3.7 -4.5,3.7 -0.4,0.4 -0.5,0.3 -3.8,0.7 -3.7,0.7 h -0.7 z" />
  <path fill="#cfcfcf" d="m 265.5,302.7 -8.3,-9.6 0.3,-0.2 0.3,-0.3 4.6,-1.8 4.6,-1.8 9.1,5.5 9.2,5.5 0.3,0.3 0.3,0.2 -5.9,6 -5.9,5.9 h -0.3 z" />
  <path fill="#cfcfcf" d="m 34,308.3 -2.8,-3.8 -2.2,-1.5 -2.3,-1.5 -0.2,-2.7 -0.2,-2.6 0.1,-1 0.1,-0.9 3.3,-1.3 3.2,-1.2 1.5,-4.8 1.5,-4.7 h 0.5 l 0.8,0.9 0.9,0.9 -1.2,8.9 -1.2,8.9 v 0.4 l 1.7,1.1 1.7,1.2 3.3,1.9 3.3,1.9 v 0.4 l -4,1.4 -3.9,1.5 -0.5,0.2 -0.4,0.2 z" />
  <path fill="#cfcfcf" d="m 152.6,318.5 -0.4,-1.5 v -0.3 l 2,0.1 h 2.1 l 3.4,0.3 3.4,0.1 0.6,-1.3 0.6,-1.3 4.4,-1.4 4.5,-1.5 6.3,-2.5 6.3,-2.5 v 3.7 l 0.2,3.7 -0.2,0.4 -0.2,0.4 H 178 l -0.7,2.6 -0.7,2.6 H 153 l -0.5,-1.6 z" />
  <path fill="#cfcfcf" d="m 3.2,318.7 -0.7,-1.3 h 0.1 l 0.1,-0.1 4.3,-2.6 4.4,-2.6 4.2,-2.4 4.2,-2.4 3.2,-1.4 3.2,-1.5 3.6,3.8 3.6,3.7 v 4 l -0.1,4.2 H 3.9 Z" />
  <path fill="#cfcfcf" d="m 38.5,319.5 0.5,-0.5 1.4,0.5 1.4,0.5 H 38 Z" />
  <path fill="#cfcfcf" d="m 50.4,318.5 -0.8,-1.6 0.1,-0.3 0.2,-0.3 4.1,-2.6 4.2,-2.6 h 0.9 l 5.9,2.7 5.9,2.8 2,1 2.1,0.9 1.6,0.7 1.6,0.8 H 51.3 Z" />
  <path fill="#cfcfcf" d="m 71.8,314.2 -9,-5.8 V 308 l 3.4,-2.3 3.4,-2.3 13.7,0.6 13.7,0.6 h 1 l 1,0.2 -8.1,7.6 -8,7.6 h -2.1 l -9,-5.9 z" />
  <path fill="#cfcfcf" d="m 85.9,319.8 0.1,-0.2 6.4,-5.6 6.3,-5.5 2.6,-1 2.5,-1.1 7,6 7.1,6.1 0.1,0.2 0.1,0.3 -1,0.5 -0.9,0.6 H 85.7 Z" />
  <path fill="#cfcfcf" d="m 127.4,317.7 3.3,-2.4 0.3,0.4 0.2,0.4 v 4 h -7.1 z" />
  <path fill="#cfcfcf" d="m 134.7,318.9 -0.3,-1.2 -0.2,-2.4 -0.2,-2.4 0.6,-0.7 0.6,-0.7 10.4,-3 10.4,-3 h 0.4 l 0.4,-0.2 v 3.4 l -0.2,2.7 -0.2,2.6 h -3.5 l -3.4,-0.2 -0.2,0.6 -0.2,0.7 v 2 l 0.5,1.4 0.5,1.3 v 0.3 h -15 z" />
</svg>
