<?xml version="1.0" encoding="utf-8"?>
<!-- Generator: Adobe Illustrator 23.0.0, SVG Export Plug-In . SVG Version: 6.00 Build 0)  -->
<svg version="1.1" id="Capa_1" xmlns="http://www.w3.org/2000/svg" xmlns:xlink="http://www.w3.org/1999/xlink" x="0px" y="0px"
	 viewBox="0 0 195 195" style="enable-background:new 0 0 195 195;" xml:space="preserve">
<title>Monogram</title>
<path fill="#fff" d="M0,0v195h195V0H0z M162,46.2l-10.5,10c-0.9,0.7-1.3,1.8-1.2,2.9v73.7c-0.2,1.1,0.3,2.2,1.2,2.9l10.2,10v2.2h-51.4v-2.2
	l10.6-10.3c1-1,1-1.3,1-2.9V73l-29.4,74.7h-4L54.4,73v50.1c-0.3,2.1,0.4,4.2,1.9,5.7L70,145.6v2.2H31v-2.2l13.8-16.7
	c1.5-1.5,2.1-3.7,1.8-5.7V65.2c0.2-1.6-0.5-3.2-1.7-4.3L32.7,46.2V44h38l29.4,64.4L125.8,44H162V46.2z"/>
</svg>
