<svg version="1" xmlns="http://www.w3.org/2000/svg" width="933.333" height="933.333" viewBox="0 0 700.000000 700.000000"><path d="M332.2 32.2c-2.3.4-5.1 1.4-6.4 2.2-1.3.9-14.3 13.7-29 28.5l-26.7 26.8-3.9-1c-11.7-3.1-23 8.2-20.3 20.2 3.4 15.4 24.4 18 31.7 3.9 1.6-3.1 2.1-9.1 1-12.8-.6-2.3 1.7-5 25.8-29.3C319 56 331.9 43.6 333.2 43.2c1.3-.5 9.4-.8 18.2-.7l15.8.2L421 96.6l53.7 53.9-.1 17.2c-.1 9.4-.4 17.4-.6 17.7-.3.3-24.4 24.5-53.7 53.9l-53.1 53.3h-34.7l-53.6-54-53.7-53.9v-34.2l9.9-10 9.9-10.1-3.9-3.8-3.8-3.8-10.2 10.3c-5.6 5.6-10.8 11.5-11.4 13.2-1.5 3.7-1.5 39 0 42.7 1.6 3.7 109.2 111.7 112.8 113 4 1.6 38.9 1.6 42.8.1 3.5-1.4 111.6-109.6 112.9-113.1 1.6-4.2 1.3-40.1-.3-43.3-.8-1.4-26.1-27.4-56.2-57.6-53.9-54.1-54.9-55-59.5-55.7-6.2-.9-30.9-1.1-36-.2zm-65.3 69c3.7 3.9.9 10-4.5 10-3.1 0-6.4-3.3-6.4-6.3 0-2.7 3.5-5.9 6.5-5.9 1.3 0 3.3 1 4.4 2.2z"/><path d="M367.2 99.7c-11.3 5.5-12.3 21.9-1.8 29.1 4 2.7 11.5 3.9 14.6 2.2 2.1-1.1 3.1-.4 15.6 12.1 13 13 13.4 13.5 12.7 16.8-1.3 7.2-.4 11.3 3.6 15.9 11.9 13.5 33.7 1.8 28.9-15.5-2.6-9.4-11.2-14.2-21.3-11.9-2.8.7-3.8-.1-16.3-12.7-12.4-12.4-13.2-13.5-12.3-15.9.5-1.4.8-4.3.6-6.6-.9-11.5-13.8-18.7-24.3-13.5zm12.1 11.1c3.6 3.2.8 10.2-4.2 10.2-4.6 0-7.3-4.2-5.7-8.8 1.4-4.1 6-4.7 9.9-1.4zm50 50c2.3 2 2.2 5.7-.3 8.2-3.9 3.9-10.4 1.5-10.2-4 .1-3.7.8-4.9 3.6-5.9 2.4-.9 4.3-.5 6.9 1.7zM163 214.1c-9.1.3-16.7.6-17 .7-.2.1-25.2 24.8-55.3 54.9-31.4 31.4-55.5 56.2-56.3 58-1.6 3.8-2 39.6-.5 43.5 1.5 3.8 109.5 111.5 113.3 113 3.6 1.4 35.5 1.6 41.4.3 4.2-.9 112.2-109.1 113.9-114 1.4-4.1 1.2-39.1-.2-42.5-.6-1.4-5.7-7.2-11.3-12.8l-10.3-10.3-3.8 3.7-3.9 3.8 10 10.2 10 10.1V367l-53.6 53.7-53.6 53.8-17.5.1-17.5.1-53-53.2c-29.2-29.3-53.3-53.7-53.7-54.3-.3-.6-.6-8.7-.6-18.1l.1-17 53.9-53.9 54-53.8 16.5.2c9.1.1 16.9.2 17.3.3.4.1 12.8 12.1 27.4 26.8l26.6 26.6.1 7.8c.1 6.2.5 8.3 2.2 10.5 3.5 4.7 7 6.7 12.8 7.2 20.5 1.7 25.4-27 5.5-32.9-2.7-.8-4.9-.9-7.8-.1l-4.1 1-27.2-27.5c-15-15.1-28.1-27.9-29.2-28.5-3.3-1.8-11.7-2.3-28.6-1.7zm97 68.9c4.7 4.7.6 10.8-6.7 10.1-.7 0-2-1.2-2.8-2.5-1.2-1.8-1.3-2.9-.5-5.2.6-1.6 1.7-3.2 2.3-3.6 2.2-1.4 5.7-.8 7.7 1.2zM510.1 215.1c-3.6 1.4-111.1 109.6-112.6 113.3-1.6 3.9-1.4 39.8.3 43.6 1.3 3 108.7 110.3 112.1 112 2.9 1.5 39.4 1.6 43.1.2 3.3-1.3 111.1-109.4 112.7-112.9 1.8-4.2 1.7-39.4-.1-43.6-.8-1.8-13.8-15.5-28.9-30.6-25.4-25.3-27.5-27.6-26.6-29.8 4.9-12.9-9.6-26.4-22.4-20.9-6.6 2.8-10.7 8.9-10.7 15.9 0 10.7 12.4 19.5 22.3 15.8 2.2-.9 4.5 1.2 29.8 26.5l27.4 27.4v35l-53.8 53.8-53.7 53.7-17.2.1-17.3.1-53.7-53.8-53.8-53.8v-34.7l53.7-53.9 53.8-53.8h17.3l17.3-.1 10 10 9.9 9.9 3.7-3.8 3.8-3.7-10-10.1c-5.5-5.6-11.4-10.7-13.2-11.5-3.8-1.7-39.2-1.9-43.2-.3zm89.1 43.2c2.4 3.8-.6 9.7-5 9.7-4.7 0-8-5.8-5.4-9.6 2.2-3.3 8.3-3.4 10.4-.1z"/><path d="M475.5 307.7c-7 1.8-12 9.7-11.3 18.1l.5 5.4-8.5 8.5-8.4 8.6 8.7 8.7c8.4 8.4 8.7 8.9 7.9 12.1-1.7 7.6 1.3 15.3 7.4 19.1 12 7.4 28.2-3.3 25.7-17-1.7-9.7-8.7-14.8-19.1-13.9l-6.2.5-4.7-4.8-4.6-4.7 4.7-4.7c3.2-3.2 5.1-4.5 6.3-4.1 6.8 2.6 12.9 1.6 18.2-3.2 13.4-12.1 1.3-33.1-16.6-28.6zm9.8 12.1c2.3 2 2.2 6.5-.2 8.6-2.6 2.4-7 1.7-9.4-1.5-1.9-2.6-1.9-2.8-.1-5.8 2.5-4.3 5.7-4.7 9.7-1.3zm.4 50.1c4.4 5.7-4.2 13.7-9 8.3-1.4-1.6-2.1-4.1-1.8-7 .1-1.7 6-4.2 8-3.4.9.3 2.1 1.3 2.8 2.1zM129.5 388.5c-7.8 2.7-12.7 11.5-11 19.7 1.9 9 11.9 15.2 20.7 12.7 2.4-.6 3.5.1 10.9 7.7 4.6 4.6 8.8 8.4 9.2 8.4.5 0 4.8-3.8 9.5-8.5 6-5.9 9.1-8.3 10.3-8 5.8 1.9 13 .5 17.1-3.2 3-2.7 5.8-8.8 5.8-12.5-.1-5.2-3.4-11.4-7.7-14.2-11.5-7.6-26.5.5-26.2 14.1 0 2.1.4 4.7.8 5.7.6 1.5-.3 3-4.1 6.8-2.6 2.6-5.1 4.8-5.4 4.8-.3 0-2.6-2-5-4.5-3.8-4-4.2-4.8-3.4-7.1 5.1-13.2-8-26.5-21.5-21.9zm9.3 11.1c2.5 1.7 3.1 7.4.9 9.2-2.7 2.3-6.5 2.4-8.6.3-4-4-1.5-11.1 3.9-11.1.9 0 2.6.7 3.8 1.6zm50.2.4c1.1 1.1 2 3.1 2 4.5 0 2.9-3.2 6.5-5.8 6.5-1 0-2.8-.7-4-1.6-3.3-2.3-2.8-8.3.8-10.1 3.4-1.7 4.7-1.6 7 .7zM328.5 398.4c-1.6.8-7.4 5.9-12.8 11.3l-9.8 9.9 3.5 3.9c2 2.1 3.8 3.7 4 3.4.3-.2 4.8-4.7 10.1-9.8l9.5-9.5 16.3-.1c11.3-.1 16.9.2 18.7 1.1 1.4.7 26.1 24.9 54.8 53.8l52.4 52.5-.1 17.8v17.7l-53.5 53.5-53.5 53.5h-17.4l-17.4-.1-52.8-52.8c-29-29-53.3-53.7-53.9-54.9-.7-1.5-.9-7.5-.6-18.8l.5-16.7 27-27 27-27 4 1.1c11.6 3.1 23-8.1 20.4-20.1-1.6-7.3-7.4-12.2-15.3-12.9-9.5-.8-17.1 5.4-18.1 14.8-.2 2.2 0 5.3.6 6.7 1 2.6-.1 3.8-26.5 30.2-18.2 18.3-28 28.9-29.1 31.3-2.2 5.4-2.2 37.3 0 42.6 1.9 4.5 108.7 111.6 112.9 113.2 3.6 1.3 38.6 1.3 42.3 0 3.7-1.4 111.1-108.6 112.9-112.7 2-4.7 2-38.7 0-43.4-1.9-4.3-109-111.4-112.9-112.9-4.3-1.6-39.5-1.2-43.2.4zm-34.7 43.9c3 6.3-4.8 11.7-9.8 6.7-2.7-2.7-2.5-6.4.5-8.8 3.3-2.6 7.5-1.6 9.3 2.1z"/><path d="M288.5 547c-4.6 1-7.2 2.7-10.2 6.7-2.4 3.1-2.8 4.6-2.8 9.8 0 5.2.4 6.7 2.8 9.8 4.6 6.1 11.2 8.5 18.1 6.6 3.4-.9 3.4-.9 16.8 12.5 10.6 10.6 13.2 13.8 12.7 15.3-1.4 3.3-.9 9.7.9 13.2.9 1.9 3.4 4.8 5.5 6.5 6.9 5.5 17.5 3.6 23.4-4.1 2.3-3 2.8-4.6 2.8-9.2 0-7-1.9-10.7-7-14.3-4.2-2.9-9.6-3.8-14.7-2.4-2.4.7-3.8-.4-16-12.6-11-11-13.3-13.8-12.7-15.4.4-1 .8-3.7.8-5.9.2-10.1-10.5-18.8-20.4-16.5zm8.3 12.3c.8.6 1.2 2.5 1 4.6-.2 2.7-1 3.9-3 5.1-2.5 1.3-3.1 1.3-5.5 0-3-1.7-3.8-3.8-2.9-7.6 1-4 6.6-5.2 10.4-2.1zm50 50.5c3.5 4.5-.8 11.2-6.4 9.8-3.6-.9-5.7-6.2-3.7-9.2 2.3-3.6 7.4-3.9 10.1-.6z"/></svg>