<svg version="1" xmlns="http://www.w3.org/2000/svg" width="933.333" height="933.333" viewBox="0 0 700.000000 700.000000"><path d="M326.4 2c-2.3 1.2-16.1 14.1-33.4 31.2l-29.5 29.3h-7.7c-6.8 0-8.1.3-12 3-4.9 3.4-8.8 10.2-8.8 15.2 0 5.2 3.8 12.1 8.2 15 4.5 3 12 4.1 17.1 2.4 8-2.7 13.9-13.4 11.8-21.4-.8-3.4-.7-4.5.9-6.6 1-1.4 14.5-15.1 29.8-30.4 25.1-24.8 28.3-27.7 31.3-27.8 9.5-.4 27.6-.4 31.3 0 3.9.3 6.3 2.5 62.9 58.9l58.7 58.6V169l-59 59-59 59h-37.5l-59.1-59.3-59.1-59.2-.1-19-.1-19 10.5-10.8c5.7-5.9 10.4-11.1 10.4-11.5 0-1-7-8.2-7.8-8.1-1 .1-22.1 23-23.5 25.4-.7 1.3-1.1 9.7-1.1 23.6l-.1 21.6 3 4.3c3.9 5.6 114.1 116.6 119.7 120.4l4.2 3 21.4.1 21.5.1 4.1-2.7c6.5-4.1 117.9-116.2 121.7-122.4 1.7-2.7 1.9-5.3 1.9-23.7 0-11.4-.4-21.8-.9-23.1-1.3-3.3-14.9-17.4-71.6-74.1-25.8-25.8-49-48.2-51.4-49.7L370.8.1h-20.2C332.5.1 330 .3 326.4 2zm-67.7 74.2c4.2 4.7.5 12.2-5.5 11.2-3.9-.7-6.5-4.1-5.8-7.9 1.1-5.6 7.5-7.5 11.3-3.3z"/><path d="M371.2 73.7c-3.6.7-9.9 7.3-11.1 11.8-2.6 9.4.1 16.5 8.4 22 2.4 1.6 4.7 2 11.2 2h8.2l13.6 13.6 13.5 13.6-.6 6c-1.1 10 2.4 16.5 10.7 20.3 5.5 2.4 9.3 2.5 14.4.1 14.7-6.8 15.4-26 1.2-33.4-3.6-1.8-10.7-2.5-14.6-1.2-1.6.5-4.9-2.2-16.5-13.6l-14.5-14.3.6-6.6c.5-5.4.2-7.3-1.5-10.5-4.5-8.9-11.7-12-23-9.8zm10.9 12.9c2.7 2.4 2.5 7.9-.3 9.8-4.9 3.4-10.8.7-10.8-4.9 0-6.2 6.5-9 11.1-4.9zm54.3 54.5c4.9 3.9 2.2 11.9-4.1 11.9s-8.7-8-3.7-11.9c1.5-1.2 3.2-2.1 3.9-2.1.7 0 2.4.9 3.9 2.1zM129.1 200.9c-1.2.3-4.7 2.6-7.6 5.1-9 7.6-114.3 113.7-117.2 118.2l-2.8 4.2V350l.1 21.6 2.9 4.2c3.6 4.9 116.7 118 120.9 120.7 2.5 1.7 5.1 1.9 24.1 2 15.3 0 22.1-.3 24.4-1.3 2-.7 24.7-22.8 56.9-55 58.9-59 65.8-66.1 67.3-70.1 1.6-3.9 1.4-39.7-.2-44.9-.9-3.2-3.8-6.9-12-15.2-5.9-6.1-11.1-11-11.6-11s-2.5 1.7-4.6 3.8l-3.6 3.7 9.3 9.5c5.2 5.2 10 10.4 10.7 11.5.9 1.4 1.4 7.4 1.6 20.5l.2 18.5-59.2 59.2-59.1 59.3h-38.7l-58.1-58.3c-31.9-32-58.4-59.2-58.9-60.5-.5-1.3-.9-10.2-.9-19.9v-17.6l54.3-54.4c29.8-30 56.4-56.6 59-59.2l4.9-4.6 19.1-.1 19.2-.1 30.1 29.9 30 29.9-1 4.9c-2.4 11.8 6 22 18.1 22 6 0 10.8-2.4 14.7-7.3 2.8-3.5 3.1-4.6 3.1-10.6 0-7.7-2.2-12-8.3-16-3.7-2.4-11.6-3.3-15.9-1.8-1.8.7-6-3.1-31.5-28.4-16.1-16.1-31.3-30.5-33.7-32l-4.3-2.8-19.7.1c-10.8 0-20.7.3-22 .7zm121.6 75c5.1 4.3 1.7 12.8-4.7 11.6-8.5-1.6-7.6-13.1 1-13.4.8 0 2.5.8 3.7 1.8zM537.3 201l-11.3.5-7.7 7.5c-4.3 4.1-31.4 31.1-60.3 60-35.3 35.2-53.3 53.9-54.6 56.6-1.9 3.8-2 6-1.9 25.2l.1 21 4.9 5.9c2.7 3.2 30.4 31.3 61.5 62.5 39.8 39.8 57.4 56.9 59.5 57.4 1.7.5 12.5.8 24.2.8l21.2-.1 3.8-2.8c4.1-3.2 93.2-92.1 110.2-110 5.7-6.1 10.8-12.1 11.3-13.5 1.3-3.3 1.2-41.8-.1-45.1-1.1-3.1-10.6-13.2-39.7-42.5l-22.1-22.2.4-6.8c.3-5.9.1-7.5-1.9-10.9-3.5-5.9-9.4-9.7-15.4-9.8-16.9-.2-25.5 20.5-13.2 32 4.7 4.4 13.1 6.1 19.4 4 1.7-.6 6.7 3.9 31.6 29.1 25 25.2 29.6 30.3 30 33.2.3 1.9.5 10.6.4 19.2l-.1 15.8-9.5 9.6c-5.2 5.3-31.9 32-59.2 59.5L569.1 487H531l-58.9-58.9-58.8-58.8-.1-19.5-.1-19.5 59-58.9 58.9-58.9h39l10.7 10.7 10.7 10.8 3.8-3.7c2.1-2 3.8-4.1 3.8-4.5 0-1.3-21.2-21.9-24.2-23.4s-19.9-2.2-37.5-1.4zm86.8 48.2c3.2 4.1-.1 10.8-5.3 10.8-2.7 0-6.8-4.4-6.8-7.4 0-5.7 8.5-8.1 12.1-3.4z"/><path d="M486.5 304.6c-4.3 2.2-7.5 5.4-9 9.2-1.6 3.7-2.1 9.7-1.1 12.8.5 1.7-1.1 3.9-9 11.9l-9.6 9.8 9.7 9.7c9.5 9.6 9.7 9.8 8.7 13.1-2 7.4 2 17.2 8.6 21.1 6.3 3.7 16.6 2.8 21.7-1.9 6.8-6.4 8.1-16.7 3-24.5-4.2-6.3-11.3-9-20-7.4-4.4.8-4.7.6-11.5-6.7l-3.4-3.7 4.9-5c3.7-3.7 5.4-4.8 6.9-4.4 4.8 1.5 11.9 1.3 15.6-.6 10.4-5.3 13.8-17.6 7.5-27.1-4.5-6.8-16-10-23-6.3zm12.8 12.5c2.3 2.8 2.2 6.4-.3 8.9-2.9 2.9-7.4 2.6-9.9-.6-2.8-3.5-2.6-5 .8-8.4 3.3-3.4 6.6-3.3 9.4.1zm.4 54.8c3.6 4.6-.6 11.7-6.2 10.6-1.6-.3-3.5-1.1-4.2-1.8-1.7-1.7-2.3-5.8-1.1-8 1.9-3.7 8.9-4.2 11.5-.8zM109.9 392c-13.1 2.2-18.7 18.3-10.3 29.6 3.9 5.3 12.4 8.1 18.9 6.2 2.8-.7 3.5-.3 12.6 8.8l9.6 9.5 9.9-9.5c8.6-8.2 10.2-9.4 12.4-8.8 12 3.1 22.9-4.6 23.8-16.6.5-8.2-2.6-13.8-9.5-17.3-9.2-4.7-19.6-1.8-24.7 7-2.2 3.7-3 12.5-1.4 15.5.8 1.5.1 2.8-4.3 7.2-2.9 3-5.6 5.4-6 5.4-.4 0-3-2.3-5.8-5.1-4.3-4.3-4.9-5.4-4-7 1.6-3.1 1.3-11.3-.7-15-2.1-4.2-6.9-8.8-9.8-9.3-4.8-1-7.3-1.1-10.7-.6zm8.6 13.5c1.4 1.3 2.5 2.9 2.5 3.5 0 1.5-2.9 7-3.8 7.1-.4 0-1.7.2-2.8.5-3.4.6-7.2-3-7-6.5.5-6.6 6.6-9.2 11.1-4.6zm55-.1c2.4 2.4 2.5 3.3 1.2 7.2-.9 2.7-4.9 4.8-7.6 3.9-5.3-1.6-6.7-7.1-2.9-11.2 2.8-3 6.3-2.9 9.3.1zM332.5 401.8c-5.5.5-7.9 2.2-19.4 13.6l-11.4 11.4 4.1 4.3 4.1 4.4 11.3-11.1 11.3-11h18.7c10.3.1 19 .5 19.5.9.4.4 27 26.9 59 58.9l58.2 58.1-.1 19.6v19.5l-59.1 59-59 59.1h-18.6l-18.5.1-59.3-59.3L214 570v-38.6l29.9-29.8 29.9-29.7 5 .5c13.7 1.2 22.9-6.9 22-19.5-1.2-15.9-19.5-22.6-31.6-11.5-4 3.6-5.4 7.9-5.1 15.4l.4 6.9-30 30.4c-24.1 24.4-30.3 31.2-31.2 34.4-1.5 4.7-1.5 39.2-.1 44.4.7 2.7 14.5 17 61.6 64.2 33.4 33.4 61.9 61.2 63.2 61.7 3.7 1.4 42.2 1.4 46.2 0 2.3-.8 16.4-14.3 44.8-42.8 61-61.2 79.7-80.7 80.3-83.8.8-4.3.6-41.5-.3-43.8-.4-1.1-5.4-7-11.1-13-15.8-16.7-106.9-107.6-111.2-110.9l-3.9-2.9h-18.6c-10.3-.1-20 0-21.7.2zm-46.1 47.3c5 4 2.5 11.9-3.9 11.9-6.5 0-9.2-8.9-3.7-12.2 3.5-2.3 4.4-2.2 7.6.3z"/><path d="M282.3 567c-4.4 1-7.6 3.3-11 7.7-2.4 3.2-2.8 4.5-2.8 10.4.1 6.1.4 7.2 3.1 10.6 5 6.2 12.7 8.9 20.1 7.2l3.8-.8 14.2 14.4 14.2 14.4-.6 6.4c-.4 5.2-.2 7 1.6 10.4 3.4 6.7 11.7 11.7 17.8 10.7 5.8-.9 7.2-1.5 10.3-4 4.8-4.1 7-9.2 6.7-15.8-.6-11.8-11.4-19.3-23.7-16.5-3.4.8-3.6.7-17.7-13.4l-14.2-14.2.6-5.5c.3-3 0-7.4-.6-9.6-1.4-5.1-7.3-10.8-12.8-12.3-4.2-1.2-4.5-1.2-9-.1zm8.7 12.8c3 2.5 2.9 6.7-.3 9.9-3.4 3.5-8.3 2.5-10.2-2-2.9-6.8 4.8-12.5 10.5-7.9zm55.3 56.2c2.9 3.4 2.7 5.8-.8 9-4.1 3.8-10.5.7-10.5-5 0-3.4 3.4-7 6.6-7 1.2 0 3.3 1.3 4.7 3z"/></svg>