<svg xmlns="http://www.w3.org/2000/svg" xmlns:xlink="http://www.w3.org/1999/xlink" viewBox="0 0 2249.18 620.32"><defs><style>.cls-1{fill:#4a4336;}.cls-2{fill:url(#Безымянный_градиент_23);}.cls-3{fill:#8c573a;}.cls-4{fill:#673f31;}.cls-5{fill:#b0b0b0;}.cls-6{fill:#979797;}.cls-7{fill:#665c49;}.cls-8{fill:#595140;}.cls-9{fill:#4f463a;}.cls-10{fill:#4d4638;}.cls-11{fill:#635a48;}.cls-12{fill:#5c5241;}.cls-13{fill:url(#Безымянный_градиент_26);}.cls-14,.cls-20,.cls-22{fill:#657144;}.cls-14,.cls-20,.cls-21,.cls-22,.cls-23,.cls-24{stroke-miterlimit:10;stroke-width:2px;}.cls-14{stroke:url(#plant);}.cls-15{fill:url(#Безымянный_градиент_26-2);}.cls-16{fill:url(#Безымянный_градиент_26-3);}.cls-17{fill:url(#Безымянный_градиент_26-4);}.cls-18{fill:url(#Безымянный_градиент_26-5);}.cls-19{fill:url(#Безымянный_градиент_26-6);}.cls-20{stroke:url(#plants2);}.cls-21{fill:url(#plants2-2);stroke:url(#plant-2);}.cls-22{stroke:url(#plants2-3);}.cls-23{fill:url(#plant-3);stroke:url(#plant-4);}.cls-24{fill:url(#plants2-4);stroke:url(#plants2-5);}.cls-25{fill:url(#Безымянный_градиент_11);}.cls-26{fill:url(#Безымянный_градиент_5);}.cls-27{fill:url(#Безымянный_градиент_26-7);}.cls-28{fill:url(#Безымянный_градиент_26-8);}.cls-29{fill:url(#Безымянный_градиент_11-2);}.cls-30{fill:url(#Безымянный_градиент_5-2);}.cls-31{fill:url(#Безымянный_градиент_26-9);}.cls-32{fill:url(#Безымянный_градиент_26-10);}</style><linearGradient id="Безымянный_градиент_23" x1="981.11" y1="314.63" x2="981.11" y2="80.08" gradientUnits="userSpaceOnUse"><stop offset="0" stop-color="#4a4336"/><stop offset="0.45" stop-color="#4b4538"/><stop offset="0.61" stop-color="#514b3f"/><stop offset="0.73" stop-color="#5a554a"/><stop offset="0.82" stop-color="#68635b"/><stop offset="0.9" stop-color="#797771"/><stop offset="0.97" stop-color="#8f8e8c"/><stop offset="1" stop-color="#999"/></linearGradient><linearGradient id="Безымянный_градиент_26" x1="4135.97" y1="2820.57" x2="4135.97" y2="2790.53" gradientTransform="matrix(-0.71, -0.27, -0.33, 0.73, 4579.97, -696.7)" gradientUnits="userSpaceOnUse"><stop offset="0" stop-color="#9baa61"/><stop offset="1" stop-color="#657144"/></linearGradient><linearGradient id="plant" x1="4570.54" y1="2562.33" x2="4639.41" y2="2562.33" gradientTransform="matrix(-0.79, -0.36, -0.29, 0.77, 5135.77, -70)" gradientUnits="userSpaceOnUse"><stop offset="0" stop-color="#514943"/><stop offset="0.3" stop-color="#544f43"/><stop offset="0.72" stop-color="#5d6144"/><stop offset="1" stop-color="#657144"/></linearGradient><linearGradient id="Безымянный_градиент_26-2" x1="3945.65" y1="2794.1" x2="3994.11" y2="2851.84" xlink:href="#Безымянный_градиент_26"/><linearGradient id="Безымянный_градиент_26-3" x1="4073.53" y1="2855.51" x2="4051.92" y2="2818.08" xlink:href="#Безымянный_градиент_26"/><linearGradient id="Безымянный_градиент_26-4" x1="3935.49" y1="2720.96" x2="4006.89" y2="2720.96" xlink:href="#Безымянный_градиент_26"/><linearGradient id="Безымянный_градиент_26-5" x1="3999.38" y1="2775.83" x2="4041.69" y2="2791.23" xlink:href="#Безымянный_градиент_26"/><linearGradient id="Безымянный_градиент_26-6" x1="4097.03" y1="2738.43" x2="4054.15" y2="2763.19" xlink:href="#Безымянный_градиент_26"/><linearGradient id="plants2" x1="3977.75" y1="2772.6" x2="4048.55" y2="2772.6" gradientTransform="matrix(-0.71, -0.27, -0.33, 0.73, 4579.97, -696.7)" gradientUnits="userSpaceOnUse"><stop offset="0" stop-color="#657144"/><stop offset="0.22" stop-color="#5f6544"/><stop offset="0.69" stop-color="#555043"/><stop offset="1" stop-color="#514943"/></linearGradient><linearGradient id="plants2-2" x1="3981.33" y1="2841.37" x2="4087.47" y2="2841.37" xlink:href="#plants2"/><linearGradient id="plant-2" x1="3980.33" y1="2841.49" x2="4088.47" y2="2841.49" gradientTransform="matrix(-0.71, -0.27, -0.33, 0.73, 4579.97, -696.7)" xlink:href="#plant"/><linearGradient id="plants2-3" x1="3969.18" y1="2846.11" x2="3985.29" y2="2846.11" xlink:href="#plants2"/><linearGradient id="plant-3" x1="4134.74" y1="2776.69" x2="4181.38" y2="2776.69" gradientTransform="matrix(-0.73, -0.29, -0.32, 0.73, 4695.99, -565.88)" xlink:href="#plant"/><linearGradient id="plant-4" x1="4133.36" y1="2776.89" x2="4182.74" y2="2776.89" gradientTransform="matrix(-0.73, -0.29, -0.32, 0.73, 4695.99, -565.88)" xlink:href="#plant"/><linearGradient id="plants2-4" x1="4021.16" y1="2801.04" x2="4033.12" y2="2801.04" xlink:href="#plants2"/><linearGradient id="plants2-5" x1="4019.77" y1="2801.02" x2="4034.48" y2="2801.02" xlink:href="#plants2"/><linearGradient id="Безымянный_градиент_11" x1="-1677.77" y1="-2386.74" x2="-1677.77" y2="-2534.74" gradientTransform="matrix(0.61, -0.24, 0.3, 0.78, 2428.92, 1695.04)" gradientUnits="userSpaceOnUse"><stop offset="0" stop-color="#514943"/><stop offset="0.54" stop-color="#524b43"/><stop offset="0.74" stop-color="#555243"/><stop offset="0.87" stop-color="#5b5d44"/><stop offset="0.99" stop-color="#646e44"/><stop offset="1" stop-color="#657144"/></linearGradient><linearGradient id="Безымянный_градиент_5" x1="-1645.5" y1="-2445.24" x2="-1645.5" y2="-2498.24" gradientTransform="matrix(0.61, -0.24, 0.3, 0.78, 2428.92, 1695.04)" gradientUnits="userSpaceOnUse"><stop offset="0" stop-color="#514943"/><stop offset="0.5" stop-color="#524b43"/><stop offset="0.71" stop-color="#565243"/><stop offset="0.87" stop-color="#5c5e44"/><stop offset="0.99" stop-color="#647044"/><stop offset="1" stop-color="#657144"/></linearGradient><linearGradient id="Безымянный_градиент_26-7" x1="-1593.17" y1="-2503.14" x2="-1634.21" y2="-2526.83" gradientTransform="matrix(0.61, -0.24, 0.3, 0.78, 2428.92, 1695.04)" xlink:href="#Безымянный_градиент_26"/><linearGradient id="Безымянный_градиент_26-8" x1="-1780.8" y1="-2535.34" x2="-1696" y2="-2535.34" gradientTransform="matrix(0.61, -0.24, 0.3, 0.78, 2428.92, 1695.04)" xlink:href="#Безымянный_градиент_26"/><linearGradient id="Безымянный_градиент_11-2" x1="1602.64" y1="-1750.47" x2="1602.64" y2="-1898.47" gradientTransform="matrix(0.6, 0.27, -0.35, 0.76, 51.37, 1323.39)" xlink:href="#Безымянный_градиент_11"/><linearGradient id="Безымянный_градиент_5-2" x1="1634.91" y1="-1808.97" x2="1634.91" y2="-1861.97" gradientTransform="matrix(0.6, 0.27, -0.35, 0.76, 51.37, 1323.39)" xlink:href="#Безымянный_градиент_5"/><linearGradient id="Безымянный_градиент_26-9" x1="1687.24" y1="-1866.87" x2="1646.2" y2="-1890.57" gradientTransform="matrix(0.6, 0.27, -0.35, 0.76, 51.37, 1323.39)" xlink:href="#Безымянный_градиент_26"/><linearGradient id="Безымянный_градиент_26-10" x1="1499.61" y1="-1899.07" x2="1584.41" y2="-1899.07" gradientTransform="matrix(0.6, 0.27, -0.35, 0.76, 51.37, 1323.39)" xlink:href="#Безымянный_градиент_26"/></defs><title>footer</title><g id="Capa_2" data-name="Capa 2"><g id="Footer"><g id="Capa_16" data-name="Capa 16"><path class="cls-1" d="M330.91,316c34.95-2.48,55.53-8.44,78-6,21.23,2.31,24.27,20.26,60,32,8.88,2.92,18.92,1.28,39-2,35.35-5.78,5-16,61-11,12.05,1.08,8.44,11.82,26,24,9.4,6.52,16,5.92,27,0,26-14,34.49-24.83,59-21,32,5,20.35,8,52,13,31.47,4.93,51.41-3.27,80,8,10.3,4.06,14.07,9,21,14,41.36,29.94,115.93-30.06,176-19,38,7,54.83-26.84,92-33,15.61-2.59,30.67-18.58,47-9,12.18,7.15,20.44,3.22,31,3,10.36-.21,7.8,4,21-3,18.81-9.93,41.14-3.3,59,2,18.48,5.49,30.79,12.91,38,17,19,10.8,46.22,29.59,125,21,55-6,35.74-12.77,59-28,18.47-12.1,24.89-4.16,34-5,22.43-2.07,26.52,16.55,51,16,18.77-.43,22.94-11.52,44-10,11.84.86,11.62,4.45,27,8,27.91,6.45,36.33-3.61,59,2,17.35,4.3,14.09,10.61,38,21,18,7.84,42.51,3.47,61-6,15-7.71,10.06-5.51,33-25,9.31-7.92,20.18-17.16,32-15,12,2.19,12.91,14,27,17,9,1.94,11.66-2.23,27-4,12.91-1.49,22.66.12,34,2,28.08,4.65,29.45,2.27,38-3,9.51-5.86,12.23-9.13,21-12,6.71-2.2,29.83,4.45,40,8,21.55,7.52,15.62-14.84,40-12,17.61,2.06,34.54,25.7,60,16,21-8,17.63-22.75,51-16,19.61,4,21,40.47,29,46,30.26,20.87,25.76,103.69,2,143-65.48,108.28-334-19.69-805,1-74.72,3.28-184.59,8.11-329,34-262.31,47-289.73,101-453,96-53.92-1.65-14.2-6.41-372-84-133.82-29-196.85-40.82-205-79-9.4-44,56.1-114.18,109-112,27.17,1.12,17.13,13,41,4,26.37-9.91,50.87-32.81,74-37C312.44,307.92,307.65,317.65,330.91,316Z"/><path class="cls-2" d="M1500.05,165.32c-.54,6.73-2.14,14.68-7.2,16.28-2.58.81-4.52.6-8.68-1.81-15.89-9.2-28.89,3.42-28.89,3.42-5.11,0-9.25-3.77-9.25-8.43V156.9c0-4.65-4.14-8.43-9.25-8.43l-25.7-.52h-76.27a95.87,95.87,0,0,1-15.89-2.89c-20.51-5.19-30.89-8.79-63.55,3.41-6.36,2.38-32.06,0-32.06,0-5.11,0-22,1-9.25-8.42s0-15,0-15c0-4.65-4.14-8.43-9.25-8.43h-83.19c-5.11,0-9.25,3.78-9.25,8.43,0,0,9.53,18.66,0,15s-4.14,8.42-9.25,8.42c0,0-9.81,9.21-19.35,0s-44.77,0-44.77,0c-5.11,0-9.25-3.77-9.25-8.42V122.16c0-4.65-4.14-8.42-9.25-8.42H753c-5.1,0-9.24,3.77-9.24,8.42v17.89c0,4.65-4.15,8.42-9.25,8.42h-67.3c-2.16-4,21.88-.64,22.61-3.25,9.08-32.33,7.43-34.59-84.21-32.33-16.52.4,4.92,32.43-11.56,35.34-7.79,1.38-52.3,2.56-71,1.5-12-.68-8.9-36.32-28.06-38.35-1.62-.17-29.73,2.26-48.71.75,0,0,.94-44.61-.83-28.57H353.81c-14,5.26-16.51,29.33-16.51,29.33s-51.18,10.52-102.37,46.62c-18.16,21.05-58.62,12-58.62,12V273.06s19.82-2.26,35.5,15S259.7,319.68,282,312.91s25.59-14.28,60.26-7.52,31.38-6.76,28.07-9,36.33-26.32,42.11-18.8,21.46,3.76,24.77,8.27,7.85,1.05,7.85,1.05c0,4.65,23.21,9.2,28.31,9.2a84.67,84.67,0,0,0,16.18-3.41c20.83-6.33,58.8,7.58,67,3.41a31.37,31.37,0,0,0,15.61-17.89c2.32-7.68,9.31-13.54,18-14.75,9-1.26,17-2.61,23.35-10.52,3.18-6.56-12.71-15.25,0-17.88,12.71-9,0-3.16,19.06-6.05,17.5-2.66,57-8.62,82.63-2.9,9.53,6.19,25.7.52,25.7.52,5.11,0,2.9-4.75,9.25-8.42s6.36-18.15,6.36-18.15c3.17-11.57,36.2-5.78,41.31-5.78,0,0,57.48.52,69.91-5.79s28.6,5.79,38.13,0,19.07,8.68,22.24,14.47c6.36,2.89-.28,17.89,6.36,20.26s58.92,3.41,69.91,2.89,30.62,5.79,47.66,5.79c8.13,0,11.92-5.27,20-5.27,5.65,0,17.2,2.22,20.94-.62l7.61-3.38c5.23-.87,4.12-2.3,8.6-2.3.74.25,2.94-.89,3.6-1.28,2.76-1.62-.42-4.51,2.76-4.51,1.25,0,0-2.9,4.61-1,4.92-1.86,1.74-10.08,1.74-13.18,0-4.65,4.15-8.42,9.25-8.42,0,0,44.78-3.41,54.31-.52,2.78.85,6.45,2.19,9.53,2.9,12.71,2.89,15.89,17.36,15.89,20.26,0,4.09,15.89,20.26,25.42,14.47s25.42,0,25.42,0c12.72,0,35,2.89,41.31,8.68s19.07,17.37,28.6,23.16c3.18,5.79,29.85,5.79,35,5.79l37.85-2.08c4.21.35,15.4,1.42,18,4.47,3.52,4.16,1.37,3.4,7.72,9.18s3.18,5.79,6.36,8.69c4.49,4.09,19.07,8.68,22.24,11.58s23.76,1.34,31.58,3.57l21.16,2s0-.08,0-.12H1536s47.06-14.29,47.06-8.27,39.63,5.26,39.63,5.26,45.4,5.26,57.79,0,33-14.29,72.65-5.26,32.19-13.54,32.19-13.54a517.53,517.53,0,0,1-3.3-54.89c0-27.83-34.67-26.32-34.67-26.32l-29.72-6s-30.55,12.79-56.14,15-6.61-17.29-6.61-17.29-46.23-12-57.79,3.76-44.58-9-44.58-9l-50.36-21.8Z"/><path class="cls-3" d="M1023.54,219.49l-1-27.11L940.2,195l1,27.1S1023.51,218.6,1023.54,219.49Z"/><path class="cls-3" d="M1255.06,183.57l.78-24.16-75.58-2-.77,24.16S1255.09,182.78,1255.06,183.57Z"/><path class="cls-3" d="M1168.8,182.41V158.24h-75.6v24.17S1168.8,181.62,1168.8,182.41Z"/><path class="cls-3" d="M1297.45,220.76l1.52-24.12-75.48-3.95L1222,216.82S1297.5,220,1297.45,220.76Z"/><path class="cls-3" d="M932.38,149.32,931,125.19,854,128.94l1.41,24.13S932.33,148.53,932.38,149.32Z"/><path class="cls-3" d="M841.77,148.09V123.93h-77v24.16S841.77,147.3,841.77,148.09Z"/><path class="cls-3" d="M891.28,183.89l.33-24.17-12.85,1.42-6.54.42,1.14-3.95-63.74,2.95-.3,22.4S891.29,183.1,891.28,183.89Z"/><path class="cls-3" d="M547.65,220.68V196.52h-85.5v24.16S547.65,219.9,547.65,220.68Z"/><path class="cls-3" d="M502.15,248.89l-.73-24.16L416,226.88l.73,24.16S502.13,248.1,502.15,248.89Z"/><path class="cls-4" d="M558.89,286.06,559,261.9l-85.49-.24-.08,24.16S558.9,285.28,558.89,286.06Z"/><path class="cls-4" d="M587.15,183.71V159.55h-85.5v24.16S587.15,182.93,587.15,183.71Z"/><path class="cls-3" d="M599.84,248V223.88h-85.5V248S599.84,247.25,599.84,248Z"/><path class="cls-3" d="M643.57,220.68V196.52h-85.5v24.16S643.57,219.9,643.57,220.68Z"/><path class="cls-3" d="M489.11,186.78V162.62h-85.5v24.16S489.11,186,489.11,186.78Z"/><path class="cls-3" d="M1202.8,148.81V124.65h-75.61v24.16S1202.8,148,1202.8,148.81Z"/><path class="cls-4" d="M1082.28,185.15l1.31-24.14-76.94-3.48-1.31,24.14S1082.32,184.36,1082.28,185.15Z"/><path class="cls-3" d="M1017.39,148.09V123.93h-77v24.16S1017.39,147.3,1017.39,148.09Z"/><path class="cls-3" d="M995.52,183.42V159.26H908.61v24.16S995.52,182.64,995.52,183.42Z"/><path class="cls-3" d="M792.24,184.07V159.9h-91v24.17S792.24,183.28,792.24,184.07Z"/><path class="cls-3" d="M741.84,219.35l-.47-24.16-85.49,1.39.48,24.15S741.82,218.56,741.84,219.35Z"/><path class="cls-3" d="M1356.89,181.85V157.69h-85.5v24.16l40.18-.57v-2.89s5.69-3.17,9.53-2.9c1,.07-1.13,3.48,0,3.56C1334.4,180,1356.89,181.62,1356.89,181.85Z"/><path class="cls-4" d="M1491.45,222.68l.67-24.15-85.47-2-.67,24.16S1491.47,221.9,1491.45,222.68Z"/><path class="cls-3" d="M1422.52,257.32V233.16H1337v24.16S1422.52,256.54,1422.52,257.32Z"/><path class="cls-3" d="M1459.89,181V156.86H1374.4V181S1459.89,180.23,1459.89,181Z"/><path class="cls-3" d="M1523,257.61l-.37-24.17-85.49,1.1.37,24.16S1523,256.82,1523,257.61Z"/><path class="cls-3" d="M1392.7,219.26l-.53-24.16-85.48,1.56.53,24.16S1392.68,218.48,1392.7,219.26Z"/><path class="cls-3" d="M1578.72,289.77V265.6l-44.39-.37L1525,272.4l6.35-5.79-38.13-1v15.48l9.53,2.9s-4.48,5.74,3.18,5.68C1529.75,289.48,1578.72,289.17,1578.72,289.77Z"/><path class="cls-3" d="M685.89,186V161.79h-85.5V186S685.89,185.17,685.89,186Z"/><path class="cls-3" d="M686.3,143.89V119.72H608.88v24.17S686.3,143.1,686.3,143.89Z"/><path class="cls-3" d="M1085.59,221.16c2.3-1,5.93-.35,7.94-2.07a7.52,7.52,0,0,1,1.1-.93,4,4,0,0,1,1.15-.33l10.21-1.76a15.67,15.67,0,0,1,1.81-2.62c.31-.36.74-.74,1.22-.64s.6.37,1,.4.81-.45,1-.86a54.68,54.68,0,0,1,3-5.45V194.43h-82.35v27.12S1061.78,221.22,1085.59,221.16Z"/><path class="cls-3" d="M1672.63,290.9l.79-24.16L1588,264.41l-.79,24.16S1672.65,290.11,1672.63,290.9Z"/><path class="cls-3" d="M1769.82,285.43l-.37-24.16L1684,262.36l.37,24.16S1769.81,284.64,1769.82,285.43Z"/><path class="cls-3" d="M1622.76,252.85l-2.06-24.09-85.24,6,2.06,24.09S1622.69,252.06,1622.76,252.85Z"/><path class="cls-3" d="M1588.19,221.51l-.37-24.16-85.49,1.09.37,24.16S1588.18,220.72,1588.19,221.51Z"/><path class="cls-4" d="M1719.46,255.35l-.37-24.16-85.49,1.09.37,24.16S1719.45,254.56,1719.46,255.35Z"/><path class="cls-3" d="M1482.75,291.65l.79-24.15s-49-.46-49,.29c-1.65,2.26,5.78,9.78,5.78,9.78l5.77.75-1.31,2.73,5.44,7.05s5.86,2.83,6.31,2.48C1456.78,290.35,1482.76,291.36,1482.75,291.65Z"/><path class="cls-3" d="M1687.16,223.33l-.16-24.16-85.5.46.16,24.16S1687.15,222.55,1687.16,223.33Z"/><path class="cls-3" d="M451,221.07l-.73-24.16-85.47,2.15.73,24.15S450.94,220.28,451,221.07Z"/><path class="cls-4" d="M403.91,251.14,403.18,227l-85.47,2.15.73,24.15S403.89,250.36,403.91,251.14Z"/><path class="cls-3" d="M502.15,147.37l-.73-24.15L416,125.37l.73,24.15S502.13,146.59,502.15,147.37Z"/><path class="cls-3" d="M389.52,187.47l1-24.15-85.43-2.9-1,24.15S389.55,186.68,389.52,187.47Z"/><path class="cls-3" d="M356.85,222.57l-.73-24.15-85.47,2.14.74,24.16S356.83,221.78,356.85,222.57Z"/><path class="cls-3" d="M403.91,150.38l-.73-24.15-85.47,2.14.73,24.16S403.89,149.59,403.91,150.38Z"/><path class="cls-4" d="M440.24,116.54l-.74-24.15L354,94.54l.73,24.15S440.21,115.75,440.24,116.54Z"/><path class="cls-3" d="M302.36,254.9l-.73-24.15-85.46,2.15.73,24.15S302.34,254.12,302.36,254.9Z"/><path class="cls-3" d="M458.4,285l-.73-24.15L372.2,263l.73,24.15s-1-5.56,6.48-5.8c8.18-.27,16.84-9.44,28.06-9.78,9.81-.29,28.74,11.06,36.33,10.53C454.53,281.33,458.39,284.77,458.4,285Z"/><path class="cls-3" d="M361,287.24l-.73-24.15-85.47,2.14.73,24.16S361,286.45,361,287.24Z"/><path class="cls-3" d="M295.4,187.47l1-24.15L244,161.77l-33.85,15-.2,7.77S295.43,186.68,295.4,187.47Z"/><path class="cls-3" d="M259.44,225.58l-.74-24.16-85.46,2.15.73,24.16S259.41,224.79,259.44,225.58Z"/><path class="cls-5" d="M1254.1,172l9.56-46,33-2.21.24-20.5s15.19-15.22,27.2-15.09,33.34-27.84,24.4-33.06-11.35-54-11.35-54l35.27,61.92-9.41,33.23s14.57,36.05,11.51,41.15,14.86,11.7,14.86,11.7,12,4,14.87,11.7,2.78,18,2.78,18l8.51,41.11,32.79,18.31s-41.89-10.71-53.92-8.28-11.75-20.64-11.75-20.64-26.92-8-41.92-8.15-26.92-8-26.92-8l-36.07,4.73s.07-5.13-12.07,6c0,4.1-18.12,9-18.12,9s3-3.38-14.92-7a70.58,70.58,0,0,1-29.84-14s39.13-9.83,45.1-7.2S1254.1,172,1254.1,172Z"/><polygon class="cls-6" points="1317.33 154.77 1329.05 177.97 1331.9 190.82 1355.84 196.21 1391.82 199.17 1398.07 178.73 1371.31 157.92 1374.37 152.83 1353.59 134.66 1359.8 116.78 1341.89 108.89 1332.77 119.04 1317.52 139.39 1293.39 149.38 1293.2 164.76 1311.25 161.5 1317.33 154.77"/><path class="cls-3" d="M1272.89,130.31l-.26,21.4,80.74.89.26-21.4S1272.88,131,1272.89,130.31Z"/><path class="cls-3" d="M1317.28,159l-.26,21.4,27,.3.09-7.69,2.94,5.16,3-2.53,0,2.56,3,2.6,44.73.49.25-21.4S1317.27,159.7,1317.28,159Z"/><path class="cls-4" d="M1264.05,159.31s-3.46,5.09-.07,5.13-3.42,2.52-3.42,2.52,3.36,2.61-.06,5.13-3.52,10.22-3.52,10.22l54,.59.26-21.4S1264,160,1264.05,159.31Z"/><path class="cls-3" d="M1356.76,127.28s2.92-.25,0-8c-.92-2.45,3-2.53,3-2.53s-.42-2.83,3.07-5.1,1.06-5.12,1.06-5.12l-55-.6-.24,19.29S1356.77,126.65,1356.76,127.28Z"/><path class="cls-5" d="M979.15,181.17l-8.66-48.53-33.89-3.06.26-21.53s-15.22-16.31-27.55-16.44-33.56-30-24.25-35.25S898.08,0,898.08,0L860.3,64.16l8.83,35.08s-15.87,37.49-12.85,42.91-15.57,11.94-15.57,11.94S828.33,158,825.15,166s-3.31,18.8-3.31,18.8l-9.77,43-34.14,18.46s43.29-10.29,55.59-7.47,12.6-21.38,12.6-21.38,27.84-7.77,43.26-7.6S917.23,202,917.23,202l36.93,5.79s.07-5.38,12.26,6.59c0,4.31,18.38,9.89,18.38,9.89s-3-3.62,15.5-7a72.1,72.1,0,0,0,31-14s-39.95-11.2-46.15-8.57S979.15,181.17,979.15,181.17Z"/><polygon class="cls-6" points="914.63 161.62 902.01 185.7 898.76 199.12 874.03 204.23 837 206.51 831.09 184.92 859.1 163.71 856.08 158.29 877.89 139.69 871.95 120.8 890.55 112.93 899.67 123.79 914.83 145.48 939.36 156.51 939.17 172.66 920.71 168.82 914.63 161.62"/><path class="cls-3" d="M960.89,137l-.27,22.46-83-.91.28-22.46S960.88,137.71,960.89,137Z"/><path class="cls-3" d="M914.58,166.07l-.27,22.46-27.75-.31.09-8.07-3.14,5.35-3-2.73,0,2.69-3.11,2.66-46-.5.27-22.46S914.57,166.8,914.58,166.07Z"/><path class="cls-4" d="M969.25,167.6s3.43,5.42-.06,5.38,3.46,2.73,3.46,2.73-3.53,2.66-.07,5.38,3.36,10.8,3.36,10.8l-55.5-.61.27-22.46S969.25,168.34,969.25,167.6Z"/><path class="cls-3" d="M874.82,131.89s-3-.33.18-8.37c1-2.54-3-2.73-3-2.73s.51-3-3-5.41-1-5.39-1-5.39l56.53.62-.25,20.24S874.82,131.23,874.82,131.89Z"/><path class="cls-1" d="M265.91,187c34.95-2.48,55.53-8.44,78-6,21.23,2.31,24.27,20.26,60,32,8.88,2.92,18.92,1.28,39-2,35.35-5.78,5-16,61-11,12.05,1.08,8.44,11.82,26,24,9.4,6.52,16,5.92,27,0,26-14,34.49-24.83,59-21,32,5,20.35,8,52,13,31.47,4.93,51.41-3.27,80,8,10.3,4.06,14.07,9,21,14,41.36,29.94,115.93-30.06,176-19,38,7,54.83-26.84,92-33,15.61-2.59,30.67-18.58,47-9,12.18,7.15,20.44,3.22,31,3,10.36-.21,7.8,4,21-3,18.81-9.93,41.14-3.3,59,2,18.48,5.49,30.79,12.91,38,17,19,10.8,46.22,29.59,125,21,55-6,35.74-12.77,59-28,18.47-12.1,24.89-4.16,34-5,22.43-2.07,26.52,16.55,51,16,18.77-.43,22.94-11.52,44-10,11.84.86,11.62,4.45,27,8,27.91,6.45,36.33-3.61,59,2,17.35,4.3,14.09,10.61,38,21,18,7.84,42.51,3.47,61-6,15-7.71,10.06-5.51,33-25,9.31-7.92,20.18-17.16,32-15,12,2.19,12.91,14,27,17,9,1.94,11.66-2.23,27-4,12.91-1.49,22.66.12,34,2,28.08,4.65,29.45,2.27,38-3,9.51-5.86,12.23-9.13,21-12,6.71-2.2,29.83,4.45,40,8,21.55,7.52,15.62-14.84,40-12,17.61,2.06,34.54,25.7,60,16,21-8,17.63-22.75,51-16,19.61,4,21,40.47,29,46,30.26,20.87,25.76,103.69,2,143-65.48,108.28-334-19.69-805,1-74.72,3.28-184.59,8.11-329,34-262.31,47-289.73,101-453,96-53.92-1.65-14.2-6.41-372-84C72.09,378,9.06,366.18.91,328c-9.4-44,56.1-114.18,109-112,27.17,1.12,17.13,13,41,4,26.37-9.91,50.87-32.81,74-37C247.44,178.92,242.65,188.65,265.91,187Z"/><path class="cls-7" d="M1394.44,226.12c14.38-1.24,22.85-4.21,32.1-3,8.74,1.15,10,10.11,24.69,16,3.66,1.46,7.79.64,16-1,14.55-2.88,2.06-8,25.1-5.49,5,.54,3.48,5.9,10.71,12,3.87,3.25,6.58,2.95,11.11,0,10.7-7,14.19-12.39,24.28-10.48,13.17,2.49,8.37,4,21.4,6.49s21.16-1.64,32.92,4c4.24,2,5.79,4.48,8.65,7,17,14.94,47.71-15,72.43-9.49,15.64,3.5,22.57-13.39,37.86-16.47,6.43-1.29,12.62-9.27,19.35-4.49,5,3.57,8.41,1.61,12.75,1.5s3.21,2,8.65-1.5c7.74-4.95,16.93-1.64,24.28,1a64.13,64.13,0,0,1,15.64,8.48c7.82,5.39,19,14.77,51.44,10.49,22.64-3,14.71-6.38,24.28-14,7.61-6,10.25-2.07,14-2.49,9.23-1,10.91,8.26,21,8,7.72-.21,9.44-5.75,18.1-5,4.88.43,4.79,2.22,11.12,4,11.48,3.22,15-1.8,24.28,1,7.14,2.15,5.8,5.3,15.64,10.48,7.42,3.91,17.49,1.74,25.1-3,6.19-3.85,4.14-2.75,13.58-12.48,3.84-4,8.31-8.56,13.17-7.49s5.32,7,11.11,8.49c3.71,1,4.81-1.11,11.12-2,5.31-.74,9.32.06,14,1,11.55,2.32,12.12,1.13,15.64-1.5,3.91-2.92,5-4.55,8.64-6,2.76-1.09,12.28,2.23,16.46,4,8.87,3.75,6.43-7.41,16.47-6,7.25,1,14.21,12.82,24.69,8,8.64-4,7.26-11.35,21-8,8.07,2,8.63,20.2,11.93,23,12.46,10.41,10.61,51.74.83,71.36-26.95,54-137.46-9.83-331.31.5-30.74,1.64-76,4.05-135.4,17-108,23.47-119.23,50.4-186.43,47.91-22.19-.83-5.84-3.2-153.1-41.92-55.07-14.48-81-20.37-84.37-39.43-3.86-22,23.09-57,44.86-55.89,11.19.56,7,6.47,16.88,2,10.85-4.94,20.93-16.37,30.45-18.46C1386.83,222.09,1384.86,227,1394.44,226.12Z"/><path class="cls-8" d="M625.1,361.45c-10.07-3.36-15.54-7.54-22.43-7.73-6.51-.18-9.23,8.41-21,11.94-2.92.88-5.72-.53-11.32-3.37-9.85-5,.15-8.13-16.9-9.13-3.67-.21-3.69,5.26-10.12,10.13-3.44,2.6-5.33,1.9-8-1.66-6.25-8.44-7.66-14.26-15.29-13.89-10,.47-6.83,2.67-16.69,3.15s-14.85-4.76-24.44-1c-3.46,1.35-5.07,3.52-7.63,5.54-15.27,12.09-31.19-21.82-50.06-20.11-11.94,1.09-13.47-16.48-23.82-21.78-4.35-2.22-7.17-11-13-7.29-4.33,2.75-6.37.32-9.47-.44s-2.7,1.46-5.89-2.76c-4.55-6-11.82-4.14-17.64-2.65a45.25,45.25,0,0,0-13,6c-6.72,4.11-16.67,11.62-39.07,2.57-15.63-6.31-9.26-8.44-14.58-17.31-4.22-7.05-6.93-3.56-9.53-4.53-6.42-2.39-9.52,6.45-16.7,4.68-5.5-1.37-5.6-7-12-7.6-3.59-.31-3.89,1.46-8.79,2.25-8.9,1.43-10.37-4-17.63-2.65-5.57,1-5.25,4.32-13.37,7.92-6.12,2.72-12.91-.92-17.41-6.68-3.66-4.7-2.41-3.31-7.2-14.25-1.95-4.44-4.22-9.62-7.93-9.3s-5.23,6-9.7,6.65c-2.86.39-3.22-1.81-7.57-3.62-3.67-1.52-6.71-1.33-10.25-1.11-8.77.54-8.93-.7-10.92-3.8-2.22-3.45-2.69-5.22-5-7.16-1.77-1.48-9.27.34-12.64,1.45-7.13,2.35-3.1-8.21-10.59-8.32-5.42-.08-12.82,10.43-19.35,4.12-5.39-5.2-2.9-12.2-13.44-10.95-6.2.73-10.32,18.48-13.25,20.69-11.06,8.33-18.16,49.07-15.14,69.74,8.32,56.94,100.67,10.93,237.71,50,21.74,6.2,81.67,27.31,121.7,48.84,72.7,39.11,47.35,55.18,96.09,62.79,16.1,2.51,4.85-2.26,118.45-18.16,42.48-5.95,112.16,27.52,118.46,9.37,7.25-20.93-54.82-94.6-70.67-96.78-8.14-1.13-6.38,5.28-12.52-.57-6.78-6.47-11.69-19.16-18.1-22.63C631.38,358.64,631.81,363.69,625.1,361.45Z"/><path class="cls-9" d="M227.44,250.12c14.38-1.24,22.85-4.21,32.1-3,8.74,1.15,10,10.11,24.69,16,3.66,1.46,7.79.64,16-1,14.55-2.88,2.06-8,25.1-5.49,5,.54,3.48,5.9,10.71,12,3.87,3.25,6.58,3,11.11,0,10.7-7,14.19-12.39,24.28-10.48,13.17,2.49,8.37,4,21.4,6.49s21.16-1.64,32.92,4c4.24,2,5.79,4.48,8.65,7,17,14.94,47.71-15,72.43-9.49,15.64,3.5,22.57-13.39,37.86-16.47,6.43-1.29,12.62-9.27,19.35-4.49,5,3.57,8.41,1.61,12.75,1.5s3.21,2,8.65-1.5c7.74-4.95,16.93-1.64,24.28,1a64.13,64.13,0,0,1,15.64,8.48c7.82,5.39,19,14.77,51.44,10.49,22.64-3,14.71-6.38,24.28-14,7.61-6,10.25-2.07,14-2.49,9.23-1,10.91,8.26,21,8,7.72-.21,9.44-5.75,18.1-5,4.88.43,4.79,2.22,11.12,4,11.48,3.22,14.95-1.8,24.28,1,7.14,2.15,5.8,5.3,15.64,10.48,7.42,3.91,17.49,1.74,25.1-3,6.19-3.85,4.14-2.75,13.58-12.48,3.84-4,8.31-8.56,13.17-7.49s5.32,7,11.11,8.49c3.71,1,4.81-1.11,11.12-2,5.31-.74,9.32.06,14,1,11.55,2.32,12.12,1.13,15.64-1.5,3.91-2.92,5-4.55,8.64-6,2.76-1.09,12.28,2.23,16.46,4,8.87,3.75,6.43-7.41,16.47-6,7.25,1,14.21,12.82,24.69,8,8.64-4,7.26-11.35,21-8,8.07,2,8.63,20.2,11.93,23,12.46,10.41,10.61,51.74.83,71.36-27,54-137.46-9.83-331.31.5-30.74,1.64-76,4.05-135.4,17C434.32,377.4,423,404.33,355.84,401.84c-22.19-.83-5.84-3.2-153.1-41.92-55.07-14.48-81-20.37-84.37-39.43-3.86-22,23.09-57,44.86-55.89,11.19.56,7.05,6.47,16.88,2,10.85-4.94,20.93-16.37,30.45-18.46C219.83,246.09,217.86,251,227.44,250.12Z"/><path class="cls-10" d="M1248.76,230.31c-10.59.77-17.25-1-23.68,1.51-6.07,2.34-5.28,11.31-14.76,19.1-2.36,1.94-5.49,1.71-11.75,1.24-11-.81-3-7.55-19.11-1.91-3.47,1.21-1.39,6.27-5.44,13.24-2.17,3.74-4.19,3.82-8,1.54-9-5.38-12.57-10.2-19.47-6.93-9,4.28-5.27,5.11-14.18,9.34s-15.54,1.33-22.95,8.48c-2.67,2.58-3.32,5.21-4.9,8.06-9.44,17-37.19-8.12-54,.72-10.6,5.6-18.78-10-30.37-10.92-4.87-.38-10.84-7.36-14.78-1.74-2.93,4.2-5.75,2.75-8.9,3.24s-1.94,2.39-6.51-.27c-6.51-3.8-12.5.73-17.29,4.34a45.43,45.43,0,0,0-9.66,10.5c-4.61,6.38-10.9,17.14-35.06,17.42-16.86.19-11.79-4.22-20.12-10.36-6.62-4.87-7.77-.62-10.55-.51-6.84.26-6.29,9.62-13.6,10.75-5.6.86-7.89-4.34-14-2.4-3.43,1.1-3,2.85-7.25,5.46-7.66,4.76-11.11.3-17.29,4.35-4.74,3.09-3.18,6-9.28,12.46-4.61,4.87-12.27,4.12-18.64.53-5.19-2.92-3.51-2.12-12.14-10.37-3.51-3.35-7.6-7.25-10.9-5.52s-2.51,7.58-6.4,9.87c-2.48,1.46-3.66-.43-8.37-.42-4,0-6.71,1.35-9.89,2.91-7.88,3.88-8.51,2.79-11.54.7-3.37-2.33-4.49-3.78-7.36-4.68-2.19-.7-8.42,3.88-11.1,6.2-5.67,4.91-6-6.39-13-3.6-5,2-7.81,14.56-16.27,11.26-7-2.72-7.37-10.14-16.62-4.93-5.44,3.06-2.4,21-4.26,24.19-7,12,2.14,52.29,12.89,70.2C732,472.69,799.47,394.66,941,378c22.45-2.65,55.46-6.55,100.69-2.09,82.17,8.09,95.38,33,143.29,21.22,15.82-3.88,3.6-3.95,102.31-62.37,36.92-21.85,54.49-31.23,53.3-50.41-1.37-22.11-27.39-52.76-42.86-48.67-8,2.1-3.85,7.33-11.77,4.3-8.75-3.36-18.17-13.18-25.42-13.92C1253.47,225.3,1255.81,229.79,1248.76,230.31Z"/><path class="cls-11" d="M618,323.94c14.42-.6,23-3.19,32.2-1.55,8.68,1.54,9.53,10.55,23.95,17.06,3.59,1.62,7.75,1,16.08-.28,14.67-2.23,2.41-7.88,25.33-4.36,4.93.76,3.2,6.05,10.15,12.45,3.72,3.42,6.45,3.25,11.1.5,11-6.5,14.74-11.74,24.73-9.38,13,3.08,8.18,4.38,21.09,7.44s21.21-.68,32.71,5.47c4.14,2.21,5.58,4.73,8.32,7.36,16.33,15.69,48.34-12.84,72.78-6.22,15.47,4.19,23.15-12.37,38.57-14.75,6.48-1,13-8.7,19.52-3.62,4.85,3.79,8.34,2,12.68,2.07s3.12,2.12,8.7-1.11c8-4.6,17-.89,24.21,2.09a63.84,63.84,0,0,1,15.25,9.17c7.57,5.74,18.34,15.61,50.92,12.78,22.75-2,15-5.71,24.88-12.87,7.87-5.69,10.33-1.61,14.09-1.86,9.27-.62,10.54,8.74,20.61,8.92,7.73.13,9.69-5.33,18.32-4.18,4.85.65,4.68,2.43,10.92,4.49,11.33,3.73,15-1.13,24.21,2.09,7,2.46,5.56,5.55,15.15,11.17,7.25,4.24,17.41,2.52,25.22-1.87,6.36-3.56,4.26-2.56,14.13-11.85,4-3.78,8.68-8.18,13.49-6.89s5,7.2,10.72,9c3.66,1.13,4.85-.9,11.19-1.5,5.34-.51,9.32.48,13.93,1.62,11.44,2.84,12.06,1.68,15.69-.79,4.05-2.75,5.24-4.33,8.91-5.59,2.81-1,12.16,2.77,16.26,4.72,8.7,4.15,6.76-7.11,16.72-5.24,7.19,1.35,13.62,13.45,24.31,9.08,8.81-3.6,7.76-11,21.32-7,8,2.34,7.72,20.56,10.9,23.47,12,11,8.27,52.17-2.38,71.33-29.35,52.78-136.88-16-331-14.37-30.79.26-185,27.87-245,38.11-108.9,18.6-155-24.49-222-30-22.13-1.82-87.49-89.51-86-37,1,35.53-147.51-2.81-150-22-2.88-22.13,75.3,4.93,97,7,11.15,1.06,35-32,45-36,11.06-4.45,68.39,15.66,78,14C590.26,363.38,608.39,324.33,618,323.94Z"/><path class="cls-12" d="M1279.44,344.12c14.38-1.24,22.85-4.21,32.1-3,8.74,1.15,10,10.11,24.69,16,3.66,1.46,7.79.64,16-1,14.55-2.88,2.06-8,25.1-5.49,5,.54,3.48,5.9,10.71,12,3.87,3.25,6.58,3,11.11,0,10.7-7,14.19-12.39,24.28-10.48,13.17,2.49,8.37,4,21.4,6.49s21.16-1.64,32.92,4c4.24,2,5.79,4.48,8.65,7,17,14.94,47.71-15,72.43-9.49,15.64,3.5,22.57-13.39,37.86-16.47,6.43-1.29,12.62-9.27,19.35-4.49,5,3.57,8.41,1.61,12.75,1.5s3.21,2,8.65-1.5c7.74-4.95,16.93-1.64,24.28,1a64.13,64.13,0,0,1,15.64,8.48c7.82,5.39,19,14.77,51.44,10.49,22.64-3,14.71-6.38,24.28-14,7.61-6,10.25-2.07,14-2.49,9.23-1,10.91,8.26,21,8,7.72-.21,9.44-5.75,18.1-5,4.88.43,4.79,2.22,11.12,4,11.48,3.22,15-1.8,24.28,1,7.14,2.15,5.8,5.3,15.64,10.48,7.42,3.91,17.49,1.74,25.1-3,6.19-3.85,4.14-2.75,13.58-12.48,3.84-3.95,8.31-8.56,13.17-7.49s5.32,7,11.11,8.49c3.71,1,4.81-1.11,11.12-2,5.31-.74,9.32.06,14,1,11.55,2.32,12.12,1.13,15.64-1.5,3.91-2.92,5-4.55,8.64-6,2.76-1.09,12.28,2.23,16.46,4,8.87,3.75,6.43-7.41,16.47-6,7.25,1,14.21,12.82,24.69,8,8.64-4,7.26-11.35,21-8,8.07,2,8.63,20.2,11.93,23,12.46,10.41,10.61,51.74.83,71.36-27,54-137.46-9.83-331.31.5-30.74,1.64-76,4.05-135.4,17-108,23.47-119.23,50.4-186.43,47.91-22.19-.83-5.84-3.2-153.1-41.92-55.07-14.48-230.48-3.86-233.83-22.92-3.87-22,105-78,161-18,7.64,8.19,40.37-47.93,50.2-52.41,10.85-4.94,20.93-16.37,30.45-18.46C1271.83,340.09,1269.86,345,1279.44,344.12Z"/><path class="cls-7" d="M854.91,341.35c0,2.4-128.5,4.35-287,4.35s-287-1.95-287-4.35S409.4,314,567.91,314,854.91,339,854.91,341.35Z"/><path class="cls-7" d="M1494.91,358.35c0,2.4-132.5,21.65-291,21.65s-283-19.25-283-21.65,128.49-4.35,287-4.35S1494.91,356,1494.91,358.35Z"/><path class="cls-7" d="M1591.91,368.35c0,2.4-128.5,71.65-287,71.65s-287-69.25-287-71.65,128.49-4.35,287-4.35S1591.91,366,1591.91,368.35Z"/><path class="cls-7" d="M1863.91,365.35c0,2.4-121.5,32.65-280,32.65s-294-30.25-294-32.65,128.49-4.35,287-4.35S1863.91,363,1863.91,365.35Z"/><path class="cls-10" d="M1336.91,395.35c-2.38-.33-132.5,30.65-291,30.65s-283-28.25-283-30.65,129.79-24.61,287-4.35C1525,452.22,1380.2,401.32,1336.91,395.35Z"/><path class="cls-1" d="M949.91,384.35c0,2.4-129.5,18.65-288,18.65s-286-16.25-286-18.65S504.4,380,662.91,380,949.91,382,949.91,384.35Z"/><path class="cls-7" d="M2044.91,408.35c0,2.4-129.5,31.65-288,31.65s-286-29.25-286-31.65,128.49-4.35,287-4.35S2044.91,406,2044.91,408.35Z"/><path class="cls-7" d="M678.91,302.91c0,7.71-127.5,88.09-286,88.09s-288-80.38-288-88.09,128.49-14,287-14S678.91,295.19,678.91,302.91Z"/><path class="cls-8" d="M675.91,361.35c0,2.4-128.5,28.65-287,28.65s-287-26.25-287-28.65S230.4,357,388.91,357,675.91,359,675.91,361.35Z"/><path class="cls-7" d="M1769.91,302.91c0,7.71-120.5,40.09-279,40.09s-295-32.38-295-40.09,128.49-14,287-14S1769.91,295.19,1769.91,302.91Z"/><ellipse class="cls-7" cx="1818.91" cy="308.91" rx="287" ry="13.97"/><path class="cls-8" d="M1221.91,292.91c0,7.71-122.5,85.09-281,85.09s-293-77.38-293-85.09,128.49-14,287-14S1221.91,285.19,1221.91,292.91Z"/><path class="cls-13" d="M717,240.16c-3.63-2.63-7.14-5.74-11.74-6.5,3.45-.93,6.64-2.84,9.94-4.32,11.43-5.14,39.77-7.1,39.73,10C754.83,260.75,723.85,245.15,717,240.16Z"/><path class="cls-14" d="M735.91,240l.08,1.43c12.08-.11,22.25,2.54,30.21,7.86,7.8,5.22,13.71,13.3,18.92,20.42l1.13-.81C781,261.7,775,253.51,767,248.14,758.73,242.65,748.29,239.92,735.91,240Z"/><path class="cls-15" d="M847,302.61c3.5-11,7.45-23,17-30.23,1-.76,2.44-1.46,3.31-.74a52.88,52.88,0,0,0-21.58-.54A37.3,37.3,0,0,0,826,281.73c-8.25,8.79-11.56,24.92-4.07,33.43C831.3,325.84,843.56,313.5,847,302.61Z"/><path class="cls-16" d="M764.33,286.33l-10.36-12c-2-2.32-4.58-4.83-7.85-4.17a30.75,30.75,0,0,1,25.2-9.06c10.35,1.22,25.49,10.6,23.59,23C792.38,300.58,770.47,293.43,764.33,286.33Z"/><path class="cls-17" d="M860.68,226.7c3.68.89,7.73.18,11.64-.53l31.95-5.81c-4.84-4.62-9.8-9.19-15.63-12.61a35.12,35.12,0,0,0-19.82-5.18c-5.39.33-17.58,3.34-20,9.51C846.36,218.41,855.62,225.48,860.68,226.7Z"/><path class="cls-18" d="M812.3,266.46a27.51,27.51,0,0,0,6.34-4.5c2.88-2.51,5.82-5.19,7.39-8.59,1.26-2.72,1.53-5.66,2.47-8.47a21.29,21.29,0,0,1,11-12.19c-10.21-2.61-22.46.84-30.83,8.7a18.74,18.74,0,0,0-4.54,6,22.2,22.2,0,0,0-1.34,5.7C801.89,259.73,802.54,270.92,812.3,266.46Z"/><path class="cls-19" d="M796.2,228.6c2.57-5.81,2.54-12.07,3-18.17a103.38,103.38,0,0,1,2.6-16c.74-3.05,1.73-6.27,4.1-8.54-11.6.17-24.36,7.08-29.12,18.06A47,47,0,0,0,774,215.24c-1.28,7.78-1.08,16.54,5.33,21.47C785.42,241.39,793.12,235.56,796.2,228.6Z"/><path class="cls-20" d="M813.66,226.08a50.84,50.84,0,0,0-13.24,18.67,50.25,50.25,0,0,0-2.28,30.75l1.29-.45a48.59,48.59,0,0,1,23-53.71c14.47-8.06,31.4-7,47.53-4.67l.35-1.29c-16.38-2.37-33.58-3.43-48.42,4.84A47.19,47.19,0,0,0,813.66,226.08Z"/><path class="cls-21" d="M790.69,193.44c-7.6,14.33-11,28.18-10.08,41.16.77,11,3,15.13,12.33,32.67.87,1.62,1.79,3.35,2.78,5.22,5,9.4,10.59,20.37,13.91,31.65,3.66,12.39,4.11,23.56,1.38,34.13a37.86,37.86,0,0,1-11.32,19.09l-.11.11c-7.57,6.64-16.48,8.53-23,9.91a65.39,65.39,0,0,1-16.27,1.37l-.22,1.3a66.18,66.18,0,0,0,16.61-1.4c6.3-1.33,15.81-3.34,23.68-10.26a39.35,39.35,0,0,0,11.9-19.95c2.79-10.8,2.34-22.19-1.38-34.8-3.35-11.38-9-22.41-14-31.86-1-1.87-1.91-3.6-2.78-5.22-9.25-17.36-11.45-21.49-12.2-32.21-.89-12.72,2.45-26.32,9.92-40.42Z"/><path class="cls-22" d="M844.54,281.63a52.77,52.77,0,0,0-12.23,16.94,154.61,154.61,0,0,0-6.5,16.72c-.64,1.87-1.31,3.79-2,5.68a26.51,26.51,0,0,1-3.67,7.49,9.57,9.57,0,0,1-6.67,4l-.09,1.3c2.75-.13,5.66-1.86,7.78-4.6a28,28,0,0,0,3.9-7.9c.68-1.89,1.34-3.83,2-5.69A151.88,151.88,0,0,1,833.49,299c4-8.25,8.9-14.54,14.68-18.72l-.7-1C846.47,280,845.49,280.78,844.54,281.63Z"/><path class="cls-23" d="M777.69,274.63l.76,1a3.3,3.3,0,0,1,2.23-.39c6.85.51,12.23,4.36,15.54,7.49,4.27,4.05,7.54,9.09,10.71,14l1.15-.79c-3.21-4.93-6.52-10-10.89-14.17-3.45-3.28-9.08-7.29-16.3-7.83A4.64,4.64,0,0,0,777.69,274.63Z"/><path class="cls-24" d="M817.44,247.52c-3.68,3.26-6.26,7.82-8.51,12.39-.18.38-.36.75-.55,1.12-2.57,5.28-5.24,10.73-9.84,14.33l.74,1c4.89-3.82,7.63-9.44,10.28-14.87.19-.37.37-.74.55-1.11,2.82-5.75,6.17-11.46,11.55-14.31l-.51-1.13A18.26,18.26,0,0,0,817.44,247.52Z"/><path class="cls-25" d="M625.3,136.81a39.47,39.47,0,0,1,18.9,7c8.81,6.42,14.46,24.76,20.51,31.34s21.56,17.57,25.68,35.6,5.92,22.69,5.92,22.69.69-9.18,3.76-10.36-4.47-13.44-7.17-18.64-10.85-19-13-20.87A101,101,0,0,1,658.77,156c-8.12-15.6-19.25-19.79-22.14-20.91-2.13-.82-14-5.3-14-5.3Z"/><path class="cls-26" d="M674,178.25s-2.06-9,1.69-17.59,6-21,6-21l1.81,2.87S675.58,167,678,175.82a56.5,56.5,0,0,0,4.19,10.88Z"/><path class="cls-27" d="M681.05,143.44s-1.92,9.66-8.89,2.53.56-27.86,10.09-34.2,20.61-12.39,21.24-14.41,1.84-.71.58,3.34-3.55,20.09-3,28.8-2,24-7.26,25.09a9,9,0,0,1-10.65-5.71Z"/><path class="cls-28" d="M625.49,132.72s7.59,11.37-6,15.67c-13.18,4.18-22-4-26.24-5.95s-13.43-3.75-17.09-4.13.63-2,.63-2,8.29-4.09,12.3-8.3,13.55-10.57,21.82-11.07,16.49,2.57,19.18,9.56S625.49,132.72,625.49,132.72Z"/><path class="cls-29" d="M1646.05,324.1a39.56,39.56,0,0,1,8.2,18.41c1.57,10.79-7.59,27.64-8.07,36.58s2.51,27.69-7.5,43.25-12.1,20.09-12.1,20.09,7.05-5.93,10-4.56,6.49-12.59,8.32-18.16,6-21,5.86-23.86a100.77,100.77,0,0,1,4.9-34.37c5.48-16.72.7-27.6-.53-30.45-.9-2.1-6-13.74-6-13.74Z"/><path class="cls-30" d="M1650.46,387.91s5-7.77,13.76-11.09,19.24-10.41,19.24-10.41l-.79,3.3s-23.06,11.45-27.68,19.36a56.25,56.25,0,0,0-4.85,10.6Z"/><path class="cls-31" d="M1680.28,368.61s-8.25,5.38-8-4.59,20.31-19.07,31.52-16.69,23.25,6.08,25.14,5.11,1.8.82-2,2.76-16.84,11.5-22.7,18-18.58,15.29-23,12.34a9.05,9.05,0,0,1-3.36-11.61Z"/><path class="cls-32" d="M1649.1,321.38s-2.83,13.38-15.36,6.7c-12.21-6.51-12.49-18.54-14.1-22.93s-6.7-12.22-9-15.11,1.89-1,1.89-1,8.71,3.08,14.54,3,17,2.3,23.16,7.86,9.69,13.59,6.57,20.4S1649.1,321.38,1649.1,321.38Z"/></g></g></g></svg>