<svg xmlns="http://www.w3.org/2000/svg" xmlns:xlink="http://www.w3.org/1999/xlink" viewBox="0 0 1920 855.17"><defs><style>.cls-1{fill:url(#Безымянный_градиент_109);}</style><linearGradient id="Безымянный_градиент_109" x1="960" y1="855.17" x2="960" gradientUnits="userSpaceOnUse"><stop offset="0"/><stop offset="1" stop-opacity="0"/></linearGradient></defs><title>landscape</title><g id="Capa_2" data-name="Capa 2"><g id="teaser"><path class="cls-1" d="M1912,61.17l-10-17-13,24,9,39s-17,17-19,3,2-20-10-7-8-26-8-26-4-40-15-36,9,13-7,19,4,23,1,40-14-8-13-16,4-14-7-34c-9-16.32-3.31-20.65-.92-21.7L1787,39.17l5,44-12,1v26h-37l1,38-13-6,4-46-45-19,1,71-15-16,3-104-48,13,3,79h-26v35L1594.63,157l0-.53-8.58-75.9s-5.28,0-5.28-2.64,2-9.9,0-10.56-5.28-6.6-7.92-7.26,2,15.84,0,15.84-9.24-2-6.6-4.62,2.64-27.06,0-29.7-19.8,15.18-19.14,17.82,2.64,24.42,0,23.1-6.6-4.62-4.62-5.28,0-17.16,0-17.16h-3.3v-6.6h-2.64V66h-2.64l-3.3-2.64V97l-7.92-.66v17.82l-12.54.66-.66-9.9-34.32,1.32,9.9,4-7.26-.66,1.32,5.94-8.58-7.26-2,5.28,6.6,3.3-9.9-2-.66,4.62-5.28-13.86-.66,51.48-11.88-.66v-36.3l-5.28-4V95L1433,89.1H1427l-2.64,32.34-5.94.66-5.28,4v19.8l-17.82,22.44-13.86,1.32,1.32-11.22V144.54l.66-15.18-2-16.5-1.32-2.83v2.84h-2.64v-6h1.19l-1.85-4L1361,104.28l-4.62-1.32-2,13.86.66,34.32v12.54l-10.56-.66,1.32-22.44-4.62-7.26v-8.58l-8.58,1.32-1.32-5.94V108.24l-13.2.66v14.52l-2.64,6.6,1.32,27.72-13.86-2.64a44.45,44.45,0,0,1-6.6-.66c-4-.66,1.32-14.52,1.32-17.82s-1.32-9.24-4-11.22,0-17.82,0-17.82h-7.26c-2,0,0,9.9-1.32,9.9s-2,2-4,0-5.28,8.58-5.28,8.58-2.64,7.26-5.28,7.26.66-9.9,0-15.84-7.92,9.24-9.9,8.58,6.6,36.3,2.64,37-13.2,0-13.2,0l.66-11.88-4.62-5.94-10.56,1.32L1234.29,167h-2.64l-.66-32.34-12.54-2-.66,30.36-15.18-5.28.66-24.42-4.62-2-2,1.32-1.32-5.94h-3.3l-4,17.82-.66,19.8-8.58-2v-5.28l-4.62.66v19.14l-4.62,3.3V169.62l-4-5.28-4,5.94-9.24-5.94-6.6-21.78L1143.21,161l-8.58.66-.66,21.78v15.84l-12.54-7.26-.66-22.44-22.44-1.32v10.56l-21.12,7.92,4.62-15.18-16.5-5.94V148.5l-5.94,8.58,5.28-24.42,1.32-16.5-5.94,12.54-11.22-7.26,2,17.16-5.28-9.24-7.26,5.28,7.26-23.1-15.84,15.84V113.52l-9.24,36.3-11.22-5.28V126.72l-5.28-.66-.66-7.92L1002,99l-14.52-4.62-2,37.62L969,135.3l2,9.24-8.58-6.6v14.52l-7.26-19.8-.66,9.24-4-11.22-3.3,11.22-25.74-1.32v13.86l-9.24-2v-19.8H903l-4.62-18.48h-6.6l-2.64,21.12.66,15.84-16.5,4.62,2,32.34-10.56-2V170.28h-7.92l1.32-19.14V132.66l-2-.73v4.91h-6.52V130h1.34l-5.38-2h-5.94v-6.82h5.8l0-1.7h-5.77V112.7h5.63l0-1.7h-5.6v-6.82h5.46l-.05-2.56h-5.41V94.81h5.27l0-1.71h-5.24V86.28h5.1l0-1.7h-5.06V77.76h4.93l0-1.7h-4.89V69.24h4.75l0-1.7h-4.72V62.7h-3.3v4.84h-6.6V64.08l-3.3,1.37v2.09h-1.32v1.7h1.32v6.82h-1.32v1.7h1.32v6.82h-6.6v-3.4h-3.3v3.4h-6.6V77.76h2.84l-1.87-1.7h-1v-.88l-.66-.6-2,6.6-.66,9.9v2h-.13l-.12,1.71h.25v6.81H800V98.7l-2.64-1L800,127.82v-6.6h6.6V128H800l.64,7.31V130h6.52v6.82H800.8l.15,1.7h6.24v6.82h-5.64l.15,1.7h5.49v6.82h-4.9l.15,1.7h4.75v6.82H803l.15,1.71h4v6.81h-3.4l.22,2.56h3.18v6.82h-2.58l.15,1.7h2.43v6.82h-6.52V182h.56l-26.3-39.44-20.46,1.32-3.3,29-5.94-24.42L738.63,161l-.66-19.8-29,4-5.28,52.14L699,152.46l-7.92-34.32,1.32-25.08-5.94-4.62-4-11.22-19.8-11.88.66-38.94L641.61,33,639,66l-7.26,4-2,27.06,2.71,6.25-.12-5.33,5.33-3.56,2,7.92,10.56-2.64,4.62,7.26-7.92-1.32-5.28,7.26h11.88l5.94,11.88-5.94-5.28-20.66,1.82,0,1L645.57,128H633l.06,2.64-.19,2.14,6.13,7.76-6.55-3-1.37,15.54-9.9,36.3-7.26-9.24.66-24.42-5.28.66-6.6-19.8-16.5,2.64h-9.9L573,136l-5.28,3.3,1.32,16.5H545.25V134l-14.52-.66-2-11.88-29-.66-2,5.94H474l-1.32-18.48-9.9-29-18.48-1.32v36.3l-9.24-.66-.66-22.44H419.19l-2.64-70H405.33l-4-7.26-7.26,8.58-15.18-2-4,2.64v66l-20.46-.66,2.64-60.72-4-2.64L351.87,2.64,313.59,0l-2.34,55v0L289,60.17l-10-45-43,7v47H209v-27H181l-7-27H148l-7,66-6-25-53-13,3,50-25-12-5-66-55,11v829l1920-.47V28.17ZM806.61,119.52H800V112.7h6.6Zm0-8.52H800v-6.82h6.6Zm.58,86.34h-6.52v-6.82h6.52Zm22.52-128.1h6.6v6.82h-6.6Zm0,8.52h6.6v6.82h-6.6Zm0,8.52h6.6V93.1h-6.6Zm0,8.53h6.6v6.81h-6.6Zm0,9.37h6.6V111h-6.6Zm0,8.52h6.6v6.82h-6.6Zm-9.9-26.42h6.6V93.1h-6.6Zm0,8.53h6.6v6.81h-6.6Zm0,9.37h6.6V111h-6.6Zm0,8.52h6.6v6.82h-6.6Zm-9.9-26.42h6.6V93.1h-6.6Zm0,8.53h6.6v6.81h-6.6Zm0,9.37h6.6V111h-6.6Zm0,8.52h6.6v6.82h-6.6Zm0,8.52h6.6V128h-6.6ZM817,197.34h-6.53v-6.82H817Zm0-8.52h-6.53V182H817Zm0-8.52h-6.53v-6.82H817Zm0-9.38h-6.53v-6.81H817Zm0-8.52h-6.53v-6.82H817Zm0-8.52h-6.53v-6.82H817Zm0-8.52h-6.53v-6.82H817Zm0-8.52h-6.53V130H817Zm2.83-15.62h6.6V128h-6.6Zm7,76.12h-6.52v-6.82h6.52Zm0-8.52h-6.52V182h6.52Zm0-8.52h-6.52v-6.82h6.52Zm0-9.38h-6.52v-6.81h6.52Zm0-8.52h-6.52v-6.82h6.52Zm0-8.52h-6.52v-6.82h6.52Zm0-8.52h-6.52v-6.82h6.52Zm0-8.52h-6.52V130h6.52Zm3-15.62h6.6V128h-6.6Zm6.83,76.12H830v-6.82h6.52Zm0-8.52H830V182h6.52Zm0-8.52H830v-6.82h6.52Zm0-9.38H830v-6.81h6.52Zm0-8.52H830v-6.82h6.52Zm0-8.52H830v-6.82h6.52Zm0-8.52H830v-6.82h6.52Zm0-8.52H830V130h6.52Zm9.79,60.5h-6.52v-6.82h6.52Zm0-8.52h-6.52V182h6.52Zm0-8.52h-6.52v-6.82h6.52Zm0-9.38h-6.52v-6.81h6.52Zm0-8.52h-6.52v-6.82h6.52Zm0-8.52h-6.52v-6.82h6.52Zm0-8.52h-6.52v-6.82h6.52Zm0-8.52h-6.52V130h6.52Zm9.78,60.5h-6.52v-6.82h6.52Zm0-8.52h-6.52V182h6.52Zm0-8.52h-6.52v-6.82h6.52Zm0-9.38h-6.52v-6.81h6.52Zm0-8.52h-6.52v-6.82h6.52Zm0-8.52h-6.52v-6.82h6.52Zm0-8.52h-6.52v-6.82h6.52Zm504.24,20.3h-2.64v-5.95h2.64Zm0-7.44h-2.64v-5.94h2.64Zm0-7.43h-2.64v-5.95h2.64Zm0-8.18h-2.64v-6h2.64Zm0-7.44h-2.64v-5.94h2.64Zm0-7.43h-2.64v-5.95h2.64Zm0-7.44h-2.64v-5.94h2.64Zm0-7.43h-2.64v-6h2.64Zm4,52.79h-2.64v-5.95h2.64Zm0-7.44h-2.64v-5.94h2.64Zm0-7.43h-2.64v-5.95h2.64Zm0-8.18h-2.64v-6h2.64Zm0-7.44h-2.64v-5.94h2.64Zm0-7.43h-2.64v-5.95h2.64Zm0-7.44h-2.64v-5.94h2.64Zm0-7.43h-2.64v-6h2.64Zm4,52.79h-2.64v-5.95h2.64Zm0-7.44h-2.64v-5.94h2.64Zm0-7.43h-2.64v-5.95h2.64Zm0-8.18h-2.64v-6h2.64Zm0-7.44h-2.64v-5.94h2.64Zm0-7.43h-2.64v-5.95h2.64Zm0-7.44h-2.64v-5.94h2.64Zm0-7.43h-2.64v-6h2.64Zm4,52.79h-2.64v-5.95h2.64Zm0-7.44h-2.64v-5.94h2.64Zm0-7.43h-2.64v-5.95h2.64Zm0-8.18h-2.64v-6h2.64Zm0-7.44h-2.64v-5.94h2.64Zm0-7.43h-2.64v-5.95h2.64Zm0-7.44h-2.64v-5.94h2.64Zm0-7.43h-2.64v-6h2.64Zm4,52.79h-2.64v-5.95h2.64Zm0-7.44h-2.64v-5.94h2.64Zm0-7.43h-2.64v-5.95h2.64Zm0-8.18h-2.64v-6h2.64Zm0-7.44h-2.64v-5.94h2.64Zm0-7.43h-2.64v-5.95h2.64Zm0-7.44h-2.64v-5.94h2.64Zm0-7.43h-2.64v-6h2.64Zm4,52.79h-2.64v-5.95h2.64Zm0-7.44h-2.64v-5.94h2.64Zm0-7.43h-2.64v-5.95h2.64Zm0-8.18h-2.64v-6h2.64Zm0-7.44h-2.64v-5.94h2.64Zm0-7.43h-2.64v-5.95h2.64Zm0-7.44h-2.64v-5.94h2.64Z"/></g></g></svg>