<svg xmlns="http://www.w3.org/2000/svg" xmlns:xlink="http://www.w3.org/1999/xlink" viewBox="0 0 2040 1295"><defs><style>.cls-1{fill:url(#Безымянный_градиент_109);}</style><linearGradient id="Безымянный_градиент_109" x1="1020" y1="1295" x2="1020" gradientUnits="userSpaceOnUse"><stop offset="0"/><stop offset="1" stop-opacity="0"/></linearGradient></defs><title>landscape</title><g id="Capa_2" data-name="Capa 2"><g id="landscape2"><path class="cls-1" d="M1991,351l4-114-13-115s-8,0-8-4,3-15,0-16-8-10-12-11,3,24,0,24-14-3-10-7,4-41,0-45-30,23-29,27,4,37,0,35-10-7-7-8,0-26,0-26h-5V81h-4v19h-4l-5-4v51l-12-1v27l-19,1-1-15-52,2,15,6-11-1,2,9-13-11-3,8,10,5-15-3-1,7-8-21-1,78-18-1V182l-8-6V144l-13-9h-9l-4,49-9,1-8,6v30l-27,34-21,2,2-17V219l1-23-3-25-2-4.29V171h-4v-9h1.8l-2.8-6-24,2-7-2-3,21,1,52v19l-16-1,2-34-7-11V189l-13,2-2-9V164l-20,1v22l-4,10,2,42-21-4a67.34,67.34,0,0,1-10-1c-6-1,2-22,2-27s-2-14-6-17,0-27,0-27h-11c-3,0,0,15-2,15s-3,3-6,0-8,13-8,13-4,11-8,11,1-15,0-24-12,14-15,13,10,55,4,56-20,0-20,0l1-18-7-9-16,2-2,31h-4l-1-49-19-3-1,46-23-8,1-37-7-3-3,2-2-9h-5l-6,27-1,30-13-3v-8l-7,1v29l-7,5V257l-6-8-6,9-14-9-10-33-4,28-13,1-1,33v24l-19-11-1-34-34-2v16l-32,12,7-23-25-9V225l-9,13,8-37,2-25-9,19-17-11,3,26-8-14-11,8,11-35-24,24V172l-14,55-17-8V192l-8-1-1-12-2-29-22-7-3,57-25,5,3,14-13-10v22l-11-30-1,14-6-17-5,17-39-2v21l-14-3V201H947l-7-28H930l-4,32,1,24-25,7,3,49-16-3V258H877l2-29V201l-3-1.11v7.44h-9.88V197h2L860,194h-9V183.67h8.79l0-2.58H851V170.76h8.53l0-2.58H851V157.85h8.27l-.08-3.88H851V143.65h8l-.05-2.59H851V130.73h7.72l-.05-2.58H851V117.82h7.46l-.05-2.58H851V104.91h7.2l-.05-2.58H851V95h-5v7.33H836V97.08l-5,2.09v3.16h-2v2.58h2v10.33h-2v2.58h2v10.33H821V123h-5v5.15H806V117.82h4.31l-2.85-2.58H806v-1.33l-1-.91-3,10-1,15v3.06h-.2l-.18,2.59H801V154H791v-4.43L787,148l4,45.67v-10h10V194H791l1,11.08V197h9.88v10.33H792.2l.22,2.58h9.46v10.33h-8.55l.22,2.58h8.33v10.33h-7.42l.22,2.58h7.2v10.33h-6.29l.23,2.59h6.06V259h-5.16l.34,3.88h4.82v10.33H798l.23,2.58h3.69v10.33H792V275.76h.84L753,216l-31,2-5,44-9-37-10,19-1-30-44,6-8,79-7-68-12-52,2-38-9-7-6-17L583,99l1-59L551,50l-4,50-11,6-3,41,4.1,9.46-.18-8.07L545,143l3,12,16-4,7,11-12-2-8,11h18l9,18-9-8-31.31,2.76,0,1.48L557,194H537.91l.09,4-.29,3.24L547,213l-9.92-4.55L535,232l-15,55-11-14,1-37-8,1-10-30-25,4H452l-5-5-8,5,2,25H405V203l-22-1-3-18-44-1-3,9H297l-2-28-15-44-28-2v55l-14-1-1-34H214L210,32H193l-6-11L176,34l-23-3-6,4V135l-31-1,4-92-6-4L112,4,54,0,0,1271l2040,24ZM801,181.09H791V170.76h10Zm0-12.91H791V157.85h10ZM801.88,299H792V288.67h9.88ZM836,104.91h10v10.33H836Zm0,12.91h10v10.33H836Zm0,12.91h10v10.33H836Zm0,12.92h10V154H836Zm0,14.2h10v10.33H836Zm0,12.91h10v10.33H836Zm-15-40h10v10.33H821Zm0,12.92h10V154H821Zm0,14.2h10v10.33H821Zm0,12.91h10v10.33H821Zm-15-40h10v10.33H806Zm0,12.92h10V154H806Zm0,14.2h10v10.33H806Zm0,12.91h10v10.33H806Zm0,12.91h10V194H806ZM816.71,299h-9.89V288.67h9.89Zm0-12.91h-9.89V275.76h9.89Zm0-12.91h-9.89V262.85h9.89Zm0-14.21h-9.89V248.65h9.89Zm0-12.91h-9.89V235.73h9.89Zm0-12.91h-9.89V222.82h9.89Zm0-12.91h-9.89V209.91h9.89Zm0-12.91h-9.89V197h9.89ZM821,183.67h10V194H821ZM831.53,299h-9.88V288.67h9.88Zm0-12.91h-9.88V275.76h9.88Zm0-12.91h-9.88V262.85h9.88Zm0-14.21h-9.88V248.65h9.88Zm0-12.91h-9.88V235.73h9.88Zm0-12.91h-9.88V222.82h9.88Zm0-12.91h-9.88V209.91h9.88Zm0-12.91h-9.88V197h9.88ZM836,183.67h10V194H836ZM846.35,299h-9.88V288.67h9.88Zm0-12.91h-9.88V275.76h9.88Zm0-12.91h-9.88V262.85h9.88Zm0-14.21h-9.88V248.65h9.88Zm0-12.91h-9.88V235.73h9.88Zm0-12.91h-9.88V222.82h9.88Zm0-12.91h-9.88V209.91h9.88Zm0-12.91h-9.88V197h9.88ZM861.18,299h-9.89V288.67h9.89Zm0-12.91h-9.89V275.76h9.89Zm0-12.91h-9.89V262.85h9.89Zm0-14.21h-9.89V248.65h9.89Zm0-12.91h-9.89V235.73h9.89Zm0-12.91h-9.89V222.82h9.89Zm0-12.91h-9.89V209.91h9.89Zm0-12.91h-9.89V197h9.89ZM876,299h-9.88V288.67H876Zm0-12.91h-9.88V275.76H876Zm0-12.91h-9.88V262.85H876ZM876,259h-9.88V248.65H876Zm0-12.91h-9.88V235.73H876Zm0-12.91h-9.88V222.82H876Zm0-12.91h-9.88V209.91H876ZM1640,251h-4v-9h4Zm0-11.27h-4v-9h4Zm0-11.26h-4v-9h4Zm0-12.39h-4v-9h4Zm0-11.27h-4v-9h4Zm0-11.27h-4v-9h4Zm0-11.26h-4v-9h4Zm0-11.27h-4v-9h4Zm6,80h-4v-9h4Zm0-11.27h-4v-9h4Zm0-11.26h-4v-9h4Zm0-12.39h-4v-9h4Zm0-11.27h-4v-9h4Zm0-11.27h-4v-9h4Zm0-11.26h-4v-9h4Zm0-11.27h-4v-9h4Zm6,80h-4v-9h4Zm0-11.27h-4v-9h4Zm0-11.26h-4v-9h4Zm0-12.39h-4v-9h4Zm0-11.27h-4v-9h4Zm0-11.27h-4v-9h4Zm0-11.26h-4v-9h4Zm0-11.27h-4v-9h4Zm6,80h-4v-9h4Zm0-11.27h-4v-9h4Zm0-11.26h-4v-9h4Zm0-12.39h-4v-9h4Zm0-11.27h-4v-9h4Zm0-11.27h-4v-9h4Zm0-11.26h-4v-9h4Zm0-11.27h-4v-9h4Zm6,80h-4v-9h4Zm0-11.27h-4v-9h4Zm0-11.26h-4v-9h4Zm0-12.39h-4v-9h4Zm0-11.27h-4v-9h4Zm0-11.27h-4v-9h4Zm0-11.26h-4v-9h4Zm0-11.27h-4v-9h4Zm6,80h-4v-9h4Zm0-11.27h-4v-9h4Zm0-11.26h-4v-9h4Zm0-12.39h-4v-9h4Zm0-11.27h-4v-9h4Zm0-11.27h-4v-9h4Zm0-11.26h-4v-9h4Z"/></g></g></svg>