<svg xmlns="http://www.w3.org/2000/svg" xmlns:xlink="http://www.w3.org/1999/xlink" viewBox="0 0 818.87 367.34"><defs><style>.cls-1{fill:url(#Безымянный_градиент_13);}.cls-2{fill:url(#Безымянный_градиент_10);}.cls-3{fill:url(#Безымянный_градиент_13-2);}.cls-4{fill:url(#Безымянный_градиент_10-2);}.cls-5{fill:url(#Безымянный_градиент_30);}.cls-6{fill:url(#Безымянный_градиент_26);}.cls-7{fill:url(#Безымянный_градиент_26-2);}.cls-8{fill:url(#Безымянный_градиент_26-3);}.cls-9{fill:url(#Безымянный_градиент_26-4);}.cls-10{fill:url(#Безымянный_градиент_26-5);}.cls-11{fill:url(#Безымянный_градиент_13-3);}.cls-12{fill:url(#Безымянный_градиент_10-3);}.cls-13{fill:url(#Безымянный_градиент_13-4);}.cls-14{fill:url(#Безымянный_градиент_10-4);}.cls-15{fill:url(#Безымянный_градиент_30-2);}.cls-16{fill:url(#Безымянный_градиент_26-6);}.cls-17{fill:url(#Безымянный_градиент_26-7);}.cls-18{fill:url(#Безымянный_градиент_26-8);}.cls-19{fill:url(#Безымянный_градиент_26-9);}.cls-20{fill:url(#Безымянный_градиент_26-10);}.cls-21{fill:url(#Безымянный_градиент_13-5);}.cls-22{fill:url(#Безымянный_градиент_10-5);}.cls-23{fill:url(#Безымянный_градиент_13-6);}.cls-24{fill:url(#Безымянный_градиент_10-6);}.cls-25{fill:url(#Безымянный_градиент_30-3);}.cls-26{fill:url(#Безымянный_градиент_26-11);}.cls-27{fill:url(#Безымянный_градиент_26-12);}.cls-28{fill:url(#Безымянный_градиент_26-13);}.cls-29{fill:url(#Безымянный_градиент_26-14);}.cls-30{fill:url(#Безымянный_градиент_26-15);}.cls-31{fill:url(#Безымянный_градиент_13-7);}.cls-32{fill:url(#Безымянный_градиент_10-7);}.cls-33{fill:url(#Безымянный_градиент_13-8);}.cls-34{fill:url(#Безымянный_градиент_10-8);}.cls-35{fill:url(#Безымянный_градиент_30-4);}.cls-36{fill:url(#Безымянный_градиент_26-16);}.cls-37{fill:url(#Безымянный_градиент_26-17);}.cls-38{fill:url(#Безымянный_градиент_26-18);}.cls-39{fill:url(#Безымянный_градиент_26-19);}.cls-40{fill:url(#Безымянный_градиент_26-20);}.cls-41{fill:url(#Безымянный_градиент_13-9);}.cls-42{fill:url(#Безымянный_градиент_10-9);}.cls-43{fill:url(#Безымянный_градиент_13-10);}.cls-44{fill:url(#Безымянный_градиент_10-10);}.cls-45{fill:url(#Безымянный_градиент_30-5);}.cls-46{fill:url(#Безымянный_градиент_26-21);}.cls-47{fill:url(#Безымянный_градиент_26-22);}.cls-48{fill:url(#Безымянный_градиент_26-23);}.cls-49{fill:url(#Безымянный_градиент_26-24);}.cls-50{fill:url(#Безымянный_градиент_26-25);}.cls-51{fill:url(#Безымянный_градиент_13-11);}.cls-52{fill:url(#Безымянный_градиент_10-11);}.cls-53{fill:url(#Безымянный_градиент_13-12);}.cls-54{fill:url(#Безымянный_градиент_10-12);}.cls-55{fill:url(#Безымянный_градиент_30-6);}.cls-56{fill:url(#Безымянный_градиент_26-26);}.cls-57{fill:url(#Безымянный_градиент_26-27);}.cls-58{fill:url(#Безымянный_градиент_26-28);}.cls-59{fill:url(#Безымянный_градиент_26-29);}.cls-60{fill:url(#Безымянный_градиент_26-30);}.cls-61{fill:url(#Безымянный_градиент_13-13);}.cls-62{fill:url(#Безымянный_градиент_10-13);}.cls-63{fill:url(#Безымянный_градиент_13-14);}.cls-64{fill:url(#Безымянный_градиент_10-14);}.cls-65{fill:url(#Безымянный_градиент_30-7);}.cls-66{fill:url(#Безымянный_градиент_26-31);}.cls-67{fill:url(#Безымянный_градиент_26-32);}.cls-68{fill:url(#Безымянный_градиент_26-33);}.cls-69{fill:url(#Безымянный_градиент_26-34);}.cls-70{fill:url(#Безымянный_градиент_26-35);}.cls-71{fill:url(#Безымянный_градиент_5);}.cls-72{fill:url(#Безымянный_градиент_26-36);}.cls-73{fill:url(#Безымянный_градиент_26-37);}.cls-74{fill:url(#Безымянный_градиент_11);}.cls-75{fill:url(#Безымянный_градиент_5-2);}.cls-76{fill:url(#Безымянный_градиент_26-38);}.cls-77{fill:url(#Безымянный_градиент_26-39);}.cls-78{fill:url(#Безымянный_градиент_11-2);}.cls-79{fill:url(#Безымянный_градиент_5-3);}.cls-80{fill:url(#Безымянный_градиент_26-40);}.cls-81{fill:url(#Безымянный_градиент_26-41);}.cls-82{fill:url(#Безымянный_градиент_11-3);}.cls-83{fill:url(#Безымянный_градиент_5-4);}.cls-84{fill:url(#Безымянный_градиент_26-42);}.cls-85{fill:url(#Безымянный_градиент_26-43);}.cls-86{fill:url(#Безымянный_градиент_11-4);}</style><linearGradient id="Безымянный_градиент_13" x1="6613.13" y1="2582.11" x2="6680.13" y2="2582.11" gradientTransform="matrix(-0.54, -0.87, -0.84, 0.54, 6447.21, 4488.89)" gradientUnits="userSpaceOnUse"><stop offset="0" stop-color="#514943"/><stop offset="0.49" stop-color="#524b43"/><stop offset="0.71" stop-color="#565243"/><stop offset="0.86" stop-color="#5c5f44"/><stop offset="1" stop-color="#657044"/><stop offset="1" stop-color="#657144"/></linearGradient><linearGradient id="Безымянный_градиент_10" x1="6640.9" y1="2467.72" x2="6640.9" y2="2422.43" gradientTransform="matrix(-0.54, -0.87, -0.84, 0.54, 6447.21, 4488.89)" gradientUnits="userSpaceOnUse"><stop offset="0" stop-color="#514943"/><stop offset="0.34" stop-color="#534c43"/><stop offset="0.63" stop-color="#585743"/><stop offset="0.9" stop-color="#616944"/><stop offset="1" stop-color="#657144"/></linearGradient><linearGradient id="Безымянный_градиент_13-2" x1="6598.02" y1="2594.54" x2="6598.02" y2="2572.34" xlink:href="#Безымянный_градиент_13"/><linearGradient id="Безымянный_градиент_10-2" x1="6618.59" y1="2541.44" x2="6618.59" y2="2500.55" xlink:href="#Безымянный_градиент_10"/><linearGradient id="Безымянный_градиент_30" x1="6627.52" y1="2536.22" x2="6660.58" y2="2536.22" gradientTransform="matrix(-0.54, -0.87, -0.84, 0.54, 6447.21, 4488.89)" gradientUnits="userSpaceOnUse"><stop offset="0" stop-color="#514943"/><stop offset="0.08" stop-color="#545043"/><stop offset="0.37" stop-color="#5e6244"/><stop offset="0.67" stop-color="#636d44"/><stop offset="1" stop-color="#657144"/></linearGradient><linearGradient id="Безымянный_градиент_26" x1="6544.04" y1="2579.95" x2="6604.12" y2="2579.95" gradientTransform="matrix(-0.54, -0.87, -0.84, 0.54, 6447.21, 4488.89)" gradientUnits="userSpaceOnUse"><stop offset="0" stop-color="#9baa61"/><stop offset="1" stop-color="#657144"/></linearGradient><linearGradient id="Безымянный_градиент_26-2" x1="6584.08" y1="2495.51" x2="6629.58" y2="2495.51" gradientTransform="matrix(-0.62, -1.01, -0.94, 0.62, 7218.31, 5259.31)" xlink:href="#Безымянный_градиент_26"/><linearGradient id="Безымянный_градиент_26-3" x1="6664.77" y1="2546.38" x2="6664.77" y2="2518.11" xlink:href="#Безымянный_градиент_26"/><linearGradient id="Безымянный_градиент_26-4" x1="6679.59" y1="2510.79" x2="6679.59" y2="2455.17" xlink:href="#Безымянный_градиент_26"/><linearGradient id="Безымянный_градиент_26-5" x1="6599.52" y1="2437.25" x2="6640.94" y2="2437.25" xlink:href="#Безымянный_градиент_26"/><linearGradient id="Безымянный_градиент_13-3" x1="7089.47" y1="2485.71" x2="7155.8" y2="2485.71" gradientTransform="matrix(-0.66, -0.78, -0.75, 0.67, 7162.65, 3990.45)" xlink:href="#Безымянный_градиент_13"/><linearGradient id="Безымянный_градиент_10-3" x1="7116.81" y1="2370.56" x2="7116.81" y2="2324.96" gradientTransform="matrix(-0.66, -0.78, -0.75, 0.67, 7162.65, 3990.45)" xlink:href="#Безымянный_градиент_10"/><linearGradient id="Безымянный_градиент_13-4" x1="7074.36" y1="2498.18" x2="7074.36" y2="2475.81" gradientTransform="matrix(-0.66, -0.78, -0.75, 0.67, 7162.65, 3990.45)" xlink:href="#Безымянный_градиент_13"/><linearGradient id="Безымянный_градиент_10-4" x1="7094.72" y1="2444.74" x2="7094.72" y2="2403.57" gradientTransform="matrix(-0.66, -0.78, -0.75, 0.67, 7162.65, 3990.45)" xlink:href="#Безымянный_градиент_10"/><linearGradient id="Безымянный_градиент_30-2" x1="7103.63" y1="2439.5" x2="7136.45" y2="2439.5" gradientTransform="matrix(-0.66, -0.78, -0.75, 0.67, 7162.65, 3990.45)" xlink:href="#Безымянный_градиент_30"/><linearGradient id="Безымянный_градиент_26-6" x1="7020.73" y1="2483.45" x2="7080.41" y2="2483.45" gradientTransform="matrix(-0.69, -0.8, -0.78, 0.68, 7387.63, 4082.34)" xlink:href="#Безымянный_градиент_26"/><linearGradient id="Безымянный_градиент_26-7" x1="7060.39" y1="2398.47" x2="7105.63" y2="2398.47" gradientTransform="matrix(-0.66, -0.78, -0.75, 0.67, 7162.65, 3990.45)" xlink:href="#Безымянный_градиент_26"/><linearGradient id="Безымянный_градиент_26-8" x1="7140.62" y1="2449.75" x2="7140.62" y2="2421.29" gradientTransform="matrix(-0.66, -0.78, -0.75, 0.67, 7162.65, 3990.45)" xlink:href="#Безымянный_градиент_26"/><linearGradient id="Безымянный_градиент_26-9" x1="7155.28" y1="2413.97" x2="7155.28" y2="2357.97" gradientTransform="matrix(-0.66, -0.78, -0.75, 0.67, 7162.65, 3990.45)" xlink:href="#Безымянный_градиент_26"/><linearGradient id="Безымянный_градиент_26-10" x1="7075.71" y1="2339.85" x2="7116.84" y2="2339.85" gradientTransform="matrix(-0.66, -0.78, -0.75, 0.67, 7162.65, 3990.45)" xlink:href="#Безымянный_градиент_26"/><linearGradient id="Безымянный_градиент_13-5" x1="4901.57" y1="2866.19" x2="4966.82" y2="2866.19" gradientTransform="matrix(0.03, -1.02, -1, -0.05, 3169.63, 5376.65)" xlink:href="#Безымянный_градиент_13"/><linearGradient id="Безымянный_градиент_10-5" x1="4926.46" y1="2754.15" x2="4926.46" y2="2709.67" gradientTransform="matrix(0.03, -1.02, -1, -0.05, 3169.63, 5376.65)" xlink:href="#Безымянный_градиент_10"/><linearGradient id="Безымянный_градиент_13-6" x1="4884.77" y1="2878.02" x2="4884.77" y2="2856.01" gradientTransform="matrix(0.03, -1.02, -1, -0.05, 3169.63, 5376.65)" xlink:href="#Безымянный_градиент_13"/><linearGradient id="Безымянный_градиент_10-6" x1="4904.79" y1="2826.11" x2="4904.79" y2="2785.88" gradientTransform="matrix(0.03, -1.02, -1, -0.05, 3169.63, 5376.65)" xlink:href="#Безымянный_градиент_10"/><linearGradient id="Безымянный_градиент_30-3" x1="4914.31" y1="2821.2" x2="4947.85" y2="2821.2" gradientTransform="matrix(0.03, -1.02, -1, -0.05, 3169.63, 5376.65)" xlink:href="#Безымянный_градиент_30"/><linearGradient id="Безымянный_градиент_26-11" x1="4829.67" y1="2863.28" x2="4890.89" y2="2863.28" gradientTransform="matrix(-0.01, -1.11, -1.1, -0.1, 3664.69, 5919.48)" xlink:href="#Безымянный_градиент_26"/><linearGradient id="Безымянный_градиент_26-12" x1="4868.87" y1="2780.76" x2="4915.84" y2="2780.76" gradientTransform="matrix(0.03, -1.02, -1, -0.05, 3169.63, 5376.65)" xlink:href="#Безымянный_градиент_26"/><linearGradient id="Безымянный_градиент_26-13" x1="4952.16" y1="2831.33" x2="4952.16" y2="2803.57" gradientTransform="matrix(0.03, -1.02, -1, -0.05, 3169.63, 5376.65)" xlink:href="#Безымянный_градиент_26"/><linearGradient id="Безымянный_градиент_26-14" x1="4966.45" y1="2796.9" x2="4966.45" y2="2742.32" gradientTransform="matrix(0.03, -1.02, -1, -0.05, 3169.63, 5376.65)" xlink:href="#Безымянный_градиент_26"/><linearGradient id="Безымянный_градиент_26-15" x1="4884.34" y1="2723.93" x2="4926.31" y2="2723.93" gradientTransform="matrix(0.03, -1.02, -1, -0.05, 3169.63, 5376.65)" xlink:href="#Безымянный_градиент_26"/><linearGradient id="Безымянный_градиент_13-7" x1="7156.57" y1="2581.69" x2="7222.85" y2="2581.69" gradientTransform="matrix(-0.67, -0.77, -0.75, 0.67, 7192.6, 3926.78)" xlink:href="#Безымянный_градиент_13"/><linearGradient id="Безымянный_градиент_10-7" x1="7183.87" y1="2466.51" x2="7183.87" y2="2420.89" gradientTransform="matrix(-0.67, -0.77, -0.75, 0.67, 7192.6, 3926.78)" xlink:href="#Безымянный_градиент_10"/><linearGradient id="Безымянный_градиент_13-8" x1="7141.45" y1="2594.17" x2="7141.45" y2="2571.79" gradientTransform="matrix(-0.67, -0.77, -0.75, 0.67, 7192.6, 3926.78)" xlink:href="#Безымянный_градиент_13"/><linearGradient id="Безымянный_градиент_10-8" x1="7161.8" y1="2540.71" x2="7161.8" y2="2499.52" gradientTransform="matrix(-0.67, -0.77, -0.75, 0.67, 7192.6, 3926.78)" xlink:href="#Безымянный_градиент_10"/><linearGradient id="Безымянный_градиент_30-4" x1="7170.7" y1="2535.48" x2="7203.51" y2="2535.48" gradientTransform="matrix(-0.67, -0.77, -0.75, 0.67, 7192.6, 3926.78)" xlink:href="#Безымянный_градиент_30"/><linearGradient id="Безымянный_градиент_26-16" x1="7087.84" y1="2579.43" x2="7147.49" y2="2579.43" gradientTransform="matrix(-0.67, -0.77, -0.75, 0.67, 7192.6, 3926.78)" xlink:href="#Безымянный_градиент_26"/><linearGradient id="Безымянный_градиент_26-17" x1="7127.47" y1="2494.43" x2="7172.7" y2="2494.43" gradientTransform="matrix(-0.67, -0.77, -0.75, 0.67, 7192.6, 3926.78)" xlink:href="#Безымянный_градиент_26"/><linearGradient id="Безымянный_градиент_26-18" x1="7207.68" y1="2545.73" x2="7207.68" y2="2517.26" gradientTransform="matrix(-0.67, -0.77, -0.75, 0.67, 7192.6, 3926.78)" xlink:href="#Безымянный_градиент_26"/><linearGradient id="Безымянный_градиент_26-19" x1="7222.33" y1="2509.93" x2="7222.33" y2="2453.92" gradientTransform="matrix(-0.67, -0.77, -0.75, 0.67, 7192.6, 3926.78)" xlink:href="#Безымянный_градиент_26"/><linearGradient id="Безымянный_градиент_26-20" x1="7142.78" y1="2435.79" x2="7183.9" y2="2435.79" gradientTransform="matrix(-0.67, -0.77, -0.75, 0.67, 7192.6, 3926.78)" xlink:href="#Безымянный_градиент_26"/><linearGradient id="Безымянный_градиент_13-9" x1="7073.49" y1="2786.79" x2="7139.98" y2="2786.79" gradientTransform="matrix(-0.64, -0.8, -0.77, 0.64, 7021.39, 4040.8)" xlink:href="#Безымянный_градиент_13"/><linearGradient id="Безымянный_градиент_10-9" x1="7100.94" y1="2671.78" x2="7100.94" y2="2626.24" gradientTransform="matrix(-0.64, -0.8, -0.77, 0.64, 7021.39, 4040.8)" xlink:href="#Безымянный_градиент_10"/><linearGradient id="Безымянный_градиент_13-10" x1="7058.4" y1="2799.26" x2="7058.4" y2="2776.92" gradientTransform="matrix(-0.64, -0.8, -0.77, 0.64, 7021.39, 4040.8)" xlink:href="#Безымянный_градиент_13"/><linearGradient id="Безымянный_градиент_10-10" x1="7078.81" y1="2745.88" x2="7078.81" y2="2704.76" gradientTransform="matrix(-0.64, -0.8, -0.77, 0.64, 7021.39, 4040.8)" xlink:href="#Безымянный_градиент_10"/><linearGradient id="Безымянный_градиент_30-5" x1="7087.71" y1="2740.64" x2="7120.58" y2="2740.64" gradientTransform="matrix(-0.64, -0.8, -0.77, 0.64, 7021.39, 4040.8)" xlink:href="#Безымянный_градиент_30"/><linearGradient id="Безымянный_градиент_26-21" x1="7004.7" y1="2784.56" x2="7064.45" y2="2784.56" gradientTransform="matrix(-0.64, -0.8, -0.77, 0.64, 7021.39, 4040.8)" xlink:href="#Безымянный_градиент_26"/><linearGradient id="Безымянный_градиент_26-22" x1="7044.45" y1="2699.68" x2="7089.73" y2="2699.68" gradientTransform="matrix(-0.7, -0.9, -0.83, 0.72, 7603.25, 4571.37)" xlink:href="#Безымянный_градиент_26"/><linearGradient id="Безымянный_градиент_26-23" x1="7124.75" y1="2750.87" x2="7124.75" y2="2722.45" gradientTransform="matrix(-0.64, -0.8, -0.77, 0.64, 7021.39, 4040.8)" xlink:href="#Безымянный_градиент_26"/><linearGradient id="Безымянный_градиент_26-24" x1="7139.46" y1="2715.12" x2="7139.46" y2="2659.19" gradientTransform="matrix(-0.64, -0.8, -0.77, 0.64, 7021.39, 4040.8)" xlink:href="#Безымянный_градиент_26"/><linearGradient id="Безымянный_градиент_26-25" x1="7059.79" y1="2641.12" x2="7100.98" y2="2641.12" gradientTransform="matrix(-0.64, -0.8, -0.77, 0.64, 7021.39, 4040.8)" xlink:href="#Безымянный_градиент_26"/><linearGradient id="Безымянный_градиент_13-11" x1="4816.7" y1="3082.65" x2="4881.7" y2="3082.65" gradientTransform="matrix(0.06, -1.02, -1, -0.08, 3017.92, 5453.8)" xlink:href="#Безымянный_градиент_13"/><linearGradient id="Безымянный_градиент_10-11" x1="4841.3" y1="2970.67" x2="4841.3" y2="2926.2" gradientTransform="matrix(0.06, -1.02, -1, -0.08, 3017.92, 5453.8)" xlink:href="#Безымянный_градиент_10"/><linearGradient id="Безымянный_градиент_13-12" x1="4799.77" y1="3094.45" x2="4799.77" y2="3072.43" gradientTransform="matrix(0.06, -1.02, -1, -0.08, 3017.92, 5453.8)" xlink:href="#Безымянный_градиент_13"/><linearGradient id="Безымянный_градиент_10-12" x1="4819.71" y1="3042.57" x2="4819.71" y2="3002.34" gradientTransform="matrix(0.06, -1.02, -1, -0.08, 3017.92, 5453.8)" xlink:href="#Безымянный_градиент_10"/><linearGradient id="Безымянный_градиент_30-6" x1="4829.27" y1="3037.69" x2="4862.81" y2="3037.69" gradientTransform="matrix(0.06, -1.02, -1, -0.08, 3017.92, 5453.8)" xlink:href="#Безымянный_градиент_30"/><linearGradient id="Безымянный_градиент_26-26" x1="4744.64" y1="3079.67" x2="4805.88" y2="3079.67" gradientTransform="matrix(0.06, -1.02, -1, -0.08, 3017.92, 5453.8)" xlink:href="#Безымянный_градиент_26"/><linearGradient id="Безымянный_градиент_26-27" x1="4783.71" y1="2997.21" x2="4830.76" y2="2997.21" gradientTransform="matrix(0.08, -1.07, -1.03, -0.06, 3014.64, 5630.87)" xlink:href="#Безымянный_градиент_26"/><linearGradient id="Безымянный_градиент_26-28" x1="4867.13" y1="3047.83" x2="4867.13" y2="3020.07" gradientTransform="matrix(0.06, -1.02, -1, -0.08, 3017.92, 5453.8)" xlink:href="#Безымянный_градиент_26"/><linearGradient id="Безымянный_градиент_26-29" x1="4881.35" y1="3013.45" x2="4881.35" y2="2958.88" gradientTransform="matrix(0.06, -1.02, -1, -0.08, 3017.92, 5453.8)" xlink:href="#Безымянный_градиент_26"/><linearGradient id="Безымянный_градиент_26-30" x1="4799.16" y1="2940.42" x2="4841.13" y2="2940.42" gradientTransform="matrix(0.06, -1.02, -1, -0.08, 3017.92, 5453.8)" xlink:href="#Безымянный_градиент_26"/><linearGradient id="Безымянный_градиент_13-13" x1="5942.62" y1="3299.53" x2="6009.59" y2="3299.53" gradientTransform="matrix(-0.27, -0.99, -0.97, 0.26, 4921.18, 5298.64)" xlink:href="#Безымянный_градиент_13"/><linearGradient id="Безымянный_градиент_10-13" x1="5969.79" y1="3186.56" x2="5969.79" y2="3141.79" gradientTransform="matrix(-0.27, -0.99, -0.97, 0.26, 4921.18, 5298.64)" xlink:href="#Безымянный_градиент_10"/><linearGradient id="Безымянный_градиент_13-14" x1="5926.94" y1="3311.72" x2="5926.94" y2="3289.73" gradientTransform="matrix(-0.27, -0.99, -0.97, 0.26, 4921.18, 5298.64)" xlink:href="#Безымянный_градиент_13"/><linearGradient id="Безымянный_градиент_10-14" x1="5947.5" y1="3259.3" x2="5947.5" y2="3218.88" gradientTransform="matrix(-0.27, -0.99, -0.97, 0.26, 4921.18, 5298.64)" xlink:href="#Безымянный_градиент_10"/><linearGradient id="Безымянный_градиент_30-7" x1="5956.65" y1="3254.2" x2="5990.07" y2="3254.2" gradientTransform="matrix(-0.27, -0.99, -0.97, 0.26, 4921.18, 5298.64)" xlink:href="#Безымянный_градиент_30"/><linearGradient id="Безымянный_градиент_26-31" x1="5872.29" y1="3297.2" x2="5933.08" y2="3297.2" gradientTransform="matrix(-0.27, -0.99, -0.97, 0.26, 4921.18, 5298.64)" xlink:href="#Безымянный_градиент_26"/><linearGradient id="Безымянный_градиент_26-32" x1="5912.38" y1="3213.85" x2="5958.58" y2="3213.85" gradientTransform="matrix(-0.27, -0.99, -0.97, 0.26, 4921.18, 5298.64)" xlink:href="#Безымянный_градиент_26"/><linearGradient id="Безымянный_градиент_26-33" x1="5994.32" y1="3264.27" x2="5994.32" y2="3236.34" gradientTransform="matrix(-0.27, -0.99, -0.97, 0.26, 4921.18, 5298.64)" xlink:href="#Безымянный_градиент_26"/><linearGradient id="Безымянный_градиент_26-34" x1="6009.1" y1="3229.23" x2="6009.1" y2="3174.27" gradientTransform="matrix(-0.27, -0.99, -0.97, 0.26, 4921.18, 5298.64)" xlink:href="#Безымянный_градиент_26"/><linearGradient id="Безымянный_градиент_26-35" x1="5927.93" y1="3156.37" x2="5969.78" y2="3156.37" gradientTransform="matrix(-0.27, -0.99, -0.97, 0.26, 4921.18, 5298.64)" xlink:href="#Безымянный_градиент_26"/><linearGradient id="Безымянный_градиент_5" x1="3389.18" y1="-1684.88" x2="3389.18" y2="-1718.25" gradientTransform="matrix(0.01, -0.6, -0.8, -0.1, -917.5, 2083.31)" gradientUnits="userSpaceOnUse"><stop offset="0" stop-color="#514943"/><stop offset="0.5" stop-color="#524b43"/><stop offset="0.71" stop-color="#565243"/><stop offset="0.87" stop-color="#5c5e44"/><stop offset="0.99" stop-color="#647044"/><stop offset="1" stop-color="#657144"/></linearGradient><linearGradient id="Безымянный_градиент_26-36" x1="3425.38" y1="-1720.33" x2="3395.66" y2="-1737.49" gradientTransform="matrix(0.01, -0.6, -0.8, -0.1, -917.5, 2083.31)" xlink:href="#Безымянный_градиент_26"/><linearGradient id="Безымянный_градиент_26-37" x1="3290.82" y1="-1743.78" x2="3351.28" y2="-1743.78" gradientTransform="matrix(0.01, -0.6, -0.8, -0.1, -917.5, 2083.31)" xlink:href="#Безымянный_градиент_26"/><linearGradient id="Безымянный_градиент_11" x1="2810.94" y1="1682.92" x2="2810.94" y2="1624.2" gradientTransform="matrix(0.78, -0.44, -0.56, -0.81, -797.83, 2812.25)" gradientUnits="userSpaceOnUse"><stop offset="0" stop-color="#514943"/><stop offset="0.54" stop-color="#524b43"/><stop offset="0.74" stop-color="#555243"/><stop offset="0.87" stop-color="#5b5d44"/><stop offset="0.99" stop-color="#646e44"/><stop offset="1" stop-color="#657144"/></linearGradient><linearGradient id="Безымянный_градиент_5-2" x1="3382.28" y1="-1355.14" x2="3382.28" y2="-1392.4" gradientTransform="matrix(0.43, 0.42, -0.49, 0.63, -1869.12, -375.76)" xlink:href="#Безымянный_градиент_5"/><linearGradient id="Безымянный_градиент_26-38" x1="3425.86" y1="-1395.34" x2="3392.77" y2="-1414.44" gradientTransform="matrix(0.43, 0.42, -0.49, 0.63, -1869.12, -375.76)" xlink:href="#Безымянный_градиент_26"/><linearGradient id="Безымянный_градиент_26-39" x1="3279.28" y1="-1415.1" x2="3345.09" y2="-1415.1" gradientTransform="matrix(0.43, 0.42, -0.49, 0.63, -1869.12, -375.76)" xlink:href="#Безымянный_градиент_26"/><linearGradient id="Безымянный_градиент_11-2" x1="2586.58" y1="1839.99" x2="2586.58" y2="1782.03" gradientTransform="matrix(0.86, -0.22, 0.17, 0.97, -2298.28, -983.67)" xlink:href="#Безымянный_градиент_11"/><linearGradient id="Безымянный_градиент_5-3" x1="3424.42" y1="-1443.8" x2="3424.42" y2="-1481.06" gradientTransform="matrix(-0.37, -0.41, -0.59, 0.34, 756.56, 2175.93)" xlink:href="#Безымянный_градиент_5"/><linearGradient id="Безымянный_градиент_26-40" x1="3467.99" y1="-1484" x2="3434.91" y2="-1503.1" gradientTransform="matrix(-0.37, -0.41, -0.59, 0.34, 756.56, 2175.93)" xlink:href="#Безымянный_градиент_26"/><linearGradient id="Безымянный_градиент_26-41" x1="3321.42" y1="-1503.76" x2="3387.22" y2="-1503.76" gradientTransform="matrix(-0.48, -0.28, -0.46, 0.51, 1329.82, 1977.51)" xlink:href="#Безымянный_градиент_26"/><linearGradient id="Безымянный_градиент_11-3" x1="2662.45" y1="1818.62" x2="2662.45" y2="1760.66" gradientTransform="matrix(0.24, -0.71, -0.87, -0.26, 1289.27, 2612.85)" xlink:href="#Безымянный_градиент_11"/><linearGradient id="Безымянный_градиент_5-4" x1="3535.83" y1="-1705.25" x2="3535.83" y2="-1742.51" gradientTransform="matrix(-0.37, -0.41, -0.59, 0.34, 756.56, 2175.93)" xlink:href="#Безымянный_градиент_5"/><linearGradient id="Безымянный_градиент_26-42" x1="3579.41" y1="-1745.45" x2="3546.33" y2="-1764.55" gradientTransform="matrix(-0.37, -0.41, -0.59, 0.34, 756.56, 2175.93)" xlink:href="#Безымянный_градиент_26"/><linearGradient id="Безымянный_градиент_26-43" x1="3432.83" y1="-1765.21" x2="3498.64" y2="-1765.21" gradientTransform="matrix(-0.37, -0.41, -0.59, 0.34, 756.56, 2175.93)" xlink:href="#Безымянный_градиент_26"/><linearGradient id="Безымянный_градиент_11-4" x1="2881.17" y1="1748.8" x2="2881.17" y2="1690.83" gradientTransform="matrix(0.24, -0.71, -0.87, -0.26, 1289.27, 2612.85)" xlink:href="#Безымянный_градиент_11"/></defs><title>plant2</title><g id="Capa_2" data-name="Capa 2"><g id="PLANTES"><path class="cls-1" d="M750.55,21.42S769.13,36,754.33,55.53s-59.21,58.17-59.21,58.17-78.65,61-87.19,65.72-41.71,23.4-41.71,23.4,10.94-3.43,12.79.54,98.6-66.57,101.17-69.5,74-65.78,80.17-78.49c3.77-7.76,5-13.4,3.6-19.41-1.13-4.87-3.58-9.89-11.06-17.09C739.93,10.87,750.55,21.42,750.55,21.42Z"/><path class="cls-2" d="M799.6,37.44S789.74,22.37,761.05,53c-4.44,2.7,1.89-9.77,1.89-9.77s26.56-19.77,34.39-12.58C808.49,40.9,799.6,37.44,799.6,37.44Z"/><path class="cls-3" d="M666.73,144.17s19.19-2.6,25.68,6.35,5.6,20,5.6,20,2.1-17.18-2.54-22.15-23-8.53-23-8.53Z"/><path class="cls-4" d="M707.44,109s32.07-21.11,42.08-9.92c-8.21-13.59-34.29,1.78-34.29,1.78Z"/><path class="cls-5" d="M710.89,100.87A48.61,48.61,0,0,0,698.4,70.64C696.92,78.07,711.09,88.27,705,105,698.54,113.09,710.89,100.87,710.89,100.87Z"/><path class="cls-6" d="M696.68,154s4.31-11.71,11.05-2.35-4.13,39,3.87,48.63-17.67-5.93-27.08-25.11,2.49-29.86,5.63-30.09S696.49,148.3,696.68,154Z"/><path class="cls-7" d="M737.74,97.63s-13,7.78-6,18.54,28.37,18.2,68.83-8.89c0,0-18.57,5.57-30.39-9.28S737.84,74.64,733,90.72C731.64,96.54,737.74,97.63,737.74,97.63Z"/><path class="cls-8" d="M708.06,90.23s11.76,2.42,8.72-8.9-18.09-18.61-20.17-19.95-12.27-13.13-11.79-22.21-11.37,30.55,5.12,50.69S708.06,90.23,708.06,90.23Z"/><path class="cls-9" d="M752.73,18.75s-7.28-16.56-21.94-9.41-30.51,30.29-30.51,30.29,17.36-10.76,24.27-5.6,26.32,5.74,28-10.79C749.19,18.27,752.73,18.75,752.73,18.75Z"/><path class="cls-10" d="M795.66,32.39s-15.4,5.92-4.5,27.57-13.21,26-2.95,24.75S828.15,64.46,816,38.23C806.24,21.64,795.66,32.39,795.66,32.39Z"/><path class="cls-11" d="M638.09,11.83s20.47,11.45,8.62,33.09-50.26,67-50.26,67-69.06,72.93-76.84,79S481.7,220.7,481.7,220.7s10.33-5.15,12.73-1.53,88-81.63,90.13-84.94,63.79-76.89,68.08-90.45c2.62-8.26,3-14,.79-19.75-1.82-4.62-5-9.19-13.38-15.1C626.09,3.12,638.09,11.83,638.09,11.83Z"/><path class="cls-12" d="M688.89,19.76S677,6.46,653,41.35c-4,3.38.48-10,.48-10s23.45-23.8,32.21-18C698.18,21.75,688.89,19.76,688.89,19.76Z"/><path class="cls-13" d="M572.73,146.58s18.61-5.65,26.31,2.14,8.4,18.91,8.4,18.91-.38-17.31-5.67-21.48-24-4.72-24-4.72Z"/><path class="cls-14" d="M608,105.26s28.71-26,40.21-16.57C638.11,76.58,614.5,96,614.5,96Z"/><path class="cls-15" d="M610.23,96.7a47.71,47.71,0,0,0-16.68-27.85c-.4,7.58,15.07,15.37,11.39,32.84C599.75,110.76,610.23,96.7,610.23,96.7Z"/><path class="cls-16" d="M604.32,151.62s2.71-12.58,11-4.21,1.5,40.17,11.1,48.62S607.43,193,595,175.1s-1.83-30.68,1.36-31.43S603.3,145.88,604.32,151.62Z"/><path class="cls-17" d="M634.37,88s-10.51,8.59-3.16,16.71,27,11.22,59.34-18c0,0-15.65,7.54-27.72-3.32s-31-15-33.37-.61C628.9,87.94,634.37,88,634.37,88Z"/><path class="cls-18" d="M605.9,86.65s12,.49,7.35-10.2S592.71,61,590.45,60s-14-11-14.83-20-6.88,32,12.31,49.24S605.9,86.65,605.9,86.65Z"/><path class="cls-19" d="M639.87,8.84s-9.57-15.18-23-5.76S591,37.91,591,37.91s15.63-13.42,23.2-9.44S641,29.91,640.29,13.32C636.3,8.94,639.87,8.84,639.87,8.84Z"/><path class="cls-20" d="M684.28,15.4s-14.39,8.33-.51,28-9.36,27.79.62,24.93S721,41.85,705.23,17.9C693.21,3.09,684.28,15.4,684.28,15.4Z"/><path class="cls-21" d="M577.17,173.12s7.42,23.28-15.15,30.43-79.73,12.28-79.73,12.28-97.18,2.9-106.71,1.63-46.76-5.85-46.76-5.85,10.82,3.77,10.21,8.16,116.54,4.56,120.22,3.69,95.92-9.64,107.8-16.41c7.23-4.13,11.27-8,13.34-13.84,1.67-4.7,2.35-10.32.08-20.78C574.11,158,577.17,173.12,577.17,173.12Z"/><path class="cls-22" d="M608.84,215.93s0-18.38-40-10.4c-5.08-.45,6.79-6.92,6.79-6.92s32.38-.29,35,10.36C614.28,224.15,608.84,215.93,608.84,215.93Z"/><path class="cls-23" d="M442.69,223.85s17.14,9.43,17.67,20.73-6.14,19.92-6.14,19.92,10.92-12.91,9.78-19.81-14.31-20.91-14.31-20.91Z"/><path class="cls-24" d="M494.93,219.37s37.62,1.93,39.84,17.2c.54-16.17-29.1-19.22-29.1-19.22Z"/><path class="cls-25" d="M502.1,214.76A49.58,49.58,0,0,0,508,182.28c-5.19,5.24,1,22.2-13,32.27C485.43,217.39,502.1,214.76,502.1,214.76Z"/><path class="cls-26" d="M463.35,251.64s10.47-7.2,11.56,5.58-25.35,31-23.26,45-13.14-17.33-11.28-40.5,18.81-24.26,21.85-22.29S466.32,246.56,463.35,251.64Z"/><path class="cls-27" d="M525.26,226s-13.18-1.38-13.1,9.9,12.28,27.84,54.6,30.12c0,0-16.21-5.89-17.93-22.62s-12.75-33.58-23.78-24.76C521.3,222,525.26,226,525.26,226Z"/><path class="cls-28" d="M505.47,204.27s8.36,9.09,11.92-2.08-4.87-26.27-5.87-28.63-3-18.24,2.22-25.44S488.06,166.46,490.81,193,505.47,204.27,505.47,204.27Z"/><path class="cls-29" d="M580.39,172.24s2.89-18.06-13-21-41.24,6.58-41.24,6.58,20,1.6,22.91,10,18.52,20.62,28.71,8C577.74,169.7,580.39,172.24,580.39,172.24Z"/><path class="cls-30" d="M608.32,209.39s-15.81-4.41-18.45,20-24.75,13.47-15.67,18.65,43.61,7.38,47.67-21.59C622.75,206.91,608.32,209.39,608.32,209.39Z"/><path class="cls-31" d="M522.11,12.57s20.56,11.29,8.87,33S481.21,113,481.21,113s-68.53,73.5-76.26,79.59-37.69,30.15-37.69,30.15,10.29-5.24,12.72-1.64,87.41-82.35,89.5-85.68,63.23-77.41,67.42-91c2.55-8.29,2.93-14.07.64-19.76-1.85-4.61-5-9.15-13.49-15C510.05,4,522.11,12.57,522.11,12.57Z"/><path class="cls-32" d="M573,20.08S561,6.89,537.23,42c-4,3.41.41-10,.41-10s23.27-24,32.08-18.23C582.28,22,573,20.08,573,20.08Z"/><path class="cls-33" d="M457.74,147.86s18.57-5.81,26.32,1.92,8.54,18.84,8.54,18.84-.5-17.31-5.82-21.43-24-4.52-24-4.52Z"/><path class="cls-34" d="M492.67,106.25S521.19,80,532.76,89.35c-10.15-12-33.61,7.56-33.61,7.56Z"/><path class="cls-35" d="M494.87,97.67A47.58,47.58,0,0,0,478,70c-.35,7.58,15.18,15.24,11.63,32.74C484.5,111.81,494.87,97.67,494.87,97.67Z"/><path class="cls-36" d="M488.8,152.49s2.51-12.28,10.57-4.18,1.77,39.14,11.13,47.31-18.35-2.85-30.53-20.18-2-29.89,1-30.64S487.76,146.9,488.8,152.49Z"/><path class="cls-37" d="M519,88.72s-10.44,8.68-3,16.74,27.05,11,59.2-18.47c0,0-15.59,7.68-27.74-3.09S516.25,69.13,514,83.58C513.48,88.76,519,88.72,519,88.72Z"/><path class="cls-38" d="M490.47,87.66s12,.39,7.28-10.26-20.66-15.31-22.92-16.27-14.09-10.88-15-19.92-6.65,32.06,12.67,49.14S490.47,87.66,490.47,87.66Z"/><path class="cls-39" d="M523.87,9.57S514.19-5.53,500.78,4s-25.59,35-25.59,35,15.53-13.56,23.13-9.63,26.87,1.21,26-15.38C520.3,9.7,523.87,9.57,523.87,9.57Z"/><path class="cls-40" d="M568.33,15.76s-14.33,8.45-.31,28-9.15,27.87.81,24.92,36.41-26.73,20.46-50.55C577.16,3.38,568.33,15.76,568.33,15.76Z"/><path class="cls-41" d="M385.71,83.1s20.16,12.07,7.74,33.34-52,65.46-52,65.46-71,70.83-78.91,76.62-38.69,28.68-38.69,28.68,10.46-4.84,12.76-1.14,90.15-79,92.36-82.2,65.81-75,70.46-88.37c2.84-8.18,3.41-13.95,1.32-19.73-1.69-4.67-4.71-9.33-13-15.5C374,74,385.71,83.1,385.71,83.1Z"/><path class="cls-42" d="M436.28,92.56s-11.54-13.65-36.46,20.5c-4.09,3.26.74-9.94.74-9.94s24.07-23.09,32.68-17C445.51,94.83,436.28,92.56,436.28,92.56Z"/><path class="cls-43" d="M316.78,215.85s18.76-5.1,26.24,2.93,7.89,19.15,7.89,19.15.08-17.31-5.09-21.64S322,210.85,322,210.85Z"/><path class="cls-44" d="M353.1,175.6s29.39-25.14,40.63-15.35c-9.73-12.41-33.84,6.26-33.84,6.26Z"/><path class="cls-45" d="M355.59,167.11a47.84,47.84,0,0,0-15.92-28.34c-.6,7.56,14.65,15.81,10.5,33.16C344.75,180.85,355.59,167.11,355.59,167.11Z"/><path class="cls-46" d="M347.66,221.67s2.93-12.18,10.7-3.78.44,39.19,9.51,47.72-18.24-3.56-29.81-21.35-1-29.95,2.09-30.58S346.81,216,347.66,221.67Z"/><path class="cls-47" d="M380.84,160.65s-11.58,9.25-3.79,18.67,29,13.71,64.68-17.81c0,0-17.12,7.85-30-4.86s-33.27-18.15-36.14-2C374.92,160.43,380.84,160.65,380.84,160.65Z"/><path class="cls-48" d="M351.54,156.93s11.95.85,7.62-10S339,130.87,336.81,129.82s-13.71-11.42-14.28-20.49-7.74,31.79,11,49.6S351.54,156.93,351.54,156.93Z"/><path class="cls-49" d="M387.57,80.17s-9.16-15.47-22.88-6.45-26.76,34-26.76,34,16-13,23.44-8.74,26.8,2.25,26.5-14.36C384,80.16,387.57,80.17,387.57,80.17Z"/><path class="cls-50" d="M431.78,88.07S417.18,96,430.52,116s-10.09,27.5,0,24.94,37.29-25.33,22.17-49.74C441,76,431.78,88.07,431.78,88.07Z"/><path class="cls-51" d="M358.51,244.23s6.75,23.51-16,29.93-80,9.69-80,9.69-97.21-.23-106.7-1.81-46.56-7.36-46.56-7.36,10.7,4.12,10,8.49,116.34,8.32,120,7.57,96.14-6.54,108.2-12.92c7.36-3.89,11.51-7.67,13.74-13.41,1.81-4.64,2.64-10.24.67-20.77C355.88,229,358.51,244.23,358.51,244.23Z"/><path class="cls-52" d="M388.93,288.05s.5-18.38-39.65-11.7c-5.06-.61,7-6.69,7-6.69s32.36.75,34.63,11.48C394.13,296.44,388.93,288.05,388.93,288.05Z"/><path class="cls-53" d="M222.65,290.59s16.86,10,17.06,21.3-6.7,19.72-6.7,19.72,11.28-12.55,10.34-19.49-13.7-21.37-13.7-21.37Z"/><path class="cls-54" d="M275,287.8s37.54,3.15,39.32,18.49c1-16.15-28.53-20.16-28.53-20.16Z"/><path class="cls-55" d="M282.29,283.43a49.45,49.45,0,0,0,6.86-32.28c-5.34,5.07.34,22.22-13.9,31.84C265.55,285.52,282.29,283.43,282.29,283.43Z"/><path class="cls-56" d="M241.2,317.39s10-6.74,10.18,5.06-25.08,28.87-24,41.71-10.88-15.91-7.72-37.33,18.69-22.55,21.33-20.75S244.23,312.67,241.2,317.39Z"/><path class="cls-57" d="M304.74,296.08s-13.54-1.65-14,10.13,11.35,29.26,55,32.28c0,0-16.47-6.4-17.43-23.89s-11.55-35.25-23.38-26.22C300.84,291.85,304.74,296.08,304.74,296.08Z"/><path class="cls-58" d="M286,273.05s8.09,9.36,12-1.7-4.12-26.41-5.05-28.8-2.51-18.34,2.95-25.36-26.2,17.5-24.21,44.15S286,273.05,286,273.05Z"/><path class="cls-59" d="M361.75,243.45s3.4-18-12.36-21.41S308,227.29,308,227.29s19.95,2.24,22.61,10.76,17.92,21.21,28.47,8.88C359.18,240.83,361.75,243.45,361.75,243.45Z"/><path class="cls-60" d="M388.59,281.49s-15.67-4.92-19,19.43-25.12,12.66-16.19,18.14,43.37,8.78,48.26-20.05C403.09,279.47,388.59,281.49,388.59,281.49Z"/><path class="cls-61" d="M226.22,190.07s13.69,19.79-5.84,33.82-72.65,37.17-72.65,37.17-92,33.83-101.43,35.66S0,306.1,0,306.1s11.39.13,12.06,4.51,112.57-32.91,115.83-34.92,88.86-39.83,98.28-50.07c5.74-6.25,8.49-11.26,8.82-17.45.26-5-.68-10.58-5.82-19.81C219,176.66,226.22,190.07,226.22,190.07Z"/><path class="cls-62" d="M268.6,220.72s-5.24-17.5-41.12,2.86c-5,1.2,4.52-8.76,4.52-8.76s30.83-10.62,36.31-1.3C276.12,226.81,268.6,220.72,268.6,220.72Z"/><path class="cls-63" d="M112.19,281.36s19,3.51,22.76,14.1-.22,20.93-.22,20.93,6.77-15.78,3.73-22-19.6-15.34-19.6-15.34Z"/><path class="cls-64" d="M160.8,260.39s36.47-10.18,42.92,3.66c-4.06-15.58-33.23-9-33.23-9Z"/><path class="cls-65" d="M166.35,253.72a49.83,49.83,0,0,0-3.55-32.83c-3.47,6.64,7.23,20.83-3.25,34.88C151.18,261.55,166.35,253.72,166.35,253.72Z"/><path class="cls-66" d="M138.06,300.12s7.36-9.86,11.2,1.21-14.74,36-9.78,47.74-15.23-11.19-18.9-32.49,10.66-27.8,13.72-27S139.46,294.61,138.06,300.12Z"/><path class="cls-67" d="M191.63,257s-13,2.89-9.69,13.61,19.62,22.6,60.67,11.24c0,0-17.15-.43-23.53-15.81s-21.7-27.91-29.73-16C186.72,254.46,191.63,257,191.63,257Z"/><path class="cls-68" d="M166.59,242.65s10.56,6,10.79-5.8-12.1-23.46-13.73-25.38-8.06-16.41-5.09-24.94-19.32,25.68-9.16,50.1S166.59,242.65,166.59,242.65Z"/><path class="cls-69" d="M229,188.2s-2.36-18.13-18.33-15.86-37.52,19.45-37.52,19.45,19.55-4.87,24.72,2.23,23.53,13.71,29.67-1.6C225.79,186.63,229,188.2,229,188.2Z"/><path class="cls-70" d="M266.24,214.65s-16.34.86-11.93,25-19.81,20.73-9.68,22.77,43.74-6.91,39.4-35.8C279.32,207.68,266.24,214.65,266.24,214.65Z"/><path class="cls-71" d="M472.1,239.6s5.62.12,9.62-3.43a54.51,54.51,0,0,1,10.57-6.67l-2.05-.77s-12.09,8.36-17.69,8a35,35,0,0,1-7.16-1.23Z"/><path class="cls-72" d="M490.27,230.43s-5,2.52.64,6,15.72-4.09,17.11-11.05,2.23-14.86,3.24-15.54,0-1.27-2,.08a59.09,59.09,0,0,1-15.69,5.78c-5.08.83-13.16,4.53-12.58,8a7.21,7.21,0,0,0,5.74,6.06Z"/><path class="cls-73" d="M509.35,264.6s-8.24-3.34-7.52,5.91c.7,9,7.42,13.55,9.51,16a62.29,62.29,0,0,1,6.34,10.4c1.07,2.3,1-.67,1-.67s.39-5.86,1.85-9,2.85-10.1,1.2-15.46-5.31-10.23-9.92-11S509.35,264.6,509.35,264.6Z"/><path class="cls-74" d="M507.07,265.27a33.08,33.08,0,0,0-8.39-11.18c-5.72-4.78-17.47-5.94-22.63-8.94-4-2.31-10.7-7.82-18.7-10.37l-1.9-2.94c4.39,1.42,11,3.78,12.25,4.68a73.5,73.5,0,0,0,20.61,9.88,31.87,31.87,0,0,1,17.07,11.38c1,1.26,6.3,8.28,6.3,8.28Z"/><path class="cls-75" d="M240.93,201.06a19.34,19.34,0,0,1,10.92-4.13,73.28,73.28,0,0,0,14.43-2.46l-1.07,2s-17.12,2.28-21.49,6.39a34.18,34.18,0,0,0-5,5.81Z"/><path class="cls-76" d="M263.81,195.19s-6.34,1.65-4.52-4.79,16.58-7.86,23.57-3.79,14.31,9.18,15.72,9,1,.94-1.77,1.35-13,3.7-18,6.6-14.81,5.79-17.24,2.87a6.26,6.26,0,0,1-.27-8.31Z"/><path class="cls-77" d="M251.16,157.44s-4.1,8.07-11.25.91c-7-7-5.13-14.88-5.45-18.1a55.68,55.68,0,0,0-3.4-11.85c-1-2.39,1.4-.21,1.4-.21s5.23,4,9.09,5.22,10.84,5.33,13.95,10.32,4.12,11,.92,14.76S251.16,157.44,251.16,157.44Z"/><path class="cls-78" d="M248.69,158.52A28.73,28.73,0,0,1,251,172.35c-.76,7.38-9.63,16.29-11.44,22-1.38,4.39-2.4,13-7,20.32l.88,3.43c2.48-4,6-10.29,6.33-11.8a63.87,63.87,0,0,1,9-21.28c6.41-9.64,5.08-17.81,4.75-19.94-.24-1.56-1.66-10.29-1.66-10.29Z"/><path class="cls-79" d="M368.35,265.92a14.64,14.64,0,0,0,4.27-8.8,56.54,56.54,0,0,1,2.92-12l-1.84.67s-2.88,14.28-6.83,17.51a27.67,27.67,0,0,1-5.51,3.53Z"/><path class="cls-80" d="M374.77,247.17s-1.8,5.19,4.14,4.41,7.93-13.16,4.56-19.59-7.68-13.25-7.43-14.43-.8-1-1.3,1.35a57.35,57.35,0,0,1-6.86,14.49c-2.87,3.86-6,11.9-3.42,14.31s5.58,2.49,7.55,1.22Z"/><path class="cls-81" d="M406.15,265.92s-6.38,4.73,1.64,9.4c7.81,4.55,14.53,1.71,17.51,1.43a57.69,57.69,0,0,1,11.43.8c2.38.45-.13-1.19-.13-1.19s-4.71-3.64-6.68-6.59-7.18-8-12.36-9.74-10.84-1.52-13.51,1.74S406.15,265.92,406.15,265.92Z"/><path class="cls-82" d="M407.41,264.37a29.35,29.35,0,0,0-12.47-3.63c-6.74-.22-15.27,6.26-20.55,7.12-4.05.66-11.93.5-18.81,3.51l-3.08-1.16c3.8-1.63,9.64-3.9,11-4a57.13,57.13,0,0,0,19.78-5.11,25.58,25.58,0,0,1,18.36-1.67l9.28,2.63Z"/><path class="cls-83" d="M482.35,129.92a14.64,14.64,0,0,0,4.27-8.8,56.54,56.54,0,0,1,2.92-12l-1.84.67s-2.88,14.28-6.83,17.51a27.67,27.67,0,0,1-5.51,3.53Z"/><path class="cls-84" d="M488.77,111.17s-1.8,5.19,4.14,4.41,7.93-13.16,4.56-19.59S489.79,82.74,490,81.56s-.8-1-1.3,1.35a57.35,57.35,0,0,1-6.86,14.49c-2.87,3.86-6,11.9-3.42,14.31s5.58,2.49,7.55,1.22Z"/><path class="cls-85" d="M522.51,126.4s-7.54,2.53-1.36,9.45c6,6.75,13.29,6.13,16.21,6.78a57.94,57.94,0,0,1,10.62,4.3c2.13,1.17.25-1.17.25-1.17s-3.36-4.91-4.32-8.34-4.33-9.84-8.73-13.08-9.83-4.81-13.38-2.54S522.51,126.4,522.51,126.4Z"/><path class="cls-86" d="M521.41,128.37a29.35,29.35,0,0,0-12.47-3.63c-6.74-.22-15.27,6.26-20.55,7.12-4.05.66-11.93.5-18.81,3.51l-3.08-1.16c3.8-1.63,9.64-3.9,11-4a57.13,57.13,0,0,0,19.78-5.11,25.58,25.58,0,0,1,18.36-1.67l9.28,2.63Z"/></g></g></svg>