<svg xmlns="http://www.w3.org/2000/svg" xmlns:xlink="http://www.w3.org/1999/xlink" viewBox="0 0 129.9 137.02"><defs><style>.cls-1{fill:url(#Безымянный_градиент_11);}.cls-2{fill:url(#Безымянный_градиент_5);}.cls-3{fill:url(#Безымянный_градиент_26);}.cls-4{fill:url(#Безымянный_градиент_26-2);}</style><linearGradient id="Безымянный_градиент_11" x1="-295.57" y1="-2465.88" x2="-295.57" y2="-2613.88" gradientTransform="matrix(0.61, -0.24, 0.3, 0.78, 1029.48, 1986.58)" gradientUnits="userSpaceOnUse"><stop offset="0" stop-color="#514943"/><stop offset="0.54" stop-color="#524b43"/><stop offset="0.74" stop-color="#555243"/><stop offset="0.87" stop-color="#5b5d44"/><stop offset="0.99" stop-color="#646e44"/><stop offset="1" stop-color="#657144"/></linearGradient><linearGradient id="Безымянный_градиент_5" x1="-263.3" y1="-2524.38" x2="-263.3" y2="-2577.38" gradientTransform="matrix(0.61, -0.24, 0.3, 0.78, 1029.48, 1986.58)" gradientUnits="userSpaceOnUse"><stop offset="0" stop-color="#514943"/><stop offset="0.5" stop-color="#524b43"/><stop offset="0.71" stop-color="#565243"/><stop offset="0.87" stop-color="#5c5e44"/><stop offset="0.99" stop-color="#647044"/><stop offset="1" stop-color="#657144"/></linearGradient><linearGradient id="Безымянный_градиент_26" x1="-210.98" y1="-2582.28" x2="-252.01" y2="-2605.97" gradientTransform="matrix(0.61, -0.24, 0.3, 0.78, 1029.48, 1986.58)" gradientUnits="userSpaceOnUse"><stop offset="0" stop-color="#9baa61"/><stop offset="1" stop-color="#657144"/></linearGradient><linearGradient id="Безымянный_градиент_26-2" x1="-398.6" y1="-2614.48" x2="-313.8" y2="-2614.48" xlink:href="#Безымянный_градиент_26"/></defs><title>plantSmall1</title><g id="Capa_2" data-name="Capa 2"><g id="PLANTES2"><path class="cls-1" d="M50.58,40.39a39.52,39.52,0,0,1,18.9,7C78.29,53.8,83.94,72.14,90,78.73s21.56,17.56,25.68,35.59,5.91,22.7,5.91,22.7.7-9.19,3.76-10.37-4.46-13.44-7.17-18.64-10.84-19-13-20.87A100.55,100.55,0,0,1,84.05,59.61C75.93,44,64.81,39.82,61.91,38.71c-2.13-.82-14-5.31-14-5.31Z"/><path class="cls-2" d="M99.3,81.84s-2.06-9,1.69-17.6,6-21,6-21l1.81,2.87s-7.93,24.49-5.49,33.33a55.84,55.84,0,0,0,4.18,10.87Z"/><path class="cls-3" d="M106.34,47s-1.92,9.66-8.89,2.53S98,21.7,107.54,15.35,128.14,3,128.77.94s1.84-.71.58,3.34-3.54,20.09-3,28.8-2,24-7.25,25.09a9.05,9.05,0,0,1-10.66-5.71Z"/><path class="cls-4" d="M50.77,36.31s7.59,11.37-6,15.66c-13.19,4.19-22-4-26.25-5.95S5.15,42.27,1.48,41.9s.63-2,.63-2,8.3-4.08,12.31-8.3S28,21,36.23,20.5s16.49,2.57,19.19,9.56S50.77,36.31,50.77,36.31Z"/></g></g></svg>