<svg xmlns="http://www.w3.org/2000/svg" xmlns:xlink="http://www.w3.org/1999/xlink" viewBox="0 0 45.81 41.66"><defs><style>.cls-1{opacity:0.82;}.cls-2{clip-path:url(#clip-path);}.cls-3,.cls-8{fill:none;}.cls-4{opacity:0.55;}.cls-5{opacity:0.18;}.cls-6{opacity:0.51;}.cls-7{clip-path:url(#clip-path-2);}.cls-8{stroke:#000;}.cls-11,.cls-17,.cls-18,.cls-19,.cls-20,.cls-21,.cls-8{stroke-miterlimit:10;}.cls-9{mask:url(#mask);}.cls-10{fill:url(#Безымянный_градиент_26);}.cls-11,.cls-17,.cls-19{fill:#5f723f;}.cls-11,.cls-17,.cls-18,.cls-19,.cls-20,.cls-21{stroke-width:0.5px;}.cls-11{stroke:url(#plant);}.cls-12{fill:url(#Безымянный_градиент_26-2);}.cls-13{fill:url(#Безымянный_градиент_26-3);}.cls-14{fill:url(#Безымянный_градиент_26-4);}.cls-15{fill:url(#Безымянный_градиент_26-5);}.cls-16{fill:url(#Безымянный_градиент_26-6);}.cls-17{stroke:url(#plants2);}.cls-18{fill:url(#plants2-2);stroke:url(#plant-2);}.cls-19{stroke:url(#plants2-3);}.cls-20{fill:url(#plant-3);stroke:url(#plant-4);}.cls-21{fill:url(#plants2-4);stroke:url(#plants2-5);}.cls-22{filter:url(#luminosity-noclip);}</style><clipPath id="clip-path"><rect class="cls-3" x="-1627.48" y="-954.22" width="2209.81" height="2140.23"/></clipPath><clipPath id="clip-path-2"><rect class="cls-3" x="132.7" y="-1676.51" width="2163.07" height="2326.12"/></clipPath><linearGradient id="Безымянный_градиент_26" x1="5500.39" y1="4399.99" x2="5500.39" y2="4393.98" gradientTransform="matrix(-0.27, 0.94, -0.84, -0.33, 5182.25, -3681.95)" gradientUnits="userSpaceOnUse"><stop offset="0" stop-color="#97ad5c"/><stop offset="1" stop-color="#5f723f"/></linearGradient><linearGradient id="plant" x1="5576.3" y1="4353.66" x2="5590.21" y2="4353.66" gradientTransform="matrix(-0.25, 1.1, -0.85, -0.41, 5095.94, -4348.48)" gradientUnits="userSpaceOnUse"><stop offset="0" stop-color="#534741"/><stop offset="0.29" stop-color="#554d41"/><stop offset="0.69" stop-color="#5a5f40"/><stop offset="1" stop-color="#5f723f"/></linearGradient><linearGradient id="Безымянный_градиент_26-2" x1="5462.33" y1="4394.69" x2="5472.02" y2="4406.24" xlink:href="#Безымянный_градиент_26"/><linearGradient id="Безымянный_градиент_26-3" x1="5487.91" y1="4406.97" x2="5483.58" y2="4399.49" xlink:href="#Безымянный_градиент_26"/><linearGradient id="Безымянный_градиент_26-4" x1="5460.3" y1="4380.06" x2="5474.58" y2="4380.06" xlink:href="#Безымянный_градиент_26"/><linearGradient id="Безымянный_градиент_26-5" x1="5473.08" y1="4391.04" x2="5481.54" y2="4394.12" xlink:href="#Безымянный_градиент_26"/><linearGradient id="Безымянный_градиент_26-6" x1="5492.61" y1="4383.56" x2="5484.03" y2="4388.51" xlink:href="#Безымянный_градиент_26"/><linearGradient id="plants2" x1="5468.69" y1="4390.4" x2="5482.96" y2="4390.4" gradientTransform="matrix(-0.27, 0.94, -0.84, -0.33, 5182.25, -3681.95)" gradientUnits="userSpaceOnUse"><stop offset="0" stop-color="#5f723f"/><stop offset="0.26" stop-color="#5b6340"/><stop offset="0.7" stop-color="#554e41"/><stop offset="1" stop-color="#534741"/></linearGradient><linearGradient id="plants2-2" x1="5469.47" y1="4404.15" x2="5490.69" y2="4404.15" xlink:href="#plants2"/><linearGradient id="plant-2" x1="5469.22" y1="4404.18" x2="5490.94" y2="4404.18" gradientTransform="matrix(-0.27, 0.94, -0.84, -0.33, 5182.25, -3681.95)" xlink:href="#plant"/><linearGradient id="plants2-3" x1="5466.97" y1="4405.09" x2="5470.32" y2="4405.09" xlink:href="#plants2"/><linearGradient id="plant-3" x1="5495.59" y1="4393.43" x2="5504.92" y2="4393.43" gradientTransform="matrix(-0.26, 0.98, -0.84, -0.35, 5164.37, -3819.97)" xlink:href="#plant"/><linearGradient id="plant-4" x1="5495.25" y1="4393.47" x2="5505.26" y2="4393.47" gradientTransform="matrix(-0.26, 0.98, -0.84, -0.35, 5164.37, -3819.97)" xlink:href="#plant"/><linearGradient id="plants2-4" x1="5477.43" y1="4396.08" x2="5479.82" y2="4396.08" xlink:href="#plants2"/><linearGradient id="plants2-5" x1="5477.08" y1="4396.07" x2="5480.16" y2="4396.07" xlink:href="#plants2"/></defs><title>plants_small_1</title><g id="Capa_2" data-name="Capa 2"><g id="lletres"><g class="cls-9"><path class="cls-10" d="M16.33,38.16a9.05,9.05,0,0,1-.53,3.5,13.28,13.28,0,0,1,2.11-1.19c2.46-1.33,6.73-6.57,3.83-9.65C18.11,27,16.44,35.9,16.33,38.16Z"/><path class="cls-11" d="M19,34.44l-.23-.27a14.73,14.73,0,0,0,2.87-7.4,27,27,0,0,0-.83-7.43l.29-.07a27,27,0,0,1,.84,7.57A15.06,15.06,0,0,1,19,34.44Z"/><path class="cls-12" d="M23.82,1.17c2.36,1.3,4.94,2.69,7.48,2.1.27-.06.59-.22.59-.52A13,13,0,0,1,29,7.11a6.91,6.91,0,0,1-4.55,2,6.53,6.53,0,0,1-6.22-5.23C17.71.08,21.5-.12,23.82,1.17Z"/><path class="cls-13" d="M15.09,20.46l.6,4.22a2.69,2.69,0,0,1-.38,2.3,6.12,6.12,0,0,0,5-3.34c1.23-2.27,1.75-7-.61-8.82C16.58,12.34,14.74,18,15.09,20.46Z"/><path class="cls-14" d="M38.57,12.18A6.67,6.67,0,0,1,40.28,10L45.7,4.71a28.32,28.32,0,0,1,0,5.37,9.81,9.81,0,0,1-1.87,4.86c-.81,1-3,2.87-4.39,2.23S38.07,13.4,38.57,12.18Z"/><path class="cls-15" d="M25.12,14.56a4.93,4.93,0,0,1,1.64-.44,5.07,5.07,0,0,1,2.48.09,18.86,18.86,0,0,1,1.78,1,3.92,3.92,0,0,0,3.59,0,7.09,7.09,0,0,1-5.75,4.52,3.42,3.42,0,0,1-1.65-.19,4.82,4.82,0,0,1-1.15-.77C24.81,17.84,23,15.69,25.12,14.56Z"/><path class="cls-16" d="M29.29,24.59a12.77,12.77,0,0,1,3.5,2.68,23.27,23.27,0,0,0,3.07,2.37,3.31,3.31,0,0,0,2,.73c-1.64,2.27-4.58,3.54-7.1,2.5a10.47,10.47,0,0,1-2.3-1.48c-1.5-1.15-2.95-2.77-2.89-4.93S27.69,23.94,29.29,24.59Z"/><path class="cls-17" d="M32.14,21.59a9.45,9.45,0,0,1-5-.75,12.49,12.49,0,0,1-5.53-5.11l.26-.17a12.13,12.13,0,0,0,5.37,5,8.8,8.8,0,0,0,6.91.18c3.38-1.4,5.55-4.93,7.4-8.55l.26.17C40,16,37.74,19.58,34.28,21A7.87,7.87,0,0,1,32.14,21.59Z"/><path class="cls-18" d="M34.48,32a17.24,17.24,0,0,1-8.37-5.44c-1.75-2.14-2.15-3.33-3.82-8.35-.15-.46-.31-1-.49-1.49a55.49,55.49,0,0,0-3.43-8.47,16.63,16.63,0,0,0-5.58-6.44A7.32,7.32,0,0,0,8,.63H8A9.09,9.09,0,0,0,3.08,3.39a14.64,14.64,0,0,0-2.5,3l-.25-.2a15.23,15.23,0,0,1,2.55-3A9.53,9.53,0,0,1,7.9.31a7.47,7.47,0,0,1,5,1.25,16.89,16.89,0,0,1,5.7,6.56,55.23,55.23,0,0,1,3.45,8.53c.18.53.35,1,.5,1.49,1.65,5,2.05,6.14,3.76,8.23a16.88,16.88,0,0,0,8.22,5.34Z"/><path class="cls-19" d="M27,5.45a9.81,9.81,0,0,1-4.57-.64,33.3,33.3,0,0,1-3.73-1.74c-.4-.21-.82-.43-1.24-.63a5.17,5.17,0,0,0-1.77-.63,1.76,1.76,0,0,0-1.61.59l-.23-.21a2,2,0,0,1,1.86-.71,5.64,5.64,0,0,1,1.88.66l1.24.63a31.68,31.68,0,0,0,3.69,1.72A8.8,8.8,0,0,0,27.76,5l.08.33A7.23,7.23,0,0,1,27,5.45Z"/><path class="cls-20" d="M18.93,19.93l-.07-.34c.16,0,.28-.21.38-.37a7.85,7.85,0,0,0,.88-4.42,25.09,25.09,0,0,0-.87-4.65l.29-.08a25.44,25.44,0,0,1,.89,4.71,8.33,8.33,0,0,1-.94,4.64A1,1,0,0,1,18.93,19.93Z"/><path class="cls-21" d="M29,17a7.36,7.36,0,0,1-3.28-.56l-.27-.09a7.16,7.16,0,0,0-3.79-.64l-.06-.33a7.45,7.45,0,0,1,3.94.65l.27.1a5.51,5.51,0,0,0,4,.3l.12.31A3.53,3.53,0,0,1,29,17Z"/></g></g></g></svg>