<svg xmlns="http://www.w3.org/2000/svg" xmlns:xlink="http://www.w3.org/1999/xlink" viewBox="0 0 42 43.6"><defs><style>.cls-1{opacity:0.82;}.cls-2{clip-path:url(#clip-path);}.cls-3,.cls-8{fill:none;}.cls-4{opacity:0.55;}.cls-5{opacity:0.18;}.cls-6{opacity:0.51;}.cls-7{clip-path:url(#clip-path-2);}.cls-8{stroke:#000;}.cls-11,.cls-17,.cls-18,.cls-19,.cls-20,.cls-21,.cls-8{stroke-miterlimit:10;}.cls-9{mask:url(#mask);}.cls-10{fill:url(#Безымянный_градиент_26);}.cls-11,.cls-17,.cls-19{fill:#5f723f;}.cls-11,.cls-17,.cls-18,.cls-19,.cls-20,.cls-21{stroke-width:0.5px;}.cls-11{stroke:url(#plant);}.cls-12{fill:url(#Безымянный_градиент_26-2);}.cls-13{fill:url(#Безымянный_градиент_26-3);}.cls-14{fill:url(#Безымянный_градиент_26-4);}.cls-15{fill:url(#Безымянный_градиент_26-5);}.cls-16{fill:url(#Безымянный_градиент_26-6);}.cls-17{stroke:url(#plants2);}.cls-18{fill:url(#plants2-2);stroke:url(#plant-2);}.cls-19{stroke:url(#plants2-3);}.cls-20{fill:url(#plant-3);stroke:url(#plant-4);}.cls-21{fill:url(#plants2-4);stroke:url(#plants2-5);}.cls-22{filter:url(#luminosity-noclip);}</style><clipPath id="clip-path"><rect class="cls-3" x="-2478.37" y="-990.98" width="2209.81" height="2140.23"/></clipPath><clipPath id="clip-path-2"><rect class="cls-3" x="-718.19" y="-1713.26" width="2163.07" height="2326.12"/></clipPath><linearGradient id="Безымянный_градиент_26" x1="-83.99" y1="1791.48" x2="-83.99" y2="1785.47" gradientTransform="matrix(0.8, 0.56, -0.59, 0.68, 1165.66, -1138.42)" gradientUnits="userSpaceOnUse"><stop offset="0" stop-color="#97ad5c"/><stop offset="1" stop-color="#5f723f"/></linearGradient><linearGradient id="plant" x1="427.18" y1="1533.56" x2="441.09" y2="1533.56" gradientTransform="matrix(0.96, 0.6, -0.67, 0.67, 642.27, -1250.23)" gradientUnits="userSpaceOnUse"><stop offset="0" stop-color="#534741"/><stop offset="0.29" stop-color="#554d41"/><stop offset="0.69" stop-color="#5a5f40"/><stop offset="1" stop-color="#5f723f"/></linearGradient><linearGradient id="Безымянный_градиент_26-2" x1="-122.05" y1="1786.19" x2="-112.36" y2="1797.73" xlink:href="#Безымянный_градиент_26"/><linearGradient id="Безымянный_градиент_26-3" x1="-96.47" y1="1798.47" x2="-100.8" y2="1790.98" xlink:href="#Безымянный_градиент_26"/><linearGradient id="Безымянный_градиент_26-4" x1="-124.08" y1="1771.56" x2="-109.8" y2="1771.56" xlink:href="#Безымянный_градиент_26"/><linearGradient id="Безымянный_градиент_26-5" x1="-111.3" y1="1782.53" x2="-102.84" y2="1785.61" xlink:href="#Безымянный_градиент_26"/><linearGradient id="Безымянный_градиент_26-6" x1="-91.77" y1="1775.05" x2="-100.35" y2="1780" xlink:href="#Безымянный_градиент_26"/><linearGradient id="plants2" x1="-115.69" y1="1781.89" x2="-101.42" y2="1781.89" gradientTransform="matrix(0.8, 0.56, -0.59, 0.68, 1165.66, -1138.42)" gradientUnits="userSpaceOnUse"><stop offset="0" stop-color="#5f723f"/><stop offset="0.26" stop-color="#5b6340"/><stop offset="0.7" stop-color="#554e41"/><stop offset="1" stop-color="#534741"/></linearGradient><linearGradient id="plants2-2" x1="-114.91" y1="1795.64" x2="-93.69" y2="1795.64" xlink:href="#plants2"/><linearGradient id="plant-2" x1="-115.16" y1="1795.67" x2="-93.44" y2="1795.67" gradientTransform="matrix(0.8, 0.56, -0.59, 0.68, 1165.66, -1138.42)" xlink:href="#plant"/><linearGradient id="plants2-3" x1="-117.41" y1="1796.59" x2="-114.06" y2="1796.59" xlink:href="#plants2"/><linearGradient id="plant-3" x1="15.9" y1="1734.03" x2="25.23" y2="1734.03" gradientTransform="matrix(0.83, 0.57, -0.61, 0.68, 1057.83, -1161.45)" xlink:href="#plant"/><linearGradient id="plant-4" x1="15.56" y1="1734.08" x2="25.57" y2="1734.08" gradientTransform="matrix(0.83, 0.57, -0.61, 0.68, 1057.83, -1161.45)" xlink:href="#plant"/><linearGradient id="plants2-4" x1="-106.95" y1="1787.57" x2="-104.56" y2="1787.57" xlink:href="#plants2"/><linearGradient id="plants2-5" x1="-107.3" y1="1787.57" x2="-104.22" y2="1787.57" xlink:href="#plants2"/></defs><title>plants_small_3</title><g id="Capa_2" data-name="Capa 2"><g id="lletres"><g class="cls-9"><path class="cls-10" d="M38.88,38.83A8.91,8.91,0,0,1,42,40.49a13.73,13.73,0,0,1-.41-2.39c-.44-2.76-4-8.53-7.83-6.82C28.91,33.42,36.79,38,38.88,38.83Z"/><path class="cls-11" d="M36.26,35.08l-.34.13a14.66,14.66,0,0,0-6-5.16,26.37,26.37,0,0,0-7.28-1.69l0-.3a27.28,27.28,0,0,1,7.41,1.72A15.15,15.15,0,0,1,36.26,35.08Z"/><path class="cls-12" d="M6.49,19.45c2-1.79,4.18-3.76,4.47-6.36,0-.27,0-.62-.29-.72a12.86,12.86,0,0,1,3.14,4.19,7,7,0,0,1,.37,5,6.54,6.54,0,0,1-7,4.13C3.43,24.85,4.51,21.21,6.49,19.45Z"/><path class="cls-13" d="M21.77,34.1l4.18.84c.81.17,1.74.42,2.05,1.13a6.16,6.16,0,0,0-1.48-5.86c-1.73-1.91-6-4-8.52-2.35C14.61,30,19.3,33.6,21.77,34.1Z"/><path class="cls-14" d="M21.79,9.21a6.63,6.63,0,0,1-1.51-2.34L17.11,0a27.62,27.62,0,0,1,5.05,1.82,9.79,9.79,0,0,1,4,3.39c.68,1.09,1.7,3.79.64,4.88S22.77,10.08,21.79,9.21Z"/><path class="cls-15" d="M19.55,22.68A4.85,4.85,0,0,1,19.69,21a4.91,4.91,0,0,1,.91-2.31,18.36,18.36,0,0,1,1.57-1.33A3.86,3.86,0,0,0,23.39,14a7.09,7.09,0,0,1,2.35,6.94A3.4,3.4,0,0,1,25,22.4a5.45,5.45,0,0,1-1.11.83C22.54,24.06,19.91,25.05,19.55,22.68Z"/><path class="cls-16" d="M30.4,22.09a12.47,12.47,0,0,1,3.69-2.41,24.5,24.5,0,0,0,3.26-2.1,3.47,3.47,0,0,0,1.36-1.66c1.58,2.3,1.81,5.5,0,7.53a10.44,10.44,0,0,1-2.15,1.68c-1.58,1-3.6,1.86-5.62,1.08S29.25,23.38,30.4,22.09Z"/><path class="cls-17" d="M28.52,18.4a9.44,9.44,0,0,1-2.38,4.46,12.4,12.4,0,0,1-6.65,3.51l-.08-.3a12.11,12.11,0,0,0,6.48-3.41,8.8,8.8,0,0,0,2.47-6.46c-.2-3.65-2.81-6.87-5.6-9.81l.25-.2c2.83,3,5.48,6.26,5.68,10A8.6,8.6,0,0,1,28.52,18.4Z"/><path class="cls-18" d="M39.14,19.67a17.16,17.16,0,0,1-7.92,6.08c-2.59.94-3.85.92-9.14.82l-1.57,0a54.45,54.45,0,0,0-9.12.41,16.54,16.54,0,0,0-7.94,3.12A7.28,7.28,0,0,0,.71,34.21v0a9.16,9.16,0,0,0,1,5.51,14.89,14.89,0,0,0,2,3.34l-.27.17a15.28,15.28,0,0,1-2-3.41,9.57,9.57,0,0,1-1-5.67,7.47,7.47,0,0,1,2.86-4.33,16.74,16.74,0,0,1,8.08-3.19,54.3,54.3,0,0,1,9.19-.42l1.57,0c5.23.09,6.48.11,9-.81a16.91,16.91,0,0,0,7.78-6Z"/><path class="cls-19" d="M11.6,17.85a9.73,9.73,0,0,1-2.13,4.09,32.1,32.1,0,0,1-2.88,2.95l-1,.95A5.42,5.42,0,0,0,4.4,27.31a1.75,1.75,0,0,0,0,1.71l-.28.15a2.09,2.09,0,0,1,0-2,5.27,5.27,0,0,1,1.25-1.55c.33-.33.68-.65,1-1A30.22,30.22,0,0,0,9.2,21.75,8.8,8.8,0,0,0,11.39,17l.33,0A7.54,7.54,0,0,1,11.6,17.85Z"/><path class="cls-20" d="M22.55,30.31l-.34,0a.73.73,0,0,0-.22-.48,8,8,0,0,0-3.88-2.31,24.78,24.78,0,0,0-4.67-.72l0-.3a24.83,24.83,0,0,1,4.74.73,8.23,8.23,0,0,1,4.06,2.43A1,1,0,0,1,22.55,30.31Z"/><path class="cls-21" d="M23.13,19.79a7.47,7.47,0,0,1-1.62,2.91l-.18.21a7.29,7.29,0,0,0-1.86,3.37l-.33-.05a7.42,7.42,0,0,1,1.93-3.5l.17-.22a5.58,5.58,0,0,0,1.63-3.7h.33A3.62,3.62,0,0,1,23.13,19.79Z"/></g></g></g></svg>