<svg xmlns="http://www.w3.org/2000/svg" xmlns:xlink="http://www.w3.org/1999/xlink" viewBox="0 0 662.51 1135.09"><defs><style>.cls-1{fill:url(#Безымянный_градиент_11);}.cls-2{fill:url(#Безымянный_градиент_5);}.cls-3{fill:url(#Безымянный_градиент_26);}.cls-4{fill:url(#Безымянный_градиент_26-2);}.cls-5{fill:url(#Безымянный_градиент_26-3);}.cls-12,.cls-14,.cls-18,.cls-24,.cls-26,.cls-6{fill:#5f723f;}.cls-12,.cls-13,.cls-14,.cls-15,.cls-16,.cls-18,.cls-24,.cls-25,.cls-26,.cls-27,.cls-28,.cls-6{stroke-miterlimit:10;stroke-width:2px;}.cls-6{stroke:url(#plant);}.cls-7{fill:url(#Безымянный_градиент_26-4);}.cls-8{fill:url(#Безымянный_градиент_26-5);}.cls-9{fill:url(#Безымянный_градиент_26-6);}.cls-10{fill:url(#Безымянный_градиент_26-7);}.cls-11{fill:url(#Безымянный_градиент_26-8);}.cls-12{stroke:url(#plants2);}.cls-13{fill:url(#plants2-2);stroke:url(#plant-2);}.cls-14{stroke:url(#plants2-3);}.cls-15{fill:url(#plant-3);stroke:url(#plant-4);}.cls-16{fill:url(#plants2-4);stroke:url(#plants2-5);}.cls-17{fill:url(#Безымянный_градиент_26-9);}.cls-18{stroke:url(#plant-5);}.cls-19{fill:url(#Безымянный_градиент_26-10);}.cls-20{fill:url(#Безымянный_градиент_26-11);}.cls-21{fill:url(#Безымянный_градиент_26-12);}.cls-22{fill:url(#Безымянный_градиент_26-13);}.cls-23{fill:url(#Безымянный_градиент_26-14);}.cls-24{stroke:url(#plants2-6);}.cls-25{fill:url(#plants2-7);stroke:url(#plant-6);}.cls-26{stroke:url(#plants2-8);}.cls-27{fill:url(#plant-7);stroke:url(#plant-8);}.cls-28{fill:url(#plants2-9);stroke:url(#plants2-10);}.cls-29{fill:url(#Безымянный_градиент_13);}.cls-30{fill:url(#Безымянный_градиент_10);}.cls-31{fill:url(#Безымянный_градиент_13-2);}.cls-32{fill:url(#Безымянный_градиент_10-2);}.cls-33{fill:url(#Безымянный_градиент_30);}.cls-34{fill:url(#Безымянный_градиент_26-15);}.cls-35{fill:url(#Безымянный_градиент_26-16);}.cls-36{fill:url(#Безымянный_градиент_26-17);}.cls-37{fill:url(#Безымянный_градиент_26-18);}.cls-38{fill:url(#Безымянный_градиент_26-19);}.cls-39{fill:url(#Безымянный_градиент_13-3);}.cls-40{fill:url(#Безымянный_градиент_10-3);}.cls-41{fill:url(#Безымянный_градиент_13-4);}.cls-42{fill:url(#Безымянный_градиент_10-4);}.cls-43{fill:url(#Безымянный_градиент_30-2);}.cls-44{fill:url(#Безымянный_градиент_26-20);}.cls-45{fill:url(#Безымянный_градиент_26-21);}.cls-46{fill:url(#Безымянный_градиент_26-22);}.cls-47{fill:url(#Безымянный_градиент_26-23);}.cls-48{fill:url(#Безымянный_градиент_26-24);}.cls-49{fill:url(#Безымянный_градиент_13-5);}.cls-50{fill:url(#Безымянный_градиент_10-5);}.cls-51{fill:url(#Безымянный_градиент_13-6);}.cls-52{fill:url(#Безымянный_градиент_10-6);}.cls-53{fill:url(#Безымянный_градиент_30-3);}.cls-54{fill:url(#Безымянный_градиент_26-25);}.cls-55{fill:url(#Безымянный_градиент_26-26);}.cls-56{fill:url(#Безымянный_градиент_26-27);}.cls-57{fill:url(#Безымянный_градиент_26-28);}.cls-58{fill:url(#Безымянный_градиент_26-29);}.cls-59{fill:url(#Безымянный_градиент_13-7);}.cls-60{fill:url(#Безымянный_градиент_10-7);}.cls-61{fill:url(#Безымянный_градиент_13-8);}.cls-62{fill:url(#Безымянный_градиент_10-8);}.cls-63{fill:url(#Безымянный_градиент_30-4);}.cls-64{fill:url(#Безымянный_градиент_26-30);}.cls-65{fill:url(#Безымянный_градиент_26-31);}.cls-66{fill:url(#Безымянный_градиент_26-32);}.cls-67{fill:url(#Безымянный_градиент_26-33);}.cls-68{fill:url(#Безымянный_градиент_26-34);}.cls-69{fill:url(#Безымянный_градиент_13-9);}.cls-70{fill:url(#Безымянный_градиент_10-9);}.cls-71{fill:url(#Безымянный_градиент_13-10);}.cls-72{fill:url(#Безымянный_градиент_10-10);}.cls-73{fill:url(#Безымянный_градиент_30-5);}.cls-74{fill:url(#Безымянный_градиент_26-35);}.cls-75{fill:url(#Безымянный_градиент_26-36);}.cls-76{fill:url(#Безымянный_градиент_26-37);}.cls-77{fill:url(#Безымянный_градиент_26-38);}.cls-78{fill:url(#Безымянный_градиент_26-39);}.cls-79{fill:url(#Безымянный_градиент_13-11);}.cls-80{fill:url(#Безымянный_градиент_10-11);}.cls-81{fill:url(#Безымянный_градиент_13-12);}.cls-82{fill:url(#Безымянный_градиент_10-12);}.cls-83{fill:url(#Безымянный_градиент_30-6);}.cls-84{fill:url(#Безымянный_градиент_26-40);}.cls-85{fill:url(#Безымянный_градиент_26-41);}.cls-86{fill:url(#Безымянный_градиент_26-42);}.cls-87{fill:url(#Безымянный_градиент_26-43);}.cls-88{fill:url(#Безымянный_градиент_26-44);}.cls-89{fill:url(#Безымянный_градиент_13-13);}.cls-90{fill:url(#Безымянный_градиент_10-13);}.cls-91{fill:url(#Безымянный_градиент_13-14);}.cls-92{fill:url(#Безымянный_градиент_10-14);}.cls-93{fill:url(#Безымянный_градиент_30-7);}.cls-94{fill:url(#Безымянный_градиент_26-45);}.cls-95{fill:url(#Безымянный_градиент_26-46);}.cls-96{fill:url(#Безымянный_градиент_26-47);}.cls-97{fill:url(#Безымянный_градиент_26-48);}.cls-98{fill:url(#Безымянный_градиент_26-49);}.cls-99{fill:url(#Безымянный_градиент_13-15);}.cls-100{fill:url(#Безымянный_градиент_10-15);}.cls-101{fill:url(#Безымянный_градиент_13-16);}.cls-102{fill:url(#Безымянный_градиент_10-16);}.cls-103{fill:url(#Безымянный_градиент_30-8);}.cls-104{fill:url(#Безымянный_градиент_26-50);}.cls-105{fill:url(#Безымянный_градиент_26-51);}.cls-106{fill:url(#Безымянный_градиент_26-52);}.cls-107{fill:url(#Безымянный_градиент_26-53);}.cls-108{fill:url(#Безымянный_градиент_26-54);}</style><linearGradient id="Безымянный_градиент_11" x1="215.95" y1="378.03" x2="215.95" y2="230.03" gradientUnits="userSpaceOnUse"><stop offset="0" stop-color="#534741"/><stop offset="0.53" stop-color="#544941"/><stop offset="0.72" stop-color="#555041"/><stop offset="0.86" stop-color="#595b40"/><stop offset="0.97" stop-color="#5d6c3f"/><stop offset="1" stop-color="#5f723f"/></linearGradient><linearGradient id="Безымянный_градиент_5" x1="248.22" y1="319.53" x2="248.22" y2="266.53" gradientUnits="userSpaceOnUse"><stop offset="0" stop-color="#534741"/><stop offset="0.49" stop-color="#544941"/><stop offset="0.7" stop-color="#565041"/><stop offset="0.85" stop-color="#595c40"/><stop offset="0.98" stop-color="#5e6e3f"/><stop offset="1" stop-color="#5f723f"/></linearGradient><linearGradient id="Безымянный_градиент_26" x1="300.55" y1="261.63" x2="259.51" y2="237.94" gradientUnits="userSpaceOnUse"><stop offset="0" stop-color="#97ad5c"/><stop offset="1" stop-color="#5f723f"/></linearGradient><linearGradient id="Безымянный_градиент_26-2" x1="112.92" y1="229.43" x2="197.72" y2="229.43" xlink:href="#Безымянный_градиент_26"/><linearGradient id="Безымянный_градиент_26-3" x1="226.33" y1="82.95" x2="226.33" y2="52.91" gradientTransform="translate(-4.73 179.55) rotate(-37.63)" xlink:href="#Безымянный_градиент_26"/><linearGradient id="plant" x1="720.89" y1="-204.45" x2="789.76" y2="-204.45" gradientTransform="matrix(0.87, -0.76, 0.57, 0.86, -352.07, 877.89)" gradientUnits="userSpaceOnUse"><stop offset="0" stop-color="#534741"/><stop offset="0.29" stop-color="#554d41"/><stop offset="0.69" stop-color="#5a5f40"/><stop offset="1" stop-color="#5f723f"/></linearGradient><linearGradient id="Безымянный_градиент_26-4" x1="36.02" y1="56.48" x2="84.47" y2="114.23" gradientTransform="translate(-4.73 179.55) rotate(-37.63)" xlink:href="#Безымянный_градиент_26"/><linearGradient id="Безымянный_градиент_26-5" x1="163.89" y1="117.9" x2="142.28" y2="80.47" gradientTransform="translate(-4.73 179.55) rotate(-37.63)" xlink:href="#Безымянный_градиент_26"/><linearGradient id="Безымянный_градиент_26-6" x1="25.85" y1="-16.66" x2="97.25" y2="-16.66" gradientTransform="translate(-4.73 179.55) rotate(-37.63)" xlink:href="#Безымянный_градиент_26"/><linearGradient id="Безымянный_градиент_26-7" x1="89.75" y1="38.21" x2="132.06" y2="53.61" gradientTransform="translate(-4.73 179.55) rotate(-37.63)" xlink:href="#Безымянный_градиент_26"/><linearGradient id="Безымянный_градиент_26-8" x1="187.39" y1="0.82" x2="144.51" y2="25.57" gradientTransform="translate(-4.73 179.55) rotate(-37.63)" xlink:href="#Безымянный_градиент_26"/><linearGradient id="plants2" x1="68.11" y1="34.98" x2="138.92" y2="34.98" gradientTransform="translate(-4.73 179.55) rotate(-37.63)" gradientUnits="userSpaceOnUse"><stop offset="0" stop-color="#5f723f"/><stop offset="0.26" stop-color="#5b6340"/><stop offset="0.7" stop-color="#554e41"/><stop offset="1" stop-color="#534741"/></linearGradient><linearGradient id="plants2-2" x1="71.7" y1="103.76" x2="177.83" y2="103.76" xlink:href="#plants2"/><linearGradient id="plant-2" x1="70.7" y1="103.87" x2="178.83" y2="103.87" gradientTransform="translate(-4.73 179.55) rotate(-37.63)" xlink:href="#plant"/><linearGradient id="plants2-3" x1="59.55" y1="108.5" x2="75.65" y2="108.5" xlink:href="#plants2"/><linearGradient id="plant-3" x1="239.52" y1="32.06" x2="286.16" y2="32.06" gradientTransform="matrix(0.81, -0.64, 0.6, 0.81, -76.86, 324.56)" xlink:href="#plant"/><linearGradient id="plant-4" x1="238.14" y1="32.26" x2="287.53" y2="32.26" gradientTransform="matrix(0.81, -0.64, 0.6, 0.81, -76.86, 324.56)" xlink:href="#plant"/><linearGradient id="plants2-4" x1="111.53" y1="63.43" x2="123.48" y2="63.43" xlink:href="#plants2"/><linearGradient id="plants2-5" x1="110.13" y1="63.4" x2="124.84" y2="63.4" xlink:href="#plants2"/><linearGradient id="Безымянный_градиент_26-9" x1="6584.36" y1="3258.11" x2="6584.36" y2="3228.06" gradientTransform="matrix(-0.57, -0.84, -0.79, 0.59, 6817.36, 3792.82)" xlink:href="#Безымянный_градиент_26"/><linearGradient id="plant-5" x1="6477.31" y1="3263.18" x2="6546.18" y2="3263.18" gradientTransform="matrix(-0.6, -1.01, -0.78, 0.67, 6949.48, 4582.21)" xlink:href="#plant"/><linearGradient id="Безымянный_градиент_26-10" x1="6394.04" y1="3231.64" x2="6442.5" y2="3289.38" gradientTransform="matrix(-0.57, -0.84, -0.79, 0.59, 6817.36, 3792.82)" xlink:href="#Безымянный_градиент_26"/><linearGradient id="Безымянный_градиент_26-11" x1="6521.91" y1="3293.05" x2="6500.31" y2="3255.62" gradientTransform="matrix(-0.57, -0.84, -0.79, 0.59, 6817.36, 3792.82)" xlink:href="#Безымянный_градиент_26"/><linearGradient id="Безымянный_градиент_26-12" x1="6383.88" y1="3158.5" x2="6455.28" y2="3158.5" gradientTransform="matrix(-0.57, -0.84, -0.79, 0.59, 6817.36, 3792.82)" xlink:href="#Безымянный_градиент_26"/><linearGradient id="Безымянный_градиент_26-13" x1="6447.77" y1="3213.37" x2="6490.08" y2="3228.77" gradientTransform="matrix(-0.57, -0.84, -0.79, 0.59, 6817.36, 3792.82)" xlink:href="#Безымянный_градиент_26"/><linearGradient id="Безымянный_градиент_26-14" x1="6545.42" y1="3175.97" x2="6502.54" y2="3200.73" gradientTransform="matrix(-0.57, -0.84, -0.79, 0.59, 6817.36, 3792.82)" xlink:href="#Безымянный_градиент_26"/><linearGradient id="plants2-6" x1="6426.14" y1="3210.14" x2="6496.94" y2="3210.14" gradientTransform="matrix(-0.57, -0.84, -0.79, 0.59, 6817.36, 3792.82)" xlink:href="#plants2"/><linearGradient id="plants2-7" x1="6429.72" y1="3278.91" x2="6535.85" y2="3278.91" gradientTransform="matrix(-0.57, -0.84, -0.79, 0.59, 6817.36, 3792.82)" xlink:href="#plants2"/><linearGradient id="plant-6" x1="6428.72" y1="3279.03" x2="6536.85" y2="3279.03" gradientTransform="matrix(-0.57, -0.84, -0.79, 0.59, 6817.36, 3792.82)" xlink:href="#plant"/><linearGradient id="plants2-8" x1="6417.57" y1="3283.65" x2="6433.68" y2="3283.65" gradientTransform="matrix(-0.57, -0.84, -0.79, 0.59, 6817.36, 3792.82)" xlink:href="#plants2"/><linearGradient id="plant-7" x1="6452.85" y1="3277.56" x2="6499.49" y2="3277.56" gradientTransform="matrix(-0.58, -0.87, -0.79, 0.6, 6844.8, 3956.74)" xlink:href="#plant"/><linearGradient id="plant-8" x1="6451.47" y1="3277.76" x2="6500.86" y2="3277.76" gradientTransform="matrix(-0.58, -0.87, -0.79, 0.6, 6844.8, 3956.74)" xlink:href="#plant"/><linearGradient id="plants2-9" x1="6469.55" y1="3238.58" x2="6481.51" y2="3238.58" gradientTransform="matrix(-0.57, -0.84, -0.79, 0.59, 6817.36, 3792.82)" xlink:href="#plants2"/><linearGradient id="plants2-10" x1="6468.16" y1="3238.55" x2="6482.87" y2="3238.55" gradientTransform="matrix(-0.57, -0.84, -0.79, 0.59, 6817.36, 3792.82)" xlink:href="#plants2"/><linearGradient id="Безымянный_градиент_13" x1="9319.52" y1="263.38" x2="9400.97" y2="263.38" gradientTransform="matrix(-1.09, 0, 0, 1, 10572.98, 0)" gradientUnits="userSpaceOnUse"><stop offset="0" stop-color="#534741"/><stop offset="0.49" stop-color="#544941"/><stop offset="0.69" stop-color="#565041"/><stop offset="0.85" stop-color="#595d40"/><stop offset="0.98" stop-color="#5e6e3f"/><stop offset="1" stop-color="#5f723f"/></linearGradient><linearGradient id="Безымянный_градиент_10" x1="9349.08" y1="113.9" x2="9349.08" y2="54.45" gradientTransform="matrix(-1.09, 0, 0, 1, 10572.98, 0)" gradientUnits="userSpaceOnUse"><stop offset="0" stop-color="#534741"/><stop offset="0.33" stop-color="#544a41"/><stop offset="0.61" stop-color="#575540"/><stop offset="0.87" stop-color="#5c6740"/><stop offset="1" stop-color="#5f723f"/></linearGradient><linearGradient id="Безымянный_градиент_13-2" x1="9297.11" y1="278.88" x2="9297.11" y2="249.28" xlink:href="#Безымянный_градиент_13"/><linearGradient id="Безымянный_градиент_10-2" x1="9322.07" y1="209.7" x2="9322.07" y2="155.86" xlink:href="#Безымянный_градиент_10"/><linearGradient id="Безымянный_градиент_30" x1="9334.55" y1="203.33" x2="9377.36" y2="203.33" gradientTransform="matrix(-1.09, 0, 0, 1, 10572.98, 0)" gradientUnits="userSpaceOnUse"><stop offset="0" stop-color="#534741"/><stop offset="0.11" stop-color="#565141"/><stop offset="0.39" stop-color="#5b6340"/><stop offset="0.68" stop-color="#5e6e3f"/><stop offset="1" stop-color="#5f723f"/></linearGradient><linearGradient id="Безымянный_градиент_26-15" x1="9226.55" y1="258.81" x2="9304.87" y2="258.81" gradientTransform="matrix(-1.09, 0, 0, 1, 10572.98, 0)" xlink:href="#Безымянный_градиент_26"/><linearGradient id="Безымянный_градиент_26-16" x1="9275.58" y1="148.88" x2="9336.12" y2="148.88" gradientTransform="matrix(-1.09, 0, 0, 1, 10572.98, 0)" xlink:href="#Безымянный_градиент_26"/><linearGradient id="Безымянный_градиент_26-17" x1="9382.9" y1="217.01" x2="9382.9" y2="179.89" gradientTransform="matrix(-1.09, 0, 0, 1, 10572.98, 0)" xlink:href="#Безымянный_градиент_26"/><linearGradient id="Безымянный_градиент_26-18" x1="9400.62" y1="171.43" x2="9400.62" y2="98.5" gradientTransform="matrix(-1.09, 0, 0, 1, 10572.98, 0)" xlink:href="#Безымянный_градиент_26"/><linearGradient id="Безымянный_градиент_26-19" x1="9295.19" y1="73.24" x2="9348.78" y2="73.24" gradientTransform="matrix(-1.09, 0, 0, 1, 10572.98, 0)" xlink:href="#Безымянный_градиент_26"/><linearGradient id="Безымянный_градиент_13-3" x1="9331.04" y1="-189.04" x2="9412.49" y2="-189.04" gradientTransform="matrix(-1.08, 0.15, 0.17, 0.99, 10426.36, -858.07)" xlink:href="#Безымянный_градиент_13"/><linearGradient id="Безымянный_градиент_10-3" x1="9360.59" y1="-338.51" x2="9360.59" y2="-397.97" gradientTransform="matrix(-1.08, 0.15, 0.17, 0.99, 10426.36, -858.07)" xlink:href="#Безымянный_градиент_10"/><linearGradient id="Безымянный_градиент_13-4" x1="9308.62" y1="-173.54" x2="9308.62" y2="-203.14" gradientTransform="matrix(-1.08, 0.15, 0.17, 0.99, 10426.36, -858.07)" xlink:href="#Безымянный_градиент_13"/><linearGradient id="Безымянный_градиент_10-4" x1="9333.58" y1="-242.72" x2="9333.58" y2="-296.56" gradientTransform="matrix(-1.08, 0.15, 0.17, 0.99, 10426.36, -858.07)" xlink:href="#Безымянный_градиент_10"/><linearGradient id="Безымянный_градиент_30-2" x1="9346.06" y1="-249.09" x2="9388.87" y2="-249.09" gradientTransform="matrix(-1.08, 0.15, 0.17, 0.99, 10426.36, -858.07)" xlink:href="#Безымянный_градиент_30"/><linearGradient id="Безымянный_градиент_26-20" x1="9238.06" y1="-193.6" x2="9316.38" y2="-193.6" gradientTransform="matrix(-1.08, 0.15, 0.17, 0.99, 10426.36, -858.07)" xlink:href="#Безымянный_градиент_26"/><linearGradient id="Безымянный_градиент_26-21" x1="9287.09" y1="-303.54" x2="9347.63" y2="-303.54" gradientTransform="matrix(-1.08, 0.15, 0.17, 0.99, 10426.36, -858.07)" xlink:href="#Безымянный_градиент_26"/><linearGradient id="Безымянный_градиент_26-22" x1="9394.42" y1="-235.4" x2="9394.42" y2="-272.53" gradientTransform="matrix(-1.08, 0.15, 0.17, 0.99, 10426.36, -858.07)" xlink:href="#Безымянный_градиент_26"/><linearGradient id="Безымянный_градиент_26-23" x1="9412.13" y1="-280.99" x2="9412.13" y2="-353.91" gradientTransform="matrix(-1.08, 0.15, 0.17, 0.99, 10426.36, -858.07)" xlink:href="#Безымянный_градиент_26"/><linearGradient id="Безымянный_градиент_26-24" x1="9306.7" y1="-379.17" x2="9360.29" y2="-379.17" gradientTransform="matrix(-1.08, 0.15, 0.17, 0.99, 10426.36, -858.07)" xlink:href="#Безымянный_градиент_26"/><linearGradient id="Безымянный_градиент_13-5" x1="8801.09" y1="2701.03" x2="8882.54" y2="2701.03" gradientTransform="matrix(-0.9, -0.57, -0.62, 0.82, 9908.99, 3351.05)" xlink:href="#Безымянный_градиент_13"/><linearGradient id="Безымянный_градиент_10-5" x1="8830.64" y1="2551.55" x2="8830.64" y2="2492.1" gradientTransform="matrix(-0.9, -0.57, -0.62, 0.82, 9908.99, 3351.05)" xlink:href="#Безымянный_градиент_10"/><linearGradient id="Безымянный_градиент_13-6" x1="8778.68" y1="2716.52" x2="8778.68" y2="2686.93" gradientTransform="matrix(-0.9, -0.57, -0.62, 0.82, 9908.99, 3351.05)" xlink:href="#Безымянный_градиент_13"/><linearGradient id="Безымянный_градиент_10-6" x1="8803.63" y1="2647.35" x2="8803.63" y2="2593.51" gradientTransform="matrix(-0.9, -0.57, -0.62, 0.82, 9908.99, 3351.05)" xlink:href="#Безымянный_градиент_10"/><linearGradient id="Безымянный_градиент_30-3" x1="8816.12" y1="2640.98" x2="8858.93" y2="2640.98" gradientTransform="matrix(-0.9, -0.57, -0.62, 0.82, 9908.99, 3351.05)" xlink:href="#Безымянный_градиент_30"/><linearGradient id="Безымянный_градиент_26-25" x1="8708.11" y1="2696.46" x2="8786.44" y2="2696.46" gradientTransform="matrix(-0.9, -0.57, -0.62, 0.82, 9908.99, 3351.05)" xlink:href="#Безымянный_градиент_26"/><linearGradient id="Безымянный_градиент_26-26" x1="8757.15" y1="2586.53" x2="8817.69" y2="2586.53" gradientTransform="matrix(-0.9, -0.57, -0.62, 0.82, 9908.99, 3351.05)" xlink:href="#Безымянный_градиент_26"/><linearGradient id="Безымянный_градиент_26-27" x1="8864.47" y1="2654.66" x2="8864.47" y2="2617.54" gradientTransform="matrix(-0.9, -0.57, -0.62, 0.82, 9908.99, 3351.05)" xlink:href="#Безымянный_градиент_26"/><linearGradient id="Безымянный_градиент_26-28" x1="8882.19" y1="2609.08" x2="8882.19" y2="2536.15" gradientTransform="matrix(-0.9, -0.57, -0.62, 0.82, 9908.99, 3351.05)" xlink:href="#Безымянный_градиент_26"/><linearGradient id="Безымянный_градиент_26-29" x1="8776.76" y1="2510.89" x2="8830.34" y2="2510.89" gradientTransform="matrix(-0.9, -0.57, -0.62, 0.82, 9908.99, 3351.05)" xlink:href="#Безымянный_градиент_26"/><linearGradient id="Безымянный_градиент_13-7" x1="9397.83" y1="-82.56" x2="9479.28" y2="-82.56" gradientTransform="matrix(-1.08, 0.16, 0.17, 0.99, 10380.95, -916.12)" xlink:href="#Безымянный_градиент_13"/><linearGradient id="Безымянный_градиент_10-7" x1="9427.38" y1="-232.03" x2="9427.38" y2="-291.49" gradientTransform="matrix(-1.08, 0.16, 0.17, 0.99, 10380.95, -916.12)" xlink:href="#Безымянный_градиент_10"/><linearGradient id="Безымянный_градиент_13-8" x1="9375.41" y1="-67.06" x2="9375.41" y2="-96.66" gradientTransform="matrix(-1.08, 0.16, 0.17, 0.99, 10380.95, -916.12)" xlink:href="#Безымянный_градиент_13"/><linearGradient id="Безымянный_градиент_10-8" x1="9400.37" y1="-136.24" x2="9400.37" y2="-190.08" gradientTransform="matrix(-1.08, 0.16, 0.17, 0.99, 10380.95, -916.12)" xlink:href="#Безымянный_градиент_10"/><linearGradient id="Безымянный_градиент_30-4" x1="9412.85" y1="-142.61" x2="9455.66" y2="-142.61" gradientTransform="matrix(-1.08, 0.16, 0.17, 0.99, 10380.95, -916.12)" xlink:href="#Безымянный_градиент_30"/><linearGradient id="Безымянный_градиент_26-30" x1="9304.85" y1="-87.12" x2="9383.17" y2="-87.12" gradientTransform="matrix(-1.08, 0.16, 0.17, 0.99, 10380.95, -916.12)" xlink:href="#Безымянный_градиент_26"/><linearGradient id="Безымянный_градиент_26-31" x1="9353.88" y1="-197.06" x2="9414.42" y2="-197.06" gradientTransform="matrix(-1.08, 0.16, 0.17, 0.99, 10380.95, -916.12)" xlink:href="#Безымянный_градиент_26"/><linearGradient id="Безымянный_градиент_26-32" x1="9461.21" y1="-128.93" x2="9461.21" y2="-166.05" gradientTransform="matrix(-1.08, 0.16, 0.17, 0.99, 10380.95, -916.12)" xlink:href="#Безымянный_градиент_26"/><linearGradient id="Безымянный_градиент_26-33" x1="9478.92" y1="-174.51" x2="9478.92" y2="-247.43" gradientTransform="matrix(-1.08, 0.16, 0.17, 0.99, 10380.95, -916.12)" xlink:href="#Безымянный_градиент_26"/><linearGradient id="Безымянный_градиент_26-34" x1="9373.49" y1="-272.69" x2="9427.08" y2="-272.69" gradientTransform="matrix(-1.08, 0.16, 0.17, 0.99, 10380.95, -916.12)" xlink:href="#Безымянный_градиент_26"/><linearGradient id="Безымянный_градиент_13-9" x1="9450.03" y1="253.27" x2="9531.47" y2="253.27" gradientTransform="matrix(-1.08, 0.12, 0.13, 0.99, 10410.92, -715.15)" xlink:href="#Безымянный_градиент_13"/><linearGradient id="Безымянный_градиент_10-9" x1="9479.58" y1="103.8" x2="9479.58" y2="44.34" gradientTransform="matrix(-1.08, 0.12, 0.13, 0.99, 10410.92, -715.15)" xlink:href="#Безымянный_градиент_10"/><linearGradient id="Безымянный_градиент_13-10" x1="9427.61" y1="268.77" x2="9427.61" y2="239.17" gradientTransform="matrix(-1.08, 0.12, 0.13, 0.99, 10410.92, -715.15)" xlink:href="#Безымянный_градиент_13"/><linearGradient id="Безымянный_градиент_10-10" x1="9452.57" y1="199.59" x2="9452.57" y2="145.75" gradientTransform="matrix(-1.08, 0.12, 0.13, 0.99, 10410.92, -715.15)" xlink:href="#Безымянный_градиент_10"/><linearGradient id="Безымянный_градиент_30-5" x1="9465.05" y1="193.22" x2="9507.86" y2="193.22" gradientTransform="matrix(-1.08, 0.12, 0.13, 0.99, 10410.92, -715.15)" xlink:href="#Безымянный_градиент_30"/><linearGradient id="Безымянный_градиент_26-35" x1="9357.05" y1="248.71" x2="9435.37" y2="248.71" gradientTransform="matrix(-1.08, 0.12, 0.13, 0.99, 10410.92, -715.15)" xlink:href="#Безымянный_градиент_26"/><linearGradient id="Безымянный_градиент_26-36" x1="9406.08" y1="138.77" x2="9466.62" y2="138.77" gradientTransform="matrix(-1.08, 0.12, 0.13, 0.99, 10410.92, -715.15)" xlink:href="#Безымянный_градиент_26"/><linearGradient id="Безымянный_градиент_26-37" x1="9513.41" y1="206.9" x2="9513.41" y2="169.78" gradientTransform="matrix(-1.08, 0.12, 0.13, 0.99, 10410.92, -715.15)" xlink:href="#Безымянный_градиент_26"/><linearGradient id="Безымянный_градиент_26-38" x1="9531.12" y1="161.32" x2="9531.12" y2="88.4" gradientTransform="matrix(-1.08, 0.12, 0.13, 0.99, 10410.92, -715.15)" xlink:href="#Безымянный_градиент_26"/><linearGradient id="Безымянный_градиент_26-39" x1="9425.69" y1="63.14" x2="9479.28" y2="63.14" gradientTransform="matrix(-1.08, 0.12, 0.13, 0.99, 10410.92, -715.15)" xlink:href="#Безымянный_градиент_26"/><linearGradient id="Безымянный_градиент_13-11" x1="8718.57" y1="3108.29" x2="8800.02" y2="3108.29" gradientTransform="matrix(-0.88, -0.59, -0.65, 0.81, 9909.62, 3531.69)" xlink:href="#Безымянный_градиент_13"/><linearGradient id="Безымянный_градиент_10-11" x1="8748.13" y1="2958.81" x2="8748.13" y2="2899.36" gradientTransform="matrix(-0.88, -0.59, -0.65, 0.81, 9909.62, 3531.69)" xlink:href="#Безымянный_градиент_10"/><linearGradient id="Безымянный_градиент_13-12" x1="8696.16" y1="3123.79" x2="8696.16" y2="3094.19" gradientTransform="matrix(-0.88, -0.59, -0.65, 0.81, 9909.62, 3531.69)" xlink:href="#Безымянный_градиент_13"/><linearGradient id="Безымянный_градиент_10-12" x1="8721.12" y1="3054.61" x2="8721.12" y2="3000.77" gradientTransform="matrix(-0.88, -0.59, -0.65, 0.81, 9909.62, 3531.69)" xlink:href="#Безымянный_градиент_10"/><linearGradient id="Безымянный_градиент_30-6" x1="8733.6" y1="3048.24" x2="8776.41" y2="3048.24" gradientTransform="matrix(-0.88, -0.59, -0.65, 0.81, 9909.62, 3531.69)" xlink:href="#Безымянный_градиент_30"/><linearGradient id="Безымянный_градиент_26-40" x1="8625.59" y1="3103.72" x2="8703.92" y2="3103.72" gradientTransform="matrix(-0.88, -0.59, -0.65, 0.81, 9909.62, 3531.69)" xlink:href="#Безымянный_градиент_26"/><linearGradient id="Безымянный_градиент_26-41" x1="8674.63" y1="2993.79" x2="8735.17" y2="2993.79" gradientTransform="matrix(-0.88, -0.59, -0.65, 0.81, 9909.62, 3531.69)" xlink:href="#Безымянный_градиент_26"/><linearGradient id="Безымянный_градиент_26-42" x1="8781.95" y1="3061.92" x2="8781.95" y2="3024.8" gradientTransform="matrix(-0.88, -0.59, -0.65, 0.81, 9909.62, 3531.69)" xlink:href="#Безымянный_градиент_26"/><linearGradient id="Безымянный_градиент_26-43" x1="8799.67" y1="3016.34" x2="8799.67" y2="2943.41" gradientTransform="matrix(-0.88, -0.59, -0.65, 0.81, 9909.62, 3531.69)" xlink:href="#Безымянный_градиент_26"/><linearGradient id="Безымянный_градиент_26-44" x1="8694.24" y1="2918.15" x2="8747.83" y2="2918.15" gradientTransform="matrix(-0.88, -0.59, -0.65, 0.81, 9909.62, 3531.69)" xlink:href="#Безымянный_градиент_26"/><linearGradient id="Безымянный_градиент_13-13" x1="9425.19" y1="2100.88" x2="9506.64" y2="2100.88" gradientTransform="matrix(-1.04, -0.29, -0.32, 0.96, 10639.24, 1743.49)" xlink:href="#Безымянный_градиент_13"/><linearGradient id="Безымянный_градиент_10-13" x1="9454.74" y1="1951.4" x2="9454.74" y2="1891.95" gradientTransform="matrix(-1.04, -0.29, -0.32, 0.96, 10639.24, 1743.49)" xlink:href="#Безымянный_градиент_10"/><linearGradient id="Безымянный_градиент_13-14" x1="9402.77" y1="2116.37" x2="9402.77" y2="2086.78" gradientTransform="matrix(-1.04, -0.29, -0.32, 0.96, 10639.24, 1743.49)" xlink:href="#Безымянный_градиент_13"/><linearGradient id="Безымянный_градиент_10-14" x1="9427.73" y1="2047.2" x2="9427.73" y2="1993.36" gradientTransform="matrix(-1.04, -0.29, -0.32, 0.96, 10639.24, 1743.49)" xlink:href="#Безымянный_градиент_10"/><linearGradient id="Безымянный_градиент_30-7" x1="9440.21" y1="2040.83" x2="9483.02" y2="2040.83" gradientTransform="matrix(-1.04, -0.29, -0.32, 0.96, 10639.24, 1743.49)" xlink:href="#Безымянный_градиент_30"/><linearGradient id="Безымянный_градиент_26-45" x1="9332.21" y1="2096.31" x2="9410.53" y2="2096.31" gradientTransform="matrix(-1.04, -0.29, -0.32, 0.96, 10639.24, 1743.49)" xlink:href="#Безымянный_градиент_26"/><linearGradient id="Безымянный_градиент_26-46" x1="9381.24" y1="1986.38" x2="9441.78" y2="1986.38" gradientTransform="matrix(-1.04, -0.29, -0.32, 0.96, 10639.24, 1743.49)" xlink:href="#Безымянный_градиент_26"/><linearGradient id="Безымянный_градиент_26-47" x1="9488.57" y1="2054.51" x2="9488.57" y2="2017.39" gradientTransform="matrix(-1.04, -0.29, -0.32, 0.96, 10639.24, 1743.49)" xlink:href="#Безымянный_градиент_26"/><linearGradient id="Безымянный_градиент_26-48" x1="9506.28" y1="2008.93" x2="9506.28" y2="1936" gradientTransform="matrix(-1.04, -0.29, -0.32, 0.96, 10639.24, 1743.49)" xlink:href="#Безымянный_градиент_26"/><linearGradient id="Безымянный_градиент_26-49" x1="9400.85" y1="1910.74" x2="9454.44" y2="1910.74" gradientTransform="matrix(-1.04, -0.29, -0.32, 0.96, 10639.24, 1743.49)" xlink:href="#Безымянный_градиент_26"/><linearGradient id="Безымянный_градиент_13-15" x1="232.04" y1="123.11" x2="310.77" y2="123.11" gradientTransform="matrix(0.82, -0.57, 0.57, 0.82, -29.76, 182.35)" xlink:href="#Безымянный_градиент_13"/><linearGradient id="Безымянный_градиент_10-15" x1="258.87" y1="34.67" x2="258.87" y2="-24.78" gradientTransform="matrix(0.82, -0.57, 0.57, 0.82, -29.76, 182.35)" xlink:href="#Безымянный_градиент_10"/><linearGradient id="Безымянный_градиент_13-16" x1="206.9" y1="199.64" x2="206.9" y2="170.05" gradientTransform="matrix(0.82, -0.57, 0.57, 0.82, -29.76, 182.35)" xlink:href="#Безымянный_градиент_13"/><linearGradient id="Безымянный_градиент_10-16" x1="231.86" y1="130.46" x2="231.86" y2="76.62" gradientTransform="matrix(0.82, -0.57, 0.57, 0.82, -29.76, 182.35)" xlink:href="#Безымянный_градиент_10"/><linearGradient id="Безымянный_градиент_30-8" x1="244.34" y1="124.1" x2="287.16" y2="124.1" gradientTransform="matrix(0.82, -0.57, 0.57, 0.82, -29.76, 182.35)" xlink:href="#Безымянный_градиент_30"/><linearGradient id="Безымянный_градиент_26-50" x1="136.34" y1="179.58" x2="214.66" y2="179.58" gradientTransform="matrix(0.82, -0.57, 0.57, 0.82, -29.76, 182.35)" xlink:href="#Безымянный_градиент_26"/><linearGradient id="Безымянный_градиент_26-51" x1="185.37" y1="69.64" x2="245.91" y2="69.64" gradientTransform="matrix(0.82, -0.57, 0.57, 0.82, -29.76, 182.35)" xlink:href="#Безымянный_градиент_26"/><linearGradient id="Безымянный_градиент_26-52" x1="304.51" y1="143.29" x2="304.51" y2="106.17" gradientTransform="translate(-37.65 106.5) rotate(-20.6)" xlink:href="#Безымянный_градиент_26"/><linearGradient id="Безымянный_градиент_26-53" x1="331.95" y1="92.61" x2="331.95" y2="19.68" gradientTransform="translate(97.34 323.96) rotate(-69.3)" xlink:href="#Безымянный_градиент_26"/><linearGradient id="Безымянный_градиент_26-54" x1="186.36" y1="-17.58" x2="239.95" y2="-17.58" gradientTransform="matrix(0.97, 0.26, -0.26, 0.97, -68.94, -7.56)" xlink:href="#Безымянный_градиент_26"/></defs><title>plants_2</title><g id="Capa_2" data-name="Capa 2"><g id="plantas"><g id="plantas_2"><path class="cls-1" d="M185.22,239s14,5,23,16,7,34,12,44,21,29,17,51-4,28-4,28,6-10,11-10,1-17,0-24-5-26-7-29a103.89,103.89,0,0,1-15-40c-3-21-16.5-30.5-20-33-2.57-1.84-17-12-17-12Z"/><path class="cls-2" d="M231.72,306.53a34.76,34.76,0,0,1,12-19c10-8,20-21,20-21l1,4s-24.63,24-26,35a53.6,53.6,0,0,0,0,14Z"/><path class="cls-3" d="M260.72,270.53s-8,10-14-1,16-31,33-34,36-5,38-7,3,0-1,4-16,21-20,31-16,26-24,25-12-6-12-11Z"/><path class="cls-4" d="M187.72,234.53s4.56,16-17,15c-21-1-29-14-34-18s-17-10-22-12,2-2,2-2,14-1,22-4,25-6,37-3,22,10,22,19S187.72,234.53,187.72,234.53Z"/><path class="cls-5" d="M235.44,96.27c3.69-4.73,7.1-10,12.52-12.74-4.49.15-9-1-13.43-1.65-15.51-2.1-50.83,6.33-45.85,27.92C194.93,136.91,228.43,105.24,235.44,96.27Z"/><path class="cls-6" d="M212.16,103.41l.32,1.84c-14.85,4.51-26.56,11.77-34.79,21.58-8.06,9.6-13,22.1-17.31,33.13l-1.62-.59c4.4-11.18,9.38-23.86,17.67-33.74C184.93,115.51,197,108,212.16,103.41Z"/><path class="cls-7" d="M94,225.39c-7.47-12.62-15.78-26.29-29.59-31.7-1.45-.57-3.42-.91-4.27.33,8.07-4.56,16.94-8,26.31-9s19.28.75,27.34,5.82c12.64,7.95,21.36,27.08,14.62,40.75C119.92,248.74,101.32,237.84,94,225.39Z"/><path class="cls-8" d="M190.65,172.94l9.25-19.2c1.79-3.7,4.23-7.88,8.43-8.3-10-6.15-23.07-6.45-33.53-1.76-12.33,5.54-28.2,23.23-22.31,38.15C160.37,201.78,185.18,184.3,190.65,172.94Z"/><path class="cls-9" d="M55.3,134.59c-4.26,2.54-9.43,3.2-14.43,3.81L0,143.35c4.61-7.71,9.38-15.41,15.54-22s13.89-12,22.81-14.2c6.71-1.65,22.52-2.53,27.26,4.35C70.47,118.58,61.15,131.1,55.3,134.59Z"/><path class="cls-10" d="M126.1,166.27A31.21,31.21,0,0,1,117,163c-4.27-2.06-8.65-4.32-11.55-8-2.33-3-3.51-6.58-5.47-9.77A24.53,24.53,0,0,0,83,134c11.76-7.24,27.78-7.59,40.31-.87a21.56,21.56,0,0,1,7.3,5.86,26.92,26.92,0,0,1,3.29,6.7C136.93,153.75,139.35,168.16,126.1,166.27Z"/><path class="cls-11" d="M134.93,112.16c-4.83-6.36-6.61-14.3-9-21.82a130.2,130.2,0,0,0-7.79-19.22c-1.79-3.57-3.94-7.26-7.49-9.21,14.28-4.26,31.92-.44,40.92,11.63,3,4,4.88,8.59,6.74,13.15,3.8,9.35,6.09,20.52-.36,29.23C151.84,124.19,140.71,119.78,134.93,112.16Z"/><path class="cls-12" d="M112.79,115.7a59,59,0,0,1,21.62,18.52,64.94,64.94,0,0,1,11.66,38l-1.71-.07A63.26,63.26,0,0,0,133,135.14a55.85,55.85,0,0,0-32.34-22.06C80.6,108.44,60.14,116.29,41,125.47l-.8-1.51c19.4-9.3,40.19-17.26,60.78-12.51A53.43,53.43,0,0,1,112.79,115.7Z"/><path class="cls-13" d="M131.55,65.54C145,80.75,153.15,97,155.77,113.75c2.23,14.17.7,20.3-5.7,46.1-.59,2.38-1.23,4.93-1.9,7.66-3.41,13.82-7.12,29.87-7.94,45.42-.9,17.09,1.76,31.39,8.15,43.72,4.65,9,11.35,15.81,19.39,19.8l.18.09c11.19,5.5,22.67,4.45,31.05,3.69a81,81,0,0,0,20.35-4.53l.64,1.57a83.06,83.06,0,0,1-20.78,4.63c-8.1.73-20.35,1.85-32-3.87-8.45-4.15-15.5-11.3-20.36-20.66-6.53-12.6-9.26-27.19-8.34-44.58.83-15.69,4.56-31.82,8-45.71.67-2.74,1.3-5.29,1.9-7.68,6.34-25.53,7.85-31.6,5.67-45.45-2.57-16.45-10.59-32.38-23.81-47.34Z"/><path class="cls-14" d="M90.93,197.88c7,3.49,13.7,9.1,19.89,16.73a186.94,186.94,0,0,1,12.79,18.66c1.33,2.12,2.7,4.3,4.07,6.42,2,3,3.95,5.94,6.66,8.06,3,2.32,6.46,3.26,9.35,2.51l.48,1.62c-3.41.88-7.47-.18-10.87-2.84-2.93-2.29-5-5.32-7.06-8.49-1.38-2.13-2.75-4.32-4.08-6.44a185.1,185.1,0,0,0-12.67-18.49c-7.23-8.91-15.1-15-23.39-18l.56-1.56A44.06,44.06,0,0,1,90.93,197.88Z"/><path class="cls-15" d="M170.89,163.29l-.62,1.6a4.18,4.18,0,0,0-2.86.37c-8.25,3.28-13.73,10.22-16.88,15.46-4.07,6.77-6.64,14.41-9.12,21.8l-1.63-.55c2.51-7.48,5.11-15.21,9.27-22.14,3.29-5.46,9-12.71,17.73-16.17A5.6,5.6,0,0,1,170.89,163.29Z"/><path class="cls-16" d="M114.34,144.29c5.44,2.71,9.93,7.48,14,12.4l1,1.21c4.69,5.68,9.53,11.56,16.21,14.34l-.63,1.53c-7.09-3-12.08-9-16.89-14.85l-1-1.2c-5.11-6.18-10.87-12.12-18.29-13.66l.3-1.63A22.16,22.16,0,0,1,114.34,144.29Z"/><path class="cls-17" d="M454.79,163.82c-2.15-5.75-3.89-12-8.21-16.29,4.17,1.53,8.68,1.73,13.05,2.51,15.12,2.69,45.9,21.76,35.25,41.34C481.51,216,458.87,174.75,454.79,163.82Z"/><path class="cls-18" d="M474.64,177.94l-.81,1.7c12.67,9,21.64,19.66,26.64,31.77,4.89,11.86,6,25.59,7,37.71l1.68-.08c-1-12.29-2.18-26.22-7.22-38.42C496.82,198.12,487.62,187.12,474.64,177.94Z"/><path class="cls-19" d="M551.67,333.45c10.5-10,22.09-20.87,36.53-21.93,1.53-.12,3.46.16,3.91,1.63-6.3-6.93-13.66-13-22.18-16.85s-18.28-5.17-27.25-2.68c-14.06,3.9-27.53,19.94-25,35.37C520.85,348.34,541.31,343.37,551.67,333.45Z"/><path class="cls-20" d="M475.53,252.53l-3.35-21.61c-.65-4.17-1.78-9-5.6-10.7,11.08-2.95,23.42.76,31.93,8.56,10,9.18,20,31.35,10.34,44.14C495.93,290,477.51,265.31,475.53,252.53Z"/><path class="cls-21" d="M613.08,256.5c3.29,3.79,7.95,6,12.48,8.15l37,17.36c-2.19-8.95-4.53-17.94-8.49-26.25s-9.69-16-17.45-20.87c-5.83-3.67-20.41-9.38-26.77-4.1S608.56,251.29,613.08,256.5Z"/><path class="cls-22" d="M537.91,265.79a29.22,29.22,0,0,0,9.41-.41c4.57-.71,9.3-1.58,13-4.3,3-2.18,5.11-5.36,7.83-7.88a23,23,0,0,1,19-5.73,39.91,39.91,0,0,0-37.56-13.2,20.2,20.2,0,0,0-8.47,3.5,26.42,26.42,0,0,0-4.94,5.54C531.23,250.22,525,263.58,537.91,265.79Z"/><path class="cls-23" d="M544.63,210.17c6.29-4.75,10.16-12,14.47-18.6a127.94,127.94,0,0,1,12.63-16.4c2.67-2.95,5.7-5.9,9.58-6.72-12.21-8.54-29.81-10.2-41.6-1.16-3.89,3-7,6.91-10,10.8-6.16,8-11.4,18.2-7.77,28.69C525.44,216.75,537.09,215.85,544.63,210.17Z"/><path class="cls-24" d="M564.41,220.41A55.22,55.22,0,0,0,539,231.9a65.29,65.29,0,0,0-21.49,33.62l1.63.46a63.57,63.57,0,0,1,20.91-32.75c10.48-8.44,23.76-12.7,36.44-11.67,20.1,1.62,37.11,15.56,52.49,30.39l1.16-1.23c-15.61-15-32.89-29.2-53.52-30.86A50.14,50.14,0,0,0,564.41,220.41Z"/><path class="cls-25" d="M560.73,165.61c-16.83,10.75-29,24.12-36.09,39.72-6,13.18-6.28,19.64-7.42,46.83-.11,2.51-.22,5.2-.35,8.08-.63,14.56-1.6,31.39-5.14,46.85-3.89,17-10.36,30.16-19.77,40.26-6.84,7.34-15,12-23.67,13.43l-.19,0c-12,1.94-22.49-2.59-30.14-5.91a80.3,80.3,0,0,1-17.82-10.66l-1,1.34a81.64,81.64,0,0,0,18.19,10.88c7.4,3.21,18.57,8.05,31.08,6,9.07-1.47,17.66-6.31,24.81-14,9.62-10.32,16.22-23.74,20.18-41,3.57-15.59,4.55-32.51,5.18-47.15.13-2.88.24-5.57.35-8.08,1.13-26.92,1.4-33.32,7.27-46.2,7-15.3,18.91-28.42,35.46-39Z"/><path class="cls-26" d="M562.12,307.48c-7.55,1.26-15.36,4.7-23.28,10.27a177.32,177.32,0,0,0-17.17,14.33c-1.83,1.66-3.72,3.37-5.6,5-2.68,2.37-5.35,4.6-8.48,5.84-3.42,1.36-6.95,1.21-9.45-.41l-.91,1.43c3,1.91,7.06,2.12,11,.56,3.37-1.34,6.17-3.67,9-6.14,1.89-1.66,3.79-3.38,5.62-5.05a178.56,178.56,0,0,1,17-14.2c9.25-6.49,18.32-10,26.94-10.46l-.09-1.7A39.21,39.21,0,0,0,562.12,307.48Z"/><path class="cls-27" d="M496.73,249.15l.15,1.75a4,4,0,0,1,2.57,1.24c6.83,5.74,10.05,14.2,11.55,20.3,1.94,7.86,2.23,16.12,2.51,24.11l1.68,0c-.28-8.08-.57-16.44-2.56-24.49-1.56-6.35-4.94-15.2-12.14-21.25A5.43,5.43,0,0,0,496.73,249.15Z"/><path class="cls-28" d="M555,247.89c-5.87,1-11.39,4.28-16.58,7.84l-1.26.88c-6,4.12-12.14,8.39-19.17,9.06l.16,1.69c7.47-.71,13.82-5.1,20-9.35l1.27-.87c6.51-4.48,13.55-8.52,20.94-7.75l.16-1.69A20.46,20.46,0,0,0,555,247.89Z"/><path class="cls-29" d="M345.19,102.87s31.32-11.09,42.31,18.52,21.12,105.29,21.12,105.29,9.32,129,8.11,141.7-5.39,62.43-5.39,62.43,4.53-14.57,10.55-14-.22-155.08-1.6-159.91S401.86,130,392,114.53c-6-9.4-11.58-14.56-19.61-17-6.49-2-14.19-2.58-28.31,1C324.77,107.73,345.19,102.87,345.19,102.87Z"/><path class="cls-30" d="M401.79,58.53s-25.05,1-12,53.65c-.33,6.78-9.8-8.65-9.8-8.65s-2.18-43,12.19-47C412.69,50.87,401.79,58.53,401.79,58.53Z"/><path class="cls-31" d="M421.73,278.88S433.65,255.6,449,254.3s27.49,7.11,27.49,7.11-18.19-13.83-27.54-12-27.7,20.13-27.7,20.13Z"/><path class="cls-32" d="M412.75,209.7s.55-50.08,21.24-53.84c-22.06.13-24.58,39.67-24.58,39.67Z"/><path class="cls-33" d="M406.08,200.41a69.12,69.12,0,0,0-44.59-6.17c7.42,6.62,30.19-2.47,44.68,15.55C410.58,222.42,406.08,200.41,406.08,200.41Z"/><path class="cls-34" d="M456.34,251.83s-10.15-12.66,5.88-14S504,268.51,521.34,266s-20.57,15.88-50,13.63S438.8,256.87,441,253.2,449.62,248.24,456.34,251.83Z"/><path class="cls-35" d="M420.07,169.06s-1.16,17.57,14.22,16.87,37.26-17.79,38-74.13c0,0-7.13,21.85-29.84,25s-45.05,18.71-32.43,32.9C414.85,174.53,420.07,169.06,420.07,169.06Z"/><path class="cls-36" d="M391.6,196.49s11.92-11.58-3.5-15.73-35.53,7.86-38.69,9.32-24.69,5-34.78-1.61,26.4,33.16,62.46,28.1S391.6,196.49,391.6,196.49Z"/><path class="cls-37" d="M343.81,98.64S319,95.75,315.91,117s11.25,54.45,11.25,54.45,1.07-26.66,12.39-31,27.08-25.7,9.27-38.57C340.5,102.29,343.81,98.64,343.81,98.64Z"/><path class="cls-38" d="M392.9,59.57S387.76,80.8,421.22,83s19.71,32.17,26.27,19.83,7.65-58.33-32.05-62.2C388.72,40.53,392.9,59.57,392.9,59.57Z"/><path class="cls-39" d="M246.77,222.65s29.12-15.33,44.88,12.42,38.26,101.12,38.26,101.12,30.51,126.19,31.42,138.94,5,62.45,5,62.45,2.07-15,8.12-15.3S348.6,369,346.43,364.43,307.25,241.52,295,227.66c-7.51-8.46-13.85-12.78-22.19-14.08-6.74-1-14.45-.57-27.82,4.93C227.39,230.3,246.77,222.65,246.77,222.65Z"/><path class="cls-40" d="M295.38,170.94s-24.59,4.48-3,54.7c.79,6.74-11.12-7.19-11.12-7.19s-9.26-42.2,4.29-48.14C304.9,161.85,295.38,170.94,295.38,170.94Z"/><path class="cls-41" d="M351.49,386s7.93-24.66,22.91-28.09,28.34,3.19,28.34,3.19-20.27-11.13-29.19-8-24.06,23.75-24.06,23.75Z"/><path class="cls-42" d="M331.18,318.83s-7.72-49.58,12.11-56.17c-21.78,3.2-17.75,42.63-17.75,42.63Z"/><path class="cls-43" d="M323.06,310.58a69.6,69.6,0,0,0-45.09.12c8.42,5.51,29.43-6.65,46.73,9.14C331.14,331.71,323.06,310.58,323.06,310.58Z"/><path class="cls-44" d="M381.24,354.41s-12.14-11.1,3.5-14.63,46.34,24.48,63.08,19.56-17.71,18.56-47.18,20.44-35.91-17.95-34.36-21.88S374,351.79,381.24,354.41Z"/><path class="cls-45" d="M331.71,277.64s1.76,17.53,16.84,14.7,33.89-22.77,25.35-78.57c0,0-3.44,22.59-25.36,28.88s-41.44,24.77-26.62,37C327.46,283.78,331.71,277.64,331.71,277.64Z"/><path class="cls-46" d="M308.1,308.72S318,295.61,302,293.66s-33.82,12.72-36.7,14.6-23.58,8.37-34.65,3.25,31.58,29.1,66.38,19.08S308.1,308.72,308.1,308.72Z"/><path class="cls-47" d="M244.7,218.66s-24.95.6-24.54,22,20.11,52.26,20.11,52.26-3.35-26.5,7.13-32.34,22.52-29.18,2.79-39.42C242,222.73,244.7,218.66,244.7,218.66Z"/><path class="cls-48" d="M286.77,173.21s-1.57,21.7,31.87,19.24,24.79,29.05,29.24,15.94-2.07-58.72-41.95-57C279.5,155,286.77,173.21,286.77,173.21Z"/><path class="cls-49" d="M385.57,398.69S418.2,405.9,408.92,436s-47.78,97.65-47.78,97.65-72.14,111-81,120.84-43.06,48.55-43.06,48.55,12.74-9.62,17.34-6S350.19,569.32,352,564.62s63.4-114.07,64.82-131.92c.86-10.87-.52-18-5.61-24.21-4.12-5-10.09-9.53-23.92-14C365.76,392,385.57,398.69,385.57,398.69Z"/><path class="cls-50" d="M459.57,391.74s-21.22-12.25-43.05,37.9c-4.47,5.4-2.71-12.24-2.71-12.24s24.81-36.52,39.1-32.29C473.29,391.13,459.57,391.74,459.57,391.74Z"/><path class="cls-51" d="M339.63,583.46s24.21-12.93,37.66-6a40.55,40.55,0,0,1,18.22,20.19s-6.42-20.87-15.26-24.2-35.25,2.1-35.25,2.1Z"/><path class="cls-52" d="M375,521.85s31.46-40.92,50.81-33.22c-18.24-11.4-44.78,19.82-44.78,19.82Z"/><path class="cls-53" d="M375.31,510.73s-8.92-19.23-32.88-28.35c2,9.32,26.38,13.72,27.15,36.12C365.39,531.19,375.31,510.73,375.31,510.73Z"/><path class="cls-54" d="M384.84,579.27s-.52-15.72,13.48-8.43,15.4,47,31.25,54S402.82,627.16,380,610s-12.7-35.69-8.63-37.57S381.54,572.8,384.84,579.27Z"/><path class="cls-55" d="M406.22,492.23s-11.83,13.86,1.25,21.3,41.68,4.81,77.18-41.15c0,0-19.4,14.26-40,5s-48.66-8.12-47.05,10.15C398.54,494,406.22,492.23,406.22,492.23Z"/><path class="cls-56" d="M365.82,499.94s17-3.31,6.85-14.77-34.1-12.07-37.6-12.52-23.4-8.78-27.62-19.48,1.21,41.07,34,55.72S365.82,499.94,365.82,499.94Z"/><path class="cls-57" d="M387.05,394.49s-18.6-15.3-34.3.53-24.45,50.67-24.45,50.67,17.38-21.38,29.36-19,38.19-7,31.5-26.9C382.07,395.77,387.05,394.49,387.05,394.49Z"/><path class="cls-58" d="M451.62,388S434.25,402.75,460.4,422s-3.68,36.75,9.35,30,42.39-44,12.12-67.91C460,370.11,451.62,388,451.62,388Z"/><path class="cls-59" d="M157.53,353.28s29-15.54,45,12.09,39.12,100.85,39.12,100.85,31.59,126,32.6,138.71,5.51,62.42,5.51,62.42,1.95-15.05,8-15.36S260.61,498.92,258.4,494.35s-40.22-122.63-52.65-136.41c-7.57-8.4-13.95-12.68-22.3-13.91-6.75-1-14.46-.47-27.78,5.13C138.22,361.07,157.53,353.28,157.53,353.28Z"/><path class="cls-60" d="M205.71,301.22s-24.56,4.66-2.51,54.72c.85,6.74-11.18-7.1-11.18-7.1s-9.62-42.14,3.88-48.17C215.14,292.06,205.71,301.22,205.71,301.22Z"/><path class="cls-61" d="M263.64,515.83s7.72-24.71,22.67-28.25,28.36,3,28.36,3-20.36-11-29.25-7.77-23.86,23.92-23.86,23.92Z"/><path class="cls-62" d="M242.76,448.86s-8.14-49.53,11.63-56.27C232.63,396,237,435.36,237,435.36Z"/><path class="cls-63" d="M234.57,440.66a69.71,69.71,0,0,0-45.09.44c8.47,5.45,29.38-6.86,46.81,8.81C242.83,461.73,234.57,440.66,234.57,440.66Z"/><path class="cls-64" d="M293.11,484.07s-12.22-11,3.38-14.65,46.55,24.14,63.25,19.11-17.55,18.68-47,20.77-36.06-17.69-34.54-21.63S285.85,481.51,293.11,484.07Z"/><path class="cls-65" d="M242.94,407.66s1.91,17.52,17,14.58,33.7-23,24.69-78.75c0,0-3.26,22.62-25.12,29.06s-41.23,25.07-26.31,37.24C238.74,413.83,242.94,407.66,242.94,407.66Z"/><path class="cls-66" d="M219.59,438.91s9.76-13.18-6.18-15-33.71,13-36.58,14.86-23.51,8.55-34.62,3.51,31.83,28.87,66.54,18.59S219.59,438.91,219.59,438.91Z"/><path class="cls-67" d="M155.43,349.3s-25,.78-24.36,22.19,20.56,52.11,20.56,52.11-3.58-26.47,6.86-32.39,22.26-29.33,2.45-39.43C152.8,353.39,155.43,349.3,155.43,349.3Z"/><path class="cls-68" d="M197.11,303.55s-1.38,21.72,32,19,25,28.88,29.38,15.74-2.57-58.71-42.43-56.72C189.68,285.37,197.11,303.55,197.11,303.55Z"/><path class="cls-69" d="M133,553.41s29.58-14.55,44.47,13.59,35.12,102.08,35.12,102.08,26.6,126.93,27.12,139.7,3,62.56,3,62.56,2.54-15,8.6-15.09S230.23,702.39,228.2,697.74,192.84,573.86,181,559.68c-7.24-8.65-13.44-13.14-21.74-14.65-6.71-1.22-14.43-.95-28,4.21C113.35,560.56,133,553.41,133,553.41Z"/><path class="cls-70" d="M183.15,503s-24.72,3.83-4.66,54.6c.58,6.76-10.9-7.48-10.9-7.48s-7.94-42.42,5.78-48C192.94,494.16,183.15,503,183.15,503Z"/><path class="cls-71" d="M232.59,719.39s8.69-24.45,23.77-27.48,28.23,3.93,28.23,3.93-19.92-11.65-28.93-8.74-24.79,23.12-24.79,23.12Z"/><path class="cls-72" d="M214.37,651.76s-6.19-49.76,13.84-55.84c-21.88,2.64-19.06,42.16-19.06,42.16Z"/><path class="cls-73" d="M206.5,643.3a69.65,69.65,0,0,0-45.08-1.06c8.26,5.73,29.63-5.88,46.44,10.36C213.93,664.64,206.5,643.3,206.5,643.3Z"/><path class="cls-74" d="M263.3,688.63s-11.78-11.41,3.95-14.53,45.57,25.67,62.45,21.2-18.27,18.08-47.79,19.19-35.34-18.87-33.67-22.76S256.14,685.82,263.3,688.63Z"/><path class="cls-75" d="M216.17,610.6s1.21,17.57,16.37,15.14,34.59-21.89,27.77-77.88c0,0-4.14,22.49-26.24,28.21s-42.19,23.68-27.76,36.33C211.73,616.62,216.17,610.6,216.17,610.6Z"/><path class="cls-76" d="M191.6,641.05s10.27-12.84-5.59-15.21-34.19,11.84-37.13,13.64-23.83,7.75-34.74,2.35,30.67,29.91,65.77,20.79S191.6,641.05,191.6,641.05Z"/><path class="cls-77" d="M131,549.37s-25,0-25.22,21.37,18.49,52.76,18.49,52.76-2.53-26.58,8.13-32.14,23.41-28.58,4-39.33C128.23,553.37,131,549.37,131,549.37Z"/><path class="cls-78" d="M174.47,505s-2.24,21.65,31.26,20.06,23.89,29.69,28.74,16.7-.25-58.75-40.17-58.09C167.76,486.62,174.47,505,174.47,505Z"/><path class="cls-79" d="M297.75,691.52s32.38,8.12,22.1,38-51,96.27-51,96.27-75.79,108.92-85,118.51-44.65,47.33-44.65,47.33,13.06-9.26,17.54-5.52,100-125,102-129.63,67.14-112.25,69.15-130.05c1.22-10.84.08-18-4.8-24.36-4-5.13-9.77-9.8-23.45-14.61C278.17,684.32,297.75,691.52,297.75,691.52Z"/><path class="cls-80" d="M372,686.64s-20.81-12.83-44.29,36.68c-4.64,5.28-2.3-12.31-2.3-12.31s26-35.81,40.16-31.19C385.68,686.41,372,686.64,372,686.64Z"/><path class="cls-81" d="M245.72,874.92s24.62-12.25,37.83-4.93a40.19,40.19,0,0,1,17.54,20.69s-5.72-21-14.45-24.62-35.3,1.11-35.3,1.11Z"/><path class="cls-82" d="M283.15,814.33s32.8-40,51.88-31.78c-17.85-11.91-45.41,18.55-45.41,18.55Z"/><path class="cls-83" d="M283.79,803.22s-8.28-19.47-31.93-29.25c1.7,9.37,25.91,14.45,25.94,36.85C273.19,823.39,283.79,803.22,283.79,803.22Z"/><path class="cls-84" d="M291.05,872s0-15.73,13.75-8,13.84,47.42,29.45,54.84-26.82,1.58-49.07-16.27-11.51-36-7.38-37.79S288,865.44,291.05,872Z"/><path class="cls-85" d="M315.3,785.59s-12.28,13.52.54,21.33,41.5,6,78.5-39c0,0-19.85,13.7-40.17,3.89s-48.36-9.47-47.37,8.83C307.56,787.16,315.3,785.59,315.3,785.59Z"/><path class="cls-86" d="M274.66,792.17s17.08-2.83,7.34-14.57-33.69-13-37.17-13.57-23.1-9.42-27-20.24-.15,41.09,32.15,56.65S274.66,792.17,274.66,792.17Z"/><path class="cls-87" d="M299.37,687.36s-18.08-15.81-34.3-.43-26.11,50-26.11,50,18.07-20.88,30-18.18,38.4-6,32.38-26C294.35,688.5,299.37,687.36,299.37,687.36Z"/><path class="cls-88" d="M364.12,682.64s-17.84,14.3,7.66,34.31-4.9,36.63,8.35,30.28,43.83-42.8,14.36-67.54C373.06,665,364.12,682.64,364.12,682.64Z"/><path class="cls-89" d="M132.48,803.79S166,801.65,167,832.93s-13.55,106.33-13.55,106.33S121,1065,115.8,1076.88s-25.16,58.21-25.16,58.21,9-12.69,14.58-10.52,49.47-148.28,49.69-153.28S178,845,173.47,827.58c-2.74-10.61-6.39-17-13.29-21.54-5.57-3.64-12.73-6.3-27.38-6.7C111.41,802.93,132.48,803.79,132.48,803.79Z"/><path class="cls-90" d="M200.78,776.71s-24.26-5.81-28.64,48c-2.48,6.39-6.59-10.92-6.59-10.92s11.69-41.68,26.7-41.61C213.65,772.33,200.78,776.71,200.78,776.71Z"/><path class="cls-91" d="M149.25,992.69s18.85-19,33.95-16.12,24,14.22,24,14.22-13-18.13-22.48-18.86-32.93,11.74-32.93,11.74Z"/><path class="cls-92" d="M162.83,924.15s16.57-47.72,37.55-45.72c-21.13-5.84-36.2,31.27-36.2,31.27Z"/><path class="cls-93" d="M159.43,913.47s-14.81-15.87-40.64-17.94c5,8.33,29.65,5.79,37.72,26.93C156.68,935.72,159.43,913.47,159.43,913.47Z"/><path class="cls-94" d="M191,976.2s-5.66-14.85,10.09-11.77,30.1,40.58,47.5,42.85-24.75,9.61-52.17-.49-23.8-30.52-20.54-33.44S185.72,970.94,191,976.2Z"/><path class="cls-95" d="M182.85,887.28s-6.74,16.49,8.17,20,41.32-6.93,60.11-60.57c0,0-13.82,19-36.53,15.84s-49.06,5.72-41.54,22.69C176.11,891.1,182.85,887.28,182.85,887.28Z"/><path class="cls-96" d="M146.85,905.81s15.1-7.85,1.69-16-36.48-2.08-40-1.55-25.2-1.89-32.73-10.93,14.62,38.82,50.7,43.73S146.85,905.81,146.85,905.81Z"/><path class="cls-97" d="M132.52,799.38s-22.75-9.45-32.54,10-6.7,55.08-6.7,55.08,9.57-25.19,21.77-26.25,34.11-17.25,21.21-34.36C128.19,802,132.52,799.38,132.52,799.38Z"/><path class="cls-98" d="M192,775.3s-11.71,18.91,19.55,30.07,8.54,36.07,18.76,26.06,26-53.69-10.7-68.12C194.06,756,192,775.3,192,775.3Z"/><path class="cls-99" d="M232.55,30.58s-30,7.17-21.51,37.29,43.69,97.73,43.69,97.73,31.86,52.07,40,61.93,1,8,1,8-9.77-20.61-14-17-17-17.25-18.69-22-58-114.18-59.28-132c-.77-10.88.51-18,5.2-24.21,3.79-5,9.27-9.51,22-13.91C250.75,24,232.55,30.58,232.55,30.58Z"/><path class="cls-100" d="M164.6,23.51s19.51-12.21,39.47,38c4.09,5.42,2.51-12.23,2.51-12.23s-22.72-36.56-35.85-32.36C152,22.87,164.6,23.51,164.6,23.51Z"/><path class="cls-101" d="M274.39,215.43s-22.2-13-34.57-6.05-16.76,20.16-16.76,20.16,5.93-20.86,14.06-24.17,32.36,2.15,32.36,2.15Z"/><path class="cls-102" d="M242,153.76s-28.8-41-46.59-33.3c16.77-11.37,41.09,19.89,41.09,19.89Z"/><path class="cls-103" d="M241.76,142.64A59.1,59.1,0,0,1,272,114.35c-1.87,9.32-24.25,13.68-25,36.07C250.83,163.12,241.76,142.64,241.76,142.64Z"/><path class="cls-104" d="M232.88,211.17s.51-15.72-12.36-8.45-14.23,47-28.8,53.94,24.56,2.37,45.56-14.81,11.73-35.66,8-37.55S235.93,204.71,232.88,211.17Z"/><path class="cls-105" d="M213.41,124.09s10.83,13.88-1.19,21.3-38.28,4.74-70.79-41.28c0,0,17.78,14.29,36.75,5.08s44.69-8,43.19,10.23C220.46,125.88,213.41,124.09,213.41,124.09Z"/><path class="cls-106" d="M259.51,126s-14.32-7-2.52-15.86,33.31-4.11,36.53-3.77,23-3.3,29.34-12.75-11,39.58-43.81,46.48S259.51,126,259.51,126Z"/><path class="cls-107" d="M230.72,27s5.34-22.29,26.21-17.48,47.29,28.9,47.29,28.9-25.29-8.5-33-.3-32.84,14.18-39.09-5.67C235.21,25.46,230.72,27,230.72,27Z"/><path class="cls-108" d="M170.7,24.11s-.93,21.73-31.18,16S113.73,66.47,111.09,53,119.35-5.17,155.58.49C179.32,6.7,170.7,24.11,170.7,24.11Z"/></g></g></g></svg>