<svg xmlns="http://www.w3.org/2000/svg" xmlns:xlink="http://www.w3.org/1999/xlink" viewBox="0 0 199.05 185.19"><defs><style>.cls-1{fill:url(#Безымянный_градиент_26);}.cls-10,.cls-2,.cls-8{fill:#657144;}.cls-10,.cls-11,.cls-12,.cls-2,.cls-8,.cls-9{stroke-miterlimit:10;stroke-width:2px;}.cls-2{stroke:url(#plant);}.cls-3{fill:url(#Безымянный_градиент_26-2);}.cls-4{fill:url(#Безымянный_градиент_26-3);}.cls-5{fill:url(#Безымянный_градиент_26-4);}.cls-6{fill:url(#Безымянный_градиент_26-5);}.cls-7{fill:url(#Безымянный_градиент_26-6);}.cls-8{stroke:url(#plants2);}.cls-9{fill:url(#plants2-2);stroke:url(#plant-2);}.cls-10{stroke:url(#plants2-3);}.cls-11{fill:url(#plant-3);stroke:url(#plant-4);}.cls-12{fill:url(#plants2-4);stroke:url(#plants2-5);}</style><linearGradient id="Безымянный_градиент_26" x1="5033.35" y1="2080.34" x2="5033.35" y2="2050.3" gradientTransform="matrix(-0.71, -0.27, -0.33, 0.73, 4268.31, -106.2)" gradientUnits="userSpaceOnUse"><stop offset="0" stop-color="#9baa61"/><stop offset="1" stop-color="#657144"/></linearGradient><linearGradient id="plant" x1="5045.84" y1="2027.3" x2="5114.71" y2="2027.3" gradientTransform="matrix(-0.79, -0.36, -0.29, 0.77, 4651.92, 326.34)" gradientUnits="userSpaceOnUse"><stop offset="0" stop-color="#514943"/><stop offset="0.3" stop-color="#544f43"/><stop offset="0.72" stop-color="#5d6144"/><stop offset="1" stop-color="#657144"/></linearGradient><linearGradient id="Безымянный_градиент_26-2" x1="4843.04" y1="2053.87" x2="4891.49" y2="2111.62" xlink:href="#Безымянный_градиент_26"/><linearGradient id="Безымянный_градиент_26-3" x1="4970.91" y1="2115.29" x2="4949.3" y2="2077.86" xlink:href="#Безымянный_градиент_26"/><linearGradient id="Безымянный_градиент_26-4" x1="4832.87" y1="1980.73" x2="4904.28" y2="1980.73" xlink:href="#Безымянный_градиент_26"/><linearGradient id="Безымянный_градиент_26-5" x1="4896.77" y1="2035.6" x2="4939.08" y2="2051" xlink:href="#Безымянный_градиент_26"/><linearGradient id="Безымянный_градиент_26-6" x1="4994.41" y1="1998.21" x2="4951.54" y2="2022.96" xlink:href="#Безымянный_градиент_26"/><linearGradient id="plants2" x1="4875.14" y1="2032.37" x2="4945.94" y2="2032.37" gradientTransform="matrix(-0.71, -0.27, -0.33, 0.73, 4268.31, -106.2)" gradientUnits="userSpaceOnUse"><stop offset="0" stop-color="#657144"/><stop offset="0.22" stop-color="#5f6544"/><stop offset="0.69" stop-color="#555043"/><stop offset="1" stop-color="#514943"/></linearGradient><linearGradient id="plants2-2" x1="4878.72" y1="2101.15" x2="4984.85" y2="2101.15" xlink:href="#plants2"/><linearGradient id="plant-2" x1="4877.72" y1="2101.26" x2="4985.85" y2="2101.26" gradientTransform="matrix(-0.71, -0.27, -0.33, 0.73, 4268.31, -106.2)" xlink:href="#plant"/><linearGradient id="plants2-3" x1="4866.57" y1="2105.89" x2="4882.67" y2="2105.89" xlink:href="#plants2"/><linearGradient id="plant-3" x1="4930.6" y1="2085.82" x2="4977.24" y2="2085.82" gradientTransform="matrix(-0.73, -0.29, -0.32, 0.73, 4347.96, -16.39)" xlink:href="#plant"/><linearGradient id="plant-4" x1="4929.22" y1="2086.02" x2="4978.61" y2="2086.02" gradientTransform="matrix(-0.73, -0.29, -0.32, 0.73, 4347.96, -16.39)" xlink:href="#plant"/><linearGradient id="plants2-4" x1="4918.55" y1="2060.82" x2="4930.5" y2="2060.82" xlink:href="#plants2"/><linearGradient id="plants2-5" x1="4917.15" y1="2060.79" x2="4931.87" y2="2060.79" xlink:href="#plants2"/></defs><title>plantSmall2</title><g id="Capa_2" data-name="Capa 2"><g id="PLANTES2"><path class="cls-1" d="M11.74,54.23C8.11,51.6,4.6,48.5,0,47.74c3.45-.93,6.63-2.84,9.94-4.33,11.43-5.14,39.77-7.1,39.72,10C49.61,74.82,18.62,59.22,11.74,54.23Z"/><path class="cls-2" d="M30.69,54.1l.08,1.43C42.85,55.43,53,58.07,61,63.4c7.8,5.21,13.71,13.29,18.92,20.42L81,83c-5.29-7.23-11.28-15.43-19.3-20.79C53.51,56.72,43.07,54,30.69,54.1Z"/><path class="cls-3" d="M141.79,116.68c3.5-11,7.45-23,17-30.23,1-.75,2.44-1.45,3.3-.74a52.88,52.88,0,0,0-21.58-.53A37.42,37.42,0,0,0,120.74,95.8c-8.24,8.8-11.55,24.92-4.06,33.44C126.08,139.92,138.34,127.57,141.79,116.68Z"/><path class="cls-4" d="M59.11,100.4l-10.37-12c-2-2.31-4.58-4.83-7.85-4.17A30.82,30.82,0,0,1,66.1,75.15c10.34,1.23,25.49,10.6,23.59,23C87.15,114.65,65.24,107.51,59.11,100.4Z"/><path class="cls-5" d="M155.45,40.78c3.68.89,7.73.18,11.64-.53l32-5.82c-4.85-4.61-9.81-9.19-15.64-12.6a35,35,0,0,0-19.81-5.19c-5.39.34-17.58,3.35-20,9.52C141.13,32.49,150.4,39.56,155.45,40.78Z"/><path class="cls-6" d="M107.07,80.54A27.43,27.43,0,0,0,113.41,76c2.89-2.51,5.83-5.19,7.4-8.59,1.26-2.71,1.53-5.66,2.47-8.46a21.28,21.28,0,0,1,11-12.19c-10.2-2.62-22.45.84-30.82,8.69a18.63,18.63,0,0,0-4.54,6,21.42,21.42,0,0,0-1.34,5.69C96.66,73.81,97.32,85,107.07,80.54Z"/><path class="cls-7" d="M91,42.68c2.57-5.81,2.55-12.08,3-18.17a102.29,102.29,0,0,1,2.59-16c.75-3,1.74-6.27,4.11-8.53C89.11.17,76.35,7.07,71.59,18.06a46.79,46.79,0,0,0-2.84,11.25c-1.27,7.78-1.08,16.55,5.34,21.47C80.19,55.47,87.89,49.64,91,42.68Z"/><path class="cls-8" d="M108.44,40.16A50.08,50.08,0,0,0,92.91,89.57l1.29-.44a49,49,0,0,1,2.22-29.95A48.4,48.4,0,0,1,117.2,35.42c14.47-8.06,31.39-7,47.53-4.68l.34-1.29C148.7,27.08,131.5,26,116.66,34.3A45.94,45.94,0,0,0,108.44,40.16Z"/><path class="cls-9" d="M85.46,7.51c-7.59,14.34-11,28.18-10.07,41.16.76,11,3,15.14,12.33,32.68l2.78,5.21c5,9.4,10.59,20.38,13.91,31.65,3.65,12.4,4.1,23.56,1.38,34.13a37.89,37.89,0,0,1-11.32,19.1l-.12.1c-7.56,6.65-16.48,8.53-23,9.91a64.85,64.85,0,0,1-16.26,1.38l-.22,1.3a66.18,66.18,0,0,0,16.61-1.4c6.3-1.33,15.81-3.35,23.67-10.26a39.33,39.33,0,0,0,11.91-19.95c2.79-10.81,2.33-22.19-1.38-34.81-3.36-11.37-9-22.41-14-31.86l-2.78-5.21c-9.25-17.37-11.45-21.49-12.2-32.21C75.82,35.7,79.15,22.1,86.62,8Z"/><path class="cls-10" d="M139.31,95.7a53.18,53.18,0,0,0-12.23,16.94,156.86,156.86,0,0,0-6.5,16.73c-.64,1.86-1.3,3.79-2,5.67a26.78,26.78,0,0,1-3.67,7.49,9.52,9.52,0,0,1-6.67,4l-.1,1.31a11.1,11.1,0,0,0,7.79-4.61,27.91,27.91,0,0,0,3.89-7.89c.69-1.9,1.35-3.83,2-5.7a155.66,155.66,0,0,1,6.44-16.57c4-8.24,8.89-14.54,14.67-18.71l-.69-1C141.24,94.07,140.27,94.86,139.31,95.7Z"/><path class="cls-11" d="M72.47,88.71l.76,1a3.36,3.36,0,0,1,2.23-.38c6.85.51,12.23,4.35,15.53,7.49,4.27,4.05,7.55,9.09,10.72,14l1.15-.78c-3.21-4.93-6.53-10-10.9-14.18-3.45-3.27-9.07-7.28-16.29-7.82A4.54,4.54,0,0,0,72.47,88.71Z"/><path class="cls-12" d="M112.21,61.6c-3.67,3.26-6.26,7.82-8.5,12.39-.18.37-.37.74-.55,1.12-2.58,5.27-5.24,10.73-9.84,14.33l.74,1C99,86.6,101.69,81,104.34,75.56c.18-.38.37-.75.55-1.12,2.82-5.74,6.17-11.45,11.55-14.3L115.93,59A19.07,19.07,0,0,0,112.21,61.6Z"/></g></g></svg>