<svg xmlns="http://www.w3.org/2000/svg" xmlns:xlink="http://www.w3.org/1999/xlink" viewBox="0 0 987.93 604.52"><defs><style>.cls-1{fill:url(#Безымянный_градиент_13);}.cls-2{fill:url(#Безымянный_градиент_10);}.cls-3{fill:url(#Безымянный_градиент_13-2);}.cls-4{fill:url(#Безымянный_градиент_10-2);}.cls-5{fill:url(#Безымянный_градиент_30);}.cls-6{fill:url(#Безымянный_градиент_26);}.cls-7{fill:url(#Безымянный_градиент_26-2);}.cls-8{fill:url(#Безымянный_градиент_26-3);}.cls-9{fill:url(#Безымянный_градиент_26-4);}.cls-10{fill:url(#Безымянный_градиент_26-5);}.cls-11{fill:url(#Безымянный_градиент_13-3);}.cls-12{fill:url(#Безымянный_градиент_10-3);}.cls-13{fill:url(#Безымянный_градиент_13-4);}.cls-14{fill:url(#Безымянный_градиент_10-4);}.cls-15{fill:url(#Безымянный_градиент_30-2);}.cls-16{fill:url(#Безымянный_градиент_26-6);}.cls-17{fill:url(#Безымянный_градиент_26-7);}.cls-18{fill:url(#Безымянный_градиент_26-8);}.cls-19{fill:url(#Безымянный_градиент_26-9);}.cls-20{fill:url(#Безымянный_градиент_26-10);}.cls-21{fill:url(#Безымянный_градиент_13-5);}.cls-22{fill:url(#Безымянный_градиент_10-5);}.cls-23{fill:url(#Безымянный_градиент_13-6);}.cls-24{fill:url(#Безымянный_градиент_10-6);}.cls-25{fill:url(#Безымянный_градиент_30-3);}.cls-26{fill:url(#Безымянный_градиент_26-11);}.cls-27{fill:url(#Безымянный_градиент_26-12);}.cls-28{fill:url(#Безымянный_градиент_26-13);}.cls-29{fill:url(#Безымянный_градиент_26-14);}.cls-30{fill:url(#Безымянный_градиент_26-15);}.cls-31{fill:url(#Безымянный_градиент_13-7);}.cls-32{fill:url(#Безымянный_градиент_10-7);}.cls-33{fill:url(#Безымянный_градиент_13-8);}.cls-34{fill:url(#Безымянный_градиент_10-8);}.cls-35{fill:url(#Безымянный_градиент_30-4);}.cls-36{fill:url(#Безымянный_градиент_26-16);}.cls-37{fill:url(#Безымянный_градиент_26-17);}.cls-38{fill:url(#Безымянный_градиент_26-18);}.cls-39{fill:url(#Безымянный_градиент_26-19);}.cls-40{fill:url(#Безымянный_градиент_26-20);}.cls-41{fill:url(#Безымянный_градиент_13-9);}.cls-42{fill:url(#Безымянный_градиент_10-9);}.cls-43{fill:url(#Безымянный_градиент_13-10);}.cls-44{fill:url(#Безымянный_градиент_10-10);}.cls-45{fill:url(#Безымянный_градиент_30-5);}.cls-46{fill:url(#Безымянный_градиент_26-21);}.cls-47{fill:url(#Безымянный_градиент_26-22);}.cls-48{fill:url(#Безымянный_градиент_26-23);}.cls-49{fill:url(#Безымянный_градиент_26-24);}.cls-50{fill:url(#Безымянный_градиент_26-25);}.cls-51{fill:url(#Безымянный_градиент_13-11);}.cls-52{fill:url(#Безымянный_градиент_10-11);}.cls-53{fill:url(#Безымянный_градиент_13-12);}.cls-54{fill:url(#Безымянный_градиент_10-12);}.cls-55{fill:url(#Безымянный_градиент_30-6);}.cls-56{fill:url(#Безымянный_градиент_26-26);}.cls-57{fill:url(#Безымянный_градиент_26-27);}.cls-58{fill:url(#Безымянный_градиент_26-28);}.cls-59{fill:url(#Безымянный_градиент_26-29);}.cls-60{fill:url(#Безымянный_градиент_26-30);}.cls-61{fill:url(#Безымянный_градиент_13-13);}.cls-62{fill:url(#Безымянный_градиент_10-13);}.cls-63{fill:url(#Безымянный_градиент_13-14);}.cls-64{fill:url(#Безымянный_градиент_10-14);}.cls-65{fill:url(#Безымянный_градиент_30-7);}.cls-66{fill:url(#Безымянный_градиент_26-31);}.cls-67{fill:url(#Безымянный_градиент_26-32);}.cls-68{fill:url(#Безымянный_градиент_26-33);}.cls-69{fill:url(#Безымянный_градиент_26-34);}.cls-70{fill:url(#Безымянный_градиент_26-35);}</style><linearGradient id="Безымянный_градиент_13" x1="7920.93" y1="3140.64" x2="8002.38" y2="3140.64" gradientTransform="matrix(-0.73, -0.72, -0.7, 0.72, 8780.82, 3636.48)" gradientUnits="userSpaceOnUse"><stop offset="0" stop-color="#534741"/><stop offset="0.49" stop-color="#544941"/><stop offset="0.69" stop-color="#565041"/><stop offset="0.85" stop-color="#595d40"/><stop offset="0.98" stop-color="#5e6e3f"/><stop offset="1" stop-color="#5f723f"/></linearGradient><linearGradient id="Безымянный_градиент_10" x1="7950.48" y1="2991.17" x2="7950.48" y2="2931.72" gradientTransform="matrix(-0.73, -0.72, -0.7, 0.72, 8780.82, 3636.48)" gradientUnits="userSpaceOnUse"><stop offset="0" stop-color="#534741"/><stop offset="0.33" stop-color="#544a41"/><stop offset="0.61" stop-color="#575540"/><stop offset="0.87" stop-color="#5c6740"/><stop offset="1" stop-color="#5f723f"/></linearGradient><linearGradient id="Безымянный_градиент_13-2" x1="7898.52" y1="3156.14" x2="7898.52" y2="3126.55" xlink:href="#Безымянный_градиент_13"/><linearGradient id="Безымянный_градиент_10-2" x1="7923.47" y1="3086.96" x2="7923.47" y2="3033.12" xlink:href="#Безымянный_градиент_10"/><linearGradient id="Безымянный_градиент_30" x1="7935.96" y1="3080.59" x2="7978.77" y2="3080.59" gradientTransform="matrix(-0.73, -0.72, -0.7, 0.72, 8780.82, 3636.48)" gradientUnits="userSpaceOnUse"><stop offset="0" stop-color="#534741"/><stop offset="0.11" stop-color="#565141"/><stop offset="0.39" stop-color="#5b6340"/><stop offset="0.68" stop-color="#5e6e3f"/><stop offset="1" stop-color="#5f723f"/></linearGradient><linearGradient id="Безымянный_градиент_26" x1="7827.95" y1="3136.08" x2="7906.28" y2="3136.08" gradientTransform="matrix(-0.73, -0.72, -0.7, 0.72, 8780.82, 3636.48)" gradientUnits="userSpaceOnUse"><stop offset="0" stop-color="#97ad5c"/><stop offset="1" stop-color="#5f723f"/></linearGradient><linearGradient id="Безымянный_градиент_26-2" x1="7876.99" y1="3026.14" x2="7937.53" y2="3026.14" xlink:href="#Безымянный_градиент_26"/><linearGradient id="Безымянный_градиент_26-3" x1="7984.31" y1="3094.28" x2="7984.31" y2="3057.16" xlink:href="#Безымянный_градиент_26"/><linearGradient id="Безымянный_градиент_26-4" x1="8002.03" y1="3048.69" x2="8002.03" y2="2975.77" xlink:href="#Безымянный_градиент_26"/><linearGradient id="Безымянный_градиент_26-5" x1="7896.6" y1="2950.51" x2="7950.18" y2="2950.51" xlink:href="#Безымянный_градиент_26"/><linearGradient id="Безымянный_градиент_13-3" x1="8242.02" y1="2913" x2="8323.47" y2="2913" gradientTransform="matrix(-0.82, -0.6, -0.58, 0.82, 9189.34, 2798)" xlink:href="#Безымянный_градиент_13"/><linearGradient id="Безымянный_градиент_10-3" x1="8271.58" y1="2763.52" x2="8271.58" y2="2704.07" gradientTransform="matrix(-0.82, -0.6, -0.58, 0.82, 9189.34, 2798)" xlink:href="#Безымянный_градиент_10"/><linearGradient id="Безымянный_градиент_13-4" x1="8219.61" y1="2928.49" x2="8219.61" y2="2898.9" gradientTransform="matrix(-0.82, -0.6, -0.58, 0.82, 9189.34, 2798)" xlink:href="#Безымянный_градиент_13"/><linearGradient id="Безымянный_градиент_10-4" x1="8244.57" y1="2859.32" x2="8244.57" y2="2805.48" gradientTransform="matrix(-0.82, -0.6, -0.58, 0.82, 9189.34, 2798)" xlink:href="#Безымянный_градиент_10"/><linearGradient id="Безымянный_градиент_30-2" x1="8257.05" y1="2852.95" x2="8299.86" y2="2852.95" gradientTransform="matrix(-0.82, -0.6, -0.58, 0.82, 9189.34, 2798)" xlink:href="#Безымянный_градиент_30"/><linearGradient id="Безымянный_градиент_26-6" x1="8149.04" y1="2908.43" x2="8227.37" y2="2908.43" gradientTransform="matrix(-0.82, -0.6, -0.58, 0.82, 9189.34, 2798)" xlink:href="#Безымянный_градиент_26"/><linearGradient id="Безымянный_градиент_26-7" x1="8198.08" y1="2798.5" x2="8258.62" y2="2798.5" gradientTransform="matrix(-0.82, -0.6, -0.58, 0.82, 9189.34, 2798)" xlink:href="#Безымянный_градиент_26"/><linearGradient id="Безымянный_градиент_26-8" x1="8305.4" y1="2866.63" x2="8305.4" y2="2829.51" gradientTransform="matrix(-0.82, -0.6, -0.58, 0.82, 9189.34, 2798)" xlink:href="#Безымянный_градиент_26"/><linearGradient id="Безымянный_градиент_26-9" x1="8323.12" y1="2821.05" x2="8323.12" y2="2748.12" gradientTransform="matrix(-0.82, -0.6, -0.58, 0.82, 9189.34, 2798)" xlink:href="#Безымянный_градиент_26"/><linearGradient id="Безымянный_градиент_26-10" x1="8217.69" y1="2722.86" x2="8271.28" y2="2722.86" gradientTransform="matrix(-0.82, -0.6, -0.58, 0.82, 9189.34, 2798)" xlink:href="#Безымянный_градиент_26"/><linearGradient id="Безымянный_градиент_13-5" x1="6601.56" y1="4313.38" x2="6683" y2="4313.38" gradientTransform="matrix(-0.2, -1, -0.99, 0.18, 6160.48, 6188.02)" xlink:href="#Безымянный_градиент_13"/><linearGradient id="Безымянный_градиент_10-5" x1="6631.11" y1="4163.9" x2="6631.11" y2="4104.45" gradientTransform="matrix(-0.2, -1, -0.99, 0.18, 6160.48, 6188.02)" xlink:href="#Безымянный_градиент_10"/><linearGradient id="Безымянный_градиент_13-6" x1="6579.14" y1="4328.88" x2="6579.14" y2="4299.28" gradientTransform="matrix(-0.2, -1, -0.99, 0.18, 6160.48, 6188.02)" xlink:href="#Безымянный_градиент_13"/><linearGradient id="Безымянный_градиент_10-6" x1="6604.1" y1="4259.7" x2="6604.1" y2="4205.86" gradientTransform="matrix(-0.2, -1, -0.99, 0.18, 6160.48, 6188.02)" xlink:href="#Безымянный_градиент_10"/><linearGradient id="Безымянный_градиент_30-3" x1="6616.58" y1="4253.33" x2="6659.39" y2="4253.33" gradientTransform="matrix(-0.2, -1, -0.99, 0.18, 6160.48, 6188.02)" xlink:href="#Безымянный_градиент_30"/><linearGradient id="Безымянный_градиент_26-11" x1="6508.58" y1="4308.81" x2="6586.9" y2="4308.81" gradientTransform="matrix(-0.2, -1, -0.99, 0.18, 6160.48, 6188.02)" xlink:href="#Безымянный_градиент_26"/><linearGradient id="Безымянный_градиент_26-12" x1="6557.61" y1="4198.88" x2="6618.15" y2="4198.88" gradientTransform="matrix(-0.2, -1, -0.99, 0.18, 6160.48, 6188.02)" xlink:href="#Безымянный_градиент_26"/><linearGradient id="Безымянный_градиент_26-13" x1="6664.93" y1="4267.01" x2="6664.93" y2="4229.89" gradientTransform="matrix(-0.2, -1, -0.99, 0.18, 6160.48, 6188.02)" xlink:href="#Безымянный_градиент_26"/><linearGradient id="Безымянный_градиент_26-14" x1="6682.65" y1="4221.43" x2="6682.65" y2="4148.5" gradientTransform="matrix(-0.2, -1, -0.99, 0.18, 6160.48, 6188.02)" xlink:href="#Безымянный_градиент_26"/><linearGradient id="Безымянный_градиент_26-15" x1="6577.22" y1="4123.24" x2="6630.81" y2="4123.24" gradientTransform="matrix(-0.2, -1, -0.99, 0.18, 6160.48, 6188.02)" xlink:href="#Безымянный_градиент_26"/><linearGradient id="Безымянный_градиент_13-7" x1="8325.57" y1="3029.7" x2="8407.02" y2="3029.7" gradientTransform="matrix(-0.83, -0.6, -0.57, 0.83, 9194.28, 2720.18)" xlink:href="#Безымянный_градиент_13"/><linearGradient id="Безымянный_градиент_10-7" x1="8355.12" y1="2880.23" x2="8355.12" y2="2820.77" gradientTransform="matrix(-0.83, -0.6, -0.57, 0.83, 9194.28, 2720.18)" xlink:href="#Безымянный_градиент_10"/><linearGradient id="Безымянный_градиент_13-8" x1="8303.15" y1="3045.2" x2="8303.15" y2="3015.6" gradientTransform="matrix(-0.83, -0.6, -0.57, 0.83, 9194.28, 2720.18)" xlink:href="#Безымянный_градиент_13"/><linearGradient id="Безымянный_градиент_10-8" x1="8328.11" y1="2976.02" x2="8328.11" y2="2922.18" gradientTransform="matrix(-0.83, -0.6, -0.57, 0.83, 9194.28, 2720.18)" xlink:href="#Безымянный_градиент_10"/><linearGradient id="Безымянный_градиент_30-4" x1="8340.59" y1="2969.65" x2="8383.41" y2="2969.65" gradientTransform="matrix(-0.83, -0.6, -0.57, 0.83, 9194.28, 2720.18)" xlink:href="#Безымянный_градиент_30"/><linearGradient id="Безымянный_градиент_26-16" x1="8232.59" y1="3025.14" x2="8310.91" y2="3025.14" gradientTransform="matrix(-0.83, -0.6, -0.57, 0.83, 9194.28, 2720.18)" xlink:href="#Безымянный_градиент_26"/><linearGradient id="Безымянный_градиент_26-17" x1="8281.62" y1="2915.2" x2="8342.16" y2="2915.2" gradientTransform="matrix(-0.83, -0.6, -0.57, 0.83, 9194.28, 2720.18)" xlink:href="#Безымянный_градиент_26"/><linearGradient id="Безымянный_градиент_26-18" x1="8388.95" y1="2983.34" x2="8388.95" y2="2946.22" gradientTransform="matrix(-0.83, -0.6, -0.57, 0.83, 9194.28, 2720.18)" xlink:href="#Безымянный_градиент_26"/><linearGradient id="Безымянный_градиент_26-19" x1="8406.66" y1="2937.75" x2="8406.66" y2="2864.83" gradientTransform="matrix(-0.83, -0.6, -0.57, 0.83, 9194.28, 2720.18)" xlink:href="#Безымянный_градиент_26"/><linearGradient id="Безымянный_градиент_26-20" x1="8301.23" y1="2839.57" x2="8354.82" y2="2839.57" gradientTransform="matrix(-0.83, -0.6, -0.57, 0.83, 9194.28, 2720.18)" xlink:href="#Безымянный_градиент_26"/><linearGradient id="Безымянный_градиент_13-9" x1="8300.75" y1="3317.01" x2="8382.2" y2="3317.01" gradientTransform="matrix(-0.81, -0.63, -0.6, 0.8, 9097.87, 2912.67)" xlink:href="#Безымянный_градиент_13"/><linearGradient id="Безымянный_градиент_10-9" x1="8330.3" y1="3167.54" x2="8330.3" y2="3108.09" gradientTransform="matrix(-0.81, -0.63, -0.6, 0.8, 9097.87, 2912.67)" xlink:href="#Безымянный_градиент_10"/><linearGradient id="Безымянный_градиент_13-10" x1="8278.33" y1="3332.51" x2="8278.33" y2="3302.92" gradientTransform="matrix(-0.81, -0.63, -0.6, 0.8, 9097.87, 2912.67)" xlink:href="#Безымянный_градиент_13"/><linearGradient id="Безымянный_градиент_10-10" x1="8303.29" y1="3263.33" x2="8303.29" y2="3209.49" gradientTransform="matrix(-0.81, -0.63, -0.6, 0.8, 9097.87, 2912.67)" xlink:href="#Безымянный_градиент_10"/><linearGradient id="Безымянный_градиент_30-5" x1="8315.77" y1="3256.97" x2="8358.59" y2="3256.97" gradientTransform="matrix(-0.81, -0.63, -0.6, 0.8, 9097.87, 2912.67)" xlink:href="#Безымянный_градиент_30"/><linearGradient id="Безымянный_градиент_26-21" x1="8207.77" y1="3312.45" x2="8286.09" y2="3312.45" gradientTransform="matrix(-0.81, -0.63, -0.6, 0.8, 9097.87, 2912.67)" xlink:href="#Безымянный_градиент_26"/><linearGradient id="Безымянный_градиент_26-22" x1="8256.81" y1="3202.51" x2="8317.34" y2="3202.51" gradientTransform="matrix(-0.81, -0.63, -0.6, 0.8, 9097.87, 2912.67)" xlink:href="#Безымянный_градиент_26"/><linearGradient id="Безымянный_градиент_26-23" x1="8364.13" y1="3270.65" x2="8364.13" y2="3233.53" gradientTransform="matrix(-0.81, -0.63, -0.6, 0.8, 9097.87, 2912.67)" xlink:href="#Безымянный_градиент_26"/><linearGradient id="Безымянный_градиент_26-24" x1="8381.85" y1="3225.07" x2="8381.85" y2="3152.14" gradientTransform="matrix(-0.81, -0.63, -0.6, 0.8, 9097.87, 2912.67)" xlink:href="#Безымянный_градиент_26"/><linearGradient id="Безымянный_градиент_26-25" x1="8276.42" y1="3126.88" x2="8330" y2="3126.88" gradientTransform="matrix(-0.81, -0.63, -0.6, 0.8, 9097.87, 2912.67)" xlink:href="#Безымянный_градиент_26"/><linearGradient id="Безымянный_градиент_13-11" x1="6500.32" y1="4646.44" x2="6581.77" y2="4646.44" gradientTransform="matrix(-0.17, -1.01, -0.99, 0.15, 6033.62, 6348.93)" xlink:href="#Безымянный_градиент_13"/><linearGradient id="Безымянный_градиент_10-11" x1="6529.88" y1="4496.97" x2="6529.88" y2="4437.52" gradientTransform="matrix(-0.17, -1.01, -0.99, 0.15, 6033.62, 6348.93)" xlink:href="#Безымянный_градиент_10"/><linearGradient id="Безымянный_градиент_13-12" x1="6477.91" y1="4661.94" x2="6477.91" y2="4632.35" gradientTransform="matrix(-0.17, -1.01, -0.99, 0.15, 6033.62, 6348.93)" xlink:href="#Безымянный_градиент_13"/><linearGradient id="Безымянный_градиент_10-12" x1="6502.87" y1="4592.76" x2="6502.87" y2="4538.92" gradientTransform="matrix(-0.17, -1.01, -0.99, 0.15, 6033.62, 6348.93)" xlink:href="#Безымянный_градиент_10"/><linearGradient id="Безымянный_градиент_30-6" x1="6515.35" y1="4586.4" x2="6558.16" y2="4586.4" gradientTransform="matrix(-0.17, -1.01, -0.99, 0.15, 6033.62, 6348.93)" xlink:href="#Безымянный_градиент_30"/><linearGradient id="Безымянный_градиент_26-26" x1="6407.35" y1="4641.88" x2="6485.67" y2="4641.88" gradientTransform="matrix(-0.17, -1.01, -0.99, 0.15, 6033.62, 6348.93)" xlink:href="#Безымянный_градиент_26"/><linearGradient id="Безымянный_градиент_26-27" x1="6456.38" y1="4531.94" x2="6516.92" y2="4531.94" gradientTransform="matrix(-0.17, -1.01, -0.99, 0.15, 6033.62, 6348.93)" xlink:href="#Безымянный_градиент_26"/><linearGradient id="Безымянный_градиент_26-28" x1="6563.7" y1="4600.08" x2="6563.7" y2="4562.96" gradientTransform="matrix(-0.17, -1.01, -0.99, 0.15, 6033.62, 6348.93)" xlink:href="#Безымянный_градиент_26"/><linearGradient id="Безымянный_градиент_26-29" x1="6581.42" y1="4554.5" x2="6581.42" y2="4481.57" gradientTransform="matrix(-0.17, -1.01, -0.99, 0.15, 6033.62, 6348.93)" xlink:href="#Безымянный_градиент_26"/><linearGradient id="Безымянный_градиент_26-30" x1="6475.99" y1="4456.31" x2="6529.58" y2="4456.31" gradientTransform="matrix(-0.17, -1.01, -0.99, 0.15, 6033.62, 6348.93)" xlink:href="#Безымянный_градиент_26"/><linearGradient id="Безымянный_градиент_13-13" x1="7534.68" y1="4414.3" x2="7616.13" y2="4414.3" gradientTransform="matrix(-0.49, -0.9, -0.88, 0.48, 7731.84, 5210.32)" xlink:href="#Безымянный_градиент_13"/><linearGradient id="Безымянный_градиент_10-13" x1="7564.23" y1="4264.82" x2="7564.23" y2="4205.37" gradientTransform="matrix(-0.49, -0.9, -0.88, 0.48, 7731.84, 5210.32)" xlink:href="#Безымянный_градиент_10"/><linearGradient id="Безымянный_градиент_13-14" x1="7512.26" y1="4429.79" x2="7512.26" y2="4400.2" gradientTransform="matrix(-0.49, -0.9, -0.88, 0.48, 7731.84, 5210.32)" xlink:href="#Безымянный_градиент_13"/><linearGradient id="Безымянный_градиент_10-14" x1="7537.22" y1="4360.62" x2="7537.22" y2="4306.78" gradientTransform="matrix(-0.49, -0.9, -0.88, 0.48, 7731.84, 5210.32)" xlink:href="#Безымянный_градиент_10"/><linearGradient id="Безымянный_градиент_30-7" x1="7549.7" y1="4354.25" x2="7592.52" y2="4354.25" gradientTransform="matrix(-0.49, -0.9, -0.88, 0.48, 7731.84, 5210.32)" xlink:href="#Безымянный_градиент_30"/><linearGradient id="Безымянный_градиент_26-31" x1="7441.7" y1="4409.73" x2="7520.02" y2="4409.73" gradientTransform="matrix(-0.49, -0.9, -0.88, 0.48, 7731.84, 5210.32)" xlink:href="#Безымянный_градиент_26"/><linearGradient id="Безымянный_градиент_26-32" x1="7490.73" y1="4299.8" x2="7551.27" y2="4299.8" gradientTransform="matrix(-0.49, -0.9, -0.88, 0.48, 7731.84, 5210.32)" xlink:href="#Безымянный_градиент_26"/><linearGradient id="Безымянный_градиент_26-33" x1="7598.06" y1="4367.93" x2="7598.06" y2="4330.81" gradientTransform="matrix(-0.49, -0.9, -0.88, 0.48, 7731.84, 5210.32)" xlink:href="#Безымянный_градиент_26"/><linearGradient id="Безымянный_градиент_26-34" x1="7615.77" y1="4322.35" x2="7615.77" y2="4249.42" gradientTransform="matrix(-0.49, -0.9, -0.88, 0.48, 7731.84, 5210.32)" xlink:href="#Безымянный_градиент_26"/><linearGradient id="Безымянный_градиент_26-35" x1="7510.34" y1="4224.16" x2="7563.93" y2="4224.16" gradientTransform="matrix(-0.49, -0.9, -0.88, 0.48, 7731.84, 5210.32)" xlink:href="#Безымянный_градиент_26"/></defs><title>plants_1</title><g id="Capa_2" data-name="Capa 2"><g id="plantas"><g id="plantas_1"><path class="cls-1" d="M889.21,14s28.64,12.76,15.36,41.35-59.25,89.73-59.25,89.73-83.63,99-93.31,107.32-47.09,41.34-47.09,41.34,13.18-7.47,16.8-3.07S829.62,179,832.07,174.55,908.2,71,912.34,53.38c2.53-10.75,2.42-18.14-1.25-25.21-3-5.72-7.68-11.26-19.61-18C872.18,4,889.21,14,889.21,14Z"/><path class="cls-2" d="M957.91,19.59S940.48,3.72,912.53,50.25c-4.94,4.66-.52-12.71-.52-12.71s28.5-32.38,40.87-25.73C970.53,21.3,957.91,19.59,957.91,19.59Z"/><path class="cls-3" d="M817.72,191.33s24.17-8.85,35.34.39S866.47,215,866.47,215,864,193,856.41,188.2s-32.53-3.88-32.53-3.88Z"/><path class="cls-4" d="M859.91,135.6s35.26-35.66,51.7-24.66c-14.83-14.52-44.06,12.26-44.06,12.26Z"/><path class="cls-5" d="M861.93,124.51a62.11,62.11,0,0,0-25.5-34c.35,9.68,21.9,18.22,19,40.79C849.6,143.32,861.93,124.51,861.93,124.51Z"/><path class="cls-6" d="M859.68,194.8s2-15.84,13.66-6.16,6.55,49.72,19.9,59.4-24.8-2.21-42.9-23.33-5.89-37.91-1.88-39.1S857.69,187.76,859.68,194.8Z"/><path class="cls-7" d="M893.12,111.22s-13,11.87-2.27,21.56,37.29,11.88,77.06-28.14c0,0-20,11-37.36-1.77S887.42,86.49,886,105.06C885.82,111.7,893.12,111.22,893.12,111.22Z"/><path class="cls-8" d="M855,112.09s16-.44,8.62-13.64-29.21-17.87-32.33-18.92-20-12.76-22.12-24.2-5.46,41.35,22.15,61.59S855,112.09,855,112.09Z"/><path class="cls-9" d="M891.23,10S876.69-8.44,859.82,4.75s-30.43,46.62-30.43,46.62S848.68,32.9,859.25,37.3s36-.55,33.06-21.61C886.48,10.48,891.23,10,891.23,10Z"/><path class="cls-10" d="M951.24,14.45S933,26.32,953.82,50.09s-9.24,36.2,3.73,31.67,45.76-36.9,21.93-66C961.72-2,951.24,14.45,951.24,14.45Z"/><path class="cls-11" d="M740,35s30.13,8.26,21.33,38.66-44.89,98.1-44.89,98.1-67.53,111-75.81,120.77-40.18,48.23-40.18,48.23,11.85-9.44,16.09-5.63S706.05,207.73,707.8,203,767.26,88.62,768.7,70.49c.87-11-.35-18.37-5-24.82-3.78-5.22-9.26-10-22-14.88C721.73,27.63,740,35,740,35Z"/><path class="cls-12" d="M808.51,30S789,16.9,768.41,67.35C764.24,72.73,766,54.82,766,54.82S789.21,18.33,802.39,23C821.2,29.73,808.51,30,808.51,30Z"/><path class="cls-13" d="M696.19,221.83s22.48-12.49,34.87-5,16.71,21.07,16.71,21.07-5.79-21.43-13.95-25.08-32.62,1.15-32.62,1.15Z"/><path class="cls-14" d="M729.39,160.09s29.38-40.79,47.22-32.4c-16.78-12.12-41.56,18.92-41.56,18.92Z"/><path class="cls-15" d="M729.71,148.77A61.89,61.89,0,0,0,699.5,119c1.79,9.55,24.3,14.72,24.85,37.54C720.39,169.33,729.71,148.77,729.71,148.77Z"/><path class="cls-16" d="M738,218.84s-.37-16,12.53-8.2,13.9,48.3,28.51,55.86-24.75,1.61-45.75-16.56-11.49-36.7-7.72-38.5S735,212.16,738,218.84Z"/><path class="cls-17" d="M758.44,130.8s-11,13.78,1,21.73S798,158.6,831.12,112.8c0,0-18,14-37.06,4s-44.95-9.63-43.6,9C751.32,132.4,758.44,130.8,758.44,130.8Z"/><path class="cls-18" d="M721,137.52s15.72-2.89,6.44-14.85S696,109.42,692.76,108.86s-21.58-9.59-25.41-20.61.83,41.85,31.06,57.7S721,137.52,721,137.52Z"/><path class="cls-19" d="M741.41,30.73s-17.1-16.1-31.74-.43-23,50.92-23,50.92S702.92,59.94,714,62.68s35.37-6.07,29.33-26.51C736.79,31.89,741.41,30.73,741.41,30.73Z"/><path class="cls-20" d="M801.17,25.9s-16.17,14.57,7.88,35-3.67,37.33,8.44,30.85S857,48.08,829.18,22.88C809,8,801.17,25.9,801.17,25.9Z"/><path class="cls-21" d="M710.08,253.56s16.77,26.81-10.4,42.32-99.95,38.61-99.95,38.61S474.2,366.54,461.42,367.75s-62.6,6.4-62.6,6.4,15.21,1.52,15.77,7.17,153-28.43,157.49-30.59,121.83-40.07,135.21-52c8.15-7.25,12.21-13.3,13.12-21.14.74-6.33-.1-13.53-6.26-25.88C701.48,235.65,710.08,253.56,710.08,253.56Z"/><path class="cls-22" d="M764.36,297.59s-5.64-22.87-55.16-1.26c-6.75.93,6.71-10.6,6.71-10.6s42-9.83,48.63,2.67C774,306.23,764.36,297.59,764.36,297.59Z"/><path class="cls-23" d="M550.66,356.06s25.18,6.73,29.33,20.64-1.9,26.6-1.9,26.6,10.26-19.27,6.67-27.53-25-21.84-25-21.84Z"/><path class="cls-24" d="M617.25,335.2s49.52-8.61,57.08,9.75c-4.24-20.28-43.72-15.4-43.72-15.4Z"/><path class="cls-25" d="M625.17,327.37A60.78,60.78,0,0,0,623,285.2c-5.14,8,8.07,27.35-7,44C604.29,335.52,625.17,327.37,625.17,327.37Z"/><path class="cls-26" d="M583.79,383s10.6-11.65,14.87,2.87-22.46,44-16.74,59.54-19.49-16-22.75-43.56,16.38-34.08,20.41-32.74S586.08,376.16,583.79,383Z"/><path class="cls-27" d="M658.71,334.54s-17.56,2.14-14,16.16,24.49,31.06,80.23,21.52c0,0-22.89-2.59-30.24-22.92s-26.85-38.06-38.5-23.86C652.34,330.74,658.71,334.54,658.71,334.54Z"/><path class="cls-28" d="M626.35,313.33s13.64,8.86,14.86-6.09S626.84,276,624.82,273.32,615.3,251.5,619.93,241s-27.8,30.35-16.09,62.61S626.35,313.33,626.35,313.33Z"/><path class="cls-29" d="M714,251.52s-1.77-23.32-23.29-22.34-51.63,20.26-51.63,20.26,26.5-3.86,32.86,5.78,30.4,20.24,39.78,1.51C709.78,249.15,714,251.52,714,251.52Z"/><path class="cls-30" d="M761.68,289.6s-21.91-.86-17.87,30.34-28.07,24-14.68,27.79,59-3.57,55.41-40.82C779.69,282.28,761.68,289.6,761.68,289.6Z"/><path class="cls-31" d="M589.38,69.83s30.18,8,21.62,38.5-44.13,98.47-44.13,98.47S500.21,318.34,492,328.18s-39.8,48.56-39.8,48.56,11.78-9.53,16-5.76,88.52-128.09,90.23-132.84,58.56-114.87,59.86-133c.79-11.06-.49-18.36-5.2-24.78-3.82-5.2-9.34-9.92-22.14-14.71C571.05,62.64,589.38,69.83,589.38,69.83Z"/><path class="cls-32" d="M657.83,64.3S638.18,51.38,618,102c-4.13,5.41-2.52-12.52-2.52-12.52S638.44,52.8,651.66,57.4C670.51,64,657.83,64.3,657.83,64.3Z"/><path class="cls-33" d="M547,257.07s22.38-12.67,34.83-5.31S598.7,272.7,598.7,272.7s-5.94-21.39-14.13-25-32.6,1.4-32.6,1.4Z"/><path class="cls-34" d="M579.73,195.05s29.06-41,47-32.77c-16.88-12-41.41,19.25-41.41,19.25Z"/><path class="cls-35" d="M580,183.73a61.88,61.88,0,0,0-30.43-29.55c1.87,9.53,24.41,14.52,25.14,37.35C570.8,204.37,580,183.73,580,183.73Z"/><path class="cls-36" d="M588.83,253.75s-.49-16,12.46-8.31,14.28,48.21,29,55.65-24.74,1.81-45.88-16.2-11.77-36.61-8-38.44S585.77,247.09,588.83,253.75Z"/><path class="cls-37" d="M608.55,165.54s-10.94,13.86,1.17,21.72S648.27,193,681.08,147c0,0-17.93,14.11-37,4.27s-45-9.28-43.51,9.36C601.44,167.19,608.55,165.54,608.55,165.54Z"/><path class="cls-38" d="M571.18,172.55s15.7-3,6.33-14.9-31.55-13-34.79-13.54-21.66-9.43-25.57-20.41,1.15,41.85,31.5,57.46S571.18,172.55,571.18,172.55Z"/><path class="cls-39" d="M590.75,65.58s-17.22-16-31.74-.17-22.57,51.1-22.57,51.1S552.5,95.1,563.58,97.76,598.9,91.4,592.7,71C586.14,66.78,590.75,65.58,590.75,65.58Z"/><path class="cls-40" d="M650.46,60.28S634.41,75,658.61,95.17s-3.38,37.36,8.67,30.79S706.47,82,678.45,57C658.17,42.27,650.46,60.28,650.46,60.28Z"/><path class="cls-41" d="M433.52,197.54s29.91,9.12,20.25,39.23-47.65,96.71-47.65,96.71S335.45,442.42,326.9,451.94s-41.55,47-41.55,47,12.13-9.09,16.25-5.16,93.12-124.66,95-129.35,62.68-112.55,64.63-130.62c1.19-11,.17-18.35-4.32-24.93-3.63-5.33-9-10.24-21.61-15.5C415.45,189.69,433.52,197.54,433.52,197.54Z"/><path class="cls-42" d="M502.19,194.52S483,180.9,461,230.71c-4.32,5.25-2.07-12.6-2.07-12.6s24.25-35.78,37.3-30.71C514.88,194.64,502.19,194.52,502.19,194.52Z"/><path class="cls-43" d="M384.45,383s22.84-11.83,35-4,16.12,21.53,16.12,21.53-5.18-21.58-13.24-25.45-32.66.2-32.66.2Z"/><path class="cls-44" d="M419.39,322.22s30.54-39.9,48.15-31c-16.45-12.6-42.1,17.7-42.1,17.7Z"/><path class="cls-45" d="M420,310.92a61.94,61.94,0,0,0-29.38-30.62c1.53,9.59,23.9,15.4,23.81,38.21C410.13,331.19,420,310.92,420,310.92Z"/><path class="cls-46" d="M426.4,381.16s.08-16,12.76-7.84,12.55,48.66,26.95,56.62-24.8.91-45.3-17.85-10.46-37-6.63-38.68S423.57,374.4,426.4,381.16Z"/><path class="cls-47" d="M449.27,293.8s-11.43,13.45.4,21.74,38.35,7.17,72.81-37.63c0,0-18.44,13.43-37.19,2.9s-44.68-10.91-43.85,7.76C442.11,295.19,449.27,293.8,449.27,293.8Z"/><path class="cls-48" d="M411.65,299.44s15.81-2.44,6.86-14.65S387.42,270.65,384.2,270s-21.32-10.21-24.84-21.32-.35,41.83,29.44,58.53S411.65,299.44,411.65,299.44Z"/><path class="cls-49" d="M435.05,193.34S418.4,176.77,403.31,192s-24.41,50.2-24.41,50.2,16.83-20.79,27.83-17.73,35.55-5,30.07-25.64C430.39,194.37,435.05,193.34,435.05,193.34Z"/><path class="cls-50" d="M495,190.23s-16.58,14.1,6.91,35.15-4.73,37.18,7.56,31.05S550.2,214,523.07,188C503.32,172.54,495,190.23,495,190.23Z"/><path class="cls-51" d="M447.4,406.06s16,27.29-11.68,41.95-101.13,35.48-101.13,35.48-126.52,28.16-139.35,29-62.81,4.47-62.81,4.47,15.18,2,15.57,7.64,153.86-23.69,158.45-25.7,123.06-36.28,136.79-47.75c8.38-7,12.62-12.91,13.77-20.71.93-6.31.31-13.52-5.48-26C439.34,387.91,447.4,406.06,447.4,406.06Z"/><path class="cls-52" d="M500.37,451.71s-5-23-55.14-3c-6.78.73,7-10.38,7-10.38s42.33-8.53,48.56,4.17C509.7,460.63,500.37,451.71,500.37,451.71Z"/><path class="cls-53" d="M284.86,503.53s25,7.5,28.71,21.52-2.69,26.51-2.69,26.51,10.83-18.93,7.49-27.29S294,501.69,294,501.69Z"/><path class="cls-54" d="M352.09,484.74s49.79-7.07,56.8,11.5c-3.63-20.39-43.27-16.73-43.27-16.73Z"/><path class="cls-55" d="M360.25,477.17A60.7,60.7,0,0,0,359.3,435c-5.39,7.87,7.24,27.56-8.35,43.7C339.12,484.67,360.25,477.17,360.25,477.17Z"/><path class="cls-56" d="M317.18,531.46s11-11.32,14.8,3.32-23.8,43.28-18.54,59-19-16.63-21.45-44.21,17.41-33.54,21.4-32.07S319.68,524.7,317.18,531.46Z"/><path class="cls-57" d="M393.58,485.37S376,487,379.09,501.07s23.56,31.78,79.59,24c0,0-22.81-3.29-29.55-23.81s-25.71-38.85-37.8-25C387.32,481.37,393.58,485.37,393.58,485.37Z"/><path class="cls-58" d="M361.85,463.18s13.38,9.27,15-5.63-13.43-31.67-15.38-34.38-8.86-22.08-3.91-32.42-28.72,29.45-18,62S361.85,463.18,361.85,463.18Z"/><path class="cls-59" d="M451.38,404.14s-1.06-23.35-22.62-23-52.26,18.65-52.26,18.65,26.63-3.05,32.7,6.78S439,427.69,449,409.27C447.23,401.64,451.38,404.14,451.38,404.14Z"/><path class="cls-60" d="M497.93,443.64s-21.89-1.53-18.79,29.75-28.8,23.11-15.52,27.32,59.1-1.76,56.65-39.08C516.16,436.89,497.93,443.64,497.93,443.64Z"/><path class="cls-61" d="M258.77,377.35s23.86,20.64,2.75,43.82-83.13,67.52-83.13,67.52-109.29,69-121,74.08S0,588,0,588s14.86-3.17,17.07,2.08,136.35-73.9,140-77.35,103.4-75.59,112.52-91.09c5.56-9.45,7.6-16.5,6.13-24.3-1.19-6.31-4.12-13-13.63-23C245.3,362.77,258.77,377.35,258.77,377.35Z"/><path class="cls-62" d="M323.27,403.11s-12.16-20.25-52.61,15.59c-6.11,2.95,3.2-12.22,3.2-12.22s36.86-22.25,46.83-12.25C334.92,408.49,323.27,403.11,323.27,403.11Z"/><path class="cls-63" d="M138.37,524.36s25.84-1.2,33.9,10.89,6.13,26.12,6.13,26.12,4-21.62-1.88-28.46-30.18-13.37-30.18-13.37Z"/><path class="cls-64" d="M195.19,484s44.32-23.35,56.94-8c-10-18.2-46-1.49-46-1.49Z"/><path class="cls-65" d="M200.36,474.11a61.81,61.81,0,0,0-14.65-39.83c-2.49,9.28,15.77,23.81,6.44,44.36C183,488.29,200.36,474.11,200.36,474.11Z"/><path class="cls-66" d="M177.75,540.14s6.56-14.42,14.93-1.77-8.16,49.12,1.88,62.29-23.23-9.48-34.51-34.91,5.36-37.73,9.58-37.67S177.88,532.87,177.75,540.14Z"/><path class="cls-67" d="M234.25,470.78s-16,7.4-8.45,19.78,32.43,22.38,82.35-3.76c0,0-22.44,4.48-35.44-12.8S236,445.61,229.15,462.8C227.08,469.06,234.25,470.78,234.25,470.78Z"/><path class="cls-68" d="M197.29,460.26s15.56,4.36,12.26-10.38-22.91-25.66-25.61-27.58-15.52-18.06-14.25-29.55-17.29,37.62,3.4,65.05S197.29,460.26,197.29,460.26Z"/><path class="cls-69" d="M261.87,374.2s-8.62-21.87-28.7-14.37S190.32,395,190.32,395s23.94-11.79,32.83-4.46,34.81,10.18,38.11-10.67C257.17,373.2,261.87,374.2,261.87,374.2Z"/><path class="cls-70" d="M318.35,396.25s-21,5.84-7.89,34.58S291,462.43,304.84,462s54.77-21.39,40.3-56.09C333.22,383.74,318.35,396.25,318.35,396.25Z"/></g></g></g></svg>