<svg xmlns="http://www.w3.org/2000/svg" xmlns:xlink="http://www.w3.org/1999/xlink" viewBox="0 0 52.09 24.49"><defs><style>.cls-1{fill:url(#Безымянный_градиент_13);}.cls-2{fill:url(#Безымянный_градиент_10);}.cls-3{fill:url(#Безымянный_градиент_13-2);}.cls-4{fill:url(#Безымянный_градиент_10-2);}.cls-5{fill:url(#Безымянный_градиент_30);}.cls-6{fill:url(#Degradado_sin_nombre_32);}.cls-7{fill:url(#Degradado_sin_nombre_32-2);}.cls-8{fill:url(#Degradado_sin_nombre_32-3);}.cls-9{fill:url(#Degradado_sin_nombre_32-4);}.cls-10{fill:url(#Degradado_sin_nombre_32-5);}.cls-11{fill:url(#Безымянный_градиент_13-3);}.cls-12{fill:url(#Безымянный_градиент_10-3);}.cls-13{fill:url(#Безымянный_градиент_13-4);}.cls-14{fill:url(#Безымянный_градиент_10-4);}.cls-15{fill:url(#Безымянный_градиент_30-2);}.cls-16{fill:url(#Degradado_sin_nombre_29);}.cls-17{fill:url(#Degradado_sin_nombre_29-2);}.cls-18{fill:url(#Degradado_sin_nombre_29-3);}.cls-19{fill:url(#Degradado_sin_nombre_29-4);}.cls-20{fill:url(#Degradado_sin_nombre_29-5);}.cls-21{fill:url(#Безымянный_градиент_26);}.cls-22{fill:url(#Безымянный_градиент_26-2);}.cls-23{fill:url(#Безымянный_градиент_26-3);}.cls-24{fill:url(#Безымянный_градиент_26-4);}.cls-25{fill:url(#Безымянный_градиент_26-5);}.cls-26{fill:url(#Безымянный_градиент_26-6);}.cls-27{fill:url(#Безымянный_градиент_26-7);}.cls-28{fill:url(#Безымянный_градиент_26-8);}.cls-29{fill:url(#Безымянный_градиент_26-9);}.cls-30{fill:url(#Безымянный_градиент_26-10);}.cls-31{fill:url(#Безымянный_градиент_26-11);}.cls-32{fill:url(#Безымянный_градиент_26-12);}.cls-33{fill:url(#Безымянный_градиент_26-13);}.cls-34{fill:url(#Безымянный_градиент_26-14);}.cls-35{fill:url(#Безымянный_градиент_26-15);}.cls-36{fill:url(#Безымянный_градиент_26-16);}.cls-37{fill:url(#Безымянный_градиент_26-17);}.cls-38{fill:url(#Безымянный_градиент_26-18);}.cls-39{fill:url(#Безымянный_градиент_26-19);}.cls-40{fill:url(#Безымянный_градиент_26-20);}.cls-41{fill:url(#Безымянный_градиент_26-21);}.cls-42{fill:url(#Безымянный_градиент_26-22);}.cls-43{fill:url(#Безымянный_градиент_26-23);}.cls-44{fill:url(#Безымянный_градиент_26-24);}.cls-45{fill:url(#Безымянный_градиент_26-25);}.cls-46{fill:url(#Безымянный_градиент_26-26);}.cls-47{fill:url(#Безымянный_градиент_26-27);}.cls-48{fill:url(#Безымянный_градиент_26-28);}.cls-49{fill:url(#Безымянный_градиент_26-29);}.cls-50{fill:url(#Безымянный_градиент_26-30);}</style><linearGradient id="Безымянный_градиент_13" x1="15358.32" y1="3525.44" x2="15372.88" y2="3525.44" gradientTransform="matrix(-0.12, -0.3, -0.29, 0.12, 2981.33, 4250.54)" gradientUnits="userSpaceOnUse"><stop offset="0" stop-color="#534741"/><stop offset="0.49" stop-color="#544941"/><stop offset="0.69" stop-color="#565041"/><stop offset="0.85" stop-color="#595d40"/><stop offset="0.98" stop-color="#5e6e3f"/><stop offset="1" stop-color="#5f723f"/></linearGradient><linearGradient id="Безымянный_градиент_10" x1="15359.79" y1="3501.32" x2="15359.79" y2="3491.33" gradientTransform="matrix(-0.12, -0.3, -0.29, 0.12, 2981.33, 4250.54)" gradientUnits="userSpaceOnUse"><stop offset="0" stop-color="#534741"/><stop offset="0.33" stop-color="#544a41"/><stop offset="0.61" stop-color="#575540"/><stop offset="0.87" stop-color="#5c6740"/><stop offset="1" stop-color="#5f723f"/></linearGradient><linearGradient id="Безымянный_градиент_13-2" x1="15352.33" y1="3526.99" x2="15352.33" y2="3521.36" xlink:href="#Безымянный_градиент_13"/><linearGradient id="Безымянный_градиент_10-2" x1="15355.87" y1="3516.09" x2="15355.87" y2="3506.81" xlink:href="#Безымянный_градиент_10"/><linearGradient id="Безымянный_градиент_30" x1="15359.83" y1="3515.58" x2="15369.61" y2="3515.58" gradientTransform="matrix(-0.12, -0.3, -0.29, 0.12, 2981.33, 4250.54)" gradientUnits="userSpaceOnUse"><stop offset="0" stop-color="#534741"/><stop offset="0.11" stop-color="#565141"/><stop offset="0.39" stop-color="#5b6340"/><stop offset="0.68" stop-color="#5e6e3f"/><stop offset="1" stop-color="#5f723f"/></linearGradient><linearGradient id="Degradado_sin_nombre_32" x1="15335.38" y1="3522.46" x2="15353.89" y2="3522.46" gradientTransform="matrix(-0.12, -0.3, -0.29, 0.12, 2981.33, 4250.54)" gradientUnits="userSpaceOnUse"><stop offset="0" stop-color="#97ad5c"/><stop offset="1" stop-color="#97ad5c"/></linearGradient><linearGradient id="Degradado_sin_nombre_32-2" x1="15343.06" y1="3505.17" x2="15358.87" y2="3505.17" xlink:href="#Degradado_sin_nombre_32"/><linearGradient id="Degradado_sin_nombre_32-3" x1="15370.98" y1="3518.58" x2="15370.98" y2="3512.1" xlink:href="#Degradado_sin_nombre_32"/><linearGradient id="Degradado_sin_nombre_32-4" x1="15373.26" y1="3512.33" x2="15373.26" y2="3500.13" xlink:href="#Degradado_sin_nombre_32"/><linearGradient id="Degradado_sin_nombre_32-5" x1="15346.94" y1="3493.58" x2="15359.32" y2="3493.58" xlink:href="#Degradado_sin_nombre_32"/><linearGradient id="Безымянный_градиент_13-3" x1="-1278.57" y1="744.42" x2="-1254.06" y2="744.42" gradientTransform="matrix(0.37, 0.61, -0.59, 0.35, 929.1, 525.08)" xlink:href="#Безымянный_градиент_13"/><linearGradient id="Безымянный_градиент_10-3" x1="-1266.38" y1="721.36" x2="-1266.38" y2="712.37" gradientTransform="matrix(0.37, 0.61, -0.59, 0.35, 929.1, 525.08)" xlink:href="#Безымянный_градиент_10"/><linearGradient id="Безымянный_градиент_13-4" x1="-1282.07" y1="747.37" x2="-1282.07" y2="743.23" gradientTransform="matrix(0.37, 0.61, -0.59, 0.35, 929.1, 525.08)" xlink:href="#Безымянный_градиент_13"/><linearGradient id="Безымянный_градиент_10-4" x1="-1274.57" y1="736.54" x2="-1274.57" y2="728.52" gradientTransform="matrix(0.37, 0.61, -0.59, 0.35, 929.1, 525.08)" xlink:href="#Безымянный_градиент_10"/><linearGradient id="Безымянный_градиент_30-2" x1="-1272.07" y1="735.2" x2="-1261.24" y2="735.2" gradientTransform="matrix(0.37, 0.61, -0.59, 0.35, 929.1, 525.08)" xlink:href="#Безымянный_градиент_30"/><linearGradient id="Degradado_sin_nombre_29" x1="-1292.78" y1="750.96" x2="-1286.39" y2="739.97" gradientTransform="matrix(0.37, 0.61, -0.59, 0.35, 929.1, 525.08)" xlink:href="#Degradado_sin_nombre_32"/><linearGradient id="Degradado_sin_nombre_29-2" x1="-1281.66" y1="732.09" x2="-1277.14" y2="724.31" gradientTransform="matrix(0.37, 0.61, -0.59, 0.35, 929.1, 525.08)" xlink:href="#Degradado_sin_nombre_32"/><linearGradient id="Degradado_sin_nombre_29-3" x1="-1263.81" y1="739.53" x2="-1256.93" y2="727.7" gradientTransform="matrix(0.37, 0.61, -0.59, 0.35, 929.1, 525.08)" xlink:href="#Degradado_sin_nombre_32"/><linearGradient id="Degradado_sin_nombre_29-4" x1="-1257.13" y1="726.99" x2="-1252.07" y2="718.28" gradientTransform="matrix(0.37, 0.61, -0.59, 0.35, 929.1, 525.08)" xlink:href="#Degradado_sin_nombre_32"/><linearGradient id="Degradado_sin_nombre_29-5" x1="-1277.05" y1="722.07" x2="-1269.71" y2="709.44" gradientTransform="matrix(0.37, 0.61, -0.59, 0.35, 929.1, 525.08)" xlink:href="#Degradado_sin_nombre_32"/><linearGradient id="Безымянный_градиент_26" x1="21.33" y1="-24.16" x2="22.62" y2="-24.16" gradientTransform="matrix(0.62, 0.78, -0.78, 0.62, 15.73, 1.8)" gradientUnits="userSpaceOnUse"><stop offset="0" stop-color="#97ad5c"/><stop offset="1" stop-color="#5f723f"/></linearGradient><linearGradient id="Безымянный_градиент_26-2" x1="21.94" y1="-25.85" x2="22.38" y2="-25.85" xlink:href="#Безымянный_градиент_26"/><linearGradient id="Безымянный_градиент_26-3" x1="22.59" y1="-24.18" x2="23.44" y2="-24.18" xlink:href="#Безымянный_градиент_26"/><linearGradient id="Безымянный_градиент_26-4" x1="22.44" y1="-24.94" x2="22.81" y2="-24.94" xlink:href="#Безымянный_градиент_26"/><linearGradient id="Безымянный_градиент_26-5" x1="21.69" y1="-24.73" x2="22.4" y2="-24.73" xlink:href="#Безымянный_градиент_26"/><linearGradient id="Безымянный_градиент_26-6" x1="22.9" y1="-24.26" x2="24.19" y2="-24.26" xlink:href="#Безымянный_градиент_26"/><linearGradient id="Безымянный_градиент_26-7" x1="22.38" y1="-25.29" x2="23.41" y2="-25.29" xlink:href="#Безымянный_градиент_26"/><linearGradient id="Безымянный_градиент_26-8" x1="20.95" y1="-24.76" x2="22.25" y2="-24.76" xlink:href="#Безымянный_градиент_26"/><linearGradient id="Безымянный_градиент_26-9" x1="21" y1="-25.33" x2="21.64" y2="-25.33" xlink:href="#Безымянный_градиент_26"/><linearGradient id="Безымянный_градиент_26-10" x1="22.19" y1="-26.01" x2="23.05" y2="-26.01" xlink:href="#Безымянный_градиент_26"/><linearGradient id="Безымянный_градиент_26-11" x1="19.21" y1="-23.82" x2="22.56" y2="-23.82" xlink:href="#Безымянный_градиент_26"/><linearGradient id="Безымянный_градиент_26-12" x1="19.5" y1="-25.35" x2="19.97" y2="-25.35" xlink:href="#Безымянный_градиент_26"/><linearGradient id="Безымянный_градиент_26-13" x1="21.49" y1="-24.06" x2="22.14" y2="-24.06" xlink:href="#Безымянный_градиент_26"/><linearGradient id="Безымянный_градиент_26-14" x1="20.72" y1="-24.66" x2="20.96" y2="-24.66" xlink:href="#Безымянный_градиент_26"/><linearGradient id="Безымянный_градиент_26-15" x1="20.19" y1="-24.34" x2="20.92" y2="-24.34" xlink:href="#Безымянный_градиент_26"/><linearGradient id="Безымянный_градиент_26-16" x1="21.63" y1="-24.27" x2="22.81" y2="-24.27" xlink:href="#Безымянный_градиент_26"/><linearGradient id="Безымянный_градиент_26-17" x1="20.49" y1="-25.1" x2="21.26" y2="-25.1" xlink:href="#Безымянный_градиент_26"/><linearGradient id="Безымянный_градиент_26-18" x1="19.52" y1="-24.26" x2="20.75" y2="-24.26" xlink:href="#Безымянный_градиент_26"/><linearGradient id="Безымянный_градиент_26-19" x1="19.03" y1="-24.62" x2="19.61" y2="-24.62" xlink:href="#Безымянный_градиент_26"/><linearGradient id="Безымянный_градиент_26-20" x1="19.58" y1="-25.66" x2="20.64" y2="-25.66" xlink:href="#Безымянный_градиент_26"/><linearGradient id="Безымянный_градиент_26-21" x1="21.52" y1="-24.6" x2="22.59" y2="-24.6" xlink:href="#Безымянный_градиент_26"/><linearGradient id="Безымянный_градиент_26-22" x1="21.12" y1="-26.46" x2="21.75" y2="-26.46" xlink:href="#Безымянный_градиент_26"/><linearGradient id="Безымянный_градиент_26-23" x1="20.83" y1="-24.46" x2="21.78" y2="-24.46" xlink:href="#Безымянный_градиент_26"/><linearGradient id="Безымянный_градиент_26-24" x1="21.07" y1="-25.34" x2="21.64" y2="-25.34" xlink:href="#Безымянный_градиент_26"/><linearGradient id="Безымянный_градиент_26-25" x1="21.7" y1="-25.21" x2="22.39" y2="-25.21" xlink:href="#Безымянный_градиент_26"/><linearGradient id="Безымянный_градиент_26-26" x1="20.06" y1="-24.44" x2="21.37" y2="-24.44" xlink:href="#Безымянный_градиент_26"/><linearGradient id="Безымянный_градиент_26-27" x1="20.26" y1="-25.65" x2="21.53" y2="-25.65" xlink:href="#Безымянный_градиент_26"/><linearGradient id="Безымянный_градиент_26-28" x1="21.8" y1="-25.31" x2="23.14" y2="-25.31" xlink:href="#Безымянный_градиент_26"/><linearGradient id="Безымянный_градиент_26-29" x1="22.12" y1="-26.05" x2="22.87" y2="-26.05" xlink:href="#Безымянный_градиент_26"/><linearGradient id="Безымянный_градиент_26-30" x1="20.5" y1="-26.51" x2="21.34" y2="-26.51" xlink:href="#Безымянный_градиент_26"/></defs><title>plants_small_4</title><g id="Capa_2" data-name="Capa 2"><g id="edificis"><g id="building_arch"><path class="cls-1" d="M46.1,2.91s1.68,1.86.57,2.91a24.27,24.27,0,0,1-4.57,2.6s-6.2,2.14-6.89,2.21L31.86,11s.9.11,1.09.5,7.84-1.87,8-2S46.75,6.84,47.18,6a1.73,1.73,0,0,0,.16-1.44,5.06,5.06,0,0,0-1.06-1.79C45.13,1.68,46.1,2.91,46.1,2.91Z"/><path class="cls-2" d="M50.36,6s-.94-1.58-3.14-.12c-.36.06.09-.73.09-.73s2.1-.65,2.81.21C51.13,6.58,50.36,6,50.36,6Z"/><path class="cls-3" d="M39.92,9.88a4.6,4.6,0,0,1,2.21,1.44,3.71,3.71,0,0,1,.62,1.83,3.78,3.78,0,0,0-.37-1.89,10.43,10.43,0,0,0-2-1.52Z"/><path class="cls-4" d="M43.1,8.48s2.55-.56,3.48.71C45.79,7.79,43.7,8.1,43.7,8.1Z"/><path class="cls-5" d="M43.33,8A6.34,6.34,0,0,0,42.06,5c-.07.55,1.2,1.89.8,3C42.38,8.5,43.33,8,43.33,8Z"/><path class="cls-6" d="M42.52,11.75s.28-.79.92.21-.07,3,.68,4.09-1.54-1.12-2.47-3,0-2.34.25-2.24A1.17,1.17,0,0,1,42.52,11.75Z"/><path class="cls-7" d="M45.42,8.46s-.93.14-.35,1.11,2.23,2.15,5.1,1.52A3.7,3.7,0,0,1,47.85,9.5c-1-1.41-2.55-2.64-2.82-1.67C45,8.19,45.42,8.46,45.42,8.46Z"/><path class="cls-8" d="M43,7s1,.62.67-.41a7.24,7.24,0,0,0-1.85-2.35A5.33,5.33,0,0,1,40.68,2c0-.72-.73,2.07.8,4.3S43,7,43,7Z"/><path class="cls-9" d="M46.27,2.78s-.74-1.61-1.92-1.56A4.28,4.28,0,0,0,42,2.59s1.39-.25,2,.41,2.26,1.42,2.28.13C46,2.61,46.27,2.78,46.27,2.78Z"/><path class="cls-10" d="M50,5.43s-1.26-.08-.18,2.07-.93,1.64-.07,1.91,3.23-.21,2-2.78C50.8,4.93,50,5.43,50,5.43Z"/><path class="cls-11" d="M38.11,16.38s-1.81-4.63-5.72-4.74-12.22,2-12.22,2S6.72,18.26,5.59,19,0,22.54,0,22.54s1-1.26.39-2,15.15-7,15.75-7,14.09-3.33,16.51-2.73a7.11,7.11,0,0,1,3.47,1.81,12.14,12.14,0,0,1,2.52,3.78C39.52,19.29,38.11,16.38,38.11,16.38Z"/><path class="cls-12" d="M37.21,6.91s2.21,3.35-4.13,4c-.63.35,1.75.9,1.75.9s4.39-1.66,3.46-3.74C37,5.12,37.21,6.91,37.21,6.91Z"/><path class="cls-13" d="M13.86,14.28s1.17-2.63-.12-4.71a11.31,11.31,0,0,0-3.23-3.3s3,1.77,3.71,3.08.59,4.57.59,4.57Z"/><path class="cls-14" d="M21.44,12.32S26.28,10,24.73,7.08c2,2.91-1.6,5-1.6,5Z"/><path class="cls-15" d="M23,12.78a17.28,17.28,0,0,1,4.72,5.6c-1.33-.68-2.55-4.1-5.65-5.19C20.4,13.18,23,12.78,23,12.78Z"/><path class="cls-16" d="M13.3,8.49s2.18.76.82-1.41S7.27,3,5.91.56,6.27,4,9.21,7.77s5.22,3.26,5.38,2.8S14.27,9.21,13.3,8.49Z"/><path class="cls-17" d="M24.73,9.51s-1.61,1-3-1.1S20.06,2.69,25.49,0c0,0-1.47,1.93.32,5.07s2.33,6.78-.22,5.76A1.46,1.46,0,0,1,24.73,9.51Z"/><path class="cls-18" d="M24.69,14.51s0-2.1,1.86-.25,2.51,5,2.66,5.52a12.85,12.85,0,0,0,3.37,4.51c1.58,1-5.67-2-8.51-7S24.69,14.51,24.69,14.51Z"/><path class="cls-19" d="M38.65,16.37s2.57,3.13.79,4.51-6.35,1-6.35,1,2.5-1.35,1.87-3,0-4.74,2.91-3C38.6,17,38.65,16.37,38.65,16.37Z"/><path class="cls-20" d="M37.93,8.13S36.33,9.77,33,5.46s-5-1.14-4.36-2.56,5-3.66,9,1.4C40.17,7.82,37.93,8.13,37.93,8.13Z"/><path class="cls-21" d="M49.16,2.54s.4.3.29.6a4.64,4.64,0,0,1-.58.85s-.89.85-1,.91l-.53.3s.15,0,.21,0a6.52,6.52,0,0,0,1.2-.94,9.06,9.06,0,0,0,.81-1.16.81.81,0,0,0-.36-.64C48.94,2.34,49.16,2.54,49.16,2.54Z"/><path class="cls-22" d="M50,2.94s-.25-.31-.49.17c-.06,0-.06-.21-.06-.21s.28-.33.5-.09S50,2.94,50,2.94Z"/><path class="cls-23" d="M48.61,4.44a.73.73,0,0,1,.46.17A1,1,0,0,1,49.3,5a1.09,1.09,0,0,0-.19-.39,2,2,0,0,0-.44-.2Z"/><path class="cls-24" d="M49,3.94s.39-.28.63-.06a.42.42,0,0,0-.54,0Z"/><path class="cls-25" d="M49,3.81a1.53,1.53,0,0,0-.41-.55c0,.12.33.33.34.6S49,3.81,49,3.81Z"/><path class="cls-26" d="M49.16,4.68s0-.19.17,0,.19.66.39.84-.33-.14-.61-.49S49,4.51,49,4.51A.42.42,0,0,1,49.16,4.68Z"/><path class="cls-27" d="M49.42,3.79s-.14.09,0,.26a.68.68,0,0,0,1,0,.58.58,0,0,1-.49-.19c-.26-.25-.59-.44-.58-.18S49.42,3.79,49.42,3.79Z"/><path class="cls-28" d="M48.92,3.62s.21.07.09-.13a1.63,1.63,0,0,0-.47-.39,1.59,1.59,0,0,1-.34-.41,1.38,1.38,0,0,0,.42.88C49,4,48.92,3.62,48.92,3.62Z"/><path class="cls-29" d="M49.18,2.5s-.23-.3-.42-.21-.3.44-.3.44.21-.14.36,0,.47.16.39-.12C49.12,2.49,49.18,2.5,49.18,2.5Z"/><path class="cls-30" d="M50,2.84s-.22.06.11.46.11.42.11.42.51-.18.15-.73C50,2.69,50,2.84,50,2.84Z"/><path class="cls-31" d="M47.28,1.31a.66.66,0,0,1,.47.49,8.24,8.24,0,0,1,0,1.29s-.16,1.47-.21,1.6l-.2.65s.09-.13.16-.09a10.68,10.68,0,0,0,.33-1.75,17.55,17.55,0,0,0,0-1.76.8.8,0,0,0-.54-.5C47,1.21,47.28,1.31,47.28,1.31Z"/><path class="cls-32" d="M48,1.24s-.31-.2-.24.48c0,.07-.14-.2-.14-.2s0-.53.29-.39S48,1.24,48,1.24Z"/><path class="cls-33" d="M47.82,3.75a.38.38,0,0,1,.38-.08,1,1,0,0,1,.32.26s-.19-.27-.31-.31a.79.79,0,0,0-.38,0Z"/><path class="cls-34" d="M47.86,3s.11-.54.37-.44c-.26-.15-.37.27-.37.27Z"/><path class="cls-35" d="M47.8,2.79a1.44,1.44,0,0,0-.52-.37c.07.12.37.18.5.47S47.8,2.79,47.8,2.79Z"/><path class="cls-36" d="M48.29,3.69s-.09-.21.11-.11.43.62.65.71-.28,0-.64-.19-.3-.5-.3-.5A.3.3,0,0,1,48.29,3.69Z"/><path class="cls-37" d="M48,2.54a.25.25,0,0,0,.13.28c.19.1.49.06.62-.55a.32.32,0,0,1-.41.07c-.28-.12-.59-.13-.46.14C48,2.59,48,2.54,48,2.54Z"/><path class="cls-38" d="M47.63,2.65s.17,0,0-.2a.94.94,0,0,0-.49-.16A1.18,1.18,0,0,1,46.72,2a1.64,1.64,0,0,0,.7.73C47.86,3,47.63,2.65,47.63,2.65Z"/><path class="cls-39" d="M47.27,1.26s-.29-.2-.37,0a1.54,1.54,0,0,0,0,.67s.07-.29.22-.26.38-.09.19-.35C47.22,1.28,47.27,1.26,47.27,1.26Z"/><path class="cls-40" d="M48,1.17s-.11.19.29.44.27.4.27.4a.74.74,0,0,0-.25-.9C47.89,1,48,1.17,48,1.17Z"/><path class="cls-41" d="M50.22,2.72s-.3-.46-.6-.29a5.51,5.51,0,0,0-.84.81S48,4.42,47.89,4.56l-.29.68s0-.2,0-.26a8.69,8.69,0,0,1,.92-1.57,11,11,0,0,1,1.13-1.13.73.73,0,0,1,.65.37C50.43,3,50.22,2.72,50.22,2.72Z"/><path class="cls-42" d="M49.81,1.68s.31.27-.16.63c0,.07.21,0,.21,0s.32-.38.07-.63S49.81,1.68,49.81,1.68Z"/><path class="cls-43" d="M48.34,3.61a1,1,0,0,0-.18-.55.94.94,0,0,0-.36-.24.93.93,0,0,1,.39.19,2.88,2.88,0,0,1,.21.51Z"/><path class="cls-44" d="M48.83,3s.27-.5.05-.77c.26.25,0,.66,0,.66Z"/><path class="cls-45" d="M49,3a1.4,1.4,0,0,1,.56.43c-.13,0-.34-.36-.61-.34C48.79,3.18,49,3,49,3Z"/><path class="cls-46" d="M48.09,3s.19,0,0-.21-.66-.16-.85-.38.15.39.51.69.5.08.5.08S48.19,3,48.09,3Z"/><path class="cls-47" d="M49,2.54s-.09.19-.26,0a1,1,0,0,1,0-1.17A.81.81,0,0,0,48.9,2c.24.28.44.67.19.69S49,2.54,49,2.54Z"/><path class="cls-48" d="M49.15,3.13s-.07-.25.13-.12a1.71,1.71,0,0,1,.4.53,1.55,1.55,0,0,0,.41.37c.16,0-.49,0-.88-.42S49.15,3.13,49.15,3.13Z"/><path class="cls-49" d="M50.26,2.69s.3.25.22.5S50,3.6,50,3.6s.14-.27,0-.44-.17-.56.11-.49C50.28,2.77,50.26,2.69,50.26,2.69Z"/><path class="cls-50" d="M49.91,1.75s-.06.27-.46-.08-.42-.1-.42-.1a.43.43,0,0,1,.72-.26C50.06,1.71,49.91,1.75,49.91,1.75Z"/></g></g></g></svg>