<svg xmlns="http://www.w3.org/2000/svg" xmlns:xlink="http://www.w3.org/1999/xlink" viewBox="0 0 45.35 43"><defs><style>.cls-1{opacity:0.82;}.cls-2{clip-path:url(#clip-path);}.cls-3,.cls-8{fill:none;}.cls-4{opacity:0.55;}.cls-5{opacity:0.18;}.cls-6{opacity:0.51;}.cls-7{clip-path:url(#clip-path-2);}.cls-8{stroke:#000;}.cls-11,.cls-17,.cls-18,.cls-19,.cls-20,.cls-21,.cls-8{stroke-miterlimit:10;}.cls-9{mask:url(#mask);}.cls-10{fill:url(#Безымянный_градиент_26);}.cls-11,.cls-17,.cls-19{fill:#5f723f;}.cls-11,.cls-17,.cls-18,.cls-19,.cls-20,.cls-21{stroke-width:0.5px;}.cls-11{stroke:url(#plant);}.cls-12{fill:url(#Безымянный_градиент_26-2);}.cls-13{fill:url(#Безымянный_градиент_26-3);}.cls-14{fill:url(#Безымянный_градиент_26-4);}.cls-15{fill:url(#Безымянный_градиент_26-5);}.cls-16{fill:url(#Безымянный_градиент_26-6);}.cls-17{stroke:url(#plants2);}.cls-18{fill:url(#plants2-2);stroke:url(#plant-2);}.cls-19{stroke:url(#plants2-3);}.cls-20{fill:url(#plant-3);stroke:url(#plant-4);}.cls-21{fill:url(#plants2-4);stroke:url(#plants2-5);}.cls-22{filter:url(#luminosity-noclip);}</style><clipPath id="clip-path"><rect class="cls-3" x="-2253.43" y="-894.67" width="2209.81" height="2140.23"/></clipPath><clipPath id="clip-path-2"><rect class="cls-3" x="-493.26" y="-1616.95" width="2163.07" height="2326.12"/></clipPath><linearGradient id="Безымянный_градиент_26" x1="2691.64" y1="-4649.29" x2="2691.64" y2="-4655.3" gradientTransform="matrix(0.03, -0.98, 0.9, 0.12, 4095.81, 3205.47)" gradientUnits="userSpaceOnUse"><stop offset="0" stop-color="#97ad5c"/><stop offset="1" stop-color="#5f723f"/></linearGradient><linearGradient id="plant" x1="2486.97" y1="-4559.21" x2="2500.88" y2="-4559.21" gradientTransform="matrix(-0.02, -1.13, 0.92, 0.2, 4299.51, 3731.9)" gradientUnits="userSpaceOnUse"><stop offset="0" stop-color="#534741"/><stop offset="0.29" stop-color="#554d41"/><stop offset="0.69" stop-color="#5a5f40"/><stop offset="1" stop-color="#5f723f"/></linearGradient><linearGradient id="Безымянный_градиент_26-2" x1="2653.58" y1="-4654.59" x2="2663.27" y2="-4643.04" xlink:href="#Безымянный_градиент_26"/><linearGradient id="Безымянный_градиент_26-3" x1="2679.15" y1="-4642.3" x2="2674.83" y2="-4649.79" xlink:href="#Безымянный_градиент_26"/><linearGradient id="Безымянный_градиент_26-4" x1="2651.55" y1="-4669.21" x2="2665.83" y2="-4669.21" xlink:href="#Безымянный_градиент_26"/><linearGradient id="Безымянный_градиент_26-5" x1="2664.33" y1="-4658.24" x2="2672.79" y2="-4655.16" xlink:href="#Безымянный_градиент_26"/><linearGradient id="Безымянный_градиент_26-6" x1="2683.86" y1="-4665.72" x2="2675.28" y2="-4660.77" xlink:href="#Безымянный_градиент_26"/><linearGradient id="plants2" x1="2659.94" y1="-4658.88" x2="2674.21" y2="-4658.88" gradientTransform="matrix(0.03, -0.98, 0.9, 0.12, 4095.81, 3205.47)" gradientUnits="userSpaceOnUse"><stop offset="0" stop-color="#5f723f"/><stop offset="0.26" stop-color="#5b6340"/><stop offset="0.7" stop-color="#554e41"/><stop offset="1" stop-color="#534741"/></linearGradient><linearGradient id="plants2-2" x1="2660.72" y1="-4645.13" x2="2681.94" y2="-4645.13" xlink:href="#plants2"/><linearGradient id="plant-2" x1="2660.47" y1="-4645.1" x2="2682.19" y2="-4645.1" gradientTransform="matrix(0.03, -0.98, 0.9, 0.12, 4095.81, 3205.47)" xlink:href="#plant"/><linearGradient id="plants2-3" x1="2658.22" y1="-4644.18" x2="2661.57" y2="-4644.18" xlink:href="#plants2"/><linearGradient id="plant-3" x1="2619.36" y1="-4623.04" x2="2628.68" y2="-4623.04" gradientTransform="matrix(0.02, -1.01, 0.9, 0.14, 4137.83, 3314.07)" xlink:href="#plant"/><linearGradient id="plant-4" x1="2619.01" y1="-4623" x2="2629.03" y2="-4623" gradientTransform="matrix(0.02, -1.01, 0.9, 0.14, 4137.83, 3314.07)" xlink:href="#plant"/><linearGradient id="plants2-4" x1="2668.68" y1="-4653.2" x2="2671.07" y2="-4653.2" xlink:href="#plants2"/><linearGradient id="plants2-5" x1="2668.33" y1="-4653.2" x2="2671.41" y2="-4653.2" xlink:href="#plants2"/></defs><title>plants_small_2</title><g id="Capa_2" data-name="Capa 2"><g id="lletres"><g class="cls-9"><path class="cls-10" d="M21.88,3.52A9,9,0,0,1,21.56,0a12.58,12.58,0,0,1-1.77,1.65c-2.07,1.88-5,8-1.42,10.29C22.83,14.83,22.31,5.74,21.88,3.52Z"/><path class="cls-11" d="M20.19,7.77l.29.21a14.66,14.66,0,0,0-1,7.86,26.68,26.68,0,0,0,2.57,7l-.27.14a27.36,27.36,0,0,1-2.61-7.15A15.07,15.07,0,0,1,20.19,7.77Z"/><path class="cls-12" d="M23.41,41.23c-2.59-.7-5.43-1.44-7.76-.26-.25.13-.52.36-.45.65A12.87,12.87,0,0,1,17,36.69a7,7,0,0,1,3.94-3,6.55,6.55,0,0,1,7.29,3.61C29.61,40.84,26,41.93,23.41,41.23Z"/><path class="cls-13" d="M27.3,20.42l-1.58-4a2.66,2.66,0,0,1-.18-2.33,6.13,6.13,0,0,0-4.09,4.45c-.66,2.5,0,7.17,2.69,8.42C27.79,28.66,28.23,22.76,27.3,20.42Z"/><path class="cls-14" d="M6.47,34.05a6.63,6.63,0,0,1-1.14,2.54L1.32,43A28.91,28.91,0,0,1,.08,37.78a9.66,9.66,0,0,1,.67-5.16C1.29,31.45,3,29.11,4.48,29.4S6.66,32.74,6.47,34.05Z"/><path class="cls-15" d="M19,28.53a4.81,4.81,0,0,1-1.49.82,4.9,4.9,0,0,1-2.43.5,15.84,15.84,0,0,1-2-.59,3.92,3.92,0,0,0-3.5.83,7.1,7.1,0,0,1,4.52-5.76,3.39,3.39,0,0,1,1.64-.21,4.83,4.83,0,0,1,1.3.47C18.48,25.28,20.75,26.94,19,28.53Z"/><path class="cls-16" d="M12.53,19.79a12.81,12.81,0,0,1-4-1.77A25.34,25.34,0,0,0,5,16.44a3.45,3.45,0,0,0-2.13-.23c1.05-2.58,3.6-4.52,6.3-4.11A10.64,10.64,0,0,1,11.7,13c1.73.77,3.53,2,4,4.11S14.24,20,12.53,19.79Z"/><path class="cls-17" d="M10.47,23.38a9.39,9.39,0,0,1,5-.46,12.39,12.39,0,0,1,6.58,3.65l-.2.23a12.13,12.13,0,0,0-6.41-3.55,8.79,8.79,0,0,0-6.75,1.46c-3,2.17-4.22,6.12-5.15,10.07l-.3-.1c.95-4,2.24-8,5.26-10.24A8.3,8.3,0,0,1,10.47,23.38Z"/><path class="cls-18" d="M5.71,13.8a17.13,17.13,0,0,1,9.43,3.29c2.21,1.66,2.88,2.72,5.69,7.2l.84,1.33A56.33,56.33,0,0,0,27,33,16.69,16.69,0,0,0,34,38a7.28,7.28,0,0,0,5,0h0A9.11,9.11,0,0,0,43,34.14a14.66,14.66,0,0,0,1.72-3.48l.29.13a15.64,15.64,0,0,1-1.75,3.55,9.65,9.65,0,0,1-4.21,3.94,7.5,7.5,0,0,1-5.18,0,16.84,16.84,0,0,1-7.1-5,56,56,0,0,1-5.38-7.46l-.84-1.33C17.79,20,17.13,19,15,17.36a17,17,0,0,0-9.26-3.24Z"/><path class="cls-19" d="M19.28,37.84a9.64,9.64,0,0,1,4.59-.46,30.68,30.68,0,0,1,4,.79l1.35.32a5.06,5.06,0,0,0,1.87.19,1.77,1.77,0,0,0,1.42-1l.28.16A2.06,2.06,0,0,1,31.19,39a5.61,5.61,0,0,1-2-.19l-1.35-.33a33.84,33.84,0,0,0-4-.79,8.92,8.92,0,0,0-5.17.77l-.15-.29A6.36,6.36,0,0,1,19.28,37.84Z"/><path class="cls-20" d="M23.7,21.85l.15.31c-.15.07-.22.27-.28.45a7.87,7.87,0,0,0,.19,4.51,24.17,24.17,0,0,0,2,4.3l-.27.15a24.65,24.65,0,0,1-2-4.37,8.15,8.15,0,0,1-.19-4.72A.93.93,0,0,1,23.7,21.85Z"/><path class="cls-21" d="M14.58,27.13a7.35,7.35,0,0,1,3.32-.24l.28,0A7.28,7.28,0,0,0,22,26.64l.14.3a7.46,7.46,0,0,1-4,.3l-.28,0a5.51,5.51,0,0,0-4,.66l-.19-.27A3.84,3.84,0,0,1,14.58,27.13Z"/></g></g></g></svg>