<svg xmlns="http://www.w3.org/2000/svg" xmlns:xlink="http://www.w3.org/1999/xlink" viewBox="0 0 734.8 449.63"><defs><style>.cls-1{fill:url(#Безымянный_градиент_5);}.cls-2{fill:url(#Безымянный_градиент_4);}.cls-3{fill:url(#Безымянный_градиент_5-2);}.cls-4{fill:url(#Безымянный_градиент_4-2);}.cls-5{fill:url(#Безымянный_градиент_3);}.cls-6{fill:url(#Безымянный_градиент_2);}.cls-7{fill:url(#Безымянный_градиент_2-2);}.cls-8{fill:url(#Безымянный_градиент_2-3);}.cls-9{fill:url(#Безымянный_градиент_2-4);}.cls-10{fill:url(#Безымянный_градиент_2-5);}.cls-11{fill:url(#Безымянный_градиент_5-3);}.cls-12{fill:url(#Безымянный_градиент_4-3);}.cls-13{fill:url(#Безымянный_градиент_5-4);}.cls-14{fill:url(#Безымянный_градиент_4-4);}.cls-15{fill:url(#Безымянный_градиент_3-2);}.cls-16{fill:url(#Безымянный_градиент_2-6);}.cls-17{fill:url(#Безымянный_градиент_2-7);}.cls-18{fill:url(#Безымянный_градиент_2-8);}.cls-19{fill:url(#Безымянный_градиент_2-9);}.cls-20{fill:url(#Безымянный_градиент_2-10);}.cls-21{fill:url(#Безымянный_градиент_5-5);}.cls-22{fill:url(#Безымянный_градиент_4-5);}.cls-23{fill:url(#Безымянный_градиент_5-6);}.cls-24{fill:url(#Безымянный_градиент_4-6);}.cls-25{fill:url(#Безымянный_градиент_3-3);}.cls-26{fill:url(#Безымянный_градиент_2-11);}.cls-27{fill:url(#Безымянный_градиент_2-12);}.cls-28{fill:url(#Безымянный_градиент_2-13);}.cls-29{fill:url(#Безымянный_градиент_2-14);}.cls-30{fill:url(#Безымянный_градиент_2-15);}.cls-31{fill:url(#Безымянный_градиент_5-7);}.cls-32{fill:url(#Безымянный_градиент_4-7);}.cls-33{fill:url(#Безымянный_градиент_5-8);}.cls-34{fill:url(#Безымянный_градиент_4-8);}.cls-35{fill:url(#Безымянный_градиент_3-4);}.cls-36{fill:url(#Безымянный_градиент_2-16);}.cls-37{fill:url(#Безымянный_градиент_2-17);}.cls-38{fill:url(#Безымянный_градиент_2-18);}.cls-39{fill:url(#Безымянный_градиент_2-19);}.cls-40{fill:url(#Безымянный_градиент_2-20);}.cls-41{fill:url(#Безымянный_градиент_5-9);}.cls-42{fill:url(#Безымянный_градиент_4-9);}.cls-43{fill:url(#Безымянный_градиент_5-10);}.cls-44{fill:url(#Безымянный_градиент_4-10);}.cls-45{fill:url(#Безымянный_градиент_3-5);}.cls-46{fill:url(#Безымянный_градиент_2-21);}.cls-47{fill:url(#Безымянный_градиент_2-22);}.cls-48{fill:url(#Безымянный_градиент_2-23);}.cls-49{fill:url(#Безымянный_градиент_2-24);}.cls-50{fill:url(#Безымянный_градиент_2-25);}.cls-51{fill:url(#Безымянный_градиент_5-11);}.cls-52{fill:url(#Безымянный_градиент_4-11);}.cls-53{fill:url(#Безымянный_градиент_5-12);}.cls-54{fill:url(#Безымянный_градиент_4-12);}.cls-55{fill:url(#Безымянный_градиент_3-6);}.cls-56{fill:url(#Безымянный_градиент_2-26);}.cls-57{fill:url(#Безымянный_градиент_2-27);}.cls-58{fill:url(#Безымянный_градиент_2-28);}.cls-59{fill:url(#Безымянный_градиент_2-29);}.cls-60{fill:url(#Безымянный_градиент_2-30);}.cls-61{fill:url(#Безымянный_градиент_5-13);}.cls-62{fill:url(#Безымянный_градиент_4-13);}.cls-63{fill:url(#Безымянный_градиент_5-14);}.cls-64{fill:url(#Безымянный_градиент_4-14);}.cls-65{fill:url(#Безымянный_градиент_3-7);}.cls-66{fill:url(#Безымянный_градиент_2-31);}.cls-67{fill:url(#Безымянный_градиент_2-32);}.cls-68{fill:url(#Безымянный_градиент_2-33);}.cls-69{fill:url(#Безымянный_градиент_2-34);}.cls-70{fill:url(#Безымянный_градиент_2-35);}</style><linearGradient id="Безымянный_градиент_5" x1="7241.44" y1="2886.92" x2="7302.02" y2="2886.92" gradientTransform="matrix(-0.73, -0.72, -0.7, 0.72, 7896.98, 3282.22)" gradientUnits="userSpaceOnUse"><stop offset="0" stop-color="#534741"/><stop offset="0.49" stop-color="#544941"/><stop offset="0.69" stop-color="#565041"/><stop offset="0.85" stop-color="#595d40"/><stop offset="0.98" stop-color="#5e6e3f"/><stop offset="1" stop-color="#5f723f"/></linearGradient><linearGradient id="Безымянный_градиент_4" x1="7263.42" y1="2775.74" x2="7263.42" y2="2731.53" gradientTransform="matrix(-0.73, -0.72, -0.7, 0.72, 7896.98, 3282.22)" gradientUnits="userSpaceOnUse"><stop offset="0" stop-color="#534741"/><stop offset="0.33" stop-color="#544a41"/><stop offset="0.61" stop-color="#575540"/><stop offset="0.87" stop-color="#5c6740"/><stop offset="1" stop-color="#5f723f"/></linearGradient><linearGradient id="Безымянный_градиент_5-2" x1="7224.77" y1="2898.45" x2="7224.77" y2="2876.43" xlink:href="#Безымянный_градиент_5"/><linearGradient id="Безымянный_градиент_4-2" x1="7243.33" y1="2846.99" x2="7243.33" y2="2806.95" xlink:href="#Безымянный_градиент_4"/><linearGradient id="Безымянный_градиент_3" x1="7252.62" y1="2842.26" x2="7284.46" y2="2842.26" gradientTransform="matrix(-0.73, -0.72, -0.7, 0.72, 7896.98, 3282.22)" gradientUnits="userSpaceOnUse"><stop offset="0" stop-color="#534741"/><stop offset="0.11" stop-color="#565141"/><stop offset="0.39" stop-color="#5b6340"/><stop offset="0.68" stop-color="#5e6e3f"/><stop offset="1" stop-color="#5f723f"/></linearGradient><linearGradient id="Безымянный_градиент_2" x1="7172.29" y1="2883.53" x2="7230.54" y2="2883.53" gradientTransform="matrix(-0.73, -0.72, -0.7, 0.72, 7896.98, 3282.22)" gradientUnits="userSpaceOnUse"><stop offset="0" stop-color="#97ad5c"/><stop offset="1" stop-color="#5f723f"/></linearGradient><linearGradient id="Безымянный_градиент_2-2" x1="7208.76" y1="2801.76" x2="7253.79" y2="2801.76" xlink:href="#Безымянный_градиент_2"/><linearGradient id="Безымянный_градиент_2-3" x1="7288.58" y1="2852.43" x2="7288.58" y2="2824.83" xlink:href="#Безымянный_градиент_2"/><linearGradient id="Безымянный_градиент_2-4" x1="7301.76" y1="2818.53" x2="7301.76" y2="2764.29" xlink:href="#Безымянный_градиент_2"/><linearGradient id="Безымянный_градиент_2-5" x1="7223.34" y1="2745.5" x2="7263.2" y2="2745.5" xlink:href="#Безымянный_градиент_2"/><linearGradient id="Безымянный_градиент_5-3" x1="7728.56" y1="2734.16" x2="7789.14" y2="2734.16" gradientTransform="matrix(-0.82, -0.6, -0.58, 0.82, 8481.24, 2580.68)" xlink:href="#Безымянный_градиент_5"/><linearGradient id="Безымянный_градиент_4-3" x1="7750.54" y1="2622.98" x2="7750.54" y2="2578.76" gradientTransform="matrix(-0.82, -0.6, -0.58, 0.82, 8481.24, 2580.68)" xlink:href="#Безымянный_градиент_4"/><linearGradient id="Безымянный_градиент_5-4" x1="7711.89" y1="2745.68" x2="7711.89" y2="2723.67" gradientTransform="matrix(-0.82, -0.6, -0.58, 0.82, 8481.24, 2580.68)" xlink:href="#Безымянный_градиент_5"/><linearGradient id="Безымянный_градиент_4-4" x1="7730.45" y1="2694.23" x2="7730.45" y2="2654.19" gradientTransform="matrix(-0.82, -0.6, -0.58, 0.82, 8481.24, 2580.68)" xlink:href="#Безымянный_градиент_4"/><linearGradient id="Безымянный_градиент_3-2" x1="7739.74" y1="2689.49" x2="7771.58" y2="2689.49" gradientTransform="matrix(-0.82, -0.6, -0.58, 0.82, 8481.24, 2580.68)" xlink:href="#Безымянный_градиент_3"/><linearGradient id="Безымянный_градиент_2-6" x1="7659.41" y1="2730.76" x2="7717.66" y2="2730.76" gradientTransform="matrix(-0.82, -0.6, -0.58, 0.82, 8481.24, 2580.68)" xlink:href="#Безымянный_градиент_2"/><linearGradient id="Безымянный_градиент_2-7" x1="7695.88" y1="2648.99" x2="7740.91" y2="2648.99" gradientTransform="matrix(-0.82, -0.6, -0.58, 0.82, 8481.24, 2580.68)" xlink:href="#Безымянный_градиент_2"/><linearGradient id="Безымянный_градиент_2-8" x1="7775.7" y1="2699.67" x2="7775.7" y2="2672.06" gradientTransform="matrix(-0.82, -0.6, -0.58, 0.82, 8481.24, 2580.68)" xlink:href="#Безымянный_градиент_2"/><linearGradient id="Безымянный_градиент_2-9" x1="7788.88" y1="2665.77" x2="7788.88" y2="2611.53" gradientTransform="matrix(-0.82, -0.6, -0.58, 0.82, 8481.24, 2580.68)" xlink:href="#Безымянный_градиент_2"/><linearGradient id="Безымянный_градиент_2-10" x1="7710.46" y1="2592.74" x2="7750.32" y2="2592.74" gradientTransform="matrix(-0.82, -0.6, -0.58, 0.82, 8481.24, 2580.68)" xlink:href="#Безымянный_градиент_2"/><linearGradient id="Безымянный_градиент_5-5" x1="5416.01" y1="3353" x2="5476.59" y2="3353" gradientTransform="matrix(-0.2, -1, -0.99, 0.18, 4827.46, 5083.29)" xlink:href="#Безымянный_градиент_5"/><linearGradient id="Безымянный_градиент_4-5" x1="5437.99" y1="3241.83" x2="5437.99" y2="3197.61" gradientTransform="matrix(-0.2, -1, -0.99, 0.18, 4827.46, 5083.29)" xlink:href="#Безымянный_градиент_4"/><linearGradient id="Безымянный_градиент_5-6" x1="5399.34" y1="3364.53" x2="5399.34" y2="3342.52" gradientTransform="matrix(-0.2, -1, -0.99, 0.18, 4827.46, 5083.29)" xlink:href="#Безымянный_градиент_5"/><linearGradient id="Безымянный_градиент_4-6" x1="5417.9" y1="3313.08" x2="5417.9" y2="3273.03" gradientTransform="matrix(-0.2, -1, -0.99, 0.18, 4827.46, 5083.29)" xlink:href="#Безымянный_градиент_4"/><linearGradient id="Безымянный_градиент_3-3" x1="5427.19" y1="3308.34" x2="5459.03" y2="3308.34" gradientTransform="matrix(-0.2, -1, -0.99, 0.18, 4827.46, 5083.29)" xlink:href="#Безымянный_градиент_3"/><linearGradient id="Безымянный_градиент_2-11" x1="5346.86" y1="3349.61" x2="5405.11" y2="3349.61" gradientTransform="matrix(-0.2, -1, -0.99, 0.18, 4827.46, 5083.29)" xlink:href="#Безымянный_градиент_2"/><linearGradient id="Безымянный_градиент_2-12" x1="5383.33" y1="3267.84" x2="5428.35" y2="3267.84" gradientTransform="matrix(-0.2, -1, -0.99, 0.18, 4827.46, 5083.29)" xlink:href="#Безымянный_градиент_2"/><linearGradient id="Безымянный_градиент_2-13" x1="5463.15" y1="3318.52" x2="5463.15" y2="3290.91" gradientTransform="matrix(-0.2, -1, -0.99, 0.18, 4827.46, 5083.29)" xlink:href="#Безымянный_градиент_2"/><linearGradient id="Безымянный_градиент_2-14" x1="5476.33" y1="3284.62" x2="5476.33" y2="3230.38" gradientTransform="matrix(-0.2, -1, -0.99, 0.18, 4827.46, 5083.29)" xlink:href="#Безымянный_градиент_2"/><linearGradient id="Безымянный_градиент_2-15" x1="5397.91" y1="3211.59" x2="5437.77" y2="3211.59" gradientTransform="matrix(-0.2, -1, -0.99, 0.18, 4827.46, 5083.29)" xlink:href="#Безымянный_градиент_2"/><linearGradient id="Безымянный_градиент_5-7" x1="7796.15" y1="2825.79" x2="7856.73" y2="2825.79" gradientTransform="matrix(-0.83, -0.6, -0.57, 0.83, 8495.71, 2509.15)" xlink:href="#Безымянный_градиент_5"/><linearGradient id="Безымянный_градиент_4-7" x1="7818.13" y1="2714.61" x2="7818.13" y2="2670.39" gradientTransform="matrix(-0.83, -0.6, -0.57, 0.83, 8495.71, 2509.15)" xlink:href="#Безымянный_градиент_4"/><linearGradient id="Безымянный_градиент_5-8" x1="7779.48" y1="2837.32" x2="7779.48" y2="2815.3" gradientTransform="matrix(-0.83, -0.6, -0.57, 0.83, 8495.71, 2509.15)" xlink:href="#Безымянный_градиент_5"/><linearGradient id="Безымянный_градиент_4-8" x1="7798.04" y1="2785.86" x2="7798.04" y2="2745.82" gradientTransform="matrix(-0.83, -0.6, -0.57, 0.83, 8495.71, 2509.15)" xlink:href="#Безымянный_градиент_4"/><linearGradient id="Безымянный_градиент_3-4" x1="7807.33" y1="2781.13" x2="7839.17" y2="2781.13" gradientTransform="matrix(-0.83, -0.6, -0.57, 0.83, 8495.71, 2509.15)" xlink:href="#Безымянный_градиент_3"/><linearGradient id="Безымянный_градиент_2-16" x1="7727" y1="2822.39" x2="7785.25" y2="2822.39" gradientTransform="matrix(-0.83, -0.6, -0.57, 0.83, 8495.71, 2509.15)" xlink:href="#Безымянный_градиент_2"/><linearGradient id="Безымянный_градиент_2-17" x1="7763.47" y1="2740.63" x2="7808.5" y2="2740.63" gradientTransform="matrix(-0.83, -0.6, -0.57, 0.83, 8495.71, 2509.15)" xlink:href="#Безымянный_градиент_2"/><linearGradient id="Безымянный_градиент_2-18" x1="7843.29" y1="2791.3" x2="7843.29" y2="2763.69" gradientTransform="matrix(-0.83, -0.6, -0.57, 0.83, 8495.71, 2509.15)" xlink:href="#Безымянный_градиент_2"/><linearGradient id="Безымянный_градиент_2-19" x1="7856.47" y1="2757.4" x2="7856.47" y2="2703.16" gradientTransform="matrix(-0.83, -0.6, -0.57, 0.83, 8495.71, 2509.15)" xlink:href="#Безымянный_градиент_2"/><linearGradient id="Безымянный_градиент_2-20" x1="7778.05" y1="2684.37" x2="7817.91" y2="2684.37" gradientTransform="matrix(-0.83, -0.6, -0.57, 0.83, 8495.71, 2509.15)" xlink:href="#Безымянный_градиент_2"/><linearGradient id="Безымянный_градиент_5-9" x1="7713.78" y1="3039.9" x2="7774.36" y2="3039.9" gradientTransform="matrix(-0.81, -0.63, -0.6, 0.8, 8355.51, 2671.86)" xlink:href="#Безымянный_градиент_5"/><linearGradient id="Безымянный_градиент_4-9" x1="7735.77" y1="2928.72" x2="7735.77" y2="2884.51" gradientTransform="matrix(-0.81, -0.63, -0.6, 0.8, 8355.51, 2671.86)" xlink:href="#Безымянный_градиент_4"/><linearGradient id="Безымянный_градиент_5-10" x1="7697.11" y1="3051.43" x2="7697.11" y2="3029.41" gradientTransform="matrix(-0.81, -0.63, -0.6, 0.8, 8355.51, 2671.86)" xlink:href="#Безымянный_градиент_5"/><linearGradient id="Безымянный_градиент_4-10" x1="7715.68" y1="2999.97" x2="7715.68" y2="2959.93" gradientTransform="matrix(-0.81, -0.63, -0.6, 0.8, 8355.51, 2671.86)" xlink:href="#Безымянный_градиент_4"/><linearGradient id="Безымянный_градиент_3-5" x1="7724.96" y1="2995.24" x2="7756.8" y2="2995.24" gradientTransform="matrix(-0.81, -0.63, -0.6, 0.8, 8355.51, 2671.86)" xlink:href="#Безымянный_градиент_3"/><linearGradient id="Безымянный_градиент_2-21" x1="7644.63" y1="3036.51" x2="7702.89" y2="3036.51" gradientTransform="matrix(-0.81, -0.63, -0.6, 0.8, 8355.51, 2671.86)" xlink:href="#Безымянный_градиент_2"/><linearGradient id="Безымянный_градиент_2-22" x1="7681.1" y1="2954.74" x2="7726.13" y2="2954.74" gradientTransform="matrix(-0.81, -0.63, -0.6, 0.8, 8355.51, 2671.86)" xlink:href="#Безымянный_градиент_2"/><linearGradient id="Безымянный_градиент_2-23" x1="7760.92" y1="3005.41" x2="7760.92" y2="2977.81" gradientTransform="matrix(-0.81, -0.63, -0.6, 0.8, 8355.51, 2671.86)" xlink:href="#Безымянный_градиент_2"/><linearGradient id="Безымянный_градиент_2-24" x1="7774.1" y1="2971.51" x2="7774.1" y2="2917.27" gradientTransform="matrix(-0.81, -0.63, -0.6, 0.8, 8355.51, 2671.86)" xlink:href="#Безымянный_градиент_2"/><linearGradient id="Безымянный_градиент_2-25" x1="7695.69" y1="2898.48" x2="7735.54" y2="2898.48" gradientTransform="matrix(-0.81, -0.63, -0.6, 0.8, 8355.51, 2671.86)" xlink:href="#Безымянный_градиент_2"/><linearGradient id="Безымянный_градиент_5-11" x1="5327.67" y1="3574.55" x2="5388.25" y2="3574.55" gradientTransform="matrix(-0.17, -1.01, -0.99, 0.15, 4690.46, 5200.78)" xlink:href="#Безымянный_градиент_5"/><linearGradient id="Безымянный_градиент_4-11" x1="5349.65" y1="3463.37" x2="5349.65" y2="3419.16" gradientTransform="matrix(-0.17, -1.01, -0.99, 0.15, 4690.46, 5200.78)" xlink:href="#Безымянный_градиент_4"/><linearGradient id="Безымянный_градиент_5-12" x1="5311" y1="3586.08" x2="5311" y2="3564.06" gradientTransform="matrix(-0.17, -1.01, -0.99, 0.15, 4690.46, 5200.78)" xlink:href="#Безымянный_градиент_5"/><linearGradient id="Безымянный_градиент_4-12" x1="5329.56" y1="3534.62" x2="5329.56" y2="3494.58" gradientTransform="matrix(-0.17, -1.01, -0.99, 0.15, 4690.46, 5200.78)" xlink:href="#Безымянный_градиент_4"/><linearGradient id="Безымянный_градиент_3-6" x1="5338.84" y1="3529.89" x2="5370.69" y2="3529.89" gradientTransform="matrix(-0.17, -1.01, -0.99, 0.15, 4690.46, 5200.78)" xlink:href="#Безымянный_градиент_3"/><linearGradient id="Безымянный_градиент_2-26" x1="5258.51" y1="3571.16" x2="5316.77" y2="3571.16" gradientTransform="matrix(-0.17, -1.01, -0.99, 0.15, 4690.46, 5200.78)" xlink:href="#Безымянный_градиент_2"/><linearGradient id="Безымянный_градиент_2-27" x1="5294.99" y1="3489.39" x2="5340.01" y2="3489.39" gradientTransform="matrix(-0.17, -1.01, -0.99, 0.15, 4690.46, 5200.78)" xlink:href="#Безымянный_градиент_2"/><linearGradient id="Безымянный_градиент_2-28" x1="5374.81" y1="3540.06" x2="5374.81" y2="3512.46" gradientTransform="matrix(-0.17, -1.01, -0.99, 0.15, 4690.46, 5200.78)" xlink:href="#Безымянный_градиент_2"/><linearGradient id="Безымянный_градиент_2-29" x1="5387.99" y1="3506.16" x2="5387.99" y2="3451.92" gradientTransform="matrix(-0.17, -1.01, -0.99, 0.15, 4690.46, 5200.78)" xlink:href="#Безымянный_градиент_2"/><linearGradient id="Безымянный_градиент_2-30" x1="5309.57" y1="3433.13" x2="5349.43" y2="3433.13" gradientTransform="matrix(-0.17, -1.01, -0.99, 0.15, 4690.46, 5200.78)" xlink:href="#Безымянный_градиент_2"/><linearGradient id="Безымянный_градиент_5-13" x1="6535.63" y1="3695.68" x2="6596.21" y2="3695.68" gradientTransform="matrix(-0.49, -0.9, -0.88, 0.48, 6570.41, 4518.64)" xlink:href="#Безымянный_градиент_5"/><linearGradient id="Безымянный_градиент_4-13" x1="6557.61" y1="3584.51" x2="6557.61" y2="3540.29" gradientTransform="matrix(-0.49, -0.9, -0.88, 0.48, 6570.41, 4518.64)" xlink:href="#Безымянный_градиент_4"/><linearGradient id="Безымянный_градиент_5-14" x1="6518.96" y1="3707.21" x2="6518.96" y2="3685.2" gradientTransform="matrix(-0.49, -0.9, -0.88, 0.48, 6570.41, 4518.64)" xlink:href="#Безымянный_градиент_5"/><linearGradient id="Безымянный_градиент_4-14" x1="6537.52" y1="3655.76" x2="6537.52" y2="3615.71" gradientTransform="matrix(-0.49, -0.9, -0.88, 0.48, 6570.41, 4518.64)" xlink:href="#Безымянный_градиент_4"/><linearGradient id="Безымянный_градиент_3-7" x1="6546.8" y1="3651.02" x2="6578.65" y2="3651.02" gradientTransform="matrix(-0.49, -0.9, -0.88, 0.48, 6570.41, 4518.64)" xlink:href="#Безымянный_градиент_3"/><linearGradient id="Безымянный_градиент_2-31" x1="6466.47" y1="3692.29" x2="6524.73" y2="3692.29" gradientTransform="matrix(-0.49, -0.9, -0.88, 0.48, 6570.41, 4518.64)" xlink:href="#Безымянный_градиент_2"/><linearGradient id="Безымянный_градиент_2-32" x1="6502.95" y1="3610.52" x2="6547.97" y2="3610.52" gradientTransform="matrix(-0.49, -0.9, -0.88, 0.48, 6570.41, 4518.64)" xlink:href="#Безымянный_градиент_2"/><linearGradient id="Безымянный_градиент_2-33" x1="6582.77" y1="3661.2" x2="6582.77" y2="3633.59" gradientTransform="matrix(-0.49, -0.9, -0.88, 0.48, 6570.41, 4518.64)" xlink:href="#Безымянный_градиент_2"/><linearGradient id="Безымянный_градиент_2-34" x1="6595.95" y1="3627.3" x2="6595.95" y2="3573.06" gradientTransform="matrix(-0.49, -0.9, -0.88, 0.48, 6570.41, 4518.64)" xlink:href="#Безымянный_градиент_2"/><linearGradient id="Безымянный_градиент_2-35" x1="6517.53" y1="3554.27" x2="6557.39" y2="3554.27" gradientTransform="matrix(-0.49, -0.9, -0.88, 0.48, 6570.41, 4518.64)" xlink:href="#Безымянный_градиент_2"/></defs><title>plant_sky</title><g id="Capa_2" data-name="Capa 2"><g id="Capa_1-2" data-name="Capa 1"><path class="cls-1" d="M661.37,10.41s21.31,9.49,11.42,30.76-44.06,66.74-44.06,66.74-62.2,73.61-69.4,79.82-35,30.75-35,30.75,9.8-5.56,12.5-2.29,80.25-83.09,82.07-86.36,56.63-77,59.71-90.12c1.88-8,1.79-13.5-.93-18.76-2.21-4.25-5.72-8.37-14.59-13.41C648.7,3,661.37,10.41,661.37,10.41Z"/><path class="cls-2" d="M712.47,14.57s-13-11.81-33.76,22.81c-3.67,3.46-.38-9.46-.38-9.46s21.2-24.08,30.4-19.14C721.85,15.84,712.47,14.57,712.47,14.57Z"/><path class="cls-3" d="M608.2,142.3s18-6.58,26.29.29,10,17.35,10,17.35-1.87-16.36-7.49-20-24.19-2.89-24.19-2.89Z"/><path class="cls-4" d="M639.58,100.86S665.81,74.33,678,82.52c-11-10.8-32.78,9.11-32.78,9.11Z"/><path class="cls-5" d="M641.08,92.6a46.15,46.15,0,0,0-19-25.27c.25,7.2,16.28,13.56,14.14,30.34C631.91,106.6,641.08,92.6,641.08,92.6Z"/><path class="cls-6" d="M639.41,144.89s1.51-11.78,10.16-4.58,4.87,37,14.8,44.17-18.44-1.64-31.91-17.35-4.38-28.19-1.39-29.08S637.93,139.65,639.41,144.89Z"/><path class="cls-7" d="M664.28,82.72s-9.68,8.83-1.68,16,27.73,8.84,57.31-20.93c0,0-14.87,8.17-27.79-1.32S660,64.33,659,78.14C658.85,83.08,664.28,82.72,664.28,82.72Z"/><path class="cls-8" d="M635.92,83.37s11.92-.32,6.41-10.14-21.73-13.3-24.05-14.08-14.86-9.49-16.45-18S597.76,71.91,618.3,87,635.92,83.37,635.92,83.37Z"/><path class="cls-9" d="M662.88,7.46S652.06-6.28,639.51,3.53s-22.63,34.68-22.63,34.68,14.35-13.74,22.21-10.46,26.77-.42,24.59-16.08C659.34,7.79,662.88,7.46,662.88,7.46Z"/><path class="cls-10" d="M707.51,10.75s-13.55,8.83,1.92,26.5-6.88,26.93,2.77,23.56,34-27.44,16.31-49.08C715.3-1.5,707.51,10.75,707.51,10.75Z"/><path class="cls-11" d="M550.4,26s22.41,6.14,15.86,28.76-33.39,73-33.39,73-50.23,82.55-56.38,89.82-29.89,35.88-29.89,35.88,8.82-7,12-4.19,66.59-94.73,67.89-98.26,44.22-85.07,45.29-98.55c.65-8.22-.26-13.66-3.73-18.46-2.81-3.89-6.89-7.43-16.38-11.07C536.8,20.55,550.4,26,550.4,26Z"/><path class="cls-12" d="M601.35,22.29s-14.54-9.72-29.83,27.81c-3.1,4-1.8-9.33-1.8-9.33S587,13.63,596.8,17.13C610.78,22.12,601.35,22.29,601.35,22.29Z"/><path class="cls-13" d="M517.81,165s16.72-9.28,25.93-3.74,12.43,15.67,12.43,15.67-4.3-15.94-10.37-18.65-24.26.85-24.26.85Z"/><path class="cls-14" d="M542.5,119.07S564.35,88.73,577.63,95c-12.49-9-30.92,14.07-30.92,14.07Z"/><path class="cls-15" d="M542.74,110.65a46,46,0,0,0-22.47-22.16c1.33,7.1,18.08,11,18.49,27.93C535.81,125.94,542.74,110.65,542.74,110.65Z"/><path class="cls-16" d="M548.93,162.77s-.27-11.92,9.32-6.1,10.35,35.93,21.21,41.54-18.41,1.21-34-12.31-8.55-27.29-5.74-28.63S546.69,157.8,548.93,162.77Z"/><path class="cls-17" d="M564.11,97.29s-8.22,10.25.74,16.16S593.5,118,618.17,83.9c0,0-13.42,10.39-27.57,3s-33.43-7.17-32.42,6.7C558.81,98.48,564.11,97.29,564.11,97.29Z"/><path class="cls-18" d="M536.27,102.28s11.69-2.15,4.79-11S517.67,81.38,515.26,81s-16.05-7.14-18.9-15.33.61,31.13,23.1,42.91S536.27,102.28,536.27,102.28Z"/><path class="cls-19" d="M551.44,22.85s-12.71-12-23.61-.31-17.08,37.87-17.08,37.87,12.07-15.83,20.3-13.79,26.31-4.51,21.81-19.71C548,23.72,551.44,22.85,551.44,22.85Z"/><path class="cls-20" d="M595.89,19.26s-12,10.84,5.86,26S599,73,608,68.2,637.43,35.76,616.73,17C601.73,5.92,595.89,19.26,595.89,19.26Z"/><path class="cls-21" d="M528.14,188.59s12.48,19.94-7.74,31.48-74.34,28.71-74.34,28.71-93.36,23.85-102.87,24.74-46.56,4.76-46.56,4.76,11.32,1.14,11.73,5.34,113.78-21.15,117.14-22.76,90.61-29.8,100.56-38.65c6.06-5.39,9.08-9.89,9.76-15.72.55-4.71-.07-10.07-4.65-19.25C521.74,175.27,528.14,188.59,528.14,188.59Z"/><path class="cls-22" d="M568.51,221.34s-4.2-17-41-.94c-5,.7,5-7.88,5-7.88s31.25-7.31,36.16,2C575.65,227.77,568.51,221.34,568.51,221.34Z"/><path class="cls-23" d="M409.57,264.83s18.73,5,21.81,15.35S430,300,430,300s7.63-14.33,5-20.47-18.6-16.24-18.6-16.24Z"/><path class="cls-24" d="M459.09,249.31s36.83-6.4,42.46,7.26C498.4,241.48,469,245.11,469,245.11Z"/><path class="cls-25" d="M465,243.49a45.24,45.24,0,0,0-1.65-31.37c-3.83,6,6,20.34-5.23,32.7C449.46,249.55,465,243.49,465,243.49Z"/><path class="cls-26" d="M434.21,284.87s7.88-8.67,11.06,2.13-16.71,32.74-12.45,44.28-14.5-11.93-16.92-32.39,12.18-25.35,15.18-24.36S435.91,279.78,434.21,284.87Z"/><path class="cls-27" d="M489.93,248.83s-13.06,1.58-10.42,12,18.22,23.11,59.68,16c0,0-17-1.93-22.49-17.05s-20-28.31-28.64-17.75C485.19,246,489.93,248.83,489.93,248.83Z"/><path class="cls-28" d="M465.86,233s10.15,6.6,11.06-4.52-10.69-23.26-12.19-25.23-7.09-16.23-3.64-24-20.68,22.57-12,46.57S465.86,233,465.86,233Z"/><path class="cls-29" d="M531.06,187.08s-1.32-17.35-17.33-16.62-38.4,15.07-38.4,15.07,19.71-2.88,24.44,4.29,22.61,15.06,29.59,1.13C527.92,185.31,531.06,187.08,531.06,187.08Z"/><path class="cls-30" d="M566.52,215.4s-16.29-.65-13.29,22.56-20.88,17.85-10.92,20.68,43.87-2.66,41.21-30.37C579.92,210,566.52,215.4,566.52,215.4Z"/><path class="cls-31" d="M438.36,51.94s22.46,6,16.09,28.64-32.82,73.23-32.82,73.23-49.58,83-55.68,90.28-29.61,36.12-29.61,36.12,8.77-7.09,11.93-4.28,65.84-95.27,67.11-98.81,43.56-85.43,44.53-98.93c.58-8.22-.37-13.66-3.87-18.43-2.84-3.86-7-7.37-16.47-10.94C424.73,46.59,438.36,51.94,438.36,51.94Z"/><path class="cls-32" d="M489.28,47.82s-14.61-9.61-29.61,28c-3.07,4-1.87-9.31-1.87-9.31s17.06-27.28,26.89-23.86C498.71,47.57,489.28,47.82,489.28,47.82Z"/><path class="cls-33" d="M406.85,191.2s16.65-9.42,25.91-3.95,12.54,15.58,12.54,15.58-4.42-15.91-10.51-18.57-24.25,1-24.25,1Z"/><path class="cls-34" d="M431.19,145.08s21.61-30.51,34.93-24.38c-12.55-8.92-30.8,14.32-30.8,14.32Z"/><path class="cls-35" d="M431.36,136.65a46,46,0,0,0-22.63-22c1.39,7.09,18.15,10.81,18.69,27.78C424.55,152,431.36,136.65,431.36,136.65Z"/><path class="cls-36" d="M438,188.73s-.37-11.92,9.27-6.18,10.62,35.86,21.52,41.39-18.4,1.35-34.12-12.05-8.75-27.23-5.95-28.59S435.68,183.78,438,188.73Z"/><path class="cls-37" d="M452.62,123.12s-8.13,10.32.87,16.16,28.68,4.29,53.08-30c0,0-13.34,10.5-27.54,3.18s-33.48-6.9-32.37,7C447.34,124.35,452.62,123.12,452.62,123.12Z"/><path class="cls-38" d="M424.83,128.34s11.67-2.25,4.71-11.09-23.47-9.67-25.88-10.06-16.11-7-19-15.19.86,31.13,23.43,42.74S424.83,128.34,424.83,128.34Z"/><path class="cls-39" d="M439.38,48.78s-12.8-11.88-23.6-.13-16.79,38-16.79,38,11.94-15.93,20.19-14S445.45,68,440.83,52.82C436,49.67,439.38,48.78,439.38,48.78Z"/><path class="cls-40" d="M483.8,44.83s-11.94,10.94,6.06,26-2.52,27.79,6.45,22.89,29.14-32.68,8.3-51.25C489.53,31.44,483.8,44.83,483.8,44.83Z"/><path class="cls-41" d="M322.44,146.92s22.25,6.79,15.07,29.19S302.06,248,302.06,248s-52.56,81-58.92,88.11-30.9,35-30.9,35,9-6.76,12.08-3.84,69.26-92.72,70.66-96.2,46.62-83.71,48.07-97.15c.88-8.2.13-13.66-3.21-18.55-2.7-4-6.68-7.62-16.07-11.53C309,141.08,322.44,146.92,322.44,146.92Z"/><path class="cls-42" d="M373.51,144.68s-14.27-10.13-30.61,26.91c-3.21,3.91-1.54-9.36-1.54-9.36s18-26.62,27.75-22.84C383,144.77,373.51,144.68,373.51,144.68Z"/><path class="cls-43" d="M285.94,284.83s17-8.8,26.05-3,12,16,12,16-3.85-16-9.84-18.93-24.3.16-24.3.16Z"/><path class="cls-44" d="M311.93,239.66S334.65,210,347.74,216.6c-12.23-9.37-31.31,13.17-31.31,13.17Z"/><path class="cls-45" d="M312.41,231.26a46.06,46.06,0,0,0-21.85-22.78c1.13,7.13,17.77,11.45,17.7,28.42C305.05,246.33,312.41,231.26,312.41,231.26Z"/><path class="cls-46" d="M317.14,283.5s.06-11.92,9.5-5.83,9.33,36.19,20,42.11-18.45.67-33.69-13.28-7.78-27.51-4.94-28.77S315,278.47,317.14,283.5Z"/><path class="cls-47" d="M334.16,218.52s-8.5,10,.29,16.17,28.53,5.33,54.16-28c0,0-13.72,10-27.66,2.16s-33.24-8.11-32.62,5.77C328.83,219.56,334.16,218.52,334.16,218.52Z"/><path class="cls-48" d="M306.17,222.71s11.76-1.81,5.11-10.89-23.13-10.52-25.52-11S269.9,193.23,267.28,185s-.26,31.11,21.9,43.53S306.17,222.71,306.17,222.71Z"/><path class="cls-49" d="M323.58,143.8s-12.38-12.32-23.61-1-18.15,37.34-18.15,37.34,12.52-15.47,20.69-13.19,26.44-3.76,22.37-19.07C320.12,144.57,323.58,143.8,323.58,143.8Z"/><path class="cls-50" d="M368.14,141.49s-12.33,10.48,5.14,26.14-3.52,27.65,5.62,23.1,30.32-31.57,10.14-50.88C374.35,128.33,368.14,141.49,368.14,141.49Z"/><path class="cls-51" d="M332.77,302s11.87,20.3-8.69,31.2-75.22,26.39-75.22,26.39-94.11,20.94-103.64,21.54-46.72,3.33-46.72,3.33,11.29,1.48,11.58,5.69,114.44-17.63,117.85-19.12,91.53-27,101.74-35.52c6.23-5.2,9.39-9.6,10.24-15.4.69-4.69.23-10.06-4.07-19.37C326.77,288.52,332.77,302,332.77,302Z"/><path class="cls-52" d="M372.16,336s-3.69-17.12-41-2.2c-5,.54,5.23-7.72,5.23-7.72s31.48-6.34,36.12,3.1C379.1,342.61,372.16,336,372.16,336Z"/><path class="cls-53" d="M211.87,374.52s18.58,5.57,21.36,16-2,19.71-2,19.71,8.06-14.07,5.58-20.29-18.12-16.8-18.12-16.8Z"/><path class="cls-54" d="M261.87,360.54s37-5.26,42.25,8.55c-2.7-15.16-32.18-12.44-32.18-12.44Z"/><path class="cls-55" d="M267.94,354.91a45.12,45.12,0,0,0-.7-31.38c-4,5.85,5.38,20.5-6.21,32.5C252.23,360.48,267.94,354.91,267.94,354.91Z"/><path class="cls-56" d="M235.91,395.29s8.15-8.42,11,2.47-17.7,32.19-13.79,43.85S219,429.24,217.18,408.73s12.95-25,15.91-23.86S237.77,390.26,235.91,395.29Z"/><path class="cls-57" d="M292.74,361s-13.11,1.18-10.79,11.68,17.53,23.64,59.21,17.83c0,0-17-2.45-22-17.72s-19.13-28.89-28.12-18.61C288.08,358,292.74,361,292.74,361Z"/><path class="cls-58" d="M269.13,344.5s10,6.9,11.2-4.18-10-23.56-11.44-25.57-6.59-16.43-2.91-24.12-21.36,21.91-13.38,46.15S269.13,344.5,269.13,344.5Z"/><path class="cls-59" d="M335.73,300.59s-.8-17.37-16.83-17.13S280,297.33,280,297.33s19.81-2.27,24.32,5,22.17,15.74,29.57,2C332.64,298.73,335.73,300.59,335.73,300.59Z"/><path class="cls-60" d="M370.35,330s-16.28-1.14-14,22.13S335,369.29,344.83,372.41s44-1.3,42.13-29.06C383.91,325,370.35,330,370.35,330Z"/><path class="cls-61" d="M192.47,280.67s17.74,15.35,2,32.59-61.83,50.22-61.83,50.22-81.28,51.33-90,55.09S0,437.33,0,437.33s11.05-2.36,12.7,1.54,101.41-55,104.11-57.53,76.91-56.22,83.7-67.75c4.13-7,5.65-12.27,4.56-18.08-.89-4.69-3.07-9.64-10.14-17.07C182.44,269.82,192.47,280.67,192.47,280.67Z"/><path class="cls-62" d="M240.44,299.82s-9.05-15.06-39.13,11.6c-4.54,2.19,2.38-9.09,2.38-9.09s27.41-16.55,34.83-9.11C249.1,303.82,240.44,299.82,240.44,299.82Z"/><path class="cls-63" d="M102.91,390s19.22-.9,25.22,8.1,4.56,19.42,4.56,19.42,2.95-16.08-1.4-21.17-22.45-9.94-22.45-9.94Z"/><path class="cls-64" d="M145.18,360s33-17.36,42.35-5.95c-7.48-13.54-34.2-1.11-34.2-1.11Z"/><path class="cls-65" d="M149,352.63A45.93,45.93,0,0,0,138.12,323c-1.84,6.91,11.74,17.71,4.79,33C136.12,363.18,149,352.63,149,352.63Z"/><path class="cls-66" d="M132.2,401.75s4.89-10.73,11.11-1.33-6.07,36.54,1.4,46.33-17.28-7-25.67-26,4-28.06,7.12-28S132.3,396.34,132.2,401.75Z"/><path class="cls-67" d="M174.23,350.16s-11.89,5.5-6.29,14.71,24.13,16.64,61.26-2.8c0,0-16.69,3.33-26.37-9.52s-27.33-21.11-32.39-8.33C168.9,348.88,174.23,350.16,174.23,350.16Z"/><path class="cls-68" d="M146.74,342.33s11.57,3.24,9.12-7.72-17-19.08-19.05-20.51-11.54-13.43-10.6-22-12.86,28,2.53,48.38S146.74,342.33,146.74,342.33Z"/><path class="cls-69" d="M194.77,278.32s-6.41-16.26-21.34-10.69-31.87,26.18-31.87,26.18,17.8-8.77,24.41-3.32,25.89,7.57,28.35-7.94C191.27,277.58,194.77,278.32,194.77,278.32Z"/><path class="cls-70" d="M236.78,294.72s-15.62,4.35-5.87,25.72-14.45,23.51-4.18,23.19,40.74-15.92,30-41.72C247.84,285.41,236.78,294.72,236.78,294.72Z"/></g></g></svg>