<svg xmlns="http://www.w3.org/2000/svg" viewBox="0 0 2203.18 655.84"><defs><style>.cls-1{fill:#999;}.cls-2{fill:#666;}.cls-3{fill:gray;}.cls-4{fill:#b3b3b3;}.cls-5{fill:#9e5635;}.cls-6{fill:#733d2d;}</style></defs><title>wall</title><g id="Capa_2" data-name="Capa 2"><g id="muro_superior" data-name="muro superior"><g id="cemento"><path class="cls-1" d="M2158.13,522.05c10.08-79.38,31.51-167.59-7.56-241.93-51.82-35.93-110.46-51.78-170.73-64V100.05c0-9.11-11.35-66.52-11.35-66.52,0-9.11-41.41-18-50.52-18,0,0-11.85,1-28.86,6.68-37.17,12.39-104.92-14.86-119.58-6.68-22.18,12.35-27.85,35-27.85,35a39.71,39.71,0,0,1-32,28.89c-16.1,2.47-30.33,5.13-41.67,20.61-5.67,12.87,22.68,29.88,0,35-22.68,17.52,0,6.18-34,11.85-31.23,5.2-101.76,16.89-147.43,5.67-17-12.11-45.87-1-45.87-1-9.11,0-5.16,9.31-16.5,16.51s-11.34,35.54-11.34,35.54c-5.67,22.68-64.6,11.34-73.72,11.34,0,0-102.57-1-124.74,11.34s-51-11.34-68,0-34-17-39.69-28.35c-11.34-5.67.51-35-11.34-39.69s-105.14-6.69-124.75-5.67-54.63-11.34-85-11.34c-14.5,0-21.27,10.32-35.77,10.32-10.07,0-30.69-4.34-37.36,1.22l-13.59,6.62c-9.32,1.7-7.34,4.52-15.34,4.52h0c-1.33-.49-5.24,1.74-6.42,2.5-4.93,3.17.74,8.84-4.93,8.84-2.22,0,0,5.67-8.22,2-8.79,3.64-3.11,19.76-3.12,25.83a16.49,16.49,0,0,1-16.5,16.49s-79.89,6.68-96.9,1c-5-1.65-11.51-4.29-17-5.67C607.63,209.31,602,181,602,175.29c0-8-28.36-39.69-45.37-28.35s-45.36,0-45.36,0c-22.68,0-62.37-5.67-73.71-17s-34-34-51-45.36c-5.68-11.34-53.26-11.34-62.38-11.34l-67.54,4.06c-7.51-.68-27.48-2.77-32.09-8.75-6.28-8.15-2.43-6.65-13.77-18s-5.67-11.35-11.34-17c-8-8-34-17-39.7-22.68s-42.39-2.62-56.35-7L65.58,0C66.41,8.45,77.47,271.69,86,271.69c0,0,0-46.38,28.35-28.36s51.54-6.68,51.54-6.68a16.5,16.5,0,0,1,16.5,16.5v35a16.51,16.51,0,0,0,16.51,16.5l45.87,1H380.81s10.41.69,28.36,5.67c36.59,10.16,55.13,17.21,113.4-6.69,11.34-4.65,57.21,0,57.21,0,9.12,0,39.19-2,16.51,16.5s0,29.37,0,29.37a16.5,16.5,0,0,0,16.5,16.5H761.23a16.5,16.5,0,0,0,16.5-16.5s-17-36.56,0-29.37,7.39-16.5,16.51-16.5c0,0,17.52-18,34.53,0s79.89,0,79.89,0a16.5,16.5,0,0,1,16.5,16.5v35a16.51,16.51,0,0,0,16.51,16.5H1419a16.51,16.51,0,0,0,16.51-16.5v-35a16.5,16.5,0,0,1,16.5-16.5h120.09a16.46,16.46,0,0,1,13.63,7.23l-6,11.47-66.42,3.11c.37,22.94-16.33,45,1.11,68.83s-18.2,8.14-27.3,12.21c4,19.47,3.3,16,7.31,35.52l122.48,1.81,65.13,1c10,13.78,11.88,41.33,30.08,41.33s16.58,22.77,24.87,34.16c22.94-1.85,59.26-22.3,68.82-5.55s9.94,57.65,21.09,62.72,11.15,11.07,22.49-.44,28.35-11.51,34.68-.67c66.69,42.67,111.57,46.22,141,40.52,13.9-2.7,36.58-9.84,69.93-7.78,21.52,1.33,21.86,4.91,56.06,8.89l8.31,1C2155.58,587.53,2154.41,554.94,2158.13,522.05Z"/><path class="cls-1" d="M1991.8,50.23C1991,49.66,1966.58,30,1966.58,30L1955,51.66l29,3,7.84-4.43"/><polyline class="cls-1" points="749.78 204.4 760.18 180.76 777.96 184.66 763.96 211.66 751.96 207.66 749.78 204.4"/><polyline class="cls-2" points="761.27 198.94 771.23 175.73 775.96 173.66 764.96 202.66 759.96 203.66"/><path class="cls-3" d="M543.5,167.77,557,146.66s6.38-5,17.19,0,21.41,14.71,27.11,25.85c.5,1,.41,1.16.41,1.16l-28.71,12-21-8"/><path class="cls-3" d="M765.29,191.61l9.84-23a6.64,6.64,0,0,1,3.44-3.08c2.39-.86,2.61-1.35,4-1.61a20.13,20.13,0,0,1,3.66-.12L778,190.66l-5-3-7.67,4"/><path class="cls-3" d="M764,177.66l-11,24-4.15,6.4,11-26.46a2.83,2.83,0,0,1,1.91-2.93C764,177.66,763,177.66,764,177.66Z"/><path class="cls-3" d="M1496.39,174.71,1487,152.66s-15-13-46-1"/><polygon class="cls-3" points="1449.96 173.66 1440.96 151.66 1496.39 174.71 1449.96 173.66"/><path class="cls-3" d="M1684,120.66l-16-21s-4,7.27,8,24.13,21,27.87,21,27.87l-13-31"/><path class="cls-3" d="M1668,134.66s12.76-.51,7.38-11.76S1696,147.66,1696,147.66l-3,11-9-2Z"/><polygon class="cls-3" points="632.96 254.66 646.96 220.66 621.96 252.66 632.96 254.66"/><path class="cls-3" d="M1107,197.66v30l-52-43,41.63-2.52,1.25-22.12s4.12,1.64,3.12,19.14S1107,197.66,1107,197.66Z"/><path class="cls-2" d="M1104,238.66c1-1,3-41,3-41s15.58,30.45,29.79,31.22.71.05.71.05l.5,31.73"/><path class="cls-3" d="M201,35.35,166,61.66l-47-22,21-5.43,51-6.57s5,2.42,6.5,4.21A33.61,33.61,0,0,0,201,35.35Z"/><polygon class="cls-3" points="364.96 108.66 386.96 84.66 359.96 109.66 364.96 108.66"/><path class="cls-3" d="M219,106.66l38-29S229,74.05,226.5,70.35,191,99.66,191,99.66"/><path class="cls-3" d="M733,247.66l13.88-28.23S757,216.66,758,215.66s-14,37-14,37Z"/><polygon class="cls-3" points="578.96 204.66 583.96 200.66 601.96 173.66 558.96 185.66 578.96 204.66"/><polygon class="cls-2" points="1654.94 145.46 1681.96 183.66 1692.96 165.66 1683.96 156.66 1667.96 134.66 1654.94 145.46"/><path class="cls-2" d="M1441,151.66l13,30-6-2L1437.7,152S1440,150.66,1441,151.66Z"/><path class="cls-3" d="M1393,244.66,1390.68,217c20.73-2.62,22.28-13.38,22.28-13.38l9,27,2,1-7,10"/><polygon class="cls-3" points="1105.96 230.66 1106.96 197.66 1103.96 229.66 1105.96 230.66"/><path class="cls-3" d="M1154.33,223.39l.63,32.27-17.44,1.06-.31-27.81s4.75-.25,7.75-2.25S1151.71,223.13,1154.33,223.39Z"/><path class="cls-2" d="M196,94.66l31-24S217.85,57.5,216.4,56.58,180,86.66,180,86.66"/><path class="cls-3" d="M182.59,84.78,217,57.12s-11.79-11.62-11.91-13S174,71.66,174,71.66"/><path class="cls-2" d="M178,68.66l27.53-24a34.28,34.28,0,0,1-2.58-4.74C202,37.66,172,64.66,172,64.66"/><path class="cls-2" d="M172,57.15l28.86-21.92a6.68,6.68,0,0,1,2.05,4.56c.09,2.87-30.49,24.61-30.49,24.61"/><path class="cls-3" d="M1855,52.66,1846,24.29C1768.12,7.91,1770,15.66,1770,15.66l28,31"/><polyline class="cls-3" points="1864.96 50.66 1845.96 24.66 1834.96 50.66 1864.96 48.66"/><path class="cls-4" d="M2187.76,555.1c10.37-81.65,32.4-172.37-7.78-248.83-53.3-37-113.61-53.26-175.6-65.79V121.06c0-9.37-11.67-68.41-11.67-68.41,0-9.37-42.59-18.54-52-18.54,0,0-12.19,1-29.69,6.88-38.23,12.74-107.91-15.29-123-6.88-22.81,12.71-28.64,36-28.64,36a40.88,40.88,0,0,1-33,29.72c-16.56,2.53-31.19,5.27-42.85,21.19-5.84,13.24,23.32,30.73,0,36-23.33,18,0,6.36-35,12.19-32.11,5.35-104.66,17.37-151.63,5.83-17.49-12.46-47.18-1.05-47.18-1.05-9.37,0-5.31,9.58-17,17s-11.66,36.56-11.66,36.56c-5.84,23.33-66.45,11.66-75.82,11.66,0,0-105.5-1-128.3,11.67s-52.49-11.67-70,0-35-17.5-40.82-29.16c-11.67-5.83.52-36-11.67-40.83s-108.13-6.88-128.3-5.83-56.19-11.66-87.48-11.66c-14.92,0-21.87,10.61-36.79,10.61-10.36,0-31.56-4.46-38.42,1.25l-14,6.81c-9.59,1.76-7.55,4.66-15.79,4.66h0c-1.36-.51-5.38,1.78-6.6,2.57-5.06,3.26.77,9.09-5.06,9.09-2.29,0,0,5.83-8.46,2.08-9,3.75-3.2,20.33-3.2,26.57a17,17,0,0,1-17,17s-82.17,6.88-99.66,1.05c-5.12-1.71-11.84-4.42-17.5-5.84-23.33-5.83-29.16-35-29.16-40.82,0-8.25-29.16-40.82-46.66-29.16s-46.65,0-46.65,0c-23.33,0-64.15-5.83-75.82-17.5s-35-35-52.49-46.65c-5.83-11.67-54.77-11.67-64.15-11.67L232,97.66c-7.72-.71-28.26-2.86-33-9-6.46-8.39-2.5-6.85-14.17-18.51S179,58.48,173.13,52.65c-8.25-8.25-35-17.5-40.83-23.33s-43.6-2.7-58-7.21L35.53,18.16c.85,8.69,12.23,279.43,21,279.43,0,0,0-47.7,29.16-29.16s53-6.88,53-6.88a17,17,0,0,1,17,17v36a17,17,0,0,0,17,17l47.17,1h140s10.71.7,29.16,5.83c37.64,10.45,56.71,17.7,116.64-6.88,11.67-4.79,58.84,0,58.84,0,9.38,0,40.31-2.09,17,17s0,30.21,0,30.21a17,17,0,0,0,17,17H751a17,17,0,0,0,17-17s-17.49-37.61,0-30.21,7.6-17,17-17c0,0,18-18.54,35.51,0s82.17,0,82.17,0a17,17,0,0,1,17,17v36a17,17,0,0,0,17,17h490.93a17,17,0,0,0,17-17v-36a17,17,0,0,1,17-17H1585a16.92,16.92,0,0,1,14,7.43l-6.12,11.8-68.32,3.2c.38,23.6-16.79,46.32,1.14,70.79s-18.71,8.37-28.07,12.56c4.12,20,3.4,16.5,7.52,36.53l126,1.87,67,1c10.31,14.16,12.22,42.5,30.93,42.5s17.06,23.42,25.58,35.14c23.6-1.91,61-22.94,70.79-5.71s10.23,59.3,21.69,64.5,11.47,11.39,23.13-.44,29.16-11.84,35.67-.7c68.59,43.9,114.75,47.54,145,41.68,14.3-2.78,37.62-10.12,71.93-8,22.13,1.37,22.48,5.05,57.66,9.14l8.54,1C2185.14,622.45,2183.93,588.93,2187.76,555.1Z"/></g><g id="ladrillos"><path class="cls-4" d="M931,188.45,933,243.06l151-5.34L1082,183.11S931.08,190.23,931,188.45Z"/><path class="cls-4" d="M506.11,260.83l-1.42,48.67,138.7,4.05,1.42-48.67S506.07,262.41,506.11,260.83Z"/><path class="cls-4" d="M664.43,263.17v48.68H803.18V263.17S664.43,264.75,664.43,263.17Z"/><path class="cls-4" d="M428.32,185.89l-2.79,48.61,138.53,7.94,2.79-48.6S428.22,187.47,428.32,185.89Z"/><path class="cls-4" d="M1098.33,329.83l2.6,48.62,141.18-7.56-2.61-48.62S1098.41,331.42,1098.33,329.83Z"/><path class="cls-4" d="M1263.7,335.21l2,48.65,141.26-5.76-2-48.65S1263.76,336.8,1263.7,335.21Z"/><path class="cls-4" d="M1173.76,260.19l-.61,48.68,23.58-2.85,12-.86-2.1,8,117-5.95.56-45.14S1173.74,261.77,1173.76,260.19Z"/><path class="cls-4" d="M1823.67,408.85l1,48.67,156.88-3.23-1-48.68S1823.7,410.43,1823.67,408.85Z"/><path class="cls-4" d="M1804.41,186v48.69h156.92V186S1804.41,187.63,1804.41,186Z"/><path class="cls-4" d="M1887.91,129.21l1.34,48.67,156.86-4.33-1.35-48.67S1888,130.8,1887.91,129.21Z"/><path class="cls-4" d="M1783.78,54.31l-.15,48.69,156.91.48.15-48.69S1783.77,55.89,1783.78,54.31Z"/><path class="cls-4" d="M1731.92,260.53v48.69h156.92V260.53S1731.92,262.12,1731.92,260.53Z"/><path class="cls-4" d="M1708.62,130.92v48.69h156.92V130.92S1708.62,132.51,1708.62,130.92Z"/><path class="cls-4" d="M1628.37,186v48.69h156.91V186S1628.37,187.63,1628.37,186Z"/><path class="cls-4" d="M1712.5,333.84l-2.61,48.62,156.69,8.41,2.61-48.62S1712.42,335.42,1712.5,333.84Z"/><path class="cls-4" d="M1911.85,254.36V303h156.91V254.36S1911.85,255.94,1911.85,254.36Z"/><path class="cls-4" d="M602,330.85v48.69H740.8V330.85S602,332.44,602,330.85Z"/><path class="cls-4" d="M823.22,257.64l-2.41,48.63,141.2,7,2.42-48.63S823.14,259.23,823.22,257.64Z"/><path class="cls-4" d="M942.31,332.31V381h141.38V332.31S942.31,333.9,942.31,332.31Z"/><path class="cls-4" d="M982.44,261.12v48.69h159.5V261.12S982.44,262.7,982.44,261.12Z"/><path class="cls-4" d="M1355.52,259.82v48.69h167V259.82S1355.52,261.41,1355.52,259.82Z"/><path class="cls-4" d="M1656,407.39v48.69h141.38V407.39S1656,409,1656,407.39Z"/><path class="cls-4" d="M1448,188.74l.87,48.68,156.88-2.8-.86-48.68S1448.05,190.32,1448,188.74Z"/><path class="cls-4" d="M319.23,264.29V313H476.14V264.29l-73.73,1.14v5.84s-10.45,6.37-17.5,5.83c-1.8-.14,2.08-7,0-7.18C360.51,268,319.23,264.76,319.23,264.29Z"/><path class="cls-4" d="M72.28,182l-1.23,48.67,156.86,4L229.14,186S72.24,183.6,72.28,182Z"/><path class="cls-4" d="M198.78,112.22v48.69H355.69V112.22S198.78,113.8,198.78,112.22Z"/><path class="cls-4" d="M130.19,266v48.69H287.1V266S130.19,267.55,130.19,266Z"/><path class="cls-4" d="M14.43,111.65l.68,48.68,156.9-2.2-.69-48.68S14.45,113.23,14.43,111.65Z"/><path class="cls-4" d="M253.51,188.91l1,48.68,156.88-3.14-1-48.68S253.55,190.49,253.51,188.91Z"/><path class="cls-4" d="M0,43.82V92.5l81.46.76L98.59,78.81,86.93,90.47l70,2V61.31l-17.49-5.83s8.21-11.57-5.84-11.45C89.87,44.4,0,45,0,43.82Z"/><path class="cls-4" d="M1550.7,256v48.69h156.91V256S1550.7,257.61,1550.7,256Z"/><path class="cls-4" d="M1550,337.75v48.69H1692V337.75S1550,339.34,1550,337.75Z"/><path class="cls-4" d="M817.15,185.08c-4.23,2.1-10.89.7-14.59,4.17a12.67,12.67,0,0,1-2,1.87,6.19,6.19,0,0,1-2.11.66l-18.74,3.56a31,31,0,0,1-3.32,5.28c-.56.72-1.36,1.49-2.24,1.29-.64-.14-1.1-.75-1.75-.81-.9-.08-1.49.9-1.85,1.74a115.71,115.71,0,0,1-5.49,11V239H916.17V184.3S860.85,185,817.15,185.08Z"/><path class="cls-4" d="M1857,183.66s-1,8,7,10,11-6,14-2,6,7,11,7,12-13,12-13l-17-7Z"/><path class="cls-4" d="M1193,311.66s-2-7,8-6,13-5,18-1,8,3,14,5,12-5,16-4,13,9,14,6,10,0,17,1,10,10,10,10l-47-4Z"/><path class="cls-4" d="M1561.2,240s15.48,6,14.31,16-9.66,1-7.55,11.68-6,21-8,14c-2.29-8-6.25-12.3-11.48-6.37s1,16,1,16l-14.18,4.08,1.1-31.85Z"/><path class="cls-5" d="M931,188.45,933,243.06l151-5.34L1082,183.11S931.08,190.23,931,188.45Z"/><path class="cls-5" d="M506.11,260.83l-1.42,48.67,138.7,4.05,1.42-48.67S506.07,262.41,506.11,260.83Z"/><path class="cls-5" d="M664.43,263.17v48.68H803.18V263.17S664.43,264.75,664.43,263.17Z"/><path class="cls-5" d="M428.32,185.89l-2.79,48.61,138.53,7.94,2.79-48.6S428.22,187.47,428.32,185.89Z"/><path class="cls-5" d="M1098.33,329.83l2.6,48.62,141.18-7.56-2.61-48.62S1098.41,331.42,1098.33,329.83Z"/><path class="cls-5" d="M1263.7,335.21l2,48.65,141.26-5.76-2-48.65S1263.76,336.8,1263.7,335.21Z"/><path class="cls-5" d="M1173.76,260.19l-.61,48.68,23.58-2.85,12-.86-2.1,8,117-5.95.56-45.14S1173.74,261.77,1173.76,260.19Z"/><path class="cls-5" d="M1823.67,408.85l1,48.67,156.88-3.23-1-48.68S1823.7,410.43,1823.67,408.85Z"/><path class="cls-5" d="M1804.41,186v48.69h156.92V186S1804.41,187.63,1804.41,186Z"/><path class="cls-5" d="M1887.91,129.21l1.34,48.67,156.86-4.33-1.35-48.67S1888,130.8,1887.91,129.21Z"/><path class="cls-6" d="M1783.78,54.31l-.15,48.69,156.91.48.15-48.69S1783.77,55.89,1783.78,54.31Z"/><path class="cls-6" d="M1731.92,260.53v48.69h156.92V260.53S1731.92,262.12,1731.92,260.53Z"/><path class="cls-5" d="M1708.62,130.92v48.69h156.92V130.92S1708.62,132.51,1708.62,130.92Z"/><path class="cls-5" d="M1628.37,186v48.69h156.91V186S1628.37,187.63,1628.37,186Z"/><path class="cls-5" d="M1712.5,333.84l-2.61,48.62,156.69,8.41,2.61-48.62S1712.42,335.42,1712.5,333.84Z"/><path class="cls-5" d="M1911.85,254.36V303h156.91V254.36S1911.85,255.94,1911.85,254.36Z"/><path class="cls-5" d="M602,330.85v48.69H740.8V330.85S602,332.44,602,330.85Z"/><path class="cls-6" d="M823.22,257.64l-2.41,48.63,141.2,7,2.42-48.63S823.14,259.23,823.22,257.64Z"/><path class="cls-5" d="M942.31,332.31V381h141.38V332.31S942.31,333.9,942.31,332.31Z"/><path class="cls-5" d="M982.44,261.12v48.69h159.5V261.12S982.44,262.7,982.44,261.12Z"/><path class="cls-5" d="M1355.52,259.82v48.69h167V259.82S1355.52,261.41,1355.52,259.82Z"/><path class="cls-5" d="M1656,407.39v48.69h141.38V407.39S1656,409,1656,407.39Z"/><path class="cls-5" d="M1448,188.74l.87,48.68,156.88-2.8-.86-48.68S1448.05,190.32,1448,188.74Z"/><path class="cls-5" d="M319.23,264.29V313H476.14V264.29l-73.73,1.14v5.84s-10.45,6.37-17.5,5.83c-1.8-.14,2.08-7,0-7.18C360.51,268,319.23,264.76,319.23,264.29Z"/><path class="cls-6" d="M72.28,182l-1.23,48.67,156.86,4L229.14,186S72.24,183.6,72.28,182Z"/><path class="cls-5" d="M198.78,112.22v48.69H355.69V112.22S198.78,113.8,198.78,112.22Z"/><path class="cls-5" d="M130.19,266v48.69H287.1V266S130.19,267.55,130.19,266Z"/><path class="cls-5" d="M14.43,111.65l.68,48.68,156.9-2.2-.69-48.68S14.45,113.23,14.43,111.65Z"/><path class="cls-5" d="M253.51,188.91l1,48.68,156.88-3.14-1-48.68S253.55,190.49,253.51,188.91Z"/><path class="cls-5" d="M0,43.82V92.5l81.46.76L98.59,78.81,86.93,90.47l70,2V61.31l-17.49-5.83s8.21-11.57-5.84-11.45C89.87,44.4,0,45,0,43.82Z"/><path class="cls-5" d="M1550.7,256v48.69h156.91V256S1550.7,257.61,1550.7,256Z"/><path class="cls-5" d="M1550,337.75v48.69H1692V337.75S1550,339.34,1550,337.75Z"/><path class="cls-5" d="M817.15,185.08c-4.23,2.1-10.89.7-14.59,4.17a12.67,12.67,0,0,1-2,1.87,6.19,6.19,0,0,1-2.11.66l-18.74,3.56a31,31,0,0,1-3.32,5.28c-.56.72-1.36,1.49-2.24,1.29-.64-.14-1.1-.75-1.75-.81-.9-.08-1.49.9-1.85,1.74a115.71,115.71,0,0,1-5.49,11V239H916.17V184.3S860.85,185,817.15,185.08Z"/><path class="cls-4" d="M1857,183.66s-1,8,7,10,11-6,14-2,6,7,11,7,12-13,12-13l-17-7Z"/><path class="cls-4" d="M1193,311.66s-2-7,8-6,13-5,18-1,8,3,14,5,12-5,16-4,13,9,14,6,10,0,17,1,10,10,10,10l-47-4Z"/><path class="cls-4" d="M1561.2,240s15.48,6,14.31,16-9.66,1-7.55,11.68-6,21-8,14c-2.29-8-6.25-12.3-11.48-6.37s1,16,1,16l-14.18,4.08,1.1-31.85Z"/></g></g></g></svg>