<svg xmlns="http://www.w3.org/2000/svg" viewBox="0 0 1920 443.72"><defs><style>.cls-1{fill:#b0b0b0;}.cls-2{fill:#979797;}.cls-3{fill:#666;}.cls-4{fill:#7f7f7f;}.cls-5{fill:#8c573a;}.cls-6{fill:#673f31;}</style></defs><title>wall</title><g id="Capa_2" data-name="Capa 2"><g id="teaser"><path id="pared" class="cls-1" d="M1720.58,375.24c6.84-53.88,21.38-113.76-5.13-164.22-35.18-24.4-75-35.15-115.9-43.42V88.78c0-6.18-7.7-45.15-7.7-45.15,0-6.19-28.11-12.24-34.3-12.24A94.15,94.15,0,0,0,1538,35.93c-25.23,8.41-71.23-10.09-81.18-4.54a41.29,41.29,0,0,0-18.9,23.79,27,27,0,0,1-21.75,19.61c-10.93,1.68-20.59,3.48-28.29,14-3.85,8.74,15.4,20.28,0,23.79-15.39,11.89,0,4.19-23.09,8-21.2,3.53-69.08,11.46-100.08,3.85-11.55-8.22-31.14-.69-31.14-.69-6.18,0-3.5,6.32-11.2,11.2s-7.7,24.13-7.7,24.13c-3.85,15.4-43.85,7.7-50,7.7,0,0-69.62-.69-84.68,7.7s-34.64-7.7-46.19,0-23.09-11.55-26.94-19.25c-7.7-3.85.35-23.78-7.7-26.94s-71.37-4.54-84.68-3.85-37.09-7.7-57.73-7.7c-9.85,0-14.44,7-24.29,7-6.83,0-20.83-3-25.36.82l-9.22,4.5c-6.33,1.15-5,3.07-10.42,3.07h0c-.9-.34-3.55,1.18-4.36,1.7-3.34,2.15.51,6-3.34,6-1.51,0,0,3.85-5.58,1.37-6,2.48-2.11,13.42-2.12,17.54A11.19,11.19,0,0,1,760.78,170s-54.23,4.54-65.78.69c-3.37-1.12-7.81-2.92-11.55-3.85-15.39-3.85-19.24-23.09-19.24-26.94,0-5.45-19.25-27-30.79-19.25s-30.8,0-30.8,0c-15.39,0-42.34-3.85-50-11.55S529.49,86,517.94,78.27c-3.85-7.7-36.15-7.7-42.34-7.7l-45.85,2.76c-5.1-.46-18.65-1.88-21.78-5.94-4.26-5.53-1.65-4.52-9.35-12.21s-3.85-7.7-7.7-11.55c-5.44-5.44-23.09-11.55-26.94-15.4s-28.78-1.78-38.25-4.75L300.1,20.86c.57,5.74,8.08,184.43,13.84,184.43,0,0,0-31.48,19.24-19.24s35-4.54,35-4.54a11.19,11.19,0,0,1,11.2,11.2v23.78a11.21,11.21,0,0,0,11.21,11.21l31.13.69h92.38s7.07.46,19.25,3.85c24.84,6.89,37.43,11.68,77-4.54,7.7-3.16,38.84,0,38.84,0,6.18,0,26.6-1.39,11.2,11.2s0,19.93,0,19.93A11.21,11.21,0,0,0,671.56,270H772.33a11.2,11.2,0,0,0,11.2-11.21S772,234,783.53,238.9s5-11.2,11.2-11.2c0,0,11.9-12.24,23.44,0s54.24,0,54.24,0a11.2,11.2,0,0,1,11.2,11.2v23.78a11.19,11.19,0,0,0,11.2,11.2h324a11.2,11.2,0,0,0,11.2-11.2V238.9a11.2,11.2,0,0,1,11.2-11.2h81.52a11.21,11.21,0,0,1,9.26,4.9l-4,7.79-45.09,2.11c.26,15.57-11.08,30.57.76,46.72s-12.35,5.53-18.53,8.29l5,24.11,83.14,1.23,44.21.66c6.81,9.35,8.07,28.05,20.42,28.05s11.26,15.46,16.88,23.19c15.58-1.26,40.24-15.14,46.72-3.77s6.75,39.14,14.32,42.58,7.57,7.51,15.27-.3,19.24-7.81,23.54-.46c45.27,29,75.74,31.38,95.7,27.51,9.44-1.83,24.83-6.68,47.47-5.28,14.61.9,14.84,3.33,38.06,6l5.64.65C1718.85,419.7,1718.05,397.57,1720.58,375.24Z"/><path id="paredback" class="cls-2" d="M1703.67,355.41c6.65-52.39,20.79-110.6-5-159.67-34.21-23.72-72.91-34.18-112.69-42.22V76.89c0-6-7.49-43.9-7.49-43.9,0-6-27.33-11.9-33.34-11.9a92.11,92.11,0,0,0-19.05,4.42c-24.53,8.18-69.25-9.81-78.93-4.42a40.14,40.14,0,0,0-18.37,23.13,26.24,26.24,0,0,1-21.15,19.07c-10.63,1.63-20,3.38-27.5,13.6-3.75,8.5,15,19.72,0,23.13-15,11.56,0,4.08-22.46,7.82-20.61,3.44-67.16,11.15-97.3,3.74-11.23-8-30.27-.67-30.27-.67-6,0-3.41,6.14-10.9,10.89s-7.48,23.46-7.48,23.46c-3.74,15-42.64,7.49-48.65,7.49,0,0-67.7-.67-82.33,7.48s-33.69-7.48-44.91,0-22.46-11.22-26.2-18.71c-7.48-3.74.34-23.12-7.48-26.19s-69.4-4.42-82.34-3.75-36.06-7.48-56.13-7.48c-9.57,0-14,6.81-23.61,6.81-6.65,0-20.26-2.86-24.66.8l-9,4.37c-6.15,1.13-4.84,3-10.13,3h0c-.87-.33-3.45,1.14-4.23,1.65-3.25,2.09.49,5.83-3.25,5.83-1.47,0,0,3.74-5.43,1.34-5.8,2.4-2,13-2.06,17a10.89,10.89,0,0,1-10.89,10.88s-52.73,4.41-64,.67c-3.28-1.09-7.6-2.83-11.23-3.74-15-3.74-18.71-22.46-18.71-26.2,0-5.29-18.71-26.19-29.94-18.71s-29.94,0-29.94,0c-15,0-41.17-3.74-48.65-11.23S545.6,74.16,534.38,66.67c-3.75-7.48-35.15-7.48-41.17-7.48l-44.58,2.68c-5-.45-18.14-1.83-21.17-5.77-4.15-5.38-1.61-4.4-9.1-11.88s-3.74-7.48-7.48-11.23c-5.29-5.29-22.46-11.22-26.2-15s-28-1.73-37.19-4.62l-24.91-2.54c.55,5.58,7.85,179.31,13.45,179.31,0,0,0-30.61,18.71-18.71s34-4.41,34-4.41a10.89,10.89,0,0,1,10.89,10.89v23.12A10.9,10.9,0,0,0,410.54,212l30.28.67h89.81s6.87.45,18.72,3.74c24.15,6.71,36.39,11.36,74.84-4.41,7.49-3.08,37.76,0,37.76,0,6,0,25.87-1.35,10.9,10.89s0,19.38,0,19.38a10.89,10.89,0,0,0,10.89,10.89h98a10.88,10.88,0,0,0,10.89-10.89s-11.23-24.13,0-19.38S797.48,212,803.49,212c0,0,11.57-11.9,22.79,0S879,212,879,212a10.88,10.88,0,0,1,10.89,10.89V246a10.89,10.89,0,0,0,10.9,10.89h315A10.89,10.89,0,0,0,1226.72,246V222.85A10.89,10.89,0,0,1,1237.61,212h79.26a10.87,10.87,0,0,1,9,4.77c-1.75,3.36-2.19,4.21-3.93,7.57l-43.84,2c.24,15.14-10.78,29.72.73,45.42s-12,5.38-18,8.06c2.64,12.86,2.18,10.59,4.82,23.45l80.84,1.19,43,.64c6.62,9.09,7.85,27.27,19.85,27.27s11,15,16.42,22.55c15.14-1.22,39.11-14.72,45.42-3.66s6.56,38.05,13.92,41.39,7.36,7.31,14.84-.29,18.72-7.59,22.89-.44c44,28.16,73.64,30.51,93,26.74,9.17-1.78,24.14-6.49,46.16-5.13,14.2.88,14.42,3.24,37,5.86l5.48.64C1702,398.63,1701.21,377.12,1703.67,355.41Z"/><path class="cls-2" d="M1593.89,44c-.56-.38-16.65-13.32-16.65-13.32L1569.57,45l19.14,2,5.18-2.92"/><polyline class="cls-2" points="774.15 145.76 781.02 130.16 792.75 132.73 783.51 150.55 775.59 147.91 774.15 145.76"/><polyline class="cls-3" points="781.74 142.16 788.31 126.84 791.43 125.47 784.17 144.61 780.87 145.27"/><polyline class="cls-2" points="303.03 23.17 322.83 10.63 325.47 29.11 307.65 29.11 303.03 23.17"/><polygon class="cls-4" points="349.23 36.37 385.53 18.55 405.29 29.07 349.23 36.37"/><path class="cls-4" d="M638,121.59l8.88-13.94s4.21-3.3,11.34,0a39.67,39.67,0,0,1,17.9,17.07c.33.65.27.76.27.76l-18.95,7.91-13.86-5.28"/><path class="cls-4" d="M784.39,137.33l6.49-15.19a4.4,4.4,0,0,1,2.27-2,20.23,20.23,0,0,1,2.64-1.07,12.89,12.89,0,0,1,2.42-.08l-5.46,17.73-3.3-2-5.06,2.62"/><path class="cls-4" d="M783.51,128.11,776.25,144l-2.74,4.23,7.26-17.47a1.86,1.86,0,0,1,1.26-1.93C783.51,128.11,782.85,128.11,783.51,128.11Z"/><path class="cls-4" d="M1266.91,126.17l-6.22-14.56s-9.9-8.58-30.36-.66"/><polygon class="cls-4" points="1236.27 125.47 1230.33 110.95 1266.91 126.17 1236.27 125.47"/><path class="cls-4" d="M1390.71,90.49l-10.56-13.86s-2.64,4.8,5.28,15.93S1399.29,111,1399.29,111l-8.58-20.46"/><path class="cls-4" d="M1380.15,99.73s8.42-.33,4.87-7.75,13.61,16.33,13.61,16.33l-2,7.26-5.94-1.32Z"/><polygon class="cls-4" points="697.05 178.93 706.29 156.49 689.79 177.61 697.05 178.93"/><path class="cls-4" d="M1009.89,141.31v19.8l-34.32-28.38,27.48-1.66.82-14.6s2.72,1.08,2.06,12.63S1009.89,141.31,1009.89,141.31Z"/><path class="cls-3" d="M1007.91,168.37c.66-.66,2-27.06,2-27.06s10.28,20.1,19.66,20.61.47,0,.47,0l.33,20.93"/><path class="cls-4" d="M411.93,34.19l-23.1,17.36L357.81,37l13.83-3.58,33.69-4.34s3.31,1.6,4.29,2.78A22.55,22.55,0,0,0,411.93,34.19Z"/><polygon class="cls-4" points="520.17 82.57 534.69 66.73 516.87 83.23 520.17 82.57"/><path class="cls-4" d="M423.81,81.25l25.08-19.14s-18.43-2.38-20.1-4.82-23.46,19.34-23.46,19.34"/><path class="cls-4" d="M763.05,174.31l9.16-18.63s6.68-1.83,7.34-2.49-9.24,24.42-9.24,24.42Z"/><polygon class="cls-4" points="661.41 145.93 664.71 143.29 676.59 125.47 648.21 133.39 661.41 145.93"/><polygon class="cls-3" points="1371.56 106.86 1389.39 132.07 1396.65 120.19 1390.71 114.25 1380.15 99.73 1371.56 106.86"/><path class="cls-3" d="M1230.33,111l8.58,19.8-4-1.32-6.77-18.22S1229.67,110.29,1230.33,111Z"/><path class="cls-4" d="M1198.65,172.33l-1.5-18.22c13.68-1.73,14.7-8.84,14.7-8.84l5.94,17.82,1.32.66-4.62,6.6"/><polygon class="cls-4" points="1009.23 163.09 1009.89 141.31 1007.91 162.43 1009.23 163.09"/><path class="cls-4" d="M1041.16,158.3l.41,21.29-11.51.71-.21-18.36a12.08,12.08,0,0,0,5.12-1.49C1037,159.13,1039.42,158.13,1041.16,158.3Z"/><path class="cls-3" d="M408.63,73.33l20.46-15.84s-6-8.68-7-9.29-24.05,19.85-24.05,19.85"/><path class="cls-4" d="M399.8,66.82l22.71-18.26s-7.79-7.67-7.86-8.61-20.54,18.2-20.54,18.2"/><path class="cls-3" d="M396.75,56.17l18.17-15.84a23.35,23.35,0,0,1-1.7-3.12c-.63-1.5-20.43,16.32-20.43,16.32"/><path class="cls-3" d="M392.79,48.58l19-14.47a4.4,4.4,0,0,1,1.35,3c.06,1.89-20.12,16.25-20.12,16.25"/><path class="cls-4" d="M1503.57,45.61l-5.89-18.72c-51.42-10.81-50.21-5.7-50.21-5.7L1466,41.65"/><polyline class="cls-4" points="1510.17 44.29 1497.63 27.13 1490.37 44.29 1510.17 42.97"/><path class="cls-1" d="M316.58,207.27c.66-8.94,2.6-19.52,8.72-21.64,3.13-1.09,5.48-.81,10.52,2.4,19.25,12.23,35-4.54,35-4.54a11.19,11.19,0,0,1,11.2,11.2v23.78a11.21,11.21,0,0,0,11.21,11.21l31.13.69h92.38s7.07.46,19.25,3.85c24.84,6.89,37.43,11.68,77-4.54,7.7-3.16,38.84,0,38.84,0,6.18,0,26.6-1.39,11.2,11.2s0,19.93,0,19.93A11.21,11.21,0,0,0,674.2,272H775a11.2,11.2,0,0,0,11.2-11.21s-11.55-24.82,0-19.93,5-11.2,11.2-11.2c0,0,11.9-12.24,23.44,0s54.24,0,54.24,0a11.2,11.2,0,0,1,11.2,11.2v23.78a11.19,11.19,0,0,0,11.2,11.2h324a11.2,11.2,0,0,0,11.2-11.2V240.88a11.2,11.2,0,0,1,11.2-11.2h81.52a11.21,11.21,0,0,1,9.26,4.9l-4.05,7.79-45.09,2.11c.26,15.57-11.08,30.57.76,46.72s-12.35,5.53-18.53,8.29l5,24.11,83.14,1.23,44.21.66c6.81,9.35,8.07,28.05,20.42,28.05s11.26,15.46,16.88,23.19c15.58-1.26,40.24-15.14,46.72-3.77s6.75,39.14,14.32,42.58,7.57,7.51,15.27-.3,19.24-7.81,23.54-.46c45.27,29,75.74,31.38,95.7,27.51,9.44-1.83,24.83-6.68,47.47-5.28,14.61.9,14.84,3.33,38.06,6l5.64.65C1721.6,422.64,1810,420,1810,420l110-4V85s-24-18-43-41-58-42-85-33-31,19-73,10-38,9-34,12-44,35-51,25-26-5-30-11-9.51-1.39-9.51-1.39c0-6.19-28.11-12.24-34.3-12.24a94.15,94.15,0,0,0-19.59,4.54c-25.23,8.41-71.23-10.09-81.18-4.54a41.29,41.29,0,0,0-18.9,23.79,27,27,0,0,1-21.75,19.61c-10.93,1.68-20.59,3.48-28.29,14-3.85,8.74,15.4,20.28,0,23.79-15.39,11.89,0,4.19-23.09,8-21.2,3.53-69.08,11.46-100.08,3.85-11.55-8.22-31.14-.69-31.14-.69-6.18,0-3.5,6.32-11.2,11.2s-7.7,24.13-7.7,24.13c-3.85,15.4-43.85,7.7-50,7.7,0,0-69.62-.69-84.68,7.7s-34.64-7.7-46.19,0-23.09-11.55-26.94-19.25c-7.7-3.85.35-23.78-7.7-26.94s-71.37-4.54-84.68-3.85-37.09-7.7-57.74-7.7c-9.84,0-14.43,7-24.28,7-6.83,0-20.83-3-25.36.82l-9.22,4.5c-6.33,1.15-5,3.07-10.42,3.07-.9-.34-3.55,1.18-4.36,1.7-3.34,2.15.51,6-3.34,6-1.51,0,0,3.85-5.58,1.37-6,2.48-2.11,13.42-2.12,17.54a11.19,11.19,0,0,1-11.2,11.19s-54.23,4.54-65.78.69c-3.37-1.12-7.81-2.92-11.55-3.85-15.39-3.85-19.24-23.09-19.24-26.94,0-5.45-19.25-26.95-30.79-19.25s-30.8,0-30.8,0c-15.39,0-42.34-3.85-50-11.55S532.13,88,520.58,80.25c-3.85-7.7-36.15-7.7-42.34-7.7l-45.85,2.76c-5.1-.46-18.65-1.88-21.78-5.94-4.26-5.53-1.65-4.52-9.35-12.21s-3.85-7.7-7.7-11.55c-5.44-5.44-23.09-11.55-26.94-15.4s-28.78-1.78-38.25-4.75l-25.63-2.62c0,.05,0,.1,0,.16H273s-54,4-54-4-32-8-32-8-48-7-63,0S0,0,0,0V141s38.13,26.7,53,27c17.72.36,37-17,68-20s34,28,34,28,30,11,44-10,54,12,54,12l61,29Zm1346.53-21.74c-10.6-3.72-21.41-6.84-32.37-9.58l33.11,6.86Z"/><path class="cls-5" d="M893.77,135.24l1.27,36,99.68-3.53-1.28-36S893.81,136.41,893.77,135.24Z"/><path class="cls-5" d="M613.33,183l-.94,32.12,91.55,2.67.93-32.12S613.3,184.05,613.33,183Z"/><path class="cls-5" d="M717.82,184.55v32.13H809.4V184.55S717.82,185.6,717.82,184.55Z"/><path class="cls-5" d="M562,133.55l-1.85,32.08,91.43,5.24,1.85-32.08S561.93,134.59,562,133.55Z"/><path class="cls-5" d="M1004.19,228.55l1.72,32.09,93.18-5-1.72-32.09S1004.25,229.6,1004.19,228.55Z"/><path class="cls-5" d="M1114,230.19v32.13h93.31V230.19S1114,231.23,1114,230.19Z"/><path class="cls-5" d="M1054,182.58l-.4,32.14,15.56-1.89,7.92-.56-1.38,5.26,77.21-3.93.37-29.78S1054,183.63,1054,182.58Z"/><path class="cls-5" d="M1482.92,280.7l.66,32.12,103.54-2.13-.66-32.13S1482.94,281.74,1482.92,280.7Z"/><path class="cls-5" d="M1470.21,133.65v32.13h103.56V133.65S1470.21,134.69,1470.21,133.65Z"/><path class="cls-5" d="M1525.32,96.14l.88,32.12,103.53-2.86-.89-32.12S1525.35,97.19,1525.32,96.14Z"/><path class="cls-6" d="M1456.59,46.7l-.1,32.14,103.56.32.1-32.14S1456.59,47.75,1456.59,46.7Z"/><path class="cls-6" d="M1422.37,182.81V215h103.56V182.81S1422.37,183.86,1422.37,182.81Z"/><path class="cls-5" d="M1407,97.27V129.4h103.56V97.27S1407,98.31,1407,97.27Z"/><path class="cls-5" d="M1354,133.65v32.13h103.56V133.65S1354,134.69,1354,133.65Z"/><path class="cls-5" d="M1409.55,231.19l-1.72,32.09,103.41,5.56,1.72-32.09S1409.49,232.24,1409.55,231.19Z"/><path class="cls-5" d="M1541.12,178.73v32.14h103.56V178.73S1541.12,179.78,1541.12,178.73Z"/><path class="cls-5" d="M676.64,229.22v32.14h91.58V229.22S676.64,230.27,676.64,229.22Z"/><path class="cls-6" d="M822.62,180.9,821,213l93.2,4.63,1.59-32.1S822.57,182,822.62,180.9Z"/><path class="cls-5" d="M901.22,230.19v32.13h93.31V230.19S901.22,231.23,901.22,230.19Z"/><path class="cls-5" d="M927.71,183.2v32.13H1033V183.2S927.71,184.24,927.71,183.2Z"/><path class="cls-5" d="M1173.94,182.34v32.14h110.21V182.34S1173.94,183.39,1173.94,182.34Z"/><path class="cls-5" d="M1372.29,279.74v32.13h93.31V279.74S1372.29,280.78,1372.29,279.74Z"/><path class="cls-5" d="M1235,135.43l.57,32.13,103.55-1.85-.57-32.13S1235,136.47,1235,135.43Z"/><path class="cls-5" d="M490,185.29v32.13H593.55V185.29l-48.66.76v3.85s-6.9,4.2-11.55,3.84c-1.19-.09,1.37-4.63,0-4.73C517.24,187.76,490,185.6,490,185.29Z"/><path class="cls-6" d="M327,131l-.81,32.13,103.53,2.61.81-32.13S327,132,327,131Z"/><path class="cls-5" d="M410.49,84.92v32.14H514.05V84.92S410.49,86,410.49,84.92Z"/><path class="cls-5" d="M365.22,186.4v32.13H468.79V186.4S365.22,187.44,365.22,186.4Z"/><path class="cls-5" d="M288.82,84.55l.45,32.13,103.55-1.45-.45-32.13S288.83,85.59,288.82,84.55Z"/><path class="cls-5" d="M446.62,135.54l.64,32.13L550.8,165.6l-.64-32.13S446.64,136.59,446.62,135.54Z"/><path class="cls-5" d="M279.3,39.78V71.91l53.76.5,11.31-9.54-7.7,7.7,46.19,1.34V51.33l-11.55-3.85s5.42-7.64-3.85-7.56C338.61,40.16,279.3,40.57,279.3,39.78Z"/><path class="cls-5" d="M1302.76,179.84V212h103.56V179.84S1302.76,180.88,1302.76,179.84Z"/><path class="cls-5" d="M1302.27,233.78v32.13H1396V233.78S1302.27,234.82,1302.27,233.78Z"/><path class="cls-5" d="M818.61,133c-2.79,1.39-7.18.47-9.62,2.75a8.19,8.19,0,0,1-1.33,1.24,4.18,4.18,0,0,1-1.39.44l-12.37,2.35a20.58,20.58,0,0,1-2.19,3.48c-.37.48-.9,1-1.48.85-.42-.09-.73-.49-1.15-.53-.6-.06-1,.59-1.22,1.14a77.83,77.83,0,0,1-3.63,7.25v16.59H884V132.5S847.46,132.93,818.61,133Z"/><path class="cls-1" d="M1504.89,132.07s-.66,5.28,4.62,6.6,7.26-4,9.24-1.32,4,4.62,7.26,4.62,7.92-8.58,7.92-8.58l-11.22-4.62Z"/><path class="cls-1" d="M1066.65,216.55s-1.32-4.62,5.28-4,8.58-3.3,11.88-.66,5.28,2,9.24,3.3,7.92-3.3,10.56-2.64,8.58,5.94,9.24,4,6.6,0,11.22.66,6.6,6.6,6.6,6.6l-31-2.64Z"/><path class="cls-1" d="M1309.69,169.26s10.22,3.93,9.44,10.55-6.37.69-5,7.7-4,13.86-5.28,9.24c-1.51-5.28-4.12-8.11-7.57-4.2s.68,10.55.68,10.55l-9.36,2.69.73-21Z"/></g></g></svg>