<svg xmlns="http://www.w3.org/2000/svg" viewBox="0 0 2107.55 620"><defs><style>.cls-1{fill:#999;}</style></defs><title>wall_3d_border</title><g id="Capa_2" data-name="Capa 2"><g id="muro_superior" data-name="muro superior"><g id="cemento"><path class="cls-1" d="M2092.55,522.05c10.09-79.38,31.51-167.59-7.56-241.93-51.82-35.93-110.46-51.78-170.73-64V100.05c0-9.11-11.34-66.52-11.34-66.52,0-9.11-41.41-18-50.53-18,0,0-11.85,1-28.86,6.68C1786.36,34.58,1718.61,7.33,1704,15.51c-22.18,12.35-27.85,35-27.85,35a39.71,39.71,0,0,1-32,28.89c-16.1,2.47-30.33,5.13-41.67,20.61-5.67,12.87,22.68,29.88,0,35-22.68,17.52,0,6.18-34,11.85-31.23,5.2-101.76,16.89-147.43,5.67-17-12.11-45.87-1-45.87-1-9.11,0-5.16,9.31-16.5,16.51s-11.34,35.54-11.34,35.54c-5.67,22.68-64.6,11.34-73.72,11.34,0,0-102.57-1-124.74,11.34s-51-11.34-68,0-34-17-39.69-28.35c-11.34-5.67.51-35-11.34-39.69S924.55,151.59,905,152.61s-54.64-11.34-85.06-11.34c-14.5,0-21.27,10.32-35.77,10.32-10.07,0-30.69-4.34-37.36,1.22l-13.59,6.62c-9.32,1.7-7.34,4.52-15.34,4.52h0c-1.33-.49-5.24,1.74-6.42,2.5-4.92,3.17.75,8.84-4.92,8.84-2.23,0,0,5.67-8.23,2-8.79,3.64-3.11,19.76-3.12,25.83a16.49,16.49,0,0,1-16.5,16.49s-79.89,6.68-96.9,1c-5-1.65-11.51-4.29-17-5.67-22.68-5.67-28.35-34-28.35-39.69,0-8-28.35-39.69-45.37-28.35s-45.36,0-45.36,0c-22.68,0-62.37-5.67-73.71-17s-34-34-51-45.36c-5.67-11.34-53.26-11.34-62.38-11.34L191,77.29c-7.51-.68-27.48-2.77-32.09-8.75-6.28-8.15-2.43-6.65-13.77-18s-5.67-11.35-11.34-17c-8-8-34-17-39.7-22.68s-42.39-2.62-56.35-7L0,0C.83,8.45,11.89,271.69,20.38,271.69c0,0,0-46.38,28.35-28.36s51.54-6.68,51.54-6.68a16.51,16.51,0,0,1,16.51,16.5v35a16.5,16.5,0,0,0,16.5,16.5l45.87,1H315.24s10.4.69,28.35,5.67c36.59,10.16,55.13,17.21,113.4-6.69,11.34-4.65,57.21,0,57.21,0,9.12,0,39.19-2,16.51,16.5s0,29.37,0,29.37a16.5,16.5,0,0,0,16.5,16.5H695.65a16.51,16.51,0,0,0,16.51-16.5s-17-36.56,0-29.37,7.38-16.5,16.5-16.5c0,0,17.52-18,34.53,0s79.89,0,79.89,0a16.5,16.5,0,0,1,16.5,16.5v35a16.51,16.51,0,0,0,16.51,16.5h477.32a16.5,16.5,0,0,0,16.5-16.5v-35a16.5,16.5,0,0,1,16.5-16.5H1506.5a16.46,16.46,0,0,1,13.63,7.23l-6,11.47-66.42,3.11c.37,22.94-16.33,45,1.11,68.83s-18.2,8.14-27.3,12.21c4,19.47,3.3,16,7.31,35.52l122.48,1.81,65.13,1c10,13.78,11.88,41.33,30.08,41.33s16.58,22.77,24.87,34.16c22.94-1.85,59.26-22.3,68.82-5.55s10,57.65,21.09,62.72,11.15,11.07,22.49-.44,28.35-11.51,34.68-.67c66.69,42.67,111.57,46.22,141,40.52,13.9-2.7,36.58-9.84,69.93-7.78,21.52,1.33,21.86,4.91,56.06,8.89l8.31,1C2090,587.53,2088.83,554.94,2092.55,522.05Z"/></g></g></g></svg>