<svg xmlns="http://www.w3.org/2000/svg" viewBox="0 0 1921.72 531.41"><defs><style>.cls-1{fill:#979797;}.cls-2{fill:#b0b0b0;}.cls-3{fill:#8c573a;}.cls-4{fill:#7f7f7f;}.cls-5{fill:#666;}.cls-6{fill:#673f31;}</style></defs><title>wall</title><g id="Capa_2" data-name="Capa 2"><g id="PARED"><g id="MURO1"><path class="cls-1" d="M1920,53c0-1.1-11.51-11.27-30.28-12.45A57.84,57.84,0,0,1,1877,29c-19-23-64-35-91-26s-23,17-65,8-53,11-49,14c1.72,1.29,3.13,2.62-7,9-27,18-33.8,3.41-50,3-3.25-3.2-13.94-4.75-15-4,2-2-17.89-4-24-4,0,0-16.14-1.76-20-1a65.31,65.31,0,0,0-10.84-.91,92.11,92.11,0,0,0-19.05,4.42,46.09,46.09,0,0,1-12.28,2.07c-21.35-2.06-44.27-9.09-52.83-6.8-6.34-.9-11.28-1.1-13.82.31a40.14,40.14,0,0,0-18.37,23.13,26.24,26.24,0,0,1-21.15,19.07c-10.63,1.63-20,3.38-27.5,13.6-3.75,8.5,15,19.72,0,23.13-15,11.56,0,4.08-22.46,7.82-20.61,3.43-67.16,11.14-97.3,3.74-11.23-8-30.27-.67-30.27-.67-6,0-3.41,6.14-10.9,10.89s-7.48,23.46-7.48,23.46c-3.74,15-42.64,7.49-48.65,7.49,0,0-67.7-.67-82.33,7.48s-33.69-7.48-44.91,0-22.46-11.22-26.2-18.71c-7.48-3.74.34-23.12-7.48-26.2s-69.4-4.41-82.34-3.74-36.06-7.48-56.13-7.48c-9.57,0-14,6.81-23.61,6.81-6.65,0-20.26-2.86-24.66.8l-9,4.37c-6.15,1.13-4.84,3-10.13,3-.87-.33-3.45,1.14-4.23,1.65-3.25,2.09.49,5.83-3.25,5.83-1.47,0,0,3.74-5.43,1.34-5.8,2.4-2,13-2.06,17.05a10.89,10.89,0,0,1-10.89,10.88s-52.73,4.41-64,.67c-3.28-1.09-7.6-2.83-11.23-3.74-15-3.74-18.71-22.46-18.71-26.2,0-5.29-18.71-26.19-29.94-18.71s-29.94,0-29.94,0c-15,0-41.17-3.74-48.65-11.23S545.6,80.16,534.38,72.67c-3.75-7.48-35.15-7.48-41.17-7.48l-44.58,2.68c-5-.45-18.14-1.83-21.17-5.77-4.15-5.38-1.61-4.4-9.1-11.88s-3.74-7.49-7.48-11.23S391.8,27.61,391.8,27.61c-5.44-5.45-23.09-11.55-26.94-15.4s-28.78-1.78-38.25-4.76L271.24,5s-57,19-57,11-48-7-48-7-55-7-70,0-40,19-88,7c-3-.74-5.7-1.32-8.24-1.76V102L337,40c6,0,75,52,75,58,0,0,385.48,120,391.49,120,0,0,746.8-65.16,760.52-66.92.61,10.31,215.9.35,321-32,15.61-4.81,24.79-13.36,30.07-22.75L1920,97V83.59A69.3,69.3,0,0,0,1920,53Z"/><path class="cls-2" d="M1877,50c-19-23-58-42-85-33s-31,19-73,10-38,9-34,12-44,35-51,25-26-5-30-11-9.51-1.39-9.51-1.39c0-6.19-28.11-12.24-34.3-12.24a94.15,94.15,0,0,0-19.59,4.54c-25.23,8.41-71.23-10.09-81.18-4.54a41.29,41.29,0,0,0-18.9,23.79,27,27,0,0,1-21.75,19.61c-10.93,1.68-20.59,3.48-28.29,14-3.85,8.74,15.4,20.28,0,23.79-15.39,11.89,0,4.19-23.09,8-21.2,3.53-69.08,11.46-100.08,3.85-11.55-8.22-31.14-.69-31.14-.69-6.18,0-3.5,6.32-11.2,11.2s-7.7,24.13-7.7,24.13c-3.85,15.4-43.85,7.7-50,7.7,0,0-69.62-.69-84.68,7.7s-34.64-7.7-46.19,0-23.09-11.55-26.94-19.25c-7.7-3.85.35-23.78-7.7-26.94s-71.37-4.54-84.68-3.85-37.09-7.7-57.74-7.7c-9.84,0-14.43,7-24.28,7-6.83,0-20.83-2.95-25.36.82l-9.22,4.5c-6.33,1.15-5,3.07-10.42,3.07-.9-.34-3.55,1.18-4.36,1.7-3.34,2.15.51,6-3.34,6-1.51,0,0,3.85-5.58,1.37-6,2.48-2.11,13.42-2.12,17.54a11.19,11.19,0,0,1-11.2,11.19s-54.23,4.54-65.78.69c-3.37-1.13-7.81-2.92-11.55-3.85-15.39-3.85-19.24-23.09-19.24-26.94,0-5.45-19.25-26.95-30.79-19.25s-30.8,0-30.8,0c-15.39,0-42.34-3.85-50-11.55S532.13,94,520.58,86.25c-3.85-7.7-36.15-7.7-42.34-7.7l-45.85,2.76c-5.1-.46-18.65-1.88-21.78-5.94-4.26-5.53-1.65-4.52-9.35-12.21s-3.85-7.7-7.7-11.55c-5.44-5.45-23.09-11.55-26.94-15.4s-28.78-1.78-38.25-4.76l-25.63-2.61c0,.05,0,.1,0,.16H273s-57,19-57,11-48-7-48-7-55-7-70,0S58,52,10,40c-3.66-.91-7-1.58-10-2V163.74A57.65,57.65,0,0,0,17,166l36,8s37-17,68-20,8,23,8,23,56,16,70-5,54,12,54,12l61,29,2.58.27c.66-8.94,2.6-19.52,8.72-21.64,3.13-1.09,5.48-.81,10.52,2.4,19.25,12.23,35-4.54,35-4.54a11.19,11.19,0,0,1,11.2,11.2v23.78a11.2,11.2,0,0,0,11.21,11.2l31.13.7h92.38s7.07.46,19.25,3.85c24.84,6.89,37.43,11.68,77-4.55,7.7-3.15,38.84,0,38.84,0,6.18,0,26.6-1.38,11.2,11.21s0,19.93,0,19.93A11.21,11.21,0,0,0,674.2,278H775a11.2,11.2,0,0,0,11.2-11.21s-11.55-24.82,0-19.93,5-11.21,11.2-11.21c0,0,11.9-12.23,23.44,0s54.24,0,54.24,0a11.21,11.21,0,0,1,11.2,11.21v23.78a11.19,11.19,0,0,0,11.2,11.2h324a11.2,11.2,0,0,0,11.2-11.2V246.88a11.21,11.21,0,0,1,11.2-11.21h81.52c2.61,5.33-26.5.86-27.39,4.33-11,43-9,46,102,43,20-.54-6-43.13,14-47,9.44-1.83,63.36-3.4,86-2,14.6.9,10.78,48.3,34,51,2,.23,36-3,59-1,0,0-1.14,59.33,1,38h111c17-7,20-39,20-39s62-14,124-62c22-28,71-16,71-16V70S1896,73,1877,50Z"/><path class="cls-3" d="M0,85.54l93.82-1.31-.45-32.14S26.09,53.72,0,53.8Z"/></g><g id="LADRILLOS"><text/><path class="cls-4" d="M214,15V37.44s4.64,6.8,6.82,5.68,15.26-27.95,15.26-27.95S220,25,214,15Z"/><path class="cls-4" d="M63.18,19.85,73.41,42.18s13.48-4.9,16.53-5.54S96,9,96,9,66.36,19.7,63.18,19.85Z"/><polygon class="cls-5" points="99.68 7.8 102.82 31.47 90 35 96 9 99.68 7.8"/><path class="cls-5" d="M1673.16,27.05,1685,39s-.37,5.16-4.69,6.08-10.56-14.32-10.56-14.32Z"/><path class="cls-5" d="M1883.88,36.08l-4.51,16.62s14,12.26,15.33,11.78S1890,42,1890,42Z"/><polygon class="cls-4" points="1894.88 41.12 1906.25 68.77 1895 64 1889.72 40.55 1894.88 41.12"/><polyline class="cls-1" points="774.15 151.76 781.02 136.16 792.75 138.73 783.51 156.55 775.59 153.91 774.15 151.76"/><polyline class="cls-5" points="781.74 148.16 788.31 132.84 791.43 131.47 784.17 150.61 780.87 151.27"/><path class="cls-4" d="M638,127.59l8.88-13.94s4.21-3.3,11.34,0a39.67,39.67,0,0,1,17.9,17.07c.33.65.27.76.27.76l-18.95,7.91-13.86-5.28"/><path class="cls-4" d="M784.39,143.33l6.49-15.2a4.4,4.4,0,0,1,2.27-2,20.23,20.23,0,0,1,2.64-1.07,12.89,12.89,0,0,1,2.42-.08l-5.46,17.73-3.3-2-5.06,2.62"/><path class="cls-4" d="M783.51,134.11,776.25,150l-2.74,4.23,7.26-17.47a1.86,1.86,0,0,1,1.26-1.93C783.51,134.11,782.85,134.11,783.51,134.11Z"/><path class="cls-4" d="M1266.91,132.17l-6.22-14.56s-9.9-8.58-30.36-.66"/><polygon class="cls-4" points="1236.27 131.47 1230.33 116.95 1266.91 132.17 1236.27 131.47"/><path class="cls-4" d="M1390.71,96.49l-10.56-13.86s-2.64,4.8,5.28,15.93S1399.29,117,1399.29,117l-8.58-20.46"/><path class="cls-4" d="M1380.15,105.73s8.42-.33,4.87-7.75,13.61,16.33,13.61,16.33l-2,7.26-5.94-1.32Z"/><polygon class="cls-4" points="698 179 706.29 162.49 686 175 698 179"/><path class="cls-4" d="M1009.89,147.31v19.8l-34.32-28.38,27.48-1.66.82-14.6s2.72,1.08,2.06,12.63S1009.89,147.31,1009.89,147.31Z"/><path class="cls-5" d="M1007.91,174.37c.66-.66,2-27.06,2-27.06s10.28,20.1,19.66,20.61.47,0,.47,0l.33,20.93"/><path class="cls-4" d="M411.93,40.19,394,52,367,36h0l38.33-.89s3.31,1.6,4.29,2.78A22.55,22.55,0,0,0,411.93,40.19Z"/><polygon class="cls-4" points="520.17 88.57 534.69 72.73 516.87 89.23 520.17 88.57"/><path class="cls-4" d="M423.81,87.25l25.08-19.14s-18.43-2.38-20.1-4.82-23.46,19.34-23.46,19.34"/><path class="cls-4" d="M760,178l12.21-16.32s6.68-1.83,7.34-2.49S771,174,771,174Z"/><polygon class="cls-4" points="661.41 151.93 664.71 149.29 676.59 131.47 648.21 139.39 661.41 151.93"/><polygon class="cls-5" points="1371.56 112.86 1389.39 138.07 1396.65 126.19 1390.71 120.25 1380.15 105.73 1371.56 112.86"/><path class="cls-5" d="M1230.33,117l8.58,19.8-4-1.32-6.77-18.22S1229.67,116.29,1230.33,117Z"/><path class="cls-4" d="M1198.65,178.33l-1.5-18.22c13.68-1.73,14.7-8.84,14.7-8.84l5.94,17.82,1.32.66-4.62,6.6"/><polygon class="cls-4" points="1009.23 169.09 1009.89 147.31 1007.91 168.43 1009.23 169.09"/><path class="cls-4" d="M1041.16,164.3l.41,21.29-11.51.7-.21-18.35a12.08,12.08,0,0,0,5.12-1.49C1037,165.13,1039.42,164.13,1041.16,164.3Z"/><path class="cls-5" d="M408.63,79.33l20.46-15.84s-6-8.68-7-9.29-24.05,19.85-24.05,19.85"/><path class="cls-4" d="M399.8,72.82l22.71-18.26s-7.79-7.67-7.86-8.61-20.54,18.2-20.54,18.2"/><path class="cls-5" d="M396.75,62.17l18.17-15.84a23.35,23.35,0,0,1-1.7-3.12c-.63-1.5-20.43,16.32-20.43,16.32"/><path class="cls-5" d="M392.79,54.58l19-14.47a4.4,4.4,0,0,1,1.35,3c.06,1.89-20.12,16.25-20.12,16.25"/><path class="cls-4" d="M1504,45l-6.32-12.11c-51.42-10.81-50.21-5.7-50.21-5.7L1470,39"/><path class="cls-3" d="M893.77,141.24l1.27,36,99.68-3.53-1.28-36S893.81,142.41,893.77,141.24Z"/><path class="cls-3" d="M613.33,189l-.94,32.12,91.55,2.67.93-32.12S613.3,190.05,613.33,189Z"/><path class="cls-3" d="M717.82,190.55v32.13H809.4V190.55S717.82,191.6,717.82,190.55Z"/><path class="cls-3" d="M562,139.55l-1.85,32.08,91.43,5.24,1.85-32.08S561.93,140.59,562,139.55Z"/><path class="cls-3" d="M1004.19,234.55l1.72,32.09,93.18-5-1.72-32.09S1004.25,235.6,1004.19,234.55Z"/><path class="cls-3" d="M1114,236.19v32.13h93.31V236.19S1114,237.23,1114,236.19Z"/><path class="cls-3" d="M1054,188.58l-.4,32.14,15.56-1.89,7.92-.56-1.38,5.26,77.21-3.93.37-29.79S1054,189.63,1054,188.58Z"/><path class="cls-3" d="M1470.21,139.65v32.13h103.56V139.65S1470.21,140.69,1470.21,139.65Z"/><path class="cls-3" d="M1525.32,102.14l.88,32.12,103.53-2.86-.89-32.12S1525.35,103.19,1525.32,102.14Z"/><path class="cls-6" d="M1456.59,52.7l-.1,32.14,103.56.32.1-32.14S1456.59,53.75,1456.59,52.7Z"/><path class="cls-6" d="M1422.37,188.81V221h103.56V188.81S1422.37,189.86,1422.37,188.81Z"/><path class="cls-3" d="M1407,103.27V135.4h103.56V103.27S1407,104.31,1407,103.27Z"/><path class="cls-3" d="M1354,139.65v32.13h103.56V139.65S1354,140.69,1354,139.65Z"/><path class="cls-3" d="M1541.12,184.73v32.14h103.56V184.73S1541.12,185.78,1541.12,184.73Z"/><path class="cls-3" d="M676.64,235.22v32.14h91.58V235.22S676.64,236.27,676.64,235.22Z"/><path class="cls-6" d="M822.62,186.9,821,219l93.2,4.63,1.59-32.1S822.57,188,822.62,186.9Z"/><path class="cls-3" d="M901.22,236.19v32.13h93.31V236.19S901.22,237.23,901.22,236.19Z"/><path class="cls-3" d="M927.71,189.2v32.13H1033V189.2S927.71,190.24,927.71,189.2Z"/><path class="cls-3" d="M1173.94,188.34v32.14h110.21V188.34S1173.94,189.39,1173.94,188.34Z"/><path class="cls-3" d="M1235,141.43l.57,32.13,103.55-1.85-.57-32.13S1235,142.47,1235,141.43Z"/><path class="cls-3" d="M490,191.29v32.13H593.55V191.29l-48.66.76v3.85s-6.9,4.2-11.55,3.84c-1.19-.09,1.37-4.63,0-4.73C517.24,193.76,490,191.6,490,191.29Z"/><path class="cls-6" d="M327,137l-.81,32.12,103.53,2.62.81-32.13S327,138,327,137Z"/><path class="cls-3" d="M410.49,90.92v32.14H514.05V90.92S410.49,92,410.49,90.92Z"/><path class="cls-3" d="M365.22,192.39v32.14H468.79V192.39S365.22,193.44,365.22,192.39Z"/><path class="cls-3" d="M288.82,90.55l.45,32.13,103.55-1.45-.45-32.14S288.83,91.59,288.82,90.55Z"/><path class="cls-3" d="M446.62,141.54l.64,32.13L550.8,171.6l-.64-32.13S446.64,142.59,446.62,141.54Z"/><path class="cls-3" d="M221.3,47.78V79.91l53.76.5,11.31-9.54-7.7,7.7,46.19,1.34V59.33l-11.55-3.85s5.42-7.64-3.85-7.56C280.61,48.16,221.3,48.57,221.3,47.78Z"/><path class="cls-3" d="M1302.76,185.84V218h103.56V185.84S1302.76,186.88,1302.76,185.84Z"/><path class="cls-3" d="M1302.27,241.78v32.13H1396V241.78S1302.27,242.82,1302.27,241.78Z"/><path class="cls-3" d="M818.61,139c-2.79,1.39-7.18.47-9.62,2.75a8.19,8.19,0,0,1-1.33,1.24,4.18,4.18,0,0,1-1.39.44l-12.37,2.35a20.58,20.58,0,0,1-2.19,3.48c-.37.48-.9,1-1.48.85-.42-.09-.73-.49-1.15-.53-.6-.06-1,.59-1.22,1.14a77.83,77.83,0,0,1-3.63,7.25v16.58H884V138.5S847.46,138.93,818.61,139Z"/><path class="cls-2" d="M1504.89,138.07s-.66,5.28,4.62,6.6,7.26-4,9.24-1.32,4,4.62,7.26,4.62,7.92-8.58,7.92-8.58l-11.22-4.62Z"/><path class="cls-2" d="M1066.65,222.55s-1.32-4.62,5.28-4,8.58-3.3,11.88-.66,5.28,2,9.24,3.3,7.92-3.3,10.56-2.64,8.58,5.94,9.24,4,6.6,0,11.22.66,6.6,6.6,6.6,6.6l-31-2.64Z"/><path class="cls-2" d="M1309.69,175.26s10.22,3.93,9.44,10.55-6.37.69-5,7.7-4,13.86-5.28,9.24c-1.51-5.28-4.12-8.11-7.57-4.2s.68,10.55.68,10.55l-9.36,2.69.73-21Z"/><path class="cls-3" d="M107.54,46.28l-1,32.12L210.1,81.5l1-32.12S107.51,47.32,107.54,46.28Z"/><path class="cls-3" d="M168,96.87l2.49,32,103.25-8-2.49-32S168,97.92,168,96.87Z"/><path class="cls-3" d="M209.82,138.55l.45,32.13,103.55-1.45-.45-32.14S209.83,139.59,209.82,138.55Z"/><path class="cls-6" d="M50.82,93.55l.45,32.13,103.55-1.45-.45-32.14S50.83,94.59,50.82,93.55Z"/><path class="cls-3" d="M337.54,45.28l-1,32.12S396,78,396,77c2-3-7-13-7-13l-7-1,1.59-3.63L377,50s-7.1-3.77-7.64-3.31C369,47,337.53,45.66,337.54,45.28Z"/><path class="cls-3" d="M89.94,136.13l.19,32.13,103.57-.61-.19-32.14S90,137.17,89.94,136.13Z"/><path class="cls-3" d="M1587.32,139.14l.88,32.12,103.53-2.86-.89-32.12S1587.35,140.19,1587.32,139.14Z"/><path class="cls-6" d="M1644.32,99.14l.88,32.12,103.53-2.86-.89-32.12S1644.35,100.19,1644.32,99.14Z"/><path class="cls-3" d="M1525.32,237.14l.88,32.12,103.53-2.86-.89-32.12S1525.35,238.19,1525.32,237.14Z"/><path class="cls-3" d="M1661.75,183.82l-1.19,32.11,103.49,3.86,1.19-32.11S1661.72,184.86,1661.75,183.82Z"/><path class="cls-3" d="M1701.32,137.14l.88,32.12,103.53-2.86-.89-32.12S1701.35,138.19,1701.32,137.14Z"/><path class="cls-3" d="M1644.32,233.14l.88,32.12,103.53-2.86-.89-32.12S1644.35,234.19,1644.32,233.14Z"/><path class="cls-6" d="M1600.32,278.14l.88,32.12,103.53-2.86-.89-32.12S1600.35,279.19,1600.32,278.14Z"/><path class="cls-3" d="M1767.32,94.14l.88,32.12,103.53-2.86-.89-32.12S1767.35,95.19,1767.32,94.14Z"/><path class="cls-3" d="M1578.32,54.14l.88,32.12,103.53-2.86-.89-32.12S1683,58.67,1674,59c-9.91.36-20.4,12.56-34,13-11.88.39-34.81-14.71-44-14C1583,59,1578.33,54.42,1578.32,54.14Z"/><path class="cls-3" d="M1696.32,51.14l.88,32.12,103.53-2.86-.89-32.12S1696.35,52.19,1696.32,51.14Z"/><path class="cls-3" d="M1775.75,183.82l-1.19,32.11L1838,218l41-20,.24-10.32S1775.72,184.86,1775.75,183.82Z"/><path class="cls-3" d="M1809.32,132.14l.88,32.12,103.53-2.86-.89-32.12S1809.35,133.19,1809.32,132.14Z"/></g></g></g></svg>