<svg xmlns="http://www.w3.org/2000/svg" viewBox="0 0 1927.39 88.66"><defs><style>.cls-1{fill:none;}.cls-2{fill:gray;}.cls-3{fill:#b0b0b0;}.cls-4{fill:#9c5635;}.cls-5{fill:#733d2d;}</style></defs><title>bricks</title><g id="Capa_2" data-name="Capa 2"><g id="Capa_3" data-name="Capa 3"><g id="Capa_4" data-name="Capa 4"><path class="cls-1" d="M855.42,6.7a6.17,6.17,0,0,0,6.13-5.47c-1,1.75-2,3.3-2,3.3l-6.06,2.21,5-6.74H823l-3.6,7.16C826.27,9.14,855.42,6.7,855.42,6.7Z"/><path class="cls-1" d="M1105.59.72s0-.26,0-.72h-.34l.28.85A1.12,1.12,0,0,0,1105.59.72Z"/><path class="cls-1" d="M1005.87,9.21c6.36-4.25,17.16,4.62,25.46,0S1078,5,1078,5c2,0,10.24,1.43,17.24,1L1094.75,0h-103C994.38,4.77,1000.12,13,1005.87,9.21Z"/><path class="cls-1" d="M812.79,5l.1,0L821,0h-15.2A12.23,12.23,0,0,0,812.79,5Z"/><path class="cls-1" d="M639,13.07a15.3,15.3,0,0,1-2,1.72c1.24.06,3.5.1,6.43.12A6.15,6.15,0,0,0,639,13.07Z"/><path class="cls-2" d="M819.16,7.09l.26.07L823,0h-2l-8.1,5C814.93,5.51,817.33,6.47,819.16,7.09Z"/><path class="cls-2" d="M859.59,4.53s.93-1.55,2-3.3a5.37,5.37,0,0,0,0-.7,5.29,5.29,0,0,0,0-.53h-3l-5,6.74Z"/><path class="cls-2" d="M1105.54.85l-.28-.85h-10.51l.49,5.93C1100.23,5.6,1104.58,4.31,1105.54.85Z"/><path class="cls-3" d="M1028,29l-2.35.16A7.41,7.41,0,0,0,1028,29Z"/><path class="cls-3" d="M1870,0h-8.9l.26,9.21-57.07,1.58L1804,0h-12l.34,12.21-57.07,1.58L1734.94,0h-8l.4,14.21-57.07,1.58L1669.89,0h-240V.35l-57.06,1.57L1372.83,0h-5.76l0,1.45L1310.05,3,1310,0h-7.88V3.31H1245V0h-7V3.31H1181V0h-8.27l0,3.27-57.07,1L1115.59,0h-10c0,.46,0,.72,0,.72a1.12,1.12,0,0,1,0,.13l.33,1,.73.36-2.55,3.64-8.73,1.09-.08-1c-7,.46-15.26-1-17.24-1,0,0-38.38-.38-46.67,4.25s-19.1-4.25-25.46,0C1000.12,13,994.38,4.77,991.75,0H991l-.06,1.83-.73-.36L990.32,0h-7.56l.15,4.4L928,6.34,927.74,0h-5.88V4.84h-55V0h-4.62l-.72,1.23a6.17,6.17,0,0,1-6.13,5.47s-29.15,2.44-36,.46l-.07.13-6.61-2.21.15-.09-.1,0a12.23,12.23,0,0,1-7-5H794.12l-.36,6.12L743.37,3.23,743.55,0h-5.4l.07,3.21L681.14,4.35,681.06,0h-9.5l-.09,3.28L614.41,1.84l0-1.84h-6.89l0,1.9-57.08.8,0-2.7h-9.1V1l-57.08.34V0h-6l0,2.43-57.08.8,0-3.23h-6.34l.05,3.16L357.81,4l-.06-4h-10l.07,4.61-57.08.81L290.67,0h-7.62l-.39,8-57-2.82L225.9,0h-4.68l.05,3.14-57.08.94L164.13,0h-4.88l.1,3.85L102.29,5.37,102.15,0h-6l.1,6.14-57.08.94L39.08,0H.07C-.38,2.53,1.19,6.74,8.83,14c2.72,1.13,23.11,20.26,46,5,12-8,78.52-10.17,82-10,4.76.24,2.14,23-3,23-22,0-47,13-20,27,10.94.43,53.84-.4,64,0,5.25.21,11-20.2,16-20,42.44,1.71,30,21.21,32,22,8,3.22,75.71-3.71,110.9-7.6L293.17,54l-.25-17.71c0,.58,57.08-.8,57.08-.8l.23,16.38,7.6-.88s48-28,99.72-15.65l6.27-30.82s3.61,7,20.7,5.31,21.19-3.65,21.19-3.65,26.92,6.56,35.66,2.92c12.84-5.35,32.69.94,32.69.94l33.63,16,1.42.15c.36-4.93,1.43-10.76,4.81-11.93,1.72-.6,3-.45,5.8,1.32,6.78,4.31,12.76,2.09,16.2-.07v-.83a3,3,0,0,0,1.05.12,15.3,15.3,0,0,0,2-1.72,6.15,6.15,0,0,1,4.4,1.84c15.47.11,49.61-.24,49.61-.24V32.39H645.18a6.17,6.17,0,0,0,6.17,6.14l17.17.38h50.92A59.21,59.21,0,0,1,730.05,41c13.69,3.81,20.63,6.44,42.43-2.5,4.24-1.74,21.41,0,21.41,0,3.41,0,14.66-.76,6.17,6.17s0,11,0,11a6.18,6.18,0,0,0,6.18,6.18h55.54A6.18,6.18,0,0,0,868,55.69s-6.37-13.68,0-11,2.76-6.17,6.17-6.17c0,0,6.56-6.75,12.92,0s29.9,0,29.9,0a6.17,6.17,0,0,1,6.17,6.17V57.81A6.18,6.18,0,0,0,929.3,64h178.6a6.17,6.17,0,0,0,6.17-6.18V44.7a6.18,6.18,0,0,1,6.18-6.17h44.93c1.44,2.93-14.61.47-15.1,2.38-6.06,23.71-5,25.36,56.23,23.71,11-.3-3.29-23.78,7.72-25.91,5.2-1,34.92-1.88,47.4-1.1,8,.49,5.94,26.62,18.74,28.11,1.08.12,19.84-1.66,32.52-.55,0,0-.63,32.7.55,20.94h61.19c9.37-3.86,11-21.49,11-21.49s34.18-7.72,68.35-34.18c7.22-9.19,50-.44,63-.44,7,0,24.86-3.75,44-4,3.29,0,4,20,11,27,5.44,5.44,50.32-6.58,70.84-12.25l-1.35,0-.46-16.64c0,.54,57.07-1.58,57.07-1.58l.46,16.64-27.07.75c12.92,3.44,19.86,10.06,21.51,10,21-.31,13-26,19-27s39.85-4.9,44-5c3.87-.09-2,13,4,23s37-6,35,4,5.06,25.09,9,25c3.73-.09,29,7,62-4s9.41-19.34,12-21c25-16,1-20,13-27s30.67-2.16,34-2c.72,0,1.05-2.54,1.13-6.75l-55.64,1.54ZM173.81,54.58l-57-1.94.6-17.7c0,.57,57.05,1.93,57.05,1.93Zm24-25-57.05-1.94.6-17.7c0,.57,57,1.93,57,1.93Zm3.48,2.79-.47-17.71c0,.58,57.06-1.51,57.06-1.51l.47,17.7Zm28.9,23.71-.29-17.71c0,.57,57.08-.94,57.08-.94l.29,17.71Zm99-28.07-.25-17.71c0,.58,57.08-.8,57.08-.8l.25,17.71Zm68,0-.25-17.71c0,.58,57.08-.8,57.08-.8l.25,17.71Zm364.61,3.77H704.7V14.06c0,.17,15,1.36,23.89,2,.76.06-.65,2.56,0,2.61,2.57.2,6.37-2.12,6.37-2.12V14.48l26.82-.42Zm10.39-1.27.51-17.7c0,.57,50.46,1.47,50.46,1.47L822.63,32ZM858.06,56H807.58V38.28c0,.58,50.48,0,50.48,0Zm22.7-24.62H830.28V13.66c0,.57,50.48,0,50.48,0ZM946,12.91c0,.58,58,0,58,0V30.62H946Zm-58.8,16.43.88-17.69c0,.57,51.37,2.55,51.37,2.55l-.88,17.69Zm95.64,27.18H931.37V38.81c0,.58,51.44,0,51.44,0Zm6.27-.92-1-17.69c0,.58,51.36-2.75,51.36-2.75l1,17.69Zm33.48-24.3a1.67,1.67,0,0,1,.94-2l-8.15,1,.22-17.71c0,.58,54.73.68,54.73.68l-.2,16.42-24,1.22c1,.56,1.74.91,1.91.41.36-1.09,3.64,0,6.18.36s3.64,3.64,3.64,3.64l-17.1-1.46Zm77.51,25.22h-51.44V38.81c0,.58,51.44,0,51.44,0Zm42.38-26.37H1081.7V12.44c0,.58,60.75,0,60.75,0Zm61.67,29.45h-51.68V41.89c0,.58,51.68,0,51.68,0Zm5.67-30.83h-57.08V17.36a3.6,3.6,0,0,0-.81.71c-1.9,2.15.38,5.81.38,5.81l-5.16,1.48.4-11.58,9-8.55s5.63,2.16,5.2,5.81c0,.1,0,.17,0,.26,16.07.08,48.1-.24,48.1-.24Zm74.31-18.32c0,.58,57.08,0,57.08,0V28.16H1284.1Zm-65.46,20V12.7c0,.57,57.08,0,57.08,0V30.41ZM1275.87,57l-.48-17.7c0,.57,57.06-1.58,57.06-1.58l.49,17.71Zm41.35,22.6-.49-17.7c0,.57,57.06-1.58,57.06-1.58l.49,17.71Zm24.25-24.8L1341,37.13c0,.58,57.06-1.57,57.06-1.57l.49,17.7ZM1407,29.77l-57-2.13.66-17.7c0,.58,57.05,2.13,57.05,2.13Zm63.36-12-22.6,11-35-1.15.66-17.7c0,.58,57,2.13,57,2.13Zm9.93,8.72-1.8-17.62c.06.57,56.79-5.81,56.79-5.81l1.8,17.62Zm64.08-5.63-.49-17.7c0,.58,57.07-1.58,57.07-1.58l.49,17.71Zm29,23.94-.46-16.64c0,.54,57.07-1.58,57.07-1.58l.46,16.64Zm190.33-10.45,1-16.61c0,.54,57,3.29,57,3.29l-1,16.61Zm44.67,25.45-.46-16.64c0,.54,57.07-1.58,57.07-1.58l.46,16.64Zm76.07-24.58-57.07,1.58-.46-16.64c0,.54,57.07-1.58,57.07-1.58Z"/><path class="cls-3" d="M812.89,5l-.15.09,6.61,2.21.07-.13-.26-.07C817.33,6.47,814.93,5.51,812.89,5Z"/><path class="cls-3" d="M861.59.53a5.37,5.37,0,0,1,0,.7L862.27,0h-.71A5.29,5.29,0,0,1,861.59.53Z"/><path class="cls-3" d="M1095.24,5.93l.08,1,8.73-1.09,2.55-3.64-.73-.36-.33-1C1104.58,4.31,1100.23,5.6,1095.24,5.93Z"/><polygon class="cls-3" points="990.18 1.47 990.91 1.83 990.97 0 990.32 0 990.18 1.47"/><polygon class="cls-4" points="927.97 6.34 982.91 4.4 982.75 0 927.74 0 927.97 6.34"/><path class="cls-4" d="M823.14,14.28s-50.47-.9-50.46-1.47l-.51,17.7L822.63,32Z"/><path class="cls-4" d="M830.28,13.66V31.37h50.48V13.66S830.28,14.23,830.28,13.66Z"/><polygon class="cls-4" points="743.37 3.23 793.76 6.12 794.12 0 743.55 0 743.37 3.23"/><path class="cls-4" d="M988.13,37.91l1,17.69,51.36-2.75-1-17.69S988.16,38.49,988.13,37.91Z"/><path class="cls-4" d="M1048.63,38.81V56.52h51.44V38.81S1048.63,39.39,1048.63,38.81Z"/><path class="cls-4" d="M1025.47,29.11h.16L1028,29c1.79-.42,2.73-1.26,4-.21,1.82,1.46,2.91,1.09,5.09,1.82s4.37-1.82,5.82-1.46a18.25,18.25,0,0,1,3.19,1.78l24-1.22.2-16.42s-54.73-.1-54.73-.68l-.22,17.71,8.15-1A4,4,0,0,1,1025.47,29.11Z"/><rect class="cls-4" x="1245.01" width="57.09" height="3.31"/><path class="cls-5" d="M1275.72,12.7s-57.08.57-57.08,0V30.41h57.08Z"/><rect class="cls-4" x="1180.96" width="57.09" height="3.31"/><path class="cls-4" d="M1341.18,10.45s-57.08.58-57.08,0V28.16h57.08Z"/><path class="cls-4" d="M807.58,38.28V56h50.48V38.28S807.58,38.86,807.58,38.28Z"/><path class="cls-5" d="M939.42,14.2s-51.4-2-51.37-2.55l-.88,17.69,51.37,2.55Z"/><path class="cls-4" d="M931.37,38.81V56.52h51.44V38.81S931.37,39.39,931.37,38.81Z"/><path class="cls-4" d="M1004,12.91s-58,.58-58,0V30.62h58Z"/><path class="cls-4" d="M1081.7,12.44V30.15h60.75V12.44S1081.7,13,1081.7,12.44Z"/><polygon class="cls-4" points="1115.67 4.29 1172.74 3.27 1172.68 0 1115.59 0 1115.67 4.29"/><path class="cls-4" d="M735,16.6s-3.8,2.32-6.37,2.12c-.65,0,.76-2.55,0-2.61-8.88-.69-23.89-1.88-23.89-2V31.78h57.08V14.06L735,14.48Z"/><polygon class="cls-5" points="614.41 1.84 671.47 3.28 671.56 0 614.45 0 614.41 1.84"/><path class="cls-4" d="M645.18,19.24a6.13,6.13,0,0,0-1.78-4.33c-2.93,0-5.19-.06-6.43-.12-.31.23-.67.47-1.05.71V32.39h9.26V19.24Z"/><path class="cls-4" d="M635.92,14.67v.83c.38-.24.74-.48,1.05-.71A3,3,0,0,1,635.92,14.67Z"/><path class="cls-4" d="M693,14.67s-34.14.35-49.61.24a6.13,6.13,0,0,1,1.78,4.33V32.39H693Z"/><polygon class="cls-4" points="681.14 4.35 738.22 3.21 738.15 0 681.06 0 681.14 4.35"/><path class="cls-4" d="M1161.69,11.3c-.55,3.2-3.45.23-2.7,4s-2.19,7.64-2.91,5.09-1.87-4-3.37-3V28.77h57.08V11.06S1177.76,11.38,1161.69,11.3Z"/><path class="cls-4" d="M1152.44,41.89V59.6h51.68V41.89S1152.44,42.47,1152.44,41.89Z"/><rect class="cls-4" x="866.89" width="54.98" height="4.84"/><path class="cls-3" d="M1054.21,31.66c-2.54-.36-5.82-1.45-6.18-.36-.17.5-1,.15-1.91-.41l-18.58.95.76-2.91-.32,0a7.41,7.41,0,0,1-2.35.16l-1.7.12-.43.06a1.67,1.67,0,0,0-.94,2l18.19,2.54,17.1,1.46S1056.76,32,1054.21,31.66Z"/><path class="cls-3" d="M1025.63,29.12h-.16a4,4,0,0,0-2,.19l.43-.06Z"/><path class="cls-3" d="M1037.11,30.57c-2.18-.73-3.27-.36-5.09-1.82-1.31-1.05-2.25-.21-4,.21l.32,0-.76,2.91,18.58-.95a18.25,18.25,0,0,0-3.19-1.78C1041.48,28.75,1039.3,31.3,1037.11,30.57Z"/><path class="cls-3" d="M1161.69,11.3c0-.09,0-.16,0-.26.43-3.65-5.2-5.81-5.2-5.81l-9,8.55-.4,11.58,5.16-1.48s-2.28-3.66-.38-5.81a3.6,3.6,0,0,1,.81-.71v-6.3A84.58,84.58,0,0,0,1161.69,11.3Z"/><path class="cls-3" d="M1156.08,20.38c.72,2.55,3.67-1.22,2.91-5.09s2.15-.79,2.7-4a84.58,84.58,0,0,1-9-.24v6.3C1154.21,16.41,1155.37,17.9,1156.08,20.38Z"/><polygon class="cls-4" points="550.51 2.7 607.59 1.9 607.56 0 550.47 0 550.51 2.7"/><polygon class="cls-4" points="484.29 1.37 541.37 1.03 541.37 0 484.28 0 484.29 1.37"/><polygon class="cls-4" points="1310.05 3.02 1367.11 1.45 1367.07 0 1309.97 0 1310.05 3.02"/><path class="cls-4" d="M1332.45,37.76s-57,2.15-57.06,1.58l.48,17.7,57.07-1.57Z"/><path class="cls-4" d="M1349.93,27.64l57,2.13.66-17.7s-57.07-1.55-57.05-2.13Z"/><polygon class="cls-4" points="1372.89 1.92 1429.95 0.35 1429.94 0 1372.84 0 1372.89 1.92"/><path class="cls-4" d="M1341,37.13l.49,17.71,57.06-1.58-.49-17.7S1341,37.71,1341,37.13Z"/><path class="cls-5" d="M1316.73,61.94l.49,17.7,57.06-1.57-.49-17.71S1316.74,62.51,1316.73,61.94Z"/><path class="cls-4" d="M1412.77,27.64l35,1.15,22.6-11,.14-5.69s-57.07-1.55-57-2.13Z"/><polygon class="cls-4" points="421.23 3.23 478.3 2.43 478.27 0 421.18 0 421.23 3.23"/><polygon class="cls-4" points="357.81 3.96 414.89 3.16 414.85 0 357.75 0 357.81 3.96"/><path class="cls-4" d="M396.92,10.3,397.17,28l57.08-.8L454,9.5S396.93,10.88,396.92,10.3Z"/><polygon class="cls-4" points="290.75 5.42 347.83 4.61 347.76 0 290.67 0 290.75 5.42"/><path class="cls-4" d="M1478.47,8.86l1.8,17.62,56.79-5.81-1.8-17.62S1478.53,9.43,1478.47,8.86Z"/><path class="cls-4" d="M1600.93,1.57s-57,2.16-57.07,1.58l.49,17.7,57.07-1.57Z"/><path class="cls-4" d="M328.92,10.3,329.17,28l57.08-.8L386,9.5S328.93,10.88,328.92,10.3Z"/><path class="cls-4" d="M350.25,53.21l0-1.33c-3.53.41-8.13.93-13.5,1.52Z"/><path class="cls-4" d="M292.92,36.3,293.17,54l43.56-.61c5.37-.59,10-1.11,13.5-1.52L350,35.5S292.93,36.88,292.92,36.3Z"/><polygon class="cls-4" points="225.64 5.19 282.66 8.01 283.05 0 225.9 0 225.64 5.19"/><path class="cls-4" d="M257.88,13.15s-57,2.09-57.06,1.51l.47,17.71,57.06-1.52Z"/><polygon class="cls-4" points="102.29 5.37 159.35 3.85 159.25 0 102.15 0 102.29 5.37"/><polygon class="cls-4" points="39.19 7.08 96.27 6.14 96.17 0 39.08 0 39.19 7.08"/><path class="cls-4" d="M229.9,38.37l.29,17.71,57.08-.94L287,37.43S229.91,38.94,229.9,38.37Z"/><path class="cls-4" d="M116.76,52.64l57.05,1.94.6-17.71s-57.07-1.36-57-1.93Z"/><polygon class="cls-4" points="164.19 4.08 221.27 3.14 221.22 0 164.13 0 164.19 4.08"/><path class="cls-4" d="M140.76,27.64l57.05,1.94.6-17.71s-57.07-1.36-57-1.93Z"/><path class="cls-4" d="M1572.86,28.15l.46,16.64,57.07-1.58-.46-16.64S1572.88,28.69,1572.86,28.15Z"/><polygon class="cls-4" points="1670.32 15.79 1727.39 14.21 1726.99 0 1669.89 0 1670.32 15.79"/><path class="cls-4" d="M1652.83,38c-.36,0-4.26,1.12-10.16,2.75l28.65-.79A61.72,61.72,0,0,0,1652.83,38Z"/><path class="cls-4" d="M1697.93,22.57s-57,2.12-57.07,1.58l.46,16.64,1.35,0c5.9-1.63,9.8-2.74,10.16-2.75a61.72,61.72,0,0,1,18.49,2l27.07-.75Z"/><polygon class="cls-4" points="1735.32 13.79 1792.39 12.21 1792.05 0 1734.94 0 1735.32 13.79"/><path class="cls-4" d="M1821.6,21s-57-2.75-57-3.29l-1,16.61,57,3.29Z"/><polygon class="cls-4" points="1804.32 10.79 1861.39 9.21 1861.13 0 1804.03 0 1804.32 10.79"/><path class="cls-4" d="M1807.86,43.15l.46,16.64,57.07-1.58-.46-16.64S1807.88,43.69,1807.86,43.15Z"/><path class="cls-4" d="M1826.86,20.15l.46,16.64,57.07-1.58-.46-16.64S1826.88,20.69,1826.86,20.15Z"/><path class="cls-4" d="M1926,9.25l1.43,0L1927.13,0h-1.25C1926,3.55,1926,6.7,1926,9.25Z"/><path class="cls-4" d="M1925.88,0H1870l.29,10.79L1926,9.25C1926,6.7,1926,3.55,1925.88,0Z"/></g></g></g></svg>