<svg xmlns="http://www.w3.org/2000/svg" xmlns:xlink="http://www.w3.org/1999/xlink" id="Capa_2" data-name="Capa 2" viewBox="0 0 2000 350"><defs><style>.cls-1{fill:none}.cls-2{fill:#676767}.cls-3{fill:#b1b0b0}.cls-4{fill:#8d583a}.cls-5{fill:#684032}.cls-6{fill:url(#Безымянный_градиент)}.cls-7{fill:#4b4336}.cls-8{fill:url(#Безымянный_градиент_2)}.cls-9{fill:url(#Безымянный_градиент_3)}.cls-10{fill:#989898}.cls-11{fill:url(#Безымянный_градиент_4)}.cls-12{fill:#5c5242}.cls-13{fill:#4f463a}.cls-14{fill:#675d4a}.cls-15{fill:#4d4638}.cls-16{fill:#645b49}.cls-17{fill:#595140}.cls-18{fill:url(#Безымянный_градиент_5)}.cls-19{fill:url(#Безымянный_градиент_6)}.cls-20{fill:url(#Безымянный_градиент_7)}.cls-21{fill:url(#Безымянный_градиент_8)}.cls-22{fill:url(#Безымянный_градиент_9)}.cls-23,.cls-29,.cls-31{fill:#667245}.cls-23,.cls-29,.cls-30,.cls-31,.cls-32,.cls-33{stroke-miterlimit:10;stroke-width:2px}.cls-23{stroke:url(#Безымянный_градиент_10)}.cls-24{fill:url(#Безымянный_градиент_11)}.cls-25{fill:url(#Безымянный_градиент_12)}.cls-26{fill:url(#Безымянный_градиент_13)}.cls-27{fill:url(#Безымянный_градиент_14)}.cls-28{fill:url(#Безымянный_градиент_15)}.cls-29{stroke:url(#Безымянный_градиент_16)}.cls-30{fill:url(#Безымянный_градиент_17);stroke:url(#Безымянный_градиент_18)}.cls-31{stroke:url(#Безымянный_градиент_19)}.cls-32{fill:url(#Безымянный_градиент_20);stroke:url(#Безымянный_градиент_21)}.cls-33{fill:url(#Безымянный_градиент_22);stroke:url(#Безымянный_градиент_23)}.cls-34{fill:url(#Безымянный_градиент_24)}.cls-35{fill:url(#Безымянный_градиент_25)}.cls-36{fill:url(#Безымянный_градиент_26)}.cls-37{fill:url(#Безымянный_градиент_27)}.cls-38{fill:url(#Безымянный_градиент_28)}.cls-39{fill:#b1b1b0}</style><linearGradient id="Безымянный_градиент" x1="387.82" x2="387.82" y1="144.32" y2="274.37" gradientTransform="matrix(1, 0, 0, -1, 0, 352)" gradientUnits="userSpaceOnUse"><stop offset="0" stop-color="#4b4336"/><stop offset=".17" stop-color="#50493c"/><stop offset=".4" stop-color="#5e584e"/><stop offset=".67" stop-color="#75726b"/><stop offset=".96" stop-color="#969593"/><stop offset="1" stop-color="#9a9a99"/></linearGradient><linearGradient id="Безымянный_градиент_2" x1="1086.7" x2="1086.7" y1="145.05" y2="294.03" gradientTransform="matrix(1, 0, 0, -1, 0, 352)" gradientUnits="userSpaceOnUse"><stop offset="0" stop-color="#4b4336"/><stop offset=".17" stop-color="#524b3f"/><stop offset=".44" stop-color="#655f56"/><stop offset=".78" stop-color="#83817d"/><stop offset="1" stop-color="#9a9a99"/></linearGradient><linearGradient id="Безымянный_градиент_3" x1="1336.95" x2="1336.95" y1="175.11" y2="344.75" gradientTransform="matrix(1, 0, 0, -1, 0, 352)" gradientUnits="userSpaceOnUse"><stop offset="0" stop-color="#4b4336"/><stop offset=".18" stop-color="#645f56"/><stop offset=".39" stop-color="#7c7973"/><stop offset=".6" stop-color="#8c8b88"/><stop offset=".81" stop-color="#979695"/><stop offset="1" stop-color="#9a9a99"/></linearGradient><linearGradient id="Безымянный_градиент_4" x1="1103.03" x2="1104.79" y1="1069.1" y2="911.21" gradientTransform="matrix(-1.15, -0.01, -0.01, 1.14, 2360.78, -975.2)" xlink:href="#Безымянный_градиент_2"/><linearGradient id="Безымянный_градиент_5" x1="-813.08" x2="-813.08" y1="2468.13" y2="2552.96" gradientTransform="matrix(0.6, 0.27, 0.35, -0.76, 858.55, 2306.52)" gradientUnits="userSpaceOnUse"><stop offset="0" stop-color="#524a43"/><stop offset=".54" stop-color="#534c43"/><stop offset=".74" stop-color="#565343"/><stop offset=".87" stop-color="#5c5e44"/><stop offset=".99" stop-color="#656f45"/><stop offset="1" stop-color="#667245"/></linearGradient><linearGradient id="Безымянный_градиент_6" x1="-794.69" x2="-794.69" y1="2501.66" y2="2532.04" gradientTransform="matrix(0.6, 0.27, 0.35, -0.76, 858.55, 2306.52)" gradientUnits="userSpaceOnUse"><stop offset="0" stop-color="#524a43"/><stop offset=".5" stop-color="#534c43"/><stop offset=".71" stop-color="#575343"/><stop offset=".87" stop-color="#5d5f44"/><stop offset=".99" stop-color="#657145"/><stop offset="1" stop-color="#667245"/></linearGradient><linearGradient id="Безымянный_градиент_7" x1="-763.42" x2="-786.94" y1="2527.26" y2="2540.84" gradientTransform="matrix(0.6, 0.27, 0.35, -0.76, 858.55, 2306.52)" gradientUnits="userSpaceOnUse"><stop offset="0" stop-color="#9baa61"/><stop offset="1" stop-color="#667245"/></linearGradient><linearGradient id="Безымянный_градиент_8" x1="-866.59" x2="-817.97" y1="2546.74" y2="2546.74" xlink:href="#Безымянный_градиент_7"/><linearGradient id="Безымянный_градиент_9" x1="5788.82" x2="5788.82" y1="-1880.27" y2="-1858.47" gradientTransform="matrix(-0.71, -0.27, 0.33, -0.73, 5199.36, 305.96)" xlink:href="#Безымянный_градиент_7"/><linearGradient id="Безымянный_градиент_10" x1="5835.95" x2="5886.64" y1="-1843.33" y2="-1843.33" gradientTransform="matrix(-0.79, -0.36, 0.29, -0.77, 5649.54, 809.91)" gradientUnits="userSpaceOnUse"><stop offset="0" stop-color="#524a43"/><stop offset=".3" stop-color="#555043"/><stop offset=".72" stop-color="#5e6244"/><stop offset="1" stop-color="#667245"/></linearGradient><linearGradient id="Безымянный_градиент_11" x1="5658.71" x2="5693.85" y1="-1873.4" y2="-1915.29" gradientTransform="matrix(-0.71, -0.27, 0.33, -0.73, 5199.36, 305.96)" xlink:href="#Безымянный_градиент_7"/><linearGradient id="Безымянный_градиент_12" x1="5747.79" x2="5732.11" y1="-1916.23" y2="-1889.08" gradientTransform="matrix(-0.71, -0.27, 0.33, -0.73, 5199.36, 305.96)" xlink:href="#Безымянный_градиент_7"/><linearGradient id="Безымянный_градиент_13" x1="5666.02" x2="5717.82" y1="-1811.86" y2="-1811.86" gradientTransform="matrix(-0.71, -0.27, 0.33, -0.73, 5199.36, 305.96)" xlink:href="#Безымянный_градиент_7"/><linearGradient id="Безымянный_градиент_14" x1="5708.58" x2="5739.27" y1="-1858.22" y2="-1869.4" gradientTransform="matrix(-0.71, -0.27, 0.33, -0.73, 5199.36, 305.96)" xlink:href="#Безымянный_градиент_7"/><linearGradient id="Безымянный_градиент_15" x1="5779.3" x2="5748.19" y1="-1813.91" y2="-1831.87" gradientTransform="matrix(-0.71, -0.27, 0.33, -0.73, 5199.36, 305.96)" xlink:href="#Безымянный_градиент_7"/><linearGradient id="Безымянный_градиент_16" x1="5696.36" x2="5748.32" y1="-1849.16" y2="-1849.16" gradientTransform="matrix(-0.71, -0.27, 0.33, -0.73, 5199.36, 305.96)" gradientUnits="userSpaceOnUse"><stop offset="0" stop-color="#667245"/><stop offset=".22" stop-color="#606644"/><stop offset=".69" stop-color="#565143"/><stop offset="1" stop-color="#524a43"/></linearGradient><linearGradient id="Безымянный_градиент_17" x1="5699.28" x2="5776.27" y1="-1898.9" y2="-1898.9" xlink:href="#Безымянный_градиент_16"/><linearGradient id="Безымянный_градиент_18" x1="5698.28" x2="5777.27" y1="-1898.96" y2="-1898.96" gradientTransform="matrix(-0.71, -0.27, 0.33, -0.73, 5199.36, 305.96)" xlink:href="#Безымянный_градиент_10"/><linearGradient id="Безымянный_градиент_19" x1="5690.09" x2="5702.5" y1="-1902.1" y2="-1902.1" xlink:href="#Безымянный_градиент_16"/><linearGradient id="Безымянный_градиент_20" x1="5739.48" x2="5773.32" y1="-1913.25" y2="-1913.25" gradientTransform="matrix(-0.73, -0.29, 0.32, -0.73, 5294.3, 404.84)" xlink:href="#Безымянный_градиент_10"/><linearGradient id="Безымянный_градиент_21" x1="5738.1" x2="5774.69" y1="-1913.47" y2="-1913.47" gradientTransform="matrix(-0.73, -0.29, 0.32, -0.73, 5294.3, 404.84)" xlink:href="#Безымянный_градиент_10"/><linearGradient id="Безымянный_градиент_22" x1="5728.17" x2="5736.84" y1="-1869.71" y2="-1869.71" xlink:href="#Безымянный_градиент_16"/><linearGradient id="Безымянный_градиент_23" x1="5726.77" x2="5738.2" y1="-1869.68" y2="-1869.68" xlink:href="#Безымянный_градиент_16"/><linearGradient id="Безымянный_градиент_24" x1="109.36" x2="109.36" y1="2876.44" y2="2962.95" xlink:href="#Безымянный_градиент_5"/><linearGradient id="Безымянный_градиент_25" x1="128.2" x2="128.2" y1="2910.63" y2="2941.61" xlink:href="#Безымянный_градиент_6"/><linearGradient id="Безымянный_градиент_26" x1="158.07" x2="134.08" y1="2931" y2="2944.85" xlink:href="#Безымянный_градиент_7"/><linearGradient id="Безымянный_градиент_27" x1="56.17" x2="105.75" y1="2949.76" y2="2949.76" xlink:href="#Безымянный_градиент_7"/><linearGradient id="Безымянный_градиент_28" x1="1890.41" x2="1890.41" y1="156.25" y2="286.21" xlink:href="#Безымянный_градиент"/></defs><title>footer</title><path d="M505.4,160.17a13.79,13.79,0,0,1-1.89,1.6c1.15.06,3.26.09,6,.11A5.72,5.72,0,0,0,505.4,160.17Z" class="cls-1"/><path d="M531.85,90.73l.09.09Z" class="cls-2"/><path d="M868,175l-2.2.15A7.38,7.38,0,0,0,868,175Z" class="cls-3"/><path d="M652.68,134.43l1.71-.71c-3.12-3.38-8-6.76-11.7-5.35l2.87,3.35Z" class="cls-3"/><path d="M673.51,154.78l.06-.12-.24-.07c-1.71-.57-3.94-1.47-5.84-2l-.14.09Z" class="cls-3"/><path d="M517.09,89.33c-1.46-1.47-4.65-3-7.64-4.46l7.78,4.61Z" class="cls-3"/><path d="M582.14,108.32l.75-.82-.53-.37-.1-.15-1.81,1.68Z" class="cls-3"/><path d="M525,103.45c-1.12,1.08-1.86,1.82-1.86,1.82l9.49,2.37,4-3.08c-2.5-.24-7.79-.86-10.07-2.36Z" class="cls-3"/><path d="M715.41,144.6a14.93,14.93,0,0,1-2.91,1,22.78,22.78,0,0,1,.38,2.84v.65C714.13,146.94,715.61,144.41,715.41,144.6Z" class="cls-3"/><path d="M833.42,149.69l.09-3a3.36,3.36,0,0,1-.49-.35l-.28,3Z" class="cls-3"/><path d="M525.85,101.54c-1.55-2-1.34-2.35-2.49-3.78l-3.06,2.46-.06-.09-.83.73,5.43,2.71.16-.12,1.43-1.38A2.93,2.93,0,0,1,525.85,101.54Z" class="cls-3"/><path d="M526.43,102.07,525,103.45l1.61-1.25Z" class="cls-3"/><path d="M521.05,95.26c-.54-.53-.95-1-1.3-1.39l-1,.89-.15-.11-1.21,1.12,2.87,4.36,3-2.58C522.72,97,522.06,96.27,521.05,95.26Z" class="cls-3"/><path d="M523.36,97.76l-.17-.21-3,2.58.06.09Z" class="cls-3"/><path d="M518.54,92.08l-1.7,1.23h0l-.14.12,1.88,1.25,1-1A8,8,0,0,1,518.54,92.08Z" class="cls-3"/><path d="M519.75,93.87l-.14-.18-1,1,.15.11Z" class="cls-3"/><path d="M517.72,90.07l-1,.78.14,2.43,1.6-1.43A7.7,7.7,0,0,0,517.72,90.07Z" class="cls-3"/><path d="M826,152.09l-.65-18.52s-51.19,2.41-51.21,1.81l.65,18.52Z" class="cls-4"/><path d="M677,161.3s-47-.84-47-1.38l-.48,16.51,47,1.37Z" class="cls-4"/><path d="M683.69,160.71v16.51h47.06V160.71S683.69,161.25,683.69,160.71Z" class="cls-4"/><path d="M650.6,137.2s-47-2.15-47-2.69l-1,16.48,47,2.7Z" class="cls-4"/><path d="M830.83,183.32l.88,16.49,38.38-2.06V181.31C856.31,182.17,830.85,183.71,830.83,183.32Z" class="cls-4"/><path d="M856.2,176.21l7.59-.92a4,4,0,0,1,1.84-.17h.15L868,175c.86-.2,1.51-.51,2.11-.62V160.11c-7.79-.09-13.68-.22-13.68-.4Z" class="cls-4"/><path d="M662.54,183.67v16.51h47.05V183.67S662.54,184.21,662.54,183.67Z" class="cls-4"/><path d="M785.43,161.22s-47.91-1.84-47.89-2.38l-.82,16.49,47.89,2.38Z" class="cls-5"/><path d="M777.93,184.16v16.51h47.94V184.16S777.93,184.7,777.93,184.16Z" class="cls-4"/><path d="M791.53,160v16.51h54.09V160S791.53,160.56,791.53,160Z" class="cls-4"/><path d="M594.84,163.46s-3.54,2.16-5.93,2c-.61-.05.7-2.38,0-2.43-8.27-.65-22.27-1.76-22.27-1.91v16.51h53.21V161.1l-25,.38Z" class="cls-4"/><path d="M511.16,165.92a5.77,5.77,0,0,0-1.66-4c-2.73,0-4.84,0-6-.11a9.64,9.64,0,0,1-1,.66v15.74h8.63V165.92Z" class="cls-4"/><path d="M555.74,161.66s-31.82.32-46.24.22a5.77,5.77,0,0,1,1.66,4v12.25h44.58Z" class="cls-4"/><path d="M502.53,161.66v.77c.36-.22.69-.44,1-.66A2.8,2.8,0,0,1,502.53,161.66Z" class="cls-4"/><path d="M597.55,134.47s-53.19,1.6-53.2,1.06l.33,16.51,53.2-1.06Z" class="cls-4"/><path d="M769.06,134s-18.76.22-33.58.26c-1.43.72-3.69.24-4.94,1.42a4.53,4.53,0,0,1-.68.63,2.33,2.33,0,0,1-.72.23l-6.36,1.21a10.73,10.73,0,0,1-1.12,1.79c-.19.24-.46.5-.76.43s-.38-.25-.59-.27-.51.3-.63.59a37,37,0,0,1-1.87,3.72v8.52h51.25Z" class="cls-4"/><path d="M865.78,175.13h-.15a4,4,0,0,0-1.84.17h.41Z" class="cls-3"/><path d="M236.25,197.58v-1.23c-3.29.37-7.58.86-12.58,1.41Z" class="cls-4"/><path d="M182.82,181.82l.23,16.51,40.61-.57c5-.55,9.29-1,12.58-1.41L236,181.08S182.83,182.36,182.82,181.82Z" class="cls-4"/><path d="M120.11,152.83l53.14,2.62.81-16.49s-53.17-2.09-53.14-2.62Z" class="cls-4"/><path d="M96.93,130l53.19,1.65.51-16.51S97.43,114,97.45,113.5Z" class="cls-4"/><path d="M150.16,160.24S97,162.19,97,161.65l.44,16.5,53.19-1.41Z" class="cls-4"/><path d="M124.08,183.75l.27,16.51,53.2-.87-.27-16.51S124.09,184.29,124.08,183.75Z" class="cls-4"/><path d="M18.61,197.05l53.18,1.81.56-16.5s-53.19-1.27-53.17-1.81Z" class="cls-4"/><path d="M831.71,199.81l-.88-16.49c0,.39,25.48-1.15,39.26-2v-3.15l-7.17-1a1.57,1.57,0,0,1,.87-1.87l-7.59.92.21-16.5c0,.18,5.89.31,13.68.4v-3.06c-7.58,3.14-17.05-4.27-22.73-.48-5.93,4-11.87-5.93-13.84-9.89h0l-.09,3-.68-.34.28-3c-3.07-2.59.48-12-3.46-13.49-4.13-1.63-36.67-2.34-43.51-2s-19-4-29.66-4c-5.06,0-7.42,3.6-12.48,3.6-3.51,0-10.7-1.51-13,.43l-4.74,2.31a10.74,10.74,0,0,0-3.46,1.3l-.49,1.59-.8-.49-3.94,7.61-4.07-1.36-.5-.74-.56.86a13.82,13.82,0,0,0,.18,3.63,14.93,14.93,0,0,0,2.91-1c.2-.19-1.28,2.34-2.57,4.53a5.76,5.76,0,0,1-5.72,5.11s-27.16,2.27-33.55.42l-.06.12-6.16-2.05.14-.09h-.1c-7.91-2-9.88-11.86-9.88-13.84,0-1-1.25-3-3.12-5.05l-1.71.71-7.12-2.71-2.87-3.35a4.71,4.71,0,0,0-1,.51c-5.93,4-15.82,0-15.82,0-7.91,0-21.75-2-25.71-5.93s-11.39-11.39-17.26-15.45l-.75.82-1.69.34,1.81-1.68c-2.31-3.81-18.52-3.81-21.66-3.81L537,104.59h-.36l-4,3.08-9.49-2.37s.74-.74,1.86-1.82l-.16.12-5.43-2.71.83-.73-2.87-4.36,1.21-1.12L516.7,93.4l.14-.12-.14-2.43,1-.78a4.65,4.65,0,0,0-.49-.59l-7.78-4.61c-2.71-1.31-5.26-2.51-6.2-3.45-2-2-14.79-.92-19.65-2.45l-13.17-1.34v.08H455.15s-29.29,9.76-29.29,5.65-24.66-3.59-24.66-3.59-28.26-3.6-36,0-20.52,9.76-45.2,3.59-17,21.48-17,21.48a239.83,239.83,0,0,1-55.72.68c-14.18-1.49,4.39-9.3-10.46-14.39C218,84.7,163.16,84.6,177.14,107c0,2-14.6,4.93-26.1,0-6.52-2.79-26.83,1.49-26.1.94,7.46-5.6-3.73-20.51-9.32-21.44-38.41-6.4-68,0-74.57.93A329.93,329.93,0,0,1,4.7,90.2s-14.5,12.62-8.39,14-30.76,2.79-46.6,4.66c-18.65-6.53-38.22-8.39-41.95,8.39-1.66,7.47-5.17,24.51,2.8,26.1,9,1.78-11.19,0,7.45,17.71,2.54,1.05,21.55,18.88,42.88,4.66,11.19-7.46,73.19-9.49,76.43-9.32,4.44.22,2,21.43-2.79,21.43C14,177.81-9.28,189.93,15.89,203c10.19.4,50.18-.37,59.65,0,4.9.19,10.29-18.83,14.91-18.64,39.56,1.59,28,19.76,29.83,20.5,7.5,3,70.57-3.46,103.38-7.08l-40.61.57-.23-16.51c0,.54,53.2-.74,53.2-.74l.22,15.27,7.08-.83s44.74-26.1,92.95-14.58l5.84-28.73s3.37,6.49,19.3,5,19.75-3.41,19.75-3.41,25.09,6.12,33.24,2.73c12-5,30.47.87,30.47.87l31.34,14.9,1.33.14c.34-4.6,1.34-10,4.48-11.12,1.61-.56,2.82-.42,5.41,1.23a13.44,13.44,0,0,0,15.1-.07v-.77a2.8,2.8,0,0,0,1,.11,13.79,13.79,0,0,0,1.89-1.6,5.74,5.74,0,0,1,4.1,1.71c14.42.1,46.24-.22,46.24-.22v16.51h-44.6a5.76,5.76,0,0,0,5.76,5.73l16,.36h47.47a54.71,54.71,0,0,1,9.89,2c12.76,3.55,19.23,6,39.55-2.33,3.95-1.62,19.95,0,19.95,0,3.18,0,13.67-.71,5.76,5.76s0,10.24,0,10.24a5.74,5.74,0,0,0,5.75,5.75h51.78a5.74,5.74,0,0,0,5.75-5.73v0s-5.93-12.75,0-10.24,2.58-5.76,5.76-5.76c0,0,6.11-6.29,12,0s27.87,0,27.87,0a5.74,5.74,0,0,1,5.75,5.75h0v12.22a5.76,5.76,0,0,0,5.76,5.75h94.1V197.8ZM845.62,160v16.51H791.53V160C791.53,160.56,845.62,160,845.62,160Zm-20.31-26.45.65,18.52-51.21,1.81-.65-18.52c0,.64,51.21-1.79,51.21-1.79Zm-221.68.94c0,.54,47,2.69,47,2.69l-.94,16.49-47-2.7Zm-77.84-25c0,.54,53.21,0,53.21,0V126H525.79ZM488.31,86.08c0,.19,16.16.88,16.35.72s3.92,1.7,3.92,1.7L512,93.31l-.82,1.87,3.6.51s4.62,5.14,3.6,6.68c0,.52-30.53.21-30.53.21Zm-59.73,1.28c0,.41,30.48.2,45.3.07,4.77,0,2,3.89,2,3.89l5.93,2V103.9l-23.73-.69,4-4-5.81,4.9-27.63-.26Zm25.65,21.11,1.27,16.46-53.05,4.12-1.27-16.46c0,.53,53.05-4.12,53.05-4.12ZM370.14,86.59c0,.54,53.18,1.59,53.18,1.59l-.49,16.5-53.19-1.59Zm-7.28,3,.23,16.51-53.21.74-.23-16.51c0,.53,53.21-.75,53.21-.75ZM333,112l.23,16.51-53.2.74-.23-16.5C279.76,113.28,333,112,333,112Zm-36.69,22.42.23,16.51-53.2.74-.23-16.5c0,.53,53.16-.75,53.16-.75ZM269.78,112l.23,16.51-53.21.74-.23-16.5C216.58,113.28,269.78,112,269.78,112Zm-33.3-19,.24,16.51-53.21.75-.23-16.51C183.29,94.26,236.48,93,236.48,93Zm-80.31,20.55c0,.53,53.18,1.64,53.18,1.64l-.51,16.51L155.66,130ZM174.06,139l-.81,16.49-53.14-2.62.81-16.49C120.89,136.87,174.06,139,174.06,139Zm-23.43-23.8-.51,16.51L96.93,130l.52-16.5c0,.55,53.18,1.66,53.18,1.66Zm-34.87,19.25L116,151l-53.2.87-.27-16.51c0,.5,53.2-.91,53.2-.91Zm-78-2.86L37.31,115c0,.54,53.19-1.41,53.19-1.41l.44,16.51ZM66.7,91.19c0,.53,53.18,1.64,53.18,1.64l-.51,16.51-53.19-1.65Zm-6,1,.43,16.5L7.92,110.11l-.43-16.5c0,.53,53.19-1.41,53.19-1.41ZM26.3,114.82l.27,16.51-53.2.87-.28-16.5c0,.54,53.19-.87,53.19-.87ZM-88.17,132.21l-.27-16.5c0,.53,53.2-.88,53.2-.88l.27,16.51Zm34.48,22.37-.27-16.5c0,.53,53.21-.88,53.21-.88l.27,16.51ZM5.13,153l-.44-16.51c0,.54,53.19-1.41,53.19-1.41l.44,16.51Zm66.66,45.87-53.18-1.81.57-16.5c0,.54,53.17,1.81,53.17,1.81Zm22.37-23.31L41,173.75l.56-16.5c0,.53,53.18,1.8,53.18,1.8Zm3.25,2.6L97,161.65c0,.54,53.19-1.41,53.19-1.41l.44,16.5Zm26.94,22.11-.27-16.51c0,.54,53.2-.87,53.2-.87l.27,16.51ZM180.79,153l-.23-16.5c0,.53,53.21-.75,53.21-.75l.23,16.51Zm35.82,21.07-.24-16.51c0,.53,53.21-.75,53.21-.75l.23,16.51Zm63.38,0-.23-16.51c0,.53,53.2-.75,53.2-.75l.23,16.51ZM302.41,151l-.23-16.51c0,.53,53.2-.75,53.2-.75l.23,16.51Zm38.82-23.62-.24-16.5c0,.53,53.21-.75,53.21-.75l.23,16.51Zm20,21.88-.09-16.51c0,.54,53.21-.31,53.21-.31l0,16.56ZM423,150.51,422.69,134c0,.53,53.2-.75,53.2-.75l.23,16.51Zm40.59-24.67-.23-16.51c0,.54,53.2-.74,53.2-.74l.23,16.51ZM535.67,151l-53.19-1.34.41-16.5c0,.53,53.2,1.34,53.2,1.34Zm9,1-.33-16.51c0,.54,53.2-1.06,53.2-1.06l.33,16.51Zm75.17,25.57h-53.2V161.1c0,.15,14,1.26,22.27,1.91.7.05-.61,2.38,0,2.43,2.39.18,5.93-2,5.93-2v-2l25-.38Zm9.68-1.18.48-16.51c0,.54,47,1.38,47,1.38l-.48,16.5Zm80.06,23.75h-47V183.67c0,.54,47.05,0,47.05,0Zm21.16-23h-47V160.71c0,.54,47.06,0,47.06,0ZM717.81,152.5V144a37,37,0,0,0,1.87-3.72c.12-.29.32-.62.63-.59s.37.22.59.27.57-.19.76-.43a10.73,10.73,0,0,0,1.12-1.79l6.36-1.21a2.33,2.33,0,0,0,.72-.23,4.53,4.53,0,0,0,.68-.63c1.25-1.18,3.51-.7,4.94-1.42,14.82,0,33.58-.26,33.58-.26V152.5Zm18.91,22.83.82-16.49c0,.54,47.89,2.38,47.89,2.38l-.82,16.49Zm89.15,25.34H777.93V184.16c0,.54,47.94,0,47.94,0Z" class="cls-6"/><path d="M482.48,149.7l53.19,1.3.42-16.5s-53.21-.81-53.2-1.34Z" class="cls-5"/><path d="M579,109.53s-53.21.54-53.21,0V126H579Z" class="cls-4"/><path d="M516.48,108.59s-53.2,1.28-53.2.74l.23,16.51,53.2-.74Z" class="cls-4"/><path d="M462,99.23l-4,4,23.73.69V93.29l-5.93-2s2.79-3.93-2-3.89c-14.82.13-45.3.34-45.3-.07v16.51l27.63.26Z" class="cls-4"/><path d="M423.32,88.18s-53.2-1.05-53.18-1.59l-.5,16.5,53.19,1.59Z" class="cls-4"/><path d="M363.09,106.09l-.23-16.51s-53.2,1.28-53.21.74l.23,16.51Z" class="cls-4"/><path d="M401.18,112.59l1.27,16.46,53.05-4.12-1.27-16.46S401.22,113.12,401.18,112.59Z" class="cls-4"/><path d="M422.69,134l.23,16.51,53.2-.75-.23-16.51S422.69,134.53,422.69,134Z" class="cls-4"/><path d="M394.2,110.13s-53.2,1.28-53.21.75l.24,16.5,53.2-.74Z" class="cls-5"/><path d="M518.35,102.37c1-1.54-3.6-6.68-3.6-6.68l-3.6-.51.82-1.87-3.39-4.81s-3.64-1.94-3.92-1.7-16.36-.53-16.35-.72l-.49,16.5S518.35,102.89,518.35,102.37Z" class="cls-4"/><path d="M361.1,132.75l.09,16.51L414.4,149l-.09-16.51S361.1,133.29,361.1,132.75Z" class="cls-4"/><path d="M333.19,128.51,333,112s-53.2,1.28-53.2.75l.23,16.5Z" class="cls-4"/><path d="M236.72,109.48,236.48,93s-53.19,1.29-53.2.75l.23,16.51Z" class="cls-4"/><path d="M216.57,112.75l.23,16.5,53.21-.74L269.78,112S216.58,113.28,216.57,112.75Z" class="cls-4"/><path d="M302.18,134.49l.23,16.51,53.2-.75-.23-16.51S302.19,135,302.18,134.49Z" class="cls-4"/><path d="M243.07,135.17l.23,16.5,53.2-.74-.23-16.51S243.08,135.7,243.07,135.17Z" class="cls-4"/><path d="M279.76,157.59,280,174.1l53.2-.75-.2-16.51S279.76,158.12,279.76,157.59Z" class="cls-4"/><path d="M233.77,135.78s-53.2,1.28-53.21.75l.23,16.5,53.21-.74Z" class="cls-4"/><path d="M216.37,157.59l.24,16.51,53.2-.75-.23-16.51S216.38,158.12,216.37,157.59Z" class="cls-4"/><path d="M209.35,115.16s-53.2-1.11-53.18-1.64l-.51,16.5,53.18,1.65Z" class="cls-4"/><path d="M119.87,92.79s-53.2-1.11-53.18-1.64l-.52,16.5,53.19,1.65Z" class="cls-4"/><path d="M61.11,108.7l-.43-16.5S7.5,94.14,7.49,93.61l.43,16.5Z" class="cls-4"/><path d="M90.5,113.63s-53.17,2-53.19,1.41l.44,16.51,53.19-1.41Z" class="cls-4"/><path d="M57.88,135.07S4.7,137,4.69,136.48L5.13,153l53.19-1.41Z" class="cls-4"/><path d="M26.55,131.34l-.27-16.51s-53.2,1.41-53.21.88l.28,16.5Z" class="cls-4"/><path d="M116,150.92l-.27-16.51s-53.19,1.41-53.2.87l.27,16.51Z" class="cls-4"/><path d="M41,173.75l53.17,1.8.57-16.5s-53.2-1.27-53.18-1.8Z" class="cls-4"/><path d="M1845.37,113.45c41-11.78,105.63-6.66,105.63-.22s56.67,5.77,56.67,5.77L2023,431.67l-284.67-8L1096.08,389l-30.6-23.33" class="cls-7"/><path d="M510.19,156.35c-22.76,6.15-65.32,1-65.32,1s-38.61-10.92-43.69-2.57c-2.1,3.45-6.7-2.78-20-1-6.64.88-7.18,2.18-13.45,2.71-3.15.26-22.94-4.43-25.6-4.25-7.09.49-13.21,27.25-23.66,16.81,0,0-40.35,9.15-51.44,6.26-11.32-3-49.22,11.22-60.62-2.36s9.28-43.33-34.72-40.46S75.52,147.7,61.59,144.25,1.68,135.37-5,142.11-13.67,336-13.67,336l48.54,57.33,621.82,3.34,105-84Z" class="cls-7"/><path d="M695.54,207.84c22.54-1.61,35.81-5.45,50.3-3.87,13.69,1.49,15.65,13.06,38.69,20.63,5.73,1.89,12.2.83,25.14-1.29,22.8-3.72,3.23-10.31,39.34-7.09,7.77.69,5.44,7.62,16.76,15.48,6.07,4.2,10.33,3.81,17.41,0,16.77-9,22.25-16,38.05-13.55,20.63,3.23,13.12,5.19,33.53,8.39s33.15-2.11,51.59,5.16c6.64,2.61,9.07,5.79,13.54,9,26.67,19.31,74.76-19.38,113.49-12.25,24.5,4.52,35.35-17.3,59.32-21.28,10.07-1.67,19.78-12,30.31-5.8,7.86,4.61,13.18,2.07,20,1.93s5,2.56,13.54-1.93c12.13-6.4,26.53-2.13,38,1.29a107.92,107.92,0,0,1,24.51,11c12.25,7,29.8,19.08,80.6,13.54,35.46-3.87,23-8.23,38-18,11.92-7.8,16.06-2.69,21.93-3.23,14.46-1.33,17.1,10.68,32.88,10.32,12.11-.27,14.8-7.43,28.38-6.45,7.63.55,7.49,2.87,17.41,5.16,18,4.16,23.42-2.33,38,1.29,11.19,2.77,9.09,6.84,24.5,13.54,11.64,5.06,27.42,2.24,39.34-3.87,9.7-5,6.49-3.55,21.28-16.12,6-5.1,13-11.06,20.63-9.67s8.33,9,17.41,11c5.81,1.25,7.53-1.44,17.41-2.58,8.33-1,14.62.08,21.93,1.29,18.1,3,19,1.46,24.5-1.93,6.13-3.78,7.89-5.89,13.54-7.74,4.33-1.42,19.24,2.87,25.79,5.16,13.9,4.85,10.08-9.57,25.8-7.74,11.36,1.33,22.27,16.57,38.69,10.32,13.54-5.16,11.37-14.67,32.88-10.32,12.65,2.56,13.53,26.1,18.7,29.66,19.52,13.46,16.62,66.86,1.29,92.21-42.22,69.83-215.36-12.7-519.08.65-48.18,2.11-119,5.23-212.15,21.92-169.14,30.32-186.82,65.13-292.1,61.9-34.77-1.06-9.16-4.13-239.88-54.16-86.18-18.76-126.82-26.38-132.08-51-6.06-28.39,36.18-73.63,70.29-72.22,17.52.72,11,8.36,26.43,2.58,17-6.4,32.81-21.16,47.72-23.86C683.63,202.63,680.54,208.9,695.54,207.84Z" class="cls-7"/><path d="M1449.44,110.68c-.35,4.33-1.39,9.46-4.65,10.49-1.66.53-2.92.39-5.6-1.16-10.25-5.94-18.63,2.2-18.63,2.2a5.71,5.71,0,0,1-6-5.41V105.24a5.71,5.71,0,0,0-6-5.43h0L1392,99.48H1342.8a62.33,62.33,0,0,1-10.24-1.87c-13.23-3.34-19.93-5.67-41,2.2-4.1,1.53-20.68,0-20.68,0-3.29,0-14.16.67-6-5.43s0-9.67,0-9.67a5.72,5.72,0,0,0-6-5.43h-53.64a5.71,5.71,0,0,0-6,5.41v0s6.15,12,0,9.67-2.67,5.43-6,5.43c0,0-6.33,5.94-12.47,0s-28.87,0-28.87,0a5.72,5.72,0,0,1-6-5.43h0V82.85a5.71,5.71,0,0,0-6-5.43H967.72a5.72,5.72,0,0,0-6,5.43h0V94.38a5.71,5.71,0,0,1-6,5.43h0L939,99.56c-2.85,0-9.48-1-9-2.64,5.85-20.85,1.78-21.51-57.31-20.06-10.66.27,3.17,20.92-7.46,22.79-5,.89-33.72,1.65-45.78,1-7.77-.43-5.74-23.42-18.1-24.73-1-.11-19.16,1.46-31.41.49,0,0,3-18.92-.53-18.43h-59.1c-9,3.4-10.65,18.91-10.65,18.91s-38.92,4.66-71.92,27.94c-11.74,13.55-40.74,3.4-45.86,17.71-6.94,19.55-42.25,21.87-42.25,21.87l56.22,35.74a28.7,28.7,0,0,1,22.9,9.69c10.11,11.16,30.87,20.37,45.25,16s16.5-9.22,38.86-4.85,20.23-4.37,18.1-5.82,23.42-17,27.15-12.12,13.84,2.42,16,5.33,5.06.67,5.06.67c0,3,15,5.94,18.26,5.94a54.69,54.69,0,0,0,10.43-2.2c13.43-4.08,37.92,4.89,43.21,2.2a20.17,20.17,0,0,0,10.06-11.53A14,14,0,0,1,862.69,174c5.81-.81,10.95-1.68,15-6.78,2-4.24-8.19-9.83,0-11.53,8.2-5.77,0-2,12.3-3.9,11.28-1.72,36.77-5.56,53.27-1.87,6.15,4,16.58.34,16.58.34,3.29,0,1.86-3.07,6-5.44s4.1-11.7,4.1-11.7c2-7.46,23.35-3.73,26.64-3.73,0,0,37.07.33,45.08-3.73s18.44,3.73,24.59,0,12.29,5.6,14.34,9.33c4.1,1.87-.18,11.53,4.1,13.06s38,2.21,45.08,1.87,19.74,3.73,30.74,3.73c5.24,0,7.68-3.39,12.92-3.39,3.64,0,11.09,1.42,13.5-.4l4.91-2.18c3.37-.56,2.66-1.49,5.55-1.49.48.16,1.89-.57,2.32-.83,1.78-1-.27-2.91,1.78-2.91.8,0,0-1.86,3-.66,3.17-1.2,1.12-6.51,1.13-8.5a5.71,5.71,0,0,1,6-5.43h0s28.87-2.2,35-.34c1.79.55,4.16,1.42,6.14,1.87,8.2,1.87,10.25,11.2,10.25,13.06,0,2.64,10.24,13.07,16.39,9.34s16.39,0,16.39,0c8.2,0,22.54,1.86,26.64,5.6s12.3,11.19,18.44,14.93c2.05,3.73,19.25,3.73,22.54,3.73l24.41-1.34c2.72.23,9.93.92,11.6,2.88,2.27,2.68.88,2.19,5,5.93s2,3.73,4.09,5.59c2.9,2.64,12.3,5.6,14.35,7.47s15.32.87,20.36,2.31l13.64,1.26V200h15.84s30.35-9.22,30.35-5.34,25.55,3.4,25.55,3.4,29.28,3.39,37.27,0,21.29-9.21,46.84-3.4S1633.4,186,1633.4,186a332.29,332.29,0,0,1-2.13-35.4c0-17.94-22.35-17-22.35-17l-19.17-3.88s-19.7,8.24-36.2,9.7-4.26-11.16-4.26-11.16-29.81-7.75-37.26,2.43-28.75-5.82-28.75-5.82l-32.47-14.06Z" class="cls-8"/><path d="M1142.17,145.6l-.68-17.47-53.06,1.71.68,17.47S1142.15,145,1142.17,145.6Z" class="cls-4"/><path d="M1291.46,122.44l.5-15.57-48.73-1.3-.5,15.57S1291.48,121.93,1291.46,122.44Z" class="cls-4"/><path d="M1235.84,121.69V106.11h-48.76v15.58S1235.84,121.19,1235.84,121.69Z" class="cls-4"/><path d="M1318.79,146.42l1-15.55-48.67-2.55-1,15.56S1318.83,145.92,1318.79,146.42Z" class="cls-4"/><path d="M1083.38,100.36l-.91-15.56-49.6,2.42.91,15.56S1083.35,99.85,1083.38,100.36Z" class="cls-4"/><path d="M1025,99.56V84H975.28V99.56S1025,99.06,1025,99.56Z" class="cls-4"/><path d="M1056.88,122.65l.21-15.58-8.28.91-4.22.27.74-2.55-41.1,1.9-.2,14.45S1056.89,122.14,1056.88,122.65Z" class="cls-4"/><path d="M835.3,146.38V130.79H780.17v15.59S835.3,145.87,835.3,146.38Z" class="cls-4"/><path d="M806,164.56,805.49,149l-55.11,1.38.47,15.58S806,164.06,806,164.56Z" class="cls-4"/><path d="M842.55,188.53,842.6,173l-55.13-.15-.05,15.58S842.55,188,842.55,188.53Z" class="cls-5"/><path d="M860.77,122.54V107H805.64v15.59S860.77,122,860.77,122.54Z" class="cls-5"/><path d="M869,164V148.43H813.82V164S869,163.51,869,164Z" class="cls-4"/><path d="M897.15,146.38V130.79H842v15.59S897.15,145.87,897.15,146.38Z" class="cls-4"/><path d="M797.55,124.51V108.93H742.42v15.58S797.55,124,797.55,124.51Z" class="cls-4"/><path d="M1257.76,100V84.45H1209V100S1257.76,99.52,1257.76,100Z" class="cls-4"/><path d="M1180,123.46l.85-15.56-49.61-2.25-.85,15.57S1180.07,123,1180,123.46Z" class="cls-5"/><path d="M1138.2,99.56V84h-49.67V99.56S1138.2,99.06,1138.2,99.56Z" class="cls-4"/><path d="M1124.1,122.35V106.77h-56v15.58S1124.1,121.84,1124.1,122.35Z" class="cls-4"/><path d="M993,122.76V107.18H934.35v15.58S993,122.26,993,122.76Z" class="cls-4"/><path d="M960.52,145.51l-.31-15.58-55.12.9.31,15.58S960.51,145,960.52,145.51Z" class="cls-4"/><path d="M1357.12,121.33V105.75H1302v15.58l25.91-.36V119.1s3.67-2,6.14-1.87c.63,0-.73,2.25,0,2.3C1342.62,120.14,1357.12,121.18,1357.12,121.33Z" class="cls-4"/><path d="M1443.89,147.66l.43-15.57-55.11-1.27-.44,15.58S1443.9,147.16,1443.89,147.66Z" class="cls-5"/><path d="M1399.44,170V154.42h-55.13V170S1399.44,169.49,1399.44,170Z" class="cls-4"/><path d="M1423.54,120.8V105.22h-55.13V120.8S1423.54,120.29,1423.54,120.8Z" class="cls-4"/><path d="M1464.21,170.18,1464,154.6l-55.12.71.24,15.58S1464.21,169.68,1464.21,170.18Z" class="cls-4"/><path d="M1380.21,145.46l-.34-15.58-55.12,1,.34,15.58S1380.2,145,1380.21,145.46Z" class="cls-4"/><path d="M1500.16,190.92V175.34l-28.62-.24-6,4.62,4.1-3.73-24.59-.65v10l6.14,1.87s-2.88,3.7,2,3.66C1468.58,190.73,1500.16,190.54,1500.16,190.92Z" class="cls-4"/><path d="M924.44,124V108.4H869.31V124S924.44,123.47,924.44,124Z" class="cls-4"/><path d="M924.71,96.85V81.27H874.79V96.85S924.71,96.35,924.71,96.85Z" class="cls-4"/><path d="M1182.18,146.68c1.48-.67,3.82-.22,5.12-1.33a5.12,5.12,0,0,1,.71-.6,2.33,2.33,0,0,1,.74-.21l6.58-1.14a9.79,9.79,0,0,1,1.17-1.69c.2-.23.48-.48.79-.41s.39.24.61.26.52-.29.65-.56a35.11,35.11,0,0,1,1.93-3.51v-8.05h-53.09v17.49S1166.82,146.72,1182.18,146.68Z" class="cls-4"/><path d="M1560.72,191.65l.51-15.57-55.11-1.51-.51,15.58S1560.73,191.14,1560.72,191.65Z" class="cls-4"/><path d="M1623.39,188.12l-.24-15.58-55.13.71.24,15.58S1623.38,187.62,1623.39,188.12Z" class="cls-4"/><path d="M1528.56,167.12l-1.33-15.54-55,3.89,1.32,15.53S1528.51,166.61,1528.56,167.12Z" class="cls-4"/><path d="M1506.27,146.91l-.24-15.58-55.13.7.24,15.58S1506.26,146.4,1506.27,146.91Z" class="cls-4"/><path d="M1590.91,168.73l-.24-15.58-55.12.7.24,15.58S1590.91,168.22,1590.91,168.73Z" class="cls-5"/><path d="M1438.28,192.13l.51-15.57s-31.63-.29-31.63.19c-1.07,1.46,3.72,6.31,3.72,6.31l3.73.48-.85,1.76,3.51,4.54s3.78,1.83,4.07,1.61S1438.28,192,1438.28,192.13Z" class="cls-4"/><path d="M1570.08,148.08l-.1-15.58-55.13.3.1,15.58S1570.08,147.58,1570.08,148.08Z" class="cls-4"/><path d="M773,146.62l-.47-15.57-55.11,1.38.47,15.58S772.94,146.11,773,146.62Z" class="cls-4"/><path d="M742.61,166l-.47-15.58L687,151.83l.47,15.57S742.6,165.51,742.61,166Z" class="cls-5"/><path d="M806,99.1l-.47-15.57-55.11,1.38.47,15.58S806,98.59,806,99.1Z" class="cls-4"/><path d="M733.33,125l.64-15.57-55.09-1.87-.64,15.57S733.35,124.45,733.33,125Z" class="cls-4"/><path d="M712.27,147.59,711.8,132l-55.11,1.38.47,15.58S712.25,147.08,712.27,147.59Z" class="cls-4"/><path d="M742.61,101l-.47-15.57L687,86.85l.47,15.58S742.6,100.53,742.61,101Z" class="cls-4"/><path d="M766,79.22l-.47-15.57L710.46,65l.47,15.58S766,78.71,766,79.22Z" class="cls-5"/><path d="M677.14,168.44l-.48-15.57-55.11,1.38.47,15.58S677.12,167.93,677.14,168.44Z" class="cls-4"/><path d="M777.75,187.84l-.47-15.58-55.11,1.39.47,15.57s-.64-3.58,4.17-3.74c5.28-.17,10.86-6.09,18.1-6.3,6.33-.19,18.53,7.13,23.43,6.79C775.26,185.48,777.75,187.7,777.75,187.84Z" class="cls-4"/><path d="M714.93,189.29l-.47-15.57-55.11,1.38.47,15.58S714.92,188.78,714.93,189.29Z" class="cls-4"/><path d="M672.64,125l.64-15.57-33.77-1-21.83,9.7-.13,5S672.66,124.45,672.64,125Z" class="cls-4"/><path d="M649.45,149.53,649,134l-55.11,1.38.47,15.58S649.44,149,649.45,149.53Z" class="cls-4"/><path d="M1286.42,129.56l6.75-32.94L1316.48,95l.18-14.68s10.72-10.89,19.18-10.8,23.53-19.92,17.23-23.66-8-38.61-8-38.61L1370,51.55l-6.64,23.78s10.27,25.8,8.11,29.44,10.49,8.37,10.49,8.37,8.43,2.85,10.48,8.37,2,12.87,2,12.87l6,29.42,23.13,13.09s-29.55-7.66-38-5.92-8.29-14.77-8.29-14.77-19-5.71-29.57-5.83a38.73,38.73,0,0,1-19-5.71l-25.45,3.39s0-3.67-8.52,4.31c0,2.94-12.78,6.47-12.78,6.47s2.14-2.43-10.53-5a49.62,49.62,0,0,1-21-10s27.61-7,31.82-5.15S1286.42,129.56,1286.42,129.56Z" class="cls-9"/><polygon points="1331.03 117.21 1339.3 133.81 1341.31 143.01 1358.2 146.86 1383.58 148.97 1387.99 134.35 1369.12 119.46 1371.28 115.82 1356.61 102.81 1361 90.02 1348.37 84.38 1341.93 91.65 1331.17 106.2 1314.14 113.36 1314.01 124.36 1326.74 122.03 1331.03 117.21" class="cls-10"/><path d="M1299.69,99.72,1299.5,115l57,.62.18-15.31S1299.68,100.22,1299.69,99.72Z" class="cls-4"/><path d="M1331,120.24l-.19,15.31,19.06.21.06-5.5L1352,134l2.14-1.81V134l2.1,1.85,31.55.35.19-15.31S1331,120.74,1331,120.24Z" class="cls-4"/><path d="M1293.44,120.47s-2.44,3.64,0,3.67-2.42,1.8-2.42,1.8,2.37,1.87,0,3.67-2.49,7.31-2.49,7.31l38.11.42.18-15.31S1293.44,121,1293.44,120.47Z" class="cls-5"/><path d="M1358.85,97.54s2.06-.18,0-5.71C1358.22,90.08,1361,90,1361,90s-.3-2,2.16-3.65a2.38,2.38,0,0,0,1.07-3.18,2.51,2.51,0,0,0-.32-.48l-38.81-.42-.16,13.8S1358.86,97.09,1358.85,97.54Z" class="cls-4"/><path d="M1025.66,95.83l6,35.6,25,2.53-.37,15.75s11.13,12.07,20.25,12.28,24.57,22.22,17.64,26-10.09,41.15-10.09,41.15l28.46-46.65-6.24-25.76s12-27.32,9.86-31.3,11.61-8.61,11.61-8.61,9.19-2.75,11.6-8.61S1142,94.48,1142,94.48l7.57-31.35L1175,49.9s-32.1,7.17-41.17,5-9.49,15.56-9.49,15.56-20.66,5.45-32,5.19a42,42,0,0,0-20.66,5.45l-27.27-4.55s-.09,3.94-9-4.93c.08-3.15-13.51-7.39-13.51-7.39s2.22,2.67-11.52,5a53.46,53.46,0,0,0-23,10s29.45,8.54,34,6.67S1025.66,95.83,1025.66,95.83Z" class="cls-11"/><polygon points="1073.22 110.68 1082.75 93.16 1085.26 83.36 1103.59 79.83 1131 78.47 1135.19 94.33 1114.3 109.63 1116.49 113.62 1100.2 127.05 1104.44 140.94 1090.62 146.54 1083.97 138.51 1072.94 122.5 1054.89 114.21 1055.16 102.4 1068.78 105.36 1073.22 110.68" class="cls-10"/><path d="M1038.8,128.33l.39-16.44,61.34,1.37-.39,16.44S1038.82,127.8,1038.8,128.33Z" class="cls-4"/><path d="M1073.29,107.43l.39-16.44,20.52.46-.14,5.9,2.37-3.88,2.23,2v-2L1101,91.6l34,.76-.39,16.44S1073.31,106.89,1073.29,107.43Z" class="cls-4"/><path d="M1032.87,105.84s-2.49-4,.09-3.94-2.53-2-2.53-2,2.63-1.91.09-3.93-2.39-7.94-2.39-7.94l41,.92-.38,16.44S1032.89,105.31,1032.87,105.84Z" class="cls-5"/><path d="M1102.42,132.79s2.21.27-.21,6.13c-.77,1.85,2.23,2,2.23,2s-.4,2.15,2.19,4a2.53,2.53,0,0,1,1,3.42,2.4,2.4,0,0,1-.37.53l-41.8-.93.35-14.82S1102.4,133.27,1102.42,132.79Z" class="cls-4"/><path d="M939,152.87c24.67,4.13,28-15.63,28-15.63s4-21.88,16.79-14.89,24.54.94,53.21,5.46,49.35,25.33,64.77,23.11-33.71,55.63-33.71,55.63L963.68,193Z" class="cls-7"/><path d="M1337.88,309.48s79.79,40.19,131.12,40.85,103.9,40,103.9,40S1693,397,1693,399s269.33-9.33,269.33-9.33l58-12-34.66-92" class="cls-12"/><path d="M653.63,124.65c22.54-1.6,35.81-5.44,50.29-3.86,13.7,1.48,15.65,13.06,38.69,20.63,5.73,1.88,12.21.83,25.15-1.29,22.8-3.73,3.22-10.32,39.33-7.09,7.78.69,5.45,7.62,16.77,15.47,6.06,4.21,10.32,3.82,17.41,0,16.77-9,22.24-16,38.05-13.54,20.63,3.23,13.12,5.19,33.53,8.38,13.34,2.09,23.47.52,34.08,1.27a57.18,57.18,0,0,1,17.5,3.89c6.64,2.62,9.07,5.8,13.54,9,26.67,19.31,74.76-19.39,113.49-12.25C1116,149.8,1126.82,128,1150.79,124c10.07-1.67,19.77-12,30.3-5.8,7.86,4.61,13.19,2.07,20,1.93s5,2.56,13.54-1.93c12.14-6.41,26.54-2.13,38,1.29a107.22,107.22,0,0,1,24.5,11c12.26,7,29.81,19.08,80.61,13.54,35.46-3.87,23-8.24,38-18.06,11.91-7.8,16-2.68,21.92-3.22,14.47-1.33,17.1,10.68,32.89,10.32,12.1-.28,14.79-7.43,28.37-6.45,7.64.55,7.5,2.87,17.41,5.16,18,4.16,23.43-2.33,38,1.29,11.19,2.77,9.08,6.84,24.5,13.54,11.63,5,27.41,2.24,39.34-3.87,9.7-5,6.48-3.55,21.27-16.12,6-5.11,13-11.06,20.64-9.67s8.33,9,17.41,11c5.81,1.25,7.52-1.44,17.41-2.58,8.33-1,14.62.08,21.92,1.29,18.11,3,19,1.46,24.51-1.94,6.13-3.78,7.88-5.88,13.54-7.73,4.33-1.42,19.24,2.87,25.79,5.16,13.9,4.85,10.07-9.58,25.79-7.74,11.36,1.32,22.28,16.57,38.69,10.31,13.54-5.15,11.38-14.67,32.89-10.31,12.65,2.56,13.53,26.09,18.7,29.66,19.51,13.46,16.62,66.86,1.29,92.21-42.22,69.82-215.37-12.7-519.09.64-48.17,2.12-119,5.23-212.14,21.93C977.69,289.17,960,324,854.73,320.75c-34.77-1.06-9.16-4.13-239.87-54.16-86.21-18.78-126.86-26.39-132.11-51-6.06-28.4,36.18-73.63,70.28-72.23,17.53.73,13.2,12.33,26.44,2.58,14.4-10.59,14.4-13.91,47.72-23.85C641.34,117.85,638.63,125.72,653.63,124.65Z" class="cls-7"/><path d="M572.9,180.77S521.62,216.62,499.64,207s-70.27-40.13-82.43-34.68-9.21,3.4-21.54,5.68S339,236.45,298.33,237.72s-104.09-3.27-117.71-20.66-66.29-31.84-124.29-12.28-102.8,40.13-102.8,40.13-11.86,34.76-13.2,37.42,39.92,60,39.92,60l16.75,40s327,4,331.16,4S499.74,373,499.74,373L750,374.33,714.82,260.55" class="cls-13"/><path d="M558.25,196.79S447.33,210.33,442.83,219,383,266.6,332.33,264.47s-175.9-16.8-195.28-33.8S60.33,223,26.33,242.33s-81,49.48-81,49.48,59.09,41.86,84,30.52,120.12-26,132.2-19.33,71.68,18.67,90.21,38,51.5,28,51.5,28,178.24,34.72,201.3,4,42.4-38.4,82.4-63.55S679.67,203.7,694.33,219" class="cls-14"/><path d="M1381.33,149.88c9.28-.8,14.74-2.71,20.7-1.93,5.63.74,6.44,6.52,15.92,10.3,2.36.94,5,.41,10.35-.64,9.38-1.86,1.33-5.15,16.19-3.54,3.2.34,2.24,3.8,6.9,7.72,2.5,2.1,4.25,1.9,7.17,0,6.9-4.51,9.15-8,15.65-6.76,8.49,1.61,5.4,2.59,13.8,4.18s13.65-1.05,21.23,2.58c2.74,1.31,3.74,2.89,5.58,4.5,11,9.64,30.76-9.67,46.7-6.11,10.09,2.25,14.55-8.64,24.42-10.62,4.14-.83,8.14-6,12.47-2.9,3.23,2.31,5.43,1,8.23,1s2.07,1.28,5.57-1c5-3.19,10.92-1.06,15.66.65a40.86,40.86,0,0,1,10.08,5.47c5,3.47,12.27,9.52,33.17,6.76,14.6-1.93,9.49-4.11,15.66-9,4.9-3.9,6.61-1.34,9-1.61,6-.67,7,5.32,13.53,5.15,5-.14,6.09-3.71,11.68-3.22,3.14.27,3.08,1.43,7.16,2.57,7.41,2.08,9.64-1.16,15.66.65,4.6,1.38,3.74,3.41,10.08,6.75,4.79,2.53,11.29,1.12,16.19-1.93,4-2.48,2.67-1.77,8.76-8,2.47-2.55,5.36-5.52,8.49-4.83s3.43,4.5,7.17,5.47c2.39.62,3.09-.72,7.16-1.29a24.6,24.6,0,0,1,9,.65c7.46,1.49,7.82.73,10.09-1,2.52-1.88,3.25-2.94,5.57-3.86,1.78-.71,7.92,1.43,10.62,2.58,5.72,2.42,4.14-4.78,10.61-3.87,4.68.66,9.17,8.27,15.93,5.15,5.57-2.57,4.68-7.32,13.53-5.15,5.2,1.28,5.57,13,7.7,14.81,8,6.71,6.83,33.37.53,46-17.38,34.84-88.64-6.34-213.63.32-19.83,1.05-49,2.61-87.31,10.94-69.62,15.13-76.89,32.5-120.22,30.89-14.31-.53-3.77-2.06-98.72-27-35.52-9.34-52.24-13.13-54.41-25.42-2.49-14.17,14.89-36.75,28.93-36,7.21.37,4.55,4.18,10.88,1.29,7-3.19,13.5-10.56,19.64-11.9S1375.16,150.41,1381.33,149.88Z" class="cls-14"/><path d="M849,353c-37.07-26-74.73-18.91-69.9-46.12s-5.18-33.59,9.25-34.33,10.13-60.94,10.13-60.94L628,217.85,507.46,349.67l121.15,68.66Z" class="cls-14"/><path d="M628.82,165.36c9.27-.8,14.74-2.72,20.7-1.93,5.63.74,6.44,6.52,15.92,10.3,2.36.94,5,.41,10.35-.65,9.38-1.86,1.33-5.15,16.19-3.54,3.2.35,2.24,3.81,6.9,7.73,2.49,2.09,4.25,1.9,7.16,0,6.9-4.51,9.16-8,15.66-6.76,8.49,1.61,5.4,2.59,13.8,4.18s13.64-1.05,21.23,2.58c2.74,1.3,3.74,2.89,5.57,4.5,11,9.64,30.77-9.67,46.71-6.11,10.09,2.25,14.55-8.64,24.42-10.62,4.14-.84,8.14-6,12.47-2.9,3.23,2.3,5.43,1,8.23,1s2.07,1.27,5.57-1c5-3.2,10.92-1.06,15.66.64a41.53,41.53,0,0,1,10.08,5.47c5,3.48,12.27,9.53,33.17,6.76,14.6-1.93,9.49-4.11,15.66-9,4.9-3.89,6.61-1.34,9-1.61,6-.66,7,5.33,13.54,5.15,5-.14,6.09-3.71,11.68-3.22,3.14.28,3.08,1.44,7.16,2.58,7.41,2.07,9.64-1.17,15.66.64,4.6,1.38,3.74,3.42,10.08,6.76,4.79,2.52,11.28,1.12,16.19-1.93,4-2.48,2.67-1.77,8.76-8,2.47-2.54,5.35-5.52,8.49-4.82s3.43,4.49,7.17,5.47c2.39.62,3.09-.72,7.16-1.29a24.83,24.83,0,0,1,9,.64c7.46,1.5,7.82.73,10.09-1,2.52-1.89,3.24-2.94,5.57-3.86,1.78-.71,7.92,1.43,10.62,2.57,5.72,2.42,4.14-4.78,10.61-3.86,4.68.66,9.17,8.27,15.92,5.15,5.58-2.58,4.68-7.32,13.54-5.15,5.2,1.28,5.57,13,7.69,14.8,8,6.72,6.84,33.37.54,46-17.38,34.85-88.64-6.34-213.64.32-19.82,1.06-49,2.61-87.31,10.94-69.61,15.14-76.88,32.51-120.21,30.9-14.31-.53-3.77-2.07-98.72-27-35.52-9.34-52.24-13.14-54.41-25.43-2.49-14.17,14.89-36.74,28.93-36,7.21.36,4.55,4.18,10.88,1.29,7-3.19,13.5-10.56,19.64-11.91S622.65,165.89,628.82,165.36Z" class="cls-13"/><path d="M1287.39,152.58c-6.83.5-11.12-.62-15.26,1-3.92,1.51-3.41,7.3-9.52,12.32-1.52,1.25-3.54,1.1-7.58.8-7.1-.52-1.93-4.87-12.32-1.23-2.24.78-.9,4.05-3.51,8.54-1.4,2.41-2.7,2.46-5.16,1-5.82-3.47-8.1-6.58-12.55-4.47-5.81,2.76-3.4,3.3-9.15,6s-10,.86-14.8,5.47c-1.72,1.67-2.14,3.36-3.16,5.2-6.08,11-24-5.24-34.78.47-6.84,3.6-12.11-6.47-19.59-7-3.14-.24-7-4.75-9.52-1.12-1.9,2.71-3.72,1.77-5.75,2.09s-1.25,1.54-4.19-.18c-4.2-2.44-8.06.47-11.15,2.81a29.29,29.29,0,0,0-6.23,6.77c-3,4.11-7,11-22.61,11.23-10.87.12-7.6-2.73-13-6.68-4.27-3.15-5-.4-6.8-.33-4.42.17-4.07,6.2-8.78,6.93-3.61.55-5.08-2.8-9-1.54-2.21.7-2,1.83-4.67,3.52-5,3.06-7.17.19-11.16,2.8-3.05,2-2,3.87-6,8-3,3.14-7.91,2.66-12,.35-3.34-1.89-2.26-1.37-7.83-6.69-2.26-2.16-4.9-4.68-7-3.56s-1.62,4.89-4.13,6.36c-1.6.94-2.36-.27-5.4-.27a13.45,13.45,0,0,0-6.38,1.88c-5.08,2.5-5.49,1.8-7.44.45-2.17-1.5-2.89-2.44-4.74-3-1.42-.45-5.43,2.5-7.16,4-3.66,3.17-3.89-4.12-8.37-2.32-3.24,1.29-5,9.39-10.49,7.26-4.5-1.76-4.76-6.54-10.72-3.18-3.51,2-1.55,13.56-2.74,15.6-4.52,7.71,1.38,33.72,8.31,45.26,19.09,31.82,62.62-18.5,153.88-29.27,14.47-1.71,35.76-4.23,64.93-1.35,53,5.21,61.5,21.26,92.39,13.68,10.2-2.5,2.32-2.55,66-40.22,23.81-14.09,35.14-20.14,34.37-32.5-.88-14.26-17.66-34-27.63-31.39-5.13,1.35-2.49,4.73-7.6,2.77-5.64-2.16-11.71-8.5-16.39-9S1291.94,152.25,1287.39,152.58Z" class="cls-15"/><path d="M880.66,213c9.3-.39,14.84-2.06,20.76-1,5.6,1,6.14,6.8,15.45,11,2.31,1,5,.63,10.36-.18,9.46-1.44,1.56-5.09,16.34-2.81,3.18.49,2.06,3.9,6.54,8,2.4,2.21,4.16,2.1,7.16.33,7.09-4.2,9.5-7.58,15.94-6,8.42,2,5.28,2.83,13.6,4.8s13.68-.44,21.1,3.52c2.67,1.43,3.6,3.06,5.36,4.75,10.53,10.12,31.17-8.28,46.94-4,10,2.7,14.92-8,24.86-9.51,4.18-.65,8.4-5.61,12.59-2.34,3.13,2.45,5.38,1.28,8.18,1.34s2,1.36,5.61-.72c5.13-3,11-.57,15.61,1.35a41.11,41.11,0,0,1,9.83,5.91c4.88,3.7,11.83,10.07,32.84,8.24,14.66-1.27,9.66-3.68,16-8.29,5.07-3.67,6.66-1,9.09-1.21,6-.4,6.79,5.64,13.29,5.75,5,.09,6.25-3.43,11.81-2.69,3.13.42,3,1.57,7,2.9,7.31,2.4,9.68-.73,15.61,1.34,4.54,1.59,3.59,3.58,9.77,7.21,4.67,2.73,11.22,1.62,16.26-1.21,4.1-2.3,2.75-1.65,9.11-7.64,2.59-2.44,5.6-5.28,8.7-4.44s3.22,4.64,6.91,5.78c2.37.73,3.13-.57,7.22-1a24.7,24.7,0,0,1,9,1c7.37,1.83,7.77,1.08,10.11-.51,2.61-1.78,3.38-2.79,5.74-3.61,1.82-.63,7.85,1.79,10.49,3,5.61,2.67,4.36-4.59,10.78-3.38,4.64.87,8.79,8.67,15.68,5.85,5.68-2.32,5-7.1,13.75-4.53,5.14,1.51,5,13.26,7,15.13,7.72,7.07,5.34,33.64-1.53,46-18.92,34-88.26-10.31-213.43-9.27-19.86.17-119.31,18-158,24.58-70.22,12-99.93-15.8-143.15-19.35-14.27-1.17-56.41-57.72-55.45-23.86.65,22.91-95.12-1.81-96.73-14.18-1.85-14.27,48.56,3.18,62.55,4.51,7.19.68,22.56-20.61,29-23.21,7.13-2.88,44.1,10.09,50.3,9S874.47,213.21,880.66,213Z" class="cls-16"/><path d="M1307.17,226c9.28-.8,14.74-2.71,20.7-1.93,5.64.74,6.45,6.52,15.93,10.3,2.36.94,5,.41,10.35-.64,9.38-1.86,1.32-5.15,16.19-3.54,3.19.34,2.24,3.8,6.9,7.72,2.49,2.1,4.24,1.9,7.16,0,6.9-4.51,9.15-8,15.66-6.76,8.49,1.61,5.4,2.59,13.8,4.18s13.64-1.05,21.23,2.58c2.73,1.31,3.73,2.89,5.57,4.5,11,9.64,30.77-9.67,46.71-6.11,10.08,2.25,14.55-8.64,24.41-10.62,4.15-.83,8.14-6,12.48-2.9,3.23,2.31,5.42,1,8.22,1s2.07,1.28,5.58-1c5-3.19,10.91-1.06,15.65.65a40.93,40.93,0,0,1,10.09,5.47c5,3.47,12.26,9.52,33.17,6.76,14.6-1.93,9.48-4.11,15.66-9,4.9-3.9,6.6-1.34,9-1.61,5.95-.67,7,5.32,13.53,5.15,5-.14,6.09-3.71,11.68-3.22,3.14.27,3.09,1.43,7.17,2.57,7.41,2.08,9.64-1.16,15.65.65,4.61,1.38,3.74,3.41,10.09,6.75,4.79,2.53,11.28,1.12,16.19-1.93,4-2.48,2.67-1.77,8.75-8,2.48-2.55,5.36-5.52,8.5-4.83s3.42,4.5,7.16,5.47c2.39.62,3.1-.72,7.17-1.29a24.6,24.6,0,0,1,9,.65c7.45,1.49,7.82.73,10.08-1,2.53-1.88,3.25-2.94,5.58-3.86,1.78-.71,7.92,1.43,10.61,2.57,5.72,2.43,4.15-4.77,10.62-3.86,4.67.66,9.16,8.27,15.92,5.15,5.57-2.57,4.68-7.32,13.53-5.15,5.21,1.28,5.57,13,7.7,14.81,8,6.71,6.84,33.36.53,46-17.37,34.85-88.63-6.33-213.63.33-19.83,1-49,2.61-87.31,10.94C1440.58,308,1433.3,325.41,1390,323.8c-14.31-.53-3.77-2.06-98.72-27-35.51-9.34-148.62-2.49-150.78-14.78-2.49-14.17,67.71-50.29,103.82-11.6,4.92,5.27,26-30.91,32.37-33.8,7-3.19,13.5-10.56,19.63-11.91S1301,226.5,1307.17,226Z" class="cls-12"/><path d="M1426.77,235.35c0,1.55-85.44,14-187.65,14s-182.48-12.41-182.48-14,82.85-2.8,185.06-2.8S1426.77,233.8,1426.77,235.35Z" class="cls-14"/><path d="M1324.88,259.21c-1.53-.21-85.43,19.77-187.64,19.77s-182.49-18.22-182.49-19.77,83.7-15.87,185.07-2.8C1446.15,295.88,1352.8,263.06,1324.88,259.21Z" class="cls-15"/><path d="M1075.34,252.12c0,1.55-83.5,12-185.71,12s-184.42-10.48-184.42-12,82.85-2.81,185.06-2.81S1075.34,250.57,1075.34,252.12Z" class="cls-7"/><path d="M1781.42,267.59c0,1.55-83.5,20.41-185.71,20.41s-184.42-18.86-184.42-20.41,82.86-2.8,185.07-2.8S1781.42,266.05,1781.42,267.59Z" class="cls-14"/><path d="M905.09,213.67c-.09,5-90.63,61.57-192.82,59.64s-184.89-64.69-184.8-69.66S603,190,705.21,191.92,905.19,208.69,905.09,213.67Z" class="cls-14"/><path d="M898.66,237.29c0,1.55-84.18,36-186.39,36s-183.74-34.47-183.74-36,82.85-2.81,185.06-2.81S898.66,235.74,898.66,237.29Z" class="cls-17"/><path d="M1604.09,199.6c0,5-77.69,25.86-179.9,25.86S1234,204.58,1234,199.6s82.86-9,185.07-9S1604.09,194.63,1604.09,199.6Z" class="cls-14"/><ellipse cx="1635.69" cy="203.47" class="cls-14" rx="185.06" ry="9.01"/><path d="M1249.49,150.88a22.61,22.61,0,0,1,4.71,10.55c.9,6.18-4.35,15.84-4.63,21s1.44,15.87-4.3,24.78-6.93,11.52-6.93,11.52,4-3.4,5.75-2.61,3.72-7.22,4.77-10.41,3.45-12.06,3.36-13.68a57.73,57.73,0,0,1,2.81-19.7c3.14-9.58.4-15.82-.31-17.45-.51-1.2-3.44-7.87-3.44-7.87Z" class="cls-18"/><path d="M1252,187.45a18,18,0,0,1,7.89-6.35,65.85,65.85,0,0,0,11-6l-.45,1.89s-13.22,6.56-15.87,11.1a32.32,32.32,0,0,0-2.78,6.07Z" class="cls-19"/><path d="M1269.11,176.39s-4.72,3.08-4.6-2.63,11.65-10.93,18.07-9.57,13.33,3.49,14.41,2.93,1,.47-1.14,1.58a70.28,70.28,0,0,0-13,10.31c-3.35,3.71-10.64,8.76-13.19,7.07a5.19,5.19,0,0,1-1.93-6.65Z" class="cls-20"/><path d="M1251.24,149.32s-1.61,7.67-8.8,3.84c-7-3.73-7.16-10.63-8.08-13.15a43.48,43.48,0,0,0-5.16-8.65c-1.31-1.66,1.09-.56,1.09-.56s5,1.77,8.33,1.72,9.76,1.32,13.28,4.51,5.55,7.79,3.77,11.69S1251.24,149.32,1251.24,149.32Z" class="cls-21"/><path d="M549,236.75s-68-14.8-83.68,2.06S395.15,278.29,387.74,279s-161.35,26-191,28.69-78.31-14-94.33-4.67-78,50-78,50L53,383s276.44-9.4,280.34-8.78S561.67,377,561.67,377l55.88-24s-69.88-24.37-67.88-43.52,83.38-68.4,89.39-61.66" class="cls-17"/><path d="M460.55,114.26c-2.63-1.91-5.18-4.16-8.51-4.71,2.5-.68,4.81-2.06,7.21-3.14,8.29-3.73,28.84-5.15,28.81,7.23C488,129.19,465.55,117.88,460.55,114.26Z" class="cls-22"/><path d="M474.3,114.16l.05,1c8.77-.08,16.14,1.84,21.92,5.71s9.94,9.64,13.73,14.81l.82-.59c-3.84-5.24-8.19-11.19-14-15.08S483.28,114.08,474.3,114.16Z" class="cls-23"/><path d="M554.89,159.56c2.54-8,5.41-16.71,12.35-21.93.73-.55,1.77-1.06,2.4-.54a38.44,38.44,0,0,0-15.66-.38,27,27,0,0,0-14.35,7.7c-6,6.38-8.39,18.08-3,24.26C543.5,176.42,552.39,167.46,554.89,159.56Z" class="cls-24"/><path d="M494.92,147.75,487.39,139c-1.44-1.68-3.32-3.5-5.69-3a22.34,22.34,0,0,1,18.3-6.57c7.5.89,18.48,7.69,17.11,16.67C515.26,158.09,499.36,152.91,494.92,147.75Z" class="cls-25"/><path d="M564.8,104.5c2.68.64,5.61.13,8.45-.39l23.18-4.22a63.53,63.53,0,0,0-11.34-9.14A25.37,25.37,0,0,0,570.71,87c-3.91.24-12.75,2.42-14.5,6.9S561.14,103.61,564.8,104.5Z" class="cls-26"/><path d="M529.71,133.34a20.13,20.13,0,0,0,4.6-3.27c2.09-1.82,4.23-3.76,5.36-6.23.92-2,1.11-4.11,1.79-6.14a15.47,15.47,0,0,1,8-8.84c-7.4-1.9-16.29.6-22.36,6.31a13.26,13.26,0,0,0-3.29,4.36,15.49,15.49,0,0,0-1,4.13C522.16,128.46,522.63,136.57,529.71,133.34Z" class="cls-27"/><path d="M518,105.88c1.86-4.22,1.85-8.77,2.21-13.19a76.91,76.91,0,0,1,1.88-11.59c.54-2.21,1.26-4.54,3-6.18C516.68,75,507.42,80.05,504,88a34.36,34.36,0,0,0-2.06,8.17c-.92,5.64-.78,12,3.87,15.57C510.21,115.15,515.8,110.92,518,105.88Z" class="cls-28"/><path d="M530.7,104.05a36.34,36.34,0,0,0-11.26,35.84l.93-.32a35.27,35.27,0,0,1,16.69-39c10.49-5.85,22.77-5.09,34.48-3.39l.24-.94c-11.87-1.72-24.35-2.48-35.12,3.52A33.64,33.64,0,0,0,530.7,104.05Z" class="cls-29"/><path d="M514,80.37c-5.51,10.39-8,20.44-7.31,29.85.56,8,2.17,11,8.95,23.71.63,1.17,1.3,2.43,2,3.78,3.62,6.82,7.69,14.78,10.1,23,2.65,9,3,17.09,1,24.76a27.63,27.63,0,0,1-8.21,13.85l-.09.08c-5.49,4.82-12,6.19-16.68,7.19a47.25,47.25,0,0,1-11.8,1l-.15,1a48.33,48.33,0,0,0,12-1c4.56-1,11.46-2.43,17.17-7.44a28.6,28.6,0,0,0,8.64-14.47c2-7.84,1.69-16.1-1-25.25-2.43-8.25-6.51-16.26-10.15-23.11l-2-3.79c-6.71-12.59-8.31-15.59-8.85-23.36-.65-9.24,1.77-19.1,7.19-29.33Z" class="cls-30"/><path d="M553.1,144.34a38.31,38.31,0,0,0-8.88,12.29,114.35,114.35,0,0,0-4.71,12.13c-.47,1.35-1,2.75-1.44,4.12a19,19,0,0,1-2.66,5.43,7,7,0,0,1-4.84,2.91l-.07.95a8,8,0,0,0,5.65-3.34A20.21,20.21,0,0,0,539,173.1c.5-1.38,1-2.78,1.45-4.13a111.92,111.92,0,0,1,4.66-12c2.88-6,6.46-10.55,10.65-13.58l-.5-.74A23.27,23.27,0,0,0,553.1,144.34Z" class="cls-31"/><path d="M504.61,139.27l.55.75a2.4,2.4,0,0,1,1.62-.28A18.7,18.7,0,0,1,518,145.17a54.67,54.67,0,0,1,7.78,10.13l.83-.57a55.45,55.45,0,0,0-7.9-10.28,19.69,19.69,0,0,0-11.82-5.68A3.33,3.33,0,0,0,504.61,139.27Z" class="cls-32"/><path d="M533.44,119.6c-2.67,2.37-4.54,5.67-6.17,9l-.4.81c-1.87,3.83-3.8,7.79-7.14,10.39l.54.72c3.54-2.77,5.53-6.84,7.46-10.78l.39-.81c2-4.17,4.48-8.31,8.38-10.38l-.37-.82A13.91,13.91,0,0,0,533.44,119.6Z" class="cls-33"/><path d="M1881.05,146.09s12.62,25.91,36,23.24,58.37-36.19,75.33-28.15S2033,175,2033,175l-28.67,94.09,48,43.58-12.66,74s-107.34-26-120-56.67-9.87-71.6-29.27-83.13S1831,238,1821,227.33s-44.47-20-44.47-20" class="cls-14"/><path d="M1802.9,217.82s76.77,23.26,101.43,19.05,77.34-7.12,80.67,0,50,14.1,54,7.95S2073,334,2073,334l-16.67,78.67s-182.83-55.17-183.75-69.59-54.82-48-100.2-50.52" class="cls-12"/><path d="M1595.7,288.87s160.63,8.13,162.63,24.8S1829,316.33,1837,329s72.67,16,82.67,24,84,4.67,84,4.67l3.33-51.34s-102.67,20.67-106.67-.66-68-52.05-102-45.12-142.67,6.29-150.66,5.75" class="cls-14"/><path d="M1469.92,303.75a180.68,180.68,0,0,1-63.51,26.58c-36.74,7.34-62.1,4-62.1,4l64.54,12s34-15.33,42.05-11.33,23.8-22.09,63.95-26.05,77.23-5.47,84.36-8.71-36-11.36-36-11.36" class="cls-7"/><path d="M1310.19,275.76s73.49,1.24,73.48,9.91,44.9,1.33,55.12,8,71.4-.76,71.4-.76-61.86-.15-61.86-4S1423.61,267,1396,265s-76-4.93-76-4.93-86.33-19.09-125-10.42-38.47,15.42-64.57,14.71" class="cls-15"/><path d="M1943.78,93.64a23.07,23.07,0,0,1,4.8,10.75c.92,6.31-4.44,16.16-4.72,21.39s1.47,16.18-4.38,25.27-7.07,11.75-7.07,11.75,4.12-3.46,5.87-2.66,3.79-7.36,4.86-10.62,3.52-12.3,3.42-14a59,59,0,0,1,2.86-20.09c3.21-9.77.41-16.13-.3-17.8l-3.51-8Z" class="cls-34"/><path d="M1946.36,130.93a18.38,18.38,0,0,1,8.05-6.48,67.8,67.8,0,0,0,11.24-6.09l-.46,1.93S1951.71,127,1949,131.61a32.65,32.65,0,0,0-2.83,6.19Z" class="cls-35"/><path d="M1963.79,119.65s-4.82,3.15-4.69-2.68,11.87-11.15,18.42-9.76,13.6,3.56,14.7,3,1,.48-1.16,1.61a71.62,71.62,0,0,0-13.27,10.51c-3.42,3.78-10.86,8.94-13.45,7.22a5.31,5.31,0,0,1-2-6.79Z" class="cls-36"/><path d="M1945.57,92.05s-1.65,7.82-9,3.91c-7.14-3.8-7.3-10.83-8.24-13.4a44,44,0,0,0-5.26-8.83c-1.34-1.69,1.11-.57,1.11-.57s5.09,1.8,8.5,1.76,10,1.34,13.54,4.59,5.66,7.95,3.84,11.93S1945.57,92.05,1945.57,92.05Z" class="cls-37"/><path d="M2334.3,188l-.88-16.49c0,.4,25.48-1.15,39.25-2v-3.15l-7.16-1a1.54,1.54,0,0,1,.87-1.86l-7.59.92.2-16.51c0,.18,5.9.31,13.68.41v-3.07c-7.58,3.14-17-4.27-22.72-.48-5.94,4-11.87-5.93-13.85-9.89h0l-.1,3-.67-.34.28-3c-3.07-2.59.47-12-3.46-13.49-4.14-1.62-36.67-2.33-43.51-2s-19.06-4-29.67-4c-5,0-7.41,3.6-12.47,3.6-3.52,0-10.71-1.52-13,.42l-4.74,2.31a10.74,10.74,0,0,0-3.46,1.3l-.49,1.59-.81-.48-3.94,7.6L2216,130l-.5-.74-.56.86a14.26,14.26,0,0,0,.19,3.63,14.93,14.93,0,0,0,2.91-1c.19-.2-1.28,2.33-2.57,4.53a5.76,5.76,0,0,1-5.72,5.1s-27.16,2.27-33.55.42l-.06.12-6.17-2,.14-.09H2170c-7.91-2-9.89-11.87-9.89-13.85,0-1-1.25-3-3.12-5l-1.71.71-7.12-2.71-2.86-3.35a4.71,4.71,0,0,0-1,.51c-5.93,4-15.82,0-15.82,0-7.91,0-21.76-2-25.71-5.93s-11.39-11.39-17.26-15.45l-.75.82-1.7.34,1.82-1.68c-2.32-3.8-18.53-3.81-21.66-3.81l-23.56,1.42h-.37l-4,3.08-9.49-2.37s.74-.74,1.85-1.82l-.16.13L2022,89s.32-.27.83-.73L2020,83.94l1.2-1.12-1.88-1.26.14-.12-.14-2.42,1-.78a5.58,5.58,0,0,0-.49-.6L2012,73c-2.72-1.31-5.26-2.51-6.21-3.45-2-2-14.78-.92-19.65-2.44L1973,65.79v.08h-15.29s-29.28,9.77-29.28,5.66-24.66-3.6-24.66-3.6-28.26-3.6-36,0-20.55,9.76-45.21,3.6-17,21.47-17,21.47a239.75,239.75,0,0,1-55.71.68c-14.19-1.49,4.38-9.3-10.47-14.39-18.77-6.43-73.64-6.52-59.65,15.85,0,2-14.61,4.92-26.1,0-6.53-2.8-26.84,1.48-26.1.93,7.45-5.59-3.73-20.51-9.32-21.44-38.41-6.4-68,0-74.57.93a327.55,327.55,0,0,1-36.35,2.8s-14.51,12.62-8.39,14-30.76,2.8-46.61,4.66c-18.64-6.52-38.22-8.39-41.94,8.39-1.66,7.47-5.18,24.51,2.79,26.1,9,1.78-11.18,0,7.46,17.71,2.53,1.05,21.54,18.88,42.88,4.66,11.18-7.46,73.18-9.48,76.43-9.32,4.43.22,2,21.44-2.8,21.44-20.5,0-43.81,12.11-18.64,25.16,10.2.4,50.19-.37,59.66,0,4.89.2,10.28-18.83,14.91-18.64,39.56,1.59,28,19.77,29.83,20.51,7.5,3,70.56-3.46,103.37-7.09l-40.61.57L1685.4,170c0,.54,53.21-.74,53.21-.74l.21,15.27,7.09-.82s44.74-26.1,92.94-14.59l5.85-28.73s3.36,6.49,19.29,5,19.76-3.4,19.76-3.4,25.08,6.12,33.24,2.72c12-5,30.47.87,30.47.87l31.34,14.9,1.32.14c.34-4.59,1.34-10,4.49-11.12,1.6-.56,2.81-.41,5.4,1.23a13.47,13.47,0,0,0,15.11-.07v-.76a3.37,3.37,0,0,0,1,.1,14.41,14.41,0,0,0,1.89-1.6,5.76,5.76,0,0,1,4.09,1.71c14.43.11,46.25-.21,46.25-.21v16.51h-44.58a5.73,5.73,0,0,0,5.75,5.72l16,.36H2083a54.71,54.71,0,0,1,9.89,2c12.76,3.54,19.23,6,39.55-2.34,4-1.62,20,0,20,0,3.18,0,13.66-.71,5.75,5.76s0,10.24,0,10.24a5.76,5.76,0,0,0,5.76,5.76h51.77a5.76,5.76,0,0,0,5.76-5.76h0s-5.93-12.75,0-10.24,2.58-5.76,5.75-5.76c0,0,6.11-6.29,12,0s27.86,0,27.86,0a5.76,5.76,0,0,1,5.76,5.76h0V190a5.74,5.74,0,0,0,5.73,5.75h94.12v-9.87Zm13.91-39.79v16.51h-54.09V148.18c0,.54,54.09,0,54.09,0Zm-20.32-26.45.66,18.52-51.21,1.81-.66-18.52c0,.57,51.21-1.84,51.21-1.84Zm-221.68.94c0,.54,47,2.7,47,2.7l-1,16.48-47-2.7Zm-77.83-25c0,.54,53.21,0,53.21,0v16.5h-53.21ZM1990.9,74.24c0,.2,16.16.88,16.34.72s3.93,1.7,3.93,1.7l3.39,4.82-.82,1.86,3.59.52s4.63,5.13,3.6,6.68c0,.51-30.53.2-30.53.2Zm-59.73,1.28c0,.41,30.48.2,45.3.07,4.76,0,2,3.89,2,3.89l5.93,2V92l-23.73-.69,3.95-4-5.81,4.9L1931.17,92Zm25.64,21.11,1.28,16.46-53,4.12-1.28-16.46C1903.8,101.28,1956.81,96.63,1956.81,96.63Zm-84.09-21.88c0,.54,53.19,1.59,53.19,1.59l-.49,16.51-53.19-1.6Zm-7.28,3,.23,16.51-53.2.75-.23-16.51c0,.5,53.2-.76,53.2-.76Zm-29.89,22.42.23,16.51-53.21.75-.23-16.51c0,.53,53.21-.76,53.21-.76Zm-36.69,22.42.23,16.51-53.2.75-.24-16.51c0,.53,53.21-.76,53.21-.76Zm-26.5-22.42.23,16.51-53.2.75-.23-16.51c0,.53,53.2-.76,53.2-.76Zm-33.29-19,.23,16.51-53.2.74-.24-16.51c0,.51,53.21-.77,53.21-.77Zm-80.32,20.54c0,.54,53.19,1.65,53.19,1.65l-.51,16.5-53.19-1.65Zm17.9,25.44-.81,16.49L1622.69,141l.81-16.49c0,.49,53.15,2.61,53.15,2.61Zm-23.44-23.79-.51,16.5-53.18-1.65.51-16.5c0,.51,53.18,1.62,53.18,1.62Zm-34.86,19.24.27,16.51-53.21.87-.27-16.51c0,.53,53.21-.9,53.21-.9Zm-78-2.86-.44-16.5c0,.53,53.19-1.41,53.19-1.41l.44,16.5Zm28.93-40.4c0,.54,53.19,1.65,53.19,1.65l-.52,16.5-53.18-1.65Zm-6,1,.44,16.5-53.19,1.41-.44-16.5c0,.56,53.17-1.39,53.17-1.39ZM1528.86,103l.27,16.5-53.2.88-.27-16.51C1475.67,104.41,1528.86,103,1528.86,103Zm-114.45,17.38-.27-16.51c0,.54,53.2-.87,53.2-.87l.27,16.5Zm34.49,22.37-.27-16.51c0,.54,53.2-.87,53.2-.87l.27,16.5Zm58.81-1.6-.44-16.5c0,.53,53.19-1.42,53.19-1.42l.44,16.51ZM1574.38,187l-53.18-1.81.56-16.5c0,.54,53.18,1.81,53.18,1.81Zm22.37-23.3-53.18-1.81.56-16.5c0,.54,53.18,1.81,53.18,1.81Zm3.24,2.6-.44-16.51c0,.54,53.19-1.41,53.19-1.41l.44,16.51Zm26.94,22.1-.27-16.51c0,.54,53.2-.87,53.2-.87l.28,16.51Zm56.45-47.22-.23-16.51c0,.54,53.2-.75,53.2-.75l.23,16.51Zm35.81,21.06-.23-16.51c0,.54,53.2-.75,53.2-.75l.24,16.51Zm63.38,0-.23-16.51c0,.54,53.21-.75,53.21-.75l.23,16.51Zm22.43-23.1-.24-16.51c0,.54,53.21-.75,53.21-.75l.23,16.51Zm38.81-23.61L1843.58,99c0,.54,53.2-.75,53.2-.75l.23,16.51Zm20,21.87-.1-16.51c0,.54,53.21-.31,53.21-.31l.1,16.51Zm61.72,1.25-.23-16.51c0,.54,53.21-.75,53.21-.75l.23,16.51ZM1966.09,114l-.23-16.51c0,.53,53.21-.75,53.21-.75l.23,16.51Zm72.17,25.2-53.2-1.35.42-16.5c0,.54,53.19,1.34,53.19,1.34Zm9,1-.33-16.5c0,.53,53.2-1.07,53.2-1.07l.33,16.51Zm75.16,25.57h-53.21V149.26c0,.16,14,1.27,22.27,1.91.71.05-.6,2.38,0,2.43,2.4.19,5.94-2,5.94-2v-2l25-.39Zm9.68-1.18.48-16.5c0,.53,47,1.37,47,1.37l-.48,16.5Zm80.07,23.75h-47.06V171.83c0,.54,47.06,0,47.06,0Zm21.15-23h-47V148.88c0,.53,47,0,47,0Zm-12.93-24.73v-8.52a38,38,0,0,0,1.86-3.72c.13-.28.32-.62.63-.59s.38.23.59.28.57-.2.76-.44a11.48,11.48,0,0,0,1.13-1.79l6.35-1.21a2.61,2.61,0,0,0,.72-.22,4.13,4.13,0,0,0,.68-.64c1.25-1.17,3.51-.7,5-1.41,14.82,0,33.57-.27,33.57-.27v18.53Zm18.91,22.83.82-16.49c0,.54,47.88,2.38,47.88,2.38l-.82,16.49Zm89.14,25.35H2280.5V172.33c0,.53,47.94,0,47.94,0Z" class="cls-38"/><path d="M1985.06,137.86l53.2,1.35.41-16.51s-53.2-.8-53.19-1.34Z" class="cls-5"/><path d="M2019.07,96.75s-53.2,1.28-53.21.75l.23,16.51,53.21-.75Z" class="cls-4"/><path d="M1964.6,87.39l-3.95,4,23.73.69V81.46l-5.93-2s2.78-3.93-2-3.89c-14.82.13-45.3.34-45.3-.07V92l27.62.26Z" class="cls-4"/><path d="M1925.91,76.34s-53.2-1-53.19-1.59l-.49,16.5,53.19,1.6Z" class="cls-4"/><path d="M1865.67,94.25l-.23-16.51s-53.2,1.28-53.2.75l.23,16.51Z" class="cls-4"/><path d="M1903.76,100.75l1.28,16.46,53-4.12-1.28-16.46S1903.8,101.28,1903.76,100.75Z" class="cls-4"/><path d="M1925.27,122.16l.23,16.51,53.21-.75-.23-16.51S1925.28,122.7,1925.27,122.16Z" class="cls-4"/><path d="M1896.78,98.29s-53.19,1.29-53.2.75l.23,16.51,53.2-.75Z" class="cls-5"/><path d="M2020.93,90.54c1-1.55-3.6-6.68-3.6-6.68l-3.59-.52.82-1.86-3.39-4.82s-3.65-1.93-3.93-1.7-16.35-.52-16.34-.72l-.5,16.5S2020.93,91.05,2020.93,90.54Z" class="cls-4"/><path d="M1863.68,120.91l.1,16.51,53.21-.31-.1-16.51S1863.68,121.45,1863.68,120.91Z" class="cls-4"/><path d="M1835.78,116.67l-.23-16.51s-53.2,1.29-53.21.75l.23,16.51Z" class="cls-4"/><path d="M1739.3,97.65l-.23-16.51s-53.2,1.28-53.21.74l.24,16.51Z" class="cls-4"/><path d="M1719.16,100.91l.23,16.51,53.2-.75-.23-16.51S1719.16,101.45,1719.16,100.91Z" class="cls-4"/><path d="M1804.76,122.65l.24,16.51,53.2-.75-.2-16.51S1804.77,123.19,1804.76,122.65Z" class="cls-4"/><path d="M1745.65,123.33l.24,16.51,53.2-.75-.23-16.51S1745.66,123.87,1745.65,123.33Z" class="cls-4"/><path d="M1782.34,145.75l.23,16.51,53.21-.75-.23-16.51S1782.35,146.29,1782.34,145.75Z" class="cls-4"/><path d="M1736.35,123.94s-53.2,1.29-53.2.75l.23,16.51,53.2-.75Z" class="cls-4"/><path d="M1719,145.75l.23,16.51,53.21-.75L1772.2,145S1719,146.29,1719,145.75Z" class="cls-4"/><path d="M1738.84,185.75v-1.24c-3.29.38-7.58.86-12.58,1.41Z" class="cls-4"/><path d="M1685.4,170l.23,16.51,40.61-.57c5-.55,9.29-1,12.58-1.41l-.21-15.27S1685.41,170.52,1685.4,170Z" class="cls-4"/><path d="M1622.69,141l53.15,2.62.81-16.49s-53.17-2.08-53.15-2.62Z" class="cls-4"/><path d="M1711.94,103.33s-53.2-1.11-53.19-1.65l-.51,16.5,53.19,1.65Z" class="cls-4"/><path d="M1599.52,118.18l53.18,1.65.51-16.5s-53.2-1.11-53.18-1.65Z" class="cls-4"/><path d="M1622.46,81s-53.21-1.11-53.19-1.65l-.51,16.5,53.18,1.65Z" class="cls-4"/><path d="M1563.7,96.86l-.44-16.5s-53.18,2-53.19,1.41l.44,16.5Z" class="cls-4"/><path d="M1593.09,101.8s-53.18,1.94-53.19,1.41l.44,16.5,53.19-1.41Z" class="cls-4"/><path d="M1652.74,148.4s-53.17,1.95-53.19,1.41l.44,16.51,53.19-1.41Z" class="cls-4"/><path d="M1560.46,123.23s-53.17,2-53.19,1.42l.44,16.5,53.19-1.41Z" class="cls-4"/><path d="M1448.63,126.24l.27,16.51,53.2-.88-.27-16.5S1448.64,126.78,1448.63,126.24Z" class="cls-4"/><path d="M1529.13,119.5l-.27-16.5s-53.19,1.41-53.2.87l.27,16.51Z" class="cls-4"/><path d="M1626.66,171.91l.27,16.51,53.21-.87-.28-16.51S1626.67,172.45,1626.66,171.91Z" class="cls-4"/><path d="M1521.2,185.21l53.18,1.81.56-16.5s-53.2-1.27-53.18-1.81Z" class="cls-4"/><path d="M1467.34,103s-53.19,1.41-53.2.87l.27,16.51,53.2-.88Z" class="cls-4"/><path d="M1618.62,139.08l-.27-16.51s-53.2,1.41-53.21.87l.27,16.51Z" class="cls-4"/><path d="M1543.57,161.91l53.18,1.81.56-16.5s-53.2-1.27-53.18-1.81Z" class="cls-4"/><path d="M803.46,241.35c12.67-.8,20.13-2.72,28.27-1.93,7.7.74,8.8,6.52,21.75,10.3,3.22.94,6.86.41,14.13-.65,12.82-1.86,1.81-5.15,22.11-3.54,4.37.35,3.06,3.81,9.42,7.73,3.41,2.09,5.81,1.9,9.79,0,9.42-4.51,12.5-8,21.38-6.76,11.6,1.61,7.38,2.59,18.85,4.18s18.64-1.05,29,2.58c3.73,1.3,5.1,2.89,7.61,4.5,15,9.64,42-9.67,63.79-6.11,13.77,2.25,19.87-8.64,33.35-10.62,5.66-.84,11.11-6,17-2.9,4.42,2.3,7.41,1,11.24,1s2.82,1.27,7.61-1c6.82-3.2,14.91-1.06,21.38.64a65.54,65.54,0,0,1,13.78,5.47c6.88,3.48,16.75,9.53,45.3,6.76,19.94-1.93,13-4.11,21.39-9,6.69-3.89,9-1.34,12.32-1.61,8.13-.66,9.61,5.33,18.48,5.15,6.81-.13,8.32-3.71,16-3.22,4.29.28,4.21,1.44,9.79,2.58,10.12,2.07,13.17-1.16,21.38.64,6.29,1.39,5.11,3.42,13.77,6.76,6.54,2.52,15.41,1.12,22.11-1.93,5.46-2.48,3.65-1.77,12-8.05,3.38-2.54,7.32-5.52,11.6-4.82s4.68,4.49,9.79,5.47c3.26.62,4.23-.72,9.79-1.29a45.85,45.85,0,0,1,12.32.64c10.18,1.5,10.67.73,13.77-1,3.45-1.89,4.43-2.94,7.61-3.86,2.44-.71,10.82,1.43,14.5,2.57,7.81,2.42,5.66-4.78,14.5-3.86,6.38.66,12.52,8.27,21.75,5.15,7.61-2.58,6.39-7.32,18.48-5.15,7.11,1.28,31.88,40,35.38,40.2,50.34,3,76.62,12.65,92.52,16.51,98.42,23.87-224.68,81.9-408.43,4.43-24.56-10.35-66.91,2.61-119.25,10.94-95.07,15.14-105,32.51-164.19,30.9-19.54-.53-5.15-2.07-134.83-27-48.5-9.34-169.51-12.4-172.47-24.69C605.9,273.29,727.8,250,747,250.68c9.85.36,6.21,4.18,14.86,1.29,9.55-3.19,18.43-10.56,26.82-11.91C796.76,238.75,795,241.88,803.46,241.35Z" class="cls-13"/><path d="M595.34,262.07c14.32-.43,22.85-2.62,32-1.16,8.63,1.39,9.53,9.18,23.89,14.9,3.58,1.42,7.71.9,16-.14,14.56-1.85,2.36-6.81,25.13-3.63,4.91.69,3.22,5.25,10.16,10.83,3.71,3,6.42,2.84,11,.49,10.89-5.56,14.57-10.07,24.51-8,13,2.74,8.15,3.84,21,6.56s21.07-.47,32.53,4.92c4.13,1.94,5.57,4.13,8.31,6.42,16.31,13.67,47.94-10.84,72.26-5,15.33,3.74,22.87-10.5,38.17-12.47,6.42-.83,12.88-7.45,19.37-3,4.84,3.3,8.29,1.76,12.6,1.86s3.11,1.85,8.64-.91c7.88-3.93,16.87-.67,24.06,1.95a66.63,66.63,0,0,1,15.19,8c7.56,5,18.31,13.61,50.66,11.35,22.58-1.58,14.84-4.85,24.64-11,7.78-4.87,10.25-1.34,14-1.53,9.2-.48,10.51,7.62,20.52,7.83,7.67.16,9.59-4.54,18.16-3.5,4.83.59,4.67,2.13,10.88,3.94,11.28,3.3,14.91-.89,24.06,2,7,2.17,5.55,4.83,15.12,9.75,7.21,3.71,17.29,2.28,25-1.47,6.29-3,4.22-2.19,14-10.17,4-3.24,8.58-7,13.37-5.88s5,6.26,10.7,7.82c3.64,1,4.8-.74,11.1-1.22,5.31-.41,9.26.46,13.85,1.48,11.38,2.52,12,1.52,15.58-.59,4-2.36,5.17-3.72,8.81-4.79,2.79-.83,12.1,2.46,16.19,4.18,8.65,3.64,6.67-6.11,16.57-4.44,7.15,1.21,13.61,11.71,24.2,8,8.73-3.06,76.5,14.52,90,18,7.94,2.07,14,16,17.19,18.55,12,9.56,134.9,17.52,124.43,34-28.84,45.48-337.53-9.15-530.32-8.87-30.59,0-183.61,23-243.11,31.55C687.7,404.1,641.68,366.55,575.08,361.4c-22-1.7-87.41-77.93-85.63-32.5,1.2,30.74-146.53-3.28-149.12-19.9-3-19.15,74.82,4.71,96.39,6.62,11.08,1,34.56-27.45,44.49-30.88,11-3.79,68,13.94,77.55,12.56C568,296,585.81,262.36,595.34,262.07Z" class="cls-16"/><path d="M1523.67,319.16c-12.25-.8-19.46-2.71-27.33-1.93-7.44.75-8.51,6.52-21,10.3-3.11.94-6.63.41-13.66-.64-12.39-1.86-1.76-5.15-21.38-3.54-4.22.34-3,3.8-9.11,7.72-3.29,2.1-5.61,1.9-9.46,0-9.11-4.5-12.09-8-20.67-6.76-11.22,1.61-7.13,2.59-18.22,4.19s-18-1.06-28,2.57c-3.61,1.31-4.93,2.89-7.36,4.51-14.49,9.63-40.62-9.68-61.67-6.12-13.31,2.25-19.21-8.63-32.23-10.62-5.48-.83-10.75-6-16.47-2.89-4.27,2.3-7.17,1-10.86,1s-2.74,1.28-7.36-1c-6.6-3.2-14.42-1.07-20.68.64a61,61,0,0,0-13.31,5.47c-6.66,3.47-16.2,9.52-43.8,6.76-19.27-1.93-12.53-4.11-20.68-9-6.47-3.9-8.72-1.34-11.91-1.61-7.86-.67-9.29,5.33-17.87,5.15-6.58-.14-8-3.71-15.42-3.22-4.15.27-4.07,1.43-9.46,2.57-9.78,2.08-12.73-1.16-20.67.65-6.08,1.38-4.94,3.41-13.32,6.75-6.32,2.53-14.9,1.12-21.37-1.93-5.27-2.48-3.53-1.77-11.57-8-3.26-2.55-7.07-5.52-11.21-4.83s-4.52,4.5-9.46,5.47c-3.16.63-4.09-.72-9.46-1.28a42.49,42.49,0,0,0-11.91.64c-9.84,1.5-10.32.73-13.32-1-3.33-1.88-4.29-2.94-7.36-3.86-2.35-.7-10.45,1.43-14,2.58-7.56,2.42-5.48-4.78-14-3.87-6.17.67-12.1,8.27-21,5.15-7.36-2.57-61.47,14.37-73.17,16.55C807,337,752.77,372.55,750,374.33c-10.61,6.72,100-12.14,108.29.51,22.94,34.84,117-6.34,282.08.32,26.18,1,64.68,2.61,115.28,10.94,91.91,15.13,101.52,32.5,158.73,30.89,18.9-.53,5-2.06,130.35-27,46.89-9.34,196.24-2.49,199.09-14.78,3.29-14.17-89.4-50.29-137.08-11.6-6.5,5.28-34.37-30.91-42.74-33.8-9.24-3.19-17.82-10.56-25.93-11.9C1530.14,316.56,1531.82,319.7,1523.67,319.16Z" class="cls-12"/><polygon points="647.45 93.18 656.69 98.48 660.56 87.41 658.22 88.43 647.45 93.18" class="cls-10"/><polygon points="686.4 79.38 677.78 81.61 673.28 82.95 670.5 83.86 668.03 84.66 662.44 86.68 667.32 87.41 671.7 84.66 675.01 84.52 679.79 82.4 687.03 83.39 690.67 78.44 686.4 79.38" class="cls-10"/><polygon points="641.07 96.5 647.45 97.13 651.4 97.92 652.21 95.91 658.7 95.91 660.56 93.95 659.23 91.22 648.54 94.57 641.07 96.5" class="cls-10"/><polygon points="812.24 88.97 813.65 93.21 815.56 97.67 812.24 95.63 812.24 94.01 810.38 93.32 808.76 88.97 810.7 90.02 808.76 87.01 809.73 84.64 810.27 86.58 811.56 87.01 812.24 88.97" class="cls-39"/><polygon points="932.81 98.76 937.31 101.68 943.58 100.22 947.39 102.8 951.87 102.8 954.78 100.78 957.58 99.56 947.84 99.56 932.81 98.76" class="cls-39"/><polygon points="1000 72.11 1006.57 70 1014.37 68.42 1016.09 72.11 1012.39 70.26 1009.93 72.11 1008.04 73.66 1006.58 71.86 1002.98 72.37 1002.59 74.81 1000 74.81 997.06 74.81 997.57 73.13 1000 72.11" class="cls-39"/><polygon points="1316.66 80.36 1318.26 86.6 1321.58 88.59 1319.12 91.09 1319.12 93.25 1316.49 94.54 1316.66 80.36" class="cls-39"/><polygon points="1466.28 95.74 1474.3 98.27 1478.59 97.01 1482.14 97.01 1485.38 95.03 1489.65 96.65 1492.99 97.22 1492.42 95.03 1494.15 95.03 1496.47 93.37 1481.38 94.66 1472.8 95.26 1466.28 95.74" class="cls-39"/></svg>