<svg id="Capa_2" data-name="Capa 2" xmlns="http://www.w3.org/2000/svg" xmlns:xlink="http://www.w3.org/1999/xlink" viewBox="0 0 2000 350"><defs><style>.cls-1{fill:none;}.cls-2{fill:#676767;}.cls-3{fill:#808181;}.cls-4{fill:url(#Безымянный_градиент_23);}.cls-5{fill:#b3b2b2;}.cls-6{fill:#9e5836;}.cls-7{fill:#743e2e;}.cls-8{fill:#4c4232;}.cls-9{fill:url(#Безымянный_градиент_23-2);}.cls-10{fill:#9a9999;}.cls-11{fill:#60523f;}.cls-12{fill:#524537;}.cls-13{fill:#6b5d48;}.cls-14{fill:#4f4535;}.cls-15{fill:#675b47;}.cls-16{fill:#5c503e;}.cls-17{fill:url(#Безымянный_градиент_11);}.cls-18{fill:url(#Безымянный_градиент_5);}.cls-19{fill:url(#Безымянный_градиент_26);}.cls-20{fill:url(#Безымянный_градиент_26-2);}.cls-21{fill:url(#Безымянный_градиент_26-3);}.cls-22,.cls-28,.cls-30{fill:#617240;}.cls-22,.cls-28,.cls-29,.cls-30,.cls-31,.cls-32{stroke-miterlimit:10;stroke-width:2px;}.cls-22{stroke:url(#plant);}.cls-23{fill:url(#Безымянный_градиент_26-4);}.cls-24{fill:url(#Безымянный_градиент_26-5);}.cls-25{fill:url(#Безымянный_градиент_26-6);}.cls-26{fill:url(#Безымянный_градиент_26-7);}.cls-27{fill:url(#Безымянный_градиент_26-8);}.cls-28{stroke:url(#plants2);}.cls-29{fill:url(#plants2-2);stroke:url(#plant-2);}.cls-30{stroke:url(#plants2-3);}.cls-31{fill:url(#plant-3);stroke:url(#plant-4);}.cls-32{fill:url(#plants2-4);stroke:url(#plants2-5);}.cls-33{fill:url(#Безымянный_градиент_11-2);}.cls-34{fill:url(#Безымянный_градиент_5-2);}.cls-35{fill:url(#Безымянный_градиент_26-9);}.cls-36{fill:url(#Безымянный_градиент_26-10);}</style><linearGradient id="Безымянный_градиент_23" x1="-420.68" y1="139.24" x2="543.86" y2="139.24" gradientUnits="userSpaceOnUse"><stop offset="0" stop-color="#4c4232"/><stop offset="0.45" stop-color="#4d4434"/><stop offset="0.61" stop-color="#53493b"/><stop offset="0.72" stop-color="#5c5346"/><stop offset="0.81" stop-color="#686257"/><stop offset="0.89" stop-color="#79746d"/><stop offset="0.96" stop-color="#8e8b88"/><stop offset="1" stop-color="#9c9b9b"/></linearGradient><linearGradient id="Безымянный_градиент_23-2" x1="1114.81" y1="206.95" x2="1114.81" y2="55.71" xlink:href="#Безымянный_градиент_23"/><linearGradient id="Безымянный_градиент_11" x1="-1023.73" y1="-2168.48" x2="-1023.73" y2="-2253.31" gradientTransform="matrix(0.6, 0.27, -0.35, 0.76, 1093.15, 2137.16)" gradientUnits="userSpaceOnUse"><stop offset="0" stop-color="#544841"/><stop offset="0.54" stop-color="#554a41"/><stop offset="0.73" stop-color="#575141"/><stop offset="0.87" stop-color="#5a5c41"/><stop offset="0.98" stop-color="#5f6d40"/><stop offset="1" stop-color="#617240"/></linearGradient><linearGradient id="Безымянный_градиент_5" x1="-1005.24" y1="-2202.01" x2="-1005.24" y2="-2232.39" gradientTransform="matrix(0.6, 0.27, -0.35, 0.76, 1093.15, 2137.16)" gradientUnits="userSpaceOnUse"><stop offset="0" stop-color="#544841"/><stop offset="0.5" stop-color="#554a41"/><stop offset="0.7" stop-color="#575141"/><stop offset="0.86" stop-color="#5b5d40"/><stop offset="0.98" stop-color="#606f40"/><stop offset="1" stop-color="#617240"/></linearGradient><linearGradient id="Безымянный_градиент_26" x1="-975.24" y1="-2235.2" x2="-998.76" y2="-2248.78" gradientTransform="matrix(0.6, 0.27, -0.35, 0.76, 1093.15, 2137.16)" gradientUnits="userSpaceOnUse"><stop offset="0" stop-color="#96ab5c"/><stop offset="1" stop-color="#617240"/></linearGradient><linearGradient id="Безымянный_градиент_26-2" x1="-1082.79" y1="-2253.65" x2="-1034.18" y2="-2253.65" xlink:href="#Безымянный_градиент_26"/><linearGradient id="Безымянный_градиент_26-3" x1="5921.14" y1="2153" x2="5921.14" y2="2131.2" gradientTransform="matrix(-0.71, -0.27, -0.33, 0.73, 5367.24, 136.48)" xlink:href="#Безымянный_градиент_26"/><linearGradient id="plant" x1="5900.85" y1="2128.66" x2="5951.54" y2="2128.66" gradientTransform="matrix(-0.79, -0.36, -0.29, 0.77, 5785.58, 608.19)" gradientUnits="userSpaceOnUse"><stop offset="0" stop-color="#544841"/><stop offset="0.29" stop-color="#564e41"/><stop offset="0.7" stop-color="#5b6040"/><stop offset="1" stop-color="#617240"/></linearGradient><linearGradient id="Безымянный_градиент_26-4" x1="5783.09" y1="2133.8" x2="5818.23" y2="2175.69" gradientTransform="matrix(-0.71, -0.27, -0.33, 0.73, 5367.24, 136.48)" xlink:href="#Безымянный_градиент_26"/><linearGradient id="Безымянный_градиент_26-5" x1="5875.85" y1="2178.35" x2="5860.17" y2="2151.2" gradientTransform="matrix(-0.71, -0.27, -0.33, 0.73, 5367.24, 136.48)" xlink:href="#Безымянный_градиент_26"/><linearGradient id="Безымянный_градиент_26-6" x1="5775.71" y1="2080.74" x2="5827.51" y2="2080.74" gradientTransform="matrix(-0.71, -0.27, -0.33, 0.73, 5367.24, 136.48)" xlink:href="#Безымянный_градиент_26"/><linearGradient id="Безымянный_градиент_26-7" x1="5822.06" y1="2120.54" x2="5852.75" y2="2131.72" gradientTransform="matrix(-0.71, -0.27, -0.33, 0.73, 5367.24, 136.48)" xlink:href="#Безымянный_градиент_26"/><linearGradient id="Безымянный_градиент_26-8" x1="5892.9" y1="2093.41" x2="5861.79" y2="2111.37" gradientTransform="matrix(-0.71, -0.27, -0.33, 0.73, 5367.24, 136.48)" xlink:href="#Безымянный_градиент_26"/><linearGradient id="plants2" x1="5806.05" y1="2118.23" x2="5858.01" y2="2118.23" gradientTransform="matrix(-0.71, -0.27, -0.33, 0.73, 5367.24, 136.48)" gradientUnits="userSpaceOnUse"><stop offset="0" stop-color="#617240"/><stop offset="0.24" stop-color="#5d6440"/><stop offset="0.7" stop-color="#564f41"/><stop offset="1" stop-color="#544841"/></linearGradient><linearGradient id="plants2-2" x1="5808.97" y1="2168.09" x2="5885.96" y2="2168.09" xlink:href="#plants2"/><linearGradient id="plant-2" x1="5807.97" y1="2168.21" x2="5886.96" y2="2168.21" gradientTransform="matrix(-0.71, -0.27, -0.33, 0.73, 5367.24, 136.48)" xlink:href="#plant"/><linearGradient id="plants2-3" x1="5799.78" y1="2171.52" x2="5812.19" y2="2171.52" xlink:href="#plants2"/><linearGradient id="plant-3" x1="5838.97" y1="2160.68" x2="5872.81" y2="2160.68" gradientTransform="matrix(-0.73, -0.29, -0.32, 0.73, 5454.22, 234.56)" xlink:href="#plant"/><linearGradient id="plant-4" x1="5837.59" y1="2160.88" x2="5874.18" y2="2160.88" gradientTransform="matrix(-0.73, -0.29, -0.32, 0.73, 5454.22, 234.56)" xlink:href="#plant"/><linearGradient id="plants2-4" x1="5837.86" y1="2138.84" x2="5846.53" y2="2138.84" xlink:href="#plants2"/><linearGradient id="plants2-5" x1="5836.46" y1="2138.81" x2="5847.89" y2="2138.81" xlink:href="#plants2"/><linearGradient id="Безымянный_градиент_11-2" x1="-99.81" y1="-2576.79" x2="-99.81" y2="-2663.3" xlink:href="#Безымянный_градиент_11"/><linearGradient id="Безымянный_градиент_5-2" x1="-80.95" y1="-2610.98" x2="-80.95" y2="-2641.96" xlink:href="#Безымянный_градиент_5"/><linearGradient id="Безымянный_градиент_26-9" x1="-50.36" y1="-2644.82" x2="-74.35" y2="-2658.67" xlink:href="#Безымянный_градиент_26"/><linearGradient id="Безымянный_градиент_26-10" x1="-160.03" y1="-2663.65" x2="-110.47" y2="-2663.65" xlink:href="#Безымянный_градиент_26"/></defs><title>footer</title><path class="cls-1" d="M179.18,156.78a15.45,15.45,0,0,1-1.9,1.6c1.15.06,3.26.09,6,.11A5.71,5.71,0,0,0,179.18,156.78Z"/><path class="cls-2" d="M205.62,87.34l.09.09A.38.38,0,0,0,205.62,87.34Z"/><path class="cls-3" d="M205.74,87.45l0,0,0,0Z"/><path class="cls-4" d="M505.49,196.42l-.89-16.49c0,.39,25.49-1.15,39.26-2v-3.15l-7.16-1a1.55,1.55,0,0,1,.87-1.87l-7.59.92.2-16.51c0,.19,5.9.32,13.68.41v-3.07c-7.58,3.15-17.05-4.26-22.73-.47-5.93,3.95-11.86-5.94-13.84-9.89h0l-.09,3-.68-.34.29-3c-3.08-2.59.47-11.95-3.46-13.49-4.14-1.63-36.67-2.34-43.51-2s-19.06-4-29.67-4c-5.06,0-7.42,3.6-12.47,3.6-3.52,0-10.71-1.51-13,.43l-4.74,2.31a10.62,10.62,0,0,0-3.46,1.3l-.49,1.59-.81-.49-3.94,7.61-4.07-1.36-.5-.74-.56.86a13.59,13.59,0,0,0,.19,3.63,15.58,15.58,0,0,0,2.91-1c.19-.19-1.28,2.34-2.58,4.53a5.74,5.74,0,0,1-5.71,5.1s-27.17,2.28-33.55.43l-.07.12-6.16-2.06.14-.08-.09,0c-7.91-2-9.89-11.86-9.89-13.84,0-1-1.25-3-3.12-5l-1.71.71-7.12-2.71L316.47,125a4.56,4.56,0,0,0-1,.51c-5.93,4-15.82,0-15.82,0-7.91,0-21.76-2-25.71-5.93s-11.4-11.39-17.26-15.45l-.75.82-1.7.34,1.82-1.68c-2.32-3.81-18.53-3.81-21.67-3.81l-23.55,1.42-.37,0-4,3.08-9.5-2.37,1.86-1.82-.16.12-5.43-2.71.83-.73-2.86-4.36,1.2-1.12L190.47,90l.14-.13-.14-2.42,1-.78a5.42,5.42,0,0,0-.49-.59l-7.79-4.61C180.51,80.17,178,79,177,78c-2-2-14.78-.92-19.65-2.45L144.2,74.24v.08H128.92S99.64,84.08,99.64,80,75,76.38,75,76.38s-28.25-3.6-36,0S18.46,86.14-6.21,80s-17,21.48-17,21.48a240.05,240.05,0,0,1-55.71.68c-14.19-1.49,4.38-9.3-10.47-14.39-18.78-6.44-73.64-6.53-59.66,15.84,0,2-14.6,4.93-26.1,0-6.52-2.79-26.83,1.49-26.09.93,7.45-5.59-3.73-20.5-9.33-21.43-38.4-6.4-68,0-74.56.93a329.38,329.38,0,0,1-36.36,2.79s-14.5,12.63-8.39,14-30.75,2.79-46.6,4.66c-18.64-6.53-38.22-8.39-42,8.39-1.66,7.47-5.17,24.51,2.8,26.1,9,1.78-11.18,0,7.46,17.71,2.53,1,21.54,18.88,42.87,4.66,11.19-7.46,73.19-9.49,76.44-9.33,4.43.23,2,21.44-2.8,21.44-20.51,0-43.81,12.12-18.64,25.17,10.2.4,50.19-.37,59.65,0,4.9.19,10.29-18.83,14.92-18.64,39.56,1.59,28,19.76,29.83,20.5,7.49,3,70.56-3.46,103.37-7.08l-40.61.57-.23-16.51c0,.54,53.21-.74,53.21-.74L-90,193l7.08-.83S-38.16,166,10,177.54l5.85-28.72s3.36,6.49,19.29,4.94,19.76-3.4,19.76-3.4,25.08,6.12,33.23,2.73c12-5,30.48.87,30.48.87L150,168.86l1.32.14c.34-4.6,1.34-10,4.48-11.12,1.61-.56,2.82-.42,5.41,1.23a13.46,13.46,0,0,0,15.11-.07v-.77s.34.08,1,.11a15.45,15.45,0,0,0,1.9-1.6,5.71,5.71,0,0,1,4.09,1.71c14.43.1,46.25-.22,46.25-.22v16.51H184.93a5.76,5.76,0,0,0,5.76,5.73l16,.35h47.46a54.7,54.7,0,0,1,9.89,2c12.76,3.55,19.23,6,39.55-2.33,4-1.62,20,0,20,0,3.17,0,13.66-.71,5.75,5.76s0,10.24,0,10.24a5.75,5.75,0,0,0,5.76,5.75h51.77a5.75,5.75,0,0,0,5.76-5.75s-5.94-12.75,0-10.24,2.57-5.76,5.75-5.76c0,0,6.11-6.29,12.05,0s27.86,0,27.86,0a5.76,5.76,0,0,1,5.76,5.76v12.22a5.75,5.75,0,0,0,5.75,5.75h94.1v-9.88Zm13.9-39.79v16.51H465.31V156.63C465.31,157.17,519.39,156.63,519.39,156.63Zm-20.31-26.45.66,18.51-51.22,1.82L447.87,132C447.89,132.59,499.08,130.18,499.08,130.18Zm-221.68.94c0,.54,47,2.69,47,2.69l-.95,16.49-47-2.7Zm-77.84-25c0,.53,53.21,0,53.21,0v16.51H199.56ZM162.08,82.68c0,.2,16.17.89,16.35.73s3.93,1.7,3.93,1.7l3.38,4.81-.81,1.87,3.59.51s4.63,5.14,3.6,6.68c0,.52-30.53.21-30.53.21ZM102.36,84c0,.41,30.47.2,45.3.07,4.76,0,2,3.89,2,3.89l5.94,2v10.58l-23.73-.69,3.95-4-5.81,4.9-27.62-.26ZM128,105.08l1.28,16.46-53,4.12L75,109.19C75,109.73,128,105.08,128,105.08ZM43.91,83.2c0,.54,53.19,1.59,53.19,1.59l-.5,16.5L43.42,99.7Zm-7.28,3,.23,16.51-53.2.74-.23-16.51C-16.57,87.47,36.63,86.19,36.63,86.19ZM6.74,108.61,7,125.12l-53.21.74-.23-16.51C-46.46,109.89,6.74,108.61,6.74,108.61ZM-29.95,131l.23,16.51-53.21.74-.23-16.5C-83.15,132.31-29.95,131-29.95,131Zm-26.5-22.42.23,16.51-53.2.74-.24-16.51C-109.65,109.89-56.45,108.61-56.45,108.61Zm-33.29-19,.23,16.51-53.21.75-.23-16.51C-142.94,90.87-89.74,89.58-89.74,89.58Zm-80.32,20.55c0,.53,53.19,1.64,53.19,1.64l-.52,16.51-53.18-1.65Zm17.9,25.44-.82,16.49-53.14-2.62.81-16.49C-205.33,133.48-152.16,135.57-152.16,135.57Zm-23.44-23.8-.51,16.51-53.18-1.65.51-16.5C-228.8,110.66-175.6,111.77-175.6,111.77ZM-210.47,131l.27,16.5-53.2.88-.27-16.51C-263.66,132.43-210.47,131-210.47,131Zm-78-2.86-.43-16.51c0,.54,53.19-1.41,53.19-1.41l.43,16.51Zm28.94-40.4c0,.53,53.18,1.64,53.18,1.64l-.51,16.5L-260,104.26Zm-6,1,.44,16.51-53.19,1.41-.44-16.5C-318.73,90.75-265.55,88.8-265.55,88.8Zm-34.4,22.64.27,16.51-53.2.87-.27-16.5C-353.14,112.85-299.95,111.44-299.95,111.44ZM-414.4,128.82l-.27-16.5c0,.53,53.2-.88,53.2-.88l.27,16.51Zm34.49,22.37-.27-16.5c0,.53,53.2-.88,53.2-.88l.27,16.51Zm58.81-1.59-.44-16.51c0,.54,53.19-1.41,53.19-1.41l.44,16.51Zm66.67,45.87-53.18-1.81.56-16.5c0,.54,53.18,1.81,53.18,1.81Zm22.37-23.31-53.18-1.8.56-16.5c0,.53,53.18,1.8,53.18,1.8Zm3.24,2.6-.44-16.5c0,.54,53.19-1.41,53.19-1.41l.44,16.5Zm26.94,22.11-.27-16.51c0,.54,53.2-.87,53.2-.87l.27,16.5Zm56.45-47.23-.24-16.51c0,.54,53.21-.74,53.21-.74l.23,16.51Zm35.81,21.07-.23-16.51c0,.53,53.2-.75,53.2-.75l.23,16.51Zm63.38,0-.23-16.51c0,.53,53.21-.75,53.21-.75L7,170Zm22.42-23.11L-24,131.1c0,.53,53.21-.75,53.21-.75l.23,16.51ZM15,124l-.23-16.5c0,.53,53.2-.75,53.2-.75l.23,16.51Zm20,21.88-.1-16.51c0,.54,53.21-.31,53.21-.31l.1,16.51Zm61.72,1.24-.23-16.5c0,.53,53.2-.75,53.2-.75l.24,16.51Zm40.59-24.66-.23-16.51c0,.54,53.2-.74,53.2-.74l.24,16.51Zm72.16,25.2-53.19-1.34.42-16.5c0,.53,53.19,1.34,53.19,1.34Zm9,1-.33-16.51c0,.54,53.19-1.06,53.19-1.06l.33,16.51Zm75.16,25.57H240.41V157.71c0,.15,14,1.26,22.27,1.9.71.06-.61,2.39,0,2.44,2.39.18,5.94-2,5.94-2v-2l25-.38ZM303.3,173l.48-16.51c0,.54,47,1.38,47,1.38l-.49,16.5Zm80.06,23.75H336.31V180.28c0,.53,47.05,0,47.05,0Zm21.16-23h-47V157.32c0,.54,47,0,47,0Zm-12.93-24.72v-8.52a40.32,40.32,0,0,0,1.86-3.72c.12-.29.32-.62.63-.59s.38.22.59.27.57-.19.76-.43a11.48,11.48,0,0,0,1.13-1.79l6.35-1.21a2.25,2.25,0,0,0,.72-.23,4,4,0,0,0,.68-.63c1.25-1.18,3.51-.7,4.95-1.42,14.81,0,33.57-.26,33.57-.26v18.53Zm18.91,22.83.82-16.49c0,.54,47.88,2.38,47.88,2.38l-.82,16.49Zm89.14,25.34H451.7V180.77c0,.54,47.94,0,47.94,0Z"/><path class="cls-5" d="M541.75,171.59l-2.19.15A7.06,7.06,0,0,0,541.75,171.59Z"/><path class="cls-5" d="M326.45,131l1.71-.71c-3.11-3.38-8-6.76-11.69-5.35l2.86,3.35Z"/><path class="cls-5" d="M347.28,151.39l.07-.12-.25-.07c-1.71-.57-3.94-1.47-5.84-1.95l-.14.08Z"/><path class="cls-5" d="M190.87,85.94c-1.47-1.47-4.66-3-7.65-4.46L191,86.09Z"/><path class="cls-5" d="M255.92,104.93l.75-.82c-.18-.12-.36-.26-.54-.37l-.09-.15-1.82,1.68Z"/><path class="cls-5" d="M198.77,100.06l-1.86,1.82,9.5,2.37,4-3.08c-2.5-.24-7.79-.86-10.07-2.36Z"/><path class="cls-5" d="M389.19,141.21a15.58,15.58,0,0,1-2.91,1,24.68,24.68,0,0,1,.37,2.84,4.63,4.63,0,0,1,0,.65C387.91,143.55,389.38,141,389.19,141.21Z"/><path class="cls-5" d="M507.19,146.3l.09-3a2.32,2.32,0,0,1-.48-.34l-.29,3Z"/><path class="cls-5" d="M199.63,98.15c-1.56-2-1.34-2.35-2.49-3.78l-3.07,2.46-.06-.09-.83.73,5.43,2.71.16-.12,1.44-1.38A2.73,2.73,0,0,1,199.63,98.15Z"/><path class="cls-5" d="M200.21,98.68l-1.44,1.38,1.61-1.25Z"/><path class="cls-5" d="M194.82,91.87c-.53-.53-.95-1-1.29-1.4l-1,.9-.15-.11-1.2,1.12L194,96.74l3-2.58A31.22,31.22,0,0,0,194.82,91.87Z"/><path class="cls-5" d="M197.14,94.37c-.06-.07-.11-.14-.18-.21l-3,2.58.06.09Z"/><path class="cls-5" d="M192.32,88.69l-1.71,1.23v0l-.14.13,1.88,1.25,1-1A7.18,7.18,0,0,1,192.32,88.69Z"/><path class="cls-5" d="M193.53,90.47a1.15,1.15,0,0,1-.14-.17l-1,1,.15.11Z"/><path class="cls-5" d="M191.5,86.68l-1,.78.14,2.42,1.6-1.42A7.52,7.52,0,0,0,191.5,86.68Z"/><path class="cls-2" d="M391.69,133l0,0Z"/><path class="cls-3" d="M391.67,133.06h0s0,0,0,0Z"/><path class="cls-3" d="M386.08,138.64v0h0Z"/><path class="cls-6" d="M499.74,148.69l-.66-18.51s-51.19,2.41-51.21,1.81l.65,18.52Z"/><path class="cls-6" d="M350.82,157.91s-47.05-.84-47-1.38L303.3,173l47,1.37Z"/><path class="cls-6" d="M357.47,157.32v16.51h47V157.32S357.47,157.86,357.47,157.32Z"/><path class="cls-6" d="M324.38,133.81s-47-2.15-47-2.69l-.94,16.48,47,2.7Z"/><path class="cls-6" d="M504.6,179.93l.89,16.49,38.37-2.06V177.92C530.09,178.78,504.63,180.32,504.6,179.93Z"/><path class="cls-6" d="M530,172.82l7.59-.92a3.9,3.9,0,0,1,1.84-.17h.15l2.19-.15c.86-.2,1.52-.51,2.11-.62V156.72c-7.78-.09-13.68-.22-13.68-.41Z"/><path class="cls-6" d="M336.31,180.28v16.51h47.05V180.28S336.31,180.81,336.31,180.28Z"/><path class="cls-7" d="M459.2,157.83s-47.91-1.84-47.88-2.38l-.82,16.49,47.88,2.38Z"/><path class="cls-6" d="M451.7,180.77v16.51h47.94V180.77S451.7,181.31,451.7,180.77Z"/><path class="cls-6" d="M465.31,156.63v16.51h54.08V156.63S465.31,157.17,465.31,156.63Z"/><path class="cls-6" d="M268.62,160.07s-3.55,2.16-5.94,2c-.61-.05.71-2.38,0-2.44-8.27-.64-22.27-1.75-22.27-1.9v16.51h53.21V157.71l-25,.38Z"/><path class="cls-7" d="M156.25,146.31l53.19,1.34.42-16.5s-53.21-.81-53.19-1.34Z"/><path class="cls-6" d="M252.77,106.14s-53.21.53-53.21,0v16.51h53.21Z"/><path class="cls-6" d="M184.93,162.53a5.72,5.72,0,0,0-1.66-4c-2.73,0-4.84-.05-6-.11-.29.22-.62.44-1,.66v15.74h8.62V162.53Z"/><path class="cls-6" d="M229.52,158.27s-31.82.32-46.25.22a5.72,5.72,0,0,1,1.66,4v12.25h44.59Z"/><path class="cls-6" d="M176.31,158.27V159c.35-.22.68-.44,1-.66C176.65,158.35,176.31,158.32,176.31,158.27Z"/><path class="cls-6" d="M190.25,105.2s-53.19,1.28-53.2.74l.23,16.51,53.21-.74Z"/><path class="cls-6" d="M271.32,131.08s-53.18,1.6-53.19,1.06l.33,16.51,53.19-1.06Z"/><path class="cls-6" d="M135.79,95.84l-3.95,4,23.73.69V89.9l-5.94-2s2.79-3.93-2-3.89c-14.83.13-45.3.34-45.3-.07v16.51l27.62.26Z"/><path class="cls-6" d="M442.83,130.58s-18.76.22-33.57.26c-1.44.72-3.7.24-4.95,1.42a4,4,0,0,1-.68.63,2.25,2.25,0,0,1-.72.23l-6.35,1.21a11.48,11.48,0,0,1-1.13,1.79c-.19.24-.46.5-.76.43s-.37-.25-.59-.27-.51.3-.63.59a40.32,40.32,0,0,1-1.86,3.72v8.52h51.24Z"/><path class="cls-5" d="M539.56,171.74h-.15a3.9,3.9,0,0,0-1.84.17l.4-.05Z"/><path class="cls-6" d="M97.1,84.79S43.9,83.74,43.91,83.2l-.49,16.5,53.18,1.59Z"/><path class="cls-6" d="M36.86,102.7l-.23-16.51s-53.2,1.28-53.2.74l.23,16.51Z"/><path class="cls-6" d="M75,109.19l1.28,16.47,53.05-4.12L128,105.08S75,109.73,75,109.19Z"/><path class="cls-6" d="M96.46,130.61l.23,16.5,53.21-.74-.24-16.51S96.47,131.14,96.46,130.61Z"/><path class="cls-7" d="M68,106.74s-53.2,1.28-53.2.75L15,124l53.2-.74Z"/><path class="cls-6" d="M192.12,99c1-1.54-3.6-6.68-3.6-6.68l-3.59-.51.81-1.87-3.38-4.81s-3.65-1.94-3.93-1.7-16.35-.53-16.35-.73l-.49,16.51S192.12,99.5,192.12,99Z"/><path class="cls-6" d="M34.87,129.36l.1,16.51,53.21-.31-.1-16.51S34.87,129.9,34.87,129.36Z"/><path class="cls-6" d="M7,125.12l-.23-16.51s-53.2,1.28-53.21.74l.23,16.51Z"/><path class="cls-6" d="M-24,131.1l.23,16.5,53.21-.74-.23-16.51S-24,131.63-24,131.1Z"/><path class="cls-6" d="M-46.47,154.2l.23,16.51L7,170l-.23-16.51S-46.46,154.73-46.47,154.2Z"/><path class="cls-8" d="M1845.37,113.45c41-11.78,105.63-6.66,105.63-.22s56.67,5.77,56.67,5.77L2023,431.67l-284.67-8L1096.08,389l-30.6-23.33"/><path class="cls-8" d="M510.19,156.35a378.07,378.07,0,0,1-71.94,19.16s-35.5-10.94-40.58-2.59-41.06-2-56.55-3.14S277,181.34,267,175.28s-49.22,11.22-60.62-2.36,9.28-43.33-34.72-40.46S75.52,147.7,61.59,144.25,1.68,135.37-5,142.11-13.67,336-13.67,336l48.54,57.33,621.82,3.34,105-84Z"/><path class="cls-8" d="M695.54,207.84c22.54-1.61,35.81-5.45,50.3-3.87,13.69,1.49,15.65,13.06,38.69,20.63,5.73,1.89,12.2.83,25.14-1.29,22.8-3.72,3.23-10.31,39.34-7.09,7.77.69,5.44,7.62,16.76,15.48,6.07,4.2,10.33,3.81,17.41,0,16.77-9,22.25-16,38.05-13.55,20.63,3.23,13.12,5.19,33.53,8.39s33.15-2.11,51.59,5.16c6.64,2.61,9.07,5.79,13.54,9,26.67,19.31,74.76-19.38,113.49-12.25,24.5,4.52,35.35-17.3,59.32-21.28,10.07-1.67,19.78-12,30.31-5.8,7.86,4.61,13.18,2.07,20,1.93s5,2.56,13.54-1.93c12.13-6.4,26.53-2.13,38,1.29a108.11,108.11,0,0,1,24.51,11c12.25,7,29.8,19.08,80.6,13.54,35.46-3.87,23-8.23,38-18.05,11.92-7.8,16.06-2.69,21.93-3.23,14.46-1.33,17.1,10.68,32.88,10.32,12.11-.27,14.8-7.43,28.38-6.45,7.63.55,7.49,2.87,17.41,5.16,18,4.16,23.42-2.33,38,1.29,11.19,2.77,9.09,6.84,24.5,13.54,11.64,5.06,27.42,2.24,39.34-3.87,9.7-5,6.49-3.55,21.28-16.12,6-5.1,13-11.06,20.63-9.67s8.33,9,17.41,11c5.81,1.25,7.53-1.44,17.41-2.58,8.33-1,14.62.08,21.93,1.29,18.1,3,19,1.46,24.5-1.93,6.13-3.78,7.89-5.89,13.54-7.74,4.33-1.42,19.24,2.87,25.79,5.16,13.9,4.85,10.08-9.57,25.8-7.74,11.36,1.33,22.27,16.57,38.69,10.32,13.54-5.16,11.37-14.67,32.88-10.32,12.65,2.56,13.53,26.1,18.7,29.66,19.52,13.46,16.62,66.86,1.29,92.21-42.22,69.83-215.36-12.7-519.08.65-48.18,2.11-119,5.23-212.15,21.92-169.14,30.32-186.82,65.13-292.1,61.9-34.77-1.06-9.16-4.13-239.88-54.16C570.56,331,529.92,323.38,524.66,298.76c-6.06-28.39,36.18-73.63,70.29-72.22,17.52.72,11,8.36,26.43,2.58,17-6.4,32.81-21.16,47.72-23.86C683.63,202.63,680.54,208.9,695.54,207.84Z"/><path class="cls-9" d="M1449.44,110.68c-.35,4.33-1.39,9.46-4.65,10.49-1.66.53-2.92.39-5.6-1.16-10.25-5.94-18.63,2.2-18.63,2.2a5.71,5.71,0,0,1-6-5.43V105.24a5.71,5.71,0,0,0-6-5.43l-16.58-.33h-49.18a62,62,0,0,1-10.24-1.87c-13.23-3.34-19.93-5.67-41,2.2-4.1,1.53-20.68,0-20.68,0-3.29,0-14.16.67-6-5.43s0-9.67,0-9.67a5.72,5.72,0,0,0-6-5.43h-53.64a5.71,5.71,0,0,0-6,5.43s6.15,12,0,9.67-2.67,5.43-6,5.43c0,0-6.33,5.94-12.47,0s-28.87,0-28.87,0a5.72,5.72,0,0,1-6-5.43V82.85a5.71,5.71,0,0,0-6-5.43H967.72a5.72,5.72,0,0,0-6,5.43V94.38a5.71,5.71,0,0,1-6,5.43h-43.4C911,97.23,926.5,99.4,927,97.72c5.85-20.86,4.79-22.31-54.3-20.86-10.66.27,3.17,20.92-7.46,22.79-5,.89-33.72,1.65-45.78,1-7.77-.43-5.74-23.42-18.1-24.73-1-.11-19.16,1.46-31.41.49,0,0,.61-28.77-.53-18.43H710.31c-9,3.4-10.65,18.91-10.65,18.91s-33,6.79-66,30.07c-11.71,13.58-37.8,7.76-37.8,7.76v65.46a28.7,28.7,0,0,1,22.9,9.69c10.11,11.16,30.87,20.37,45.25,16s16.5-9.22,38.86-4.85,20.23-4.37,18.1-5.82,23.42-17,27.15-12.12,13.84,2.42,16,5.33,5.06.67,5.06.67c0,3,15,5.94,18.26,5.94a55,55,0,0,0,10.43-2.2c13.43-4.08,37.92,4.89,43.21,2.2a20.18,20.18,0,0,0,10.06-11.53A14,14,0,0,1,862.69,174c5.81-.81,10.95-1.68,15-6.78,2-4.24-8.19-9.83,0-11.53,8.2-5.77,0-2,12.3-3.9,11.28-1.72,36.77-5.56,53.27-1.87,6.15,4,16.58.34,16.58.34,3.29,0,1.86-3.07,6-5.44s4.1-11.7,4.1-11.7c2-7.46,23.35-3.73,26.64-3.73,0,0,37.07.33,45.08-3.73s18.44,3.73,24.59,0,12.29,5.6,14.34,9.33c4.1,1.87-.18,11.53,4.1,13.06s38,2.21,45.08,1.87,19.74,3.73,30.74,3.73c5.24,0,7.68-3.39,12.92-3.39,3.64,0,11.09,1.42,13.5-.4l4.91-2.18c3.37-.56,2.66-1.49,5.55-1.49.48.16,1.89-.57,2.32-.83,1.78-1-.27-2.91,1.78-2.91.8,0,0-1.86,3-.66,3.17-1.2,1.12-6.51,1.13-8.5a5.71,5.71,0,0,1,6-5.43s28.87-2.2,35-.34c1.79.55,4.16,1.42,6.14,1.87,8.2,1.87,10.25,11.2,10.25,13.06,0,2.64,10.24,13.07,16.39,9.34s16.39,0,16.39,0c8.2,0,22.54,1.86,26.64,5.6s12.3,11.19,18.44,14.93c2.05,3.73,19.25,3.73,22.54,3.73l24.41-1.34c2.72.23,9.93.92,11.6,2.88,2.27,2.68.88,2.19,5,5.93s2,3.73,4.09,5.59c2.9,2.64,12.3,5.6,14.35,7.47s15.32.87,20.36,2.31l13.64,1.26V200h15.84s30.35-9.22,30.35-5.34,25.55,3.4,25.55,3.4,29.28,3.39,37.27,0,21.29-9.21,46.84-3.4S1633.4,186,1633.4,186a333.55,333.55,0,0,1-2.13-35.4c0-17.94-22.35-17-22.35-17l-19.17-3.88s-19.7,8.24-36.2,9.7-4.26-11.16-4.26-11.16-29.81-7.75-37.26,2.43-28.75-5.82-28.75-5.82l-32.47-14.06Z"/><path class="cls-6" d="M1142.17,145.6l-.68-17.47-53.06,1.71.68,17.47S1142.15,145,1142.17,145.6Z"/><path class="cls-6" d="M1291.46,122.44l.5-15.57-48.73-1.3-.5,15.57S1291.48,121.93,1291.46,122.44Z"/><path class="cls-6" d="M1235.84,121.69V106.11h-48.76v15.58S1235.84,121.19,1235.84,121.69Z"/><path class="cls-6" d="M1318.79,146.42l1-15.55-48.67-2.55-1,15.56S1318.83,145.92,1318.79,146.42Z"/><path class="cls-6" d="M1083.38,100.36l-.91-15.56-49.6,2.42.91,15.56S1083.35,99.85,1083.38,100.36Z"/><path class="cls-6" d="M1025,99.56V84H975.28V99.56S1025,99.06,1025,99.56Z"/><path class="cls-6" d="M1056.88,122.65l.21-15.58-8.28.91-4.22.27.74-2.55-41.1,1.9-.2,14.45S1056.89,122.14,1056.88,122.65Z"/><path class="cls-6" d="M835.3,146.38V130.79H780.17v15.59S835.3,145.87,835.3,146.38Z"/><path class="cls-6" d="M806,164.56,805.49,149l-55.11,1.38.47,15.58S806,164.06,806,164.56Z"/><path class="cls-7" d="M842.55,188.53,842.6,173l-55.13-.15-.05,15.58S842.55,188,842.55,188.53Z"/><path class="cls-7" d="M860.77,122.54V107H805.64v15.59S860.77,122,860.77,122.54Z"/><path class="cls-6" d="M869,164V148.43H813.82V164S869,163.51,869,164Z"/><path class="cls-6" d="M897.15,146.38V130.79H842v15.59S897.15,145.87,897.15,146.38Z"/><path class="cls-6" d="M797.55,124.51V108.93H742.42v15.58S797.55,124,797.55,124.51Z"/><path class="cls-6" d="M1257.76,100V84.45H1209V100S1257.76,99.52,1257.76,100Z"/><path class="cls-7" d="M1180,123.46l.85-15.56-49.61-2.25-.85,15.57S1180.07,123,1180,123.46Z"/><path class="cls-6" d="M1138.2,99.56V84h-49.67V99.56S1138.2,99.06,1138.2,99.56Z"/><path class="cls-6" d="M1124.1,122.35V106.77h-56v15.58S1124.1,121.84,1124.1,122.35Z"/><path class="cls-6" d="M993,122.76V107.18H934.35v15.58S993,122.26,993,122.76Z"/><path class="cls-6" d="M960.52,145.51l-.31-15.58-55.12.9.31,15.58S960.51,145,960.52,145.51Z"/><path class="cls-6" d="M1357.12,121.33V105.75H1302v15.58l25.91-.36V119.1s3.67-2,6.14-1.87c.63,0-.73,2.25,0,2.3C1342.62,120.14,1357.12,121.18,1357.12,121.33Z"/><path class="cls-7" d="M1443.89,147.66l.43-15.57-55.11-1.27-.44,15.58S1443.9,147.16,1443.89,147.66Z"/><path class="cls-6" d="M1399.44,170V154.42h-55.13V170S1399.44,169.49,1399.44,170Z"/><path class="cls-6" d="M1423.54,120.8V105.22h-55.13V120.8S1423.54,120.29,1423.54,120.8Z"/><path class="cls-6" d="M1464.21,170.18,1464,154.6l-55.12.71.24,15.58S1464.21,169.68,1464.21,170.18Z"/><path class="cls-6" d="M1380.21,145.46l-.34-15.58-55.12,1,.34,15.58S1380.2,145,1380.21,145.46Z"/><path class="cls-6" d="M1500.16,190.92V175.34l-28.62-.24-6,4.62,4.1-3.73-24.59-.65v10l6.14,1.87s-2.88,3.7,2,3.66C1468.58,190.73,1500.16,190.54,1500.16,190.92Z"/><path class="cls-6" d="M924.44,124V108.4H869.31V124S924.44,123.47,924.44,124Z"/><path class="cls-6" d="M924.71,96.85V81.27H874.79V96.85S924.71,96.35,924.71,96.85Z"/><path class="cls-6" d="M1182.18,146.68c1.48-.67,3.82-.22,5.12-1.33a4.51,4.51,0,0,1,.71-.6,2.26,2.26,0,0,1,.74-.21l6.58-1.14a9.79,9.79,0,0,1,1.17-1.69c.2-.23.48-.48.79-.41s.39.24.61.26.52-.29.65-.56a35.31,35.31,0,0,1,1.93-3.51v-8.05h-53.09v17.49S1166.82,146.72,1182.18,146.68Z"/><path class="cls-6" d="M1560.72,191.65l.51-15.57-55.11-1.51-.51,15.58S1560.73,191.14,1560.72,191.65Z"/><path class="cls-6" d="M1623.39,188.12l-.24-15.58-55.13.71.24,15.58S1623.38,187.62,1623.39,188.12Z"/><path class="cls-6" d="M1528.56,167.12l-1.33-15.54-55,3.89,1.32,15.53S1528.51,166.61,1528.56,167.12Z"/><path class="cls-6" d="M1506.27,146.91l-.24-15.58-55.13.7.24,15.58S1506.26,146.4,1506.27,146.91Z"/><path class="cls-7" d="M1590.91,168.73l-.24-15.58-55.12.7.24,15.58S1590.91,168.22,1590.91,168.73Z"/><path class="cls-6" d="M1438.28,192.13l.51-15.57s-31.63-.29-31.63.19c-1.07,1.46,3.72,6.31,3.72,6.31l3.73.48-.85,1.76,3.51,4.54s3.78,1.83,4.07,1.61S1438.28,192,1438.28,192.13Z"/><path class="cls-6" d="M1570.08,148.08l-.1-15.58-55.13.3.1,15.58S1570.08,147.58,1570.08,148.08Z"/><path class="cls-6" d="M773,146.62l-.47-15.57-55.11,1.38.47,15.58S772.94,146.11,773,146.62Z"/><path class="cls-7" d="M742.61,166l-.47-15.58L687,151.83l.47,15.57S742.6,165.51,742.61,166Z"/><path class="cls-6" d="M806,99.1l-.47-15.57-55.11,1.38.47,15.58S806,98.59,806,99.1Z"/><path class="cls-6" d="M733.33,125l.64-15.57-55.09-1.87-.64,15.57S733.35,124.45,733.33,125Z"/><path class="cls-6" d="M712.27,147.59,711.8,132l-55.11,1.38.47,15.58S712.25,147.08,712.27,147.59Z"/><path class="cls-6" d="M742.61,101l-.47-15.57L687,86.85l.47,15.58S742.6,100.53,742.61,101Z"/><path class="cls-7" d="M766,79.22l-.47-15.57L710.46,65l.47,15.58S766,78.71,766,79.22Z"/><path class="cls-6" d="M677.14,168.44l-.48-15.57-55.11,1.38.47,15.58S677.12,167.93,677.14,168.44Z"/><path class="cls-6" d="M777.75,187.84l-.47-15.58-55.11,1.39.47,15.57s-.64-3.58,4.17-3.74c5.28-.17,10.86-6.09,18.1-6.3,6.33-.19,18.53,7.13,23.43,6.79C775.26,185.48,777.75,187.7,777.75,187.84Z"/><path class="cls-6" d="M714.93,189.29l-.47-15.57-55.11,1.38.47,15.58S714.92,188.78,714.93,189.29Z"/><path class="cls-6" d="M672.64,125l.64-15.57-33.77-1-21.83,9.7-.13,5S672.66,124.45,672.64,125Z"/><path class="cls-6" d="M649.45,149.53,649,134l-55.11,1.38.47,15.58S649.44,149,649.45,149.53Z"/><path class="cls-5" d="M1290.84,115,1297,85.3l21.31-1.41.15-13.23s9.8-9.81,17.54-9.73,21.5-18,15.74-21.32-7.32-34.8-7.32-34.8l22.74,39.93-6.07,21.43s9.4,23.25,7.42,26.53,9.59,7.55,9.59,7.55,7.71,2.56,9.58,7.54,1.8,11.6,1.8,11.6L1395,145.9l21.15,11.8s-27-6.91-34.77-5.34-7.58-13.31-7.58-13.31-17.36-5.15-27-5.25a35.8,35.8,0,0,1-17.35-5.15l-23.26,3s0-3.31-7.79,3.88c0,2.64-11.68,5.82-11.68,5.82s2-2.18-9.62-4.51a45.52,45.52,0,0,1-19.25-9s25.24-6.34,29.09-4.64S1290.84,115,1290.84,115Z"/><polygon class="cls-10" points="1331.61 103.87 1339.17 118.83 1341.01 127.12 1356.44 130.6 1379.64 132.5 1383.67 119.32 1366.42 105.91 1368.39 102.62 1354.99 90.9 1359 79.37 1347.45 74.28 1341.56 80.83 1331.73 93.95 1316.17 100.39 1316.05 110.31 1327.69 108.21 1331.61 103.87"/><path class="cls-6" d="M1303,88.1l-.17,13.8,52.06.57.17-13.8S1303,88.55,1303,88.1Z"/><path class="cls-6" d="M1331.58,106.6l-.17,13.8,17.41.19.06-5,1.9,3.33,2-1.63,0,1.65,1.92,1.68,28.84.31.17-13.8S1331.57,107.05,1331.58,106.6Z"/><path class="cls-7" d="M1297.25,106.8s-2.23,3.28,0,3.31-2.21,1.63-2.21,1.63,2.17,1.67,0,3.3-2.27,6.59-2.27,6.59l34.83.38.17-13.8S1297.25,107.25,1297.25,106.8Z"/><path class="cls-6" d="M1357,86.15s1.88-.17,0-5.15c-.59-1.57,2-1.63,2-1.63s-.28-1.82,2-3.28a2.12,2.12,0,0,0,.69-3.3l-35.48-.39L1326,84.84S1357,85.74,1357,86.15Z"/><path class="cls-5" d="M1113.55,120.89,1108,89.6l-21.85-2,.17-13.88s-9.82-10.52-17.77-10.61-21.64-19.32-15.64-22.72,8.4-36.35,8.4-36.35l-24.36,41.38,5.69,22.61s-10.24,24.18-8.29,27.67-10,7.7-10,7.7-8,2.52-10,7.7-2.13,12.12-2.13,12.12l-6.3,27.69-22,11.9s27.92-6.63,35.85-4.81,8.12-13.79,8.12-13.79,18-5,27.9-4.9a36.22,36.22,0,0,0,17.95-5l23.82,3.74s0-3.47,7.9,4.25c0,2.77,11.86,6.37,11.86,6.37s-2-2.33,10-4.51a46.64,46.64,0,0,0,20-9s-25.77-7.22-29.76-5.53S1113.55,120.89,1113.55,120.89Z"/><polygon class="cls-10" points="1071.94 108.29 1063.8 123.82 1061.71 132.47 1045.76 135.76 1021.88 137.24 1018.07 123.31 1036.13 109.63 1034.18 106.14 1048.25 94.15 1044.42 81.96 1056.41 76.89 1062.29 83.89 1072.07 97.88 1087.89 105 1087.76 115.41 1075.86 112.94 1071.94 108.29"/><path class="cls-6" d="M1101.77,92.4l-.17,14.48-53.5-.59.18-14.48S1101.77,92.87,1101.77,92.4Z"/><path class="cls-6" d="M1071.91,111.16l-.18,14.48-17.89-.2.06-5.2-2,3.45-2-1.76,0,1.73-2,1.72-29.63-.33.17-14.48S1071.9,111.63,1071.91,111.16Z"/><path class="cls-7" d="M1107.16,112.15s2.21,3.49,0,3.47,2.23,1.76,2.23,1.76-2.27,1.71,0,3.47,2.16,7,2.16,7l-35.78-.39.17-14.49S1107.16,112.62,1107.16,112.15Z"/><path class="cls-6" d="M1046.27,89.12s-1.93-.22.12-5.4c.65-1.64-2-1.76-2-1.76s.33-1.9-2-3.49a2.24,2.24,0,0,1-.62-3.47l36.45.4-.16,13S1046.27,88.69,1046.27,89.12Z"/><path class="cls-8" d="M939,152.87c24.67,4.13,28-15.63,28-15.63s4-21.88,16.79-14.89,24.54.94,53.21,5.46,49.35,25.33,64.77,23.11-33.71,55.63-33.71,55.63L963.68,193Z"/><path class="cls-11" d="M1337.88,309.48s79.79,40.19,131.12,40.85,103.9,40,103.9,40S1693,397,1693,399s269.33-9.33,269.33-9.33l58-12-34.66-92"/><path class="cls-8" d="M653.63,124.65c22.54-1.6,35.81-5.44,50.29-3.86,13.7,1.48,15.65,13.06,38.69,20.63,5.73,1.88,12.21.83,25.15-1.29,22.8-3.73,3.22-10.32,39.33-7.09,7.78.69,5.45,7.62,16.77,15.47,6.06,4.21,10.32,3.82,17.41,0,16.77-9,22.24-16,38.05-13.54,20.63,3.23,13.12,5.19,33.53,8.38,13.34,2.09,23.47.52,34.08,1.27a57.17,57.17,0,0,1,17.5,3.89c6.64,2.62,9.07,5.8,13.54,9,26.67,19.31,74.76-19.39,113.49-12.25C1116,149.8,1126.82,128,1150.79,124c10.07-1.67,19.77-12,30.3-5.8,7.86,4.61,13.19,2.07,20,1.93s5,2.56,13.54-1.93c12.14-6.41,26.54-2.13,38.05,1.29a107.32,107.32,0,0,1,24.5,11c12.26,7,29.81,19.08,80.61,13.54,35.46-3.87,23-8.24,38-18.06,11.91-7.8,16-2.68,21.92-3.22,14.47-1.33,17.1,10.68,32.89,10.32,12.1-.28,14.79-7.43,28.37-6.45,7.64.55,7.5,2.87,17.41,5.16,18,4.16,23.43-2.33,38,1.29,11.19,2.77,9.08,6.84,24.5,13.54,11.63,5,27.41,2.24,39.34-3.87,9.7-5,6.48-3.55,21.27-16.12,6-5.11,13-11.06,20.64-9.67s8.33,9,17.41,11c5.81,1.25,7.52-1.44,17.41-2.58,8.33-1,14.62.08,21.92,1.29,18.11,3,19,1.46,24.51-1.94,6.13-3.78,7.88-5.88,13.54-7.73,4.33-1.42,19.24,2.87,25.79,5.16,13.9,4.85,10.07-9.58,25.79-7.74,11.36,1.32,22.28,16.57,38.69,10.31,13.54-5.15,11.38-14.67,32.89-10.31,12.65,2.56,13.53,26.09,18.7,29.66,19.51,13.46,16.62,66.86,1.29,92.21-42.22,69.82-215.37-12.7-519.09.64-48.17,2.12-119,5.23-212.14,21.93-169.15,30.32-186.83,65.13-292.11,61.9-34.77-1.06-9.16-4.13-239.87-54.16C528.65,247.81,488,240.2,482.75,215.58c-6.06-28.4,36.18-73.63,70.28-72.23,17.53.73,11.05,8.37,26.44,2.58,17-6.39,32.8-21.15,47.72-23.85C641.72,119.44,638.63,125.72,653.63,124.65Z"/><path class="cls-12" d="M572.9,180.77S521.62,216.62,499.64,207s-70.27-40.13-82.43-34.68S408,175.72,395.67,178,339,236.45,298.33,237.72s-104.09-3.27-117.71-20.66-66.29-31.84-124.29-12.28-102.8,40.13-102.8,40.13-11.86,34.76-13.2,37.42,39.92,60,39.92,60l16.75,40s327,4,331.16,4S499.74,373,499.74,373L750,374.33,714.82,260.55"/><path class="cls-13" d="M558.25,196.79S447.33,210.33,442.83,219,383,266.6,332.33,264.47s-175.9-16.8-195.28-33.8S60.33,223,26.33,242.33s-81,49.48-81,49.48,59.09,41.86,84,30.52,120.12-26,132.2-19.33,71.68,18.67,90.21,38,51.5,28,51.5,28,178.24,34.72,201.3,4,42.4-38.4,82.4-63.55S679.67,203.7,694.33,219"/><path class="cls-13" d="M1381.33,149.88c9.28-.8,14.74-2.71,20.7-1.93,5.63.74,6.44,6.52,15.92,10.3,2.36.94,5,.41,10.35-.64,9.38-1.86,1.33-5.15,16.19-3.54,3.2.34,2.24,3.8,6.9,7.72,2.5,2.1,4.25,1.9,7.17,0,6.9-4.51,9.15-8,15.65-6.76,8.49,1.61,5.4,2.59,13.8,4.18s13.65-1.05,21.23,2.58c2.74,1.31,3.74,2.89,5.58,4.5,11,9.64,30.76-9.67,46.7-6.11,10.09,2.25,14.55-8.64,24.42-10.62,4.14-.83,8.14-6,12.47-2.9,3.23,2.31,5.43,1,8.23,1s2.07,1.28,5.57-1c5-3.19,10.92-1.06,15.66.65a40.94,40.94,0,0,1,10.08,5.47c5,3.47,12.27,9.52,33.17,6.76,14.6-1.93,9.49-4.11,15.66-9,4.9-3.9,6.61-1.34,9-1.61,6-.67,7,5.32,13.53,5.15,5-.14,6.09-3.71,11.68-3.22,3.14.27,3.08,1.43,7.16,2.57,7.41,2.08,9.64-1.16,15.66.65,4.6,1.38,3.74,3.41,10.08,6.75,4.79,2.53,11.29,1.12,16.19-1.93,4-2.48,2.67-1.77,8.76-8,2.47-2.55,5.36-5.52,8.49-4.83s3.43,4.5,7.17,5.47c2.39.62,3.09-.72,7.16-1.29a24.57,24.57,0,0,1,9,.65c7.46,1.49,7.82.73,10.09-1,2.52-1.88,3.25-2.94,5.57-3.86,1.78-.71,7.92,1.43,10.62,2.58,5.72,2.42,4.14-4.78,10.61-3.87,4.68.66,9.17,8.27,15.93,5.15,5.57-2.57,4.68-7.32,13.53-5.15,5.2,1.28,5.57,13,7.7,14.81,8,6.71,6.83,33.37.53,46-17.38,34.84-88.64-6.34-213.63.32-19.83,1.05-49,2.61-87.31,10.94-69.62,15.13-76.89,32.5-120.22,30.89-14.31-.53-3.77-2.06-98.72-27-35.52-9.34-52.24-13.13-54.41-25.42-2.49-14.17,14.89-36.75,28.93-36,7.21.37,4.55,4.18,10.88,1.29,7-3.19,13.5-10.56,19.64-11.9C1376.43,147.28,1375.16,150.41,1381.33,149.88Z"/><path class="cls-13" d="M848.07,353c-37.07-26-74.72-18.91-69.9-46.12s-5.18-33.59,9.25-34.33,10.13-60.94,10.13-60.94L627,217.85,506.51,349.67l121.16,68.66Z"/><path class="cls-12" d="M628.82,165.36c9.27-.8,14.74-2.72,20.7-1.93,5.63.74,6.44,6.52,15.92,10.3,2.36.94,5,.41,10.35-.65,9.38-1.86,1.33-5.15,16.19-3.54,3.2.35,2.24,3.81,6.9,7.73,2.49,2.09,4.25,1.9,7.16,0,6.9-4.51,9.16-8,15.66-6.76,8.49,1.61,5.4,2.59,13.8,4.18s13.64-1.05,21.23,2.58c2.74,1.3,3.74,2.89,5.57,4.5,11,9.64,30.77-9.67,46.71-6.11,10.09,2.25,14.55-8.64,24.42-10.62,4.14-.84,8.14-6,12.47-2.9,3.23,2.3,5.43,1,8.23,1s2.07,1.27,5.57-1c5-3.2,10.92-1.06,15.66.64a41.62,41.62,0,0,1,10.08,5.47c5,3.48,12.27,9.53,33.17,6.76,14.6-1.93,9.49-4.11,15.66-9,4.9-3.89,6.61-1.34,9-1.61,6-.66,7,5.33,13.54,5.15,5-.14,6.09-3.71,11.68-3.22,3.14.28,3.08,1.44,7.16,2.58,7.41,2.07,9.64-1.17,15.66.64,4.6,1.38,3.74,3.42,10.08,6.76,4.79,2.52,11.28,1.12,16.19-1.93,4-2.48,2.67-1.77,8.76-8.05,2.47-2.54,5.35-5.52,8.49-4.82s3.43,4.49,7.17,5.47c2.39.62,3.09-.72,7.16-1.29a24.79,24.79,0,0,1,9,.64c7.46,1.5,7.82.73,10.09-1,2.52-1.89,3.24-2.94,5.57-3.86,1.78-.71,7.92,1.43,10.62,2.57,5.72,2.42,4.14-4.78,10.61-3.86,4.68.66,9.17,8.27,15.92,5.15,5.58-2.58,4.68-7.32,13.54-5.15,5.2,1.28,5.57,13,7.69,14.8,8,6.72,6.84,33.37.54,46-17.38,34.85-88.64-6.34-213.64.32-19.82,1.06-49,2.61-87.31,10.94-69.61,15.14-76.88,32.51-120.21,30.9-14.31-.53-3.77-2.07-98.72-27-35.52-9.34-52.24-13.14-54.41-25.43-2.49-14.17,14.89-36.74,28.93-36,7.21.36,4.55,4.18,10.88,1.29,7-3.19,13.5-10.56,19.64-11.91C623.92,162.76,622.65,165.89,628.82,165.36Z"/><path class="cls-14" d="M1287.39,152.58c-6.83.5-11.12-.62-15.26,1-3.92,1.51-3.41,7.3-9.52,12.32-1.52,1.25-3.54,1.1-7.58.8-7.1-.52-1.93-4.87-12.32-1.23-2.24.78-.9,4.05-3.51,8.54-1.4,2.41-2.7,2.46-5.16,1-5.82-3.47-8.1-6.58-12.55-4.47-5.81,2.76-3.4,3.3-9.15,6s-10,.86-14.8,5.47c-1.72,1.67-2.14,3.36-3.16,5.2-6.08,11-24-5.24-34.78.47-6.84,3.6-12.11-6.47-19.59-7-3.14-.24-7-4.75-9.52-1.12-1.9,2.71-3.72,1.77-5.75,2.09s-1.25,1.54-4.19-.18c-4.2-2.44-8.06.47-11.15,2.81a29.15,29.15,0,0,0-6.23,6.77c-3,4.11-7,11.05-22.61,11.23-10.87.12-7.6-2.73-13-6.68-4.27-3.15-5-.4-6.8-.33-4.42.17-4.07,6.2-8.78,6.93-3.61.55-5.08-2.8-9-1.54-2.21.7-2,1.83-4.67,3.52-4.95,3.06-7.17.19-11.16,2.8-3.05,2-2,3.87-6,8-3,3.14-7.91,2.66-12,.35-3.34-1.89-2.26-1.37-7.83-6.69-2.26-2.16-4.9-4.68-7-3.56s-1.62,4.89-4.13,6.36c-1.6.94-2.36-.27-5.4-.27a13.49,13.49,0,0,0-6.38,1.88c-5.08,2.5-5.49,1.8-7.44.45-2.17-1.5-2.89-2.44-4.74-3-1.42-.45-5.43,2.5-7.16,4-3.66,3.17-3.89-4.12-8.37-2.32-3.24,1.29-5,9.39-10.49,7.26-4.5-1.76-4.76-6.54-10.72-3.18-3.51,2-1.55,13.56-2.74,15.6-4.52,7.71,1.38,33.72,8.31,45.26,19.09,31.82,62.62-18.5,153.88-29.27,14.47-1.71,35.76-4.23,64.93-1.35,53,5.21,61.5,21.26,92.39,13.68,10.2-2.5,2.32-2.55,66-40.22,23.81-14.09,35.14-20.14,34.37-32.5-.88-14.26-17.66-34-27.63-31.39-5.13,1.35-2.49,4.73-7.6,2.77-5.64-2.16-11.71-8.5-16.39-9S1291.94,152.25,1287.39,152.58Z"/><path class="cls-15" d="M880.66,213c9.3-.39,14.84-2.06,20.76-1,5.6,1,6.14,6.8,15.45,11,2.31,1,5,.63,10.36-.18,9.46-1.44,1.56-5.09,16.34-2.81,3.18.49,2.06,3.9,6.54,8,2.4,2.21,4.16,2.1,7.16.33,7.09-4.2,9.5-7.58,15.94-6,8.42,2,5.28,2.83,13.6,4.8s13.68-.44,21.1,3.52c2.67,1.43,3.6,3.06,5.36,4.75,10.53,10.12,31.17-8.28,46.94-4,10,2.7,14.92-8,24.86-9.51,4.18-.65,8.4-5.61,12.59-2.34,3.13,2.45,5.38,1.28,8.18,1.34s2,1.36,5.61-.72c5.13-3,11-.57,15.61,1.35a41.18,41.18,0,0,1,9.83,5.91c4.88,3.7,11.83,10.07,32.84,8.24,14.66-1.27,9.66-3.68,16-8.29,5.07-3.67,6.66-1.05,9.09-1.21,6-.4,6.79,5.64,13.29,5.75,5,.09,6.25-3.43,11.81-2.69,3.13.42,3,1.57,7,2.9,7.31,2.4,9.68-.73,15.61,1.34,4.54,1.59,3.59,3.58,9.77,7.21,4.67,2.73,11.22,1.62,16.26-1.21,4.1-2.3,2.75-1.65,9.11-7.64,2.59-2.44,5.6-5.28,8.7-4.44s3.22,4.64,6.91,5.78c2.37.73,3.13-.57,7.22-1a24.63,24.63,0,0,1,9,1.05c7.37,1.83,7.77,1.08,10.11-.51,2.61-1.78,3.38-2.79,5.74-3.61,1.82-.63,7.85,1.79,10.49,3.05,5.61,2.67,4.36-4.59,10.78-3.38,4.64.87,8.79,8.67,15.68,5.85,5.68-2.32,5-7.1,13.75-4.53,5.14,1.51,5,13.26,7,15.13,7.72,7.07,5.34,33.64-1.53,46-18.92,34-88.26-10.31-213.43-9.27-19.86.17-119.31,18-158,24.58-70.22,12-99.93-15.8-143.15-19.35-14.27-1.17-56.41-57.72-55.45-23.86.65,22.91-95.12-1.81-96.73-14.18-1.85-14.27,48.56,3.18,62.55,4.51,7.19.68,22.56-20.61,29-23.21,7.13-2.88,44.1,10.09,50.3,9C862.78,238.39,874.47,213.21,880.66,213Z"/><path class="cls-11" d="M1307.17,226c9.28-.8,14.74-2.71,20.7-1.93,5.64.74,6.45,6.52,15.93,10.3,2.36.94,5,.41,10.35-.64,9.38-1.86,1.32-5.15,16.19-3.54,3.19.34,2.24,3.8,6.9,7.72,2.49,2.1,4.24,1.9,7.16,0,6.9-4.51,9.15-8,15.66-6.76,8.49,1.61,5.4,2.59,13.8,4.18s13.64-1.05,21.23,2.58c2.73,1.31,3.73,2.89,5.57,4.5,11,9.64,30.77-9.67,46.71-6.11,10.08,2.25,14.55-8.64,24.41-10.62,4.15-.83,8.14-6,12.48-2.9,3.23,2.31,5.42,1,8.22,1s2.07,1.28,5.58-1c5-3.19,10.91-1.06,15.65.65a40.85,40.85,0,0,1,10.09,5.47c5,3.47,12.26,9.52,33.17,6.76,14.6-1.93,9.48-4.11,15.66-9,4.9-3.9,6.6-1.34,9-1.61,5.95-.67,7,5.32,13.53,5.15,5-.14,6.09-3.71,11.68-3.22,3.14.27,3.09,1.43,7.17,2.57,7.41,2.08,9.64-1.16,15.65.65,4.61,1.38,3.74,3.41,10.09,6.75,4.79,2.53,11.28,1.12,16.19-1.93,4-2.48,2.67-1.77,8.75-8,2.48-2.55,5.36-5.52,8.5-4.83s3.42,4.5,7.16,5.47c2.39.62,3.1-.72,7.17-1.29a24.59,24.59,0,0,1,9,.65c7.45,1.49,7.82.73,10.08-1,2.53-1.88,3.25-2.94,5.58-3.86,1.78-.71,7.92,1.43,10.61,2.57,5.72,2.43,4.15-4.77,10.62-3.86,4.67.66,9.16,8.27,15.92,5.15,5.57-2.57,4.68-7.32,13.53-5.15,5.21,1.28,5.57,13,7.7,14.81,8,6.71,6.84,33.36.53,46-17.37,34.85-88.63-6.33-213.63.33-19.83,1-49,2.61-87.31,10.94C1440.58,308,1433.3,325.41,1390,323.8c-14.31-.53-3.77-2.06-98.72-27-35.51-9.34-148.62-2.49-150.78-14.78-2.49-14.17,67.71-50.29,103.82-11.6,4.92,5.27,26-30.91,32.37-33.8,7-3.19,13.5-10.56,19.63-11.91S1301,226.5,1307.17,226Z"/><path class="cls-13" d="M1009.19,225.27c0,1.55-82.85,2.8-185.06,2.8s-185.07-1.25-185.07-2.8,82.86-17.64,185.07-17.64S1009.19,223.72,1009.19,225.27Z"/><path class="cls-13" d="M1421.88,236.23c0,1.55-85.43,14-187.64,14s-182.49-12.41-182.49-14,82.86-2.8,185.07-2.8S1421.88,234.68,1421.88,236.23Z"/><path class="cls-13" d="M1484.43,242.68c0,1.55-82.86,46.2-185.07,46.2s-185.06-44.65-185.06-46.2,82.86-2.81,185.06-2.81S1484.43,241.13,1484.43,242.68Z"/><path class="cls-14" d="M1320,260.09c-1.54-.21-85.44,19.76-187.65,19.76s-182.48-18.21-182.48-19.76,83.69-15.87,185.06-2.81C1441.26,296.76,1347.91,263.94,1320,260.09Z"/><path class="cls-8" d="M1070.45,253c0,1.54-83.5,12-185.71,12s-184.42-10.48-184.42-12,82.86-2.81,185.07-2.81S1070.45,251.45,1070.45,253Z"/><path class="cls-13" d="M1776.53,268.47c0,1.55-83.5,20.41-185.7,20.41S1406.41,270,1406.41,268.47s82.85-2.8,185.06-2.8S1776.53,266.92,1776.53,268.47Z"/><path class="cls-13" d="M895.7,200.48c0,5-82.21,56.8-184.42,56.8s-185.71-51.83-185.71-56.8,82.86-9,185.07-9S895.7,195.51,895.7,200.48Z"/><path class="cls-16" d="M893.77,238.16c0,1.55-82.86,18.48-185.07,18.48s-185.06-16.93-185.06-18.48,82.86-2.8,185.06-2.8S893.77,236.62,893.77,238.16Z"/><path class="cls-13" d="M1599.21,200.48c0,5-77.7,25.85-179.91,25.85s-190.22-20.88-190.22-25.85,82.85-9,185.06-9S1599.21,195.51,1599.21,200.48Z"/><ellipse class="cls-13" cx="1630.8" cy="204.35" rx="185.06" ry="9.01"/><path class="cls-16" d="M1270.08,193c0,5-79,54.87-181.2,54.87S900,197.92,900,193s82.86-9,185.06-9S1270.08,188,1270.08,193Z"/><path class="cls-17" d="M1249.49,150.88a22.65,22.65,0,0,1,4.71,10.55c.9,6.18-4.35,15.84-4.63,21s1.44,15.87-4.3,24.78-6.93,11.52-6.93,11.52,4-3.4,5.75-2.61,3.72-7.22,4.77-10.41,3.45-12.06,3.36-13.68a57.6,57.6,0,0,1,2.81-19.7c3.14-9.58.4-15.82-.31-17.45-.51-1.2-3.44-7.87-3.44-7.87Z"/><path class="cls-18" d="M1252,187.45a18,18,0,0,1,7.89-6.35,65.75,65.75,0,0,0,11-6l-.45,1.89s-13.22,6.56-15.87,11.1a32.33,32.33,0,0,0-2.78,6.07Z"/><path class="cls-19" d="M1269.11,176.39s-4.72,3.08-4.6-2.63,11.65-10.93,18.07-9.57,13.33,3.49,14.41,2.93,1,.47-1.14,1.58a70.37,70.37,0,0,0-13,10.31c-3.35,3.71-10.64,8.76-13.19,7.07a5.19,5.19,0,0,1-1.93-6.65Z"/><path class="cls-20" d="M1251.24,149.32s-1.61,7.67-8.8,3.84c-7-3.73-7.16-10.63-8.08-13.15a43.21,43.21,0,0,0-5.16-8.65c-1.31-1.66,1.09-.56,1.09-.56s5,1.77,8.33,1.72,9.76,1.32,13.28,4.51,5.55,7.79,3.77,11.69S1251.24,149.32,1251.24,149.32Z"/><path class="cls-16" d="M549,236.75s-68-14.8-83.68,2.06S395.15,278.29,387.74,279s-161.35,26-191,28.69-78.31-14-94.33-4.67-78,50-78,50L53,383s276.44-9.4,280.34-8.78S561.67,377,561.67,377l55.88-24s-69.88-24.37-67.88-43.52,83.38-68.4,89.39-61.66"/><path class="cls-21" d="M460.55,114.26c-2.63-1.91-5.18-4.16-8.51-4.71,2.5-.68,4.81-2.06,7.21-3.14,8.29-3.73,28.84-5.15,28.81,7.23C488,129.19,465.55,117.88,460.55,114.26Z"/><path class="cls-22" d="M474.3,114.16l.05,1c8.77-.08,16.14,1.84,21.92,5.71s9.94,9.64,13.73,14.81l.82-.59c-3.84-5.24-8.19-11.19-14-15.08S483.28,114.08,474.3,114.16Z"/><path class="cls-23" d="M554.89,159.56c2.54-8,5.41-16.71,12.35-21.93.73-.55,1.77-1.06,2.4-.54a38.34,38.34,0,0,0-15.66-.38,27.07,27.07,0,0,0-14.35,7.7c-6,6.38-8.39,18.08-3,24.26C543.5,176.42,552.39,167.46,554.89,159.56Z"/><path class="cls-24" d="M494.92,147.75,487.39,139c-1.44-1.68-3.32-3.5-5.69-3A22.34,22.34,0,0,1,500,129.43c7.5.89,18.48,7.69,17.11,16.67C515.26,158.09,499.36,152.91,494.92,147.75Z"/><path class="cls-25" d="M564.8,104.5c2.68.64,5.61.13,8.45-.39l23.18-4.22a63.27,63.27,0,0,0-11.34-9.14A25.4,25.4,0,0,0,570.71,87c-3.91.24-12.75,2.42-14.5,6.9S561.14,103.61,564.8,104.5Z"/><path class="cls-26" d="M529.71,133.34a20.08,20.08,0,0,0,4.6-3.27c2.09-1.82,4.23-3.76,5.36-6.23.92-2,1.11-4.11,1.79-6.14a15.45,15.45,0,0,1,8-8.84c-7.4-1.9-16.29.6-22.36,6.31a13.37,13.37,0,0,0-3.29,4.36,15.71,15.71,0,0,0-1,4.13C522.16,128.46,522.63,136.57,529.71,133.34Z"/><path class="cls-27" d="M518,105.88c1.86-4.22,1.85-8.77,2.21-13.19a76.23,76.23,0,0,1,1.88-11.59c.54-2.21,1.26-4.54,3-6.18C516.68,75,507.42,80.05,504,88a34,34,0,0,0-2.06,8.17c-.92,5.64-.78,12,3.87,15.57C510.21,115.15,515.8,110.92,518,105.88Z"/><path class="cls-28" d="M530.7,104.05a36.33,36.33,0,0,0-11.26,35.84l.93-.32a35.27,35.27,0,0,1,16.69-39c10.49-5.85,22.77-5.09,34.48-3.39l.24-.94c-11.87-1.72-24.35-2.48-35.12,3.52A33.57,33.57,0,0,0,530.7,104.05Z"/><path class="cls-29" d="M514,80.37c-5.51,10.39-8,20.44-7.31,29.85.56,8,2.17,11,8.95,23.71q.95,1.75,2,3.78c3.62,6.82,7.69,14.78,10.1,23,2.65,9,3,17.09,1,24.76a27.57,27.57,0,0,1-8.21,13.85l-.09.08c-5.49,4.82-12,6.19-16.68,7.19a47.05,47.05,0,0,1-11.8,1l-.15,1a48.19,48.19,0,0,0,12-1c4.56-1,11.46-2.43,17.17-7.44a28.6,28.6,0,0,0,8.64-14.47c2-7.84,1.69-16.1-1-25.25-2.43-8.25-6.51-16.26-10.15-23.11l-2-3.79c-6.71-12.59-8.31-15.59-8.85-23.36-.65-9.24,1.77-19.1,7.19-29.33Z"/><path class="cls-30" d="M553.1,144.34a38.45,38.45,0,0,0-8.88,12.29,112.8,112.8,0,0,0-4.71,12.13c-.47,1.35-1,2.75-1.44,4.12a19.2,19.2,0,0,1-2.66,5.43,6.94,6.94,0,0,1-4.84,2.91l-.07.95a8,8,0,0,0,5.65-3.34A20.4,20.4,0,0,0,539,173.1c.5-1.38,1-2.78,1.45-4.13a111.17,111.17,0,0,1,4.66-12c2.88-6,6.46-10.55,10.65-13.58l-.5-.74Q554.14,143.43,553.1,144.34Z"/><path class="cls-31" d="M504.61,139.27l.55.75a2.45,2.45,0,0,1,1.62-.28c5,.37,8.87,3.16,11.26,5.43a54.57,54.57,0,0,1,7.78,10.13l.83-.57a55.48,55.48,0,0,0-7.9-10.28,19.67,19.67,0,0,0-11.82-5.68A3.32,3.32,0,0,0,504.61,139.27Z"/><path class="cls-32" d="M533.44,119.6c-2.67,2.37-4.54,5.67-6.17,9l-.4.81c-1.87,3.83-3.8,7.79-7.14,10.39l.54.72c3.54-2.77,5.53-6.84,7.46-10.78l.39-.81c2-4.17,4.48-8.31,8.38-10.38l-.37-.82A14.09,14.09,0,0,0,533.44,119.6Z"/><path class="cls-13" d="M1881.05,146.09s12.62,25.91,36,23.24,58.37-36.19,75.33-28.15S2033,175,2033,175l-28.67,94.09,48,43.58-12.66,74s-107.34-26-120-56.67-9.87-71.6-29.27-83.13S1831,238,1821,227.33s-44.47-20-44.47-20"/><path class="cls-11" d="M1802.9,217.82s76.77,23.26,101.43,19.05,77.34-7.12,80.67,0,50,14.1,54,7.95S2073,334,2073,334l-16.67,78.67s-182.83-55.17-183.75-69.59-54.82-48-100.2-50.52"/><path class="cls-13" d="M1595.7,288.87s160.63,8.13,162.63,24.8S1829,316.33,1837,329s72.67,16,82.67,24,84,4.67,84,4.67l3.33-51.34s-102.67,20.67-106.67-.66-68-52.05-102-45.12-142.67,6.29-150.66,5.75"/><path class="cls-8" d="M1469.92,303.75a180.83,180.83,0,0,1-63.51,26.58c-36.74,7.34-62.1,4-62.1,4l64.54,12s34-15.33,42.05-11.33,23.8-22.09,63.95-26.05,77.23-5.47,84.36-8.71-36-11.36-36-11.36"/><path class="cls-14" d="M1310.19,275.76s73.49,1.24,73.48,9.91,44.9,1.33,55.12,8,71.4-.76,71.4-.76-61.86-.15-61.86-4S1423.61,267,1396,265s-76-4.93-76-4.93-86.33-19.09-125-10.42-38.47,15.42-64.57,14.71"/><path class="cls-33" d="M1943.78,93.64a23.09,23.09,0,0,1,4.8,10.75c.92,6.31-4.44,16.16-4.72,21.39s1.47,16.18-4.38,25.27-7.07,11.75-7.07,11.75,4.12-3.46,5.87-2.66,3.79-7.36,4.86-10.62,3.52-12.3,3.42-14a59.06,59.06,0,0,1,2.86-20.09c3.21-9.77.41-16.13-.3-17.8l-3.51-8Z"/><path class="cls-34" d="M1946.36,130.93a18.38,18.38,0,0,1,8.05-6.48,67.38,67.38,0,0,0,11.24-6.09l-.46,1.93S1951.71,127,1949,131.61a32.73,32.73,0,0,0-2.83,6.19Z"/><path class="cls-35" d="M1963.79,119.65s-4.82,3.15-4.69-2.68,11.87-11.15,18.42-9.76,13.6,3.56,14.7,3,1,.48-1.16,1.61a71.66,71.66,0,0,0-13.27,10.51c-3.42,3.78-10.86,8.94-13.45,7.22a5.3,5.3,0,0,1-2-6.79Z"/><path class="cls-36" d="M1945.57,92.05s-1.65,7.82-9,3.91c-7.14-3.8-7.3-10.83-8.24-13.4a44.14,44.14,0,0,0-5.26-8.83c-1.34-1.69,1.11-.57,1.11-.57s5.09,1.8,8.5,1.76,10,1.34,13.54,4.59,5.66,7.95,3.84,11.93S1945.57,92.05,1945.57,92.05Z"/></svg>