<svg xmlns="http://www.w3.org/2000/svg" viewBox="0 0 174.22 195.46"><defs><style>.cls-1{fill:#b0b0b0}.cls-2{fill:#979797}.cls-3{fill:#8c573a}.cls-4{fill:#673f31}</style></defs><title>hole_2</title><g id="Capa_2" data-name="Capa 2"><g id="PARED"><g id="ABUJEROS"><path d="M36.12,142.35l6.37-38.25L65.86,102V85S76.49,72.24,85,72.24s23.37-23.37,17-27.62S93.48,0,93.48,0L119,51,112.6,78.61s10.63,29.74,8.5,34,10.62,9.56,10.62,9.56,8.5,3.19,10.63,9.56,2.12,14.88,2.12,14.88l6.38,34,23.37,14.87S144.47,187,136,189.09s-8.49-17-8.49-17-19.13-6.37-29.75-6.37-19.12-6.38-19.12-6.38l-25.5,4.25s0-4.25-8.49,5.1c0,3.4-12.75,7.65-12.75,7.65s2.12-2.83-10.62-5.66A47.69,47.69,0,0,1,0,159.34s27.62-8.49,31.87-6.37S36.12,142.35,36.12,142.35Z" class="cls-1"/><polygon points="80.73 127.47 89.23 146.6 91.36 157.22 108.35 161.47 133.85 163.59 138.1 146.6 118.98 129.6 121.1 125.35 106.23 110.48 110.48 95.61 97.73 89.23 91.36 97.73 80.73 114.73 63.74 123.23 63.74 135.97 76.48 133.11 80.73 127.47" class="cls-2"/><path d="M49.07,107.61v17.74h57.16V107.61S49.07,108.19,49.07,107.61Z" class="cls-3"/><path d="M80.73,131v17.74H99.86v-6.37L102,146.6l2.12-2.13v2.13l2.13,2.12H137.9V131S80.73,131.56,80.73,131Z" class="cls-3"/><path d="M43.05,131.72s-2.4,4.25,0,4.25-2.4,2.13-2.4,2.13,2.4,2.12,0,4.25-2.41,8.5-2.41,8.5H76.49V133.11S43.05,132.3,43.05,131.72Z" class="cls-4"/><path d="M108.41,104.34s2.07-.24-.06-6.61c-.67-2,2.13-2.12,2.13-2.12a4.88,4.88,0,0,1,2.12-4.25,3,3,0,0,0,.71-4.25H74.36v16S108.41,103.82,108.41,104.34Z" class="cls-3"/></g></g></g></svg>