<svg xmlns="http://www.w3.org/2000/svg" xmlns:xlink="http://www.w3.org/1999/xlink" viewBox="0 0 1920 1080.17"><defs><style>.cls-1{fill:url(#Безымянный_градиент_6)}</style><linearGradient id="Безымянный_градиент_6" x1="960" x2="960" y1="1080.17" gradientUnits="userSpaceOnUse"><stop offset="0"/><stop offset="1" stop-opacity="0"/></linearGradient></defs><title>landscape</title><g id="Capa_2" data-name="Capa 2"><g id="teaser"><path d="M1912,61.17l-10-17-13,24,9,39s-17,17-19,3,2-20-10-7-8-26-8-26-4-40-15-36,9,13-7,19,4,23,1,40c-2.29,13-9.24,1.48-12-8.24h-4.61V81.29h4c.14-.88.28-1.76.4-2.66h-4.4V68h4c-.19-.85-.42-1.73-.69-2.66h-3.28V56.9q-1.18-2.57-2.78-5.53V52h-5.56V41.38h1a24.26,24.26,0,0,1-.68-2.66h-.35V29.8l-2.79.93v8h-5.56V32.59l-2.79.92v5.21h-5.56V35.37l-2.78.93v2.42H1790v-.57l-3,1,.25,2.21h0v0l3,26.56h5.34V78.63h-4.13l.31,2.66h3.82V91.93H1790v-8.6l-2.78.23v8.37h-5.57V84l-1.69.14v26h-37l1,38-13-6,4-46-45-19,1,71-15-16,3-104-48,13,2.3,60.6,43-.59.08,6.2-42.82.59.46,12.2h-26v35L1594.63,157l0-.53-8.58-75.9s-5.28,0-5.28-2.64,2-9.9,0-10.56-5.28-6.6-7.92-7.26,2,15.84,0,15.84-9.24-2-6.6-4.62,2.64-27.06,0-29.7-19.8,15.18-19.14,17.82,2.64,24.42,0,23.1-6.6-4.62-4.62-5.28,0-17.16,0-17.16h-3.3v-6.6h-2.64V66h-2.64l-3.3-2.64V97l-7.92-.66v17.82l-12.54.66-.66-9.9-34.32,1.32,9.9,4-7.26-.66,1.32,5.94-8.58-7.26-2,5.28,6.6,3.3-9.9-2-.66,4.62-5.28-13.86-.66,51.48-11.88-.66v-36.3l-5.28-4V95L1433,89.1H1427l-2.64,32.34-5.94.66-5.28,4v19.8l-17.82,22.44-13.86,1.32,1.32-11.22V144.54l.66-15.18-2-16.5-1.32-2.83v2.84h-2.64v-6h1.19l-1.85-4L1361,104.28l-4.62-1.32-2,13.86.66,34.32v12.54l-10.56-.66,1.32-22.44-4.62-7.26v-8.58l-8.58,1.32-1.32-5.94V108.24l-13.2.66v14.52l-2.64,6.6,1.32,27.72-13.86-2.64a44.45,44.45,0,0,1-6.6-.66c-4-.66,1.32-14.52,1.32-17.82s-1.32-9.24-4-11.22,0-17.82,0-17.82h-7.26c-2,0,0,9.9-1.32,9.9s-2,2-4,0-5.28,8.58-5.28,8.58-2.64,7.26-5.28,7.26.66-9.9,0-15.84-7.92,9.24-9.9,8.58,6.6,36.3,2.64,37-13.2,0-13.2,0l.66-11.88-4.62-5.94-10.56,1.32L1234.29,167h-2.64l-.66-32.34-12.54-2-.66,30.36-15.18-5.28.66-24.42-4.62-2-2,1.32-1.32-5.94h-3.3l-4,17.82-.66,19.8-8.58-2v-5.28l-4.62.66v19.14l-4.62,3.3V169.62l-4-5.28-4,5.94-9.24-5.94-6.6-21.78L1143.21,161l-8.58.66-.66,21.78v15.84l-12.54-7.26-.66-22.44-22.44-1.32v10.56l-21.12,7.92,4.62-15.18-16.5-5.94V148.5l-5.94,8.58,5.28-24.42,1.32-16.5-5.94,12.54-11.22-7.26,2,17.16-5.28-9.24-7.26,5.28,7.26-23.1-15.84,15.84V113.52l-9.24,36.3-11.22-5.28V126.72l-5.28-.66-.66-7.92L1002,99l-14.52-4.62-2,37.62L969,135.3l2,9.24-8.58-6.6v14.52l-7.26-19.8-.66,9.24-4-11.22-3.3,11.22-25.74-1.32v13.86l-9.24-2v-19.8H903l-4.62-18.48h-6.6l-2.64,21.12.66,15.84-16.5,4.62,2,32.34-10.56-2V170.28h-7.92l1.32-19.14V132.66l-2-.73v4.91h-6.52V130h1.34l-5.38-2h-5.94v-6.82h5.8l0-1.7h-5.77V112.7h5.63l0-1.7h-5.6v-6.82h5.46l-.05-2.56h-5.41V94.81h5.27l0-1.71h-5.24V86.28h5.1l0-1.7h-5.06V77.76h4.93l0-1.7h-4.89V69.24h4.75l0-1.7h-4.72V62.7h-3.3v4.84h-6.6V64.08l-3.3,1.37v2.09h-1.32v1.7h1.32v6.82h-1.32v1.7h1.32v6.82h-6.6v-3.4h-3.3v3.4h-6.6V77.76h2.84l-1.87-1.7h-1v-.88l-.66-.6-2,6.6-.66,9.9v2h-.13l-.12,1.71h.25v6.81H800V98.7l-2.64-1L800,127.82v-6.6h6.6V128H800l.64,7.31V130h6.52v6.82H800.8l.15,1.7h6.24v6.82h-5.64l.15,1.7h5.49v6.82h-4.9l.15,1.7h4.75v6.82H803l.15,1.71h4v6.81h-3.4l.22,2.56h3.18v6.82h-2.58l.15,1.7h2.43v6.82h-6.52V182h.56l-26.3-39.44-20.46,1.32-3.3,29-5.94-24.42L738.63,161l-.66-19.8-29,4-5.28,52.14L699,152.46l-7.92-34.32,1.32-25.08-5.94-4.62-4-11.22-19.8-11.88.66-38.94L641.61,33,639,66l-7.26,4-2,27.06,2.71,6.25-.12-5.33,5.33-3.56,2,7.92,10.56-2.64,4.62,7.26-7.92-1.32-5.28,7.26h11.88l5.94,11.88-5.94-5.28-20.66,1.82,0,1L645.57,128H633l.06,2.64-.19,2.14,6.13,7.76-6.55-3-1.37,15.54-9.9,36.3-7.26-9.24.66-24.42-5.28.66-6.6-19.8-16.5,2.64h-9.9L573,136l-5.28,3.3,1.32,16.5H545.25V134l-14.52-.66-2-11.88-29-.66-2,5.94H474l-1.32-18.48-9.9-29-18.48-1.32v36.3l-9.24-.66-.66-22.44H419.19l-2.64-70H405.33l-4-7.26-7.26,8.58-15.18-2-4,2.64v66l-20.46-.66v-.27h-4.35l0-75.68h2.26l-.58-9.85L313.59,0l-.53,12.48h4l0,75.68H312V37.36L311.26,55,289,60.17l-4.41-19.84h-2.21v-10l-1.32-5.91V27h-2.62V16.38h.83L279,15.17l-7.47,1.21h1.66V27h-2.63V16.54l-1.31.21V27h-2.62V17.18l-1.31.21V27h-2.63v-9.2L261,18.1V27h-2.62v-8.5l-1.32.22V27h-2.62V19.16l-1.31.22V27H250.5V19.81l-1.31.21v7h-2.63V20.45l-1.31.21V27h-2.62V21.09l-1.31.21V27h-2.63V21.73l-2.69.44v47H209v-27H181l-7-27H148l-7,66-6-25-.61-.15.1,2.17-5.64.26-.18-3.84-2.85-.7.21,4.67-5.64.26-.29-6.33-2.86-.7.33,7.16-5.64.27-.38-8.1,2.5-.11L82,43.17l3,50-25-12-5-66-55,11v1054H1920V28.17Zm-279.37-5.94,43-.59.08,6.2-43,.59Zm.13,9.31,43-.6.09,6.21-43,.59Zm.13,9.3,43-.59.09,6.21-43,.59Zm.12,9.31,43-.59.08,6.21-43,.59Zm.22,15.51-.09-6.2,43-.59.08,6.2ZM806.61,119.52H800V112.7h6.6Zm0-8.52H800v-6.82h6.6Zm-672-50.79L135,68.3l-5.64.27-.37-8.1Zm-8.46.39.37,8.1-5.64.26-.37-8.09Zm-8.46.4.37,8.09-5.64.26L112,61.26Zm-8.09,8.48-5.64.27-.38-8.1,5.64-.26Zm-.85-18.21.38,8.1-5.64.26-.38-8.09Zm-7.61,18.61-5.64.26-.38-8.09,5.64-.27Zm-.85-18.21.38,8.09L95,60l-.38-8.09Zm-14.1.65,5.64-.26.38,8.09-5.64.27Zm.47,10.12,5.64-.26.38,8.09L87,70.53Zm.47,10.11,5.64-.26.38,8.09-5.64.27Zm.47,10.12,5.64-.26.38,8.09L88,90.76Zm.47,10.12,5.64-.27.38,8.1-5.64.26Zm.52,11.12,5.64-.26.37,8.09-5.64.27ZM89,114l5.64-.26.37,8.09-5.64.26Zm.84,18.21-.37-8.1,5.64-.26.37,8.09Zm5.69-60.08,5.64-.26.38,8.09L96,80.25ZM96,82.28l5.64-.27.38,8.1-5.64.26Zm.47,10.11,5.64-.26.38,8.09-5.64.27ZM97,103.52l5.64-.26.37,8.09-5.64.26Zm.47,10.12,5.64-.27.37,8.1-5.64.26Zm.84,18.2L98,123.75l5.64-.26.37,8.09ZM104,71.77l5.64-.26.38,8.09-5.64.26Zm.47,10.11,5.64-.26.38,8.09-5.64.27ZM105,92l5.64-.26.38,8.09-5.64.26Zm.52,11.13,5.64-.27.38,8.1-5.65.26Zm.47,10.11,5.64-.26.38,8.09-5.65.27Zm.84,18.21-.37-8.09,5.64-.26.38,8.09Zm5.69-60.07,5.65-.27.37,8.1-5.64.26ZM113,81.49l5.64-.26.38,8.09-5.64.26Zm.47,10.12,5.64-.27.38,8.1-5.64.26Zm.52,11.12,5.64-.26.38,8.09-5.64.27Zm.47,10.12,5.64-.26.38,8.09-5.64.26Zm.85,18.21-.38-8.09,5.64-.27.38,8.1ZM121,71l5.64-.26.37,8.09-5.64.26Zm.47,10.12,5.64-.26.37,8.09-5.64.26Zm.47,10.11,5.64-.26.37,8.09-5.64.27Zm.51,11.13,5.64-.26.38,8.09-5.64.26Zm.47,10.12,5.64-.27.38,8.1-5.64.26Zm.85,18.2-.38-8.09,5.64-.26.38,8.09Zm5.69-60.07,5.64-.26.37,8.09-5.64.26Zm.47,10.11,5.64-.26.37,8.1-5.64.26Zm.47,10.12,5.64-.26.37,8.09-5.64.26Zm.51,11.13,5.64-.26.38,8.09-5.64.26Zm.47,10.11,5.64-.26.38,8.09-5.64.27Zm.85,18.21-.38-8.09,5.64-.26.38,8.09Zm109.13-22.1h-2.63V97.52h2.63Zm0-13.31h-2.63V84.22h2.63Zm0-13.3h-2.63V70.92h2.63Zm0-14.63h-2.63V56.29h2.63Zm0-13.3h-2.63V43h2.63Zm0-13.3h-2.63V29.68h2.63Zm3.93,67.84h-2.62V97.52h2.62Zm0-13.31h-2.62V84.22h2.62Zm0-13.3h-2.62V70.92h2.62Zm0-14.63h-2.62V56.29h2.62Zm0-13.3h-2.62V43h2.62Zm0-13.3h-2.62V29.68h2.62Zm3.94,67.84h-2.63V97.52h2.63Zm0-13.31h-2.63V84.22h2.63Zm0-13.3h-2.63V70.92h2.63Zm0-14.63h-2.63V56.29h2.63Zm0-13.3h-2.63V43h2.63Zm0-13.3h-2.63V29.68h2.63Zm3.94,67.84H250.5V97.52h2.63Zm0-13.31H250.5V84.22h2.63Zm0-13.3H250.5V70.92h2.63Zm0-14.63H250.5V56.29h2.63Zm0-13.3H250.5V43h2.63Zm0-13.3H250.5V29.68h2.63Zm3.93,67.84h-2.62V97.52h2.62Zm0-13.31h-2.62V84.22h2.62Zm0-13.3h-2.62V70.92h2.62Zm0-14.63h-2.62V56.29h2.62Zm0-13.3h-2.62V43h2.62Zm0-13.3h-2.62V29.68h2.62ZM261,108.17h-2.62V97.52H261Zm0-13.31h-2.62V84.22H261Zm0-13.3h-2.62V70.92H261Zm0-14.63h-2.62V56.29H261Zm0-13.3h-2.62V43H261Zm0-13.3h-2.62V29.68H261Zm4.32,67.84h-2.63V97.52h2.63Zm0-13.31h-2.63V84.22h2.63Zm0-13.3h-2.63V70.92h2.63Zm0-14.63h-2.63V56.29h2.63Zm0-13.3h-2.63V43h2.63Zm0-13.3h-2.63V29.68h2.63Zm3.93,67.84h-2.62V97.52h2.62Zm0-13.31h-2.62V84.22h2.62Zm0-13.3h-2.62V70.92h2.62Zm0-14.63h-2.62V56.29h2.62Zm0-13.3h-2.62V43h2.62Zm0-13.3h-2.62V29.68h2.62Zm3.94,67.84h-2.63V97.52h2.63Zm0-13.31h-2.63V84.22h2.63Zm0-13.3h-2.63V70.92h2.63Zm0-14.63h-2.63V56.29h2.63Zm0-13.3h-2.63V43h2.63Zm0-13.3h-2.63V29.68h2.63Zm3.94,67.84H274.5V97.52h2.63Zm0-13.31H274.5V84.22h2.63Zm0-13.3H274.5V70.92h2.63Zm0-14.63H274.5V56.29h2.63Zm0-13.3H274.5V43h2.63Zm0-13.3H274.5V29.68h2.63Zm0-13.31H274.5V16.38h2.63Zm3.93,81.15h-2.62V97.52h2.62Zm0-13.31h-2.62V84.22h2.62Zm0-13.3h-2.62V70.92h2.62Zm0-14.63h-2.62V56.29h2.62Zm0-13.3h-2.62V43h2.62Zm0-13.3h-2.62V29.68h2.62ZM285,108.17h-2.62V97.52H285Zm0-13.31h-2.62V84.22H285Zm0-13.3h-2.62V70.92H285Zm0-14.63h-2.62V56.29H285Zm0-13.3h-2.62V43H285Zm39.71,34.53h-5.09l0-75.68h5.09Zm7.64,0h-5.09l0-75.67h5.1Zm7.64,0H334.9l0-75.68H340Zm7.63,0h-5.09l0-75.68h5.09ZM807.19,197.34h-6.52v-6.82h6.52Zm22.52-128.1h6.6v6.82h-6.6Zm0,8.52h6.6v6.82h-6.6Zm0,8.52h6.6V93.1h-6.6Zm0,8.53h6.6v6.81h-6.6Zm0,9.37h6.6V111h-6.6Zm0,8.52h6.6v6.82h-6.6Zm-9.9-26.42h6.6V93.1h-6.6Zm0,8.53h6.6v6.81h-6.6Zm0,9.37h6.6V111h-6.6Zm0,8.52h6.6v6.82h-6.6Zm-9.9-26.42h6.6V93.1h-6.6Zm0,8.53h6.6v6.81h-6.6Zm0,9.37h6.6V111h-6.6Zm0,8.52h6.6v6.82h-6.6Zm0,8.52h6.6V128h-6.6ZM817,197.34h-6.53v-6.82H817Zm0-8.52h-6.53V182H817Zm0-8.52h-6.53v-6.82H817Zm0-9.38h-6.53v-6.81H817Zm0-8.52h-6.53v-6.82H817Zm0-8.52h-6.53v-6.82H817Zm0-8.52h-6.53v-6.82H817Zm0-8.52h-6.53V130H817Zm2.83-15.62h6.6V128h-6.6Zm7,76.12h-6.52v-6.82h6.52Zm0-8.52h-6.52V182h6.52Zm0-8.52h-6.52v-6.82h6.52Zm0-9.38h-6.52v-6.81h6.52Zm0-8.52h-6.52v-6.82h6.52Zm0-8.52h-6.52v-6.82h6.52Zm0-8.52h-6.52v-6.82h6.52Zm0-8.52h-6.52V130h6.52Zm3-15.62h6.6V128h-6.6Zm6.83,76.12H830v-6.82h6.52Zm0-8.52H830V182h6.52Zm0-8.52H830v-6.82h6.52Zm0-9.38H830v-6.81h6.52Zm0-8.52H830v-6.82h6.52Zm0-8.52H830v-6.82h6.52Zm0-8.52H830v-6.82h6.52Zm0-8.52H830V130h6.52Zm9.79,60.5h-6.52v-6.82h6.52Zm0-8.52h-6.52V182h6.52Zm0-8.52h-6.52v-6.82h6.52Zm0-9.38h-6.52v-6.81h6.52Zm0-8.52h-6.52v-6.82h6.52Zm0-8.52h-6.52v-6.82h6.52Zm0-8.52h-6.52v-6.82h6.52Zm0-8.52h-6.52V130h6.52Zm9.78,60.5h-6.52v-6.82h6.52Zm0-8.52h-6.52V182h6.52Zm0-8.52h-6.52v-6.82h6.52Zm0-9.38h-6.52v-6.81h6.52Zm0-8.52h-6.52v-6.82h6.52Zm0-8.52h-6.52v-6.82h6.52Zm0-8.52h-6.52v-6.82h6.52Zm504.24,20.3h-2.64v-5.95h2.64Zm0-7.44h-2.64v-5.94h2.64Zm0-7.43h-2.64v-5.95h2.64Zm0-8.18h-2.64v-6h2.64Zm0-7.44h-2.64v-5.94h2.64Zm0-7.43h-2.64v-5.95h2.64Zm0-7.44h-2.64v-5.94h2.64Zm0-7.43h-2.64v-6h2.64Zm4,52.79h-2.64v-5.95h2.64Zm0-7.44h-2.64v-5.94h2.64Zm0-7.43h-2.64v-5.95h2.64Zm0-8.18h-2.64v-6h2.64Zm0-7.44h-2.64v-5.94h2.64Zm0-7.43h-2.64v-5.95h2.64Zm0-7.44h-2.64v-5.94h2.64Zm0-7.43h-2.64v-6h2.64Zm4,52.79h-2.64v-5.95h2.64Zm0-7.44h-2.64v-5.94h2.64Zm0-7.43h-2.64v-5.95h2.64Zm0-8.18h-2.64v-6h2.64Zm0-7.44h-2.64v-5.94h2.64Zm0-7.43h-2.64v-5.95h2.64Zm0-7.44h-2.64v-5.94h2.64Zm0-7.43h-2.64v-6h2.64Zm4,52.79h-2.64v-5.95h2.64Zm0-7.44h-2.64v-5.94h2.64Zm0-7.43h-2.64v-5.95h2.64Zm0-8.18h-2.64v-6h2.64Zm0-7.44h-2.64v-5.94h2.64Zm0-7.43h-2.64v-5.95h2.64Zm0-7.44h-2.64v-5.94h2.64Zm0-7.43h-2.64v-6h2.64Zm4,52.79h-2.64v-5.95h2.64Zm0-7.44h-2.64v-5.94h2.64Zm0-7.43h-2.64v-5.95h2.64Zm0-8.18h-2.64v-6h2.64Zm0-7.44h-2.64v-5.94h2.64Zm0-7.43h-2.64v-5.95h2.64Zm0-7.44h-2.64v-5.94h2.64Zm0-7.43h-2.64v-6h2.64Zm4,52.79h-2.64v-5.95h2.64Zm0-7.44h-2.64v-5.94h2.64Zm0-7.43h-2.64v-5.95h2.64Zm0-8.18h-2.64v-6h2.64Zm0-7.44h-2.64v-5.94h2.64Zm0-7.43h-2.64v-5.95h2.64Zm0-7.44h-2.64v-5.94h2.64Zm407.11,12.87h-5.57V122.52h5.57Zm0-13.31h-5.57V109.22h5.57Zm0-13.3h-5.57V95.92h5.57Zm8.35,26.61H1790V122.52h5.57Zm0-13.31H1790V109.22h5.57Zm0-13.3H1790V95.92h5.57Zm0-41.23H1790V54.68h5.57Zm0-13.31H1790V41.38h5.57Zm8.34,81.15h-5.56V122.52H1804Zm0-13.31h-5.56V109.22H1804Zm0-13.3h-5.56V95.92H1804Zm0-14.63h-5.56V81.29H1804Zm0-13.3h-5.56V68H1804Zm0-13.3h-5.56V54.68H1804ZM1804,52h-5.56V41.38H1804Zm8.35,81.15h-5.56V122.52h5.56Zm0-13.31h-5.56V109.22h5.56Zm0-13.3h-5.56V95.92h5.56Zm0-14.63h-5.56V81.29h5.56Zm0-13.3h-5.56V68h5.56Zm0-13.3h-5.56V54.68h5.56Zm0-13.31h-5.56V41.38h5.56Zm8.35,81.15h-5.56V122.52h5.56Zm0-13.31h-5.56V109.22h5.56Zm0-13.3h-5.56V95.92h5.56Zm0-14.63h-5.56V81.29h5.56Zm0-13.3h-5.56V68h5.56Zm0-13.3h-5.56V54.68h5.56Zm8.35,67.84h-5.57V122.52H1829Zm0-13.31h-5.57V109.22H1829Zm0-13.3h-5.57V95.92H1829Z" class="cls-1"/></g></g></svg>