<svg xmlns="http://www.w3.org/2000/svg" xmlns:xlink="http://www.w3.org/1999/xlink" viewBox="0 0 19.28 17.5"><defs><style>.cls-1{fill:url(#Безымянный_градиент_2)}.cls-10,.cls-2,.cls-8{fill:#5f723f}.cls-10,.cls-11,.cls-12,.cls-2,.cls-8,.cls-9{stroke-miterlimit:10;stroke-width:.5px}.cls-2{stroke:url(#plant_2)}.cls-3{fill:url(#Безымянный_градиент_2-2)}.cls-4{fill:url(#Безымянный_градиент_2-3)}.cls-5{fill:url(#Безымянный_градиент_2-4)}.cls-6{fill:url(#Безымянный_градиент_2-5)}.cls-7{fill:url(#Безымянный_градиент_2-6)}.cls-8{stroke:url(#plants2_2)}.cls-9{fill:url(#plants2_2-2);stroke:url(#plant_2-2)}.cls-10{stroke:url(#plants2_2-3)}.cls-11{fill:url(#plant_2-3);stroke:url(#plant_2-4)}.cls-12{fill:url(#plants2_2-4);stroke:url(#plants2_2-5)}</style><linearGradient id="Безымянный_градиент_2" x1="6384.91" x2="6384.91" y1="2274.17" y2="2271.67" gradientTransform="matrix(-0.27, 0.94, -0.84, -0.33, 3619.8, -5240.62)" gradientUnits="userSpaceOnUse"><stop offset="0" stop-color="#97ad5c"/><stop offset="1" stop-color="#5f723f"/></linearGradient><linearGradient id="plant_2" x1="6275.39" x2="6281.57" y1="2323.42" y2="2323.42" gradientTransform="matrix(-0.25, 1.1, -0.85, -0.41, 3525.78, -5966.62)" gradientUnits="userSpaceOnUse"><stop offset="0" stop-color="#534741"/><stop offset=".29" stop-color="#554d41"/><stop offset=".69" stop-color="#5a5f40"/><stop offset="1" stop-color="#5f723f"/></linearGradient><linearGradient id="Безымянный_градиент_2-2" x1="6369.05" x2="6373.09" y1="2271.97" y2="2276.78" xlink:href="#Безымянный_градиент_2"/><linearGradient id="Безымянный_градиент_2-3" x1="6379.71" x2="6377.91" y1="2277.08" y2="2273.97" xlink:href="#Безымянный_градиент_2"/><linearGradient id="Безымянный_градиент_2-4" x1="6368.2" x2="6374.15" y1="2265.87" y2="2265.87" xlink:href="#Безымянный_градиент_2"/><linearGradient id="Безымянный_градиент_2-5" x1="6373.53" x2="6377.05" y1="2270.44" y2="2271.73" xlink:href="#Безымянный_градиент_2"/><linearGradient id="Безымянный_градиент_2-6" x1="6381.67" x2="6378.09" y1="2267.33" y2="2269.39" xlink:href="#Безымянный_градиент_2"/><linearGradient id="plants2_2" x1="6371.53" x2="6377.79" y1="2270.19" y2="2270.19" gradientTransform="matrix(-0.27, 0.94, -0.84, -0.33, 3619.8, -5240.62)" gradientUnits="userSpaceOnUse"><stop offset="0" stop-color="#5f723f"/><stop offset=".26" stop-color="#5b6340"/><stop offset=".7" stop-color="#554e41"/><stop offset="1" stop-color="#534741"/></linearGradient><linearGradient id="plants2_2-2" x1="6372.02" x2="6380.87" y1="2275.91" y2="2275.91" xlink:href="#plants2_2"/><linearGradient id="plant_2-2" x1="6371.77" x2="6381.12" y1="2275.93" y2="2275.93" gradientTransform="matrix(-0.27, 0.94, -0.84, -0.33, 3619.8, -5240.62)" xlink:href="#plant_2"/><linearGradient id="plants2_2-3" x1="6370.78" x2="6372.57" y1="2276.3" y2="2276.3" xlink:href="#plants2_2"/><linearGradient id="plant_2-3" x1="6347.6" x2="6351.49" y1="2288.6" y2="2288.6" gradientTransform="matrix(-0.26, 0.98, -0.84, -0.35, 3600.3, -5391.2)" xlink:href="#plant_2"/><linearGradient id="plant_2-4" x1="6347.26" x2="6351.83" y1="2288.65" y2="2288.65" gradientTransform="matrix(-0.26, 0.98, -0.84, -0.35, 3600.3, -5391.2)" xlink:href="#plant_2"/><linearGradient id="plants2_2-4" x1="6375.34" x2="6376.34" y1="2272.55" y2="2272.55" xlink:href="#plants2_2"/><linearGradient id="plants2_2-5" x1="6374.99" x2="6376.68" y1="2272.54" y2="2272.54" xlink:href="#plants2_2"/></defs><title>plant_title_letter_H</title><g id="Capa_2" data-name="Capa 2"><g id="Capa_3" data-name="Capa 3"><path d="M7,16.05a3.68,3.68,0,0,1-.22,1.45A5.37,5.37,0,0,1,7.66,17c1-.55,2.8-2.74,1.59-4C7.74,11.38,7.05,15.1,7,16.05Z" class="cls-1"/><path d="M8.11,14.5,8,14.38A6,6,0,0,0,9.2,11.3a10.94,10.94,0,0,0-.34-3.09l.12,0a11.35,11.35,0,0,1,.35,3.16A6.34,6.34,0,0,1,8.11,14.5Z" class="cls-2"/><path d="M10.12.63a4.57,4.57,0,0,0,3.12.88c.11,0,.24-.09.24-.22a5.28,5.28,0,0,1-1.21,1.82,2.87,2.87,0,0,1-1.89.83,2.74,2.74,0,0,1-2.6-2.18C7.57.18,9.15.1,10.12.63Z" class="cls-3"/><path d="M6.48,8.67l.25,1.76a1.09,1.09,0,0,1-.16,1A2.54,2.54,0,0,0,8.67,10c.51-.94.73-2.89-.25-3.67C7.1,5.29,6.34,7.63,6.48,8.67Z" class="cls-4"/><path d="M16.27,5.22A2.78,2.78,0,0,1,17,4.3l2.26-2.19a12,12,0,0,1,0,2.24,4.1,4.1,0,0,1-.78,2c-.34.42-1.25,1.2-1.83.93S16.06,5.73,16.27,5.22Z" class="cls-5"/><path d="M10.66,6.21A2,2,0,0,1,11.35,6a2,2,0,0,1,1,0,7.89,7.89,0,0,1,.74.43,1.62,1.62,0,0,0,1.5,0,3,3,0,0,1-2.4,1.88,1.48,1.48,0,0,1-.69-.08A2.11,2.11,0,0,1,11.05,8C10.53,7.58,9.78,6.68,10.66,6.21Z" class="cls-6"/><path d="M12.4,10.39a5.37,5.37,0,0,1,1.46,1.12,11.2,11.2,0,0,0,1.28,1,1.32,1.32,0,0,0,.83.3,2.54,2.54,0,0,1-3,1,4.22,4.22,0,0,1-1-.61,2.61,2.61,0,0,1-1.21-2.06C10.87,10.32,11.73,10.12,12.4,10.39Z" class="cls-7"/><path d="M13.59,9.14a3.86,3.86,0,0,1-2.08-.31A5.19,5.19,0,0,1,9.2,6.7l.11-.07A5.05,5.05,0,0,0,11.55,8.7a3.66,3.66,0,0,0,2.88.08c1.41-.59,2.31-2.06,3.08-3.57l.11.07c-.78,1.53-1.7,3-3.14,3.63A3.88,3.88,0,0,1,13.59,9.14Z" class="cls-8"/><path d="M14.56,13.49a7.06,7.06,0,0,1-3.48-2.27c-.73-.89-.9-1.38-1.6-3.47-.06-.2-.13-.4-.2-.62A23.75,23.75,0,0,0,7.85,3.6,6.88,6.88,0,0,0,5.52.91a3,3,0,0,0-2-.5h0a3.8,3.8,0,0,0-2,1.15,5.85,5.85,0,0,0-1,1.23L.33,2.71A6.81,6.81,0,0,1,1.39,1.45,4,4,0,0,1,3.49.27,3.11,3.11,0,0,1,5.58.8,7,7,0,0,1,8,3.53,23.4,23.4,0,0,1,9.4,7.08l.2.62c.69,2.07.86,2.56,1.57,3.43a7.11,7.11,0,0,0,3.42,2.23Z" class="cls-9"/><path d="M11.46,2.42a4.13,4.13,0,0,1-1.9-.27A13.83,13.83,0,0,1,8,1.43l-.52-.27A2.26,2.26,0,0,0,6.74.9a.73.73,0,0,0-.67.25L6,1.06a.85.85,0,0,1,.77-.3A2.22,2.22,0,0,1,7.53,1l.52.26A12.67,12.67,0,0,0,9.59,2a3.73,3.73,0,0,0,2.17.2l0,.13Z" class="cls-10"/><path d="M8.08,8.45l0-.14a.31.31,0,0,0,.16-.16,3.28,3.28,0,0,0,.37-1.84,10.43,10.43,0,0,0-.36-1.93l.12,0a10.71,10.71,0,0,1,.37,2,3.45,3.45,0,0,1-.39,1.93A.45.45,0,0,1,8.08,8.45Z" class="cls-11"/><path d="M12.3,7.22A3.16,3.16,0,0,1,10.93,7l-.11,0a3,3,0,0,0-1.58-.27l0-.14a3.13,3.13,0,0,1,1.64.27l.12,0A2.28,2.28,0,0,0,12.64,7l0,.13A1.9,1.9,0,0,1,12.3,7.22Z" class="cls-12"/></g></g></svg>