<svg xmlns="http://www.w3.org/2000/svg" xmlns:xlink="http://www.w3.org/1999/xlink" viewBox="0 0 571.7 835.03"><defs><style>.cls-1{fill:url(#Безымянный_градиент_13)}.cls-2{fill:url(#Безымянный_градиент_10)}.cls-3{fill:url(#Безымянный_градиент_13-2)}.cls-4{fill:url(#Безымянный_градиент_10-2)}.cls-5{fill:url(#Безымянный_градиент_30)}.cls-6{fill:url(#Безымянный_градиент_26)}.cls-7{fill:url(#Безымянный_градиент_26-2)}.cls-8{fill:url(#Безымянный_градиент_26-3)}.cls-9{fill:url(#Безымянный_градиент_26-4)}.cls-10{fill:url(#Безымянный_градиент_26-5)}.cls-11{fill:url(#Безымянный_градиент_13-3)}.cls-12{fill:url(#Безымянный_градиент_10-3)}.cls-13{fill:url(#Безымянный_градиент_13-4)}.cls-14{fill:url(#Безымянный_градиент_10-4)}.cls-15{fill:url(#Безымянный_градиент_30-2)}.cls-16{fill:url(#Безымянный_градиент_26-6)}.cls-17{fill:url(#Безымянный_градиент_26-7)}.cls-18{fill:url(#Безымянный_градиент_26-8)}.cls-19{fill:url(#Безымянный_градиент_26-9)}.cls-20{fill:url(#Безымянный_градиент_26-10)}.cls-21{fill:url(#Безымянный_градиент_13-5)}.cls-22{fill:url(#Безымянный_градиент_10-5)}.cls-23{fill:url(#Безымянный_градиент_13-6)}.cls-24{fill:url(#Безымянный_градиент_10-6)}.cls-25{fill:url(#Безымянный_градиент_30-3)}.cls-26{fill:url(#Безымянный_градиент_26-11)}.cls-27{fill:url(#Безымянный_градиент_26-12)}.cls-28{fill:url(#Безымянный_градиент_26-13)}.cls-29{fill:url(#Безымянный_градиент_26-14)}.cls-30{fill:url(#Безымянный_градиент_26-15)}.cls-31{fill:url(#Безымянный_градиент_13-7)}.cls-32{fill:url(#Безымянный_градиент_10-7)}.cls-33{fill:url(#Безымянный_градиент_13-8)}.cls-34{fill:url(#Безымянный_градиент_10-8)}.cls-35{fill:url(#Безымянный_градиент_30-4)}.cls-36{fill:url(#Безымянный_градиент_26-16)}.cls-37{fill:url(#Безымянный_градиент_26-17)}.cls-38{fill:url(#Безымянный_градиент_26-18)}.cls-39{fill:url(#Безымянный_градиент_26-19)}.cls-40{fill:url(#Безымянный_градиент_26-20)}.cls-41{fill:url(#Безымянный_градиент_13-9)}.cls-42{fill:url(#Безымянный_градиент_10-9)}.cls-43{fill:url(#Безымянный_градиент_13-10)}.cls-44{fill:url(#Безымянный_градиент_10-10)}.cls-45{fill:url(#Безымянный_градиент_30-5)}.cls-46{fill:url(#Безымянный_градиент_26-21)}.cls-47{fill:url(#Безымянный_градиент_26-22)}.cls-48{fill:url(#Безымянный_градиент_26-23)}.cls-49{fill:url(#Безымянный_градиент_26-24)}.cls-50{fill:url(#Безымянный_градиент_26-25)}.cls-51{fill:url(#Безымянный_градиент_13-11)}.cls-52{fill:url(#Безымянный_градиент_10-11)}.cls-53{fill:url(#Безымянный_градиент_13-12)}.cls-54{fill:url(#Безымянный_градиент_10-12)}.cls-55{fill:url(#Безымянный_градиент_30-6)}.cls-56{fill:url(#Безымянный_градиент_26-26)}.cls-57{fill:url(#Безымянный_градиент_26-27)}.cls-58{fill:url(#Безымянный_градиент_26-28)}.cls-59{fill:url(#Безымянный_градиент_26-29)}.cls-60{fill:url(#Безымянный_градиент_26-30)}.cls-61{fill:url(#Безымянный_градиент_13-13)}.cls-62{fill:url(#Безымянный_градиент_10-13)}.cls-63{fill:url(#Безымянный_градиент_13-14)}.cls-64{fill:url(#Безымянный_градиент_10-14)}.cls-65{fill:url(#Безымянный_градиент_30-7)}.cls-66{fill:url(#Безымянный_градиент_26-31)}.cls-67{fill:url(#Безымянный_градиент_26-32)}.cls-68{fill:url(#Безымянный_градиент_26-33)}.cls-69{fill:url(#Безымянный_градиент_26-34)}.cls-70{fill:url(#Безымянный_градиент_26-35)}.cls-71{fill:url(#Безымянный_градиент_12)}.cls-72{fill:url(#Безымянный_градиент_26-36)}.cls-73{fill:url(#Безымянный_градиент_26-37)}.cls-74{fill:url(#Безымянный_градиент_8)}.cls-75{fill:url(#Безымянный_градиент_12-2)}.cls-76{fill:url(#Безымянный_градиент_26-38)}.cls-77{fill:url(#Безымянный_градиент_26-39)}.cls-78{fill:url(#Безымянный_градиент_8-2)}.cls-79{fill:url(#Безымянный_градиент_12-3)}.cls-80{fill:url(#Безымянный_градиент_26-40)}.cls-81{fill:url(#Безымянный_градиент_26-41)}.cls-82{fill:url(#Безымянный_градиент_8-3)}</style><linearGradient id="Безымянный_градиент_13" x1="1021.43" x2="1101.1" y1="-796.31" y2="-796.31" gradientTransform="matrix(0.77, -0.44, 0.37, 0.73, -402.39, 1264.88)" gradientUnits="userSpaceOnUse"><stop offset="0" stop-color="#534741"/><stop offset=".49" stop-color="#544941"/><stop offset=".69" stop-color="#565041"/><stop offset=".85" stop-color="#5a5d40"/><stop offset=".98" stop-color="#5f6e3f"/><stop offset="1" stop-color="#60723f"/></linearGradient><linearGradient id="Безымянный_градиент_10" x1="1050.87" x2="1050.87" y1="-914.2" y2="-968.6" gradientTransform="matrix(0.77, -0.44, 0.37, 0.73, -402.39, 1264.88)" gradientUnits="userSpaceOnUse"><stop offset="0" stop-color="#534741"/><stop offset=".33" stop-color="#544a41"/><stop offset=".61" stop-color="#575540"/><stop offset=".87" stop-color="#5d6740"/><stop offset="1" stop-color="#60723f"/></linearGradient><linearGradient id="Безымянный_градиент_13-2" x1="1003.03" x2="1003.03" y1="-764.83" y2="-792.41" xlink:href="#Безымянный_градиент_13"/><linearGradient id="Безымянный_градиент_10-2" x1="1026.01" x2="1026.01" y1="-827.57" y2="-877.03" xlink:href="#Безымянный_градиент_10"/><linearGradient id="Безымянный_градиент_30" x1="1038.45" x2="1079.42" y1="-832.9" y2="-832.9" gradientTransform="matrix(0.77, -0.44, 0.37, 0.73, -402.39, 1264.88)" gradientUnits="userSpaceOnUse"><stop offset="0" stop-color="#534741"/><stop offset=".11" stop-color="#565141"/><stop offset=".39" stop-color="#5c6340"/><stop offset=".68" stop-color="#5f6e3f"/><stop offset="1" stop-color="#60723f"/></linearGradient><linearGradient id="Безымянный_градиент_26" x1="935.15" x2="1010.39" y1="-784.14" y2="-784.14" gradientTransform="matrix(0.77, -0.44, 0.37, 0.73, -402.39, 1264.88)" gradientUnits="userSpaceOnUse"><stop offset="0" stop-color="#95ab5c"/><stop offset="1" stop-color="#60723f"/></linearGradient><linearGradient id="Безымянный_градиент_26-2" x1="980.55" x2="1039.36" y1="-883.79" y2="-883.79" xlink:href="#Безымянный_градиент_26"/><linearGradient id="Безымянный_градиент_26-3" x1="1084.78" x2="1084.78" y1="-819.98" y2="-854" xlink:href="#Безымянный_градиент_26"/><linearGradient id="Безымянный_градиент_26-4" x1="1100.95" x2="1100.95" y1="-860.5" y2="-927.16" xlink:href="#Безымянный_градиент_26"/><linearGradient id="Безымянный_градиент_26-5" x1="1084.25" x2="1135.56" y1="-1103.16" y2="-1103.16" gradientTransform="matrix(0.88, 0.09, -0.12, 0.81, -1089.7, 907.24)" xlink:href="#Безымянный_градиент_26"/><linearGradient id="Безымянный_градиент_13-3" x1="1241.09" x2="1319.01" y1="-501.59" y2="-501.59" gradientTransform="matrix(1.07, -0.26, 0.05, 1.05, -1123.97, 1088.65)" xlink:href="#Безымянный_градиент_13"/><linearGradient id="Безымянный_градиент_10-3" x1="1268.8" x2="1268.8" y1="-637" y2="-691.04" gradientTransform="matrix(1.07, -0.26, 0.05, 1.05, -1123.97, 1088.65)" xlink:href="#Безымянный_градиент_10"/><linearGradient id="Безымянный_градиент_13-4" x1="1219.11" x2="1219.11" y1="-488.05" y2="-515.27" gradientTransform="matrix(1.07, -0.26, 0.05, 1.05, -1123.97, 1088.65)" xlink:href="#Безымянный_градиент_13"/><linearGradient id="Безымянный_градиент_10-4" x1="1242.97" x2="1242.97" y1="-550.58" y2="-599.64" gradientTransform="matrix(1.07, -0.26, 0.05, 1.05, -1123.97, 1088.65)" xlink:href="#Безымянный_градиент_10"/><linearGradient id="Безымянный_градиент_30-2" x1="1255.14" x2="1296.45" y1="-556.05" y2="-556.05" gradientTransform="matrix(1.07, -0.26, 0.05, 1.05, -1123.97, 1088.65)" xlink:href="#Безымянный_градиент_30"/><linearGradient id="Безымянный_градиент_26-6" x1="1150.94" x2="1226.59" y1="-506.9" y2="-506.9" gradientTransform="matrix(1.07, -0.26, 0.05, 1.05, -1123.97, 1088.65)" xlink:href="#Безымянный_градиент_26"/><linearGradient id="Безымянный_градиент_26-7" x1="1197.88" x2="1256.51" y1="-606.23" y2="-606.23" gradientTransform="matrix(1.07, -0.26, 0.05, 1.05, -1123.97, 1088.65)" xlink:href="#Безымянный_градиент_26"/><linearGradient id="Безымянный_градиент_26-8" x1="1301.82" x2="1301.82" y1="-543.35" y2="-577.13" gradientTransform="matrix(1.07, -0.26, 0.05, 1.05, -1123.97, 1088.65)" xlink:href="#Безымянный_градиент_26"/><linearGradient id="Безымянный_градиент_26-9" x1="1318.72" x2="1318.72" y1="-584.03" y2="-650.27" gradientTransform="matrix(1.07, -0.26, 0.05, 1.05, -1123.97, 1088.65)" xlink:href="#Безымянный_градиент_26"/><linearGradient id="Безымянный_градиент_26-10" x1="1216.75" x2="1268.47" y1="-674.41" y2="-674.41" gradientTransform="matrix(1.07, -0.26, 0.05, 1.05, -1123.97, 1088.65)" xlink:href="#Безымянный_градиент_26"/><linearGradient id="Безымянный_градиент_13-5" x1="1688.62" x2="1758" y1="-2130.18" y2="-2130.18" gradientTransform="matrix(0.74, -0.91, 0.77, 0.58, 600.39, 3192.54)" xlink:href="#Безымянный_градиент_13"/><linearGradient id="Безымянный_градиент_10-5" x1="1709.17" x2="1709.17" y1="-2271.24" y2="-2327.8" gradientTransform="matrix(0.74, -0.91, 0.77, 0.58, 600.39, 3192.54)" xlink:href="#Безымянный_градиент_10"/><linearGradient id="Безымянный_градиент_13-6" x1="1665.51" x2="1665.51" y1="-2116.74" y2="-2145.66" gradientTransform="matrix(0.74, -0.91, 0.77, 0.58, 600.39, 3192.54)" xlink:href="#Безымянный_градиент_13"/><linearGradient id="Безымянный_градиент_10-6" x1="1686.49" x2="1686.49" y1="-2181.69" y2="-2233.2" gradientTransform="matrix(0.74, -0.91, 0.77, 0.58, 600.39, 3192.54)" xlink:href="#Безымянный_градиент_10"/><linearGradient id="Безымянный_градиент_30-3" x1="1698.99" x2="1738.29" y1="-2186.99" y2="-2186.99" gradientTransform="matrix(0.74, -0.91, 0.77, 0.58, 600.39, 3192.54)" xlink:href="#Безымянный_градиент_30"/><linearGradient id="Безымянный_градиент_26-11" x1="1582.62" x2="1655.11" y1="-2201.49" y2="-2201.49" gradientTransform="matrix(1.01, -1.05, 1.03, 0.66, 806.58, 3606.91)" xlink:href="#Безымянный_градиент_26"/><linearGradient id="Безымянный_градиент_26-12" x1="1641.76" x2="1699.19" y1="-2240.42" y2="-2240.42" gradientTransform="matrix(0.74, -0.91, 0.77, 0.58, 600.39, 3192.54)" xlink:href="#Безымянный_градиент_26"/><linearGradient id="Безымянный_градиент_26-13" x1="1743.5" x2="1743.5" y1="-2173.33" y2="-2208.75" gradientTransform="matrix(0.74, -0.91, 0.77, 0.58, 600.39, 3192.54)" xlink:href="#Безымянный_градиент_26"/><linearGradient id="Безымянный_градиент_26-14" x1="1756.24" x2="1756.24" y1="-2254.83" y2="-2324.1" gradientTransform="matrix(0.85, -1.12, 0.88, 0.72, 710.98, 3911.13)" xlink:href="#Безымянный_градиент_26"/><linearGradient id="Безымянный_градиент_26-15" x1="1659.89" x2="1709.14" y1="-2343.35" y2="-2343.35" gradientTransform="matrix(0.83, -1.06, 0.86, 0.68, 700.5, 3700.8)" xlink:href="#Безымянный_градиент_26"/><linearGradient id="Безымянный_градиент_13-7" x1="1313.03" x2="1391.09" y1="-356.57" y2="-356.57" gradientTransform="matrix(1.07, -0.25, 0.04, 1.05, -1103.14, 1032.01)" xlink:href="#Безымянный_градиент_13"/><linearGradient id="Безымянный_градиент_10-7" x1="1340.88" x2="1340.88" y1="-491.96" y2="-545.98" gradientTransform="matrix(1.07, -0.25, 0.04, 1.05, -1103.14, 1032.01)" xlink:href="#Безымянный_градиент_10"/><linearGradient id="Безымянный_градиент_13-8" x1="1291.1" x2="1291.1" y1="-343.02" y2="-370.21" gradientTransform="matrix(1.07, -0.25, 0.04, 1.05, -1103.14, 1032.01)" xlink:href="#Безымянный_градиент_13"/><linearGradient id="Безымянный_градиент_10-8" x1="1315.01" x2="1315.01" y1="-405.54" y2="-454.58" gradientTransform="matrix(1.07, -0.25, 0.04, 1.05, -1103.14, 1032.01)" xlink:href="#Безымянный_градиент_10"/><linearGradient id="Безымянный_градиент_30-4" x1="1327.16" x2="1368.49" y1="-411.01" y2="-411.01" gradientTransform="matrix(1.07, -0.25, 0.04, 1.05, -1103.14, 1032.01)" xlink:href="#Безымянный_градиент_30"/><linearGradient id="Безымянный_градиент_26-16" x1="1222.91" x2="1298.58" y1="-361.84" y2="-361.84" gradientTransform="matrix(1.07, -0.25, 0.04, 1.05, -1103.14, 1032.01)" xlink:href="#Безымянный_градиент_26"/><linearGradient id="Безымянный_градиент_26-17" x1="1209.35" x2="1267.97" y1="-518.96" y2="-518.96" gradientTransform="matrix(1.34, -0.19, 0.18, 1.33, -1311.83, 1135.39)" xlink:href="#Безымянный_градиент_26"/><linearGradient id="Безымянный_градиент_26-18" x1="1373.85" x2="1373.85" y1="-398.33" y2="-432.1" gradientTransform="matrix(1.07, -0.25, 0.04, 1.05, -1103.14, 1032.01)" xlink:href="#Безымянный_градиент_26"/><linearGradient id="Безымянный_градиент_26-19" x1="1390.79" x2="1390.79" y1="-439.02" y2="-505.25" gradientTransform="matrix(1.07, -0.25, 0.04, 1.05, -1103.14, 1032.01)" xlink:href="#Безымянный_градиент_26"/><linearGradient id="Безымянный_градиент_26-20" x1="1288.82" x2="1340.56" y1="-529.34" y2="-529.34" gradientTransform="matrix(1.07, -0.25, 0.04, 1.05, -1103.14, 1032.01)" xlink:href="#Безымянный_градиент_26"/><linearGradient id="Безымянный_градиент_13-9" x1="1329.51" x2="1406.92" y1="-261.41" y2="-261.41" gradientTransform="matrix(1.06, -0.29, 0.08, 1.04, -1041.71, 1156.84)" xlink:href="#Безымянный_градиент_13"/><linearGradient id="Безымянный_градиент_10-9" x1="1356.69" x2="1356.69" y1="-396.91" y2="-451.01" gradientTransform="matrix(1.06, -0.29, 0.08, 1.04, -1041.71, 1156.84)" xlink:href="#Безымянный_градиент_10"/><linearGradient id="Безымянный_градиент_13-10" x1="1307.36" x2="1307.36" y1="-247.92" y2="-275.2" gradientTransform="matrix(1.06, -0.29, 0.08, 1.04, -1041.71, 1156.84)" xlink:href="#Безымянный_градиент_13"/><linearGradient id="Безымянный_градиент_10-10" x1="1331.05" x2="1331.05" y1="-310.47" y2="-359.59" gradientTransform="matrix(1.06, -0.29, 0.08, 1.04, -1041.71, 1156.84)" xlink:href="#Безымянный_градиент_10"/><linearGradient id="Безымянный_градиент_30-5" x1="1343.27" x2="1384.53" y1="-315.91" y2="-315.91" gradientTransform="matrix(1.06, -0.29, 0.08, 1.04, -1041.71, 1156.84)" xlink:href="#Безымянный_градиент_30"/><linearGradient id="Безымянный_градиент_26-21" x1="1239.22" x2="1314.81" y1="-266.85" y2="-266.85" gradientTransform="matrix(1.06, -0.29, 0.08, 1.04, -1041.71, 1156.84)" xlink:href="#Безымянный_градиент_26"/><linearGradient id="Безымянный_градиент_26-22" x1="1285.87" x2="1344.55" y1="-366.21" y2="-366.21" gradientTransform="matrix(1.06, -0.29, 0.08, 1.04, -1041.71, 1156.84)" xlink:href="#Безымянный_градиент_26"/><linearGradient id="Безымянный_градиент_26-23" x1="1389.89" x2="1389.89" y1="-303.17" y2="-336.99" gradientTransform="matrix(1.06, -0.29, 0.08, 1.04, -1041.71, 1156.84)" xlink:href="#Безымянный_градиент_26"/><linearGradient id="Безымянный_градиент_26-24" x1="1406.66" x2="1406.66" y1="-343.81" y2="-410.12" gradientTransform="matrix(1.06, -0.29, 0.08, 1.04, -1041.71, 1156.84)" xlink:href="#Безымянный_градиент_26"/><linearGradient id="Безымянный_градиент_26-25" x1="1304.68" x2="1356.33" y1="-434.41" y2="-434.41" gradientTransform="matrix(1.06, -0.29, 0.08, 1.04, -1041.71, 1156.84)" xlink:href="#Безымянный_градиент_26"/><linearGradient id="Безымянный_градиент_13-11" x1="1728.72" x2="1798.07" y1="-1898.19" y2="-1898.19" gradientTransform="matrix(0.72, -0.93, 0.79, 0.55, 621.82, 3301.27)" xlink:href="#Безымянный_градиент_13"/><linearGradient id="Безымянный_градиент_10-11" x1="1749.35" x2="1749.35" y1="-2039.53" y2="-2096.19" gradientTransform="matrix(0.72, -0.93, 0.79, 0.55, 621.82, 3301.27)" xlink:href="#Безымянный_градиент_10"/><linearGradient id="Безымянный_градиент_13-12" x1="1705.69" x2="1705.69" y1="-1884.71" y2="-1913.67" gradientTransform="matrix(0.72, -0.93, 0.79, 0.55, 621.82, 3301.27)" xlink:href="#Безымянный_градиент_13"/><linearGradient id="Безымянный_градиент_10-12" x1="1726.67" x2="1726.67" y1="-1949.79" y2="-2001.39" gradientTransform="matrix(0.72, -0.93, 0.79, 0.55, 621.82, 3301.27)" xlink:href="#Безымянный_градиент_10"/><linearGradient id="Безымянный_градиент_30-6" x1="1739.13" x2="1778.36" y1="-1955.11" y2="-1955.11" gradientTransform="matrix(0.72, -0.93, 0.79, 0.55, 621.82, 3301.27)" xlink:href="#Безымянный_градиент_30"/><linearGradient id="Безымянный_градиент_26-26" x1="1640.32" x2="1712.66" y1="-1905.27" y2="-1905.27" gradientTransform="matrix(0.72, -0.93, 0.79, 0.55, 621.82, 3301.27)" xlink:href="#Безымянный_градиент_26"/><linearGradient id="Безымянный_градиент_26-27" x1="1682.06" x2="1739.35" y1="-2008.62" y2="-2008.62" gradientTransform="matrix(0.72, -0.93, 0.79, 0.55, 621.82, 3301.27)" xlink:href="#Безымянный_градиент_26"/><linearGradient id="Безымянный_градиент_26-28" x1="1783.56" x2="1783.56" y1="-1941.44" y2="-1976.92" gradientTransform="matrix(0.72, -0.93, 0.79, 0.55, 621.82, 3301.27)" xlink:href="#Безымянный_градиент_26"/><linearGradient id="Безымянный_градиент_26-29" x1="1798.14" x2="1798.14" y1="-1983.09" y2="-2052.5" gradientTransform="matrix(0.72, -0.93, 0.79, 0.55, 621.82, 3301.27)" xlink:href="#Безымянный_градиент_26"/><linearGradient id="Безымянный_градиент_26-30" x1="1699.55" x2="1748.72" y1="-2079.36" y2="-2079.36" gradientTransform="matrix(0.72, -0.93, 0.79, 0.55, 621.82, 3301.27)" xlink:href="#Безымянный_градиент_26"/><linearGradient id="Безымянный_градиент_13-13" x1="1513.05" x2="1584.28" y1="-1042.88" y2="-1042.88" gradientTransform="matrix(0.94, -0.69, 0.51, 0.83, -407.75, 2628.9)" xlink:href="#Безымянный_градиент_13"/><linearGradient id="Безымянный_градиент_10-13" x1="1534.5" x2="1534.5" y1="-1181.1" y2="-1236.52" gradientTransform="matrix(0.94, -0.69, 0.51, 0.83, -407.75, 2628.9)" xlink:href="#Безымянный_градиент_10"/><linearGradient id="Безымянный_градиент_13-14" x1="1489.6" x2="1489.6" y1="-1029.7" y2="-1058.01" gradientTransform="matrix(0.94, -0.69, 0.51, 0.83, -407.75, 2628.9)" xlink:href="#Безымянный_градиент_13"/><linearGradient id="Безымянный_градиент_10-14" x1="1511.17" x2="1511.17" y1="-1093.34" y2="-1143.8" gradientTransform="matrix(0.94, -0.69, 0.51, 0.83, -407.75, 2628.9)" xlink:href="#Безымянный_градиент_10"/><linearGradient id="Безымянный_градиент_30-7" x1="1523.86" x2="1564" y1="-1098.55" y2="-1098.55" gradientTransform="matrix(0.94, -0.69, 0.51, 0.83, -407.75, 2628.9)" xlink:href="#Безымянный_градиент_30"/><linearGradient id="Безымянный_градиент_26-31" x1="1422.75" x2="1496.74" y1="-1049.8" y2="-1049.8" gradientTransform="matrix(0.94, -0.69, 0.51, 0.83, -407.75, 2628.9)" xlink:href="#Безымянный_градиент_26"/><linearGradient id="Безымянный_градиент_26-32" x1="1465.65" x2="1524.16" y1="-1150.87" y2="-1150.87" gradientTransform="matrix(0.94, -0.69, 0.51, 0.83, -407.75, 2628.9)" xlink:href="#Безымянный_градиент_26"/><linearGradient id="Безымянный_градиент_26-33" x1="1569.31" x2="1569.31" y1="-1085.17" y2="-1119.88" gradientTransform="matrix(0.94, -0.69, 0.51, 0.83, -407.75, 2628.9)" xlink:href="#Безымянный_градиент_26"/><linearGradient id="Безымянный_градиент_26-34" x1="1584.33" x2="1584.33" y1="-1125.91" y2="-1193.79" gradientTransform="matrix(0.94, -0.69, 0.51, 0.83, -407.75, 2628.9)" xlink:href="#Безымянный_градиент_26"/><linearGradient id="Безымянный_градиент_26-35" x1="1483.58" x2="1533.88" y1="-1220.05" y2="-1220.05" gradientTransform="matrix(0.94, -0.69, 0.51, 0.83, -407.75, 2628.9)" xlink:href="#Безымянный_градиент_26"/><linearGradient id="Безымянный_градиент_12" x1="406.55" x2="406.55" y1="-2269.34" y2="-2336.65" gradientTransform="matrix(0.39, 0.53, -0.67, 0.49, -1299.12, 1410.05)" gradientUnits="userSpaceOnUse"><stop offset="0" stop-color="#534741"/><stop offset=".49" stop-color="#544941"/><stop offset=".7" stop-color="#565041"/><stop offset=".85" stop-color="#595c40"/><stop offset=".98" stop-color="#5f6e3f"/><stop offset="1" stop-color="#60723f"/></linearGradient><linearGradient id="Безымянный_градиент_26-36" x1="473" x2="420.89" y1="-2342.87" y2="-2372.96" gradientTransform="matrix(0.39, 0.53, -0.67, 0.49, -1299.12, 1410.05)" xlink:href="#Безымянный_градиент_26"/><linearGradient id="Безымянный_градиент_26-37" x1="234.73" x2="342.42" y1="-2383.76" y2="-2383.76" gradientTransform="matrix(0.39, 0.53, -0.67, 0.49, -1299.12, 1410.05)" xlink:href="#Безымянный_градиент_26"/><linearGradient id="Безымянный_градиент_8" x1="394.13" x2="394.13" y1="515.75" y2="408.51" gradientUnits="userSpaceOnUse"><stop offset="0" stop-color="#534741"/><stop offset=".53" stop-color="#544941"/><stop offset=".72" stop-color="#565041"/><stop offset=".86" stop-color="#595b40"/><stop offset=".97" stop-color="#5e6c3f"/><stop offset="1" stop-color="#60723f"/></linearGradient><linearGradient id="Безымянный_градиент_12-2" x1="-605.18" x2="-605.18" y1="-1682.6" y2="-1737.64" gradientTransform="matrix(-0.56, 0.17, 0.18, 0.66, 217.13, 1748.77)" xlink:href="#Безымянный_градиент_12"/><linearGradient id="Безымянный_градиент_26-38" x1="-547.8" x2="-591.72" y1="-1742.69" y2="-1768.04" gradientTransform="matrix(-0.56, 0.17, 0.18, 0.66, 217.13, 1748.77)" xlink:href="#Безымянный_градиент_26"/><linearGradient id="Безымянный_градиент_26-39" x1="-746.02" x2="-656.58" y1="-1773.67" y2="-1773.67" gradientTransform="matrix(-0.56, 0.17, 0.18, 0.66, 217.13, 1748.77)" xlink:href="#Безымянный_градиент_26"/><linearGradient id="Безымянный_градиент_8-2" x1="-396.68" x2="-396.68" y1="266.06" y2="180.96" gradientTransform="matrix(-0.68, -0.49, -0.56, 0.68, 129.22, 155.26)" xlink:href="#Безымянный_градиент_8"/><linearGradient id="Безымянный_градиент_12-3" x1="-1198.34" x2="-1198.34" y1="-2136.58" y2="-2178.94" gradientTransform="matrix(-0.59, -0.07, -0.19, 0.79, -906.72, 1659.37)" xlink:href="#Безымянный_градиент_12"/><linearGradient id="Безымянный_градиент_26-40" x1="-1152.36" x2="-1190.11" y1="-2181.59" y2="-2203.38" gradientTransform="matrix(-0.59, -0.07, -0.19, 0.79, -906.72, 1659.37)" xlink:href="#Безымянный_градиент_26"/><linearGradient id="Безымянный_градиент_26-41" x1="-1323.25" x2="-1246.46" y1="-2211.37" y2="-2211.37" gradientTransform="matrix(-0.59, -0.07, -0.19, 0.79, -906.72, 1659.37)" xlink:href="#Безымянный_градиент_26"/><linearGradient id="Безымянный_градиент_8-3" x1="-325.68" x2="-325.68" y1="-271.41" y2="-345.97" gradientTransform="matrix(-0.35, -0.83, -0.86, 0.47, -151.33, -78.64)" xlink:href="#Безымянный_градиент_8"/></defs><title>plant_wall_right</title><g id="Capa_2" data-name="Capa 2"><g id="Capa_1-2" data-name="Capa 1"><path d="M93.05,109.35s-25.29,4.5-22.59,28.06,21.94,77,21.94,77S125.81,307.73,131,315.62s5.08,14,5.08,14,.12-10.25-3.81-7.62-36.73-79.7-37.45-83.39S63.58,148.42,65,134.59c.87-8.42,2.89-13.89,7.55-18.51,3.77-3.74,8.83-7,19.75-10C108.73,104.86,93.05,109.35,93.05,109.35Z" class="cls-1"/><path d="M38.93,101.56S56.44,92.8,65.7,132.24c2.56,4.32,3.72-9.36,3.72-9.36S56,93.86,44.82,96.66C28.81,100.64,38.93,101.56,38.93,101.56Z" class="cls-2"/><path d="M101.47,253.54s-16.21-10.78-27.19-5.86a37.91,37.91,0,0,0-16.38,15s7.68-15.91,14.73-18.19,26,2.77,26,2.77Z" class="cls-3"/><path d="M83.7,204.8S66,172.17,50.52,177.49c15.17-8.21,30.57,16.76,30.57,16.76Z" class="cls-4"/><path d="M85.06,196.2a57,57,0,0,1,28.43-20.81c-2.8,7.13-21.55,9.73-25.25,27C89.59,212.33,85.06,196.2,85.06,196.2Z" class="cls-5"/><path d="M68.4,248.82s2.58-12.12-8.86-6.94-18,35.8-30.79,40.67,19.58,2.67,39-9.88,14.43-27.14,11.67-28.73S71.76,243.94,68.4,248.82Z" class="cls-6"/><path d="M64.63,180.91S71.5,192,60.72,197.32,29,199.67,9,163c0,0,12.45,11.64,29.1,5.18s37.35-4.68,33.61,9.38C70.1,182.53,64.63,180.91,64.63,180.91Z" class="cls-7"/><path d="M93.63,188.18s-12.18-3.11-3-11.63,27.06-8.2,29.73-8.44S139,162.1,143.6,154s-6.63,31.67-33.09,41.91S93.63,188.18,93.63,188.18Z" class="cls-8"/><path d="M92.53,106.05s16-11.2,25.46,1.54,11.13,39.93,11.13,39.93-10-17.08-19.2-15.65-27.45-6.66-19.69-21.8C96.06,107.21,92.53,106.05,92.53,106.05Z" class="cls-9"/><path d="M48,107.39s1.83,16.08-24.36,14.55S5.06,143.7,1.22,134s0-43.55,31.21-42.64C53.18,93.81,48,107.39,48,107.39Z" class="cls-10"/><path d="M241.35,67.2S211.19,63.52,202.18,94s-15,104.42-15,104.42-2.71,124.31-1,136.12,8.06,58,8.06,58-5-12.82-10.66-11-7.13-147.07-6.05-152,11.42-124.37,20-141.15c5.25-10.22,10.27-16.33,17.75-20.39,6-3.29,13.31-5.55,26.84-5.24C260.9,67.35,241.35,67.2,241.35,67.2Z" class="cls-11"/><path d="M185.68,37.52S209.44,33,199.56,85.77c.63,6.36,8.87-10.34,8.87-10.34s0-41.24-13.77-41.88C175,32.64,185.68,37.52,185.68,37.52Z" class="cls-12"/><path d="M177.24,250.77s-12.38-19.46-27-17.34-25.68,12.74-25.68,12.74,16.57-17.08,25.5-17.34,27.17,13,27.17,13Z" class="cls-13"/><path d="M182.47,183.23s-2.9-47.36-22.66-46.41C180.7,132.13,185,169.07,185,169.07Z" class="cls-14"/><path d="M188.34,173s17.68-14.79,41.91-15.58c-6.71,7.89-28.69,4.24-41.55,24.49C185.12,194.82,188.34,173,188.34,173Z" class="cls-15"/><path d="M143.2,232.69s9-14.22-6.22-12S98.91,258.9,82.36,260.3s20.22,10.56,48,2,29.72-28.66,27.48-31.66S149.4,227.82,143.2,232.69Z" class="cls-16"/><path d="M173.61,146.3s1.93,16.41-12.65,19.1-36.11-8.73-39.51-62c0,0,7.79,19.16,29.42,17.21s43.53,7.9,32.26,24.11A6.58,6.58,0,0,1,173.61,146.3Z" class="cls-17"/><path d="M201.86,166.09s-11.83-8.38,2.57-15.68,34-.3,37,.39,23.61-.66,32.85-9.12-23.42,37.2-57.79,40.27S201.86,166.09,201.86,166.09Z" class="cls-18"/><path d="M242.45,62.89s23.31-8.14,27.28,11.29-8.07,54.08-8.07,54.08-2.27-25-13.19-26.65-26.85-18.46-10.6-34.55C245.76,65.63,242.45,62.89,242.45,62.89Z" class="cls-19"/><path d="M194.15,36.57S200,55.58,168.46,65s-17.14,34.8-23.93,24.54-10-53.63,27.38-66C197.2,17.6,194.15,36.57,194.15,36.57Z" class="cls-20"/><path d="M148.17,274.1s-28.84,17.85-14.1,41.75,64.21,71.36,64.21,71.36,89.56,74.91,99.8,80.7S348,496.68,348,496.68s-13.79-4.24-17.34.62S215.7,415.54,213,411.94,131,331.21,126,315.63c-3-9.5-3.18-16.42.29-23.77,2.81-5.95,7.43-12.09,19.38-20.89C165.22,261.21,148.17,274.1,148.17,274.1Z" class="cls-21"/><path d="M78,293.58s17.23-18.42,47.69,19.17c5.25,3.32,0-12,0-12s-30.47-24.27-42.89-15.5C65.16,297.79,78,293.58,78,293.58Z" class="cls-22"/><path d="M228.37,424.6s-25.11-3.23-36.19,7.7a46.28,46.28,0,0,0-12.82,24.53s1.72-21,9.26-27.11,33.17-10.37,33.17-10.37Z" class="cls-23"/><path d="M183,381.4S145.44,355.48,129,369.15c14.62-16.62,45.62,2.28,45.62,2.28Z" class="cls-24"/><path d="M180.46,371.48s4.38-20.43,24.78-37c0,9.1-21.71,21.54-17.88,42C193.83,386.46,180.46,371.48,180.46,371.48Z" class="cls-25"/><path d="M182.53,435.75s-3.55-16.37-19.19-3.22-6.76,54.57-24.79,68.15,34.22-8.41,58.29-35.34,6.4-41.83.78-42.12S185,427.76,182.53,435.75Z" class="cls-26"/><path d="M148,365.56s13.8,8.37,3.16,19.63S113.42,404,71.11,375c0,0,20.91,6.1,38.2-9.41s43.55-24.23,45.77-7.22C155.48,364.5,148,365.56,148,365.56Z" class="cls-27"/><path d="M187.09,358.46s-16.44,2.92-9.37-10.93,29.22-22.73,32.38-24.36,20-16.05,21.71-27.16,7.21,37.43-20.28,62S187.09,358.46,187.09,358.46Z" class="cls-28"/><path d="M144.63,270.57s16.17-25,36.59-14.06,37.91,46,37.91,46-23.51-16.4-35.69-8.65-42.23,8.49-39.8-16.53C150.23,269.87,144.63,270.57,144.63,270.57Z" class="cls-29"/><path d="M89.32,288s21.51,8.53-1.34,39.39,12.28,37.16-2.86,35.36S30.8,333.62,56.89,296.24C76.52,272.61,89.32,288,89.32,288Z" class="cls-30"/><path d="M350.77,153.86s-30.08-3.91-39.33,26.55-15.85,104.47-15.85,104.47-3.75,124.48-2.1,136.32S301,479.35,301,479.35s-4.86-12.87-10.54-11.06-5.89-147.35-4.77-152.24,12.45-124.48,21.2-141.21c5.33-10.2,10.38-16.28,17.89-20.3,6.07-3.25,13.33-5.45,26.84-5C370.29,154.16,350.77,153.86,350.77,153.86Z" class="cls-31"/><path d="M295.45,123.72s23.75-4.35,13.45,48.43c.57,6.36,8.94-10.3,8.94-10.3s.37-41.3-13.39-42C284.82,118.75,295.45,123.72,295.45,123.72Z" class="cls-32"/><path d="M285.23,337.24s-12.2-19.59-26.8-17.58-25.74,12.57-25.74,12.57,16.68-17,25.6-17.18,27,13.25,27,13.25Z" class="cls-33"/><path d="M291,269.63s-2.5-47.46-22.24-46.65c20.9-4.54,24.84,32.48,24.84,32.48Z" class="cls-34"/><path d="M297,259.39s17.77-14.67,42-15.29c-6.77,7.86-28.69,4-41.7,24.23C293.57,281.25,297,259.39,297,259.39Z" class="cls-35"/><path d="M251.4,318.87s9.11-14.17-6.12-12S207,344.79,190.41,346.06s20.1,10.73,47.89,2.36S268.2,320,266,316.92,257.62,314,251.4,318.87Z" class="cls-36"/><path d="M283.8,227.26s4.24,20.93-14.2,22.47-47.32-15.61-57.41-83.15c0,0,12.06,25.14,39.64,25.43s56.76,15.51,44,34.5C290.91,233,283.8,227.26,283.8,227.26Z" class="cls-37"/><path d="M310.52,252.6s-11.74-8.48,2.69-15.68,34,0,37,.67,23.57-.48,32.87-8.89-23.7,37.09-58,39.91S310.52,252.6,310.52,252.6Z" class="cls-38"/><path d="M351.91,149.55s23.34-8,27.14,11.52-8.51,54.1-8.51,54.1-2.06-25.1-13-26.79S331,169.69,347.3,153.7C355.19,152.32,351.91,149.55,351.91,149.55Z" class="cls-39"/><path d="M303.9,122.83s5.7,19.08-25.88,28.27-17.4,34.72-24.1,24.4-9.54-53.79,27.9-65.87C307.11,103.86,303.9,122.83,303.9,122.83Z" class="cls-40"/><path d="M414.25,325.64s-30.44-2.83-38.56,27.71-11.88,104.19-11.88,104.19,1.07,123.62,3.19,135.31,9.87,57.43,9.87,57.43-5.4-12.61-11-10.61-11.67-146-10.73-150.86S362.78,364.89,370.93,348c5-10.3,9.82-16.51,17.22-20.75,6-3.44,13.21-5.88,26.83-5.94C433.91,325.26,414.25,325.64,414.25,325.64Z" class="cls-41"/><path d="M357.38,297.67s23.74-5.14,15.43,47.58c.83,6.29,8.6-10.53,8.6-10.53s-1.24-41-15.12-41.24C346.49,293.11,357.38,297.67,357.38,297.67Z" class="cls-42"/><path d="M355.41,509.84s-13-19-27.65-16.49-25.43,13.36-25.43,13.36,16.13-17.43,25.1-17.93S355.15,501,355.15,501Z" class="cls-43"/><path d="M358.61,442.57s-4.37-47-24.2-45.5c20.85-5.23,26.26,31.36,26.26,31.36Z" class="cls-44"/><path d="M364.19,432.21s17.32-15.17,41.66-16.63c-6.5,8-28.72,5-41,25.48C361.63,454,364.19,432.21,364.19,432.21Z" class="cls-45"/><path d="M320.64,492.81s8.63-14.38-6.62-11.72-37.11,39-53.71,40.82,20.65,9.94,48.3.68,29-29.3,26.65-32.23S326.72,487.79,320.64,492.81Z" class="cls-46"/><path d="M348.57,406.11s2.44,16.26-12.13,19.33-36.58-7.68-41.62-60.51c0,0,8.42,18.83,30.11,16.29s44,6.66,33.16,23.08A6.66,6.66,0,0,1,348.57,406.11Z" class="cls-47"/><path d="M377.57,425s-12.14-8,2.11-15.65,34.17-1.23,37.26-.63,23.71-1.3,32.75-10-22.42,37.61-56.87,41.61S377.57,425,377.57,425Z" class="cls-48"/><path d="M415.23,321.32S438.41,312.6,443,331.8s-6.45,54-6.45,54-3.05-24.83-14.08-26.13-27.55-17.6-11.71-34C418.63,324,415.23,321.32,415.23,321.32Z" class="cls-49"/><path d="M365.86,296.49s6.48,18.73-25,28.95-16.16,35.06-23.31,25.05-11.69-53,25.52-66.32C368.35,277.56,365.86,296.49,365.86,296.49Z" class="cls-50"/><path d="M289.23,507.4S260.8,526,276.41,549.29s66.91,69,66.91,69,92.53,71.78,103,77.23,51.1,27.11,51.1,27.11-14-3.8-17.42,1.13S361.76,645.91,359,642.42s-85.17-77.78-90.64-93.11c-3.34-9.35-3.74-16.22-.49-23.63,2.63-6,7.08-12.23,18.81-21.32C306,494.1,289.23,507.4,289.23,507.4Z" class="cls-51"/><path d="M219.31,528.81S236,510,267.9,546.45c5.38,3.14-.36-11.89-.36-11.89s-31.44-23.21-43.63-14.13C206.51,533.38,219.31,528.81,219.31,528.81Z" class="cls-52"/><path d="M374.81,654.55s-25.36-2.48-36.14,8.71A45.59,45.59,0,0,0,326.57,688s1-21,8.43-27.21,33-11.28,33-11.28Z" class="cls-53"/><path d="M327.73,613s-38.59-24.65-54.64-10.59c14.16-16.94,46,.92,46,.92Z" class="cls-54"/><path d="M324.89,603.18s3.73-20.41,23.71-37.46c.32,9-21.13,22-16.61,42.23C338.82,617.68,324.89,603.18,324.89,603.18Z" class="cls-55"/><path d="M332.11,667.68s-3.19-14.17-14.41-2.47-3.22,47.54-16.21,59.65,25.23-7.9,42.27-31.72,3.38-36.46-.82-36.62S333.65,660.7,332.11,667.68Z" class="cls-56"/><path d="M292,598.26s14.16,7.91,3.83,19.41-37.33,19.81-80.83-7.81c0,0,21.22,5.44,38.11-10.47s43-25.35,45.79-8.52C299.54,597,292,598.26,292,598.26Z" class="cls-57"/><path d="M331.12,590.06s-16.44,3.38-9.78-10.58S350,556,353.11,554.33s19.55-16.53,20.94-27.62,8.49,37-18.36,62.22S331.12,590.06,331.12,590.06Z" class="cls-58"/><path d="M286.87,504.21s13.59-20.53,31.78-12.31,34.41,35.94,34.41,35.94-21-12.53-31.54-6-36.88,8-35.35-12.18C291.77,503.5,286.87,504.21,286.87,504.21Z" class="cls-59"/><path d="M225.77,522.48s19.48,6.68-.14,33.58,12,31.3-1.6,30.18S174.62,562.93,197,530.39C213.9,509.72,225.77,522.48,225.77,522.48Z" class="cls-60"/><path d="M465.55,551.07s-31.54,9.72-26.13,38.26,34.17,91.09,34.17,91.09,55.66,102.06,62.93,110.91S571.7,835,571.7,835s-10.93-8.31-15.67-4.42S480,714.22,478.73,709.79,431.66,604,432.3,586.76c.4-10.51,2.49-17.58,8-24,4.44-5.22,10.55-10.1,24.08-15.55C484.94,543,465.55,551.07,465.55,551.07Z" class="cls-61"/><path d="M396.61,550.42S418,536.75,433,583.75c3.61,4.89,3.91-12.13,3.91-12.13s-19.33-33.49-33.25-28.2C383.76,551,396.61,550.42,396.61,550.42Z" class="cls-62"/><path d="M488.34,727.11s-21.37-10.59-34.81-2.72-19.4,21.16-19.4,21.16,8.36-20.84,17.06-24.82,33-.87,33-.87Z" class="cls-63"/><path d="M461.81,670.07s-25.09-37.23-44.17-28.13c18.44-12.61,40,15.58,40,15.58Z" class="cls-64"/><path d="M462.79,659.26A78.71,78.71,0,0,1,496.9,629c-2.92,9.24-26.36,15.54-29.57,37.39C469.87,678.36,462.79,659.26,462.79,659.26Z" class="cls-65"/><path d="M446.21,726.76s2.24-15.34-11.76-7.08-19.72,47-35.42,55.12,24.94.06,48.36-18.58,15.91-35.78,12.29-37.28S450.05,720.2,446.21,726.76Z" class="cls-66"/><path d="M435.72,643.82s9.61,12.51-3.54,20.83S392.4,672.78,364.05,631a36.35,36.35,0,0,0,37.15,1.57c20.47-10.7,46.73-11.91,43.2,6C442.76,644.91,435.72,643.82,435.72,643.82Z" class="cls-67"/><path d="M472.93,648s-15.63-1.82-4.82-13.81,33.46-14.57,36.8-15.3,23-10.47,28.18-21.23-5.69,40.07-38.21,57S472.93,648,472.93,648Z" class="cls-68"/><path d="M464.61,547.11s19.22-16.43,32.26-2.32,17.41,47.3,17.41,47.3-14-19.37-25.55-16.08-35.19-3.68-26.69-23.58C469.17,547.94,464.61,547.11,464.61,547.11Z" class="cls-69"/><path d="M404.52,546.09s14.72,13-12,33.89-.6,35.47-12.13,30-35.06-39.33-3.9-65.09C398.64,529.4,404.52,546.09,404.52,546.09Z" class="cls-70"/><path d="M383.94,487.69s10.36-5.54,22.12-3.81,27.77.31,27.77.31l-2.91,3.18s-32.65-1.53-42.67,4.41a71.66,71.66,0,0,0-11.92,8.76Z" class="cls-71"/><path d="M428.94,484.67s-12.47.88-6.07-10,34.31-8.64,45.28.92,22.06,21.1,24.76,21.19,1.48,2-3.91,1.84-25.79,2.37-36.29,5.94-30,5.51-33.16-.5a11.48,11.48,0,0,1,3.43-15Z" class="cls-72"/><path d="M423.49,413S412.1,426.12,402.31,411c-9.54-14.76-2.42-28.28-1.49-34.15s.11-17.7-.66-22.31,2.69.09,2.69.09,7.78,8.8,14.29,12.3,17.47,13.07,20.85,23,2.37,21.06-5.29,26.69S423.49,413,423.49,413Z" class="cls-73"/><path d="M418.42,414.15a50.11,50.11,0,0,1-2.25,25.49c-4.91,12.94-25.49,26-31.53,35.62-4.64,7.39-10.59,22.45-22.47,34.06v6.43c6.49-6.42,16-16.43,17.25-19a128.22,128.22,0,0,1,26.65-35.13c16.4-15.16,17.81-30.19,18.21-34.11.29-2.89,1.81-19,1.81-19Z" class="cls-74"/><path d="M266.75,518.44a26,26,0,0,0-11.06-10.82c-7.63-3.72-16.27-10.82-16.27-10.82l.21,2.87s19.67,12.1,22.71,19.26a42.82,42.82,0,0,1,2.84,9.45Z" class="cls-75"/><path d="M242,499s6.84,5.41,8.21-3-15.89-18.24-26.71-17.42-22.64,2.66-24.25,1.64-1.8.51,1.41,2.53,13.87,11.5,18.3,17.57,14.88,14.87,19.48,12.85,6-6,5-9.43Z" class="cls-76"/><path d="M278.59,462.48s.51,11.58,13.26,7.28c12.41-4.19,14.58-14.31,16.78-17.84s8.18-9.6,10.78-11.78-1.61-1-1.61-1-8.61,1.67-14,1-16.24.13-22.84,4.17-11.19,10.43-9.37,16.5S278.59,462.48,278.59,462.48Z" class="cls-77"/><path d="M281,465.1a35.87,35.87,0,0,0-10.58,14.65c-3.18,8.93,2.69,24.11,1.71,31.7-.75,5.82-4.31,16.31-2.83,27.28l-3,3.46c-.78-6-1.63-15.19-1.15-17.1a77.41,77.41,0,0,0,.9-29.5c-2.45-14.67,3.74-23.35,5.33-25.62,1.18-1.67,7.78-10.94,7.78-10.94Z" class="cls-78"/><path d="M215.48,58.69s.9-7.08-3-12.62-7-14.24-7-14.24l-1.25,2.49s8.92,16.39,7.69,23.41a44.11,44.11,0,0,1-2.52,8.88Z" class="cls-79"/><path d="M206.36,34.5s2.5,6.72,7.71,0-3-20.4-11.64-23.09S184,6.58,183.25,5.22s-1.61-.14-.18,2.58,4.83,14.07,5.19,20.6,3.93,17.23,8.41,17a9.16,9.16,0,0,0,8.43-6.43Z" class="cls-80"/><path d="M252.09,15s-5.34,10,6.44,10.3c11.48.34,18.12-7.54,21.52-9.85S291,9.93,294,8.89s-.71-1.36-.71-1.36S286,6.25,282.22,4,269.85-1,262.86.36s-13.63,5.33-15.25,11S252.09,15,252.09,15Z" class="cls-81"/><path d="M252.62,18a42,42,0,0,0-15.24,9.08c-6.82,6.57-9.88,21.25-14.37,27.37-3.44,4.69-11.32,12.45-15.61,22.2l-4,2c2.39-5.35,6.27-13.37,7.58-14.84a92.73,92.73,0,0,0,15.25-24.68c5.39-13.19,14.36-18.59,16.69-20l11.3-6.82Z" class="cls-82"/></g></g></svg>