<svg xmlns="http://www.w3.org/2000/svg" xmlns:xlink="http://www.w3.org/1999/xlink" viewBox="0 0 17.65 18.36"><defs><style>.cls-1{fill:url(#Безымянный_градиент_2)}.cls-10,.cls-2,.cls-8{fill:#5f723f}.cls-10,.cls-11,.cls-12,.cls-2,.cls-8,.cls-9{stroke-miterlimit:10;stroke-width:.5px}.cls-2{stroke:url(#plant_2)}.cls-3{fill:url(#Безымянный_градиент_2-2)}.cls-4{fill:url(#Безымянный_градиент_2-3)}.cls-5{fill:url(#Безымянный_градиент_2-4)}.cls-6{fill:url(#Безымянный_градиент_2-5)}.cls-7{fill:url(#Безымянный_градиент_2-6)}.cls-8{stroke:url(#plants2_2)}.cls-9{fill:url(#plants2_2-2);stroke:url(#plant_2-2)}.cls-10{stroke:url(#plants2_2-3)}.cls-11{fill:url(#plant_2-3);stroke:url(#plant_2-4)}.cls-12{fill:url(#plants2_2-4);stroke:url(#plants2_2-5)}</style><linearGradient id="Безымянный_градиент_2" x1="848.49" x2="848.49" y1="1777.97" y2="1775.46" gradientTransform="matrix(0.8, 0.56, -0.59, 0.68, 391.5, -1677.21)" gradientUnits="userSpaceOnUse"><stop offset="0" stop-color="#97ad5c"/><stop offset="1" stop-color="#5f723f"/></linearGradient><linearGradient id="plant_2" x1="1357.27" x2="1363.45" y1="1526.63" y2="1526.63" gradientTransform="matrix(0.96, 0.6, -0.67, 0.67, -268.64, -1818.24)" gradientUnits="userSpaceOnUse"><stop offset="0" stop-color="#534741"/><stop offset=".29" stop-color="#554d41"/><stop offset=".69" stop-color="#5a5f40"/><stop offset="1" stop-color="#5f723f"/></linearGradient><linearGradient id="Безымянный_градиент_2-2" x1="832.63" x2="836.67" y1="1775.76" y2="1780.57" xlink:href="#Безымянный_градиент_2"/><linearGradient id="Безымянный_градиент_2-3" x1="843.28" x2="841.48" y1="1780.88" y2="1777.76" xlink:href="#Безымянный_градиент_2"/><linearGradient id="Безымянный_градиент_2-4" x1="831.78" x2="837.73" y1="1769.67" y2="1769.67" xlink:href="#Безымянный_градиент_2"/><linearGradient id="Безымянный_градиент_2-5" x1="837.11" x2="840.63" y1="1774.24" y2="1775.52" xlink:href="#Безымянный_градиент_2"/><linearGradient id="Безымянный_градиент_2-6" x1="845.24" x2="841.67" y1="1771.12" y2="1773.18" xlink:href="#Безымянный_градиент_2"/><linearGradient id="plants2_2" x1="835.11" x2="841.37" y1="1773.99" y2="1773.99" gradientTransform="matrix(0.8, 0.56, -0.59, 0.68, 391.5, -1677.21)" gradientUnits="userSpaceOnUse"><stop offset="0" stop-color="#5f723f"/><stop offset=".26" stop-color="#5b6340"/><stop offset=".7" stop-color="#554e41"/><stop offset="1" stop-color="#534741"/></linearGradient><linearGradient id="plants2_2-2" x1="835.6" x2="844.45" y1="1779.7" y2="1779.7" xlink:href="#plants2_2"/><linearGradient id="plant_2-2" x1="835.35" x2="844.7" y1="1779.73" y2="1779.73" gradientTransform="matrix(0.8, 0.56, -0.59, 0.68, 391.5, -1677.21)" xlink:href="#plant_2"/><linearGradient id="plants2_2-3" x1="834.36" x2="836.14" y1="1780.09" y2="1780.09" xlink:href="#plants2_2"/><linearGradient id="plant_2-3" x1="959.9" x2="963.78" y1="1720.1" y2="1720.1" gradientTransform="matrix(0.83, 0.57, -0.61, 0.68, 254.79, -1706.41)" xlink:href="#plant_2"/><linearGradient id="plant_2-4" x1="959.55" x2="964.12" y1="1720.15" y2="1720.15" gradientTransform="matrix(0.83, 0.57, -0.61, 0.68, 254.79, -1706.41)" xlink:href="#plant_2"/><linearGradient id="plants2_2-4" x1="838.92" x2="839.92" y1="1776.34" y2="1776.34" xlink:href="#plants2_2"/><linearGradient id="plants2_2-5" x1="838.57" x2="840.26" y1="1776.33" y2="1776.33" xlink:href="#plants2_2"/></defs><title>plant_tittle_letter_P</title><g id="Capa_2" data-name="Capa 2"><g id="Capa_3" data-name="Capa 3"><path d="M16.35,16.18a3.86,3.86,0,0,1,1.3.69,4.77,4.77,0,0,1-.17-1c-.19-1.15-1.66-3.56-3.27-2.85C12.19,13.93,15.47,15.82,16.35,16.18Z" class="cls-1"/><path d="M15.25,14.62l-.14.05a6.14,6.14,0,0,0-2.5-2.15,11.26,11.26,0,0,0-3-.7v-.13a11.36,11.36,0,0,1,3.09.72A6.3,6.3,0,0,1,15.25,14.62Z" class="cls-2"/><path d="M2.85,8.1A4.57,4.57,0,0,0,4.71,5.46a.27.27,0,0,0-.12-.31A5.4,5.4,0,0,1,5.9,6.9,2.84,2.84,0,0,1,6.05,9a2.71,2.71,0,0,1-2.92,1.72C1.57,10.36,2,8.84,2.85,8.1Z" class="cls-3"/><path d="M9.22,14.21l1.74.35c.34.07.72.18.85.47a2.53,2.53,0,0,0-.61-2.44c-.72-.8-2.49-1.65-3.55-1C6.23,12.5,8.19,14,9.22,14.21Z" class="cls-4"/><path d="M9.22,3.84a3,3,0,0,1-.63-1L7.28,0a11.68,11.68,0,0,1,2.1.76A4.13,4.13,0,0,1,11,2.17c.28.45.71,1.58.27,2S9.63,4.2,9.22,3.84Z" class="cls-5"/><path d="M8.29,9.45a2.08,2.08,0,0,1,.06-.7,2.11,2.11,0,0,1,.38-1,7,7,0,0,1,.65-.55,1.6,1.6,0,0,0,.51-1.41,2.93,2.93,0,0,1,1,2.89,1.29,1.29,0,0,1-.3.62,2,2,0,0,1-.46.35C9.54,10,8.44,10.44,8.29,9.45Z" class="cls-6"/><path d="M12.81,9.2a5.25,5.25,0,0,1,1.54-1,10.19,10.19,0,0,0,1.36-.88,1.34,1.34,0,0,0,.56-.69,2.56,2.56,0,0,1,0,3.14,4.43,4.43,0,0,1-.9.7,2.6,2.6,0,0,1-2.34.45C12.23,10.62,12.33,9.74,12.81,9.2Z" class="cls-7"/><path d="M12,7.67a4.07,4.07,0,0,1-1,1.86A5.27,5.27,0,0,1,8.27,11l0-.13a5,5,0,0,0,2.7-1.42,3.63,3.63,0,0,0,1-2.69c-.08-1.52-1.17-2.86-2.33-4.09l.1-.08C10.91,3.82,12,5.19,12.1,6.75A3.57,3.57,0,0,1,12,7.67Z" class="cls-8"/><path d="M16.46,8.2a7.28,7.28,0,0,1-3.3,2.53c-1.09.39-1.61.38-3.81.34H8.69a23.42,23.42,0,0,0-3.8.17,6.94,6.94,0,0,0-3.3,1.3A3.09,3.09,0,0,0,.44,14.25v0a3.79,3.79,0,0,0,.41,2.29A5.77,5.77,0,0,0,1.67,18L1.56,18a6.24,6.24,0,0,1-.84-1.42A4,4,0,0,1,.3,14.24a3.15,3.15,0,0,1,1.19-1.8,7,7,0,0,1,3.37-1.33,22.72,22.72,0,0,1,3.83-.18l.66,0c2.18,0,2.69,0,3.75-.34a6.93,6.93,0,0,0,3.24-2.49Z" class="cls-9"/><path d="M5,7.44a4.06,4.06,0,0,1-.89,1.7,13.93,13.93,0,0,1-1.2,1.23l-.42.4a2.16,2.16,0,0,0-.49.61.72.72,0,0,0,0,.71l-.12.06a.87.87,0,0,1,0-.83,2.4,2.4,0,0,1,.52-.64l.42-.4A12.48,12.48,0,0,0,4,9.06a3.58,3.58,0,0,0,.91-2L5,7.1C5,7.21,5,7.32,5,7.44Z" class="cls-10"/><path d="M9.54,12.63l-.14,0a.28.28,0,0,0-.09-.2,3.3,3.3,0,0,0-1.62-1,9.91,9.91,0,0,0-1.94-.3V11a10.32,10.32,0,0,1,2,.31,3.37,3.37,0,0,1,1.69,1A.36.36,0,0,1,9.54,12.63Z" class="cls-11"/><path d="M9.78,8.25a3.1,3.1,0,0,1-.67,1.21L9,9.55A3,3,0,0,0,8.26,11l-.14,0a3.19,3.19,0,0,1,.8-1.46L9,9.38a2.26,2.26,0,0,0,.67-1.54h.14A1.49,1.49,0,0,1,9.78,8.25Z" class="cls-12"/></g></g></svg>