<svg xmlns="http://www.w3.org/2000/svg" viewBox="0 0 1938.99 181.91"><defs><style>.cls-1{fill:#979797}.cls-2{fill:#b0b0b0}.cls-3{fill:#7f7f7f}.cls-4{fill:#666}.cls-5{fill:#8c573a}.cls-6{fill:#673f31}</style></defs><title>wall</title><g id="Capa_2" data-name="Capa 2"><g id="PARED"><g id="SOMBRA"><path d="M1935.85,20.47c-.23,0-.41.36-.54,1C1936.52,21,1936.92,20.53,1935.85,20.47Z" class="cls-1"/><path d="M1932.43,33.25c-3.31,1.39-14.84-1.94-18-7-4.33-6.93-1.13-13.22-2-21s-74.9-6.16-79,0c-8.65,13,7,29.84,3.5,38.5s-18.5,8.5-18.5,8.5-13.59-1.7-11-19-65.68-6.64-72.6-2.32,3.46,29.43-3.47,22.5-47.33,7-49.93,1.82,6.12-25.06-6-19C1665.05,24.13,1541,37.86,1541,37.86s-23.54.39-40.54-.61c.36-1.08-10-3-10-3,0-.61-8-5-8-5-4.42,2-9.74-7.27-12-10C1460,6.57,1441.56-1.44,1426.68,3.52s-12.68,9.37-35.83,4.41-29.22,6.06-27,7.72c1,.71,1.73,1.44-3.86,5-14.88,9.92-18.63,1.88-27.56,1.65-1.79-1.76-7.68-2.62-8.27-2.2,1.1-1.1-9.86-2.21-13.23-2.21,0,0-8.9-1-11-.55a36,36,0,0,0-6-.5,50.27,50.27,0,0,0-10.5,2.44,25.89,25.89,0,0,1-6.77,1.14c-11.76-1.14-24.4-5-29.12-3.75-3.49-.5-6.22-.61-7.61.17a22.12,22.12,0,0,0-10.13,12.75,14.46,14.46,0,0,1-11.66,10.51c-5.86.9-11,1.87-15.16,7.5-2.06,4.68,8.25,10.87,0,12.75-8.25,6.37,0,2.25-12.38,4.31-11.36,1.89-37,6.14-53.63,2.06-6.19-4.41-16.69-.37-16.69-.37-3.31,0-1.88,3.39-6,6s-4.13,12.94-4.13,12.94c-2.06,8.25-23.5,4.12-26.82,4.12,0,0-37.31-.37-45.38,4.13s-18.56-4.13-24.75,0-12.38-6.19-14.44-10.32c-4.13-2.06.18-12.74-4.13-14.44s-38.25-2.43-45.38-2.06-19.88-4.12-30.94-4.12c-5.28,0-7.74,3.75-13,3.75-3.66,0-11.16-1.58-13.59.44l-4.94,2.41c-3.39.62-2.67,1.65-5.59,1.65-.48-.18-1.9.63-2.33.91-1.79,1.15.27,3.21-1.79,3.21-.81,0,0,2.07-3,.74-3.2,1.33-1.14,7.19-1.14,9.4a6,6,0,0,1-6,6s-29.07,2.44-35.25.38c-1.81-.61-4.19-1.57-6.19-2.07-8.25-2.06-10.32-12.37-10.32-14.44,0-2.91-10.31-14.44-16.5-10.31s-16.5,0-16.5,0c-8.25,0-22.69-2.06-26.82-6.19S743,46.05,736.76,41.93c-2.06-4.13-19.37-4.13-22.69-4.13L689.5,39.28c-2.73-.25-10-1-11.67-3.18-2.29-3-.89-2.42-5-6.55s-2.07-4.13-4.13-6.19-10.51-6.27-10.51-6.27c-3-3-12.74-6.37-14.86-8.49s-15.86-1-21.08-2.62L591.72,4.62S560.3,15.1,560.3,10.69s-26.46-3.86-26.46-3.86-30.31-3.86-38.58,0-16.07,11.59-41.83,5.42l-4,4c-2-.5-.29,0-2,0-14-.67-21,7-19,24-5.66.6-28.71,1.32-50.9-1-14.15-1.49,4.38-9.28-10.44-14.35-18.73-6.42-88.61-6-74.66,16.36,0,2-17.41,4.36-28.88-.56-6.51-2.79-17.35.61-16.62.06,7.44-5.58-13.13-19.58-18.71-20.51-38.31-6.39-67.88,0-74.39.93-17.7,2.53-43.9,2.58-43.9,2.58s-18.6,19.14-12.5,20.5-18.91-3.56-34.72-1.7C44.12,36,7.65,35,3.93,51.75c-1.66,7.45-7.95,25.42,0,27l412-12,.51-.89c0,.47,0,.94,0,1.39,2,2,29,34,29,34L628,23.92c3.31,0,41.34,28.65,41.34,32,0,0,212.48,66.12,215.8,66.12,0,0,411.64-35.92,419.2-36.89.34,5.68,119,.19,176.94-17.66a7.13,7.13,0,0,0,2.63-1.67l452,20.45C1939,86.4,1930.78,41.61,1932.43,33.25Z" class="cls-1"/><path d="M393.71,124.22c-6.56-8.75,34.26,7.29,39.37,1.46" class="cls-2"/><path d="M560.17,10.14V22.51s2.55,3.74,3.76,3.13,8.41-15.41,8.41-15.41S563.47,15.65,560.17,10.14Z" class="cls-3"/><path d="M477,12.81l5.64,12.31s7.43-2.71,9.12-3.06,3.33-15.23,3.33-15.23S478.78,12.73,477,12.81Z" class="cls-3"/><polygon points="497.15 6.17 498.88 19.21 491.82 21.16 495.12 6.83 497.15 6.17" class="cls-4"/><path d="M1364.48,16.78l6.53,6.58s-.21,2.85-2.59,3.36-5.82-7.89-5.82-7.89Z" class="cls-4"/><path d="M477,12.81l5.64,12.31s7.43-2.71,9.12-3.06,3.33-15.23,3.33-15.23S478.78,12.73,477,12.81Z" class="cls-3"/><polygon points="497.15 6.17 498.88 19.21 491.82 21.16 495.12 6.83 497.15 6.17" class="cls-4"/><path d="M560.17,10.14V22.51s2.55,3.74,3.76,3.13,8.41-15.41,8.41-15.41S563.47,15.65,560.17,10.14Z" class="cls-3"/><path d="M998.87,83.07V94L980,78.34l15.14-.92.46-8s1.5.59,1.13,7S998.87,83.07,998.87,83.07Z" class="cls-3"/><path d="M997.78,98c.37-.37,1.09-14.92,1.09-14.92s5.67,11.08,10.84,11.36.26,0,.26,0l.18,11.54" class="cls-4"/><path d="M1016.11,92.43l.23,11.74-6.35.39-.11-10.12a6.6,6.6,0,0,0,2.82-.82A6,6,0,0,1,1016.11,92.43Z" class="cls-3"/><path d="M1364.48,16.78l6.53,6.58s-.21,2.85-2.59,3.36-5.82-7.89-5.82-7.89Z" class="cls-4"/><path d="M372.57,37.79l-7.41,8.86A39,39,0,0,0,371,47.82c3.4.43,5.45-8.71,5.45-8.71Z" class="cls-3"/><path d="M247.43,40.25s-8,10-9,10c3,1-.4,0,7.8-1a30.16,30.16,0,0,0,4.69-9Z" class="cls-3"/><path d="M62.43,43.25s-8,6-12,8c-10,0-11.66-3.41-11.66-3.41l10.41-8.09A23.65,23.65,0,0,1,62.43,43.25Z" class="cls-3"/><path d="M1733.45,54.55s1,7.7,2,8.7,3.75,4.57,2.88-1.22-1.42-11-1.42-11L1733.45,46S1734.47,54.85,1733.45,54.55Z" class="cls-4"/><path d="M1733.23,47.3s2.46,5.34,3.83,5.14c-1.63-4.19.3-12.48.3-12.48L1733,33.33S1731,32.35,1733.23,47.3Z" class="cls-3"/><path d="M1831,11.59s4.84,8.36,6.64,8c-1.19,8.65,7,21.4,7,21.4s-7.07-2.27-8.15-5.51S1829.54,15.93,1831,11.59Z" class="cls-3"/><path d="M1835.66,46s8.67,8.48,8.22,10.38c5.55-2.1,2-14.59.77-15.35s-7.22-2.75-8.22-5.75S1838.89,42.69,1835.66,46Z" class="cls-4"/></g><g id="LADRILLOS"><polyline points="868.93 85.52 872.72 76.92 879.18 78.34 874.09 88.16 869.73 86.71 868.93 85.52" class="cls-1"/><polyline points="873.11 83.53 876.73 75.09 878.46 74.34 874.45 84.89 872.63 85.25" class="cls-4"/><path d="M793.89,72.2l4.89-7.68s2.32-1.82,6.26,0a21.89,21.89,0,0,1,9.86,9.4c.18.36.15.42.15.42L804.6,78.7,797,75.79" class="cls-3"/><path d="M874.57,80.87l3.58-8.37a2.42,2.42,0,0,1,1.26-1.12,11.53,11.53,0,0,1,1.45-.59,7.26,7.26,0,0,1,1.33,0l-3,9.77-1.82-1.09-2.79,1.44" class="cls-3"/><path d="M874.09,75.79l-4,8.73-1.51,2.33,4-9.62a1,1,0,0,1,.7-1.07C874.09,75.79,873.73,75.79,874.09,75.79Z" class="cls-3"/><path d="M1140.55,74.72l-3.43-8s-5.46-4.73-16.74-.37" class="cls-3"/><polygon points="1123.66 74.34 1120.38 66.33 1140.55 74.72 1123.66 74.34" class="cls-3"/><path d="M1208.79,55.06,1203,47.42s-1.46,2.64,2.91,8.78,7.64,10.13,7.64,10.13l-4.73-11.27" class="cls-3"/><path d="M1203,60.15s4.64-.18,2.68-4.28,7.5,9,7.5,9l-1.09,4-3.27-.73Z" class="cls-3"/><polygon points="826.96 100.53 831.52 91.44 820.34 98.33 826.96 100.53" class="cls-3"/><path d="M669.27,24l-9.88,6.51L644.5,21.71h0l21.13-.49A10.25,10.25,0,0,1,668,22.75,11.1,11.1,0,0,0,669.27,24Z" class="cls-3"/><polygon points="728.93 50.69 736.94 41.96 727.11 51.05 728.93 50.69" class="cls-3"/><path d="M675.82,50l13.82-10.55s-10.16-1.31-11.08-2.65-12.93,10.66-12.93,10.66" class="cls-3"/><path d="M861.13,100l6.73-9a27.25,27.25,0,0,0,4-1.37c.36-.37-4.72,8.16-4.72,8.16Z" class="cls-3"/><polygon points="1198.23 64.08 1208.06 77.98 1212.06 71.43 1208.79 68.15 1202.97 60.15 1198.23 64.08" class="cls-4"/><path d="M1120.38,66.33l4.73,10.92-2.18-.73-3.73-10S1120,66,1120.38,66.33Z" class="cls-4"/><path d="M1102.92,100.17l-.83-10c7.54-1,8.11-4.87,8.11-4.87l3.27,9.82.73.37-2.55,3.64" class="cls-3"/><polygon points="998.51 95.08 998.87 83.07 997.78 94.71 998.51 95.08" class="cls-3"/><path d="M667.45,45.6l11.28-8.73a62.39,62.39,0,0,0-3.84-5.12c-.53-.34-13.26,10.94-13.26,10.94" class="cls-4"/><path d="M662.58,42,675.1,31.94s-4.29-4.23-4.33-4.74-11.32,10-11.32,10" class="cls-3"/><path d="M660.9,36.14l10-8.73a12.89,12.89,0,0,1-.94-1.73c-.35-.82-11.26,9-11.26,9" class="cls-4"/><path d="M658.72,32l10.5-8a2.41,2.41,0,0,1,.74,1.66c0,1-11.09,9-11.09,9" class="cls-4"/><path d="M1271.24,26.67,1267.75,20c-28.34-6-27.67-3.14-27.67-3.14l12.41,6.5" class="cls-3"/><path d="M934.87,79.72l.7,19.87,54.94-2-.7-19.86S934.89,80.37,934.87,79.72Z" class="cls-5"/><path d="M780.29,106.05l-.52,17.71,50.46,1.47.51-17.7S780.27,106.63,780.29,106.05Z" class="cls-5"/><path d="M837.88,106.9v17.71h50.48V106.9S837.88,107.48,837.88,106.9Z" class="cls-5"/><path d="M752,78.79l-1,17.68,50.39,2.89,1-17.68S752,79.36,752,78.79Z" class="cls-5"/><path d="M995.73,131.16l.95,17.68,51.36-2.75-1-17.69S995.76,131.73,995.73,131.16Z" class="cls-5"/><path d="M1056.23,132.06v17.71h51.44V132.06S1056.23,132.63,1056.23,132.06Z" class="cls-5"/><path d="M1023.17,105.82l-.22,17.71,8.58-1,4.37-.31-.76,2.9,42.56-2.16.2-16.42S1023.17,106.39,1023.17,105.82Z" class="cls-5"/><path d="M1252.61,78.84V96.56h57.08V78.84S1252.61,79.42,1252.61,78.84Z" class="cls-5"/><path d="M1283,58.17l.48,17.7,57.07-1.57-.49-17.71S1283,58.75,1283,58.17Z" class="cls-5"/><path d="M1245.1,30.92l0,17.71,57.08.18.06-17.72S1245.1,31.5,1245.1,30.92Z" class="cls-6"/><path d="M1226.24,105.94v17.72h57.08V105.94S1226.24,106.52,1226.24,105.94Z" class="cls-6"/><path d="M1217.76,58.79V76.5h57.09V58.79S1217.76,59.37,1217.76,58.79Z" class="cls-5"/><path d="M1188.56,78.84V96.56h57.09V78.84S1188.56,79.42,1188.56,78.84Z" class="cls-5"/><path d="M1291.7,103.7v17.71h57.08V103.7S1291.7,104.27,1291.7,103.7Z" class="cls-5"/><path d="M815.18,131.53v17.71h50.48V131.53S815.18,132.1,815.18,131.53Z" class="cls-5"/><path d="M895.65,104.89l-.88,17.69,51.37,2.55.88-17.69S895.62,105.47,895.65,104.89Z" class="cls-6"/><path d="M939,132.06v17.71h51.44V132.06S939,132.63,939,132.06Z" class="cls-5"/><path d="M953.57,106.16v17.71h58V106.16S953.57,106.73,953.57,106.16Z" class="cls-5"/><path d="M1089.3,105.69V123.4h60.75V105.69S1089.3,106.26,1089.3,105.69Z" class="cls-5"/><path d="M1123,79.82l.32,17.71,57.07-1L1180,78.81S1123,80.4,1123,79.82Z" class="cls-5"/><path d="M712.3,107.31V125h57.08V107.31l-26.82.42v2.12s-3.8,2.32-6.37,2.12c-.65,0,.76-2.55,0-2.61C727.32,108.67,712.3,107.48,712.3,107.31Z" class="cls-5"/><path d="M622.45,77.38,622,95.09l57.06,1.44.45-17.71S622.44,78,622.45,77.38Z" class="cls-6"/><path d="M668.48,52V69.7h57.08V52S668.48,52.56,668.48,52Z" class="cls-5"/><path d="M643.52,107.92v17.71h57.09V107.92S643.52,108.5,643.52,107.92Z" class="cls-5"/><path d="M601.41,51.78l.25,17.71,57.08-.8L658.49,51S601.42,52.36,601.41,51.78Z" class="cls-5"/><path d="M688.39,79.89l.35,17.71,57.08-1.15-.36-17.7S688.4,80.46,688.39,79.89Z" class="cls-5"/><path d="M564.19,28.2V45.92l29.63.27,6.24-5.26-4.25,4.25,25.46.74V34.57l-6.36-2.12s3-4.21-2.12-4.17C596.88,28.42,564.19,28.64,564.19,28.2Z" class="cls-5"/><path d="M1160.31,104.3V122h57.08V104.3S1160.31,104.88,1160.31,104.3Z" class="cls-5"/><path d="M1160,135.14v17.71h51.68V135.14S1160,135.71,1160,135.14Z" class="cls-5"/><path d="M893.44,78.49c-1.54.77-4,.26-5.31,1.52a4.27,4.27,0,0,1-.73.68,2.23,2.23,0,0,1-.77.24l-6.81,1.3a11.94,11.94,0,0,1-1.21,1.92c-.21.26-.49.54-.82.47s-.4-.28-.63-.3-.54.33-.67.63q-.9,2.05-2,4v9.14h55V78.21S909.34,78.45,893.44,78.49Z" class="cls-5"/><path d="M1271.73,78a3.31,3.31,0,0,0,2.54,3.63c2.91.73,4-2.18,5.1-.72s2.18,2.54,4,2.54,4.36-4.73,4.36-4.73l-6.18-2.54Z" class="cls-2"/><path d="M1030.16,124.54s-.73-2.54,2.91-2.18,4.73-1.82,6.55-.36,2.91,1.09,5.09,1.82,4.37-1.82,5.82-1.46,4.73,3.27,5.1,2.18,3.64,0,6.18.37,3.64,3.63,3.64,3.63l-17.1-1.45Z" class="cls-2"/><path d="M1164.13,98.47s5.63,2.17,5.2,5.82-3.51.38-2.74,4.25-2.19,7.64-2.91,5.09c-.84-2.91-2.28-4.47-4.18-2.32s.38,5.82.38,5.82l-5.16,1.48.4-11.59Z" class="cls-2"/><path d="M501.49,27.38,501,45.08,558,46.79l.53-17.71S501.47,28,501.49,27.38Z" class="cls-5"/><path d="M436.59,31.38l.25,17.71,57.08-.8-.25-17.71S436.6,32,436.59,31.38Z" class="cls-5"/><path d="M534.78,55.27l1.37,17.66,56.92-4.42L591.7,50.85S534.83,55.84,534.78,55.27Z" class="cls-5"/><path d="M557.86,78.24,558.11,96l57.08-.8-.25-17.71S557.87,78.81,557.86,78.24Z" class="cls-5"/><path d="M470.22,53.43l.25,17.71,57.08-.8-.25-17.71S470.23,54,470.22,53.43Z" class="cls-6"/><path d="M628.27,26.83l-.53,17.7s32.75.33,32.75-.22c1.1-1.65-3.86-7.16-3.86-7.16l-3.86-.56.88-2L650,29.43s-3.92-2.08-4.22-1.83S628.26,27,628.27,26.83Z" class="cls-5"/><path d="M491.79,76.9l.1,17.71L549,94.28l-.1-17.71S491.79,77.48,491.79,76.9Z" class="cls-5"/><path d="M1317.16,78.56l.49,17.71,57.06-1.58-.49-17.7S1317.18,79.14,1317.16,78.56Z" class="cls-5"/><path d="M1348.58,56.52l.49,17.7,57.06-1.57-.49-17.71S1348.6,57.09,1348.58,56.52Z" class="cls-6"/><path d="M1283,132.58l.48,17.71,57.07-1.58-.49-17.7S1283,133.16,1283,132.58Z" class="cls-5"/><path d="M1358.19,103.19l-.66,17.7,57,2.13.66-17.7S1358.17,103.77,1358.19,103.19Z" class="cls-5"/><path d="M1380,77.46l.49,17.71,57.06-1.58-.49-17.7S1380,78,1380,77.46Z" class="cls-5"/><path d="M1348.58,130.38l.49,17.7,57.06-1.57-.49-17.71S1348.6,131,1348.58,130.38Z" class="cls-5"/><path d="M1324.33,155.18l.49,17.71,57.06-1.58-.49-17.7S1324.34,155.76,1324.33,155.18Z" class="cls-6"/><path d="M1416.38,53.76l.49,17.7,57.06-1.57-.49-17.71S1416.4,54.34,1416.38,53.76Z" class="cls-5"/><path d="M1312.2,31.71l.49,17.71,57.06-1.58-.49-17.7s.66,4.07-4.32,4.25c-5.46.2-11.24,6.92-18.74,7.17-6.55.21-19.19-8.11-24.25-7.72C1314.78,34.39,1312.2,31.87,1312.2,31.71Z" class="cls-5"/><path d="M1377.24,30.06l.49,17.7,57.07-1.57-.49-17.71S1377.26,30.63,1377.24,30.06Z" class="cls-5"/><path d="M1421,103.19l-.66,17.7,35,1.14,22.6-11,.14-5.69S1421,103.77,1421,103.19Z" class="cls-5"/><path d="M1445,75.26l.49,17.7,57.07-1.57-.49-17.71S1445.06,75.83,1445,75.26Z" class="cls-5"/><path d="M404.52,55.44l.25,17.71,57.08-.8-.25-17.71S404.53,56,404.52,55.44Z" class="cls-5"/><path d="M301,35l.25,17.71,57.08-.8-.25-17.71S301,35.61,301,35Z" class="cls-5"/><path d="M336.73,55.44,337,73.15l57.08-.8-.25-17.71S336.74,56,336.73,55.44Z" class="cls-5"/><path d="M428.58,78.76l.24,17.71,57.08-.8L485.66,78S428.58,79.34,428.58,78.76Z" class="cls-5"/><path d="M365.16,79.49l.25,17.71,57.08-.8-.25-17.71S365.17,80.07,365.16,79.49Z" class="cls-5"/><path d="M404.52,103.55l.25,17.71,57.08-.8-.25-17.71S404.53,104.12,404.52,103.55Z" class="cls-5"/><path d="M298.1,81l.25,17.71,57.08-.8-.25-17.71S298.11,81.53,298.1,81Z" class="cls-5"/><path d="M1510.65,73.07l.48,17.71,57.07-1.58-.49-17.71S1510.66,73.65,1510.65,73.07Z" class="cls-5"/><path d="M1482.22,54.12l.49,17.7,57.06-1.57-.49-17.71S1482.23,54.69,1482.22,54.12Z" class="cls-5"/><path d="M1546.36,51.2l.49,17.71,57.06-1.58-.48-17.7S1546.38,51.78,1546.36,51.2Z" class="cls-5"/><path d="M1486.07,102.11l1.81,17.62,56.78-5.82-1.8-17.62S1486.13,102.68,1486.07,102.11Z" class="cls-5"/><path d="M1551.46,96.39l.49,17.71,57.07-1.57-.49-17.71S1551.48,97,1551.46,96.39Z" class="cls-5"/><path d="M1579.89,73.07l.49,17.71,57.06-1.58L1637,71.49S1579.91,73.65,1579.89,73.07Z" class="cls-5"/><path d="M1614.88,49l.49,17.7,57.06-1.57-.49-17.71S1614.9,49.59,1614.88,49Z" class="cls-5"/><path d="M336.52,103.55l.25,17.71,57.08-.8-.25-17.71S336.53,104.12,336.52,103.55Z" class="cls-5"/><path d="M616.71,119.43c.36-4.93,1.43-10.76,4.81-11.93,1.72-.6,3-.45,5.8,1.32,10.61,6.74,19.28-2.5,19.28-2.5a6.18,6.18,0,0,1,6.18,6.17V125.6a6.18,6.18,0,0,0,6.17,6.18l17.17.38H727a58.08,58.08,0,0,1,10.61,2.12c13.69,3.8,20.63,6.44,42.43-2.5,4.24-1.75,21.41,0,21.41,0,3.41,0,14.66-.77,6.17,6.17s0,11,0,11a6.18,6.18,0,0,0,6.18,6.17h55.54a6.18,6.18,0,0,0,6.18-6.17s-6.37-13.68,0-11,2.76-6.17,6.17-6.17c0,0,6.56-6.75,12.92,0s29.9,0,29.9,0a6.17,6.17,0,0,1,6.17,6.17v13.11a6.18,6.18,0,0,0,6.18,6.18h178.6a6.18,6.18,0,0,0,6.17-6.18V138a6.18,6.18,0,0,1,6.18-6.17h44.93c1.44,2.93-14.61.47-15.1,2.38-6.06,23.7-5,25.36,56.23,23.7,11-.3-3.29-23.77,7.72-25.91,5.2-1,34.92-1.87,47.4-1.1,8,.5,5.94,26.63,18.74,28.11,1.08.13,19.85-1.65,32.52-.55,0,0-.63,32.71.55,21H1382c9.37-3.86,11-21.5,11-21.5s34.18-7.72,68.35-34.17c7.22-9.19,50-.44,63-.44,7,0,24.86-3.75,44-4,3.29,0,4,20,11,27s79.38-14.94,81-15c25-1,37.69,12,40,12,21-.32,13-26,19-27s39.85-4.91,44-5c3.87-.1-2,13,4,23s37-6,35,4,5.06,25.09,9,25c3.73-.09,29,7,62-4s9.41-19.35,12-21c25-16,1-20,13-27s30.67-2.17,34-2c3.89.19-3.6-76.19,0-76,4.57.24-14,7-19-1s-2-12-3-21-65.26-7.11-70,0c-10,15,10,31,6,41s-17,10-17,10-25-1-22-21-60-9-68-4,4,34-4,26-52,8-55,2,8-28-6-21c-12-14-159,1-159,1s-28.12-3.14-38.59-15.82-32-23.15-46.85-18.19-17.09,10.47-40.24,5.51-21,5-18.75,6.61-24.25,19.3-28.11,13.79-14.33-2.76-16.53-6.07-5.25-.76-5.25-.76c0-3.42-15.49-6.75-18.9-6.75a51.85,51.85,0,0,0-10.8,2.5c-13.91,4.64-39.26-5.56-44.75-2.5a22.74,22.74,0,0,0-10.41,13.11,14.86,14.86,0,0,1-12,10.81c-6,.93-11.34,1.92-15.59,7.71-2.12,4.82,8.49,11.18,0,13.11-8.48,6.56,0,2.32-12.73,4.44-11.68,2-38.07,6.32-55.16,2.12-6.37-4.53-17.16-.38-17.16-.38-3.42,0-1.94,3.48-6.18,6.17S1113.19,94,1113.19,94c-2.12,8.48-24.17,4.24-27.59,4.24,0,0-38.38-.38-46.67,4.24s-19.1-4.24-25.46,0-12.73-6.36-14.85-10.61c-4.25-2.12.19-13.11-4.25-14.85s-39.34-2.5-46.68-2.12-20.44-4.24-31.82-4.24c-5.43,0-8,3.86-13.39,3.86-3.76,0-11.48-1.62-14,.45l-5.09,2.48c-3.49.64-2.75,1.69-5.74,1.69-.5-.18-2,.65-2.4.94-1.84,1.19.28,3.31-1.84,3.31-.84,0,0,2.12-3.08.76-3.29,1.36-1.17,7.39-1.17,9.66A6.17,6.17,0,0,1,863,100s-29.9,2.5-36.26.38c-1.86-.62-4.31-1.61-6.37-2.12-8.48-2.12-10.61-12.73-10.61-14.85,0-3-10.6-14.85-17-10.61s-17,0-17,0c-8.49,0-23.34-2.12-27.58-6.37s-12.73-12.73-19.1-17c-2.12-4.24-19.93-4.24-23.34-4.24l-25.27,1.52c-2.81-.26-10.29-1-12-3.28-2.35-3-.91-2.49-5.15-6.73s-2.12-4.24-4.25-6.36c-3-3-12.73-6.37-14.85-8.49s-15.86-1-21.08-2.62l-14.13-1.44a.19.19,0,0,1,0,.08h-16.4s-31.42,10.48-31.42,6.07-26.46-3.86-26.46-3.86-30.32-3.86-38.58,0-22.05,10.47-48.51,3.86-18.29,23-18.29,23a257.85,257.85,0,0,1-59.77.73c-15.22-1.6,4.71-10-11.23-15.44-20.14-6.9-79-7-64,17,0,2.15-15.67,5.28-28,0-7-3-28.79,1.59-28,1,8-6-4-22-10-23-41.2-6.87-73,0-80,1a352.58,352.58,0,0,1-39,3s-15.56,13.54-9,15-33,3-50,5c-20-7-41-9-45,9-1.78,8-5.55,26.3,3,28,9.61,1.91-12,0,8,19,2.72,1.13,23.11,20.25,46,5,12-8,78.52-10.18,82-10,4.76.23,2.14,23-3,23-22,0-47,13-20,27,10.94.42,53.84-.41,64,0,5.25.2,11-20.2,16-20,42.44,1.7,30,21.2,32,22,10.94,4.37,132-10,132-10s48-28,99.72-15.66l6.27-30.81s3.61,7,20.7,5.3,21.19-3.65,21.19-3.65S540.23,106,549,102.35c12.84-5.35,32.69.94,32.69.94l33.63,16Z" class="cls-2"/><polyline points="868.93 85.52 872.72 76.92 879.18 78.34 874.09 88.16 869.73 86.71 868.93 85.52" class="cls-1"/><polyline points="873.11 83.53 876.73 75.09 878.46 74.34 874.45 84.89 872.63 85.25" class="cls-4"/><path d="M874.57,80.87l3.58-8.37a2.42,2.42,0,0,1,1.26-1.12,11.53,11.53,0,0,1,1.45-.59,7.26,7.26,0,0,1,1.33,0l-3,9.77-1.82-1.09-2.79,1.44" class="cls-3"/><path d="M874.09,75.79l-4,8.73-1.51,2.33,4-9.62a1,1,0,0,1,.7-1.07C874.09,75.79,873.73,75.79,874.09,75.79Z" class="cls-3"/><path d="M934.87,79.72l.7,19.87,54.94-2-.7-19.86S934.89,80.37,934.87,79.72Z" class="cls-5"/><path d="M780.29,106.05l-.52,17.71,50.46,1.47.51-17.7S780.27,106.63,780.29,106.05Z" class="cls-5"/><path d="M837.88,106.9v17.71h50.48V106.9S837.88,107.48,837.88,106.9Z" class="cls-5"/><path d="M752,78.79l-1,17.68,50.39,2.89,1-17.68S752,79.36,752,78.79Z" class="cls-5"/><path d="M995.73,131.16l.95,17.68,51.36-2.75-1-17.69S995.76,131.73,995.73,131.16Z" class="cls-5"/><path d="M1056.23,132.06v17.71h51.44V132.06S1056.23,132.63,1056.23,132.06Z" class="cls-5"/><path d="M1023.17,105.82l-.22,17.71,8.58-1,4.37-.31-.76,2.9,42.56-2.16.2-16.42S1023.17,106.39,1023.17,105.82Z" class="cls-5"/><path d="M1252.61,78.84V96.56h57.08V78.84S1252.61,79.42,1252.61,78.84Z" class="cls-5"/><path d="M1283,58.17l.48,17.7,57.07-1.57-.49-17.71S1283,58.75,1283,58.17Z" class="cls-5"/><path d="M1245.1,30.92l0,17.71,57.08.18.06-17.72S1245.1,31.5,1245.1,30.92Z" class="cls-6"/><path d="M1226.24,105.94v17.72h57.08V105.94S1226.24,106.52,1226.24,105.94Z" class="cls-6"/><path d="M1217.76,58.79V76.5h57.09V58.79S1217.76,59.37,1217.76,58.79Z" class="cls-5"/><path d="M1188.56,78.84V96.56h57.09V78.84S1188.56,79.42,1188.56,78.84Z" class="cls-5"/><path d="M1291.7,103.7v17.71h57.08V103.7S1291.7,104.27,1291.7,103.7Z" class="cls-5"/><path d="M815.18,131.53v17.71h50.48V131.53S815.18,132.1,815.18,131.53Z" class="cls-5"/><path d="M895.65,104.89l-.88,17.69,51.37,2.55.88-17.69S895.62,105.47,895.65,104.89Z" class="cls-6"/><path d="M939,132.06v17.71h51.44V132.06S939,132.63,939,132.06Z" class="cls-5"/><path d="M953.57,106.16v17.71h58V106.16S953.57,106.73,953.57,106.16Z" class="cls-5"/><path d="M1089.3,105.69V123.4h60.75V105.69S1089.3,106.26,1089.3,105.69Z" class="cls-5"/><path d="M1123,79.82l.32,17.71,57.07-1L1180,78.81S1123,80.4,1123,79.82Z" class="cls-5"/><path d="M712.3,107.31V125h57.08V107.31l-26.82.42v2.12s-3.8,2.32-6.37,2.12c-.65,0,.76-2.55,0-2.61C727.32,108.67,712.3,107.48,712.3,107.31Z" class="cls-5"/><path d="M622.45,77.38,622,95.09l57.06,1.44.45-17.71S622.44,78,622.45,77.38Z" class="cls-6"/><path d="M668.48,52V69.7h57.08V52S668.48,52.56,668.48,52Z" class="cls-5"/><path d="M643.52,107.92v17.71h57.09V107.92S643.52,108.5,643.52,107.92Z" class="cls-5"/><path d="M601.41,51.78l.25,17.71,57.08-.8L658.49,51S601.42,52.36,601.41,51.78Z" class="cls-5"/><path d="M688.39,79.89l.35,17.71,57.08-1.15-.36-17.7S688.4,80.46,688.39,79.89Z" class="cls-5"/><path d="M564.19,28.2V45.92l29.63.27,6.24-5.26-4.25,4.25,25.46.74V34.57l-6.36-2.12s3-4.21-2.12-4.17C596.88,28.42,564.19,28.64,564.19,28.2Z" class="cls-5"/><path d="M1160.31,104.3V122h57.08V104.3S1160.31,104.88,1160.31,104.3Z" class="cls-5"/><path d="M1160,135.14v17.71h51.68V135.14S1160,135.71,1160,135.14Z" class="cls-5"/><path d="M893.44,78.49c-1.54.77-4,.26-5.31,1.52a4.27,4.27,0,0,1-.73.68,2.23,2.23,0,0,1-.77.24l-6.81,1.3a11.94,11.94,0,0,1-1.21,1.92c-.21.26-.49.54-.82.47s-.4-.28-.63-.3-.54.33-.67.63q-.9,2.05-2,4v9.14h55V78.21S909.34,78.45,893.44,78.49Z" class="cls-5"/><path d="M1271.73,78a3.31,3.31,0,0,0,2.54,3.63c2.91.73,4-2.18,5.1-.72s2.18,2.54,4,2.54,4.36-4.73,4.36-4.73l-6.18-2.54Z" class="cls-2"/><path d="M1030.16,124.54s-.73-2.54,2.91-2.18,4.73-1.82,6.55-.36,2.91,1.09,5.09,1.82,4.37-1.82,5.82-1.46,4.73,3.27,5.1,2.18,3.64,0,6.18.37,3.64,3.63,3.64,3.63l-17.1-1.45Z" class="cls-2"/><path d="M1164.13,98.47s5.63,2.17,5.2,5.82-3.51.38-2.74,4.25-2.19,7.64-2.91,5.09c-.84-2.91-2.28-4.47-4.18-2.32s.38,5.82.38,5.82l-5.16,1.48.4-11.59Z" class="cls-2"/><path d="M501.49,27.38,501,45.08,558,46.79l.53-17.71S501.47,28,501.49,27.38Z" class="cls-5"/><path d="M436.59,31.38l.25,17.71,57.08-.8-.25-17.71S436.6,32,436.59,31.38Z" class="cls-5"/><path d="M534.78,55.27l1.37,17.66,56.92-4.42L591.7,50.85S534.83,55.84,534.78,55.27Z" class="cls-5"/><path d="M557.86,78.24,558.11,96l57.08-.8-.25-17.71S557.87,78.81,557.86,78.24Z" class="cls-5"/><path d="M470.22,53.43l.25,17.71,57.08-.8-.25-17.71S470.23,54,470.22,53.43Z" class="cls-6"/><path d="M628.27,26.83l-.53,17.7s32.75.33,32.75-.22c1.1-1.65-3.86-7.16-3.86-7.16l-3.86-.56.88-2L650,29.43s-3.92-2.08-4.22-1.83S628.26,27,628.27,26.83Z" class="cls-5"/><path d="M491.79,76.9l.1,17.71L549,94.28l-.1-17.71S491.79,77.48,491.79,76.9Z" class="cls-5"/><path d="M1317.16,78.56l.49,17.71,57.06-1.58-.49-17.7S1317.18,79.14,1317.16,78.56Z" class="cls-5"/><path d="M1348.58,56.52l.49,17.7,57.06-1.57-.49-17.71S1348.6,57.09,1348.58,56.52Z" class="cls-6"/><path d="M1283,132.58l.48,17.71,57.07-1.58-.49-17.7S1283,133.16,1283,132.58Z" class="cls-5"/><path d="M1358.19,103.19l-.66,17.7,57,2.13.66-17.7S1358.17,103.77,1358.19,103.19Z" class="cls-5"/><path d="M1380,77.46l.49,17.71,57.06-1.58-.49-17.7S1380,78,1380,77.46Z" class="cls-5"/><path d="M1348.58,130.38l.49,17.7,57.06-1.57-.49-17.71S1348.6,131,1348.58,130.38Z" class="cls-5"/><path d="M1324.33,155.18l.49,17.71,57.06-1.58-.49-17.7S1324.34,155.76,1324.33,155.18Z" class="cls-6"/><path d="M1416.38,53.76l.49,17.7,57.06-1.57-.49-17.71S1416.4,54.34,1416.38,53.76Z" class="cls-5"/><path d="M1312.2,31.71l.49,17.71,57.06-1.58-.49-17.7s.66,4.07-4.32,4.25c-5.46.2-11.24,6.92-18.74,7.17-6.55.21-19.19-8.11-24.25-7.72C1314.78,34.39,1312.2,31.87,1312.2,31.71Z" class="cls-5"/><path d="M1377.24,30.06l.49,17.7,57.07-1.57-.49-17.71S1377.26,30.63,1377.24,30.06Z" class="cls-5"/><path d="M1421,103.19l-.66,17.7,35,1.14,22.6-11,.14-5.69S1421,103.77,1421,103.19Z" class="cls-5"/><path d="M1445,75.26l.49,17.7,57.07-1.57-.49-17.71S1445.06,75.83,1445,75.26Z" class="cls-5"/><path d="M404.52,55.44l.25,17.71,57.08-.8-.25-17.71S404.53,56,404.52,55.44Z" class="cls-5"/><path d="M301,35l.25,17.71,57.08-.8-.25-17.71S301,35.61,301,35Z" class="cls-5"/><path d="M336.73,55.44,337,73.15l57.08-.8-.25-17.71S336.74,56,336.73,55.44Z" class="cls-5"/><path d="M428.58,78.76l.24,17.71,57.08-.8L485.66,78S428.58,79.34,428.58,78.76Z" class="cls-5"/><path d="M365.16,79.49l.25,17.71,57.08-.8-.25-17.71S365.17,80.07,365.16,79.49Z" class="cls-5"/><path d="M404.52,103.55l.25,17.71,57.08-.8-.25-17.71S404.53,104.12,404.52,103.55Z" class="cls-5"/><path d="M298.1,81l.25,17.71,57.08-.8-.25-17.71S298.11,81.53,298.1,81Z" class="cls-5"/><path d="M1510.65,73.07l.48,17.71,57.07-1.58-.49-17.71S1510.66,73.65,1510.65,73.07Z" class="cls-5"/><path d="M1482.22,54.12l.49,17.7,57.06-1.57-.49-17.71S1482.23,54.69,1482.22,54.12Z" class="cls-5"/><path d="M1546.36,51.2l.49,17.71,57.06-1.58-.48-17.7S1546.38,51.78,1546.36,51.2Z" class="cls-5"/><path d="M1486.07,102.11l1.81,17.62,56.78-5.82-1.8-17.62S1486.13,102.68,1486.07,102.11Z" class="cls-5"/><path d="M1551.46,96.39l.49,17.71,57.07-1.57-.49-17.71S1551.48,97,1551.46,96.39Z" class="cls-5"/><path d="M1579.89,73.07l.49,17.71,57.06-1.58L1637,71.49S1579.91,73.65,1579.89,73.07Z" class="cls-5"/><polyline points="1614.88 49.02 1615.37 66.72 1672.43 65.15 1671.94 47.44" class="cls-5"/><path d="M336.52,103.55l.25,17.71,57.08-.8-.25-17.71S336.53,104.12,336.52,103.55Z" class="cls-5"/><path d="M300.52,129.55l.25,17.71,57.08-.8-.25-17.71S300.53,130.12,300.52,129.55Z" class="cls-5"/><path d="M234.12,80.75l-.88,17.69,57,2.81.87-17.69S234.09,81.32,234.12,80.75Z" class="cls-5"/><path d="M271.93,56.27,271.38,74l57.06,1.77L329,58S271.91,56.84,271.93,56.27Z" class="cls-5"/><path d="M208.93,56.27,208.38,74l57.06,1.77L266,58S208.91,56.84,208.93,56.27Z" class="cls-5"/><path d="M175.93,32.27,175.38,50l57.06,1.77L233,34S175.91,32.84,175.93,32.27Z" class="cls-5"/><path d="M112.42,34.91l.47,17.7L170,51.1l-.47-17.71S112.43,35.48,112.42,34.91Z" class="cls-5"/><path d="M144.42,57.91l.47,17.7L202,74.1l-.47-17.71S144.43,58.48,144.42,57.91Z" class="cls-5"/><path d="M208.42,107.91l.47,17.7L266,124.1l-.47-17.71S208.43,108.48,208.42,107.91Z" class="cls-5"/><path d="M109.42,80.91l.47,17.7L167,97.1l-.47-17.71S109.43,81.48,109.42,80.91Z" class="cls-5"/><path d="M46.5,82.61l.29,17.71,57.08-.93-.29-17.71S46.51,83.19,46.5,82.61Z" class="cls-5"/><path d="M75.5,58.61l.29,17.71,57.08-.93-.29-17.71S75.51,59.19,75.5,58.61Z" class="cls-5"/><path d="M237.5,131.61l.29,17.71,57.08-.93-.29-17.71S237.51,132.19,237.5,131.61Z" class="cls-5"/><path d="M125,128.18l-.6,17.7,57.05,1.94.6-17.7S124.94,128.76,125,128.18Z" class="cls-5"/><path d="M9.5,58.61l.29,17.71,57.08-.93-.29-17.71S9.51,59.19,9.5,58.61Z" class="cls-5"/><path d="M171.5,79.61l.29,17.71,57.08-.93-.29-17.71S171.51,80.19,171.5,79.61Z" class="cls-5"/><path d="M149,103.18l-.6,17.7,57,1.94.6-17.7S148.94,103.76,149,103.18Z" class="cls-5"/><path d="M1648.89,70.07l.49,17.71,57.06-1.58L1706,68.49S1648.91,70.65,1648.89,70.07Z" class="cls-5"/><path d="M1580.46,121.39l.46,16.64,57.07-1.57-.46-16.64S1580.48,121.94,1580.46,121.39Z" class="cls-5"/><path d="M1713.46,70.39l.46,16.64L1771,85.46l-.46-16.64S1713.48,70.94,1713.46,70.39Z" class="cls-5"/><path d="M1677.46,92.39l.46,16.64,57.07-1.57-.46-16.64S1677.48,92.94,1677.46,92.39Z" class="cls-5"/><path d="M1648.46,117.39l.46,16.64,57.07-1.57-.46-16.64S1648.48,117.94,1648.46,117.39Z" class="cls-5"/><path d="M1742.46,90.39l.46,16.64,57.07-1.57-.46-16.64S1742.48,90.94,1742.46,90.39Z" class="cls-5"/><path d="M1772.21,111l-1,16.62,57,3.29,1-16.62S1772.18,111.51,1772.21,111Z" class="cls-5"/><path d="M1742.46,45.39l.46,16.64L1800,60.46l-.46-16.64S1742.48,45.94,1742.46,45.39Z" class="cls-5"/><path d="M1811.46,87.39l.46,16.64,57.07-1.57-.46-16.64S1811.48,87.94,1811.46,87.39Z" class="cls-5"/><path d="M1815.46,136.39l.46,16.64,57.07-1.57-.46-16.64S1815.48,136.94,1815.46,136.39Z" class="cls-5"/><path d="M1782.46,68.39l.46,16.64L1840,83.46l-.46-16.64S1782.48,68.94,1782.46,68.39Z" class="cls-5"/><path d="M1848.46,64.39l.46,16.64L1906,79.46l-.46-16.64S1848.48,64.94,1848.46,64.39Z" class="cls-5"/><path d="M1834.46,113.39l.46,16.64,57.07-1.57-.46-16.64S1834.48,113.94,1834.46,113.39Z" class="cls-5"/><path d="M1877.46,87.39l.46,16.64,57.07-1.57-.46-16.64S1877.48,87.94,1877.46,87.39Z" class="cls-5"/><path d="M1881.46,41.39l.46,16.64L1939,56.46l-.46-16.64S1881.48,41.94,1881.46,41.39Z" class="cls-5"/><path d="M1848.46,16.39l.46,16.64L1906,31.46l-.46-16.64S1848.48,16.94,1848.46,16.39Z" class="cls-5"/><path d="M1675.43,36.25l-1,8s5.29-2.65,7.15,1.17c2.85-7.17-1.07-10.42-2.11-10.3A36.59,36.59,0,0,0,1675.43,36.25Z" class="cls-3"/><path d="M1531.47,38.12s-18,7.13-16,7.13,26.86-2.54,30.93-2.77,8.12-6,8.12-6Z" class="cls-3"/></g></g></g></svg>