<svg id="Capa_1" data-name="Capa 1" xmlns="http://www.w3.org/2000/svg" xmlns:xlink="http://www.w3.org/1999/xlink" viewBox="0 0 594.46 283.41"><defs><style>.cls-1{fill:#9f1e83;}.cls-2{fill:#3e2b83;}.cls-3{fill:#412b83;}.cls-4{fill:#792383;}.cls-5{fill:url(#Degradado_sin_nombre);}</style><radialGradient id="Degradado_sin_nombre" cx="297.24" cy="141.71" r="232.84" gradientUnits="userSpaceOnUse"><stop offset="0" stop-color="#2d3180"/><stop offset="1" stop-color="#922280"/></radialGradient></defs><title>hackupc_alt</title><path class="cls-1" d="M94.89,70.12c-10.89,15.41,36.9,48.74,36.9,48.74s3.46-18.86-6.22-36.65C123.76,78.87,105.78,54.71,94.89,70.12Z" transform="translate(-0.01 0)"/><path class="cls-2" d="M321.83,118.52c-10.62-7.6-8,18.77-8,18.77S332.46,126.12,321.83,118.52Z" transform="translate(-0.01 0)"/><path class="cls-3" d="M244.21,156.37S230.1,166.3,232.1,173.3s13.9,3,12.71-3.43A61.59,61.59,0,0,1,244.21,156.37Z" transform="translate(-0.01 0)"/><path class="cls-4" d="M424.32,118.16C414.4,115.27,415,136,415,136s4.45,1,11.16-3.72h0C432.87,127.56,434.24,121.05,424.32,118.16Z" transform="translate(-0.01 0)"/><path class="cls-2" d="M345.73,147.39a87.11,87.11,0,0,1-10.39-30.46c0,.71-.07,1.44-.15,2.22a49,49,0,0,1-18.3,33.55s8.53-5.4,17.56-5.3,12.95,6.68,18.89,14.21c8.06,10.21,15.92,14.84,22.74,15.53a18,18,0,0,0,5.79-.45C373.14,177.47,360,172.26,345.73,147.39Z" transform="translate(-0.01 0)"/><path class="cls-5" d="M586.29,103.09c-5.19-4.08,5.25-29.42,5.48-57S576.9,24.2,576.9,24.2s-9.57.43-4.12,10.21-47.91,27.2-47.91,27.2-29,12.83-37,13.75S493,65.54,487,55.92,466.28,75.8,457.8,76.7s-16.13-1.85-21.38,3.9-16.22-15.31-14.1-23.93-10.06-12.08-23.62-1.45-24.24-3.93-24.82-7.17-4.32-16.6-5.1-34.29S350.32,26.81,352.7,35.22s-25.44,2.64-38.29,3.21,7,14.23,11.29,32.08S304.83,86,299.9,87.7s-12.25-27.53-.54-23.4,2.06-21.77-1.15-25.64S281.7,27.86,270.45,9.32s-29.58-3.69-29.58-3.69-10.44,30.05-26.44,30.92S223.87,58,227,62.89s4.61,11.33-2.83,24.25,21.69,3,32.74,3.48,19,32.24,11.55,34.13S260.45,113,252,113.45s-13.74,17.61-19.61,19.84-2.86-6.85,5.85-15.69-12.1-11.07-17.54-9.32-16.29-5.74-13.84-17.92-22.85,16.06-38,24.82-4.93-9.38,4.36-25.77,5.54-21.87-7.33-18.28-21.33-39.64-22.17-47.31-19.3,5.55-26.12,9.87-8.86-7.63-16.5-10.29S90.13,25.9,83.88,40.21,42.71,52.58,42.71,52.58a20.64,20.64,0,0,0-17,11.08c-6,11,31.13,23.38,39.76,26s2,23.47-2.07,32.22-26.71-14.4-50.53-20.35S4.65,143,10.17,143.21s10.41,31.15,5.66,59.43S43,204.47,61.2,197.28s2,10.76,1.21,15.81,15-.65,21.84-4.87S97,224.58,79.48,235.89s32.9,7,54.63,11.09,28.84-16.33,30.73-18.92,22.23,4-1.52,22.13,38.46,8.33,42.68-9.43,38.21-29.81,46.19-30.89,26.08,12.09,32.89,6.77-3.94-10.82,15-12.7,13.68,14.92,32,21.12,12.73-18.12,10.76-28.44,43.51-2.05,52.42,6.86-13.86,3.84-36.51,1.63,17,32.53,23.56,32.24,27,22.35,24.45,32.49,18.66,13.71,44.21,13.57.44-11.56-5.29-17.34,16.24-41.29,22-47.06-20.92-19.62-30.85-17.39,1.4-13.38-4.06-28.13,13.84.34,27.18,17.9,14.78-5.28,12.08-9.67,20.71-7.44,46.05,7.08,24-33.25,23.64-40.21,4.95-12.31,20-.9,1.61-21.17-1.21-27.13,21.72,3.61,30.18,2.28S591.48,107.17,586.29,103.09ZM576.71,99c-9.16,16.54-17.55,20.3-22.27,10.4s-5.69-7.71-5.69-7.71-10.49,21.41-20,44.22c-9.45,22.58-53.79,9.58-48.59,22.51,6,14.86-26.83-6-28.64-16.65A50.6,50.6,0,0,1,451,144c-.95,2.15-2,4.22-3,6.17-4,7.41-23.49,14.42-33.75,6.21S424.92,200,424.92,200s7.55,17.8,7.47,18.66,15.81-4.63,19.7-1.47c8.91,7.27-11.46,12.5-11.75,25.38-.19,8.52-7.87,31.46-14.94,25.46s-29.59-32.45-32.83-36-11.9-13.36-5.08-13.1,22.82,9.47,22.82,9.47l-10.05-72.71c-1.14-8.25-1.61-25.18-2.95-37.88a28.94,28.94,0,0,0-.26,4.29c.22,11.34,2.53,24.84,1.07,30.15s-2.09,12.37-5.85,19.14a3.61,3.61,0,0,1-.36.54,11.18,11.18,0,0,0,2.17-2.3c2.58-3.88-4.4,8.83-4.4,8.83s-7.93,17.47-31.6,9.5-21.19-23.76-25.84-22.91c-7.7,1.39-8.71,1.65-10.7,7.5s6.29,17.26,6.29,17.26,3.5,32.53-3.23,11.93c-1.55-4.76-36.92-3-16.67-8.53,5.33-1.46,7.08-15.6,2.23-28.68-1.6-4.31-4.93-11.66-8.68-19.57a5.64,5.64,0,0,1-1.76,4c-3.08,3.37-11.19,1.42-14.1,3.56s-7,6.63-4,13,10.44,10,15.18,5.33,5.52-7.65,5.42-13.34l-.06-5.73s7.78,12.13,6.16,20.53c-1.19,6.18-5.79,11.76-12.27,14.7-1.15,2.4-4.9,6.49-17.05,9.17-18.08,4-21.89-10.34-21.89-10.34s-1.65,16.54-19.36,15.35c-1.07-.07-2.08-.17-3-.29l.24,0c4,0-22.64,21.1-30.18,5.54-.59-1.21-9.21,10.88-16.33,5.16-9.51-7.64-13.8-33-8.94-41.22,8.21-14,10.17-11.11,12.86-18.14,3.1-8.1-10-6.32-13.25-.46s-5,16.3-4,24.07,8.63,34.34,4.17,38.78c-5.3,5.27-33.49,7.26-27.72,3.53,6.92-4.46,7.52-22.6,6.46-29.24-1.21-7.65-8.84-17.36-10-20.76a13.33,13.33,0,0,1-.16-4.57c-6.51,29.17-15,50.43-12,50.43,11.89,0-3.3,13.88-18.46,4.09S65.47,182.21,58,176c0,0-7.62,20.1-19.74,11.21C18,172.3,32.68,122.74,38,124.5s27.86,15.79,37.11,18,19.66,1.42,15.66,6.5-14,7.22-12,8.9,36.1,34.73,38.94,35.43c10.39,2.53,11.79-47.65,10.89-48.85-5.9-7.88-23.83-12.14-43.71-25.31s1.05-48.92-21.64-52.35C50.9,65,93.29,51.15,107.39,44.93c26.35-11.62,43.79-1.63,47,54.48a205.15,205.15,0,0,1-2,40l6.68,8.66s-3.35-21.59,17.88-29.69,46.77-4.3,41.16,1c-8.48,8,9.43,17.22,8.78,26.57s-12.08,37.62-8.39,45.3a11.51,11.51,0,0,0,2,2.83,13,13,0,0,1-2.14-7.9c.1-6.3,8.46-37.41,18-45.25,10-8.23,27.87-20.66,20-8.86s7.33-.18,7.08,7.19c-.38,10.57-4.41,19.1-.38,34,2.51,9.28,6.69,12.87,11.36,14.27-5.68-2.65-10.08-8.78-10.15-22-.13-23.57,11.38-28.22,15.93-29.75,4.22-1.42,14.47-1.29,18.05,2.08-6.73-14-13.55-27.39-13.55-27.39S270,80.33,265.9,71.75,256,64.37,253,67.53,246,80.44,239.22,70c-6.86-10.72-1-20.33,9.14-47.8,2.3-6.21,19.87,18.1,39.47,18.79,4.48.16,9.76,5.34-.58,9.56s-10.68,6.35-10.68,6.35,7.67,8.07,16.84,37.74,10.38,28,10.38,28,11.87-36.69,13.72-23.26c.61,4.47,13.57,0,17,10.45a123.12,123.12,0,0,1,7.25-50.66s-21.68-10.32,17.84-7c9.63.8,7.78,24.47,3.31,36.15s-12.73,26-5.68,44.13,10.12,23.43,17.35,20.28,9.67-15.08,11.71-29.73c1.86-13.33-5.56-36,1.39-45.15s15.3-10.46,18.95-7.4c23.29,19.56,8.59,8.12,3.28,16.29-1.21,1.86-2.54,4.13-3.88,6.65,12.5-2.93,29.74-3,32.75,4.82,3.21,8.36,12.39,10.39,16.57,14.28a53.07,53.07,0,0,1,6.83-14.91c10.31-14.64,29.66-6.67,30-5.89S487.78,106,498,113.39c7.05,5.08-16.16,3.7-17.16-.75s-2.93-11.85-8.31-6.52-8.8,21.83-7,28.13c1.55,5.52,6.22,13.36,19.24,11.44s50.88-56.31,50.88-56.31-32.6,6.81-22.07-3,55.12-29.5,58.43-27S585.87,82.41,576.71,99Z" transform="translate(-0.01 0)"/></svg>