<svg xmlns="http://www.w3.org/2000/svg" xmlns:xlink="http://www.w3.org/1999/xlink" viewBox="0 0 604.13 232.42"><defs><style>.cls-1,.cls-2{stroke:#11aeb1;stroke-width:6px;fill:url(#Безымянный_градиент_19);stroke-miterlimit:10}.cls-2{fill:#212437;stroke:#a3c796;stroke-width:4px}.cls-3{fill:#0f0}</style><radialGradient id="Безымянный_градиент_19" cx="306.41" cy="110.96" r="370.46" gradientTransform="translate(1.05 56.13) rotate(5.3) scale(1 0.23)" gradientUnits="userSpaceOnUse"><stop offset="0" stop-color="#a345b1"/><stop offset=".15" stop-color="#9450b1"/><stop offset=".44" stop-color="#6c6db1"/><stop offset=".84" stop-color="#2c9bb1"/><stop offset="1" stop-color="#11aeb1"/></radialGradient></defs><title>system</title><g id="Capa_2" data-name="Capa 2"><g id="grafitis"><polygon points="36.85 21.48 79.59 44.27 81.32 25.6 110.9 41.8 141.25 24.26 145.4 10.47 150.22 26.72 168.75 43.86 194.44 15.02 230.02 15.74 218.31 24.71 256.95 35.23 255.39 54.42 279.11 34.6 297.21 10.39 303.34 25.11 308.49 39.51 369.02 51.01 378.96 31.48 400.65 50.29 418.27 56.84 446.21 59.42 470.71 55.14 471.9 69.73 500.89 72.42 535.04 58.32 535.71 74.07 542.41 76.26 578.05 94.91 597.35 96.69 581.66 111.87 591.54 123.1 582.78 137.01 576.44 137.15 575.1 176.43 589.59 180.48 590.89 204.26 577.95 195.34 548.73 200.35 546.28 226.78 532.31 216.2 520.86 211.28 511.63 191.12 492.11 197.03 489.83 221.54 471.9 204.17 449.59 193.74 443.13 208.58 431.11 216.1 416.41 219.61 422.41 198.29 403.14 195.22 395.77 200.33 374.56 201.58 376.22 183.72 354.53 179.78 352.81 198.28 341.35 199.14 312.54 173.95 303.51 178.26 290.81 191.24 252.81 179.35 228.25 165.5 220.44 187.94 197.38 185.8 182.29 170.89 159.6 170.07 126.55 176.66 108.32 186.18 117.55 155.88 100.68 154.31 84.67 163.13 48.55 180.64 27.8 168.79 52.61 167.88 52.24 159.48 34.57 153.98 6.95 120.78 16.64 121.67 33.47 101.4 40.23 92.94 22.43 84.01 19.32 55.51 27.87 56.3 38.23 43.86 36.85 21.48" class="cls-1"/><path d="M60.82,83.55l.62-6.72a6.75,6.75,0,0,1,7.34-6.1l22.41,2.08a6.74,6.74,0,0,1,6.09,7.34h0a6.76,6.76,0,0,0,6.1,7.35l17.93,1.66a6.75,6.75,0,0,0,7.34-6.1l1.66-17.92a6.75,6.75,0,0,0-6.1-7.35L52.52,51.15a6.74,6.74,0,0,0-7.34,6.1L41.85,93.09a6.77,6.77,0,0,0,6.1,7.35l53.77,5a6.76,6.76,0,0,1,6.1,7.35l-.21,2.24-.62,6.72a6.76,6.76,0,0,1-7.35,6.1l-22.4-2.08a6.76,6.76,0,0,1-6.1-7.35h0a6.74,6.74,0,0,0-6.1-7.34L47.12,109.4a6.74,6.74,0,0,0-7.34,6.1l-1.25,13.44a6.75,6.75,0,0,0,6.1,7.34l71.69,6.65a6.77,6.77,0,0,0,7.35-6.1l2.9-31.36a6.75,6.75,0,0,0-6.09-7.35l-53.77-5a6.75,6.75,0,0,1-6.1-7.35Z" class="cls-2"/><line x1="109.51" x2="107.89" y1="56.43" y2="74" class="cls-2"/><line x1="120.1" x2="118.55" y1="58.19" y2="74.99" class="cls-2"/><circle cx="107.7" cy="75.72" r="2.84" class="cls-2"/><circle cx="118.19" cy="76.38" r="2.84" class="cls-2"/><path d="M198.66,67,197,84.89a2.23,2.23,0,0,1-2.44,2l-40.34-3.74a2.24,2.24,0,0,1-2-2.44l1.25-13.48a6.73,6.73,0,0,0-6.08-7.31l-9-.83a6.75,6.75,0,0,0-7.35,6.1l-1.45,15.68-.21,2.23a6.75,6.75,0,0,0,6.1,7.35l29.82,2.77c2.86.26,2.64,4.58-.23,4.47l-.88-.06c-6-.55-9-.83-9.8,8.13l-2.91,31.38a9,9,0,0,0,8.13,9.78l13.46,1.25a9,9,0,0,0,9.78-8.13l1.28-13.79a9,9,0,0,0-7-9.42,6.75,6.75,0,0,1-5.05-7.16l.16-1.69a2.08,2.08,0,0,1,.35-1c3.15-4.53,9.5-3.15,22.52-1.94,13.44,1.25,18.33-2.82,18.75-7.3l.83-9,1.87-20.17a2.24,2.24,0,0,0-2-2.44L201.1,64.92A2.24,2.24,0,0,0,198.66,67Z" class="cls-2"/><line x1="184.78" x2="169.1" y1="129.97" y2="128.52" class="cls-2"/><line x1="183.84" x2="168.15" y1="140.16" y2="138.7" class="cls-2"/><circle cx="167.09" cy="128.43" r="2.84" class="cls-2"/><circle cx="166.17" cy="138.38" r="2.84" class="cls-2"/><path d="M233.3,99.54l.62-6.72a6.75,6.75,0,0,1,7.34-6.1l22.41,2.08a6.75,6.75,0,0,1,6.1,7.34h0a6.75,6.75,0,0,0,6.09,7.35l17.93,1.66a6.75,6.75,0,0,0,7.34-6.1l1.66-17.92a6.75,6.75,0,0,0-6.1-7.35L225,67.14a6.74,6.74,0,0,0-7.34,6.1l-3.33,35.84a6.77,6.77,0,0,0,6.1,7.35l53.77,5a6.75,6.75,0,0,1,6.1,7.34l-.21,2.24-.62,6.73a6.74,6.74,0,0,1-7.34,6.09l-22.41-2.07a6.77,6.77,0,0,1-6.1-7.35h0a6.74,6.74,0,0,0-6.09-7.34l-17.93-1.66a6.74,6.74,0,0,0-7.34,6.1L211,144.93a6.75,6.75,0,0,0,6.1,7.34l71.69,6.65a6.77,6.77,0,0,0,7.35-6.1l2.9-31.37a6.74,6.74,0,0,0-6.09-7.34l-53.77-5a6.75,6.75,0,0,1-6.1-7.35Z" class="cls-2"/><line x1="280.47" x2="281.82" y1="103.91" y2="89.4" class="cls-2"/><line x1="291.59" x2="292.93" y1="104.94" y2="90.43" class="cls-2"/><circle cx="281.36" cy="87.48" r="2.84" class="cls-2"/><circle cx="293.28" cy="88.91" r="2.84" class="cls-2"/><path d="M382.33,81.72l-33.61-3.11L311,75.1c-3.89-.36-7.3,2.16-7.62,5.63l-1.55,16.75c-.32,3.47,2.57,6.57,6.45,6.93L327,106.15c3.88.36,7.29-2.16,7.61-5.63s3.73-6,7.62-5.63l4.95.46,1.7.16A2.26,2.26,0,0,1,351,97.89l-.68,7.31-.17,1.87-.22,2.07c-.65,6.2-3.64,5.89-9.6,5.27l.08,0c-5.31-.48-8.15-.54-9.1,6.2h0l-.13,1.4-.26,2.79L328,155.92a6.68,6.68,0,0,0,6.11,7.2L352,164.78a6.68,6.68,0,0,0,7.33-5.95L361,141.3a6.67,6.67,0,0,0-6.12-7.19,6.69,6.69,0,0,1-6.11-7.2l0-.44.24-2.25c.65-6.21,3.63-5.9,9.6-5.28l-.07,0c5.88.61,8.83.87,9.48-5.29l.21-2.06.43-4.67.67-7.18A2.38,2.38,0,0,1,372,97.66l8.76.81a6.54,6.54,0,0,0,7.3-5.65l.39-4.2A6.54,6.54,0,0,0,382.33,81.72Z" class="cls-2"/><line x1="330.29" x2="347.35" y1="142.06" y2="143.64" class="cls-2"/><line x1="329.21" x2="346.27" y1="153.65" y2="155.23" class="cls-2"/><circle cx="346.95" cy="143.61" r="2.84" class="cls-2"/><circle cx="346.27" cy="155.23" r="2.84" class="cls-2"/><path d="M413.13,96.88l22,2a6.39,6.39,0,0,1,6,6.71,6.4,6.4,0,0,0,6,6.71L464.82,114a6.39,6.39,0,0,0,7.17-5.48l1.13-12.2a6.39,6.39,0,0,0-6-6.71l-70.43-6.53a6.39,6.39,0,0,0-7.17,5.48L388,104.05l-4.17,45-.06.65-1.4,15.18a6.45,6.45,0,0,0,6,6.84l70.44,6.53a6.46,6.46,0,0,0,7.18-5.61l1.15-12.45a6.45,6.45,0,0,0-6-6.84l-17.61-1.63a6.45,6.45,0,0,0-7.18,5.61,6.45,6.45,0,0,1-7.18,5.61l-22-2c-3.65-.33-5.87-2.85-5.55-6.29l.09-3.25.79-9.3a4,4,0,0,1,4.36-3.64l18.93,1.75,6.8.63a6.65,6.65,0,0,0,7.32-5.94l.41-4.38a6.67,6.67,0,0,0-6.11-7.19l-6.8-.63-19.1-1.77a4,4,0,0,1-3.62-4.32l.93-10.84.31-3.32A6.39,6.39,0,0,1,413.13,96.88Z" class="cls-2"/><line x1="452.63" x2="451.42" y1="89.22" y2="102.28" class="cls-2"/><line x1="464.63" x2="463.47" y1="90.33" y2="102.78" class="cls-2"/><circle cx="451.39" cy="102.65" r="2.84" class="cls-2"/><circle cx="463.38" cy="103.78" r="2.84" class="cls-2"/><path d="M548.28,122.4l-2.11,22.79c-.35,3.78-3.37,6.59-6.73,6.28s-6.39,2.49-6.74,6.27L531,176c-.35,3.78,2.1,7.09,5.47,7.4l12.19,1.13c3.37.32,6.39-2.49,6.74-6.27l6.76-72.95c.35-3.78-2.1-7.09-5.47-7.4l-15.51-1.44-45-4.17-.65-.06-15.18-1.41c-3.44-.32-6.51,2.49-6.86,6.26l-6.76,73c-.35,3.77,2.15,7.09,5.59,7.41l12.44,1.15c3.44.32,6.51-2.48,6.86-6.26l1.69-18.24c.35-3.77-2.15-7.09-5.59-7.41s-5.94-3.64-5.59-7.42l2.12-22.79c.35-3.78,2.87-6.09,6.31-5.77l3.25.08,9.3.8a4.08,4.08,0,0,1,3.63,4.5L505,135.68l-.65,7a6.79,6.79,0,0,0,5.92,7.57l4.38.41a6.81,6.81,0,0,0,7.21-6.35l.65-7,1.84-19.78a4.07,4.07,0,0,1,4.34-3.76l10.83.92,3.32.31C546.18,115.3,548.63,118.62,548.28,122.4Z" class="cls-2"/><line x1="480.05" x2="493.11" y1="156.89" y2="158.1" class="cls-2"/><line x1="479.06" x2="493.01" y1="167.57" y2="168.86" class="cls-2"/><ellipse cx="479.82" cy="156.68" class="cls-2" rx="2.94" ry="2.84" transform="translate(279.52 619.98) rotate(-84.7)"/><ellipse cx="478.76" cy="168.02" class="cls-2" rx="2.94" ry="2.84" transform="translate(267.27 629.23) rotate(-84.7)"/><path d="M180.53,58.38a5.65,5.65,0,0,1,.22,2.23c-.35,3.86-4,7.41-6.39,9a13,13,0,0,1-8.16,2,10.27,10.27,0,0,1-5.26-1.9c-2.73-1.92-4.85-6.35-4.47-11.81,1-13.45,13.08-24.47,20.32-27.22a13.19,13.19,0,0,1,5-.68,5.93,5.93,0,0,1,3.85,1.76c1.9,2.19,3.25,4.93,3,7.53a9.32,9.32,0,0,1-1.21,3.77,50.41,50.41,0,0,0-2.89,5.77c-.41,1.1-1.33,1.69-2.48.78a5.08,5.08,0,0,1-1.69-4.45,9,9,0,0,1,.6-2.43,30.82,30.82,0,0,1,1.32-3c1.08-2.25,2-4.31,1.36-5.24-1.32-1.86-10.55,3.11-16.46,11.55A30.21,30.21,0,0,0,162,59.88c-.53,5.71,1.57,8.46,3.77,8.66,3.37.31,8.12-3.54,12.36-10.59A1.28,1.28,0,0,1,180.53,58.38Z" class="cls-3"/><path d="M218.06,52.61a5.81,5.81,0,0,1,2.64,4c.15,1.11-.5,1.73-2,1.33a29.45,29.45,0,0,0-3.79-.61c-3.14,5-6.41,10.51-9.71,16.39-.71,1.29-2.16,1.58-2.93,0a7.51,7.51,0,0,1-1-4.41,17.63,17.63,0,0,1,1.56-5.11c.73-1.54,2.06-4.22,3.65-6.86-5.21.19-10.6.71-14.34.36-2.87,4.82-5.77,10-8.67,15.13-.72,1.37-2.25,1.65-3.11.13a7.2,7.2,0,0,1-1-4.5c.22-2.43,1.29-4.88,5.54-12.87a6.48,6.48,0,0,1-2.42-2.77c-.68-1.67-.13-2.21,2.09-1.84,1.24.2,1.72.42,2.63.5,6.15-10.36,15-23.61,18.93-28.32,1.49-1.65,2.71-1.28,3.48.4A7,7,0,0,1,210,27a20.33,20.33,0,0,1-3.6,9.08L196,51.67c5.3-.27,9.63-1,14.23-1,6.29-10.18,14.61-22.37,18.34-26.52,1.67-1.79,2.89-1.42,3.55.5a7.49,7.49,0,0,1,.45,3.26c-.22,2.35-1.34,5.47-4.14,9.45C222.32,46.31,220.19,49.42,218.06,52.61Z" class="cls-3"/><path d="M230.44,68.39A41.28,41.28,0,0,1,231,64L226.7,64a52.29,52.29,0,0,1-6.6-.14c-1.94,3-3.6,6.17-5.26,8.77-.86,1.32-1.88,1-2.22,0a5.12,5.12,0,0,1-.51-2.53,13.06,13.06,0,0,1,1.4-4.43c.46-1,1-2.05,1.79-3.39a6.39,6.39,0,0,1-1.63-2.36c-.37-1.31-.09-1.68,1.48-1.27.84.21,1.33.32,2.18.47,5.4-8.29,15-20.33,22-25.65,1.46-1.08,2.37-.92,3.17.49a11,11,0,0,1,1.15,2.86A6.27,6.27,0,0,1,244,39.2a8,8,0,0,1-.74,2.68,167.65,167.65,0,0,0-6,18.29,5,5,0,0,1,2.38,3.7c.21,1.1-.25,1.32-1.33,1l-2.11-.6c-.67,3.29-1.29,6.66-1.72,9.9-.11,1.2-.93,1.39-2,.76C231.14,74.09,230.14,72.25,230.44,68.39Zm6.72-25.86A188.72,188.72,0,0,0,223.3,59.41c1.23,0,2.47,0,3.66-.13,2.1-.07,3.48-.21,5.14-.12A112.67,112.67,0,0,1,237.16,42.53Z" class="cls-3"/><path d="M252.23,70c.35-3.85,1.11-9.35,2.19-14.95a168.66,168.66,0,0,0-13.76,24.41c-.55,1.29-1.48,1.27-2.24.19a6.55,6.55,0,0,1-.82-3.83,13.63,13.63,0,0,1,1.16-3.91c4-8.62,13.26-23.72,18.7-31.66.93-1.39,1.66-1.32,2.51-.44a6.06,6.06,0,0,1,2.21,5.5,22.94,22.94,0,0,1-.6,3.16c-1.36,5.31-2.55,12.17-3.69,19.78a301.1,301.1,0,0,1,16.75-26.68c1.05-1.31,1.75-.91,2.31.42a6.13,6.13,0,0,1,.31,2.64,14.44,14.44,0,0,1-2.94,7c-4,5.8-13,20.72-17.55,29.35a1.32,1.32,0,0,1-2.14.41c-1.92-1.32-2.74-3.14-2.67-6.56C252,72.91,252.08,71.57,252.23,70Z" class="cls-3"/><path d="M297.32,67.55a20.57,20.57,0,0,0-3.44-.25c.65,6.29-7.31,11.53-10.52,12.17a16.29,16.29,0,0,1-4.6.31,9.16,9.16,0,0,1-5.93-2.7c-2.17-2-3.84-5.25-3.33-10.77,1.31-14.16,14.91-25.57,22.08-27.52a12.09,12.09,0,0,1,4.55-.39,7,7,0,0,1,4,1.65,9.58,9.58,0,0,1,3.07,7.6,10,10,0,0,1-1.13,3.51c-.83,1.67-2.05,4.17-2.91,6-.38.83-1.18,1.43-2.25.32a5.58,5.58,0,0,1-1.8-4.59,7.84,7.84,0,0,1,.82-2.81c2.16-4.62,2.94-6.43,2.33-7.22-1.59-2.16-11.31,2.7-17.67,11.3a30.5,30.5,0,0,0-5.83,14.88c-.47,5.12.9,7,2.86,7.18,3.25.3,7.94-3,11.36-8.54-1.62.18-3.11.25-4.35.27-3.21,0-5.4-1.78-6.13-3.92-.27-1,.1-1.67,1.32-1.56a42.35,42.35,0,0,0,7.26-.33A38.49,38.49,0,0,1,293,62c3.38.24,5.08,1.94,5.74,4.15C299,67.17,299,67.84,297.32,67.55Z" class="cls-3"/><path d="M295.52,71c4.35-7.75,13.19-19.43,20.66-27.64a6.08,6.08,0,0,1-2.89-3.72c-.15-1,.77-1.31,2-1.2a89.18,89.18,0,0,0,12.58.2,58.6,58.6,0,0,1,7.12,0c3.69.27,5.58,1.69,6.39,4.18.26.78-.36,1.35-1.88,1.21a77.57,77.57,0,0,0-12.22.18c-1.22.09-2,.15-3.25.18-3,3.18-7.17,8.52-11.48,14,1.71-.05,3.07,0,4.2,0,4.42.27,6.39,1.7,7.07,4,.31.93.09,1.6-1.75,1.43a72.82,72.82,0,0,0-14,.5c-2.58,3.42-4.53,6.07-6.41,9a80.62,80.62,0,0,1,11-.63c4.34.26,6.48,1.56,7.23,3.91.32,1,0,1.52-1.66,1.37-4.24-.46-13,.52-17.47,1.14-2,.3-3.25.18-4.17-1.22-.5-.73-1-1.88-1.73-3.19C294.29,73.72,294.54,72.84,295.52,71Z" class="cls-3"/><path d="M364.46,80.48c2-5.38,9.48-18.3,15.71-26.84a19.76,19.76,0,0,1-2.66,0c-4-.37-6.47-2.14-6.91-4.8-.1-.88.43-1.23,1.29-1.15,5.33.49,15.3-.4,18.85-.07,2.82.26,5.32,1.3,6,4.18.23.82-.09,1.6-1.48,1.34-2.61-.58-6.22-.31-9.58,0-.16,2.4-2.3,6.09-5.39,10.83-3.77,6-9,14.39-13.36,22.77-.6,1.15-1.34,1.15-2.12.14a4.71,4.71,0,0,1-.94-3.78A10,10,0,0,1,364.46,80.48Z" class="cls-3"/><path d="M406.74,79.81a5.39,5.39,0,0,1,2.19,3.71c.12,1-.43,1.63-1.74,1.27a20,20,0,0,0-3.19-.54c-2.7,4.77-5.51,9.92-8.35,15.47-.61,1.22-1.84,1.5-2.47,0a7.61,7.61,0,0,1-.82-4.13,18.4,18.4,0,0,1,1.36-4.81c.63-1.46,1.78-4,3.14-6.48-4.39.23-9,.76-12.11.47-2.46,4.55-5,9.41-7.46,14.27-.61,1.3-1.91,1.58-2.62.16a7.23,7.23,0,0,1-.81-4.22c.21-2.29,1.13-4.59,4.79-12.13a5.78,5.78,0,0,1-2-2.58c-.56-1.56-.09-2.07,1.79-1.74,1,.18,1.44.37,2.21.44,5.28-9.78,12.87-22.29,16.24-26.75,1.28-1.56,2.3-1.22,2.93.35a7.18,7.18,0,0,1,.33,3.29A20.93,20.93,0,0,1,397,64.42l-8.91,14.7c4.47-.3,8.14-1,12-1,5.41-9.61,12.55-21.12,15.73-25,1.43-1.7,2.46-1.36,3,.44a7.94,7.94,0,0,1,.35,3.06c-.21,2.21-1.19,5.14-3.58,8.9C410.39,73.86,408.57,76.8,406.74,79.81Z" class="cls-3"/><path d="M409.81,83.22c3.49-7.59,10.48-19.08,16.36-27.18A5.66,5.66,0,0,1,424,52.48c-.1-.94.62-1.28,1.53-1.2a53.44,53.44,0,0,0,9.65,0,37.44,37.44,0,0,1,5.45-.17c2.83.2,4.25,1.54,4.83,3.94.18.75-.31,1.31-1.47,1.2a47.75,47.75,0,0,0-9.37.41c-.94.11-1.56.19-2.5.24-2.33,3.13-5.66,8.39-9.06,13.78,1.31-.08,2.35,0,3.22,0,3.38.18,4.86,1.52,5.34,3.71.23.9,0,1.55-1.37,1.42a44.66,44.66,0,0,0-10.76.74c-2,3.37-3.58,6-5.08,8.86a49.42,49.42,0,0,1,8.48-.83c3.32.17,4.94,1.4,5.47,3.66.22,1,0,1.47-1.3,1.36-3.24-.37-10,.75-13.42,1.43-1.52.33-2.5.24-3.18-1.1-.36-.7-.69-1.8-1.26-3.06C408.82,85.88,409,85,409.81,83.22Z" class="cls-3"/></g></g></svg>