<?xml version="1.0" encoding="utf-8"?>
<!-- Generator: Adobe Illustrator 22.1.0, SVG Export Plug-In . SVG Version: 6.00 Build 0)  -->
<svg version="1.1"
	 id="Слой_1" inkscape:version="0.91 r13725" sodipodi:docname="YouTube_social_dark circle_(2017).svg" xmlns:cc="http://creativecommons.org/ns#" xmlns:dc="http://purl.org/dc/elements/1.1/" xmlns:inkscape="http://www.inkscape.org/namespaces/inkscape" xmlns:rdf="http://www.w3.org/1999/02/22-rdf-syntax-ns#" xmlns:sodipodi="http://sodipodi.sourceforge.net/DTD/sodipodi-0.dtd" xmlns:svg="http://www.w3.org/2000/svg"
	 xmlns="http://www.w3.org/2000/svg" xmlns:xlink="http://www.w3.org/1999/xlink" x="0px" y="0px" viewBox="0 0 300 300"
	 style="enable-background:new 0 0 300 300;" xml:space="preserve">
<style type="text/css">
	.st0{fill:#FFFFFF;}
</style>
<sodipodi:namedview  bordercolor="#666666" borderopacity="1" fit-margin-bottom="0" fit-margin-left="0" fit-margin-right="0" fit-margin-top="0" gridtolerance="10" guidetolerance="10" id="namedview13" inkscape:current-layer="Слой_1" inkscape:cx="209.20583" inkscape:cy="130.08751" inkscape:pageopacity="0" inkscape:pageshadow="2" inkscape:window-height="715" inkscape:window-maximized="1" inkscape:window-width="1366" inkscape:window-x="-8" inkscape:window-y="-8" inkscape:zoom="1.668772" objecttolerance="10" pagecolor="#ffffff" showgrid="false">
	</sodipodi:namedview>
<g>
	<polygon class="st0" points="104.8,141.2 75.7,112.2 75.7,187.8 113.6,150 	"/>
	<path class="st0" d="M167.5,168.9c-9.6,9.6-25.3,9.6-35,0l-7.2-7.2l-37.9,37.9h125.2l-37.9-37.9L167.5,168.9z"/>
	<path class="st0" d="M155.9,157.2l56.7-56.7H87.4l56.8,56.7C147.4,160.5,152.7,160.5,155.9,157.2z"/>
	<path class="st0" d="M149.8,0.5C67,0.5,0,67.5,0,150.3S67,300,149.8,300s149.8-67,149.8-149.8S232.5,0.5,149.8,0.5z M240.7,191.3
		c0,13.6-11.1,24.7-24.7,24.7H84c-13.6,0-24.7-11.1-24.7-24.8v-82.5C59.3,95.1,70.4,84,84,84h132c13.6,0,24.7,11.1,24.7,24.7V191.3z
		"/>
	<polygon class="st0" points="224.3,187.8 224.3,112.2 186.4,150 	"/>
</g>
</svg>
