<svg xmlns="http://www.w3.org/2000/svg" xmlns:xlink="http://www.w3.org/1999/xlink" viewBox="0 0 512 512"><pattern y="512" width="6" height="6" patternUnits="userSpaceOnUse" id="a" viewBox="0 -6 6 6" overflow="visible"><path d="M0-6h6v6H0z" fill="none"/><path d="M0-6h6v6H0z" fill="none"/></pattern><pattern id="b" xlink:href="#a" patternTransform="translate(0 -99.71)"/><path d="M69.8 442.2h372.4c38.5-.1 69.8-31.3 69.8-69.8V139.6c-.1-38.5-31.3-69.8-69.8-69.8H69.8C31.3 69.9.1 101.1 0 139.6v232.7c0 38.6 31.3 69.9 69.8 69.9zm395.7-79.5L358.8 256l106.7-106.7v213.4zm-258.9-53.4c27.3 27.2 71.5 27.2 98.7 0l20.4-20.4 106.8 106.8H79.3l106.9-106.8 20.4 20.4zm66-32.9c-9.1 9.1-23.8 9.1-32.9 0l-160.2-160h353.1l-160 160zM153.2 256L46.5 362.7V149.3l82 82 24.7 24.7z" fill="url(#b)"/></svg>