<svg xmlns="http://www.w3.org/2000/svg" viewBox="0 0 300 300"><path d="M104.8 141.2l-29.1-29v75.6l37.9-37.8zm62.7 27.7c-9.6 9.6-25.3 9.6-35 0l-7.2-7.2-37.9 37.9h125.2l-37.9-37.9-7.2 7.2zm-11.6-11.7l56.7-56.7H87.4l56.8 56.7c3.2 3.3 8.5 3.3 11.7 0z" fill="#fff"/><path d="M149.8.5C67 .5 0 67.5 0 150.3S67 300 149.8 300s149.8-67 149.8-149.8S232.5.5 149.8.5zm90.9 190.8c0 13.6-11.1 24.7-24.7 24.7H84c-13.6 0-24.7-11.1-24.7-24.8v-82.5C59.3 95.1 70.4 84 84 84h132c13.6 0 24.7 11.1 24.7 24.7v82.6z" fill="#fff"/><path d="M224.3 187.8v-75.6L186.4 150z" fill="#fff"/></svg>