<?xml version="1.0" encoding="utf-8"?>
<!-- Generator: Adobe Illustrator 22.1.0, SVG Export Plug-In . SVG Version: 6.00 Build 0)  -->
<svg version="1.1" id="Capa_1" xmlns="http://www.w3.org/2000/svg" xmlns:xlink="http://www.w3.org/1999/xlink" x="0px" y="0px"
	 viewBox="0 0 512 512" style="enable-background:new 0 0 512 512;" xml:space="preserve">
<style type="text/css">
	.st0{fill:none;}
	.st1{fill:url(#Trazado_2882_1_);}
</style>
<pattern  y="512" width="6" height="6" patternUnits="userSpaceOnUse" id="EMFhbasepattern" viewBox="0 -6 6 6" style="overflow:visible;">
	<g>
		<rect y="-6" class="st0" width="6" height="6"/>
		<rect y="-6" class="st0" width="6" height="6"/>
	</g>
</pattern>
<g id="Capa_2_1_">
	<g id="Слой_1">
		<pattern  id="Trazado_2882_1_" xlink:href="#EMFhbasepattern" patternTransform="matrix(1 0 0 1 0 -99.71)">
		</pattern>
		<path id="Trazado_2882" class="st1" d="M69.8,442.2h372.4c38.5-0.1,69.8-31.3,69.8-69.8V139.6c-0.1-38.5-31.3-69.8-69.8-69.8H69.8
			C31.3,69.9,0.1,101.1,0,139.6v232.7C0,410.9,31.3,442.2,69.8,442.2z M465.5,362.7L358.8,256l106.7-106.7L465.5,362.7z
			 M206.6,309.3c27.3,27.2,71.5,27.2,98.7,0l20.4-20.4l106.8,106.8H79.3l106.9-106.8L206.6,309.3z M272.6,276.4
			c-9.1,9.1-23.8,9.1-32.9,0l-160.2-160h353.1L272.6,276.4z M153.2,256L46.5,362.7V149.3l82,82L153.2,256z"/>
	</g>
</g>
</svg>
