<svg xmlns="http://www.w3.org/2000/svg" viewBox="0 0 131 103.9"><defs><style>.cls-1{fill:#fff;}</style></defs><title>medium</title><g id="Capa_2" data-name="Capa 2"><g id="Capa_1-2" data-name="Capa 1"><path class="cls-1" d="M39,101.6,25.3,84.8a6.7,6.7,0,0,1-1.9-5.7V29l34.1,74.7h4L90.9,29V88.5c0,1.6,0,1.9-1,2.9L79.3,101.7v2.2h51.4v-2.2l-10.2-10a3,3,0,0,1-1.2-2.9V15.1a3.25,3.25,0,0,1,1.2-2.9L131,2.2V0H94.8L69.1,64.4,39.7,0H1.7V2.2L13.9,16.9a5.07,5.07,0,0,1,1.7,4.3v58a6.73,6.73,0,0,1-1.8,5.7L0,101.6v2.2H39Z"/></g></g></svg>