<?xml version="1.0" encoding="utf-8"?>
<!-- Generator: Adobe Illustrator 22.1.0, SVG Export Plug-In . SVG Version: 6.00 Build 0)  -->
<svg version="1.1" id="Capa_1" xmlns="http://www.w3.org/2000/svg" xmlns:xlink="http://www.w3.org/1999/xlink" x="0px" y="0px"
	 viewBox="0 0 195 195" style="enable-background:new 0 0 195 195;" xml:space="preserve">
<style type="text/css">
	.st0{fill:#FFFFFF;}
</style>
<title>Monogram</title>
<desc>Created with Sketch.</desc>
<path class="st0" d="M97.5,0C43.7,0,0,43.7,0,97.5S43.7,195,97.5,195S195,151.3,195,97.5S151.3,0,97.5,0z M163,48.2l-10.5,10
	c-0.9,0.7-1.3,1.8-1.2,2.9v73.7c-0.2,1.1,0.3,2.2,1.2,2.9l10.2,10v2.2h-51.4v-2.2l10.6-10.3c1-1,1-1.3,1-2.9V75l-29.4,74.7h-4
	L55.4,75v50.1c-0.3,2.1,0.4,4.2,1.9,5.7L71,147.6v2.2H32v-2.2l13.8-16.7c1.5-1.5,2.1-3.7,1.8-5.7v-58h-0.1c0.2-1.6-0.5-3.2-1.7-4.3
	L33.7,48.2V46h38l29.4,64.4L126.8,46H163V48.2z"/>
</svg>
