<?xml version="1.0" encoding="utf-8"?>
<!-- Generator: Adobe Illustrator 22.1.0, SVG Export Plug-In . SVG Version: 6.00 Build 0)  -->
<svg version="1.1" id="Capa_1" xmlns="http://www.w3.org/2000/svg" xmlns:xlink="http://www.w3.org/1999/xlink" x="0px" y="0px"
	 viewBox="0 0 195 195" style="enable-background:new 0 0 195 195;" xml:space="preserve">
<style type="text/css">
	.st0{fill:#FFFFFF;}
</style>
<title>Monogram</title>
<desc>Created with Sketch.</desc>
<path class="st0" d="M97.5,0C43.7,0,0,43.7,0,97.5S43.7,195,97.5,195S195,151.3,195,97.5S151.3,0,97.5,0z M155,54.3l-9.2,8.8
	c-0.8,0.6-1.2,1.6-1.1,2.5v64.7c-0.2,1,0.3,2,1.1,2.5l9,8.8v1.9h-45.1v-1.9l9.3-9c0.9-0.9,0.9-1.1,0.9-2.5V77.8L94,143.4h-3.5
	L60.6,77.8v44c-0.3,1.8,0.4,3.7,1.7,5l12,14.7v1.9H40v-1.9l12.1-14.7c1.3-1.3,1.9-3.2,1.6-5V71c0.1-1.4-0.4-2.8-1.5-3.8L41.5,54.3
	v-1.9h33.3l25.8,56.5l22.6-56.5H155V54.3z"/>
</svg>
