<svg xmlns="http://www.w3.org/2000/svg" viewBox="0 0 300 300"><path d="M129.8 180.3l52.6-30.2-52.6-30.4z" fill="#fff"/><path d="M150 0C67.2 0 0 67.2 0 150s67.2 150 150 150 150-67.2 150-150S232.8 0 150 0zm101.1 150.2s0 32.9-4.2 48.6c-2.2 8.7-9.1 15.5-17.7 17.9-15.9 4.1-79.2 4.1-79.2 4.1s-63.1 0-79.1-4.2c-8.6-2.4-15.5-9.2-17.9-17.9-4.1-15.6-4.1-48.6-4.1-48.6s0-32.9 4.1-48.7c2.4-8.6 9.4-15.6 17.9-18 15.9-4.1 79.1-4.1 79.1-4.1s63.3 0 79.2 4.4c8.6 2.2 15.5 9.1 17.7 17.7 4.4 15.8 4.2 48.8 4.2 48.8z" fill="#fff"/></svg>