<?xml version="1.0" encoding="utf-8"?>
<!-- Generator: Adobe Illustrator 22.1.0, SVG Export Plug-In . SVG Version: 6.00 Build 0)  -->
<svg version="1.1"
	 id="Слой_1" inkscape:version="0.91 r13725" sodipodi:docname="YouTube_social_dark circle_(2017).svg" xmlns:cc="http://creativecommons.org/ns#" xmlns:dc="http://purl.org/dc/elements/1.1/" xmlns:inkscape="http://www.inkscape.org/namespaces/inkscape" xmlns:rdf="http://www.w3.org/1999/02/22-rdf-syntax-ns#" xmlns:sodipodi="http://sodipodi.sourceforge.net/DTD/sodipodi-0.dtd" xmlns:svg="http://www.w3.org/2000/svg"
	 xmlns="http://www.w3.org/2000/svg" xmlns:xlink="http://www.w3.org/1999/xlink" x="0px" y="0px" viewBox="0 0 300 300"
	 style="enable-background:new 0 0 300 300;" xml:space="preserve">
<style type="text/css">
	.st0{fill:#FFFFFF;}
</style>
<sodipodi:namedview  bordercolor="#666666" borderopacity="1" fit-margin-bottom="0" fit-margin-left="0" fit-margin-right="0" fit-margin-top="0" gridtolerance="10" guidetolerance="10" id="namedview13" inkscape:current-layer="Слой_1" inkscape:cx="209.20583" inkscape:cy="130.08751" inkscape:pageopacity="0" inkscape:pageshadow="2" inkscape:window-height="715" inkscape:window-maximized="1" inkscape:window-width="1366" inkscape:window-x="-8" inkscape:window-y="-8" inkscape:zoom="1.668772" objecttolerance="10" pagecolor="#ffffff" showgrid="false">
	</sodipodi:namedview>
<g>
	<polygon class="st0" points="129.8,180.3 182.4,150.1 129.8,119.7 	"/>
	<path class="st0" d="M150,0C67.2,0,0,67.2,0,150s67.2,150,150,150s150-67.2,150-150S232.8,0,150,0z M251.1,150.2
		c0,0,0,32.9-4.2,48.6c-2.2,8.7-9.1,15.5-17.7,17.9c-15.9,4.1-79.2,4.1-79.2,4.1s-63.1,0-79.1-4.2c-8.6-2.4-15.5-9.2-17.9-17.9
		c-4.1-15.6-4.1-48.6-4.1-48.6s0-32.9,4.1-48.7c2.4-8.6,9.4-15.6,17.9-18c15.9-4.1,79.1-4.1,79.1-4.1s63.3,0,79.2,4.4
		c8.6,2.2,15.5,9.1,17.7,17.7C251.3,117.2,251.1,150.2,251.1,150.2z"/>
</g>
</svg>
